<?xml version="1.0" encoding="UTF-8" standalone="no"?>
<!-- Created with Inkscape (http://www.inkscape.org/) -->

<svg
   xmlns:dc="http://purl.org/dc/elements/1.1/"
   xmlns:cc="http://creativecommons.org/ns#"
   xmlns:rdf="http://www.w3.org/1999/02/22-rdf-syntax-ns#"
   xmlns:svg="http://www.w3.org/2000/svg"
   xmlns="http://www.w3.org/2000/svg"
   xmlns:sodipodi="http://sodipodi.sourceforge.net/DTD/sodipodi-0.dtd"
   xmlns:inkscape="http://www.inkscape.org/namespaces/inkscape"
   width="128"
   height="128"
   id="svg3027"
   version="1.1"
   inkscape:version="0.48.5 r10040"
   sodipodi:docname="preferences-other.svg"
   inkscape:export-xdpi="90"
   inkscape:export-ydpi="90">
  <metadata
     id="metadata5">
    <rdf:RDF>
      <cc:Work
         rdf:about="">
        <dc:format>image/svg+xml</dc:format>
        <dc:type
           rdf:resource="http://purl.org/dc/dcmitype/StillImage" />
        <dc:title />
      </cc:Work>
    </rdf:RDF>
  </metadata>
  <defs
     id="defs3029" />
  <sodipodi:namedview
     id="base"
     pagecolor="#ffffff"
     bordercolor="#666666"
     borderopacity="1.0"
     inkscape:pageopacity="0.0"
     inkscape:pageshadow="2"
     inkscape:zoom="2.8"
     inkscape:cx="46.483953"
     inkscape:cy="86.094519"
     inkscape:document-units="px"
     inkscape:current-layer="svg3027"
     showgrid="true"
     inkscape:window-width="1013"
     inkscape:window-height="847"
     inkscape:window-x="1932"
     inkscape:window-y="1"
     inkscape:window-maximized="0"
     inkscape:showpageshadow="false"
     borderlayer="false"
     showguides="true"
     inkscape:guide-bbox="true"
     inkscape:snap-to-guides="false"
     inkscape:snap-grids="false">
    <inkscape:grid
       type="xygrid"
       id="grid2981"
       empspacing="4"
       visible="true"
       enabled="true"
       snapvisiblegridlinesonly="true"
       spacingx="4px"
       spacingy="4px"
       dotted="false" />
    <sodipodi:guide
       orientation="0,1"
       position="0,120"
       id="guide2999" />
    <sodipodi:guide
       orientation="1,0"
       position="120,128"
       id="guide3001" />
    <sodipodi:guide
       orientation="0,1"
       position="0,8"
       id="guide3003" />
    <sodipodi:guide
       orientation="1,0"
       position="8,128"
       id="guide3005" />
  </sodipodi:namedview>
  <path
     sodipodi:type="inkscape:offset"
     inkscape:radius="0"
     inkscape:original="M 43.25 20 C 42.462899 20 41.8125 20.668201 41.8125 21.46875 L 41.8125 24.28125 C 40.40512 24.656231 39.074157 25.221906 37.84375 25.9375 L 35.8125 23.9375 C 35.246428 23.371429 34.369055 23.34969 33.8125 23.90625 L 29.90625 27.8125 C 29.349644 28.369062 29.371428 29.246427 29.9375 29.8125 L 31.9375 31.84375 C 31.22191 33.074153 30.656239 34.405116 30.28125 35.8125 L 27.46875 35.8125 C 26.668202 35.8125 26 36.462904 26 37.25 L 26 42.75 C 26 43.537096 26.668202 44.1875 27.46875 44.1875 L 30.28125 44.1875 C 30.656239 45.594883 31.22191 46.925847 31.9375 48.15625 L 29.9375 50.1875 C 29.371478 50.753574 29.349695 51.63094 29.90625 52.1875 L 33.8125 56.09375 C 34.090778 56.372029 34.477472 56.5032 34.84375 56.5 C 35.21003 56.4969 35.52946 56.345537 35.8125 56.0625 L 37.84375 54.0625 C 39.074157 54.778091 40.40512 55.34377 41.8125 55.71875 L 41.8125 58.53125 C 41.8125 59.331799 42.462899 60 43.25 60 L 48.75 60 C 49.537094 60 50.1875 59.331799 50.1875 58.53125 L 50.1875 55.71875 C 51.594881 55.34377 52.925838 54.778095 54.15625 54.0625 L 56.1875 56.0625 C 56.753571 56.628574 57.630936 56.650311 58.1875 56.09375 L 62.09375 52.1875 C 62.650363 51.63094 62.628571 50.753574 62.0625 50.1875 L 60.0625 48.15625 C 60.778089 46.925847 61.343772 45.594883 61.71875 44.1875 L 64.53125 44.1875 C 65.331792 44.1875 66 43.537094 66 42.75 L 66 37.25 C 66 36.462903 65.331792 35.8125 64.53125 35.8125 L 61.71875 35.8125 C 61.343768 34.405116 60.778088 33.074153 60.0625 31.84375 L 62.0625 29.8125 C 62.628521 29.246427 62.650305 28.369062 62.09375 27.8125 L 58.1875 23.90625 C 57.630938 23.34969 56.753572 23.371427 56.1875 23.9375 L 54.15625 25.9375 C 52.925843 25.221906 51.59488 24.656231 50.1875 24.28125 L 50.1875 21.46875 C 50.1875 20.668201 49.537093 20 48.75 20 L 43.25 20 z M 46 33.96875 C 49.33767 33.96875 52.03125 36.662333 52.03125 40 C 52.03125 43.337665 49.33767 46.03125 46 46.03125 C 42.662338 46.03125 39.96875 43.337665 39.96875 40 C 39.96875 36.662333 42.662338 33.96875 46 33.96875 z M 59.75 56.34375 C 59.460075 56.38652 59.206749 56.601159 59.125 56.90625 L 58.75 58.34375 C 57.983802 58.34265 57.222641 58.42889 56.5 58.625 L 55.75 57.34375 C 55.539431 56.979041 55.108585 56.855469 54.75 57.0625 L 52.21875 58.53125 C 51.860143 58.738277 51.758181 59.166535 51.96875 59.53125 L 52.6875 60.84375 C 52.156357 61.371533 51.694668 61.960913 51.3125 62.625 L 49.875 62.25 C 49.468212 62.141002 49.044667 62.381298 48.9375 62.78125 L 48.1875 65.59375 C 48.080333 65.993703 48.343212 66.391001 48.75 66.5 L 50.1875 66.875 C 50.1864 67.6412 50.27263 68.40236 50.46875 69.125 L 49.1875 69.875 C 48.82281 70.085574 48.699221 70.547664 48.90625 70.90625 L 50.34375 73.4375 C 50.447264 73.616796 50.625941 73.73302 50.8125 73.78125 C 50.999044 73.82954 51.19264 73.79279 51.375 73.6875 L 52.65625 72.9375 C 53.184035 73.468643 53.804663 73.930336 54.46875 74.3125 L 54.09375 75.75 C 53.984751 76.15679 54.225045 76.580333 54.625 76.6875 L 57.40625 77.4375 C 57.806202 77.544668 58.234751 77.313039 58.34375 76.90625 L 58.71875 75.46875 C 59.484949 75.46985 60.246106 75.352365 60.96875 75.15625 L 61.71875 76.46875 C 61.92932 76.833461 62.36016 76.95703 62.71875 76.75 L 65.25 75.28125 C 65.608612 75.074228 65.741818 74.61472 65.53125 74.25 L 64.78125 72.96875 C 65.312393 72.440969 65.774096 71.82034 66.15625 71.15625 L 67.59375 71.5625 C 68.000535 71.671497 68.424082 71.431201 68.53125 71.03125 L 69.28125 68.21875 C 69.388417 67.818797 69.125534 67.421499 68.71875 67.3125 L 67.3125 66.90625 C 67.3136 66.140051 67.196115 65.378888 67 64.65625 L 68.28125 63.90625 C 68.645941 63.695674 68.800778 63.264837 68.59375 62.90625 L 67.125 60.375 C 66.917969 60.016409 66.458466 59.914431 66.09375 60.125 L 64.8125 60.875 C 64.284717 60.343855 63.664087 59.850914 63 59.46875 L 63.375 58.0625 C 63.483999 57.655713 63.274953 57.232166 62.875 57.125 L 60.0625 56.375 C 59.96251 56.34821 59.846642 56.3295 59.75 56.34375 z M 58.9375 63.71875 C 59.148422 63.73138 59.350501 63.78695 59.5625 63.84375 C 61.258494 64.29819 62.266938 66.022757 61.8125 67.71875 C 61.358059 69.414742 59.602243 70.42319 57.90625 69.96875 C 56.210261 69.51431 55.20181 67.789741 55.65625 66.09375 C 56.053885 64.609756 57.461049 63.630367 58.9375 63.71875 z "
     style="fill:#3399ff;fill-opacity:1;fill-rule:nonzero;stroke:none;stroke-width:1;marker:none;visibility:visible;display:block;overflow:visible;enable-background:accumulate"
     id="path3703"
     d="m 43.25,20 c -0.787101,0 -1.4375,0.668201 -1.4375,1.46875 l 0,2.8125 c -1.40738,0.374981 -2.738343,0.940656 -3.96875,1.65625 l -2.03125,-2 c -0.566072,-0.566071 -1.443445,-0.58781 -2,-0.03125 l -3.90625,3.90625 c -0.556606,0.556562 -0.534822,1.433927 0.03125,2 l 2,2.03125 c -0.71559,1.230403 -1.281261,2.561366 -1.65625,3.96875 l -2.8125,0 C 26.668202,35.8125 26,36.462904 26,37.25 l 0,5.5 c 0,0.787096 0.668202,1.4375 1.46875,1.4375 l 2.8125,0 c 0.374989,1.407383 0.94066,2.738347 1.65625,3.96875 l -2,2.03125 c -0.566022,0.566074 -0.587805,1.44344 -0.03125,2 l 3.90625,3.90625 c 0.278278,0.278279 0.664972,0.40945 1.03125,0.40625 0.36628,-0.0031 0.68571,-0.154463 0.96875,-0.4375 l 2.03125,-2 c 1.230407,0.715591 2.56137,1.28127 3.96875,1.65625 l 0,2.8125 C 41.8125,59.331799 42.462899,60 43.25,60 l 5.5,0 c 0.787094,0 1.4375,-0.668201 1.4375,-1.46875 l 0,-2.8125 c 1.407381,-0.37498 2.738338,-0.940655 3.96875,-1.65625 l 2.03125,2 c 0.566071,0.566074 1.443436,0.587811 2,0.03125 l 3.90625,-3.90625 c 0.556613,-0.55656 0.534821,-1.433926 -0.03125,-2 l -2,-2.03125 c 0.715589,-1.230403 1.281272,-2.561367 1.65625,-3.96875 l 2.8125,0 C 65.331792,44.1875 66,43.537094 66,42.75 l 0,-5.5 c 0,-0.787097 -0.668208,-1.4375 -1.46875,-1.4375 l -2.8125,0 C 61.343768,34.405116 60.778088,33.074153 60.0625,31.84375 l 2,-2.03125 c 0.566021,-0.566073 0.587805,-1.443438 0.03125,-2 L 58.1875,23.90625 c -0.556562,-0.55656 -1.433928,-0.534823 -2,0.03125 l -2.03125,2 C 52.925843,25.221906 51.59488,24.656231 50.1875,24.28125 l 0,-2.8125 C 50.1875,20.668201 49.537093,20 48.75,20 l -5.5,0 z M 46,33.96875 c 3.33767,0 6.03125,2.693583 6.03125,6.03125 0,3.337665 -2.69358,6.03125 -6.03125,6.03125 -3.337662,0 -6.03125,-2.693585 -6.03125,-6.03125 0,-3.337667 2.693588,-6.03125 6.03125,-6.03125 z m 13.75,22.375 c -0.289925,0.04277 -0.543251,0.257409 -0.625,0.5625 l -0.375,1.4375 c -0.766198,-0.0011 -1.527359,0.08514 -2.25,0.28125 l -0.75,-1.28125 c -0.210569,-0.364709 -0.641415,-0.488281 -1,-0.28125 l -2.53125,1.46875 c -0.358607,0.207027 -0.460569,0.635285 -0.25,1 l 0.71875,1.3125 c -0.531143,0.527783 -0.992832,1.117163 -1.375,1.78125 L 49.875,62.25 c -0.406788,-0.108998 -0.830333,0.131298 -0.9375,0.53125 l -0.75,2.8125 C 48.080333,65.993703 48.343212,66.391001 48.75,66.5 l 1.4375,0.375 c -0.0011,0.7662 0.08513,1.52736 0.28125,2.25 l -1.28125,0.75 c -0.36469,0.210574 -0.488279,0.672664 -0.28125,1.03125 l 1.4375,2.53125 c 0.103514,0.179296 0.282191,0.29552 0.46875,0.34375 0.186544,0.04829 0.38014,0.01154 0.5625,-0.09375 l 1.28125,-0.75 c 0.527785,0.531143 1.148413,0.992836 1.8125,1.375 l -0.375,1.4375 c -0.108999,0.40679 0.131295,0.830333 0.53125,0.9375 l 2.78125,0.75 c 0.399952,0.107168 0.828501,-0.124461 0.9375,-0.53125 l 0.375,-1.4375 c 0.766199,0.0011 1.527356,-0.116385 2.25,-0.3125 l 0.75,1.3125 c 0.21057,0.364711 0.64141,0.48828 1,0.28125 L 65.25,75.28125 c 0.358612,-0.207022 0.491818,-0.66653 0.28125,-1.03125 l -0.75,-1.28125 c 0.531143,-0.527781 0.992846,-1.14841 1.375,-1.8125 l 1.4375,0.40625 c 0.406785,0.108997 0.830332,-0.131299 0.9375,-0.53125 l 0.75,-2.8125 c 0.107167,-0.399953 -0.155716,-0.797251 -0.5625,-0.90625 L 67.3125,66.90625 C 67.3136,66.140051 67.196115,65.378888 67,64.65625 l 1.28125,-0.75 c 0.364691,-0.210576 0.519528,-0.641413 0.3125,-1 L 67.125,60.375 c -0.207031,-0.358591 -0.666534,-0.460569 -1.03125,-0.25 l -1.28125,0.75 C 64.284717,60.343855 63.664087,59.850914 63,59.46875 l 0.375,-1.40625 c 0.108999,-0.406787 -0.100047,-0.830334 -0.5,-0.9375 l -2.8125,-0.75 C 59.96251,56.34821 59.846642,56.3295 59.75,56.34375 z m -0.8125,7.375 c 0.210922,0.01263 0.413001,0.0682 0.625,0.125 1.695994,0.45444 2.704438,2.179007 2.25,3.875 -0.454441,1.695992 -2.210257,2.70444 -3.90625,2.25 -1.695989,-0.45444 -2.70444,-2.179009 -2.25,-3.875 0.397635,-1.483994 1.804799,-2.463383 3.28125,-2.375 z"
     transform="matrix(2.1023237,0,0,2.1023237,-35.654407,-37.985155)" />
</svg>
