<?xml version="1.0" encoding="UTF-8" standalone="no"?>
<!-- Created with Inkscape (http://www.inkscape.org/) -->

<svg
   xmlns:dc="http://purl.org/dc/elements/1.1/"
   xmlns:cc="http://creativecommons.org/ns#"
   xmlns:rdf="http://www.w3.org/1999/02/22-rdf-syntax-ns#"
   xmlns:svg="http://www.w3.org/2000/svg"
   xmlns="http://www.w3.org/2000/svg"
   xmlns:sodipodi="http://sodipodi.sourceforge.net/DTD/sodipodi-0.dtd"
   xmlns:inkscape="http://www.inkscape.org/namespaces/inkscape"
   width="128"
   height="128"
   id="svg3027"
   version="1.1"
   inkscape:version="0.48.5 r10040"
   sodipodi:docname="network-cellular-gprs.svg">
  <defs
     id="defs3029" />
  <sodipodi:namedview
     id="base"
     pagecolor="#ffffff"
     bordercolor="#666666"
     borderopacity="1.0"
     inkscape:pageopacity="0.0"
     inkscape:pageshadow="2"
     inkscape:zoom="3.9140624"
     inkscape:cx="90.895307"
     inkscape:cy="69.802609"
     inkscape:document-units="px"
     inkscape:current-layer="svg3027"
     showgrid="false"
     inkscape:window-width="1013"
     inkscape:window-height="847"
     inkscape:window-x="573"
     inkscape:window-y="23"
     inkscape:window-maximized="0" />
  <metadata
     id="metadata3032">
    <rdf:RDF>
      <cc:Work
         rdf:about="">
        <dc:format>image/svg+xml</dc:format>
        <dc:type
           rdf:resource="http://purl.org/dc/dcmitype/StillImage" />
        <dc:title></dc:title>
      </cc:Work>
    </rdf:RDF>
  </metadata>
  <g
     inkscape:label="Livello 1"
     inkscape:groupmode="layer"
     id="layer1"
     transform="translate(0,-924.36218)" />
  <path
     style="fill:#3399ff"
     inkscape:connector-curvature="0"
     d="m 20.468391,22.170944 c -3.983734,0 -7.190858,3.207123 -7.190858,7.190858 v 71.908588 c 0,3.98374 3.207124,7.19086 7.190858,7.19086 h 86.290299 c 3.98374,0 7.19086,-3.20712 7.19086,-7.19086 V 29.361802 c 0,-3.983735 -3.20712,-7.190858 -7.19086,-7.190858 H 20.468391 z M 45.636396,36.552661 H 56.422682 V 79.697809 H 70.804399 V 36.552661 h 10.786287 c 1.991867,0 3.595429,1.603561 3.595429,3.595428 v 50.336007 c 0,1.991868 -1.603562,3.59543 -3.595429,3.59543 h -35.95429 c -1.991868,0 -3.59543,-1.603562 -3.59543,-3.59543 V 40.148089 c 0,-1.991867 1.603562,-3.595428 3.59543,-3.595428 z"
     id="path4-2" />
</svg>
