<?xml version="1.0" encoding="UTF-8" standalone="no"?>
<!-- Created with Inkscape (http://www.inkscape.org/) -->

<svg
   xmlns:dc="http://purl.org/dc/elements/1.1/"
   xmlns:cc="http://creativecommons.org/ns#"
   xmlns:rdf="http://www.w3.org/1999/02/22-rdf-syntax-ns#"
   xmlns:svg="http://www.w3.org/2000/svg"
   xmlns="http://www.w3.org/2000/svg"
   xmlns:sodipodi="http://sodipodi.sourceforge.net/DTD/sodipodi-0.dtd"
   xmlns:inkscape="http://www.inkscape.org/namespaces/inkscape"
   width="128"
   height="128"
   id="svg3027"
   version="1.1"
   inkscape:version="0.48.5 r10040"
   sodipodi:docname="weather-few-clouds.svg">
  <defs
     id="defs3029" />
  <sodipodi:namedview
     id="base"
     pagecolor="#ffffff"
     bordercolor="#666666"
     borderopacity="1.0"
     inkscape:pageopacity="0.0"
     inkscape:pageshadow="2"
     inkscape:zoom="3.9140624"
     inkscape:cx="90.895777"
     inkscape:cy="51.036686"
     inkscape:document-units="px"
     inkscape:current-layer="svg3027"
     showgrid="false"
     inkscape:window-width="1013"
     inkscape:window-height="847"
     inkscape:window-x="573"
     inkscape:window-y="23"
     inkscape:window-maximized="0" />
  <metadata
     id="metadata3032">
    <rdf:RDF>
      <cc:Work
         rdf:about="">
        <dc:format>image/svg+xml</dc:format>
        <dc:type
           rdf:resource="http://purl.org/dc/dcmitype/StillImage" />
        <dc:title></dc:title>
      </cc:Work>
    </rdf:RDF>
  </metadata>
  <g
     inkscape:label="Livello 1"
     inkscape:groupmode="layer"
     id="layer1"
     transform="translate(0,-924.36218)" />
  <g
     transform="matrix(7.1499179,0,0,7.1499179,6.0333121,6.0154689)"
     style="fill:#3399ff"
     id="g4">
    <path
       inkscape:connector-curvature="0"
       d="M 10.396,10.06 C 9.5628,10.188 8.6512,10.515 7.7077,11.22 4.4632,13.645 2.163,11.293 2.163,11.293 a 0.67215,0.87021 0 1 0 -0.7841,1.3777 c 0,0 3.1613,2.9425 7.0009,0.07251 3.1669,-2.3672 5.5447,-0.03626 5.5447,-0.03626 a 0.68365004,0.88510005 0 1 0 0.7841,-1.4502 c 0,0 -1.8131,-1.5803 -4.3125,-1.1964 z"
       id="path6"
       style="fill:#3399ff" />
    <path
       inkscape:connector-curvature="0"
       d="M 10.396,6.0601 C 9.5627,6.1881 8.651,6.515 7.7075,7.2203 4.463,9.6454 2.1628,7.2928 2.1628,7.2928 A 0.67215,0.87021 0 1 0 1.3787,8.6705 c 0,0 3.1613,2.9425 7.0009,0.07251 3.1664,-2.3672 5.5444,-0.0363 5.5444,-0.0363 a 0.68365004,0.88510005 0 1 0 0.7841,-1.4502 c 0,0 -1.8131,-1.5803 -4.3125,-1.1964 z"
       id="path8"
       style="fill:#3399ff" />
    <path
       inkscape:connector-curvature="0"
       d="M 10.396,2.0601 C 9.5627,2.1881 8.651,2.515 7.7075,3.2203 4.463,5.6454 2.1628,3.2928 2.1628,3.2928 A 0.67215,0.87021 0 1 0 1.3787,4.6705 c 0,0 3.1613,2.9425 7.0009,0.07251 3.1664,-2.3672 5.5444,-0.0363 5.5444,-0.0363 a 0.68365004,0.88510005 0 1 0 0.7841,-1.4502 c 0,0 -1.8131,-1.5803 -4.3125,-1.1964 z"
       id="path10"
       style="fill:#3399ff" />
  </g>
</svg>
