<?xml version="1.0" encoding="UTF-8" standalone="no"?>
<!-- Created with Inkscape (http://www.inkscape.org/) -->

<svg
   xmlns:dc="http://purl.org/dc/elements/1.1/"
   xmlns:cc="http://creativecommons.org/ns#"
   xmlns:rdf="http://www.w3.org/1999/02/22-rdf-syntax-ns#"
   xmlns:svg="http://www.w3.org/2000/svg"
   xmlns="http://www.w3.org/2000/svg"
   xmlns:xlink="http://www.w3.org/1999/xlink"
   xmlns:sodipodi="http://sodipodi.sourceforge.net/DTD/sodipodi-0.dtd"
   xmlns:inkscape="http://www.inkscape.org/namespaces/inkscape"
   width="128"
   height="128"
   id="svg26392"
   version="1.1"
   inkscape:version="0.48.5 r10040"
   sodipodi:docname="drive-harddisk-ieee1394.svg">
  <defs
     id="defs26394">
    <filter
       color-interpolation-filters="sRGB"
       inkscape:collect="always"
       id="filter10207">
      <feGaussianBlur
         inkscape:collect="always"
         stdDeviation="0.022402919"
         id="feGaussianBlur10209" />
    </filter>
    <filter
       color-interpolation-filters="sRGB"
       inkscape:collect="always"
       id="filter5190">
      <feGaussianBlur
         inkscape:collect="always"
         stdDeviation="0.10969233"
         id="feGaussianBlur5192" />
    </filter>
    <filter
       color-interpolation-filters="sRGB"
       inkscape:collect="always"
       id="filter7497">
      <feGaussianBlur
         inkscape:collect="always"
         stdDeviation="0.036652415"
         id="feGaussianBlur7499" />
    </filter>
    <linearGradient
       inkscape:collect="always"
       xlink:href="#linearGradient4827"
       id="linearGradient7553"
       gradientUnits="userSpaceOnUse"
       spreadMethod="reflect"
       x1="64.492081"
       y1="83.273643"
       x2="64.492081"
       y2="83.705124" />
    <linearGradient
       id="linearGradient4827">
      <stop
         id="stop4829"
         offset="0"
         style="stop-color:#a5acb2;stop-opacity:1" />
      <stop
         style="stop-color:#bdc1c7;stop-opacity:1"
         offset="0.64333254"
         id="stop4831" />
      <stop
         id="stop4833"
         offset="0.88042605"
         style="stop-color:#33373c;stop-opacity:1;" />
      <stop
         id="stop4835"
         offset="1"
         style="stop-color:#000000;stop-opacity:1;" />
    </linearGradient>
    <linearGradient
       gradientTransform="matrix(0.19840133,0,0,0.05349553,-33.50686,68.753222)"
       gradientUnits="userSpaceOnUse"
       xlink:href="#linearGradient5048-9"
       id="linearGradient3456"
       y2="609.50507"
       x2="302.85715"
       y1="366.64789"
       x1="302.85715" />
    <radialGradient
       gradientTransform="matrix(0.11652961,0,0,0.05349553,15.826292,68.753222)"
       gradientUnits="userSpaceOnUse"
       xlink:href="#linearGradient5060-4"
       id="radialGradient3453"
       fy="486.64789"
       fx="605.71429"
       r="117.14286"
       cy="486.64789"
       cx="605.71429" />
    <radialGradient
       gradientTransform="matrix(-0.11652961,0,0,0.05349553,60.575796,68.753222)"
       gradientUnits="userSpaceOnUse"
       xlink:href="#linearGradient5060-4"
       id="radialGradient3450"
       fy="486.64789"
       fx="605.71429"
       r="117.14286"
       cy="486.64789"
       cx="605.71429" />
    <linearGradient
       gradientTransform="matrix(2.5983541,0,0,2.5983541,-24.159468,-18.16567)"
       gradientUnits="userSpaceOnUse"
       xlink:href="#linearGradient3484-0"
       id="linearGradient3447"
       y2="10.000001"
       x2="18.072828"
       y1="29.796696"
       x1="17.813944" />
    <radialGradient
       gradientTransform="matrix(3.5771742,1.8115577,-1.2163117,2.4017778,-24.287194,-23.202531)"
       gradientUnits="userSpaceOnUse"
       xlink:href="#linearGradient7056-3"
       id="radialGradient3445"
       fy="8.4900017"
       fx="11.734284"
       r="23.047892"
       cy="8.4900017"
       cx="11.734284" />
    <linearGradient
       gradientTransform="matrix(1.4430464,-0.03633434,0.05401967,2.1454325,73.473796,-66.722543)"
       gradientUnits="userSpaceOnUse"
       xlink:href="#linearGradient7406"
       id="linearGradient3442"
       y2="50.291611"
       x2="-54.885036"
       y1="48.914803"
       x1="-59.202496" />
    <linearGradient
       gradientTransform="matrix(-1.4430464,-0.03633434,-0.05401967,2.1454325,1.9044928,-66.722543)"
       gradientUnits="userSpaceOnUse"
       xlink:href="#linearGradient7406-4"
       id="linearGradient3439"
       y2="50.291611"
       x2="-54.885036"
       y1="48.914803"
       x1="-59.202496" />
    <linearGradient
       spreadMethod="reflect"
       gradientTransform="matrix(2.4623651,0,0,2.8329191,-20.87359,-34.747478)"
       gradientUnits="userSpaceOnUse"
       xlink:href="#linearGradient3385-9"
       id="linearGradient3436"
       y2="46.000774"
       x2="18.093685"
       y1="39.789135"
       x1="18.093685" />
    <linearGradient
       gradientTransform="matrix(2.0560246,0,0,2.3840205,154.86284,-79.042075)"
       gradientUnits="userSpaceOnUse"
       xlink:href="#linearGradient4234-7"
       id="linearGradient3434"
       y2="74.808098"
       x2="-56.730675"
       y1="66.838097"
       x1="-56.730675" />
    <radialGradient
       gradientTransform="matrix(2.5983542,-2.7677972e-8,7.2267042e-8,0.92798346,-24.159465,48.09275)"
       gradientUnits="userSpaceOnUse"
       xlink:href="#linearGradient6310-8-8-4"
       id="radialGradient3431"
       fy="42"
       fx="24"
       r="21"
       cy="42"
       cx="24" />
    <linearGradient
       gradientTransform="matrix(2.2874974,0,0,2.7759366,-16.698909,-21.422513)"
       gradientUnits="userSpaceOnUse"
       xlink:href="#linearGradient3587-8-5"
       id="linearGradient3337"
       y2="25.510105"
       x2="24"
       y1="18.489895"
       x1="24" />
    <linearGradient
       id="linearGradient3587-8-5">
      <stop
         offset="0"
         style="stop-color:#000000;stop-opacity:1"
         id="stop3589-2-7" />
      <stop
         offset="1"
         style="stop-color:#363636;stop-opacity:1"
         id="stop3591-3-5" />
    </linearGradient>
    <linearGradient
       gradientTransform="matrix(1.8373138,-1.446743,1.8373138,1.446743,-81.673344,17.326275)"
       gradientUnits="userSpaceOnUse"
       xlink:href="#linearGradient3587-8-5"
       id="linearGradient3301"
       y2="33.694569"
       x2="21.650301"
       y1="29.671726"
       x1="25.673143" />
    <linearGradient
       gradientTransform="matrix(1.8373138,-1.446743,1.8373138,1.446743,-82.310694,16.980638)"
       gradientUnits="userSpaceOnUse"
       xlink:href="#linearGradient3587-8-5"
       id="linearGradient3304"
       y2="29.758127"
       x2="21.690994"
       y1="25.708384"
       x1="25.740738" />
    <linearGradient
       gradientUnits="userSpaceOnUse"
       xlink:href="#linearGradient3587-8-5"
       id="linearGradient3250"
       y2="33"
       x2="24"
       y1="31"
       x1="24"
       gradientTransform="matrix(2.5983542,0,0,2.5983542,-24.159467,-15.566935)" />
    <linearGradient
       gradientUnits="userSpaceOnUse"
       xlink:href="#linearGradient3587-8-5"
       id="linearGradient3339"
       y2="29.03491"
       x2="24"
       y1="27"
       x1="24"
       gradientTransform="matrix(2.5983542,0,0,2.5983542,-24.159467,-15.566935)" />
    <linearGradient
       gradientUnits="userSpaceOnUse"
       xlink:href="#linearGradient3587-8-5"
       id="linearGradient3310"
       y2="18.986839"
       x2="31"
       y1="12.498755"
       x1="31"
       gradientTransform="matrix(2.5983542,0,0,2.5983542,-24.159467,-15.566935)" />
    <linearGradient
       id="linearGradient5048-9">
      <stop
         offset="0"
         style="stop-color:#000000;stop-opacity:0"
         id="stop5050-4" />
      <stop
         offset="0.5"
         style="stop-color:#000000;stop-opacity:1"
         id="stop5056-1" />
      <stop
         offset="1"
         style="stop-color:#000000;stop-opacity:0"
         id="stop5052-4" />
    </linearGradient>
    <linearGradient
       id="linearGradient5060-4">
      <stop
         offset="0"
         style="stop-color:#000000;stop-opacity:1"
         id="stop5062-0" />
      <stop
         offset="1"
         style="stop-color:#000000;stop-opacity:0"
         id="stop5064-4" />
    </linearGradient>
    <linearGradient
       id="linearGradient7056-3">
      <stop
         offset="0"
         style="stop-color:#e6e6e6;stop-opacity:1"
         id="stop7064-7" />
      <stop
         offset="1"
         style="stop-color:#c8c8c8;stop-opacity:1"
         id="stop7060-8" />
    </linearGradient>
    <linearGradient
       id="linearGradient3484-0">
      <stop
         offset="0"
         style="stop-color:#969696;stop-opacity:1"
         id="stop3486-9" />
      <stop
         offset="1"
         style="stop-color:#b4b4b4;stop-opacity:1"
         id="stop3488-3" />
    </linearGradient>
    <linearGradient
       id="linearGradient7406">
      <stop
         offset="0"
         style="stop-color:#000000;stop-opacity:0.40206185"
         id="stop7408" />
      <stop
         offset="1"
         style="stop-color:#000000;stop-opacity:0"
         id="stop7410" />
    </linearGradient>
    <linearGradient
       id="linearGradient7406-4">
      <stop
         offset="0"
         style="stop-color:#000000;stop-opacity:0.40206185"
         id="stop7408-1" />
      <stop
         offset="1"
         style="stop-color:#000000;stop-opacity:0"
         id="stop7410-5" />
    </linearGradient>
    <linearGradient
       id="linearGradient4234-7">
      <stop
         offset="0"
         style="stop-color:#bcbcba;stop-opacity:1"
         id="stop4236-2" />
      <stop
         offset="1"
         style="stop-color:#787a75;stop-opacity:1"
         id="stop4238-0-5" />
    </linearGradient>
    <linearGradient
       id="linearGradient3385-9">
      <stop
         offset="0"
         style="stop-color:#f0f0f0;stop-opacity:1"
         id="stop3387-0" />
      <stop
         offset="0.30927312"
         style="stop-color:#a7a7a7;stop-opacity:1"
         id="stop3389-2" />
      <stop
         offset="1"
         style="stop-color:#666666;stop-opacity:1"
         id="stop3391-4" />
    </linearGradient>
    <linearGradient
       id="linearGradient6310-8-8-4">
      <stop
         offset="0"
         style="stop-color:#ffffff;stop-opacity:1"
         id="stop6312-6-0-4" />
      <stop
         offset="1"
         style="stop-color:#ffffff;stop-opacity:0"
         id="stop6314-6-2-3" />
    </linearGradient>
    <radialGradient
       gradientTransform="matrix(0.99999995,-1.0652117e-8,2.7812622e-8,0.35714279,1.07e-6,24.500003)"
       gradientUnits="userSpaceOnUse"
       xlink:href="#linearGradient6310-8-8-4-8"
       id="radialGradient4037"
       fy="42"
       fx="24"
       r="21"
       cy="42"
       cx="24" />
    <linearGradient
       id="linearGradient6310-8-8-4-8">
      <stop
         offset="0"
         style="stop-color:#ffffff;stop-opacity:1"
         id="stop6312-6-0-4-9" />
      <stop
         offset="1"
         style="stop-color:#ffffff;stop-opacity:0"
         id="stop6314-6-2-3-4" />
    </linearGradient>
    <linearGradient
       id="linearGradient3385-9-3">
      <stop
         offset="0"
         style="stop-color:#f0f0f0;stop-opacity:1"
         id="stop3387-0-7" />
      <stop
         offset="0.30927312"
         style="stop-color:#a7a7a7;stop-opacity:1"
         id="stop3389-2-0" />
      <stop
         offset="1"
         style="stop-color:#666666;stop-opacity:1"
         id="stop3391-4-6" />
    </linearGradient>
    <linearGradient
       spreadMethod="reflect"
       gradientTransform="matrix(0.9476634,0,0,1.0902744,1.2645996,-7.381805)"
       gradientUnits="userSpaceOnUse"
       xlink:href="#linearGradient3385-9-3"
       id="linearGradient2984-8"
       y2="46.000774"
       x2="18.093685"
       y1="39.789135"
       x1="18.093685" />
    <linearGradient
       id="linearGradient4234-7-0">
      <stop
         offset="0"
         style="stop-color:#bcbcba;stop-opacity:1"
         id="stop4236-2-0" />
      <stop
         offset="1"
         style="stop-color:#787a75;stop-opacity:1"
         id="stop4238-0-5-1" />
    </linearGradient>
    <linearGradient
       gradientTransform="matrix(0.79127958,0,0,0.91751166,68.898346,-24.42898)"
       gradientUnits="userSpaceOnUse"
       xlink:href="#linearGradient4234-7-0"
       id="linearGradient2982-9"
       y2="74.808098"
       x2="-56.730675"
       y1="66.838097"
       x1="-56.730675" />
    <linearGradient
       id="linearGradient7406-4-5">
      <stop
         offset="0"
         style="stop-color:#000000;stop-opacity:0.40206185"
         id="stop7408-1-1" />
      <stop
         offset="1"
         style="stop-color:#000000;stop-opacity:0"
         id="stop7410-5-5" />
    </linearGradient>
    <linearGradient
       gradientTransform="matrix(-0.55536938,-0.0139836,-0.02078996,0.82568901,10.03095,-19.687697)"
       gradientUnits="userSpaceOnUse"
       xlink:href="#linearGradient7406-4-5"
       id="linearGradient3056"
       y2="50.291611"
       x2="-54.885036"
       y1="48.914803"
       x1="-59.202496" />
    <linearGradient
       id="linearGradient7406-5">
      <stop
         offset="0"
         style="stop-color:#000000;stop-opacity:0.40206185"
         id="stop7408-7" />
      <stop
         offset="1"
         style="stop-color:#000000;stop-opacity:0"
         id="stop7410-52" />
    </linearGradient>
    <linearGradient
       gradientTransform="matrix(0.55536938,-0.0139836,0.02078996,0.82568901,37.575041,-19.687697)"
       gradientUnits="userSpaceOnUse"
       xlink:href="#linearGradient7406-5"
       id="linearGradient2990"
       y2="50.291611"
       x2="-54.885036"
       y1="48.914803"
       x1="-59.202496" />
    <linearGradient
       id="linearGradient3484-05">
      <stop
         offset="0"
         style="stop-color:#969696;stop-opacity:1"
         id="stop3486-2" />
      <stop
         offset="1"
         style="stop-color:#b4b4b4;stop-opacity:1"
         id="stop3488-0" />
    </linearGradient>
    <linearGradient
       gradientTransform="translate(0,-1.000147)"
       gradientUnits="userSpaceOnUse"
       xlink:href="#linearGradient3484-05"
       id="linearGradient2929-4"
       y2="10.000001"
       x2="18.072828"
       y1="29.796696"
       x1="17.813944" />
    <linearGradient
       id="linearGradient7056-0">
      <stop
         offset="0"
         style="stop-color:#e6e6e6;stop-opacity:1"
         id="stop7064-5" />
      <stop
         offset="1"
         style="stop-color:#c8c8c8;stop-opacity:1"
         id="stop7060-9" />
    </linearGradient>
    <radialGradient
       gradientTransform="matrix(1.3767077,0.69719425,-0.46810846,0.92434578,-0.04915651,-2.938628)"
       gradientUnits="userSpaceOnUse"
       xlink:href="#linearGradient7056-0"
       id="radialGradient2927-8"
       fy="8.4900017"
       fx="11.734284"
       r="23.047892"
       cy="8.4900017"
       cx="11.734284" />
    <radialGradient
       gradientTransform="matrix(-0.04484747,0,0,0.02058824,32.61113,32.451372)"
       gradientUnits="userSpaceOnUse"
       xlink:href="#linearGradient5060-1"
       id="radialGradient2936-0"
       fy="486.64789"
       fx="605.71429"
       r="117.14286"
       cy="486.64789"
       cx="605.71429" />
    <linearGradient
       id="linearGradient5060-1">
      <stop
         offset="0"
         style="stop-color:#000000;stop-opacity:1"
         id="stop5062-7" />
      <stop
         offset="1"
         style="stop-color:#000000;stop-opacity:0"
         id="stop5064-7" />
    </linearGradient>
    <radialGradient
       gradientTransform="matrix(0.04484747,0,0,0.02058824,15.38888,32.451372)"
       gradientUnits="userSpaceOnUse"
       xlink:href="#linearGradient5060-1"
       id="radialGradient2939-1"
       fy="486.64789"
       fx="605.71429"
       r="117.14286"
       cy="486.64789"
       cx="605.71429" />
    <linearGradient
       id="linearGradient5048-1">
      <stop
         offset="0"
         style="stop-color:#000000;stop-opacity:0"
         id="stop5050-9" />
      <stop
         offset="0.5"
         style="stop-color:#000000;stop-opacity:1"
         id="stop5056-9" />
      <stop
         offset="1"
         style="stop-color:#000000;stop-opacity:0"
         id="stop5052-7" />
    </linearGradient>
    <linearGradient
       gradientTransform="matrix(0.07635654,0,0,0.02058824,-3.5974283,32.451372)"
       gradientUnits="userSpaceOnUse"
       xlink:href="#linearGradient5048-1"
       id="linearGradient3209"
       y2="609.50507"
       x2="302.85715"
       y1="366.64789"
       x1="302.85715" />
  </defs>
  <sodipodi:namedview
     id="base"
     pagecolor="#ffffff"
     bordercolor="#666666"
     borderopacity="1.0"
     inkscape:pageopacity="0.0"
     inkscape:pageshadow="2"
     inkscape:zoom="2.0000001"
     inkscape:cx="60.675688"
     inkscape:cy="58.436849"
     inkscape:current-layer="layer1-6"
     showgrid="true"
     inkscape:document-units="px"
     inkscape:grid-bbox="true"
     inkscape:window-width="817"
     inkscape:window-height="785"
     inkscape:window-x="774"
     inkscape:window-y="47"
     inkscape:window-maximized="0"
     showguides="true"
     inkscape:guide-bbox="true"
     inkscape:snap-grids="false"
     inkscape:snap-to-guides="false"
     inkscape:showpageshadow="false">
    <inkscape:grid
       type="xygrid"
       id="grid3056"
       empspacing="4"
       visible="true"
       enabled="true"
       snapvisiblegridlinesonly="true"
       spacingx="8px"
       spacingy="8px" />
  </sodipodi:namedview>
  <metadata
     id="metadata26397">
    <rdf:RDF>
      <cc:Work
         rdf:about="">
        <dc:format>image/svg+xml</dc:format>
        <dc:type
           rdf:resource="http://purl.org/dc/dcmitype/StillImage" />
        <dc:title></dc:title>
      </cc:Work>
    </rdf:RDF>
  </metadata>
  <g
     id="layer1"
     inkscape:label="Layer 1"
     inkscape:groupmode="layer"
     transform="translate(0,64)">
    <g
       id="layer1-6"
       transform="translate(25.999999,-46.999925)">
      <g
         id="layer1-10"
         transform="matrix(2.5277772,0,0,2.5277772,-23,-11.999834)">
        <g
           id="layer1-1">
          <rect
             style="opacity:0.3;fill:url(#linearGradient3209);fill-opacity:1;fill-rule:nonzero;stroke:none;stroke-width:0.5;marker:none;visibility:visible;display:inline;overflow:visible"
             id="rect2723"
             y="40"
             x="5.5653324"
             height="5"
             width="36.869301" />
          <path
             style="opacity:0.3;fill:url(#radialGradient2939-1);fill-opacity:1;fill-rule:nonzero;stroke:none;stroke-width:0.5;marker:none;visibility:visible;display:inline;overflow:visible"
             id="path2725"
             d="m 42.41667,40.000174 c 0,0 0,4.999723 0,4.999723 C 44.7262,45.009311 48,43.879712 48,42.499715 48,41.119718 45.42274,40.000174 42.41667,40.000174 z"
             inkscape:connector-curvature="0" />
          <path
             style="opacity:0.3;fill:url(#radialGradient2936-0);fill-opacity:1;fill-rule:nonzero;stroke:none;stroke-width:1;marker:none;visibility:visible;display:inline;overflow:visible"
             id="path2727"
             d="m 5.58333,40.000174 c 0,0 0,4.999723 0,4.999723 C 3.2737899,45.009311 0,43.879712 0,42.499715 0,41.119718 2.5772699,40.000174 5.58333,40.000174 z"
             inkscape:connector-curvature="0" />
          <path
             style="fill:url(#radialGradient2927-8);fill-opacity:1;fill-rule:nonzero;stroke:url(#linearGradient2929-4);stroke-width:0.99578345;stroke-linecap:round;stroke-linejoin:round;stroke-miterlimit:4;stroke-opacity:1;stroke-dasharray:none;stroke-dashoffset:0;marker:none;visibility:visible;display:inline;overflow:visible;enable-background:accumulate"
             id="path6345"
             d="M 46.5,39.5 39.740367,10.827625 c -0.192553,-0.733973 -1.2012,-1.3298793 -2.049166,-1.3298793 l -27.617218,0 c -1.30274,0 -2.049257,0.198573 -2.323959,1.3298793 L 1.5,39.5"
             inkscape:connector-curvature="0" />
          <path
             style="opacity:0.4;fill:url(#linearGradient2990);fill-opacity:1;fill-rule:nonzero;stroke:none;stroke-width:0.49429032;marker:none;visibility:visible;display:inline;overflow:visible;enable-background:accumulate"
             id="path6434"
             d="M 9.7496143,9.8356802 C 8.5109418,9.8668702 8.1691745,11.37595 8.1691745,11.37595 L 2.7578489,35.67822 c 0.031866,1.643004 -0.1288879,1.699694 0.243195,2.117437 0.00274,0.0093 -0.00205,0.02193 7.866e-4,0.03124 0.2992963,0.981032 0.9490806,1.664139 1.7021648,1.645176 L 32.628246,38.768971 c 1.00411,-0.02528 1.774061,-1.270671 1.73569,-2.794574 -0.0125,-0.496324 -0.122351,-0.939664 -0.282777,-1.337056 l 0.236368,-0.50611 c -4.3e-4,-0.01703 -10e-4,-0.03123 -0.02153,-0.03072 L 27.380851,10.92348 c -1e-6,0 -0.357612,-1.5227305 -1.615246,-1.4910646 -1.234382,0.03108 -14.800567,0.3726618 -16.0159887,0.4032648 z"
             inkscape:connector-curvature="0" />
          <path
             style="opacity:0.4;fill:url(#linearGradient3056);fill-opacity:1;fill-rule:nonzero;stroke:none;stroke-width:0.49429032;marker:none;visibility:visible;display:inline;overflow:visible;enable-background:accumulate"
             id="path6434-5"
             d="m 37.856376,9.8356806 c 1.238673,0.03119 1.58044,1.5402694 1.58044,1.5402694 l 5.411326,24.30227 c -0.03187,1.643004 0.128888,1.699694 -0.243195,2.117437 -0.0027,0.0093 0.002,0.02193 -7.87e-4,0.03124 -0.299296,0.981032 -0.94908,1.664139 -1.702165,1.645176 l -27.92425,-0.703102 c -1.00411,-0.02528 -1.774061,-1.270671 -1.73569,-2.794574 0.0125,-0.496324 0.122351,-0.939664 0.282777,-1.337056 l -0.236368,-0.50611 c 4.3e-4,-0.01703 0.001,-0.03123 0.02153,-0.03072 L 20.22514,10.92348 c 1e-6,0 0.357612,-1.5227301 1.615246,-1.4910642 1.234382,0.03108 14.800567,0.3726618 16.015988,0.4032648 z"
             inkscape:connector-curvature="0" />
          <rect
             style="fill:url(#linearGradient2982-9);fill-opacity:1;fill-rule:nonzero;stroke:url(#linearGradient2984-8);stroke-width:0.99999994;stroke-linecap:round;stroke-linejoin:round;stroke-miterlimit:4;stroke-opacity:1;stroke-dasharray:none;stroke-dashoffset:0;marker:none;visibility:visible;display:inline;overflow:visible;enable-background:accumulate"
             id="rect2526"
             y="36.500004"
             x="1.5"
             ry="2.9999998"
             rx="2.5872569"
             height="6"
             width="45.017048" />
          <rect
             style="opacity:0.3;fill:url(#radialGradient4037);fill-opacity:1;stroke:none"
             id="rect6300-3"
             y="37"
             x="3"
             height="5"
             width="42" />
        </g>
        <path
           style="opacity:0.4;fill:#000000;fill-opacity:1;stroke:none;display:inline"
           id="path3218"
           d="m 23.446221,12.500421 c -0.004,8.88e-4 -0.02238,0.0077 -0.02667,0.0088 -0.0046,0.0013 -0.02169,0.0073 -0.02667,0.0088 -0.01065,0.0035 -0.04139,0.01329 -0.05332,0.01767 -0.698045,0.266024 -3.359322,1.787092 -3.572875,2.049788 -0.0031,0.0043 0.0015,0.01419 0,0.01767 -2.98e-4,0.0015 -1.27e-4,0.0075 0,0.0088 9.25e-4,7.99e-4 -0.0011,0.008 0,0.0088 0.0032,0.0016 0.02254,0.0073 0.02667,0.0088 0.0051,0.0015 0.02075,0.0074 0.02667,0.0088 0.171304,0.03933 0.676633,0.06925 1.386488,0.07952 l 1.333163,0.01767 0.05332,4.753386 c 0.02901,2.733241 -0.03295,4.665333 -0.133316,4.815234 -8.23e-4,7.45e-4 8.29e-4,0.0083 0,0.0088 -0.0093,0.0028 -0.04249,0.0065 -0.05332,0.0088 -0.004,6.82e-4 -0.02256,0.0082 -0.02667,0.0088 -0.0042,5.88e-4 -0.02225,-5.41e-4 -0.02667,0 -0.0046,4.95e-4 -0.02194,-4.49e-4 -0.02667,0 -0.0098,8.06e-4 -0.04297,0.0082 -0.05332,0.0088 -0.0053,2.67e-4 -0.02119,-2.24e-4 -0.02667,0 -0.622356,0.01986 -2.132455,-0.228586 -3.172926,-0.547789 -1.855431,-0.569221 -3.084227,-1.561692 -3.43956,-2.756611 l -0.133316,-0.459435 0.799898,-0.291564 c 0.48252,-0.173461 0.853309,-0.380149 0.933213,-0.521283 0.502213,-0.887075 -2.10279,-1.552546 -4.559417,-1.166258 -2.139305,0.336392 -2.257655,1.422443 -0.186641,1.846575 0.237196,0.04858 0.420396,0.09127 0.533264,0.141366 0.008,0.0038 0.01904,0.01379 0.02667,0.01767 0.0074,0.0039 0.01972,0.01358 0.02667,0.01767 0.01,0.0062 0.04415,0.01989 0.05332,0.02651 0.07708,0.05847 0.118053,0.133748 0.159979,0.238552 0.998198,2.495386 3.359269,3.711399 8.158954,4.187928 l 1.093195,0.106024 0.05332,2.323682 0.05332,2.314846 -0.986541,0.238552 c -1.169701,0.278463 -1.715615,0.544368 -1.893091,0.936542 -0.252191,0.557269 0.748371,1.151405 2.373031,1.395976 1.584833,0.238574 3.449545,0.08581 4.586079,-0.371083 1.068192,-0.429419 1.210974,-0.946607 0.426612,-1.466658 -0.397443,-0.263511 -0.80652,-0.396727 -1.70645,-0.547787 l -0.639917,-0.106024 0.05332,-3.701988 0.02667,-3.701986 1.173183,-0.07068 c 2.465345,-0.161261 3.934393,-0.430825 5.545956,-1.016058 1.162492,-0.422155 1.864901,-0.833276 2.53301,-1.493165 0.520941,-0.514529 1.091824,-1.546253 1.093192,-1.961434 4.67e-4,-0.141542 0.122758,-0.258642 0.319961,-0.335741 0.184076,-0.06806 0.4357,-0.106024 0.74657,-0.106024 0.05497,0 0.133005,-0.0048 0.186643,-0.0088 0.03794,-0.0033 0.09823,-0.01271 0.133315,-0.01767 0.09615,-0.01475 0.191418,-0.0384 0.239971,-0.06185 0.0094,-0.0051 0.0205,-0.01235 0.02667,-0.01767 0.169023,-0.166425 0.146125,-1.424335 -0.02667,-1.572682 -0.0028,-0.0021 -0.02377,-0.0073 -0.02667,-0.0088 -0.0025,-9.32e-4 -0.02394,-0.0079 -0.02667,-0.0088 -0.0066,-0.0017 -0.01883,-0.0072 -0.02667,-0.0088 -0.0169,-0.0032 -0.05791,-0.006 -0.08,-0.0088 -0.01176,-0.0014 -0.04023,-0.0075 -0.05332,-0.0088 -0.331252,-0.03035 -1.07942,-0.03679 -2.506346,-0.02651 l -2.559673,0.01767 0,0.848188 0,0.839353 0.666582,0.04418 c 0.301497,0.02043 0.596218,0.05762 0.719906,0.07952 0.0041,7.89e-4 0.02306,-7.63e-4 0.02667,0 0.0062,0.0015 0.02257,0.0075 0.02667,0.0088 0.0014,7.73e-4 -0.0012,0.0079 0,0.0088 0.001,0.0012 0.02568,0.0075 0.02667,0.0088 0.109324,0.174973 -0.370632,1.303306 -0.773234,1.784728 -1.095639,1.310134 -3.671858,2.203516 -6.425844,2.235329 l -0.959877,0.0088 0,-3.454598 0,-3.454599 1.093193,-0.01767 c 0.539595,-0.01 1.066238,-0.04275 1.22651,-0.07068 0.0071,-0.0014 0.02164,-0.0074 0.02667,-0.0088 5.01e-4,-5.59e-4 -3.85e-4,-0.0082 0,-0.0088 1.75e-4,-0.0032 0.0016,-0.0136 0,-0.01767 -0.141606,-0.259015 -3.12615,-1.954572 -3.706193,-2.1028 -0.0047,-0.0011 -0.02236,-0.008 -0.02667,-0.0088 -0.0019,-2.24e-4 -0.0249,1.61e-4 -0.02667,0 -0.0015,1.54e-4 -0.02507,-2.13e-4 -0.02667,0 z"
           inkscape:connector-curvature="0" />
        <path
           style="opacity:0.4;fill:#ffffff;fill-opacity:1;stroke:none;display:inline"
           id="path3218-9"
           d="m 23.446221,13.500421 c -0.004,8.88e-4 -0.02238,0.0077 -0.02667,0.0088 -0.0046,0.0013 -0.02169,0.0073 -0.02667,0.0088 -0.01065,0.0035 -0.04139,0.01329 -0.05332,0.01767 -0.698045,0.266024 -3.359322,1.787092 -3.572875,2.049788 -0.0031,0.0043 0.0015,0.01419 0,0.01767 -2.98e-4,0.0015 -1.27e-4,0.0075 0,0.0088 9.25e-4,7.99e-4 -0.0011,0.008 0,0.0088 0.0032,0.0016 0.02254,0.0073 0.02667,0.0088 0.0051,0.0015 0.02075,0.0074 0.02667,0.0088 0.171304,0.03933 0.676633,0.06925 1.386488,0.07952 l 1.333163,0.01767 0.05332,4.753386 c 0.02901,2.733241 -0.03295,4.665333 -0.133316,4.815234 -8.23e-4,7.45e-4 8.29e-4,0.0083 0,0.0088 -0.0093,0.0028 -0.04249,0.0065 -0.05332,0.0088 -0.004,6.82e-4 -0.02256,0.0082 -0.02667,0.0088 -0.0042,5.88e-4 -0.02225,-5.41e-4 -0.02667,0 -0.0046,4.95e-4 -0.02194,-4.49e-4 -0.02667,0 -0.0098,8.06e-4 -0.04297,0.0082 -0.05332,0.0088 -0.0053,2.67e-4 -0.02119,-2.24e-4 -0.02667,0 -0.622356,0.01986 -2.132455,-0.228586 -3.172926,-0.547789 -1.855431,-0.569221 -3.084227,-1.561692 -3.43956,-2.756611 l -0.133316,-0.459435 0.799898,-0.291564 c 0.48252,-0.173461 0.853309,-0.380149 0.933213,-0.521283 0.502213,-0.887075 -2.10279,-1.552546 -4.559417,-1.166258 -2.139305,0.336392 -2.257655,1.422443 -0.186641,1.846575 0.237196,0.04858 0.420396,0.09127 0.533264,0.141366 0.008,0.0038 0.01904,0.01379 0.02667,0.01767 0.0074,0.0039 0.01972,0.01358 0.02667,0.01767 0.01,0.0062 0.04415,0.01989 0.05332,0.02651 0.07708,0.05847 0.118053,0.133748 0.159979,0.238552 0.998198,2.495386 3.359269,3.711399 8.158954,4.187928 l 1.093195,0.106024 0.05332,2.323682 0.05332,2.314846 -0.986541,0.238552 c -1.169701,0.278463 -1.715615,0.544368 -1.893091,0.936542 -0.252191,0.557269 0.748371,1.151405 2.373031,1.395976 1.584833,0.238574 3.449545,0.08581 4.586079,-0.371083 1.068192,-0.429419 1.210974,-0.946607 0.426612,-1.466658 -0.397443,-0.263511 -0.80652,-0.396727 -1.70645,-0.547787 l -0.639917,-0.106024 0.05332,-3.701988 0.02667,-3.701986 1.173183,-0.07068 c 2.465345,-0.161261 3.934393,-0.430825 5.545956,-1.016058 1.162492,-0.422155 1.864901,-0.833276 2.53301,-1.493165 0.520941,-0.514529 1.091824,-1.546253 1.093192,-1.961434 4.67e-4,-0.141542 0.122758,-0.258642 0.319961,-0.335741 0.184076,-0.06806 0.4357,-0.106024 0.74657,-0.106024 0.05497,0 0.133005,-0.0048 0.186643,-0.0088 0.03794,-0.0033 0.09823,-0.01271 0.133315,-0.01767 0.09615,-0.01475 0.191418,-0.0384 0.239971,-0.06185 0.0094,-0.0051 0.0205,-0.01235 0.02667,-0.01767 0.169023,-0.166425 0.146125,-1.424335 -0.02667,-1.572682 -0.0028,-0.0021 -0.02377,-0.0073 -0.02667,-0.0088 -0.0025,-9.32e-4 -0.02394,-0.0079 -0.02667,-0.0088 -0.0066,-0.0017 -0.01883,-0.0072 -0.02667,-0.0088 -0.0169,-0.0032 -0.05791,-0.006 -0.08,-0.0088 -0.01176,-0.0014 -0.04023,-0.0075 -0.05332,-0.0088 -0.331252,-0.03035 -1.07942,-0.03679 -2.506346,-0.02651 l -2.559673,0.01767 0,0.848188 0,0.839353 0.666582,0.04418 c 0.301497,0.02043 0.596218,0.05762 0.719906,0.07952 0.0041,7.89e-4 0.02306,-7.63e-4 0.02667,0 0.0062,0.0015 0.02257,0.0075 0.02667,0.0088 0.0014,7.73e-4 -0.0012,0.0079 0,0.0088 0.001,0.0012 0.02568,0.0075 0.02667,0.0088 0.109324,0.174973 -0.370632,1.303306 -0.773234,1.784728 -1.095639,1.310134 -3.671858,2.203516 -6.425844,2.235329 l -0.959877,0.0088 0,-3.454598 0,-3.454599 1.093193,-0.01767 c 0.539595,-0.01 1.066238,-0.04275 1.22651,-0.07068 0.0071,-0.0014 0.02164,-0.0074 0.02667,-0.0088 5.01e-4,-5.59e-4 -3.85e-4,-0.0082 0,-0.0088 1.75e-4,-0.0032 0.0016,-0.0136 0,-0.01767 -0.141606,-0.259015 -3.12615,-1.954572 -3.706193,-2.1028 -0.0047,-0.0011 -0.02236,-0.008 -0.02667,-0.0088 -0.0019,-2.24e-4 -0.0249,1.61e-4 -0.02667,0 -0.0015,1.54e-4 -0.02507,-2.13e-4 -0.02667,0 z"
           inkscape:connector-curvature="0" />
      </g>
    </g>
  </g>
</svg>
