<?xml version="1.0" encoding="UTF-8" standalone="no"?>
<!-- Created with Inkscape (http://www.inkscape.org/) -->

<svg
   xmlns:dc="http://purl.org/dc/elements/1.1/"
   xmlns:cc="http://creativecommons.org/ns#"
   xmlns:rdf="http://www.w3.org/1999/02/22-rdf-syntax-ns#"
   xmlns:svg="http://www.w3.org/2000/svg"
   xmlns="http://www.w3.org/2000/svg"
   xmlns:xlink="http://www.w3.org/1999/xlink"
   xmlns:sodipodi="http://sodipodi.sourceforge.net/DTD/sodipodi-0.dtd"
   xmlns:inkscape="http://www.inkscape.org/namespaces/inkscape"
   width="128"
   height="128"
   id="svg26392"
   version="1.1"
   inkscape:version="0.48.5 r10040"
   sodipodi:docname="multimedia-player.svg">
  <defs
     id="defs26394">
    <linearGradient
       y2="-5.5633383"
       x2="32.084972"
       y1="-14.402173"
       x1="32.084972"
       gradientTransform="matrix(0.6655121,0,0,0.4518781,0.8823538,48.513956)"
       gradientUnits="userSpaceOnUse"
       id="linearGradient2446"
       xlink:href="#linearGradient47870"
       inkscape:collect="always" />
    <radialGradient
       r="2.171875"
       fy="-12.203125"
       fx="51.4375"
       cy="-12.203125"
       cx="51.4375"
       gradientTransform="matrix(1.8417267,-5.1455073e-7,6.2669991e-7,0.9200109,-59.733813,55.225185)"
       gradientUnits="userSpaceOnUse"
       id="radialGradient2443"
       xlink:href="#linearGradient51765"
       inkscape:collect="always" />
    <radialGradient
       r="2.171875"
       fy="-12.203125"
       fx="51.4375"
       cy="-12.203125"
       cx="51.4375"
       gradientTransform="matrix(-1.8417267,-5.8450938e-8,-1.2125708e-7,0.9200109,107.73382,55.225161)"
       gradientUnits="userSpaceOnUse"
       id="radialGradient2440"
       xlink:href="#linearGradient51765"
       inkscape:collect="always" />
    <linearGradient
       y2="340.79074"
       x2="-497"
       y1="361.81454"
       x1="-497"
       gradientTransform="matrix(1.8023361,0,0,1.9108967,910.74934,-647.7804)"
       gradientUnits="userSpaceOnUse"
       id="linearGradient2437"
       xlink:href="#linearGradient3821"
       inkscape:collect="always" />
    <linearGradient
       y2="107.0205"
       x2="-74.341995"
       y1="5.4862232"
       x1="-74.836441"
       gradientTransform="matrix(0.4150904,0,0,0.3992123,55.188666,0.8935119)"
       gradientUnits="userSpaceOnUse"
       id="linearGradient2435"
       xlink:href="#linearGradient3143"
       inkscape:collect="always" />
    <linearGradient
       y2="13"
       x2="35"
       y1="13"
       x1="13"
       gradientUnits="userSpaceOnUse"
       id="linearGradient2431"
       xlink:href="#linearGradient3737"
       inkscape:collect="always" />
    <radialGradient
       r="11"
       fy="8.4179487"
       fx="19.063108"
       cy="8.4179487"
       cx="19.063108"
       gradientTransform="matrix(1.1459176,0,0,1.0872461,-2.781643,0.5152173)"
       gradientUnits="userSpaceOnUse"
       id="radialGradient2429"
       xlink:href="#linearGradient9936"
       inkscape:collect="always" />
    <linearGradient
       y2="19.8125"
       x2="15.25"
       y1="8.4375"
       x1="12.9375"
       gradientTransform="matrix(0.4761905,0,0,0.5999996,12.571429,4.2000014)"
       gradientUnits="userSpaceOnUse"
       id="linearGradient2425"
       xlink:href="#linearGradient6592-2-7"
       inkscape:collect="always" />
    <linearGradient
       id="linearGradient47870">
      <stop
         offset="0"
         style="stop-color:#000000;stop-opacity:0"
         id="stop47872" />
      <stop
         offset="0.5"
         style="stop-color:#000000;stop-opacity:1"
         id="stop47878" />
      <stop
         offset="1"
         style="stop-color:#000000;stop-opacity:0"
         id="stop47874" />
    </linearGradient>
    <linearGradient
       id="linearGradient51765">
      <stop
         offset="0"
         style="stop-color:#000000;stop-opacity:1"
         id="stop51767" />
      <stop
         offset="1"
         style="stop-color:#000000;stop-opacity:0"
         id="stop51769" />
    </linearGradient>
    <linearGradient
       id="linearGradient3821">
      <stop
         offset="0"
         style="stop-color:#808080;stop-opacity:1"
         id="stop3823" />
      <stop
         offset="1"
         style="stop-color:#999999;stop-opacity:1"
         id="stop3825" />
    </linearGradient>
    <linearGradient
       id="linearGradient3143">
      <stop
         offset="0"
         style="stop-color:#e6e6e6;stop-opacity:1"
         id="stop3145" />
      <stop
         offset="1"
         style="stop-color:#afafaf;stop-opacity:1"
         id="stop3147" />
    </linearGradient>
    <filter
       id="filter3817"
       color-interpolation-filters="sRGB">
      <feGaussianBlur
         stdDeviation="0.67"
         id="feGaussianBlur3819" />
    </filter>
    <linearGradient
       id="linearGradient3737">
      <stop
         offset="0"
         style="stop-color:#121214;stop-opacity:1"
         id="stop3739" />
      <stop
         offset="0.0932906"
         style="stop-color:#393e44;stop-opacity:1"
         id="stop3741" />
      <stop
         offset="0.50235617"
         style="stop-color:#50555b;stop-opacity:1"
         id="stop3743" />
      <stop
         offset="0.91142172"
         style="stop-color:#22272d;stop-opacity:1"
         id="stop3745" />
      <stop
         offset="1"
         style="stop-color:#303438;stop-opacity:1"
         id="stop3747" />
    </linearGradient>
    <linearGradient
       id="linearGradient9936">
      <stop
         offset="0"
         style="stop-color:#575757;stop-opacity:1"
         id="stop9938" />
      <stop
         offset="1"
         style="stop-color:#333333;stop-opacity:1"
         id="stop9940" />
    </linearGradient>
    <linearGradient
       id="linearGradient6592-2-7">
      <stop
         offset="0"
         style="stop-color:#ffffff;stop-opacity:0.27450982"
         id="stop6594-0-2" />
      <stop
         offset="1"
         style="stop-color:#ffffff;stop-opacity:0"
         id="stop6596-2-5" />
    </linearGradient>
    <linearGradient
       inkscape:collect="always"
       xlink:href="#ButtonShadow-0"
       id="linearGradient3122"
       gradientUnits="userSpaceOnUse"
       gradientTransform="matrix(1.0238095,0,0,1.0119048,-1.1428571,-98.071429)"
       x1="32.251034"
       y1="6.1317081"
       x2="32.251034"
       y2="90.238609" />
    <linearGradient
       y2="90.238609"
       x2="32.251034"
       y1="6.1317081"
       x1="32.251034"
       gradientTransform="translate(0,-97)"
       gradientUnits="userSpaceOnUse"
       id="linearGradient3721"
       xlink:href="#ButtonShadow-0"
       inkscape:collect="always" />
    <linearGradient
       y2="90.238609"
       x2="32.251034"
       y1="6.1317081"
       x1="32.251034"
       gradientTransform="matrix(1.0238095,0,0,1.0119048,-1.1428571,-98.071429)"
       gradientUnits="userSpaceOnUse"
       id="linearGradient3725"
       xlink:href="#ButtonShadow-0"
       inkscape:collect="always" />
    <linearGradient
       y2="90.238609"
       x2="32.251034"
       y1="6.1317081"
       x1="32.251034"
       gradientTransform="matrix(1.0238095,0,0,1.0119048,-1.1428571,-98.071429)"
       gradientUnits="userSpaceOnUse"
       id="linearGradient3772"
       xlink:href="#ButtonShadow-0"
       inkscape:collect="always" />
    <linearGradient
       y2="90.238609"
       x2="32.251034"
       y1="6.1317081"
       x1="32.251034"
       gradientTransform="matrix(1.0238095,0,0,1.0119048,-1.1428571,-98.071429)"
       gradientUnits="userSpaceOnUse"
       id="linearGradient3780"
       xlink:href="#ButtonShadow-0"
       inkscape:collect="always" />
    <linearGradient
       gradientUnits="userSpaceOnUse"
       y2="7.0165396"
       x2="45.447727"
       y1="92.539597"
       x1="45.447727"
       gradientTransform="matrix(1.0058652,0,0,0.994169,100,0)"
       id="ButtonShadow-0">
      <stop
         id="stop3750-8"
         offset="0"
         style="stop-color:#000000;stop-opacity:1;" />
      <stop
         id="stop3752-5"
         offset="1"
         style="stop-color:#000000;stop-opacity:0.58823532;" />
    </linearGradient>
    <linearGradient
       y2="61"
       x2="33"
       y1="68"
       x1="33"
       gradientTransform="matrix(0.5,0,0,1,46,0)"
       gradientUnits="userSpaceOnUse"
       id="linearGradient4340"
       xlink:href="#linearGradient4236"
       inkscape:collect="always" />
    <linearGradient
       y2="61"
       x2="33"
       y1="68"
       x1="33"
       gradientTransform="matrix(0.5,0,0,1,42,0)"
       gradientUnits="userSpaceOnUse"
       id="linearGradient4336"
       xlink:href="#linearGradient4236"
       inkscape:collect="always" />
    <linearGradient
       y2="61"
       x2="33"
       y1="68"
       x1="33"
       gradientTransform="matrix(0.5,0,0,1,38,0)"
       gradientUnits="userSpaceOnUse"
       id="linearGradient4332"
       xlink:href="#linearGradient4236"
       inkscape:collect="always" />
    <linearGradient
       y2="61"
       x2="33"
       y1="68"
       x1="33"
       gradientTransform="matrix(0.5,0,0,1,34,0)"
       gradientUnits="userSpaceOnUse"
       id="linearGradient4328"
       xlink:href="#linearGradient4236"
       inkscape:collect="always" />
    <linearGradient
       y2="61"
       x2="33"
       y1="68"
       x1="33"
       gradientTransform="matrix(0.5,0,0,1,30,0)"
       gradientUnits="userSpaceOnUse"
       id="linearGradient4324"
       xlink:href="#linearGradient4236"
       inkscape:collect="always" />
    <linearGradient
       y2="61"
       x2="33"
       y1="68"
       x1="33"
       gradientTransform="matrix(0.5,0,0,1,26,0)"
       gradientUnits="userSpaceOnUse"
       id="linearGradient4320"
       xlink:href="#linearGradient4236"
       inkscape:collect="always" />
    <linearGradient
       y2="61"
       x2="33"
       y1="68"
       x1="33"
       gradientTransform="matrix(0.5,0,0,1,22,0)"
       gradientUnits="userSpaceOnUse"
       id="linearGradient4316"
       xlink:href="#linearGradient4236"
       inkscape:collect="always" />
    <linearGradient
       y2="61"
       x2="33"
       y1="68"
       x1="33"
       gradientTransform="translate(28,40)"
       gradientUnits="userSpaceOnUse"
       id="linearGradient4312"
       xlink:href="#linearGradient4236"
       inkscape:collect="always" />
    <linearGradient
       y2="61"
       x2="33"
       y1="68"
       x1="33"
       gradientTransform="translate(24,40)"
       gradientUnits="userSpaceOnUse"
       id="linearGradient4310"
       xlink:href="#linearGradient4236"
       inkscape:collect="always" />
    <linearGradient
       y2="61"
       x2="33"
       y1="68"
       x1="33"
       gradientTransform="translate(20,40)"
       gradientUnits="userSpaceOnUse"
       id="linearGradient4308"
       xlink:href="#linearGradient4236"
       inkscape:collect="always" />
    <linearGradient
       y2="61"
       x2="33"
       y1="68"
       x1="33"
       gradientTransform="translate(16,40)"
       gradientUnits="userSpaceOnUse"
       id="linearGradient4306"
       xlink:href="#linearGradient4236"
       inkscape:collect="always" />
    <linearGradient
       y2="61"
       x2="33"
       y1="68"
       x1="33"
       gradientTransform="translate(12,40)"
       gradientUnits="userSpaceOnUse"
       id="linearGradient4304"
       xlink:href="#linearGradient4236"
       inkscape:collect="always" />
    <linearGradient
       y2="61"
       x2="33"
       y1="68"
       x1="33"
       gradientTransform="translate(8,40)"
       gradientUnits="userSpaceOnUse"
       id="linearGradient4302"
       xlink:href="#linearGradient4236"
       inkscape:collect="always" />
    <linearGradient
       y2="61"
       x2="33"
       y1="68"
       x1="33"
       gradientTransform="translate(4,40)"
       gradientUnits="userSpaceOnUse"
       id="linearGradient4300"
       xlink:href="#linearGradient4236"
       inkscape:collect="always" />
    <linearGradient
       gradientTransform="translate(0,40)"
       y2="61"
       x2="33"
       y1="68"
       x1="33"
       gradientUnits="userSpaceOnUse"
       id="linearGradient4298"
       xlink:href="#linearGradient4236"
       inkscape:collect="always" />
    <linearGradient
       gradientTransform="matrix(0.5,0,0,1,18,0)"
       gradientUnits="userSpaceOnUse"
       y2="61"
       x2="33"
       y1="68"
       x1="33"
       id="linearGradient4242"
       xlink:href="#linearGradient4236"
       inkscape:collect="always" />
    <radialGradient
       gradientUnits="userSpaceOnUse"
       gradientTransform="matrix(1.1875,0,0,0.5625,-9,27)"
       r="16"
       fy="70"
       fx="48"
       cy="70"
       cx="48"
       id="radialGradient4232"
       xlink:href="#linearGradient4192"
       inkscape:collect="always" />
    <linearGradient
       gradientUnits="userSpaceOnUse"
       y2="24"
       x2="48"
       y1="72"
       x1="48"
       id="linearGradient4222"
       xlink:href="#linearGradient4192"
       inkscape:collect="always" />
    <linearGradient
       gradientUnits="userSpaceOnUse"
       y2="32.987808"
       x2="53"
       y1="74"
       x1="53"
       id="linearGradient4198"
       xlink:href="#linearGradient4192"
       inkscape:collect="always" />
    <linearGradient
       gradientUnits="userSpaceOnUse"
       y2="72"
       x2="48"
       y1="24"
       x1="48"
       id="linearGradient4182"
       xlink:href="#linearGradient4176"
       inkscape:collect="always" />
    <linearGradient
       inkscape:collect="always"
       xlink:href="#linearGradient3737-6"
       id="linearGradient2885"
       gradientUnits="userSpaceOnUse"
       x1="48"
       y1="20.220806"
       x2="48"
       y2="138.66119" />
    <filter
       height="1.3839999"
       y="-0.192"
       width="1.3839999"
       x="-0.192"
       id="filter3794"
       inkscape:collect="always"
       color-interpolation-filters="sRGB">
      <feGaussianBlur
         id="feGaussianBlur3796"
         stdDeviation="5.28"
         inkscape:collect="always" />
    </filter>
    <clipPath
       id="clipPath3613"
       clipPathUnits="userSpaceOnUse">
      <rect
         style="fill:#ffffff;fill-opacity:1;fill-rule:nonzero;stroke:none"
         id="rect3615"
         width="84"
         height="84"
         x="6"
         y="6"
         rx="6"
         ry="6" />
    </clipPath>
    <linearGradient
       id="linearGradient3737-6"
       inkscape:collect="always">
      <stop
         id="stop3739-73"
         offset="0"
         style="stop-color:#ffffff;stop-opacity:1;" />
      <stop
         id="stop3741-6"
         offset="1"
         style="stop-color:#ffffff;stop-opacity:0;" />
    </linearGradient>
    <radialGradient
       inkscape:collect="always"
       xlink:href="#linearGradient3737-1"
       id="radialGradient2855"
       gradientUnits="userSpaceOnUse"
       gradientTransform="matrix(1.5049114,0,0,1.2950282,-10.48464,12.028793)"
       cx="48"
       cy="90.171875"
       fx="48"
       fy="90.171875"
       r="42" />
    <linearGradient
       id="linearGradient3737-1"
       inkscape:collect="always">
      <stop
         id="stop3739-7"
         offset="0"
         style="stop-color:#ffffff;stop-opacity:1;" />
      <stop
         id="stop3741-2"
         offset="1"
         style="stop-color:#ffffff;stop-opacity:0;" />
    </linearGradient>
    <linearGradient
       y2="63.893143"
       x2="36.357143"
       y1="6"
       x1="36.357143"
       gradientUnits="userSpaceOnUse"
       id="linearGradient3188"
       xlink:href="#linearGradient3737-5"
       inkscape:collect="always"
       gradientTransform="matrix(1.3003496,0,0,1.3003496,-0.66567245,11.772454)" />
    <filter
       id="filter3174"
       inkscape:collect="always">
      <feGaussianBlur
         id="feGaussianBlur3176"
         stdDeviation="1.71"
         inkscape:collect="always" />
    </filter>
    <linearGradient
       gradientUnits="userSpaceOnUse"
       y2="5.9877172"
       x2="48"
       y1="90"
       x1="48"
       id="linearGradient3706"
       xlink:href="#linearGradient4156"
       inkscape:collect="always"
       gradientTransform="matrix(1.3003496,0,0,1.3003496,-0.66567245,11.772454)" />
    <linearGradient
       id="linearGradient3737-5"
       inkscape:collect="always">
      <stop
         id="stop3739-0"
         offset="0"
         style="stop-color:#ffffff;stop-opacity:1;" />
      <stop
         id="stop3741-0"
         offset="1"
         style="stop-color:#ffffff;stop-opacity:0;" />
    </linearGradient>
    <linearGradient
       gradientUnits="userSpaceOnUse"
       y2="7.0165396"
       x2="45.447727"
       y1="92.539597"
       x1="45.447727"
       gradientTransform="scale(1.0058652,0.994169)"
       id="ButtonShadow">
      <stop
         id="stop3750"
         offset="0"
         style="stop-color:#000000;stop-opacity:1;" />
      <stop
         id="stop3752"
         offset="1"
         style="stop-color:#000000;stop-opacity:0.58823532;" />
    </linearGradient>
    <linearGradient
       id="linearGradient4156">
      <stop
         style="stop-color:#c6c6c6;stop-opacity:1;"
         offset="0"
         id="stop4158" />
      <stop
         style="stop-color:#e7e7e7;stop-opacity:1;"
         offset="1"
         id="stop4160" />
    </linearGradient>
    <linearGradient
       id="linearGradient4176">
      <stop
         id="stop4178"
         offset="0"
         style="stop-color:#000000;stop-opacity:1;" />
      <stop
         id="stop4180"
         offset="1"
         style="stop-color:#393939;stop-opacity:1;" />
    </linearGradient>
    <linearGradient
       id="linearGradient4192"
       inkscape:collect="always">
      <stop
         id="stop4194"
         offset="0"
         style="stop-color:#ffffff;stop-opacity:1;" />
      <stop
         id="stop4196"
         offset="1"
         style="stop-color:#ffffff;stop-opacity:0;" />
    </linearGradient>
    <linearGradient
       id="linearGradient4236">
      <stop
         id="stop4238"
         offset="0"
         style="stop-color:#ffdf39;stop-opacity:1;" />
      <stop
         id="stop4240"
         offset="1"
         style="stop-color:#eb9c00;stop-opacity:0;" />
    </linearGradient>
    <linearGradient
       inkscape:collect="always"
       xlink:href="#linearGradient4192"
       id="linearGradient3441"
       gradientUnits="userSpaceOnUse"
       x1="53"
       y1="74"
       x2="53"
       y2="32.987808" />
    <linearGradient
       inkscape:collect="always"
       xlink:href="#linearGradient4176"
       id="linearGradient3443"
       gradientUnits="userSpaceOnUse"
       x1="48"
       y1="24"
       x2="48"
       y2="72" />
    <linearGradient
       inkscape:collect="always"
       xlink:href="#linearGradient4192"
       id="linearGradient3445"
       gradientUnits="userSpaceOnUse"
       x1="48"
       y1="72"
       x2="48"
       y2="24" />
    <radialGradient
       inkscape:collect="always"
       xlink:href="#linearGradient4192"
       id="radialGradient3447"
       gradientUnits="userSpaceOnUse"
       gradientTransform="matrix(1.1875,0,0,0.5625,-9,27)"
       cx="48"
       cy="70"
       fx="48"
       fy="70"
       r="16" />
    <linearGradient
       inkscape:collect="always"
       xlink:href="#linearGradient4236"
       id="linearGradient3449"
       gradientUnits="userSpaceOnUse"
       gradientTransform="matrix(0.5,0,0,1,18,0)"
       x1="33"
       y1="68"
       x2="33"
       y2="61" />
    <linearGradient
       inkscape:collect="always"
       xlink:href="#linearGradient4236"
       id="linearGradient3451"
       gradientUnits="userSpaceOnUse"
       gradientTransform="matrix(0.5,0,0,1,22,0)"
       x1="33"
       y1="68"
       x2="33"
       y2="61" />
    <linearGradient
       inkscape:collect="always"
       xlink:href="#linearGradient4236"
       id="linearGradient3453"
       gradientUnits="userSpaceOnUse"
       gradientTransform="matrix(0.5,0,0,1,26,0)"
       x1="33"
       y1="68"
       x2="33"
       y2="61" />
    <linearGradient
       inkscape:collect="always"
       xlink:href="#linearGradient4236"
       id="linearGradient3455"
       gradientUnits="userSpaceOnUse"
       gradientTransform="matrix(0.5,0,0,1,30,0)"
       x1="33"
       y1="68"
       x2="33"
       y2="61" />
    <linearGradient
       inkscape:collect="always"
       xlink:href="#linearGradient4236"
       id="linearGradient3457"
       gradientUnits="userSpaceOnUse"
       gradientTransform="matrix(0.5,0,0,1,34,0)"
       x1="33"
       y1="68"
       x2="33"
       y2="61" />
    <linearGradient
       inkscape:collect="always"
       xlink:href="#linearGradient4236"
       id="linearGradient3459"
       gradientUnits="userSpaceOnUse"
       gradientTransform="matrix(0.5,0,0,1,38,0)"
       x1="33"
       y1="68"
       x2="33"
       y2="61" />
    <linearGradient
       inkscape:collect="always"
       xlink:href="#linearGradient4236"
       id="linearGradient3461"
       gradientUnits="userSpaceOnUse"
       gradientTransform="matrix(0.5,0,0,1,42,0)"
       x1="33"
       y1="68"
       x2="33"
       y2="61" />
    <linearGradient
       inkscape:collect="always"
       xlink:href="#linearGradient4236"
       id="linearGradient3463"
       gradientUnits="userSpaceOnUse"
       gradientTransform="matrix(0.5,0,0,1,46,0)"
       x1="33"
       y1="68"
       x2="33"
       y2="61" />
  </defs>
  <sodipodi:namedview
     id="base"
     pagecolor="#ffffff"
     bordercolor="#666666"
     borderopacity="1.0"
     inkscape:pageopacity="0.0"
     inkscape:pageshadow="2"
     inkscape:zoom="2.8284272"
     inkscape:cx="62.357614"
     inkscape:cy="42.429965"
     inkscape:current-layer="layer1-6"
     showgrid="true"
     inkscape:document-units="px"
     inkscape:grid-bbox="true"
     inkscape:window-width="817"
     inkscape:window-height="785"
     inkscape:window-x="774"
     inkscape:window-y="47"
     inkscape:window-maximized="0"
     showguides="true"
     inkscape:guide-bbox="true"
     inkscape:snap-grids="false"
     inkscape:snap-to-guides="false"
     inkscape:showpageshadow="false">
    <inkscape:grid
       type="xygrid"
       id="grid3056"
       empspacing="4"
       visible="true"
       enabled="true"
       snapvisiblegridlinesonly="true"
       spacingx="8px"
       spacingy="8px" />
  </sodipodi:namedview>
  <metadata
     id="metadata26397">
    <rdf:RDF>
      <cc:Work
         rdf:about="">
        <dc:format>image/svg+xml</dc:format>
        <dc:type
           rdf:resource="http://purl.org/dc/dcmitype/StillImage" />
        <dc:title></dc:title>
      </cc:Work>
    </rdf:RDF>
  </metadata>
  <g
     id="layer1"
     inkscape:label="Layer 1"
     inkscape:groupmode="layer"
     transform="translate(0,64)">
    <g
       id="g3400"
       transform="translate(2.4159983,-75.776526)">
      <g
         style="display:none"
         inkscape:label="Blur Shadow"
         id="layer2">
        <rect
           ry="6"
           rx="6"
           y="7"
           x="5"
           height="85"
           width="86"
           id="rect3745"
           style="opacity:0.9;fill:url(#ButtonShadow);fill-opacity:1;fill-rule:nonzero;stroke:none;filter:url(#filter3174)" />
      </g>
      <g
         style="display:inline"
         inkscape:label="Shadow"
         id="layer5"
         transform="matrix(1.3003496,0,0,1.3003496,-0.66567245,11.772454)">
        <path
           transform="scale(1,-1)"
           d="m 12,-95.03125 c -5.5110903,0 -10.03125,4.52016 -10.03125,10.03125 l 0,71 c 0,5.5110902 4.5201598,10.03125 10.03125,10.03125 l 72,0 c 5.51109,0 10.03125,-4.5201597 10.03125,-10.03125 l 0,-71 c 0,-5.51109 -4.52016,-10.03125 -10.03125,-10.03125 l -72,0 z"
           id="path3786"
           style="opacity:0.07999998;fill:url(#linearGradient3122);fill-opacity:1;fill-rule:nonzero;stroke:none;display:inline"
           inkscape:original="M 12 -94.03125 C 7.028367 -94.03125 2.96875 -89.971633 2.96875 -85 L 2.96875 -14 C 2.96875 -9.0283671 7.0283671 -4.96875 12 -4.96875 L 84 -4.96875 C 88.971633 -4.96875 93.03125 -9.028367 93.03125 -14 L 93.03125 -85 C 93.03125 -89.971633 88.971633 -94.03125 84 -94.03125 L 12 -94.03125 z "
           inkscape:radius="0.99097413"
           sodipodi:type="inkscape:offset" />
        <path
           transform="scale(1,-1)"
           d="m 12,-94.03125 c -4.971633,0 -9.03125,4.059617 -9.03125,9.03125 l 0,71 c 0,4.9716329 4.0596171,9.03125 9.03125,9.03125 l 72,0 c 4.971633,0 9.03125,-4.059617 9.03125,-9.03125 l 0,-71 c 0,-4.971633 -4.059617,-9.03125 -9.03125,-9.03125 l -72,0 z"
           id="path3778"
           style="opacity:0.1;fill:url(#linearGradient3780);fill-opacity:1;fill-rule:nonzero;stroke:none;display:inline"
           inkscape:original="M 12 -93 C 7.5908667 -93 4 -89.409133 4 -85 L 4 -14 C 4 -9.5908667 7.5908667 -6 12 -6 L 84 -6 C 88.409133 -6 92 -9.5908667 92 -14 L 92 -85 C 92 -89.409133 88.409133 -93 84 -93 L 12 -93 z "
           inkscape:radius="1.0360184"
           sodipodi:type="inkscape:offset" />
        <path
           transform="scale(1,-1)"
           d="m 12,-93 c -4.4091333,0 -8,3.590867 -8,8 l 0,71 c 0,4.4091333 3.5908667,8 8,8 l 72,0 c 4.409133,0 8,-3.5908667 8,-8 l 0,-71 c 0,-4.409133 -3.590867,-8 -8,-8 l -72,0 z"
           id="path3770"
           style="opacity:0.2;fill:url(#linearGradient3772);fill-opacity:1;fill-rule:nonzero;stroke:none;display:inline"
           inkscape:original="M 12 -92 C 8.122 -92 5 -88.878 5 -85 L 5 -14 C 5 -10.122 8.122 -7 12 -7 L 84 -7 C 87.878 -7 91 -10.122 91 -14 L 91 -85 C 91 -88.878 87.878 -92 84 -92 L 12 -92 z "
           inkscape:radius="0.98962283"
           sodipodi:type="inkscape:offset" />
        <rect
           transform="scale(1,-1)"
           ry="7"
           rx="7"
           y="-92"
           x="5"
           height="85"
           width="86"
           id="rect3723"
           style="opacity:0.3;fill:url(#linearGradient3725);fill-opacity:1;fill-rule:nonzero;stroke:none;display:inline" />
        <rect
           style="opacity:0.45;fill:url(#linearGradient3721);fill-opacity:1;fill-rule:nonzero;stroke:none;display:inline"
           id="rect3716"
           width="84"
           height="84"
           x="6"
           y="-91"
           rx="6"
           ry="6"
           transform="scale(1,-1)" />
      </g>
      <g
         id="layer1-6"
         inkscape:label="Button">
        <rect
           ry="7.8020973"
           rx="7.8020973"
           y="19.574551"
           x="7.1364255"
           height="109.22936"
           width="109.22936"
           id="rect2419"
           style="fill:url(#linearGradient3706);fill-opacity:1;fill-rule:nonzero;stroke:none" />
        <path
           id="rect3728"
           d="m 14.938523,19.574551 c -4.322363,0 -7.8020983,3.479736 -7.8020983,7.802097 l 0,2.6007 0,88.423772 0,2.6007 c 0,0.43524 0.053771,0.84613 0.1219078,1.25971 0.063323,0.38439 0.1261865,0.7762 0.2438156,1.1378 0.012849,0.0396 0.027171,0.0827 0.040635,0.12185 0.1285592,0.3742 0.3054257,0.71187 0.4876311,1.05654 0.1880203,0.35565 0.4104115,0.69647 0.6501751,1.0159 0.2397637,0.31939 0.4860388,0.61567 0.7720819,0.89398 0.5720849,0.55663 1.2261129,1.05917 1.9505239,1.42226 0.362207,0.18155 0.745717,0.32112 1.137806,0.44699 -0.333151,-0.13032 -0.632893,-0.30722 -0.934625,-0.48763 -0.0097,-0.005 -0.03104,0.005 -0.04063,0 -0.04153,-0.0252 -0.081,-0.0552 -0.121907,-0.0813 -0.156556,-0.0998 -0.30041,-0.21261 -0.446995,-0.32507 -0.138062,-0.10507 -0.27734,-0.20951 -0.40636,-0.3251 -0.231371,-0.20992 -0.451819,-0.44913 -0.6501747,-0.6908 -0.1398899,-0.16938 -0.2839885,-0.34497 -0.4063585,-0.52828 -0.032631,-0.0499 -0.049996,-0.11169 -0.081271,-0.16254 -0.084207,-0.13398 -0.1693418,-0.26594 -0.2438156,-0.40635 -0.1313451,-0.2532 -0.2674493,-0.54056 -0.3657233,-0.81272 -0.010389,-0.0283 -0.03068,-0.0527 -0.040635,-0.0813 -0.041377,-0.11951 -0.046551,-0.24294 -0.08127,-0.36573 -0.039438,-0.13864 -0.091533,-0.264 -0.1219078,-0.40636 -0.094767,-0.44401 -0.162543,-0.90785 -0.162543,-1.38155 l 0,-2.6007 0,-88.423766 0,-2.600699 c 0,-3.617375 2.8843736,-6.501748 6.5017476,-6.501748 l 2.600698,0 88.423771,0 2.6007,0 c 3.61737,0 6.50174,2.884373 6.50174,6.501748 l 0,2.600699 0,88.423766 0,2.6007 c 0,0.4737 -0.0677,0.93754 -0.16254,1.38163 -0.0573,0.26903 -0.11492,0.51709 -0.20318,0.77208 -0.009,0.0286 -0.0303,0.0529 -0.0406,0.0813 -0.0816,0.22593 -0.17994,0.47782 -0.28445,0.69081 -0.0541,0.10766 -0.10276,0.221 -0.16254,0.3251 -0.071,0.12638 -0.16486,0.24491 -0.24382,0.3657 -0.12238,0.18331 -0.26647,0.3589 -0.40636,0.52828 -0.18618,0.22685 -0.39419,0.45123 -0.60954,0.65017 -0.0145,0.0133 -0.026,0.0275 -0.0406,0.0406 -0.17996,0.16328 -0.37072,0.30485 -0.5689,0.447 -0.13338,0.0951 -0.2657,0.19942 -0.40637,0.28445 -0.009,0.005 -0.0309,-0.005 -0.0406,0 -0.30173,0.18041 -0.60147,0.35731 -0.93463,0.48763 0.39209,-0.12587 0.7756,-0.26544 1.13781,-0.44699 0.72442,-0.36309 1.37843,-0.86563 1.95053,-1.42226 0.28604,-0.27831 0.53232,-0.57459 0.77208,-0.89398 0.23977,-0.31943 0.46215,-0.66025 0.65017,-1.0159 0.18221,-0.34467 0.35907,-0.68234 0.48764,-1.05654 0.0136,-0.0401 0.0277,-0.0815 0.0406,-0.12185 0.11762,-0.36161 0.18049,-0.75341 0.24381,-1.1378 0.0681,-0.41357 0.12191,-0.82447 0.12191,-1.25971 l 0,-2.6007 0,-88.423771 0,-2.6007 c 0,-4.322362 -3.47974,-7.802098 -7.8021,-7.802098 l -93.625164,0 z"
           style="opacity:0.5;fill:url(#linearGradient3188);fill-opacity:1;fill-rule:nonzero;stroke:none"
           inkscape:connector-curvature="0" />
        <path
           style="opacity:0.2;fill:url(#radialGradient2855);fill-opacity:1;fill-rule:nonzero;stroke:none"
           d="m 14.938523,128.80391 c -4.322363,0 -7.8020983,-3.47973 -7.8020983,-7.80209 l 0,-2.6007 0,-88.423772 0,-2.6007 c 0,-0.435254 0.053771,-0.846137 0.1219078,-1.259713 0.063323,-0.384377 0.1261865,-0.776198 0.2438156,-1.137806 0.012849,-0.0395 0.027171,-0.0827 0.040635,-0.121908 0.1285592,-0.374203 0.3054257,-0.711879 0.4876311,-1.056533 0.1880203,-0.355655 0.4104115,-0.696487 0.6501751,-1.015899 0.2397637,-0.319412 0.4860388,-0.615679 0.7720819,-0.893989 0.5720849,-0.556624 1.2261129,-1.059169 1.9505239,-1.422258 0.362207,-0.181545 0.745717,-0.321117 1.137806,-0.446996 -0.333151,0.130324 -0.632893,0.307237 -0.934625,0.487632 -0.0097,0.0058 -0.03104,-0.0059 -0.04063,0 -0.04153,0.02509 -0.081,0.05528 -0.121907,0.08127 -0.156556,0.09974 -0.30041,0.212624 -0.446995,0.325088 -0.138062,0.105071 -0.27734,0.209501 -0.40636,0.325087 -0.231371,0.20992 -0.451819,0.449125 -0.6501747,0.690811 -0.1398899,0.169377 -0.2839885,0.344963 -0.4063585,0.528267 -0.032631,0.04991 -0.049996,0.111661 -0.081271,0.162544 -0.084207,0.133977 -0.1693418,0.265943 -0.2438156,0.406359 -0.1313451,0.253186 -0.2674493,0.540556 -0.3657233,0.812719 -0.010389,0.02836 -0.03068,0.05273 -0.040635,0.08127 -0.041377,0.119567 -0.046551,0.242945 -0.08127,0.365723 -0.039438,0.138642 -0.091533,0.264012 -0.1219078,0.40636 -0.094767,0.444084 -0.162543,0.90791 -0.162543,1.381621 l 0,2.600699 0,88.423776 0,2.60069 c 0,3.61739 2.8843736,6.50176 6.5017476,6.50176 l 2.600698,0 88.423771,0 2.6007,0 c 3.61737,0 6.50174,-2.88437 6.50174,-6.50176 l 0,-2.60069 0,-88.423776 0,-2.600699 c 0,-0.473711 -0.0677,-0.937537 -0.16254,-1.381621 -0.0573,-0.269033 -0.11492,-0.517094 -0.20318,-0.772083 -0.009,-0.02854 -0.0303,-0.05291 -0.0406,-0.08127 -0.0816,-0.225922 -0.17994,-0.477812 -0.28445,-0.690812 -0.0541,-0.107669 -0.10276,-0.220999 -0.16254,-0.325086 -0.071,-0.126408 -0.16486,-0.244922 -0.24382,-0.365724 -0.12238,-0.183304 -0.26647,-0.35889 -0.40636,-0.528267 -0.18618,-0.226846 -0.39419,-0.451219 -0.60954,-0.650175 -0.0145,-0.01327 -0.026,-0.0275 -0.0406,-0.04063 -0.17996,-0.163267 -0.37072,-0.304849 -0.5689,-0.446994 -0.13338,-0.09513 -0.2657,-0.199427 -0.40637,-0.284452 -0.009,-0.0059 -0.0309,0.0058 -0.0406,0 -0.30173,-0.180395 -0.60147,-0.357308 -0.93463,-0.487632 0.39209,0.125875 0.7756,0.265452 1.13781,0.446996 0.72442,0.363089 1.37843,0.865634 1.95053,1.422258 0.28604,0.27831 0.53232,0.574578 0.77208,0.893989 0.23977,0.319412 0.46215,0.660244 0.65017,1.015899 0.18221,0.344654 0.35907,0.68233 0.48764,1.056533 0.0136,0.04004 0.0277,0.08159 0.0406,0.121908 0.11762,0.361608 0.18049,0.753429 0.24381,1.137806 0.0681,0.413576 0.12191,0.82446 0.12191,1.259714 l 0,2.600699 0,88.423775 0,2.60069 c 0,4.32236 -3.47974,7.8021 -7.8021,7.8021 l -93.625164,0 z"
           id="path3615"
           inkscape:connector-curvature="0" />
      </g>
      <g
         inkscape:label="Highlight"
         id="layer4"
         transform="matrix(1.3003496,0,0,1.3003496,-0.66567245,11.772454)">
        <rect
           clip-path="url(#clipPath3613)"
           ry="12"
           rx="12"
           y="15"
           x="15"
           height="66"
           width="66"
           id="rect3171"
           style="opacity:0.15;fill:url(#linearGradient2885);fill-opacity:1;fill-rule:nonzero;stroke:#ffffff;stroke-width:0.5;stroke-linecap:round;stroke-linejoin:miter;stroke-miterlimit:4;stroke-opacity:1;stroke-dasharray:none;stroke-dashoffset:0;filter:url(#filter3794)" />
      </g>
      <g
         inkscape:label="Symbol"
         id="layer3"
         transform="matrix(1.3003496,0,0,1.3003496,-0.66567245,11.772454)">
        <path
           d="M 39.8125,22.03125 A 1.9843903,1.9843903 0 0 0 38.03125,24 l 0,2.03125 -2.03125,0 A 1.9843903,1.9843903 0 0 0 34.03125,28 l 0,2.03125 -7.03125,0 c -2.726921,0 -4.96875,2.241829 -4.96875,4.96875 l 0,34 c 0,2.726921 2.241829,4.96875 4.96875,4.96875 l 42,0 c 2.726921,0 4.96875,-2.241829 4.96875,-4.96875 l 0,-34 c 0,-2.726921 -2.241829,-4.96875 -4.96875,-4.96875 l -7.03125,0 0,-2.03125 A 1.9843903,1.9843903 0 0 0 60,26.03125 l -2.03125,0 0,-2.03125 A 1.9843903,1.9843903 0 0 0 56,22.03125 l -16,0 a 1.9843903,1.9843903 0 0 0 -0.1875,0 z"
           id="path4188"
           style="opacity:0.8;color:#000000;fill:url(#linearGradient3441);fill-opacity:1;fill-rule:nonzero;stroke:none;stroke-width:1;marker:none;visibility:visible;display:inline;overflow:visible;enable-background:accumulate"
           inkscape:original="M 40 24 L 40 28 L 36 28 L 36 32 L 27 32 C 25.338 32 24 33.338 24 35 L 24 69 C 24 70.662 25.338 72 27 72 L 69 72 C 70.662 72 72 70.662 72 69 L 72 35 C 72 33.338 70.662 32 69 32 L 60 32 L 60 28 L 56 28 L 56 24 L 40 24 z "
           inkscape:radius="1.9841919"
           sodipodi:type="inkscape:offset" />
        <path
           id="rect4162"
           d="m 40,24 0,4 -4,0 0,4 -9,0 c -1.662,0 -3,1.338 -3,3 l 0,34 c 0,1.662 1.338,3 3,3 l 42,0 c 1.662,0 3,-1.338 3,-3 l 0,-34 c 0,-1.662 -1.338,-3 -3,-3 l -9,0 0,-4 -4,0 0,-4 -16,0 z"
           style="color:#000000;fill:url(#linearGradient3443);fill-opacity:1;fill-rule:nonzero;stroke:none;stroke-width:1;marker:none;visibility:visible;display:inline;overflow:visible;enable-background:accumulate"
           inkscape:connector-curvature="0" />
        <path
           id="path4200"
           d="m 40,22 0,2 16,0 0,-2 -16,0 z m -4,4 0,2 4,0 0,-2 -4,0 z m 20,0 0,2 4,0 0,-2 -4,0 z m -29,4 c -1.662,0 -3,1.338 -3,3 l 0,2 c 0,-1.662 1.338,-3 3,-3 l 9,0 0,-2 -9,0 z m 33,0 0,2 9,0 c 1.662,0 3,1.338 3,3 l 0,-2 c 0,-1.662 -1.338,-3 -3,-3 l -9,0 z"
           style="opacity:0.15;color:#000000;fill:#000000;fill-opacity:1;fill-rule:nonzero;stroke:none;stroke-width:1;marker:none;visibility:visible;display:inline;overflow:visible;enable-background:accumulate"
           inkscape:connector-curvature="0" />
        <path
           id="path4209"
           d="m 40,24 0,4 -4,0 0,4 -9,0 c -1.662,0 -3,1.338 -3,3 l 0,34 c 0,1.662 1.338,3 3,3 l 42,0 c 1.662,0 3,-1.338 3,-3 l 0,-34 c 0,-1.662 -1.338,-3 -3,-3 l -9,0 0,-4 -4,0 0,-4 -16,0 z m 1.96875,1.96875 12.0625,0 0,2.03125 A 1.9749666,1.9749666 0 0 0 56,29.96875 l 2.03125,0 0,2.03125 A 1.9749666,1.9749666 0 0 0 60,33.96875 l 9,0 c 0.602136,0 1.03125,0.429114 1.03125,1.03125 l 0,34 c 0,0.602136 -0.429114,1.03125 -1.03125,1.03125 l -42,0 c -0.602136,0 -1.03125,-0.429114 -1.03125,-1.03125 l 0,-34 c 0,-0.602136 0.429114,-1.03125 1.03125,-1.03125 l 9,0 A 1.9749666,1.9749666 0 0 0 37.96875,32 l 0,-2.03125 2.03125,0 A 1.9749666,1.9749666 0 0 0 41.96875,28 l 0,-2.03125 z"
           style="opacity:0.2;color:#000000;fill:url(#linearGradient3445);fill-opacity:1;fill-rule:nonzero;stroke:none;stroke-width:1;marker:none;visibility:visible;display:inline;overflow:visible;enable-background:accumulate"
           inkscape:connector-curvature="0" />
        <rect
           y="54"
           x="29"
           height="18"
           width="38"
           id="rect4224"
           style="opacity:0.2;color:#000000;fill:url(#radialGradient3447);fill-opacity:1;fill-rule:nonzero;stroke:none;stroke-width:1;marker:none;visibility:visible;display:inline;overflow:visible;enable-background:accumulate" />
        <rect
           y="61"
           x="34"
           height="7"
           width="1"
           id="rect4234"
           style="color:#000000;fill:url(#linearGradient3449);fill-opacity:1;fill-rule:nonzero;stroke:none;stroke-width:1;marker:none;visibility:visible;display:inline;overflow:visible;enable-background:accumulate" />
        <path
           id="path4276"
           d="m 40,23 0,1 16,0 0,-1 -16,0 z m -4,4 0,1 4,0 0,-1 -4,0 z m 20,0 0,1 4,0 0,-1 -4,0 z m -29,4 c -1.662,0 -3,1.338 -3,3 l 0,1 c 0,-1.662 1.338,-3 3,-3 l 9,0 0,-1 -9,0 z m 33,0 0,1 9,0 c 1.662,0 3,1.338 3,3 l 0,-1 c 0,-1.662 -1.338,-3 -3,-3 l -9,0 z"
           style="opacity:0.3;color:#000000;fill:#000000;fill-opacity:1;fill-rule:nonzero;stroke:none;stroke-width:1;marker:none;visibility:visible;display:inline;overflow:visible;enable-background:accumulate"
           inkscape:connector-curvature="0" />
        <rect
           style="color:#000000;fill:url(#linearGradient3451);fill-opacity:1;fill-rule:nonzero;stroke:none;stroke-width:1;marker:none;visibility:visible;display:inline;overflow:visible;enable-background:accumulate"
           id="rect4314"
           width="1"
           height="7"
           x="38"
           y="61" />
        <rect
           y="61"
           x="42"
           height="7"
           width="1"
           id="rect4318"
           style="color:#000000;fill:url(#linearGradient3453);fill-opacity:1;fill-rule:nonzero;stroke:none;stroke-width:1;marker:none;visibility:visible;display:inline;overflow:visible;enable-background:accumulate" />
        <rect
           style="color:#000000;fill:url(#linearGradient3455);fill-opacity:1;fill-rule:nonzero;stroke:none;stroke-width:1;marker:none;visibility:visible;display:inline;overflow:visible;enable-background:accumulate"
           id="rect4322"
           width="1"
           height="7"
           x="46"
           y="61" />
        <rect
           y="61"
           x="50"
           height="7"
           width="1"
           id="rect4326"
           style="color:#000000;fill:url(#linearGradient3457);fill-opacity:1;fill-rule:nonzero;stroke:none;stroke-width:1;marker:none;visibility:visible;display:inline;overflow:visible;enable-background:accumulate" />
        <rect
           style="color:#000000;fill:url(#linearGradient3459);fill-opacity:1;fill-rule:nonzero;stroke:none;stroke-width:1;marker:none;visibility:visible;display:inline;overflow:visible;enable-background:accumulate"
           id="rect4330"
           width="1"
           height="7"
           x="54"
           y="61" />
        <rect
           y="61"
           x="58"
           height="7"
           width="1"
           id="rect4334"
           style="color:#000000;fill:url(#linearGradient3461);fill-opacity:1;fill-rule:nonzero;stroke:none;stroke-width:1;marker:none;visibility:visible;display:inline;overflow:visible;enable-background:accumulate" />
        <rect
           style="color:#000000;fill:url(#linearGradient3463);fill-opacity:1;fill-rule:nonzero;stroke:none;stroke-width:1;marker:none;visibility:visible;display:inline;overflow:visible;enable-background:accumulate"
           id="rect4338"
           width="1"
           height="7"
           x="62"
           y="61" />
      </g>
    </g>
  </g>
</svg>
