<?xml version="1.0" encoding="UTF-8" standalone="no"?>
<!-- Created with Inkscape (http://www.inkscape.org/) -->

<svg
   xmlns:dc="http://purl.org/dc/elements/1.1/"
   xmlns:cc="http://creativecommons.org/ns#"
   xmlns:rdf="http://www.w3.org/1999/02/22-rdf-syntax-ns#"
   xmlns:svg="http://www.w3.org/2000/svg"
   xmlns="http://www.w3.org/2000/svg"
   xmlns:sodipodi="http://sodipodi.sourceforge.net/DTD/sodipodi-0.dtd"
   xmlns:inkscape="http://www.inkscape.org/namespaces/inkscape"
   width="128"
   height="128"
   id="svg3027"
   version="1.1"
   inkscape:version="0.48.5 r10040"
   sodipodi:docname="dialog-warning.svg">
  <defs
     id="defs3029" />
  <sodipodi:namedview
     id="base"
     pagecolor="#ffffff"
     bordercolor="#666666"
     borderopacity="1.0"
     inkscape:pageopacity="0.0"
     inkscape:pageshadow="2"
     inkscape:zoom="3.9140625"
     inkscape:cx="62.339321"
     inkscape:cy="61.005059"
     inkscape:document-units="px"
     inkscape:current-layer="svg3027"
     showgrid="false"
     inkscape:window-width="1013"
     inkscape:window-height="847"
     inkscape:window-x="572"
     inkscape:window-y="47"
     inkscape:window-maximized="0" />
  <metadata
     id="metadata3032">
    <rdf:RDF>
      <cc:Work
         rdf:about="">
        <dc:format>image/svg+xml</dc:format>
        <dc:type
           rdf:resource="http://purl.org/dc/dcmitype/StillImage" />
        <dc:title></dc:title>
      </cc:Work>
    </rdf:RDF>
  </metadata>
  <g
     inkscape:label="Livello 1"
     inkscape:groupmode="layer"
     id="layer1"
     transform="translate(0,-924.36218)" />
  <path
     style="fill:#3399ff"
     inkscape:connector-curvature="0"
     d="m 64.511649,16.016218 c -14.132439,0 -25.589497,11.457058 -25.589497,25.589497 0,9.462996 5.157563,17.563351 12.794749,21.990974 v 41.979571 l 12.794748,12.79475 12.794747,-12.79475 v -6.397375 l -6.397372,-6.397375 6.397372,-6.397374 -6.397372,-6.397374 6.397372,-6.397374 V 63.59349 C 84.944861,59.16011 90.101144,51.061034 90.101144,41.599318 90.126734,27.48671 78.713818,16.027094 64.511649,16.016218 z m 0,12.794749 c 3.53327,0 6.397375,2.864104 6.397375,6.397374 0,3.53327 -2.864105,6.397374 -6.397375,6.397374 -3.533269,0 -6.397374,-2.864104 -6.397374,-6.397374 0,-3.53327 2.864105,-6.397374 6.397374,-6.397374 z"
     id="path4" />
</svg>
