<?xml version="1.0" encoding="UTF-8" standalone="no"?>
<!-- Created with Inkscape (http://www.inkscape.org/) -->

<svg
   xmlns:dc="http://purl.org/dc/elements/1.1/"
   xmlns:cc="http://creativecommons.org/ns#"
   xmlns:rdf="http://www.w3.org/1999/02/22-rdf-syntax-ns#"
   xmlns:svg="http://www.w3.org/2000/svg"
   xmlns="http://www.w3.org/2000/svg"
   xmlns:sodipodi="http://sodipodi.sourceforge.net/DTD/sodipodi-0.dtd"
   xmlns:inkscape="http://www.inkscape.org/namespaces/inkscape"
   width="128"
   height="128"
   id="svg3027"
   version="1.1"
   inkscape:version="0.48.5 r10040"
   sodipodi:docname="dialog-error.svg">
  <defs
     id="defs3029" />
  <sodipodi:namedview
     id="base"
     pagecolor="#ffffff"
     bordercolor="#666666"
     borderopacity="1.0"
     inkscape:pageopacity="0.0"
     inkscape:pageshadow="2"
     inkscape:zoom="3.9140625"
     inkscape:cx="62.339321"
     inkscape:cy="61.005059"
     inkscape:document-units="px"
     inkscape:current-layer="svg3027"
     showgrid="false"
     inkscape:window-width="1013"
     inkscape:window-height="847"
     inkscape:window-x="559"
     inkscape:window-y="16"
     inkscape:window-maximized="0" />
  <metadata
     id="metadata3032">
    <rdf:RDF>
      <cc:Work
         rdf:about="">
        <dc:format>image/svg+xml</dc:format>
        <dc:type
           rdf:resource="http://purl.org/dc/dcmitype/StillImage" />
        <dc:title></dc:title>
      </cc:Work>
    </rdf:RDF>
  </metadata>
  <g
     inkscape:label="Livello 1"
     inkscape:groupmode="layer"
     id="layer1"
     transform="translate(0,-924.36218)" />
  <path
     style="fill:#3399ff"
     inkscape:connector-curvature="0"
     d="m 64.510978,15.903481 c -29.181945,0 -52.838323,19.261553 -52.838323,43.13721 0,15.20885 9.63771,28.620538 24.148434,36.326347 -0.55183,4.016903 -3.170959,13.975072 -15.066848,17.337562 15.407656,1.67452 25.734245,-5.88836 31.166686,-11.55837 4.040546,0.80942 8.244759,1.23839 12.590051,1.23839 29.181946,0 52.838332,-19.467612 52.838332,-43.343929 0,-23.876317 -23.656386,-43.13721 -52.838332,-43.13721 z m 1.031999,12.796784 c 2.030577,-0.174432 3.821135,0.420329 5.366393,1.651198 1.570288,1.228821 2.519463,2.842041 2.683195,4.747193 0.163733,1.905284 -0.519995,3.474978 -1.857597,4.953593 -1.31475,1.451469 -2.923016,2.302364 -4.953593,2.476796 -2.030313,0.174366 -3.798415,-0.241075 -5.366392,-1.445128 -1.57062,-1.228491 -2.519728,-2.842041 -2.683527,-4.746863 -0.163798,-1.905482 0.520458,-3.681511 1.857928,-5.160323 1.33747,-1.478813 2.92262,-2.302429 4.953593,-2.476796 z m -5.159993,20.63997 c 2.98312,-0.256332 5.494591,0.335128 7.22432,1.651198 1.752251,1.288925 2.690924,3.060131 2.889596,5.366392 0.04095,0.476338 0.02179,1.26277 0,2.476796 0.0032,1.211914 -0.19821,2.480232 -0.412799,3.508795 l -2.063997,11.145585 c -0.175027,0.898911 -0.309104,1.949733 -0.4128,3.098966 -0.103034,1.14263 -0.255605,1.895575 -0.20607,2.470192 0.124831,1.459659 0.541594,2.423958 1.238399,2.892899 0.696805,0.46894 1.904161,0.759551 3.508465,0.62085 0.752285,-0.06605 1.752251,-0.29061 2.683526,-0.62085 0.928633,-0.356659 1.44843,-0.587827 1.857266,-0.825599 l -0.412799,3.302395 c -2.397538,1.188862 -4.342649,2.054089 -5.779191,2.681545 -1.4339,0.653875 -3.204644,1.069976 -5.159663,1.241701 -3.008481,0.257586 -5.41923,-0.138701 -7.224319,-1.446449 -1.781972,-1.334168 -2.695415,-3.110857 -2.889596,-5.36309 -0.07596,-0.877381 -0.04755,-1.769952 0,-2.683197 0.04557,-0.938276 0.02972,-2.125553 0.2064,-3.302395 l 2.063997,-11.145584 c 0.185594,-1.081204 0.31703,-2.158445 0.4128,-3.100949 0.118885,-0.969583 0.273437,-1.699412 0.206729,-2.476796 -0.120868,-1.403517 -0.614245,-2.387632 -1.238398,-2.889596 -0.624152,-0.501964 -1.672994,-0.75889 -3.302395,-0.618868 -0.802482,0.06869 -1.645915,0.295233 -2.476797,0.618868 -0.805784,0.321654 -1.482114,0.548197 -2.063997,0.825599 l 0.619199,-3.302395 c 1.955678,-0.99204 3.76341,-1.937185 5.56916,-2.673619 1.803768,-0.760872 3.505823,-1.302465 5.160323,-1.444468 z"
     id="path4-3" />
</svg>
