<?xml version="1.0" encoding="UTF-8" standalone="no"?>
<!-- Created with Inkscape (http://www.inkscape.org/) -->

<svg
   xmlns:dc="http://purl.org/dc/elements/1.1/"
   xmlns:cc="http://creativecommons.org/ns#"
   xmlns:rdf="http://www.w3.org/1999/02/22-rdf-syntax-ns#"
   xmlns:svg="http://www.w3.org/2000/svg"
   xmlns="http://www.w3.org/2000/svg"
   xmlns:sodipodi="http://sodipodi.sourceforge.net/DTD/sodipodi-0.dtd"
   xmlns:inkscape="http://www.inkscape.org/namespaces/inkscape"
   width="128"
   height="128"
   id="svg3027"
   version="1.1"
   inkscape:version="0.48.5 r10040"
   sodipodi:docname="network-vpn-acquiring.svg">
  <defs
     id="defs3029" />
  <sodipodi:namedview
     id="base"
     pagecolor="#ffffff"
     bordercolor="#666666"
     borderopacity="1.0"
     inkscape:pageopacity="0.0"
     inkscape:pageshadow="2"
     inkscape:zoom="3.9140624"
     inkscape:cx="90.895307"
     inkscape:cy="51.106043"
     inkscape:document-units="px"
     inkscape:current-layer="svg3027"
     showgrid="false"
     inkscape:window-width="1013"
     inkscape:window-height="847"
     inkscape:window-x="573"
     inkscape:window-y="23"
     inkscape:window-maximized="0" />
  <metadata
     id="metadata3032">
    <rdf:RDF>
      <cc:Work
         rdf:about="">
        <dc:format>image/svg+xml</dc:format>
        <dc:type
           rdf:resource="http://purl.org/dc/dcmitype/StillImage" />
        <dc:title></dc:title>
      </cc:Work>
    </rdf:RDF>
  </metadata>
  <g
     inkscape:label="Livello 1"
     inkscape:groupmode="layer"
     id="layer1"
     transform="translate(0,-924.36218)" />
  <g
     transform="matrix(7.4191216,0,0,7.4191216,5.0298903,7.3084224)"
     style="fill:#3399ff"
     id="g4">
    <path
       style="opacity:0.45000000000000001;fill:#3399ff"
       inkscape:connector-curvature="0"
       d="M 8,1 C 4.8812,1 2.0438,2.3284 0,4.5 L 1.3529,5.9375 C 3.0561,4.1279 5.401,3 8,3 c 2.599,0 4.9439,1.1279 6.6471,2.9375 L 16.0001,4.5 C 13.9561,2.3284 11.1191,1 8.0002,1 z M 8,4 C 5.6609,4 3.5329,4.9963 2,6.625 L 3.3529,8.0625 C 4.5452,6.7957 6.1807,6 8,6 9.8193,6 11.455,6.7957 12.647,8.0625 L 14,6.625 C 12.467,4.9963 10.339,4 8,4 z M 8,7 C 6.4406,7 5.0219,7.6642 4,8.75 l 1.3235,1.4062 C 6.0048,9.4328 6.9604,9.0004 8,9.0004 c 1.0396,0 1.9952,0.4324 2.676,1.156 L 12,8.7506 C 10.978,7.6648 9.5594,7.0006 8,7.0006 z m 0,3 C 7.2203,10 6.511,10.332 6,10.875 L 8,13 10,10.875 C 9.489,10.332 8.7797,10 8,10 z"
       id="path6-1" />
    <path
       inkscape:connector-curvature="0"
       d="m 12.009,15 a 1,1 0 0 1 -2,0 1,1 0 1 1 2,0 z"
       id="path8"
       style="fill:#3399ff" />
    <path
       inkscape:connector-curvature="0"
       d="m 9.009,15 a 1,1 0 0 1 -2,0 1,1 0 1 1 2,0 z"
       id="path10"
       style="fill:#3399ff" />
    <path
       inkscape:connector-curvature="0"
       d="m 6.009,15 a 1,1 0 0 1 -2,0 1,1 0 1 1 2,0 z"
       id="path12-0"
       style="fill:#3399ff" />
  </g>
</svg>
