<?xml version="1.0" encoding="UTF-8" standalone="no"?>
<!-- Created with Inkscape (http://www.inkscape.org/) -->

<svg
   xmlns:dc="http://purl.org/dc/elements/1.1/"
   xmlns:cc="http://creativecommons.org/ns#"
   xmlns:rdf="http://www.w3.org/1999/02/22-rdf-syntax-ns#"
   xmlns:svg="http://www.w3.org/2000/svg"
   xmlns="http://www.w3.org/2000/svg"
   xmlns:sodipodi="http://sodipodi.sourceforge.net/DTD/sodipodi-0.dtd"
   xmlns:inkscape="http://www.inkscape.org/namespaces/inkscape"
   width="128"
   height="128"
   id="svg3027"
   version="1.1"
   inkscape:version="0.48.5 r10040"
   sodipodi:docname="printer-printing.svg">
  <defs
     id="defs3029" />
  <sodipodi:namedview
     id="base"
     pagecolor="#ffffff"
     bordercolor="#666666"
     borderopacity="1.0"
     inkscape:pageopacity="0.0"
     inkscape:pageshadow="2"
     inkscape:zoom="3.9140624"
     inkscape:cx="90.895777"
     inkscape:cy="51.036686"
     inkscape:document-units="px"
     inkscape:current-layer="svg3027"
     showgrid="false"
     inkscape:window-width="1013"
     inkscape:window-height="847"
     inkscape:window-x="573"
     inkscape:window-y="23"
     inkscape:window-maximized="0" />
  <metadata
     id="metadata3032">
    <rdf:RDF>
      <cc:Work
         rdf:about="">
        <dc:format>image/svg+xml</dc:format>
        <dc:type
           rdf:resource="http://purl.org/dc/dcmitype/StillImage" />
        <dc:title></dc:title>
      </cc:Work>
    </rdf:RDF>
  </metadata>
  <g
     inkscape:label="Livello 1"
     inkscape:groupmode="layer"
     id="layer1"
     transform="translate(0,-924.36218)" />
  <path
     style="fill:#3399ff"
     inkscape:connector-curvature="0"
     d="m 35.08463,13.461076 c -5.316077,0 -9.595808,4.27973 -9.595808,9.595808 V 51.84431 h -3.198603 c -5.316078,0 -9.595808,4.279731 -9.595808,9.595808 v 25.588821 c 0,5.316079 4.27973,9.595815 9.595808,9.595815 h 3.198603 v 9.595796 c 0,5.31608 4.279731,9.59581 9.595808,9.59581 h 48.178636 v -12.7944 h -41.78015 c -1.772026,0 -3.198603,-1.42659 -3.198603,-3.198608 V 90.227548 H 83.264545 V 75.434006 c -0.15993,-0.382554 -0.198313,-0.758069 -0.198313,-1.199476 0,-0.441407 0.03774,-0.81686 0.199912,-1.199476 v -1.999127 c -0.03902,-2.877975 2.176908,-5.625767 4.997819,-6.197293 4.574642,-0.02367 9.338642,0 13.993887,0 3.23986,0.01983 6.17855,2.957748 6.19889,6.197613 V 96.02501 c 3.84473,-1.247458 6.59553,-4.721139 6.59553,-8.994473 V 61.441718 c 0,-5.316078 -4.27973,-9.595808 -9.59581,-9.595808 h -3.19861 V 23.058484 c 0,-5.316078 -4.27973,-9.595809 -9.595808,-9.595809 -19.189699,-3.96e-4 -38.383235,0.0051 -57.574853,0 z m 6.397207,12.794411 h 44.780441 c 1.772026,0 3.198603,1.426577 3.198603,3.198603 V 58.241516 H 38.283234 V 29.45409 c 0,-1.772026 1.426576,-3.198603 3.198603,-3.198603 z m 3.198602,6.397206 v 6.397206 H 83.263266 V 32.652693 H 44.681718 z m 0,12.794412 v 6.397205 h 25.588822 v -6.397205 z"
     id="path4" />
  <path
     style="fill:#ff9000"
     inkscape:connector-curvature="0"
     d="M 89.460881,71.035927 V 96.624754 H 102.2553 V 71.035927 z m 0,31.986033 v 12.7944 H 102.2553 v -12.7944 z"
     id="path6" />
</svg>
