<?xml version="1.0" encoding="UTF-8" standalone="no"?>
<!-- Created with Inkscape (http://www.inkscape.org/) -->

<svg
   xmlns:dc="http://purl.org/dc/elements/1.1/"
   xmlns:cc="http://creativecommons.org/ns#"
   xmlns:rdf="http://www.w3.org/1999/02/22-rdf-syntax-ns#"
   xmlns:svg="http://www.w3.org/2000/svg"
   xmlns="http://www.w3.org/2000/svg"
   xmlns:sodipodi="http://sodipodi.sourceforge.net/DTD/sodipodi-0.dtd"
   xmlns:inkscape="http://www.inkscape.org/namespaces/inkscape"
   width="128"
   height="128"
   id="svg3027"
   version="1.1"
   inkscape:version="0.48.5 r10040"
   sodipodi:docname="BASE.svg"
   inkscape:export-xdpi="90"
   inkscape:export-ydpi="90">
  <metadata
     id="metadata5">
    <rdf:RDF>
      <cc:Work
         rdf:about="">
        <dc:format>image/svg+xml</dc:format>
        <dc:type
           rdf:resource="http://purl.org/dc/dcmitype/StillImage" />
        <dc:title></dc:title>
      </cc:Work>
    </rdf:RDF>
  </metadata>
  <defs
     id="defs3029" />
  <sodipodi:namedview
     id="base"
     pagecolor="#ffffff"
     bordercolor="#666666"
     borderopacity="1.0"
     inkscape:pageopacity="0.0"
     inkscape:pageshadow="2"
     inkscape:zoom="1.979899"
     inkscape:cx="78.423506"
     inkscape:cy="87.511937"
     inkscape:document-units="px"
     inkscape:current-layer="svg3027"
     showgrid="true"
     inkscape:window-width="1013"
     inkscape:window-height="847"
     inkscape:window-x="1932"
     inkscape:window-y="1"
     inkscape:window-maximized="0"
     inkscape:showpageshadow="false"
     borderlayer="false"
     showguides="true"
     inkscape:guide-bbox="true"
     inkscape:snap-to-guides="false"
     inkscape:snap-grids="false">
    <inkscape:grid
       type="xygrid"
       id="grid2981"
       empspacing="4"
       visible="true"
       enabled="true"
       snapvisiblegridlinesonly="true"
       spacingx="4px"
       spacingy="4px"
       dotted="false" />
    <sodipodi:guide
       orientation="0,1"
       position="0,120"
       id="guide2999" />
    <sodipodi:guide
       orientation="1,0"
       position="120,128"
       id="guide3001" />
    <sodipodi:guide
       orientation="0,1"
       position="0,8"
       id="guide3003" />
    <sodipodi:guide
       orientation="1,0"
       position="8,128"
       id="guide3005" />
  </sodipodi:namedview>
  <path
     inkscape:export-ydpi="90"
     inkscape:export-xdpi="90"
     inkscape:export-filename="/home/matthieu/Interne/Communication/Site Web/Version 3.0/Accueil temporaire/images/phone_square.png"
     sodipodi:nodetypes="cssssssssssssssssssssc"
     id="path3886"
     d="m 119.35257,40.503416 c -0.52957,2.412413 -4.12551,12.953067 -5.83736,17.107705 -2.37797,5.771449 -7.74521,15.008871 -11.64976,20.050246 -4.666089,6.024597 -9.035594,10.438478 -17.420054,17.597175 -12.870861,10.989238 -25.54963,18.393078 -38.522495,22.495568 -5.979078,1.89068 -8.329378,2.24036 -13.199365,1.96363 -9.725811,-0.54953 -20.087581,-6.3438 -23.6226397,-13.20229 -1.0027935,-1.94565 -1.10506,-2.72722 -0.9920714,-7.582111 0.1437127,-6.17637 0.5276507,-7.078965 3.5555381,-8.370466 4.836502,-2.062525 24.850907,-8.726338 26.007361,-8.659219 1.908584,0.110779 6.543272,3.340159 10.242723,7.136969 4.107054,4.215058 4.779245,4.294276 10.42537,1.229275 11.529585,-6.259656 20.643936,-14.315393 27.801245,-24.57229 3.712877,-5.320672 7.688783,-12.486053 7.779885,-14.020723 0.129549,-2.180187 -0.46056,-3.047506 -4.132363,-6.078254 -4.315197,-3.561583 -9.005223,-8.275126 -9.691481,-9.739891 -0.699539,-1.493368 -0.640696,-1.628647 5.126653,-11.798209 2.703516,-4.767139 5.707785,-10.093186 6.676375,-11.835553 0.968334,-1.742503 2.113082,-3.4244231 2.543848,-3.7377536 1.405008,-1.0219584 10.547171,0.5309138 13.701301,2.3278396 3.2008,1.823146 7.63256,7.608399 9.39714,12.267127 1.83794,4.852279 2.71501,13.29445 1.81012,17.421473 z"
     style="fill:#3399ff;fill-opacity:1;display:inline"
     inkscape:connector-curvature="0" />
</svg>
