<?xml version="1.0" encoding="UTF-8" standalone="no"?>
<!-- Created with Inkscape (http://www.inkscape.org/) -->

<svg
   xmlns:dc="http://purl.org/dc/elements/1.1/"
   xmlns:cc="http://creativecommons.org/ns#"
   xmlns:rdf="http://www.w3.org/1999/02/22-rdf-syntax-ns#"
   xmlns:svg="http://www.w3.org/2000/svg"
   xmlns="http://www.w3.org/2000/svg"
   xmlns:sodipodi="http://sodipodi.sourceforge.net/DTD/sodipodi-0.dtd"
   xmlns:inkscape="http://www.inkscape.org/namespaces/inkscape"
   width="128"
   height="128"
   id="svg3027"
   version="1.1"
   inkscape:version="0.48.5 r10040"
   sodipodi:docname="BASE.svg"
   inkscape:export-xdpi="90"
   inkscape:export-ydpi="90">
  <metadata
     id="metadata5">
    <rdf:RDF>
      <cc:Work
         rdf:about="">
        <dc:format>image/svg+xml</dc:format>
        <dc:type
           rdf:resource="http://purl.org/dc/dcmitype/StillImage" />
        <dc:title></dc:title>
      </cc:Work>
    </rdf:RDF>
  </metadata>
  <defs
     id="defs3029" />
  <sodipodi:namedview
     id="base"
     pagecolor="#ffffff"
     bordercolor="#666666"
     borderopacity="1.0"
     inkscape:pageopacity="0.0"
     inkscape:pageshadow="2"
     inkscape:zoom="2.8"
     inkscape:cx="63.636976"
     inkscape:cy="57.147343"
     inkscape:document-units="px"
     inkscape:current-layer="svg3027"
     showgrid="true"
     inkscape:window-width="1013"
     inkscape:window-height="847"
     inkscape:window-x="1932"
     inkscape:window-y="1"
     inkscape:window-maximized="0"
     inkscape:showpageshadow="false"
     borderlayer="false"
     showguides="true"
     inkscape:guide-bbox="true"
     inkscape:snap-to-guides="false"
     inkscape:snap-grids="false">
    <inkscape:grid
       type="xygrid"
       id="grid2981"
       empspacing="4"
       visible="true"
       enabled="true"
       snapvisiblegridlinesonly="true"
       spacingx="4px"
       spacingy="4px"
       dotted="false" />
    <sodipodi:guide
       orientation="0,1"
       position="0,120"
       id="guide2999" />
    <sodipodi:guide
       orientation="1,0"
       position="120,128"
       id="guide3001" />
    <sodipodi:guide
       orientation="0,1"
       position="0,8"
       id="guide3003" />
    <sodipodi:guide
       orientation="1,0"
       position="8,128"
       id="guide3005" />
  </sodipodi:namedview>
  <path
     inkscape:connector-curvature="0"
     style="fill:#3399ff;fill-opacity:1;display:inline"
     d="m 19.312532,51.162793 c 1.681171,-1.059835 9.75278,-4.979182 13.10098,-6.360619 4.651127,-1.919063 12.979392,-4.124364 18.07684,-4.786753 6.091622,-0.79155 11.093009,-0.843867 19.939349,-0.208637 13.579907,0.975078 24.99804,3.855391 34.692339,8.751344 4.46794,2.25656 5.99891,3.364401 8.59783,6.221767 5.19206,5.704682 7.7411,14.705107 5.81547,20.514936 -0.54629,1.648138 -0.93592,2.143432 -3.77981,4.804913 -3.61796,3.385928 -4.35216,3.67937 -6.80607,2.724046 -3.91942,-1.526188 -19.067241,-8.891892 -19.683589,-9.571205 -1.017204,-1.121128 -1.792213,-5.504725 -1.712786,-9.687801 0.08815,-4.643925 -0.247096,-5.061342 -5.198944,-6.474232 -10.112314,-2.88475 -19.885557,-3.421576 -29.811114,-1.637441 -5.148841,0.925455 -11.502899,2.740066 -12.433231,3.550651 -1.321657,1.151531 -1.484214,1.965561 -1.140663,5.703446 0.403869,4.39273 0.360392,9.639825 -0.08977,10.842499 -0.45906,1.226076 -0.569806,1.269355 -9.658364,3.775683 -4.260394,1.174897 -9.011093,2.49654 -10.557184,2.936804 -1.546036,0.440465 -3.157251,0.749067 -3.580565,0.685872 -1.380686,-0.206125 -5.6677944,-6.14994 -6.4247284,-8.908282 -0.7683507,-2.798945 0.034721,-8.504106 1.7035054,-12.097271 1.737775,-3.742475 6.075169,-8.96617 8.950652,-10.779841 z"
     id="path4609"
     sodipodi:nodetypes="cssssssssssssssssssssc"
     inkscape:export-filename="/home/matthieu/Interne/Communication/Site Web/Version 3.0/Accueil temporaire/images/phone_square.png"
     inkscape:export-xdpi="90"
     inkscape:export-ydpi="90" />
</svg>
