<?xml version="1.0" encoding="UTF-8" standalone="no"?>
<!-- Created with Inkscape (http://www.inkscape.org/) -->

<svg
   xmlns:dc="http://purl.org/dc/elements/1.1/"
   xmlns:cc="http://creativecommons.org/ns#"
   xmlns:rdf="http://www.w3.org/1999/02/22-rdf-syntax-ns#"
   xmlns:svg="http://www.w3.org/2000/svg"
   xmlns="http://www.w3.org/2000/svg"
   xmlns:sodipodi="http://sodipodi.sourceforge.net/DTD/sodipodi-0.dtd"
   xmlns:inkscape="http://www.inkscape.org/namespaces/inkscape"
   width="128"
   height="128"
   id="svg3027"
   version="1.1"
   inkscape:version="0.48.5 r10040"
   sodipodi:docname="BASE.svg"
   inkscape:export-xdpi="90"
   inkscape:export-ydpi="90">
  <metadata
     id="metadata5">
    <rdf:RDF>
      <cc:Work
         rdf:about="">
        <dc:format>image/svg+xml</dc:format>
        <dc:type
           rdf:resource="http://purl.org/dc/dcmitype/StillImage" />
        <dc:title></dc:title>
      </cc:Work>
    </rdf:RDF>
  </metadata>
  <defs
     id="defs3029" />
  <sodipodi:namedview
     id="base"
     pagecolor="#ffffff"
     bordercolor="#666666"
     borderopacity="1.0"
     inkscape:pageopacity="0.0"
     inkscape:pageshadow="2"
     inkscape:zoom="3.959798"
     inkscape:cx="66.045524"
     inkscape:cy="51.51432"
     inkscape:document-units="px"
     inkscape:current-layer="svg3027"
     showgrid="true"
     inkscape:window-width="1013"
     inkscape:window-height="847"
     inkscape:window-x="1932"
     inkscape:window-y="1"
     inkscape:window-maximized="0"
     inkscape:showpageshadow="false"
     borderlayer="false"
     showguides="true"
     inkscape:guide-bbox="true"
     inkscape:snap-to-guides="false"
     inkscape:snap-grids="false">
    <inkscape:grid
       type="xygrid"
       id="grid2981"
       empspacing="4"
       visible="true"
       enabled="true"
       snapvisiblegridlinesonly="true"
       spacingx="4px"
       spacingy="4px"
       dotted="false" />
    <sodipodi:guide
       orientation="0,1"
       position="0,120"
       id="guide2999" />
    <sodipodi:guide
       orientation="1,0"
       position="120,128"
       id="guide3001" />
    <sodipodi:guide
       orientation="0,1"
       position="0,8"
       id="guide3003" />
    <sodipodi:guide
       orientation="1,0"
       position="8,128"
       id="guide3005" />
  </sodipodi:namedview>
  <path
     style="color:#000000;fill:#3399ff;fill-opacity:1;fill-rule:nonzero;stroke:none;stroke-width:2;marker:none;visibility:visible;display:inline;overflow:visible;enable-background:accumulate"
     d="m 53.421424,17.611653 c -3.967639,0 -7.161803,3.194164 -7.161803,7.161803 l 0,75.710484 c 0,3.96764 3.194164,7.1618 7.161803,7.1618 l 59.340666,0 c 3.96763,0 7.1618,-3.19416 7.1618,-7.1618 l 0,-75.710484 c 0,-3.967639 -3.19417,-7.161803 -7.1618,-7.161803 z m 9.208032,12.277376 40.924594,0 c 2.26723,0 4.09246,1.825236 4.09246,4.092459 l 0,57.294421 c 0,2.267222 -1.82523,4.092459 -4.09246,4.092459 l -40.924594,0 c -2.267223,0 -4.092459,-1.825237 -4.092459,-4.092459 l 0,-57.294421 c 0,-2.267223 1.825236,-4.092459 4.092459,-4.092459 z m -36.832129,12.277376 0,8.184917 12.277377,0 0,-8.184917 z m -20.4622933,20.462293 0,8.184918 32.7396703,0 0,-8.184918 z m 12.2773763,20.462294 0,8.184917 20.462294,0 0,-8.184917 z"
     id="rect3083"
     inkscape:connector-curvature="0"
     sodipodi:nodetypes="ssssssssssssssssssccccccccccccccc" />
</svg>
