<?xml version="1.0" encoding="UTF-8" standalone="no"?>
<!-- Created with Inkscape (http://www.inkscape.org/) -->

<svg
   xmlns:dc="http://purl.org/dc/elements/1.1/"
   xmlns:cc="http://creativecommons.org/ns#"
   xmlns:rdf="http://www.w3.org/1999/02/22-rdf-syntax-ns#"
   xmlns:svg="http://www.w3.org/2000/svg"
   xmlns="http://www.w3.org/2000/svg"
   xmlns:sodipodi="http://sodipodi.sourceforge.net/DTD/sodipodi-0.dtd"
   xmlns:inkscape="http://www.inkscape.org/namespaces/inkscape"
   width="128"
   height="128"
   id="svg3027"
   version="1.1"
   inkscape:version="0.48.5 r10040"
   sodipodi:docname="document-save.svg"
   inkscape:export-filename="/home/dave/e/core/efl/data/elementary/themes/fdo/actions/128-svg-NEW/document-open.png"
   inkscape:export-xdpi="90"
   inkscape:export-ydpi="90">
  <metadata
     id="metadata5">
    <rdf:RDF>
      <cc:Work
         rdf:about="">
        <dc:format>image/svg+xml</dc:format>
        <dc:type
           rdf:resource="http://purl.org/dc/dcmitype/StillImage" />
        <dc:title></dc:title>
      </cc:Work>
    </rdf:RDF>
  </metadata>
  <defs
     id="defs3029" />
  <sodipodi:namedview
     id="base"
     pagecolor="#ffffff"
     bordercolor="#666666"
     borderopacity="1.0"
     inkscape:pageopacity="0.0"
     inkscape:pageshadow="2"
     inkscape:zoom="3.959798"
     inkscape:cx="69.538002"
     inkscape:cy="70.199994"
     inkscape:document-units="px"
     inkscape:current-layer="svg3027"
     showgrid="true"
     inkscape:window-width="1013"
     inkscape:window-height="847"
     inkscape:window-x="1916"
     inkscape:window-y="15"
     inkscape:window-maximized="0"
     inkscape:showpageshadow="false"
     borderlayer="false"
     showguides="true"
     inkscape:guide-bbox="true"
     inkscape:snap-to-guides="false"
     inkscape:snap-grids="false">
    <inkscape:grid
       type="xygrid"
       id="grid2981"
       empspacing="4"
       visible="true"
       enabled="true"
       snapvisiblegridlinesonly="true"
       spacingx="4px"
       spacingy="4px"
       dotted="false" />
    <sodipodi:guide
       orientation="0,1"
       position="0,120"
       id="guide2999" />
    <sodipodi:guide
       orientation="1,0"
       position="120,128"
       id="guide3001" />
    <sodipodi:guide
       orientation="0,1"
       position="0,8"
       id="guide3003" />
    <sodipodi:guide
       orientation="1,0"
       position="8,128"
       id="guide3005" />
  </sodipodi:namedview>
  <path
     style="color:#000000;fill:#3399ff;fill-opacity:1;fill-rule:nonzero;stroke:none;stroke-width:2;marker:none;visibility:visible;display:inline;overflow:visible;enable-background:accumulate"
     d="m 16.881317,8.0048708 c -4.921935,0 -8.868936,3.9470002 -8.868936,8.8689372 l 0,66.247097 c 0,4.921936 3.947001,8.946057 8.868936,8.946057 l 51.516952,0 c 4.921935,0 8.868936,-4.024121 8.868936,-8.946057 l 0,-66.247097 c 0,-4.921937 -3.947001,-8.8689372 -8.868936,-8.8689372 l -51.516952,0 z m 8.868936,14.7301472 33.8562,0 c 1.640646,0 2.930606,1.367081 2.930606,3.007726 l 0,48.586346 c 0,1.640645 -1.28996,3.007726 -2.930606,3.007726 l -33.8562,0 c -1.640645,0 -3.007726,-1.367081 -3.007726,-3.007726 l 0,-48.586346 c 0,-1.640645 1.367081,-3.007726 3.007726,-3.007726 z m 61.465585,34.704533 0,4.704392 24.447412,0 0,-4.704392 -24.447412,0 z m 0,10.025754 0,9.485905 24.447412,0 0,-9.485905 -24.447412,0 z m 0,14.961509 0,14.421662 -14.036056,0 26.529687,29.614534 26.761051,-29.614534 -14.80727,0 0,-14.421662 -24.447412,0 z M 15.416015,111.65574 c -4.088914,0 -7.403634,3.31472 -7.403634,7.40364 0,4.08891 3.31472,7.40363 7.403634,7.40363 4.088913,0 7.403633,-3.31472 7.403633,-7.40363 0,-4.08892 -3.31472,-7.40364 -7.403633,-7.40364 z m 24.678779,0 c -4.088914,0 -7.403634,3.31472 -7.403634,7.40364 0,4.08891 3.31472,7.40363 7.403634,7.40363 4.088913,0 7.403634,-3.31472 7.403634,-7.40363 0,-4.08892 -3.314721,-7.40364 -7.403634,-7.40364 z m 24.678779,0 c -4.088914,0 -7.403634,3.31472 -7.403634,7.40364 0,4.08891 3.31472,7.40363 7.403634,7.40363 4.088913,0 7.403634,-3.31472 7.403634,-7.40363 0,-4.08892 -3.314721,-7.40364 -7.403634,-7.40364 z"
     id="path3164"
     inkscape:connector-curvature="0" />
</svg>
