<?xml version="1.0" encoding="UTF-8" standalone="no"?>
<!-- Created with Inkscape (http://www.inkscape.org/) -->

<svg
   xmlns:dc="http://purl.org/dc/elements/1.1/"
   xmlns:cc="http://creativecommons.org/ns#"
   xmlns:rdf="http://www.w3.org/1999/02/22-rdf-syntax-ns#"
   xmlns:svg="http://www.w3.org/2000/svg"
   xmlns="http://www.w3.org/2000/svg"
   xmlns:sodipodi="http://sodipodi.sourceforge.net/DTD/sodipodi-0.dtd"
   xmlns:inkscape="http://www.inkscape.org/namespaces/inkscape"
   width="128"
   height="128"
   id="svg3027"
   version="1.1"
   inkscape:version="0.48.5 r10040"
   sodipodi:docname="BASE.svg"
   inkscape:export-xdpi="90"
   inkscape:export-ydpi="90">
  <metadata
     id="metadata5">
    <rdf:RDF>
      <cc:Work
         rdf:about="">
        <dc:format>image/svg+xml</dc:format>
        <dc:type
           rdf:resource="http://purl.org/dc/dcmitype/StillImage" />
        <dc:title></dc:title>
      </cc:Work>
    </rdf:RDF>
  </metadata>
  <defs
     id="defs3029" />
  <sodipodi:namedview
     id="base"
     pagecolor="#ffffff"
     bordercolor="#666666"
     borderopacity="1.0"
     inkscape:pageopacity="0.0"
     inkscape:pageshadow="2"
     inkscape:zoom="3.959798"
     inkscape:cx="66.06226"
     inkscape:cy="71.186399"
     inkscape:document-units="px"
     inkscape:current-layer="svg3027"
     showgrid="true"
     inkscape:window-width="1013"
     inkscape:window-height="847"
     inkscape:window-x="1932"
     inkscape:window-y="1"
     inkscape:window-maximized="0"
     inkscape:showpageshadow="false"
     borderlayer="false"
     showguides="true"
     inkscape:guide-bbox="true"
     inkscape:snap-to-guides="false"
     inkscape:snap-grids="false">
    <inkscape:grid
       type="xygrid"
       id="grid2981"
       empspacing="4"
       visible="true"
       enabled="true"
       snapvisiblegridlinesonly="true"
       spacingx="4px"
       spacingy="4px"
       dotted="false" />
    <sodipodi:guide
       orientation="0,1"
       position="0,120"
       id="guide2999" />
    <sodipodi:guide
       orientation="1,0"
       position="120,128"
       id="guide3001" />
    <sodipodi:guide
       orientation="0,1"
       position="0,8"
       id="guide3003" />
    <sodipodi:guide
       orientation="1,0"
       position="8,128"
       id="guide3005" />
  </sodipodi:namedview>
  <path
     style="fill:#3399ff;fill-opacity:1;stroke:none;display:inline"
     d="m 8.0723427,10.045661 0,13.954952 13.9549513,0 0,-13.954952 -13.9549513,0 z m 23.2582523,0 0,13.954952 88.381365,0 0,-13.954952 -88.381365,0 z m -18.606601,4.651652 4.65165,0 0,4.65165 -4.65165,0 0,-4.65165 z m -4.6516513,18.606601 0,13.95495 13.9549513,0 0,-13.95495 -13.9549513,0 z m 23.2582523,0 0,13.95495 88.381365,0 0,-13.95495 -88.381365,0 z m -18.606601,4.65165 4.65165,0 0,4.65165 -4.65165,0 0,-4.65165 z m -4.6516513,18.606601 0,13.954951 13.9549513,0 0,-13.954951 -13.9549513,0 z m 23.2582523,0 0,13.954951 88.381365,0 0,-13.954951 -88.381365,0 z m -18.606601,4.65165 4.65165,0 0,4.65165 -4.65165,0 0,-4.65165 z m -4.6516513,18.606601 0,13.954951 13.9549513,0 0,-13.954951 -13.9549513,0 z m 23.2582523,0 0,13.954951 88.381365,0 0,-13.954951 -88.381365,0 z m -18.606601,4.65165 4.65165,0 0,4.65165 -4.65165,0 0,-4.65165 z m -4.6516513,18.606604 0,13.95495 13.9549513,0 0,-13.95495 -13.9549513,0 z m 23.2582523,0 0,13.95495 88.381365,0 0,-13.95495 -88.381365,0 z m -18.606601,4.65165 4.65165,0 0,4.65165 -4.65165,0 0,-4.65165 z"
     id="path3794"
     inkscape:connector-curvature="0" />
</svg>
