<?xml version="1.0" encoding="UTF-8" standalone="no"?>
<!-- Created with Inkscape (http://www.inkscape.org/) -->

<svg
   xmlns:dc="http://purl.org/dc/elements/1.1/"
   xmlns:cc="http://creativecommons.org/ns#"
   xmlns:rdf="http://www.w3.org/1999/02/22-rdf-syntax-ns#"
   xmlns:svg="http://www.w3.org/2000/svg"
   xmlns="http://www.w3.org/2000/svg"
   xmlns:xlink="http://www.w3.org/1999/xlink"
   xmlns:sodipodi="http://sodipodi.sourceforge.net/DTD/sodipodi-0.dtd"
   xmlns:inkscape="http://www.inkscape.org/namespaces/inkscape"
   width="128"
   height="128"
   id="svg3027"
   version="1.1"
   inkscape:version="0.48.5 r10040"
   sodipodi:docname="document-properties.svg"
   inkscape:export-xdpi="90"
   inkscape:export-ydpi="90">
  <metadata
     id="metadata5">
    <rdf:RDF>
      <cc:Work
         rdf:about="">
        <dc:format>image/svg+xml</dc:format>
        <dc:type
           rdf:resource="http://purl.org/dc/dcmitype/StillImage" />
        <dc:title />
      </cc:Work>
    </rdf:RDF>
  </metadata>
  <defs
     id="defs3029">
    <linearGradient
       inkscape:collect="always"
       xlink:href="#StandardGradient"
       id="linearGradient2892"
       gradientUnits="userSpaceOnUse"
       gradientTransform="matrix(0.9219544,0,0,1.0846523,-26,-4)"
       x1="11.903381"
       y1="5.5846267"
       x2="11.903381"
       y2="22.14945" />
    <linearGradient
       id="StandardGradient"
       gradientTransform="scale(0.9219544,1.0846523)"
       x1="11.998966"
       y1="0.92195445"
       x2="11.998966"
       y2="19.387045"
       gradientUnits="userSpaceOnUse">
      <stop
         style="stop-color:#000000;stop-opacity:0.86274511;"
         offset="0"
         id="stop3283" />
      <stop
         style="stop-color:#000000;stop-opacity:0.47058824;"
         offset="1"
         id="stop2651" />
    </linearGradient>
    <linearGradient
       inkscape:collect="always"
       xlink:href="#StandardGradient-5"
       id="linearGradient2915"
       gradientUnits="userSpaceOnUse"
       gradientTransform="matrix(0.9247229,0,0,1.0872097,-22.060056,-2.0023583)"
       x1="11.998966"
       y1="2.8287227"
       x2="11.998966"
       y2="15.638639" />
    <linearGradient
       id="StandardGradient-5"
       gradientTransform="scale(0.9219544,1.0846523)"
       x1="11.998966"
       y1="0.92195445"
       x2="11.998966"
       y2="19.387045"
       gradientUnits="userSpaceOnUse">
      <stop
         style="stop-color:#000000;stop-opacity:0.86274511;"
         offset="0"
         id="stop3283-7" />
      <stop
         style="stop-color:#000000;stop-opacity:0.47058824;"
         offset="1"
         id="stop2651-8" />
    </linearGradient>
    <linearGradient
       inkscape:collect="always"
       xlink:href="#StandardGradient-3"
       id="linearGradient2892-8"
       gradientUnits="userSpaceOnUse"
       gradientTransform="matrix(0.9219544,0,0,1.0846523,-4,-4)"
       x1="11.903381"
       y1="5.5846267"
       x2="11.903381"
       y2="22.14945" />
    <linearGradient
       id="StandardGradient-3"
       gradientTransform="scale(0.9219544,1.0846523)"
       x1="11.998966"
       y1="0.92195445"
       x2="11.998966"
       y2="19.387045"
       gradientUnits="userSpaceOnUse">
      <stop
         style="stop-color:#000000;stop-opacity:0.86274511;"
         offset="0"
         id="stop3283-8" />
      <stop
         style="stop-color:#000000;stop-opacity:0.47058824;"
         offset="1"
         id="stop2651-1" />
    </linearGradient>
  </defs>
  <sodipodi:namedview
     id="base"
     pagecolor="#ffffff"
     bordercolor="#666666"
     borderopacity="1.0"
     inkscape:pageopacity="0.0"
     inkscape:pageshadow="2"
     inkscape:zoom="5.6568543"
     inkscape:cx="47.624841"
     inkscape:cy="60.822332"
     inkscape:document-units="px"
     inkscape:current-layer="svg3027"
     showgrid="true"
     inkscape:window-width="1680"
     inkscape:window-height="1027"
     inkscape:window-x="0"
     inkscape:window-y="0"
     inkscape:window-maximized="0"
     inkscape:showpageshadow="false"
     borderlayer="false"
     showguides="true"
     inkscape:guide-bbox="true"
     inkscape:snap-to-guides="false"
     inkscape:snap-grids="false">
    <inkscape:grid
       type="xygrid"
       id="grid2981"
       empspacing="4"
       visible="true"
       enabled="true"
       snapvisiblegridlinesonly="true"
       spacingx="8px"
       spacingy="8px"
       dotted="false" />
    <sodipodi:guide
       orientation="0,1"
       position="0,120"
       id="guide2999" />
    <sodipodi:guide
       orientation="1,0"
       position="120,128"
       id="guide3001" />
    <sodipodi:guide
       orientation="0,1"
       position="0,8"
       id="guide3003" />
    <sodipodi:guide
       orientation="1,0"
       position="8,128"
       id="guide3005" />
  </sodipodi:namedview>
  <path
     style="fill:#3399ff;fill-opacity:1;stroke:none;display:inline"
     d="m 21.932237,7.9960937 c -5.16459,0 -9.32237,4.1577773 -9.32237,9.3223693 l 0,93.223687 c 0,5.16459 4.15778,9.32237 9.32237,9.32237 l 80.793863,0 c 5.16459,0 9.32237,-4.15778 9.32237,-9.32237 l 0,-93.223687 c 0,-5.164592 -4.15778,-9.3223693 -9.32237,-9.3223693 l -80.793863,0 z m 6.21491,12.4298253 68.36404,0 c 1.72153,0 3.10745,1.385927 3.10745,3.107458 l 0,80.793863 c 0,1.72153 -1.38592,3.10746 -3.10745,3.10746 l -68.36404,0 c -1.72153,0 -3.10746,-1.38593 -3.10746,-3.10746 l 0,-80.793863 c 0,-1.721531 1.38593,-3.107458 3.10746,-3.107458 z m 9.32237,12.429827 0,12.429825 12.42982,0 0,-12.429825 -12.42982,0 z m 18.64474,0 0,12.429825 31.07456,0 0,-12.429825 -31.07456,0 z m -18.64474,24.85965 0,12.429825 12.42982,0 0,-12.429825 -12.42982,0 z m 18.64474,0 0,12.429825 31.07456,0 0,-12.429825 -31.07456,0 z m -18.64474,24.85965 0,12.429825 12.42982,0 0,-12.429825 -12.42982,0 z m 18.64474,0 0,12.429825 31.07456,0 0,-12.429825 -31.07456,0 z"
     id="path2875"
     inkscape:connector-curvature="0" />
</svg>
