<?xml version="1.0" encoding="UTF-8" standalone="no"?>
<!-- Created with Inkscape (http://www.inkscape.org/) -->

<svg
   xmlns:dc="http://purl.org/dc/elements/1.1/"
   xmlns:cc="http://creativecommons.org/ns#"
   xmlns:rdf="http://www.w3.org/1999/02/22-rdf-syntax-ns#"
   xmlns:svg="http://www.w3.org/2000/svg"
   xmlns="http://www.w3.org/2000/svg"
   xmlns:sodipodi="http://sodipodi.sourceforge.net/DTD/sodipodi-0.dtd"
   xmlns:inkscape="http://www.inkscape.org/namespaces/inkscape"
   width="128"
   height="128"
   id="svg3027"
   version="1.1"
   inkscape:version="0.48.5 r10040"
   sodipodi:docname="BASE.svg"
   inkscape:export-xdpi="90"
   inkscape:export-ydpi="90">
  <metadata
     id="metadata5">
    <rdf:RDF>
      <cc:Work
         rdf:about="">
        <dc:format>image/svg+xml</dc:format>
        <dc:type
           rdf:resource="http://purl.org/dc/dcmitype/StillImage" />
        <dc:title></dc:title>
      </cc:Work>
    </rdf:RDF>
  </metadata>
  <defs
     id="defs3029" />
  <sodipodi:namedview
     id="base"
     pagecolor="#ffffff"
     bordercolor="#666666"
     borderopacity="1.0"
     inkscape:pageopacity="0.0"
     inkscape:pageshadow="2"
     inkscape:zoom="3.959798"
     inkscape:cx="66.06226"
     inkscape:cy="69.723466"
     inkscape:document-units="px"
     inkscape:current-layer="svg3027"
     showgrid="true"
     inkscape:window-width="1013"
     inkscape:window-height="847"
     inkscape:window-x="1932"
     inkscape:window-y="1"
     inkscape:window-maximized="0"
     inkscape:showpageshadow="false"
     borderlayer="false"
     showguides="true"
     inkscape:guide-bbox="true"
     inkscape:snap-to-guides="false"
     inkscape:snap-grids="false">
    <inkscape:grid
       type="xygrid"
       id="grid2981"
       empspacing="4"
       visible="true"
       enabled="true"
       snapvisiblegridlinesonly="true"
       spacingx="4px"
       spacingy="4px"
       dotted="false" />
    <sodipodi:guide
       orientation="0,1"
       position="0,120"
       id="guide2999" />
    <sodipodi:guide
       orientation="1,0"
       position="120,128"
       id="guide3001" />
    <sodipodi:guide
       orientation="0,1"
       position="0,8"
       id="guide3003" />
    <sodipodi:guide
       orientation="1,0"
       position="8,128"
       id="guide3005" />
  </sodipodi:namedview>
  <path
     style="color:#000000;fill:#3399ff;fill-opacity:1;fill-rule:nonzero;stroke:none;stroke-width:2;marker:none;visibility:visible;display:inline;overflow:visible;enable-background:accumulate"
     d="m 106.05292,8.1292593 0,41.3971597 c 0,11.656965 -2.28811,14.164107 -13.945073,14.164107 l -27.671118,0 0,-18.617771 -33.000909,25.699824 33.000909,25.699824 0,-18.617769 34.826182,0 c 11.593299,0 20.954119,-9.287819 20.954119,-20.881108 l 0,-48.8442667 -14.16411,0 z M 16.249559,17.036584 c -4.530177,0 -8.1772163,3.647039 -8.1772163,8.177217 l 0,86.444859 c 0,4.53018 3.6470393,8.17722 8.1772163,8.17722 l 67.754082,0 c 4.530178,0 8.177217,-3.64704 8.177217,-8.17722 l 0,-29.204342 -14.018086,0 0,18.690782 c 0,2.58868 -2.084022,4.6727 -4.672696,4.6727 l -46.726952,0 c -2.588673,0 -4.672695,-2.08402 -4.672695,-4.6727 l 0,-65.417735 c 0,-2.588673 2.084022,-4.672695 4.672695,-4.672695 l 46.726952,0 c 2.588674,0 4.672696,2.084022 4.672696,4.672695 l 0,23.363476 14.018086,0 0,-33.87704 c 0,-4.530178 -3.647039,-8.177217 -8.177217,-8.177217 l -67.754082,0 z"
     id="rect3083"
     inkscape:connector-curvature="0" />
</svg>
