<?xml version="1.0" encoding="UTF-8" standalone="no"?>
<!-- Created with Inkscape (http://www.inkscape.org/) -->

<svg
   xmlns:dc="http://purl.org/dc/elements/1.1/"
   xmlns:cc="http://creativecommons.org/ns#"
   xmlns:rdf="http://www.w3.org/1999/02/22-rdf-syntax-ns#"
   xmlns:svg="http://www.w3.org/2000/svg"
   xmlns="http://www.w3.org/2000/svg"
   xmlns:sodipodi="http://sodipodi.sourceforge.net/DTD/sodipodi-0.dtd"
   xmlns:inkscape="http://www.inkscape.org/namespaces/inkscape"
   width="128"
   height="128"
   id="svg3027"
   version="1.1"
   inkscape:version="0.48.5 r10040"
   sodipodi:docname="BASE.svg"
   inkscape:export-xdpi="90"
   inkscape:export-ydpi="90">
  <metadata
     id="metadata5">
    <rdf:RDF>
      <cc:Work
         rdf:about="">
        <dc:format>image/svg+xml</dc:format>
        <dc:type
           rdf:resource="http://purl.org/dc/dcmitype/StillImage" />
        <dc:title></dc:title>
      </cc:Work>
    </rdf:RDF>
  </metadata>
  <defs
     id="defs3029" />
  <sodipodi:namedview
     id="base"
     pagecolor="#ffffff"
     bordercolor="#666666"
     borderopacity="1.0"
     inkscape:pageopacity="0.0"
     inkscape:pageshadow="2"
     inkscape:zoom="3.959798"
     inkscape:cx="78.890504"
     inkscape:cy="56.202159"
     inkscape:document-units="px"
     inkscape:current-layer="svg3027"
     showgrid="true"
     inkscape:window-width="1013"
     inkscape:window-height="847"
     inkscape:window-x="1932"
     inkscape:window-y="1"
     inkscape:window-maximized="0"
     inkscape:showpageshadow="false"
     borderlayer="false"
     showguides="true"
     inkscape:guide-bbox="true"
     inkscape:snap-to-guides="false"
     inkscape:snap-grids="false">
    <inkscape:grid
       type="xygrid"
       id="grid2981"
       empspacing="4"
       visible="true"
       enabled="true"
       snapvisiblegridlinesonly="true"
       spacingx="4px"
       spacingy="4px"
       dotted="false" />
    <sodipodi:guide
       orientation="0,1"
       position="0,120"
       id="guide2999" />
    <sodipodi:guide
       orientation="1,0"
       position="120,128"
       id="guide3001" />
    <sodipodi:guide
       orientation="0,1"
       position="0,8"
       id="guide3003" />
    <sodipodi:guide
       orientation="1,0"
       position="8,128"
       id="guide3005" />
  </sodipodi:namedview>
  <path
     style="fill:#3399ff;fill-opacity:1;stroke:none;display:inline"
     d="m 34.081899,8.0638498 c -0.08499,-0.00185 -0.175598,0.028874 -0.258171,0.064543 -0.495419,0.21398 -0.889305,0.9333692 -1.484481,1.6781085 0,0 -1.921697,5.2757047 -1.871736,8.5841767 0.06175,4.08969 1.296822,10.942074 3.485302,16.910171 4.643369,12.662708 11.116715,26.576077 16.845629,36.724761 1.103807,-4.073188 2.354114,-8.474025 4.517984,-12.327644 a 4.9808007,4.9808007 0 0 1 0.06454,-0.129085 L 60.608922,50.855625 36.08272,10.000129 C 35.3787,8.791994 34.790509,8.2640869 34.340069,8.1283924 c -0.09385,-0.028254 -0.173181,-0.062684 -0.25817,-0.064543 z m 58.604714,0.064543 C 92.236171,8.2640869 91.647985,8.791994 90.943962,10.000129 L 59.640783,62.150586 c -2.650776,4.720762 -4.005582,11.90191 -5.937923,17.684683 -0.966173,2.891407 -2.105544,5.463921 -3.162589,6.841519 -0.658376,1.126595 -1.4332,1.22631 -2.388078,1.22631 -5.308552,-0.206598 -11.206313,3.419294 -14.780263,9.552311 -4.668961,8.012081 -3.547995,17.377931 2.517162,20.847271 6.065158,3.46934 14.693833,-0.24937 19.362792,-8.26146 2.149108,-3.68793 3.064236,-7.6247 2.839876,-11.165873 l 0.129085,0.193524 c -0.06475,-2.644554 0.205834,-5.976276 1.419938,-9.035969 1.39259,-3.509157 3.689598,-6.656235 9.875023,-8.455085 0.532643,-0.144782 1.111625,-0.5062 1.419938,-0.96814 6.627352,-9.536448 15.97402,-28.499075 22.138125,-45.308931 2.188486,-5.968098 3.423556,-12.820481 3.485306,-16.910171 0.05,-3.308472 -1.87174,-8.5841771 -1.87174,-8.5841771 C 93.893864,8.8134118 93.437346,7.9022557 92.686613,8.1282892 z M 74.808303,83.707827 c -1.132764,1.526841 -2.380254,2.158388 -3.872559,2.581706 l 0,0.06444 c -2.178176,0.633447 -3.484354,1.22914 -4.388899,1.936279 0.30326,0.567397 0.603504,1.149086 0.839054,1.742651 1.214119,3.059693 1.484687,6.391415 1.419938,9.035969 l 0.129086,-0.193524 c -0.224361,3.541172 0.690767,7.477942 2.839876,11.165872 4.66896,8.01209 13.297633,11.7308 19.362791,8.26146 6.065155,-3.46934 7.186125,-12.83519 2.517163,-20.84727 -3.57395,-6.133017 -9.471712,-9.758909 -14.780264,-9.552311 -0.954876,0 -1.7297,-0.09976 -2.388078,-1.22631 -0.546747,-0.71255 -1.120702,-1.730734 -1.678108,-2.968961 z M 46.60317,94.809161 c 0.91682,-0.03738 1.804276,0.200753 2.581706,0.645426 3.109722,1.778795 3.456767,6.885733 0.774511,11.488583 -2.682257,4.60283 -7.346185,6.94221 -10.455907,5.16342 -3.109722,-1.7788 -3.456769,-6.95029 -0.774512,-11.55314 2.011694,-3.452127 5.123746,-5.632119 7.874202,-5.744289 z m 33.820342,0 c 2.750454,0.112149 5.862508,2.292162 7.874202,5.744289 2.682257,4.60285 2.33521,9.77434 -0.774512,11.55314 -3.109724,1.77879 -7.773649,-0.56059 -10.455907,-5.16342 -2.682258,-4.60285 -2.335211,-9.709788 0.774511,-11.488583 0.777433,-0.444694 1.664887,-0.682809 2.581706,-0.645426 z"
     id="path3113"
     inkscape:connector-curvature="0" />
</svg>
