<?xml version="1.0" encoding="UTF-8" standalone="no"?>
<!-- Created with Inkscape (http://www.inkscape.org/) -->

<svg
   xmlns:dc="http://purl.org/dc/elements/1.1/"
   xmlns:cc="http://creativecommons.org/ns#"
   xmlns:rdf="http://www.w3.org/1999/02/22-rdf-syntax-ns#"
   xmlns:svg="http://www.w3.org/2000/svg"
   xmlns="http://www.w3.org/2000/svg"
   xmlns:sodipodi="http://sodipodi.sourceforge.net/DTD/sodipodi-0.dtd"
   xmlns:inkscape="http://www.inkscape.org/namespaces/inkscape"
   width="128"
   height="128"
   id="svg3027"
   version="1.1"
   inkscape:version="0.48.5 r10040"
   sodipodi:docname="ZZ-BASE.svg"
   inkscape:export-xdpi="90"
   inkscape:export-ydpi="90">
  <metadata
     id="metadata5">
    <rdf:RDF>
      <cc:Work
         rdf:about="">
        <dc:format>image/svg+xml</dc:format>
        <dc:type
           rdf:resource="http://purl.org/dc/dcmitype/StillImage" />
        <dc:title></dc:title>
      </cc:Work>
    </rdf:RDF>
  </metadata>
  <defs
     id="defs3029" />
  <sodipodi:namedview
     id="base"
     pagecolor="#ffffff"
     bordercolor="#666666"
     borderopacity="1.0"
     inkscape:pageopacity="0.0"
     inkscape:pageshadow="2"
     inkscape:zoom="3.959798"
     inkscape:cx="65.796284"
     inkscape:cy="74.598719"
     inkscape:document-units="px"
     inkscape:current-layer="svg3027"
     showgrid="true"
     inkscape:window-width="1013"
     inkscape:window-height="847"
     inkscape:window-x="1932"
     inkscape:window-y="1"
     inkscape:window-maximized="0"
     inkscape:showpageshadow="false"
     borderlayer="false"
     showguides="true"
     inkscape:guide-bbox="true"
     inkscape:snap-to-guides="false"
     inkscape:snap-grids="false">
    <inkscape:grid
       type="xygrid"
       id="grid2981"
       empspacing="4"
       visible="true"
       enabled="true"
       snapvisiblegridlinesonly="true"
       spacingx="4px"
       spacingy="4px"
       dotted="false" />
    <sodipodi:guide
       orientation="0,1"
       position="0,120"
       id="guide2999" />
    <sodipodi:guide
       orientation="1,0"
       position="120,128"
       id="guide3001" />
    <sodipodi:guide
       orientation="0,1"
       position="0,8"
       id="guide3003" />
    <sodipodi:guide
       orientation="1,0"
       position="8,128"
       id="guide3005" />
  </sodipodi:namedview>
  <path
     style="color:#000000;fill:#3399ff;fill-opacity:1;fill-rule:nonzero;stroke:none;stroke-width:1;marker:none;visibility:visible;display:inline;overflow:visible;enable-background:accumulate"
     d="m 45.936063,8.0761192 c -1.108628,0 -2.001133,0.8925055 -2.001133,2.0011338 l 0,2.001132 -2.001134,0 c -1.108628,0 -2.001133,0.892506 -2.001133,2.001134 l 0,2.001133 -10.005667,0 -2.001133,0 c -4.434511,0 -8.004532,3.570022 -8.004532,8.004533 l 0,2.001134 0,76.043061 0,2.00114 c 0,4.43451 3.570021,8.00453 8.004532,8.00453 l 2.001133,0 6.0034,0 c 0,4.43451 3.570022,8.00453 8.004534,8.00453 l 56.031733,0 c 4.434507,0 8.004537,-3.57002 8.004537,-8.00453 l 0,-72.040798 c 0,-4.434511 -3.57003,-8.004533 -8.004537,-8.004533 l 0,-6.0034 0,-2.001134 c 0,-4.434511 -3.570022,-8.004533 -8.004534,-8.004533 l -2.001133,0 -10.005667,0 0,-2.001133 c 0,-1.108628 -0.892505,-2.001134 -2.001133,-2.001134 l -2.001133,0 0,-2.001132 c 0,-1.1086283 -0.892506,-2.0011338 -2.001134,-2.0011338 l -28.015866,0 z m 8.004533,4.0022658 12.0068,0 c 1.108628,0 2.001133,0.892506 2.001133,2.001134 l 0,4.002266 c 0,1.108628 -0.892505,2.001134 -2.001133,2.001134 l -12.0068,0 c -1.108628,0 -2.001133,-0.892506 -2.001133,-2.001134 l 0,-4.002266 c 0,-1.108628 0.892505,-2.001134 2.001133,-2.001134 z m -2.001133,32.018134 40.022666,0 c 2.217256,0 4.002267,1.785011 4.002267,4.002266 l 0,56.031735 c 0,2.21725 -1.785011,4.00226 -4.002267,4.00226 l -40.022666,0 c -2.217256,0 -4.002267,-1.78501 -4.002267,-4.00226 l 0,-56.031735 c 0,-2.217255 1.785011,-4.002266 4.002267,-4.002266 z"
     id="rect2961"
     sodipodi:nodetypes="ccccccccccccccccccccccccccccccccccccccccccccccccc"
     inkscape:connector-curvature="0" />
</svg>
