<?xml version="1.0" encoding="UTF-8" standalone="no"?>
<!-- Created with Inkscape (http://www.inkscape.org/) -->

<svg
   xmlns:dc="http://purl.org/dc/elements/1.1/"
   xmlns:cc="http://creativecommons.org/ns#"
   xmlns:rdf="http://www.w3.org/1999/02/22-rdf-syntax-ns#"
   xmlns:svg="http://www.w3.org/2000/svg"
   xmlns="http://www.w3.org/2000/svg"
   xmlns:sodipodi="http://sodipodi.sourceforge.net/DTD/sodipodi-0.dtd"
   xmlns:inkscape="http://www.inkscape.org/namespaces/inkscape"
   width="128"
   height="128"
   id="svg3027"
   version="1.1"
   inkscape:version="0.48.5 r10040"
   sodipodi:docname="format-justify-right.svg">
  <defs
     id="defs3029" />
  <sodipodi:namedview
     id="base"
     pagecolor="#ffffff"
     bordercolor="#666666"
     borderopacity="1.0"
     inkscape:pageopacity="0.0"
     inkscape:pageshadow="2"
     inkscape:zoom="1.979899"
     inkscape:cx="46.518652"
     inkscape:cy="7.8231049"
     inkscape:document-units="px"
     inkscape:current-layer="svg3027"
     showgrid="false"
     inkscape:window-width="1013"
     inkscape:window-height="847"
     inkscape:window-x="610"
     inkscape:window-y="135"
     inkscape:window-maximized="0"
     showguides="true"
     inkscape:guide-bbox="true" />
  <metadata
     id="metadata3032">
    <rdf:RDF>
      <cc:Work
         rdf:about="">
        <dc:format>image/svg+xml</dc:format>
        <dc:type
           rdf:resource="http://purl.org/dc/dcmitype/StillImage" />
        <dc:title></dc:title>
      </cc:Work>
    </rdf:RDF>
  </metadata>
  <g
     inkscape:label="Livello 1"
     inkscape:groupmode="layer"
     id="layer1"
     transform="translate(0,-924.36218)" />
  <path
     d="m 12.528298,4.8375091 0,16.0981129 48.294339,0 c 3.446284,0 8.049056,4.943248 8.049056,8.049056 l 0,8.049057 -40.245282,0 c -7.399256,0 -13.969943,3.090516 -18.110376,7.797523 -4.1404354,4.707007 -6.0882264,10.549334 -6.0367931,16.349646 0.048299,5.800311 2.1646334,11.692945 6.2883251,16.349647 4.123693,4.6567 10.548047,7.797522 17.858844,7.797522 l 48.294339,0 8.049055,0 0,-8.049056 0,-48.294339 c 0,-13.154894 -10.623144,-24.1471689 -24.147168,-24.1471689 l -48.294339,0 z m 16.098113,48.2943399 40.245282,0 0,16.098112 -40.245282,0 c -3.202478,0 -4.56309,-0.883706 -5.785259,-2.263798 -1.222168,-1.380091 -2.243835,-3.536513 -2.263797,-5.785259 -0.0161,-2.248745 0.842495,-4.455474 2.012264,-5.785259 1.169768,-1.329785 2.637194,-2.263796 6.036792,-2.263796 z"
     id="path11643-3-2-2"
     style="font-size:xx-small;font-style:normal;font-variant:normal;font-weight:normal;font-stretch:normal;text-indent:0;text-align:start;text-decoration:none;line-height:normal;letter-spacing:normal;word-spacing:normal;text-transform:none;direction:ltr;block-progression:tb;writing-mode:lr-tb;text-anchor:start;baseline-shift:baseline;color:#000000;fill:#3397ff;fill-opacity:1;stroke:none;stroke-width:2;marker:none;visibility:visible;display:inline;overflow:visible;enable-background:accumulate;font-family:Sans;-inkscape-font-specification:Sans"
     inkscape:connector-curvature="0" />
  <path
     sodipodi:nodetypes="ccccccccscccccccc"
     d="m 93.017819,125.57344 8.049051,-9e-5 c 2.1355,-2.3e-4 4.27067,-0.74937 5.78526,-2.26372 l 16.09812,-16.09818 2.26387,-2.2638 0,-7.042845 -2.26387,-2.263879 -16.09812,-16.098032 c -1.51468,-1.514912 -3.65001,-2.263475 -5.78535,-2.263475 l -8.049045,-8.1e-5 0,8.049057 c -3.23e-4,2.135496 0.749364,4.270748 2.263477,5.785421 l 10.312938,10.312774 -10.312853,10.31285 c -1.514437,1.51459 -2.263801,3.64985 -2.263801,5.78525 l 0,8.04907 z"
     id="path4484-2"
     style="font-size:medium;font-style:normal;font-variant:normal;font-weight:normal;font-stretch:normal;text-indent:0;text-align:start;text-decoration:none;line-height:normal;letter-spacing:normal;word-spacing:normal;text-transform:none;direction:ltr;block-progression:tb;writing-mode:lr-tb;text-anchor:start;color:#000000;fill:#3397ff;fill-opacity:1;stroke:none;stroke-width:2;marker:none;visibility:visible;display:inline;overflow:visible;enable-background:accumulate;font-family:Bitstream Vera Sans;-inkscape-font-specification:Bitstream Vera Sans"
     inkscape:connector-curvature="0" />
  <path
     d="m 3.9736006,93.37713 0,16.09811 105.1407994,0 0,-16.09811 -105.1407994,0 z"
     id="path4486-0"
     style="font-size:medium;font-style:normal;font-variant:normal;font-weight:normal;font-stretch:normal;text-indent:0;text-align:start;text-decoration:none;line-height:normal;letter-spacing:normal;word-spacing:normal;text-transform:none;direction:ltr;block-progression:tb;writing-mode:lr-tb;text-anchor:start;baseline-shift:baseline;color:#000000;fill:#3397ff;fill-opacity:1;stroke:none;stroke-width:2;marker:none;visibility:visible;display:inline;overflow:visible;enable-background:accumulate;font-family:Sans;-inkscape-font-specification:Sans"
     inkscape:connector-curvature="0" />
</svg>
