<?xml version="1.0" encoding="UTF-8" standalone="no"?>
<!-- Created with Inkscape (http://www.inkscape.org/) -->

<svg
   xmlns:dc="http://purl.org/dc/elements/1.1/"
   xmlns:cc="http://creativecommons.org/ns#"
   xmlns:rdf="http://www.w3.org/1999/02/22-rdf-syntax-ns#"
   xmlns:svg="http://www.w3.org/2000/svg"
   xmlns="http://www.w3.org/2000/svg"
   xmlns:xlink="http://www.w3.org/1999/xlink"
   xmlns:sodipodi="http://sodipodi.sourceforge.net/DTD/sodipodi-0.dtd"
   xmlns:inkscape="http://www.inkscape.org/namespaces/inkscape"
   width="128"
   height="128"
   id="svg2408"
   sodipodi:version="0.32"
   inkscape:version="0.48.5 r10040"
   version="1.0"
   sodipodi:docname="mail-mark-unread.svg"
   inkscape:output_extension="org.inkscape.output.svg.inkscape">
  <defs
     id="defs2410">
    <linearGradient
       id="linearGradient3727">
      <stop
         id="stop3729"
         offset="0"
         style="stop-color:#d5d5d5;stop-opacity:1;" />
      <stop
         id="stop3731"
         offset="1"
         style="stop-color:#f1f1f1;stop-opacity:1;" />
    </linearGradient>
    <linearGradient
       inkscape:collect="always"
       id="linearGradient3641">
      <stop
         style="stop-color:#000000;stop-opacity:1;"
         offset="0"
         id="stop3643" />
      <stop
         style="stop-color:#000000;stop-opacity:0;"
         offset="1"
         id="stop3645" />
    </linearGradient>
    <linearGradient
       inkscape:collect="always"
       id="linearGradient3737">
      <stop
         style="stop-color:#ffffff;stop-opacity:1;"
         offset="0"
         id="stop3739" />
      <stop
         style="stop-color:#ffffff;stop-opacity:0;"
         offset="1"
         id="stop3741" />
    </linearGradient>
    <linearGradient
       id="linearGradient3700">
      <stop
         style="stop-color:#dcdcdc;stop-opacity:1;"
         offset="0"
         id="stop3702" />
      <stop
         style="stop-color:#f0f0f0;stop-opacity:1;"
         offset="1"
         id="stop3704" />
    </linearGradient>
    <filter
       inkscape:collect="always"
       id="filter3794"
       x="-0.192"
       width="1.3839999"
       y="-0.192"
       height="1.3839999"
       color-interpolation-filters="sRGB">
      <feGaussianBlur
         inkscape:collect="always"
         stdDeviation="5.28"
         id="feGaussianBlur3796" />
    </filter>
    <linearGradient
       inkscape:collect="always"
       xlink:href="#linearGradient3737"
       id="linearGradient3613"
       x1="48"
       y1="20.220806"
       x2="48"
       y2="138.66119"
       gradientUnits="userSpaceOnUse" />
    <radialGradient
       inkscape:collect="always"
       xlink:href="#linearGradient3737"
       id="radialGradient3619"
       cx="48"
       cy="90.171875"
       fx="48"
       fy="90.171875"
       r="42"
       gradientTransform="matrix(1.5651032,0,0,1.3468253,-10.905403,-33.218575)"
       gradientUnits="userSpaceOnUse" />
    <clipPath
       clipPathUnits="userSpaceOnUse"
       id="clipPath3613">
      <rect
         ry="6"
         rx="6"
         y="6"
         x="6"
         height="84"
         width="84"
         id="rect3615"
         style="fill:#ffffff;fill-opacity:1;fill-rule:nonzero;stroke:none" />
    </clipPath>
    <linearGradient
       inkscape:collect="always"
       xlink:href="#linearGradient3700"
       id="linearGradient3627"
       x1="48"
       y1="88"
       x2="48"
       y2="32"
       gradientUnits="userSpaceOnUse"
       gradientTransform="matrix(1.3523596,0,0,1.3523596,-0.69370787,-33.485169)" />
    <linearGradient
       inkscape:collect="always"
       xlink:href="#linearGradient3727"
       id="linearGradient3635"
       x1="48"
       y1="88"
       x2="48"
       y2="36"
       gradientUnits="userSpaceOnUse"
       gradientTransform="matrix(1.3523596,0,0,1.3523596,-0.69370787,-33.485169)" />
    <filter
       inkscape:collect="always"
       id="filter3649"
       color-interpolation-filters="sRGB">
      <feGaussianBlur
         inkscape:collect="always"
         stdDeviation="1.38"
         id="feGaussianBlur3651" />
    </filter>
    <filter
       inkscape:collect="always"
       id="filter3665"
       color-interpolation-filters="sRGB">
      <feGaussianBlur
         inkscape:collect="always"
         stdDeviation="0.69"
         id="feGaussianBlur3667" />
    </filter>
    <linearGradient
       inkscape:collect="always"
       xlink:href="#linearGradient3737"
       id="linearGradient3687"
       gradientUnits="userSpaceOnUse"
       x1="36.357143"
       y1="6"
       x2="36.357143"
       y2="63.893143"
       gradientTransform="matrix(1.3523596,0,0,1.3523596,-0.69370787,-33.485169)" />
    <linearGradient
       inkscape:collect="always"
       xlink:href="#linearGradient3700"
       id="linearGradient3689"
       gradientUnits="userSpaceOnUse"
       x1="48"
       y1="90"
       x2="48"
       y2="5.9877172"
       gradientTransform="matrix(1.3523596,0,0,1.3523596,-0.69370787,-33.485169)" />
    <clipPath
       clipPathUnits="userSpaceOnUse"
       id="clipPath3696">
      <rect
         ry="6"
         rx="6"
         y="6"
         x="106"
         height="84"
         width="84"
         id="rect3698"
         style="fill:#ff00ff;fill-opacity:1;fill-rule:nonzero;stroke:none" />
    </clipPath>
    <linearGradient
       inkscape:collect="always"
       xlink:href="#linearGradient3641"
       id="linearGradient3701"
       gradientUnits="userSpaceOnUse"
       gradientTransform="translate(100,0)"
       x1="48"
       y1="32"
       x2="48"
       y2="80" />
    <clipPath
       clipPathUnits="userSpaceOnUse"
       id="clipPath3703">
      <rect
         style="fill:#ff00ff;fill-opacity:1;fill-rule:nonzero;stroke:none"
         id="rect3705"
         width="84"
         height="84"
         x="106"
         y="6"
         rx="6"
         ry="6" />
    </clipPath>
    <linearGradient
       inkscape:collect="always"
       xlink:href="#linearGradient3641"
       id="linearGradient3707"
       gradientUnits="userSpaceOnUse"
       gradientTransform="translate(100,-1)"
       x1="51"
       y1="62"
       x2="51"
       y2="21" />
    <linearGradient
       inkscape:collect="always"
       id="linearGradient3737-3">
      <stop
         style="stop-color:#ffffff;stop-opacity:1;"
         offset="0"
         id="stop3739-5" />
      <stop
         style="stop-color:#ffffff;stop-opacity:0;"
         offset="1"
         id="stop3741-7" />
    </linearGradient>
    <radialGradient
       r="42"
       fy="90.171875"
       fx="48"
       cy="90.171875"
       cx="48"
       gradientTransform="matrix(1.5651032,0,0,1.3468253,-10.905403,-33.218575)"
       gradientUnits="userSpaceOnUse"
       id="radialGradient2858"
       xlink:href="#linearGradient3737-3"
       inkscape:collect="always" />
    <linearGradient
       id="ButtonShadow-0"
       gradientTransform="matrix(1.0058652,0,0,0.994169,100,0)"
       x1="45.447727"
       y1="92.539597"
       x2="45.447727"
       y2="7.0165396"
       gradientUnits="userSpaceOnUse">
      <stop
         style="stop-color:#000000;stop-opacity:1;"
         offset="0"
         id="stop3750-8" />
      <stop
         style="stop-color:#000000;stop-opacity:0.58823532;"
         offset="1"
         id="stop3752-5" />
    </linearGradient>
    <linearGradient
       inkscape:collect="always"
       xlink:href="#ButtonShadow-0"
       id="linearGradient3780"
       gradientUnits="userSpaceOnUse"
       gradientTransform="matrix(1.0238095,0,0,1.0119048,-1.1428571,-98.071429)"
       x1="32.251034"
       y1="6.1317081"
       x2="32.251034"
       y2="90.238609" />
    <linearGradient
       inkscape:collect="always"
       xlink:href="#ButtonShadow-0"
       id="linearGradient3772"
       gradientUnits="userSpaceOnUse"
       gradientTransform="matrix(1.0238095,0,0,1.0119048,-1.1428571,-98.071429)"
       x1="32.251034"
       y1="6.1317081"
       x2="32.251034"
       y2="90.238609" />
    <linearGradient
       inkscape:collect="always"
       xlink:href="#ButtonShadow-0"
       id="linearGradient3725"
       gradientUnits="userSpaceOnUse"
       gradientTransform="matrix(1.3845586,0,0,1.3684591,-2.2392616,-99.142665)"
       x1="32.251034"
       y1="6.1317081"
       x2="32.251034"
       y2="90.238609" />
    <linearGradient
       inkscape:collect="always"
       xlink:href="#ButtonShadow-0"
       id="linearGradient3721"
       gradientUnits="userSpaceOnUse"
       gradientTransform="matrix(1.3523596,0,0,1.3523596,-0.69370787,-97.693708)"
       x1="32.251034"
       y1="6.1317081"
       x2="32.251034"
       y2="90.238609" />
    <linearGradient
       y2="90.238609"
       x2="32.251034"
       y1="6.1317081"
       x1="32.251034"
       gradientTransform="matrix(1.0238095,0,0,1.0119048,-1.1428571,-98.071429)"
       gradientUnits="userSpaceOnUse"
       id="linearGradient2918"
       xlink:href="#ButtonShadow-0"
       inkscape:collect="always" />
    <linearGradient
       id="linearGradient3658">
      <stop
         style="stop-color:#ff9604;stop-opacity:1;"
         offset="0"
         id="stop3660" />
      <stop
         style="stop-color:#fff580;stop-opacity:1;"
         offset="1"
         id="stop3662" />
    </linearGradient>
    <linearGradient
       y2="4.9937253"
       x2="10.540542"
       y1="15.37313"
       x1="11.087322"
       gradientUnits="userSpaceOnUse"
       id="linearGradient3127"
       xlink:href="#linearGradient3658"
       inkscape:collect="always" />
    <linearGradient
       inkscape:collect="always"
       xlink:href="#linearGradient3737-3"
       id="linearGradient4092"
       gradientUnits="userSpaceOnUse"
       gradientTransform="matrix(4.5394823,0.23922238,-0.23913732,4.5403525,47.739352,9.9101074)"
       x1="10.999399"
       y1="4.1597385"
       x2="11.500113"
       y2="13.664667" />
  </defs>
  <sodipodi:namedview
     id="base"
     pagecolor="#ffffff"
     bordercolor="#666666"
     borderopacity="1.0"
     inkscape:pageopacity="0.0"
     inkscape:pageshadow="2"
     inkscape:zoom="4.2952456"
     inkscape:cx="36.303085"
     inkscape:cy="43.985337"
     inkscape:document-units="px"
     inkscape:current-layer="layer3"
     showgrid="true"
     showborder="true"
     inkscape:showpageshadow="false"
     inkscape:window-width="1680"
     inkscape:window-height="987"
     inkscape:window-x="0"
     inkscape:window-y="0"
     inkscape:window-maximized="1"
     showguides="true"
     inkscape:guide-bbox="true">
    <inkscape:grid
       type="xygrid"
       id="grid3732"
       visible="true"
       enabled="true"
       empspacing="4"
       snapvisiblegridlinesonly="true"
       spacingx="4px"
       spacingy="4px" />
  </sodipodi:namedview>
  <metadata
     id="metadata2413">
    <rdf:RDF>
      <cc:Work
         rdf:about="">
        <dc:format>image/svg+xml</dc:format>
        <dc:type
           rdf:resource="http://purl.org/dc/dcmitype/StillImage" />
        <dc:title />
      </cc:Work>
    </rdf:RDF>
  </metadata>
  <g
     inkscape:groupmode="layer"
     id="layer3"
     inkscape:label="Shadow"
     style="display:inline"
     transform="translate(0,32)">
    <path
       sodipodi:type="inkscape:offset"
       inkscape:radius="0.99097413"
       inkscape:original="M 12 -94.03125 C 7.028367 -94.03125 2.96875 -89.971633 2.96875 -85 L 2.96875 -14 C 2.96875 -9.0283671 7.0283671 -4.96875 12 -4.96875 L 84 -4.96875 C 88.971633 -4.96875 93.03125 -9.028367 93.03125 -14 L 93.03125 -85 C 93.03125 -89.971633 88.971633 -94.03125 84 -94.03125 L 12 -94.03125 z "
       style="opacity:0.07999998;fill:url(#linearGradient2918);fill-opacity:1;fill-rule:nonzero;stroke:none;display:inline"
       id="path3786"
       d="m 12,-95.03125 c -5.5110903,0 -10.03125,4.52016 -10.03125,10.03125 l 0,71 c 0,5.5110902 4.5201598,10.03125 10.03125,10.03125 l 72,0 c 5.51109,0 10.03125,-4.5201597 10.03125,-10.03125 l 0,-71 c 0,-5.51109 -4.52016,-10.03125 -10.03125,-10.03125 l -72,0 z"
       transform="matrix(1.3523596,0,0,-1.3523596,-0.69370787,-33.485169)" />
    <path
       sodipodi:type="inkscape:offset"
       inkscape:radius="1.0360184"
       inkscape:original="M 12 -93 C 7.5908667 -93 4 -89.409133 4 -85 L 4 -14 C 4 -9.5908667 7.5908667 -6 12 -6 L 84 -6 C 88.409133 -6 92 -9.5908667 92 -14 L 92 -85 C 92 -89.409133 88.409133 -93 84 -93 L 12 -93 z "
       style="opacity:0.1;fill:url(#linearGradient3780);fill-opacity:1;fill-rule:nonzero;stroke:none;display:inline"
       id="path3778"
       d="m 12,-94.03125 c -4.971633,0 -9.03125,4.059617 -9.03125,9.03125 l 0,71 c 0,4.9716329 4.0596171,9.03125 9.03125,9.03125 l 72,0 c 4.971633,0 9.03125,-4.059617 9.03125,-9.03125 l 0,-71 c 0,-4.971633 -4.059617,-9.03125 -9.03125,-9.03125 l -72,0 z"
       transform="matrix(1.3523596,0,0,-1.3523596,-0.69370787,-33.485169)" />
    <path
       sodipodi:type="inkscape:offset"
       inkscape:radius="0.98962283"
       inkscape:original="M 12 -92 C 8.122 -92 5 -88.878 5 -85 L 5 -14 C 5 -10.122 8.122 -7 12 -7 L 84 -7 C 87.878 -7 91 -10.122 91 -14 L 91 -85 C 91 -88.878 87.878 -92 84 -92 L 12 -92 z "
       style="opacity:0.2;fill:url(#linearGradient3772);fill-opacity:1;fill-rule:nonzero;stroke:none;display:inline"
       id="path3770"
       d="m 12,-93 c -4.4091333,0 -8,3.590867 -8,8 l 0,71 c 0,4.4091333 3.5908667,8 8,8 l 72,0 c 4.409133,0 8,-3.5908667 8,-8 l 0,-71 c 0,-4.409133 -3.590867,-8 -8,-8 l -72,0 z"
       transform="matrix(1.3523596,0,0,-1.3523596,-0.69370787,-33.485169)" />
    <rect
       style="opacity:0.3;fill:url(#linearGradient3725);fill-opacity:1;fill-rule:nonzero;stroke:none;display:inline"
       id="rect3723"
       width="116.30293"
       height="114.95056"
       x="6.06809"
       y="-90.931908"
       rx="9.4665165"
       ry="9.4665165"
       transform="scale(1,-1)" />
    <rect
       transform="scale(1,-1)"
       ry="8.1141577"
       rx="8.1141577"
       y="-89.579552"
       x="7.4204493"
       height="113.59821"
       width="113.59821"
       id="rect3716"
       style="opacity:0.45;fill:url(#linearGradient3721);fill-opacity:1;fill-rule:nonzero;stroke:none;display:inline" />
  </g>
  <g
     inkscape:label="Button"
     inkscape:groupmode="layer"
     id="layer1"
     transform="translate(0,32)">
    <rect
       style="fill:url(#linearGradient3689);fill-opacity:1;fill-rule:nonzero;stroke:none"
       id="rect2419"
       width="113.59821"
       height="113.59821"
       x="7.4204493"
       y="-25.371012"
       rx="8.1141577"
       ry="8.1141577" />
    <path
       sodipodi:nodetypes="cccccccc"
       style="opacity:0.3;fill:url(#linearGradient3701);fill-opacity:1;stroke:none;filter:url(#filter3665)"
       d="m 112,89 c -3.324,0 -6,-2.676 -6,-6 l 0,-6 42,-42 42,42 0,6 c 0,3.324 -2.676,6 -6,6 l -72,0 z"
       id="path3653"
       clip-path="url(#clipPath3696)"
       transform="matrix(1.3523596,0,0,1.3523596,-135.92966,-34.837528)"
       inkscape:connector-curvature="0" />
    <path
       id="path3619"
       d="m 15.534607,88.227191 c -4.495243,0 -8.1141576,-3.618914 -8.1141576,-8.114157 l 0,-8.114158 56.7991016,-56.799101 56.799099,56.799101 0,8.114158 c 0,4.495243 -3.61891,8.114157 -8.11416,8.114157 l -97.369883,0 z"
       style="fill:url(#linearGradient3635);fill-opacity:1;stroke:none"
       sodipodi:nodetypes="cccccccc"
       inkscape:connector-curvature="0" />
    <path
       style="opacity:0.4;fill:#ffffff;fill-opacity:1;stroke:none"
       d="m 64.219551,15.199775 -56.7991016,56.799101 0,1.35236 56.7991016,-56.799101 56.799099,56.799101 0,-1.35236 -56.799099,-56.799101 z"
       id="path3718"
       inkscape:connector-curvature="0" />
    <path
       sodipodi:nodetypes="cccccccc"
       id="path3637"
       d="m 112,7 c -3.324,0 -6,2.676 -6,6 l 0,6 42,42 42,-42 0,-6 c 0,-3.324 -2.676,-6 -6,-6 l -72,0 z"
       style="opacity:0.4;fill:url(#linearGradient3707);fill-opacity:1;stroke:none;filter:url(#filter3649)"
       clip-path="url(#clipPath3703)"
       transform="matrix(1.3523596,0,0,1.3523596,-135.92966,-32.132809)"
       inkscape:connector-curvature="0" />
    <path
       style="fill:url(#linearGradient3627);fill-opacity:1;stroke:none"
       d="m 15.534607,-25.371011 c -4.495243,0 -8.1141576,3.618914 -8.1141576,8.114157 l 0,8.1141574 56.7991016,56.7991006 56.799099,-56.7991006 0,-8.1141574 c 0,-4.495243 -3.61891,-8.114157 -8.11416,-8.114157 l -97.369883,0 z"
       id="path3613"
       sodipodi:nodetypes="cccccccc"
       inkscape:connector-curvature="0" />
    <path
       style="opacity:0.6;fill:#ffffff;fill-opacity:1;stroke:none"
       d="m 7.4204494,-10.495056 0,1.3523594 56.7991016,56.7991006 56.799099,-56.7991006 0,-1.3523594 L 64.219551,46.304045 7.4204494,-10.495056 z"
       id="path3709"
       inkscape:connector-curvature="0" />
  </g>
  <g
     inkscape:groupmode="layer"
     id="layer5"
     inkscape:label="Highlight"
     transform="translate(0,32)">
    <rect
       style="opacity:0.1;fill:url(#linearGradient3613);fill-opacity:1;fill-rule:nonzero;stroke:#ffffff;stroke-width:0.5;stroke-linecap:round;stroke-linejoin:miter;stroke-miterlimit:4;stroke-opacity:1;stroke-dasharray:none;stroke-dashoffset:0;filter:url(#filter3794)"
       id="rect3171"
       width="66"
       height="66"
       x="15"
       y="15"
       rx="12"
       ry="12"
       clip-path="url(#clipPath3613)"
       transform="matrix(1.3523596,0,0,1.3523596,-0.69370787,-33.485169)" />
    <path
       id="path3615"
       d="m 15.534607,88.227191 c -4.495243,0 -8.1141576,-3.618914 -8.1141576,-8.114157 l 0,-2.704719 0,-91.96045 0,-2.704719 c 0,-0.452663 0.05592,-0.87998 0.1267837,-1.310098 0.06586,-0.399752 0.131233,-0.807244 0.2535675,-1.183315 0.013361,-0.04108 0.028253,-0.08601 0.042261,-0.126784 0.133701,-0.389169 0.3176425,-0.740352 0.5071348,-1.098792 0.1955401,-0.36988 0.4268265,-0.724344 0.6761798,-1.056531 0.2493533,-0.332186 0.5054802,-0.640304 0.8029635,-0.929747 0.5949661,-0.578885 1.2751531,-1.101532 2.0285391,-1.479143 0.376693,-0.188806 0.775542,-0.333961 1.183315,-0.464874 -0.346477,0.135537 -0.658208,0.319525 -0.972009,0.507135 -0.01002,0.006 -0.03227,-0.0061 -0.04226,0 -0.04318,0.0261 -0.08424,0.05749 -0.126784,0.08452 -0.162817,0.103726 -0.312425,0.221128 -0.464873,0.33809 -0.143584,0.10927 -0.288433,0.217881 -0.422613,0.338089 -0.240625,0.218316 -0.46989,0.467089 -0.676179,0.718441 -0.145486,0.176152 -0.295347,0.358761 -0.4226126,0.549397 -0.033929,0.0519 -0.051993,0.116127 -0.084522,0.169044 -0.087583,0.139337 -0.1761144,0.276581 -0.2535674,0.422613 -0.1365996,0.263312 -0.2781463,0.562177 -0.3803512,0.845225 -0.010765,0.0295 -0.031901,0.05484 -0.042261,0.08452 -0.043039,0.124349 -0.04842,0.252663 -0.084522,0.380351 -0.04102,0.144186 -0.095192,0.274571 -0.1267837,0.422612 -0.098558,0.461848 -0.1690449,0.944225 -0.1690449,1.436883 l 0,2.704719 0,91.960449 0,2.704719 c 0,3.762059 2.999739,6.761798 6.761798,6.761798 l 2.704719,0 91.960454,0 2.70471,0 c 3.76206,0 6.7618,-2.999739 6.7618,-6.761798 l 0,-2.704719 0,-91.960449 0,-2.704719 c 0,-0.492658 -0.0705,-0.975035 -0.16904,-1.436883 -0.0597,-0.279793 -0.11952,-0.537776 -0.21131,-0.802963 -0.0104,-0.02968 -0.0315,-0.05503 -0.0423,-0.08452 -0.0849,-0.234958 -0.18714,-0.496924 -0.29583,-0.718441 -0.0562,-0.111976 -0.10689,-0.229839 -0.16904,-0.33809 -0.0738,-0.131463 -0.17145,-0.254717 -0.25357,-0.380351 -0.12727,-0.190636 -0.27713,-0.373245 -0.42261,-0.549397 -0.19363,-0.235919 -0.40996,-0.469266 -0.63392,-0.676179 -0.0151,-0.01379 -0.027,-0.0286 -0.0423,-0.04226 -0.18715,-0.169796 -0.38555,-0.317041 -0.59166,-0.464873 -0.13871,-0.09893 -0.27631,-0.207403 -0.42261,-0.295829 -0.01,-0.0061 -0.0322,0.006 -0.0423,0 -0.3138,-0.18761 -0.62554,-0.371598 -0.97201,-0.507135 0.40777,0.130909 0.80662,0.276068 1.18331,0.464874 0.75339,0.377611 1.43357,0.900258 2.02854,1.479143 0.29748,0.289443 0.55361,0.597561 0.80296,0.929747 0.24936,0.332187 0.48064,0.686651 0.67618,1.056531 0.1895,0.35844 0.37344,0.709623 0.50714,1.098792 0.0141,0.04163 0.0288,0.08485 0.0423,0.126784 0.12234,0.376071 0.18771,0.783563 0.25357,1.183315 0.0709,0.430118 0.12678,0.857435 0.12678,1.310098 l 0,2.704719 0,91.96045 0,2.704719 c 0,4.495243 -3.61891,8.114157 -8.11416,8.114157 l -97.369883,0 z"
       style="opacity:0;fill:url(#radialGradient3619);fill-opacity:1;fill-rule:nonzero;stroke:none"
       inkscape:connector-curvature="0" />
    <path
       style="opacity:0.6;fill:url(#linearGradient3687);fill-opacity:1;fill-rule:nonzero;stroke:none"
       d="m 15.534607,-25.371011 c -4.495243,0 -8.1141576,3.618914 -8.1141576,8.114157 l 0,2.704719 0,91.96045 0,2.704719 c 0,0.452663 0.05592,0.87998 0.1267837,1.310098 0.06586,0.399752 0.131233,0.807244 0.2535675,1.183315 0.013388,0.04108 0.028251,0.08601 0.042261,0.126783 0.1336943,0.38917 0.3176422,0.740352 0.5071348,1.098792 0.1955404,0.36988 0.4268263,0.724345 0.6761798,1.056531 0.2493535,0.332187 0.5054795,0.640305 0.8029635,0.929748 0.5949661,0.578885 1.2751531,1.101532 2.0285391,1.479143 0.376693,0.188805 0.775542,0.333961 1.183315,0.464873 -0.346477,-0.135536 -0.658208,-0.319524 -0.972009,-0.507134 -0.01001,-0.006 -0.03228,0.0061 -0.04226,0 -0.04318,-0.0261 -0.08424,-0.05749 -0.126784,-0.08452 -0.162817,-0.103726 -0.312426,-0.221128 -0.464873,-0.33809 -0.143584,-0.10927 -0.288433,-0.217881 -0.422613,-0.33809 -0.240625,-0.218315 -0.46989,-0.467088 -0.676179,-0.718441 -0.145486,-0.176151 -0.295347,-0.35876 -0.4226126,-0.549396 -0.033931,-0.0519 -0.051998,-0.116127 -0.084522,-0.169045 C 9.7417611,84.918262 9.6532248,84.781018 9.5757725,84.634986 9.4391733,84.371673 9.2976259,84.072809 9.1954213,83.789761 9.1846025,83.760266 9.1635192,83.734923 9.1531601,83.705239 9.1101145,83.580889 9.1047456,83.452576 9.0686376,83.324888 9.0276179,83.180702 8.9734464,83.050317 8.9418539,82.902275 8.8432953,82.440428 8.772809,81.958051 8.772809,81.465393 l 0,-2.704719 0,-91.960449 0,-2.704719 c 0,-3.762059 2.999739,-6.761798 6.761798,-6.761798 l 2.704719,0 91.960454,0 2.70471,0 c 3.76206,0 6.7618,2.999739 6.7618,6.761798 l 0,2.704719 0,91.960449 0,2.704719 c 0,0.492658 -0.0705,0.975035 -0.16904,1.436882 -0.0597,0.279794 -0.11952,0.537777 -0.21131,0.802964 -0.0104,0.02968 -0.0315,0.05503 -0.0423,0.08452 -0.0849,0.234958 -0.18714,0.496923 -0.29583,0.718441 -0.0562,0.111976 -0.10689,0.229839 -0.16904,0.33809 -0.0738,0.131463 -0.17145,0.254717 -0.25357,0.380351 -0.12727,0.190636 -0.27713,0.373245 -0.42261,0.549396 -0.19363,0.235919 -0.40996,0.469266 -0.63392,0.67618 -0.0151,0.01379 -0.027,0.0286 -0.0423,0.04226 -0.18715,0.169797 -0.38555,0.317042 -0.59166,0.464874 -0.13871,0.09892 -0.27631,0.207403 -0.42261,0.295829 -0.01,0.0061 -0.0322,-0.006 -0.0423,0 -0.3138,0.18761 -0.62554,0.371598 -0.97201,0.507134 0.40777,-0.130908 0.80662,-0.276068 1.18331,-0.464873 0.75339,-0.377611 1.43357,-0.900258 2.02854,-1.479143 0.29748,-0.289443 0.55361,-0.597561 0.80296,-0.929748 0.24936,-0.332186 0.48064,-0.686651 0.67618,-1.056531 0.1895,-0.35844 0.37344,-0.709622 0.50714,-1.098792 0.0141,-0.04163 0.0288,-0.08485 0.0423,-0.126783 0.12234,-0.376071 0.18771,-0.783563 0.25357,-1.183315 0.0709,-0.430118 0.12678,-0.857435 0.12678,-1.310098 l 0,-2.704719 0,-91.96045 0,-2.704719 c 0,-4.495243 -3.61891,-8.114157 -8.11416,-8.114157 l -97.369883,0 z"
       id="rect3728"
       inkscape:connector-curvature="0" />
    <path
       id="path3615-5"
       d="m 15.534607,88.227191 c -4.495243,0 -8.1141576,-3.618914 -8.1141576,-8.114157 l 0,-2.704719 0,-91.96045 0,-2.704719 c 0,-0.452663 0.05592,-0.87998 0.1267837,-1.310098 0.06586,-0.399752 0.131233,-0.807244 0.2535675,-1.183315 0.013361,-0.04108 0.028253,-0.08601 0.042261,-0.126784 0.133701,-0.389169 0.3176425,-0.740352 0.5071348,-1.098792 0.1955401,-0.36988 0.4268265,-0.724344 0.6761798,-1.056531 0.2493533,-0.332186 0.5054802,-0.640304 0.8029635,-0.929747 0.5949661,-0.578885 1.2751531,-1.101532 2.0285391,-1.479143 0.376693,-0.188806 0.775542,-0.333961 1.183315,-0.464874 -0.346477,0.135537 -0.658208,0.319525 -0.972009,0.507135 -0.01002,0.006 -0.03227,-0.0061 -0.04226,0 -0.04318,0.0261 -0.08424,0.05749 -0.126784,0.08452 -0.162817,0.103726 -0.312425,0.221128 -0.464873,0.33809 -0.143584,0.10927 -0.288433,0.217881 -0.422613,0.338089 -0.240625,0.218316 -0.46989,0.467089 -0.676179,0.718441 -0.145486,0.176152 -0.295347,0.358761 -0.4226126,0.549397 -0.033929,0.0519 -0.051993,0.116127 -0.084522,0.169044 -0.087583,0.139337 -0.1761144,0.276581 -0.2535674,0.422613 -0.1365996,0.263312 -0.2781463,0.562177 -0.3803512,0.845225 -0.010765,0.0295 -0.031901,0.05484 -0.042261,0.08452 -0.043039,0.124349 -0.04842,0.252663 -0.084522,0.380351 -0.04102,0.144186 -0.095192,0.274571 -0.1267837,0.422612 -0.098558,0.461848 -0.1690449,0.944225 -0.1690449,1.436883 l 0,2.704719 0,91.960449 0,2.704719 c 0,3.762059 2.999739,6.761798 6.761798,6.761798 l 2.704719,0 91.960454,0 2.70471,0 c 3.76206,0 6.7618,-2.999739 6.7618,-6.761798 l 0,-2.704719 0,-91.960449 0,-2.704719 c 0,-0.492658 -0.0705,-0.975035 -0.16904,-1.436883 -0.0597,-0.279793 -0.11952,-0.537776 -0.21131,-0.802963 -0.0104,-0.02968 -0.0315,-0.05503 -0.0423,-0.08452 -0.0849,-0.234958 -0.18714,-0.496924 -0.29583,-0.718441 -0.0562,-0.111976 -0.10689,-0.229839 -0.16904,-0.33809 -0.0738,-0.131463 -0.17145,-0.254717 -0.25357,-0.380351 -0.12727,-0.190636 -0.27713,-0.373245 -0.42261,-0.549397 -0.19363,-0.235919 -0.40996,-0.469266 -0.63392,-0.676179 -0.0151,-0.01379 -0.027,-0.0286 -0.0423,-0.04226 -0.18715,-0.169796 -0.38555,-0.317041 -0.59166,-0.464873 -0.13871,-0.09893 -0.27631,-0.207403 -0.42261,-0.295829 -0.01,-0.0061 -0.0322,0.006 -0.0423,0 -0.3138,-0.18761 -0.62554,-0.371598 -0.97201,-0.507135 0.40777,0.130909 0.80662,0.276068 1.18331,0.464874 0.75339,0.377611 1.43357,0.900258 2.02854,1.479143 0.29748,0.289443 0.55361,0.597561 0.80296,0.929747 0.24936,0.332187 0.48064,0.686651 0.67618,1.056531 0.1895,0.35844 0.37344,0.709623 0.50714,1.098792 0.0141,0.04163 0.0288,0.08485 0.0423,0.126784 0.12234,0.376071 0.18771,0.783563 0.25357,1.183315 0.0709,0.430118 0.12678,0.857435 0.12678,1.310098 l 0,2.704719 0,91.96045 0,2.704719 c 0,4.495243 -3.61891,8.114157 -8.11416,8.114157 l -97.369883,0 z"
       style="opacity:0.3;fill:url(#radialGradient2858);fill-opacity:1;fill-rule:nonzero;stroke:none"
       inkscape:connector-curvature="0" />
  </g>
  <g
     inkscape:groupmode="layer"
     id="layer4"
     inkscape:label="Star"
     transform="translate(0,32)">
    <path
       sodipodi:type="inkscape:offset"
       inkscape:radius="1.0796874"
       inkscape:original="M 67.34375 50.78125 C 66.724352 51.016203 66.555295 51.413161 66.21875 51.78125 C 64.638108 55.077797 62.870187 58.316317 61.21875 61.59375 C 60.952501 62.247651 60.008434 61.977134 59.4375 62.21875 C 56.061329 62.826543 52.605371 63.42155 49.28125 64.03125 C 48.796631 64.306203 48.394173 64.621515 48.28125 65.15625 C 48.00682 65.729076 48.113422 66.548245 48.40625 66.84375 C 48.538793 67.367807 49.190436 67.674836 49.59375 68.21875 L 56.65625 75.46875 C 56.116212 79.368823 55.458993 83.279355 55 87.1875 C 55.116172 87.769818 55.236316 88.236531 55.78125 88.46875 C 56.044295 88.791063 56.839118 88.994022 57.4375 88.78125 C 57.944783 88.600336 58.642517 88.168124 59.25 87.90625 L 67.90625 83.65625 L 78.15625 88.71875 C 78.625623 88.847067 79.507006 89.010999 79.84375 88.6875 C 80.336698 88.60199 80.698065 88.278184 80.84375 87.8125 C 81.182483 87.328841 81.007731 86.568954 80.90625 85.875 L 79.40625 75.40625 C 82.077095 72.673539 84.72413 69.93973 87.40625 67.21875 C 87.819983 66.87325 88.106268 66.048186 87.90625 65.4375 C 87.802387 64.951354 87.4874 64.548591 87.125 64.25 C 86.66149 64.036119 86.019391 63.945263 85.3125 63.84375 L 75.15625 62.15625 C 73.317271 58.625099 71.392522 55.046878 69.59375 51.53125 C 69.134089 51.22941 68.797968 50.756639 68.0625 50.84375 C 67.817522 50.83505 67.588331 50.78786 67.34375 50.78125 z "
       style="opacity:0.05;fill:#000000;fill-opacity:1;stroke:none;display:inline"
       id="path3998"
       d="m 67.375,49.6875 a 1.0797953,1.0797953 0 0 0 -0.40625,0.09375 c -0.935542,0.354874 -1.33405,1.065567 -1.53125,1.28125 a 1.0797953,1.0797953 0 0 0 -0.1875,0.25 c -1.548195,3.228877 -3.290242,6.423713 -4.9375,9.6875 -0.0022,0.0043 -0.02909,-0.0043 -0.03125,0 -0.189325,0.02047 -0.58251,0.05473 -1.03125,0.1875 l 0,-0.03125 c -3.370653,0.6068 -6.824119,1.201331 -10.15625,1.8125 a 1.0797953,1.0797953 0 0 0 -0.34375,0.125 c -0.515036,0.292211 -1.134185,0.826328 -1.40625,1.625 L 47.3125,64.6875 c -0.02047,0.04274 -0.01344,0.08229 -0.03125,0.125 -0.01374,0.04869 -0.05175,0.07408 -0.0625,0.125 l 0.0625,0 c -0.155557,0.43168 -0.256013,0.877949 -0.21875,1.28125 0.02815,0.304617 0.199862,0.582231 0.34375,0.875 l -0.03125,0 c 0.02445,0.09668 0.09072,0.103425 0.125,0.1875 0.06864,0.104129 0.02273,0.209299 0.125,0.3125 l 0.03125,-0.03125 c 0.174834,0.273206 0.334578,0.59871 0.5,0.75 0.265715,0.243015 0.468658,0.435944 0.5625,0.5625 a 1.0797953,1.0797953 0 0 0 0.09375,0.09375 l 6.71875,6.875 c -0.522804,3.707767 -1.151437,7.452628 -1.59375,11.21875 a 1.0797953,1.0797953 0 0 0 0,0.34375 c 0.06123,0.306918 0.140236,0.66785 0.34375,1.0625 0.132564,0.257065 0.419262,0.447663 0.6875,0.65625 l -0.03125,0.03125 c 0.05574,0.0683 0.129963,0.03813 0.1875,0.09375 0.0941,0.05976 0.115728,0.174848 0.21875,0.21875 l 0.03125,-0.0625 c 0.283749,0.192376 0.561214,0.402761 0.875,0.46875 0.473051,0.09948 1.019022,0.130749 1.5625,-0.0625 0.724707,-0.258455 1.388115,-0.696364 1.875,-0.90625 A 1.0797953,1.0797953 0 0 0 59.71875,88.875 l 8.1875,-4.03125 9.78125,4.84375 A 1.0797953,1.0797953 0 0 0 77.875,89.75 c 0.287691,0.07865 0.679709,0.164501 1.125,0.1875 0.413084,0.02134 0.936707,0.02806 1.46875,-0.40625 0.04148,-0.03386 0.08352,-0.02266 0.125,-0.0625 0.482398,-0.233067 0.859643,-0.586341 1.09375,-1.0625 l 0.03125,0.03125 c 0.02967,-0.04237 0.0057,-0.0822 0.03125,-0.125 0.03003,-0.06975 0.102298,-0.114934 0.125,-0.1875 l -0.0625,-0.03125 c 0.185381,-0.421563 0.327159,-0.866491 0.3125,-1.21875 -0.01881,-0.45201 -0.110184,-0.841241 -0.15625,-1.15625 l -1.4375,-9.9375 c 2.521318,-2.581715 5.035506,-5.154095 7.5625,-7.71875 0.031,-0.03146 0.06274,-0.06229 0.09375,-0.09375 L 88.15625,67.9375 c 0.365656,-0.345752 0.614428,-0.738116 0.75,-1.1875 0.137765,-0.456654 0.175218,-0.993002 0.03125,-1.53125 l 0.03125,0 c -0.0055,-0.02596 -0.02506,-0.03699 -0.03125,-0.0625 -0.0066,-0.02205 0.0072,-0.04036 0,-0.0625 l -0.03125,0 c -0.197297,-0.725084 -0.632452,-1.307424 -1.09375,-1.6875 a 1.0797953,1.0797953 0 0 0 -0.25,-0.125 c -0.692411,-0.319504 -1.366964,-0.400947 -2.0625,-0.5 l -0.03125,0 L 75.875,61.1875 C 74.106761,57.801571 72.274958,54.378182 70.5625,51.03125 A 1.0797953,1.0797953 0 0 0 70.1875,50.625 c -0.114569,-0.07523 -0.321724,-0.272729 -0.6875,-0.5 -0.329352,-0.204639 -0.860471,-0.331473 -1.40625,-0.3125 l 0,-0.0625 c -0.130457,-0.0046 -0.353652,-0.05263 -0.71875,-0.0625 z"
       transform="matrix(1.3523596,0,0,1.3523596,2.0110112,-34.837528)" />
    <path
       style="opacity:0.07999998;fill:#000000;fill-opacity:1;stroke:none;display:inline"
       d="m 93.066015,33.854834 c -0.837648,0.317741 -1.038188,0.846315 -1.493318,1.344104 -2.137597,4.458116 -4.52406,8.849044 -6.757396,13.281312 -0.360065,0.884309 -1.655012,0.503579 -2.42712,0.830331 -4.565797,0.821955 -9.242324,1.640842 -13.737731,2.465376 -0.655379,0.371835 -1.206221,0.770311 -1.358934,1.493464 -0.371128,0.774667 -0.231859,1.885498 0.16415,2.285127 0.179246,0.708714 1.098712,1.137774 1.644138,1.873341 3.182415,3.271416 6.36483,6.542836 9.547247,9.814252 -0.730326,5.274301 -1.634846,10.531259 -2.255569,15.816477 0.157106,0.787503 0.308247,1.448394 1.045194,1.762438 0.355731,0.435883 1.445567,0.691127 2.254794,0.403383 0.686029,-0.244661 1.612494,-0.824655 2.43403,-1.178803 3.90994,-1.9193 7.819882,-3.8386 11.729821,-5.7579 4.621515,2.282892 9.243029,4.565779 13.864539,6.84867 0.63476,0.17353 1.82182,0.415213 2.27722,-0.02227 0.66664,-0.11564 1.14697,-0.57992 1.34398,-1.209692 0.45809,-0.654081 0.21253,-1.648657 0.0753,-2.587133 -0.67938,-4.721014 -1.35875,-9.442029 -2.03812,-14.163045 3.61194,-3.695608 7.19944,-7.416659 10.82663,-11.096402 0.55951,-0.46724 0.96497,-1.556293 0.69447,-2.38216 -0.14046,-0.657444 -0.56257,-1.216749 -1.05266,-1.620551 -0.62684,-0.289244 -1.48856,-0.425981 -2.44453,-0.563263 -4.58821,-0.760949 -9.17641,-1.521897 -13.76462,-2.282847 -2.48696,-4.775386 -5.062864,-9.584027 -7.495451,-14.338421 -0.621627,-0.408196 -1.088426,-1.081256 -2.083043,-0.96345 -0.331298,-0.01177 -0.662251,-0.0434 -0.993012,-0.05234 z"
       id="path3992"
       inkscape:connector-curvature="0" />
    <path
       sodipodi:type="inkscape:offset"
       inkscape:radius="0.28520861"
       inkscape:original="M 10.4375 5 L 8.90625 8.34375 L 5.3125 9.1875 L 8 11.6875 L 7.6875 15.34375 L 10.90625 13.5625 L 14.28125 15 L 13.5625 11.375 L 16 8.625 L 12.34375 8.1875 L 10.4375 5 z "
       style="opacity:0.15;fill:#000000;fill-opacity:1;stroke:none;display:inline"
       id="path3988"
       d="M 10.34375,4.71875 A 0.28523713,0.28523713 0 0 0 10.25,4.78125 0.28523713,0.28523713 0 0 0 10.1875,4.875 L 8.71875,8.09375 5.25,8.90625 A 0.28523713,0.28523713 0 0 0 5.03125,9.21875 0.28523713,0.28523713 0 0 0 5.09375,9.375 0.28523713,0.28523713 0 0 0 5.125,9.40625 l 2.59375,2.40625 -0.3125,3.5 A 0.28523713,0.28523713 0 0 0 7.4375,15.46875 0.28523713,0.28523713 0 0 0 7.5,15.5625 0.28523713,0.28523713 0 0 0 7.65625,15.625 0.28523713,0.28523713 0 0 0 7.8125,15.59375 l 3.125,-1.71875 3.21875,1.375 a 0.28523713,0.28523713 0 0 0 0.25,0 0.28523713,0.28523713 0 0 0 0.09375,-0.0625 0.28523713,0.28523713 0 0 0 0.0625,-0.125 0.28523713,0.28523713 0 0 0 0,-0.125 L 13.875,11.46875 16.21875,8.8125 a 0.28523713,0.28523713 0 0 0 0.0625,-0.25 0.28523713,0.28523713 0 0 0 -0.0625,-0.125 A 0.28523713,0.28523713 0 0 0 16.125,8.375 0.28523713,0.28523713 0 0 0 16.03125,8.34375 l -3.5,-0.40625 -1.84375,-3.09375 a 0.28523713,0.28523713 0 0 0 -0.3125,-0.125 0.28523713,0.28523713 0 0 0 -0.03125,0 z"
       transform="matrix(4.5394823,0.23922238,-0.23913732,4.5403525,47.739352,11.262467)" />
    <path
       sodipodi:type="star"
       style="opacity:0.3;fill:#000000;fill-opacity:1;stroke:none;display:inline"
       id="path3982"
       sodipodi:sides="5"
       sodipodi:cx="10.744025"
       sodipodi:cy="10.631322"
       sodipodi:r1="5.6305428"
       sodipodi:r2="2.9278822"
       sodipodi:arg1="-2.8797933"
       sodipodi:arg2="-2.2514747"
       inkscape:flatsided="false"
       inkscape:rounded="0"
       inkscape:randomized="0"
       d="M 5.3053385,9.1740304 8.9014493,8.35593 10.449345,5.0084956 l 1.889319,3.1672977 3.661926,0.4377224 -2.428448,2.7755983 0.715299,3.617961 -3.390182,-1.451883 -3.219847,1.798301 0.3331997,-3.672912 z"
       transform="matrix(4.5394823,0.23922238,-0.23913732,4.5403525,47.739352,11.262467)" />
    <path
       transform="matrix(4.5394823,0.23922238,-0.23913732,4.5403525,47.739352,9.9101074)"
       d="M 5.3053385,9.1740304 8.9014493,8.35593 10.449345,5.0084956 l 1.889319,3.1672977 3.661926,0.4377224 -2.428448,2.7755983 0.715299,3.617961 -3.390182,-1.451883 -3.219847,1.798301 0.3331997,-3.672912 z"
       inkscape:randomized="0"
       inkscape:rounded="0"
       inkscape:flatsided="false"
       sodipodi:arg2="-2.2514747"
       sodipodi:arg1="-2.8797933"
       sodipodi:r2="2.9278822"
       sodipodi:r1="5.6305428"
       sodipodi:cy="10.631322"
       sodipodi:cx="10.744025"
       sodipodi:sides="5"
       id="path3748"
       style="fill:url(#linearGradient3127);fill-opacity:1;stroke:none;display:inline"
       sodipodi:type="star" />
    <path
       style="opacity:0.8;fill:url(#linearGradient4092);fill-opacity:1;stroke:none;display:inline"
       d="m 93.971461,35.147079 -7.818329,14.833693 -16.524143,2.831503 11.664101,12.044453 -2.366629,16.608665 15.045,-7.395716 15.044999,7.395716 -2.40889,-16.608665 11.70636,-12.002191 -16.52414,-2.873765 z m -0.04226,4.141601 5.155871,9.762345 c 0.583381,0.859033 0.764989,2.097725 1.69045,2.662458 4.47803,0.864881 8.98816,1.55968 13.48133,2.366629 l -7.64928,7.733807 c -0.67445,0.854975 -1.86513,1.398646 -2.0708,2.535674 0.61002,4.504243 1.33372,9.022887 1.98628,13.523595 l -9.889131,-4.817781 c -0.95198,-0.346201 -1.833914,-1.160595 -2.873765,-1.141053 -4.157011,1.906712 -8.249225,3.989067 -12.382542,5.958834 l 1.605927,-11.114705 c 0.02433,-0.998381 0.56896,-2.050343 0.126784,-3.000548 -3.079862,-3.262963 -6.230672,-6.439842 -9.339733,-9.677823 l 10.818876,-1.944016 c 0.985093,-0.293161 2.184801,-0.159678 3.000548,-0.845225 2.166112,-3.964487 4.218396,-8.009335 6.339185,-12.002191 z"
       id="path4018"
       inkscape:connector-curvature="0"
       sodipodi:nodetypes="ccccccccccccccccccccccccccc" />
    <path
       style="opacity:0.3;fill:#aa4400;fill-opacity:1;stroke:none;display:inline"
       d="m 93.971461,72.717317 -14.833694,7.311194 -0.211306,1.436882 15.045,-7.395716 15.044999,7.395716 -0.21131,-1.436882 z"
       id="path4094"
       inkscape:connector-curvature="0"
       sodipodi:nodetypes="ccccccc" />
  </g>
</svg>
