<?xml version="1.0" encoding="UTF-8" standalone="no"?>
<!-- Created with Inkscape (http://www.inkscape.org/) -->

<svg
   xmlns:dc="http://purl.org/dc/elements/1.1/"
   xmlns:cc="http://creativecommons.org/ns#"
   xmlns:rdf="http://www.w3.org/1999/02/22-rdf-syntax-ns#"
   xmlns:svg="http://www.w3.org/2000/svg"
   xmlns="http://www.w3.org/2000/svg"
   xmlns:xlink="http://www.w3.org/1999/xlink"
   xmlns:sodipodi="http://sodipodi.sourceforge.net/DTD/sodipodi-0.dtd"
   xmlns:inkscape="http://www.inkscape.org/namespaces/inkscape"
   width="128"
   height="128"
   id="svg2408"
   sodipodi:version="0.32"
   inkscape:version="0.48.5 r10040"
   version="1.0"
   sodipodi:docname="mail-mark-important.svg"
   inkscape:output_extension="org.inkscape.output.svg.inkscape">
  <defs
     id="defs2410">
    <linearGradient
       id="linearGradient3727">
      <stop
         id="stop3729"
         offset="0"
         style="stop-color:#d5d5d5;stop-opacity:1;" />
      <stop
         id="stop3731"
         offset="1"
         style="stop-color:#f1f1f1;stop-opacity:1;" />
    </linearGradient>
    <linearGradient
       inkscape:collect="always"
       id="linearGradient3641">
      <stop
         style="stop-color:#000000;stop-opacity:1;"
         offset="0"
         id="stop3643" />
      <stop
         style="stop-color:#000000;stop-opacity:0;"
         offset="1"
         id="stop3645" />
    </linearGradient>
    <linearGradient
       inkscape:collect="always"
       id="linearGradient3737">
      <stop
         style="stop-color:#ffffff;stop-opacity:1;"
         offset="0"
         id="stop3739" />
      <stop
         style="stop-color:#ffffff;stop-opacity:0;"
         offset="1"
         id="stop3741" />
    </linearGradient>
    <linearGradient
       id="linearGradient3700">
      <stop
         style="stop-color:#dcdcdc;stop-opacity:1;"
         offset="0"
         id="stop3702" />
      <stop
         style="stop-color:#f0f0f0;stop-opacity:1;"
         offset="1"
         id="stop3704" />
    </linearGradient>
    <filter
       inkscape:collect="always"
       id="filter3794"
       x="-0.192"
       width="1.3839999"
       y="-0.192"
       height="1.3839999"
       color-interpolation-filters="sRGB">
      <feGaussianBlur
         inkscape:collect="always"
         stdDeviation="5.28"
         id="feGaussianBlur3796" />
    </filter>
    <linearGradient
       inkscape:collect="always"
       xlink:href="#linearGradient3737"
       id="linearGradient3613"
       x1="48"
       y1="20.220806"
       x2="48"
       y2="138.66119"
       gradientUnits="userSpaceOnUse" />
    <radialGradient
       inkscape:collect="always"
       xlink:href="#linearGradient3737"
       id="radialGradient3619"
       cx="48"
       cy="90.171875"
       fx="48"
       fy="90.171875"
       r="42"
       gradientTransform="matrix(1.5847807,0,0,1.3637586,-11.067266,-34.831022)"
       gradientUnits="userSpaceOnUse" />
    <clipPath
       clipPathUnits="userSpaceOnUse"
       id="clipPath3613">
      <rect
         ry="6"
         rx="6"
         y="6"
         x="6"
         height="84"
         width="84"
         id="rect3615"
         style="fill:#ffffff;fill-opacity:1;fill-rule:nonzero;stroke:none" />
    </clipPath>
    <linearGradient
       inkscape:collect="always"
       xlink:href="#linearGradient3700"
       id="linearGradient3627"
       x1="48"
       y1="88"
       x2="48"
       y2="32"
       gradientUnits="userSpaceOnUse"
       gradientTransform="matrix(1.3693624,0,0,1.3693624,-0.72718215,-35.100967)" />
    <linearGradient
       inkscape:collect="always"
       xlink:href="#linearGradient3727"
       id="linearGradient3635"
       x1="48"
       y1="88"
       x2="48"
       y2="36"
       gradientUnits="userSpaceOnUse"
       gradientTransform="matrix(1.3693624,0,0,1.3693624,-0.72718215,-35.100967)" />
    <filter
       inkscape:collect="always"
       id="filter3649"
       color-interpolation-filters="sRGB">
      <feGaussianBlur
         inkscape:collect="always"
         stdDeviation="1.38"
         id="feGaussianBlur3651" />
    </filter>
    <filter
       inkscape:collect="always"
       id="filter3665"
       color-interpolation-filters="sRGB">
      <feGaussianBlur
         inkscape:collect="always"
         stdDeviation="0.69"
         id="feGaussianBlur3667" />
    </filter>
    <linearGradient
       inkscape:collect="always"
       xlink:href="#linearGradient3737"
       id="linearGradient3687"
       gradientUnits="userSpaceOnUse"
       x1="36.357143"
       y1="6"
       x2="36.357143"
       y2="63.893143"
       gradientTransform="matrix(1.3693624,0,0,1.3693624,-0.72718215,-35.100967)" />
    <linearGradient
       inkscape:collect="always"
       xlink:href="#linearGradient3700"
       id="linearGradient3689"
       gradientUnits="userSpaceOnUse"
       x1="48"
       y1="90"
       x2="48"
       y2="5.9877172"
       gradientTransform="matrix(1.3693624,0,0,1.3693624,-0.72718215,-35.100967)" />
    <clipPath
       clipPathUnits="userSpaceOnUse"
       id="clipPath3696">
      <rect
         ry="6"
         rx="6"
         y="6"
         x="106"
         height="84"
         width="84"
         id="rect3698"
         style="fill:#ff00ff;fill-opacity:1;fill-rule:nonzero;stroke:none" />
    </clipPath>
    <linearGradient
       inkscape:collect="always"
       xlink:href="#linearGradient3641"
       id="linearGradient3701"
       gradientUnits="userSpaceOnUse"
       gradientTransform="translate(100,0)"
       x1="48"
       y1="32"
       x2="48"
       y2="80" />
    <clipPath
       clipPathUnits="userSpaceOnUse"
       id="clipPath3703">
      <rect
         style="fill:#ff00ff;fill-opacity:1;fill-rule:nonzero;stroke:none"
         id="rect3705"
         width="84"
         height="84"
         x="106"
         y="6"
         rx="6"
         ry="6" />
    </clipPath>
    <linearGradient
       inkscape:collect="always"
       xlink:href="#linearGradient3641"
       id="linearGradient3707"
       gradientUnits="userSpaceOnUse"
       gradientTransform="translate(100,-1)"
       x1="51"
       y1="62"
       x2="51"
       y2="21" />
    <linearGradient
       inkscape:collect="always"
       id="linearGradient3737-3">
      <stop
         style="stop-color:#ffffff;stop-opacity:1;"
         offset="0"
         id="stop3739-5" />
      <stop
         style="stop-color:#ffffff;stop-opacity:0;"
         offset="1"
         id="stop3741-7" />
    </linearGradient>
    <radialGradient
       r="42"
       fy="90.171875"
       fx="48"
       cy="90.171875"
       cx="48"
       gradientTransform="matrix(1.5847807,0,0,1.3637586,-11.067266,-34.831022)"
       gradientUnits="userSpaceOnUse"
       id="radialGradient2858"
       xlink:href="#linearGradient3737-3"
       inkscape:collect="always" />
    <linearGradient
       id="ButtonShadow-0"
       gradientTransform="matrix(1.0058652,0,0,0.994169,100,0)"
       x1="45.447727"
       y1="92.539597"
       x2="45.447727"
       y2="7.0165396"
       gradientUnits="userSpaceOnUse">
      <stop
         style="stop-color:#000000;stop-opacity:1;"
         offset="0"
         id="stop3750-8" />
      <stop
         style="stop-color:#000000;stop-opacity:0.58823532;"
         offset="1"
         id="stop3752-5" />
    </linearGradient>
    <linearGradient
       inkscape:collect="always"
       xlink:href="#ButtonShadow-0"
       id="linearGradient3780"
       gradientUnits="userSpaceOnUse"
       gradientTransform="matrix(1.0238095,0,0,1.0119048,-1.1428571,-98.071429)"
       x1="32.251034"
       y1="6.1317081"
       x2="32.251034"
       y2="90.238609" />
    <linearGradient
       inkscape:collect="always"
       xlink:href="#ButtonShadow-0"
       id="linearGradient3772"
       gradientUnits="userSpaceOnUse"
       gradientTransform="matrix(1.0238095,0,0,1.0119048,-1.1428571,-98.071429)"
       x1="32.251034"
       y1="6.1317081"
       x2="32.251034"
       y2="90.238609" />
    <linearGradient
       inkscape:collect="always"
       xlink:href="#ButtonShadow-0"
       id="linearGradient3725"
       gradientUnits="userSpaceOnUse"
       gradientTransform="matrix(1.4019662,0,0,1.3856643,-2.2921677,-99.194357)"
       x1="32.251034"
       y1="6.1317081"
       x2="32.251034"
       y2="90.238609" />
    <linearGradient
       inkscape:collect="always"
       xlink:href="#ButtonShadow-0"
       id="linearGradient3721"
       gradientUnits="userSpaceOnUse"
       gradientTransform="matrix(1.3693624,0,0,1.3693624,-0.72718215,-97.727182)"
       x1="32.251034"
       y1="6.1317081"
       x2="32.251034"
       y2="90.238609" />
    <linearGradient
       y2="90.238609"
       x2="32.251034"
       y1="6.1317081"
       x1="32.251034"
       gradientTransform="matrix(1.0238095,0,0,1.0119048,-1.1428571,-98.071429)"
       gradientUnits="userSpaceOnUse"
       id="linearGradient2918"
       xlink:href="#ButtonShadow-0"
       inkscape:collect="always" />
    <linearGradient
       inkscape:collect="always"
       xlink:href="#linearGradient3779"
       id="linearGradient3755"
       x1="56.65815"
       y1="51.019985"
       x2="56.65815"
       y2="23.566277"
       gradientUnits="userSpaceOnUse" />
    <linearGradient
       id="linearGradient3779">
      <stop
         id="stop3781"
         offset="0"
         style="stop-color:#d00000;stop-opacity:1;" />
      <stop
         id="stop3783"
         offset="1"
         style="stop-color:#ff3c22;stop-opacity:1;" />
    </linearGradient>
  </defs>
  <sodipodi:namedview
     id="base"
     pagecolor="#ffffff"
     bordercolor="#666666"
     borderopacity="1.0"
     inkscape:pageopacity="0.0"
     inkscape:pageshadow="2"
     inkscape:zoom="4.2870262"
     inkscape:cx="24.795849"
     inkscape:cy="67.255538"
     inkscape:document-units="px"
     inkscape:current-layer="layer3"
     showgrid="true"
     showborder="true"
     inkscape:showpageshadow="false"
     inkscape:window-width="1680"
     inkscape:window-height="987"
     inkscape:window-x="0"
     inkscape:window-y="0"
     inkscape:window-maximized="1"
     showguides="true"
     inkscape:guide-bbox="true"
     borderlayer="false">
    <inkscape:grid
       type="xygrid"
       id="grid3732"
       visible="true"
       enabled="true"
       empspacing="4"
       snapvisiblegridlinesonly="true"
       spacingx="4px"
       spacingy="4px" />
  </sodipodi:namedview>
  <metadata
     id="metadata2413">
    <rdf:RDF>
      <cc:Work
         rdf:about="">
        <dc:format>image/svg+xml</dc:format>
        <dc:type
           rdf:resource="http://purl.org/dc/dcmitype/StillImage" />
        <dc:title />
      </cc:Work>
    </rdf:RDF>
  </metadata>
  <g
     inkscape:groupmode="layer"
     id="layer3"
     inkscape:label="Shadow"
     style="display:inline"
     transform="translate(0,32)">
    <path
       sodipodi:type="inkscape:offset"
       inkscape:radius="0.99097413"
       inkscape:original="M 12 -94.03125 C 7.028367 -94.03125 2.96875 -89.971633 2.96875 -85 L 2.96875 -14 C 2.96875 -9.0283671 7.0283671 -4.96875 12 -4.96875 L 84 -4.96875 C 88.971633 -4.96875 93.03125 -9.028367 93.03125 -14 L 93.03125 -85 C 93.03125 -89.971633 88.971633 -94.03125 84 -94.03125 L 12 -94.03125 z "
       style="opacity:0.07999998;fill:url(#linearGradient2918);fill-opacity:1;fill-rule:nonzero;stroke:none;display:inline"
       id="path3786"
       d="m 12,-95.03125 c -5.5110903,0 -10.03125,4.52016 -10.03125,10.03125 l 0,71 c 0,5.5110902 4.5201598,10.03125 10.03125,10.03125 l 72,0 c 5.51109,0 10.03125,-4.5201597 10.03125,-10.03125 l 0,-71 c 0,-5.51109 -4.52016,-10.03125 -10.03125,-10.03125 l -72,0 z"
       transform="matrix(1.3693624,0,0,-1.3693624,-0.72718215,-35.100967)" />
    <path
       sodipodi:type="inkscape:offset"
       inkscape:radius="1.0360184"
       inkscape:original="M 12 -93 C 7.5908667 -93 4 -89.409133 4 -85 L 4 -14 C 4 -9.5908667 7.5908667 -6 12 -6 L 84 -6 C 88.409133 -6 92 -9.5908667 92 -14 L 92 -85 C 92 -89.409133 88.409133 -93 84 -93 L 12 -93 z "
       style="opacity:0.1;fill:url(#linearGradient3780);fill-opacity:1;fill-rule:nonzero;stroke:none;display:inline"
       id="path3778"
       d="m 12,-94.03125 c -4.971633,0 -9.03125,4.059617 -9.03125,9.03125 l 0,71 c 0,4.9716329 4.0596171,9.03125 9.03125,9.03125 l 72,0 c 4.971633,0 9.03125,-4.059617 9.03125,-9.03125 l 0,-71 c 0,-4.971633 -4.059617,-9.03125 -9.03125,-9.03125 l -72,0 z"
       transform="matrix(1.3693624,0,0,-1.3693624,-0.72718215,-35.100967)" />
    <path
       sodipodi:type="inkscape:offset"
       inkscape:radius="0.98962283"
       inkscape:original="M 12 -92 C 8.122 -92 5 -88.878 5 -85 L 5 -14 C 5 -10.122 8.122 -7 12 -7 L 84 -7 C 87.878 -7 91 -10.122 91 -14 L 91 -85 C 91 -88.878 87.878 -92 84 -92 L 12 -92 z "
       style="opacity:0.2;fill:url(#linearGradient3772);fill-opacity:1;fill-rule:nonzero;stroke:none;display:inline"
       id="path3770"
       d="m 12,-93 c -4.4091333,0 -8,3.590867 -8,8 l 0,71 c 0,4.4091333 3.5908667,8 8,8 l 72,0 c 4.409133,0 8,-3.5908667 8,-8 l 0,-71 c 0,-4.409133 -3.590867,-8 -8,-8 l -72,0 z"
       transform="matrix(1.3693624,0,0,-1.3693624,-0.72718215,-35.100967)" />
    <rect
       style="opacity:0.3;fill:url(#linearGradient3725);fill-opacity:1;fill-rule:nonzero;stroke:none;display:inline"
       id="rect3723"
       width="117.76516"
       height="116.3958"
       x="6.1196299"
       y="-90.880371"
       rx="9.585537"
       ry="9.585537"
       transform="scale(1,-1)" />
    <rect
       transform="scale(1,-1)"
       ry="8.2161741"
       rx="8.2161741"
       y="-89.511009"
       x="7.4889922"
       height="115.02644"
       width="115.02644"
       id="rect3716"
       style="opacity:0.45;fill:url(#linearGradient3721);fill-opacity:1;fill-rule:nonzero;stroke:none;display:inline" />
  </g>
  <g
     inkscape:label="Button"
     inkscape:groupmode="layer"
     id="layer1"
     transform="translate(0,32)">
    <rect
       style="fill:url(#linearGradient3689);fill-opacity:1;fill-rule:nonzero;stroke:none"
       id="rect2419"
       width="115.02644"
       height="115.02644"
       x="7.4889922"
       y="-26.884792"
       rx="8.2161741"
       ry="8.2161741" />
    <path
       sodipodi:nodetypes="cccccccc"
       style="opacity:0.3;fill:url(#linearGradient3701);fill-opacity:1;stroke:none;filter:url(#filter3665)"
       d="m 112,89 c -3.324,0 -6,-2.676 -6,-6 l 0,-6 42,-42 42,42 0,6 c 0,3.324 -2.676,6 -6,6 l -72,0 z"
       id="path3653"
       clip-path="url(#clipPath3696)"
       transform="matrix(1.3693624,0,0,1.3693624,-137.66342,-36.47033)"
       inkscape:connector-curvature="0" />
    <path
       id="path3619"
       d="m 15.705166,88.141646 c -4.55176,0 -8.216174,-3.664414 -8.216174,-8.216175 l 0,-8.216174 57.513219,-57.513219 57.513219,57.513219 0,8.216174 c 0,4.551761 -3.66441,8.216175 -8.21617,8.216175 l -98.594094,0 z"
       style="fill:url(#linearGradient3635);fill-opacity:1;stroke:none"
       sodipodi:nodetypes="cccccccc"
       inkscape:connector-curvature="0" />
    <path
       style="opacity:0.4;fill:#ffffff;fill-opacity:1;stroke:none"
       d="m 65.002211,14.196078 -57.513219,57.513219 0,1.369363 57.513219,-57.51322 57.513219,57.51322 0,-1.369363 -57.513219,-57.513219 z"
       id="path3718"
       inkscape:connector-curvature="0" />
    <path
       sodipodi:nodetypes="cccccccc"
       id="path3637"
       d="m 112,7 c -3.324,0 -6,2.676 -6,6 l 0,6 42,42 42,-42 0,-6 c 0,-3.324 -2.676,-6 -6,-6 l -72,0 z"
       style="opacity:0.4;fill:url(#linearGradient3707);fill-opacity:1;stroke:none;filter:url(#filter3649)"
       clip-path="url(#clipPath3703)"
       transform="matrix(1.3693624,0,0,1.3693624,-137.66342,-33.731605)"
       inkscape:connector-curvature="0" />
    <path
       style="fill:url(#linearGradient3627);fill-opacity:1;stroke:none"
       d="m 15.705166,-26.884793 c -4.55176,0 -8.216174,3.664414 -8.216174,8.216174 l 0,8.216174 57.513219,57.51322 57.513219,-57.51322 0,-8.216174 c 0,-4.55176 -3.66441,-8.216174 -8.21617,-8.216174 l -98.594094,0 z"
       id="path3613"
       sodipodi:nodetypes="cccccccc"
       inkscape:connector-curvature="0" />
    <path
       style="opacity:0.6;fill:#ffffff;fill-opacity:1;stroke:none"
       d="m 7.488992,-11.821807 0,1.369362 57.513219,57.51322 57.513219,-57.51322 0,-1.369362 L 65.002211,45.691412 7.488992,-11.821807 z"
       id="path3709"
       inkscape:connector-curvature="0" />
  </g>
  <g
     inkscape:groupmode="layer"
     id="layer5"
     inkscape:label="Highlight"
     transform="translate(0,32)">
    <rect
       style="opacity:0.1;fill:url(#linearGradient3613);fill-opacity:1;fill-rule:nonzero;stroke:#ffffff;stroke-width:0.5;stroke-linecap:round;stroke-linejoin:miter;stroke-miterlimit:4;stroke-opacity:1;stroke-dasharray:none;stroke-dashoffset:0;filter:url(#filter3794)"
       id="rect3171"
       width="66"
       height="66"
       x="15"
       y="15"
       rx="12"
       ry="12"
       clip-path="url(#clipPath3613)"
       transform="matrix(1.3693624,0,0,1.3693624,-0.72718215,-35.100967)" />
    <path
       id="path3615"
       d="m 15.705166,88.141646 c -4.55176,0 -8.216174,-3.664414 -8.216174,-8.216175 l 0,-2.738724 0,-93.116641 0,-2.738725 c 0,-0.458354 0.056623,-0.891044 0.1283778,-1.32657 0.066688,-0.404778 0.1328829,-0.817393 0.2567554,-1.198192 0.013529,-0.0416 0.028609,-0.08709 0.042793,-0.128377 0.135382,-0.394063 0.3216361,-0.749661 0.5135109,-1.112607 0.1979985,-0.37453 0.4321928,-0.733451 0.6846811,-1.069815 0.2524884,-0.336363 0.5118355,-0.648354 0.8130589,-0.941436 0.6024473,-0.586164 1.2911853,-1.115382 2.0540433,-1.49774 0.381429,-0.19118 0.785293,-0.33816 1.198192,-0.470719 -0.350833,0.137241 -0.666483,0.323542 -0.984229,0.513511 -0.01015,0.006 -0.03268,-0.0062 -0.04279,0 -0.04373,0.02643 -0.0853,0.05821 -0.128378,0.08558 -0.164865,0.10503 -0.316354,0.223909 -0.470718,0.342341 -0.145389,0.110644 -0.292059,0.220621 -0.427926,0.342341 -0.243651,0.22106 -0.475798,0.472961 -0.684681,0.727473 -0.147315,0.178367 -0.299061,0.363272 -0.427926,0.556304 -0.034356,0.05256 -0.052647,0.117587 -0.085585,0.17117 -0.088684,0.141088 -0.1783286,0.280058 -0.2567554,0.427926 -0.138317,0.266623 -0.2816433,0.569245 -0.3851332,0.855851 -0.0109,0.02987 -0.032302,0.05553 -0.042793,0.08559 -0.04358,0.125913 -0.049029,0.25584 -0.085585,0.385134 -0.041536,0.145998 -0.096389,0.278023 -0.1283777,0.427925 -0.099797,0.467654 -0.1711703,0.956096 -0.1711703,1.454948 l 0,2.738725 0,93.11664 0,2.738725 c 0,3.809358 3.0374536,6.846812 6.8468116,6.846812 l 2.738725,0 93.116639,0 2.73873,0 c 3.80935,0 6.84681,-3.037454 6.84681,-6.846812 l 0,-2.738725 0,-93.11664 0,-2.738725 c 0,-0.498852 -0.0714,-0.987294 -0.17117,-1.454948 -0.0605,-0.283311 -0.12103,-0.544538 -0.21396,-0.813059 -0.0106,-0.03006 -0.0319,-0.05572 -0.0428,-0.08559 -0.0859,-0.237911 -0.18949,-0.503171 -0.29955,-0.727473 -0.0569,-0.113384 -0.10823,-0.232729 -0.17117,-0.342341 -0.0748,-0.133116 -0.1736,-0.257919 -0.25675,-0.385133 -0.12887,-0.193032 -0.28061,-0.377937 -0.42793,-0.556304 -0.19605,-0.238885 -0.41511,-0.475166 -0.64189,-0.684681 -0.0153,-0.01397 -0.0274,-0.02896 -0.0428,-0.04279 -0.1895,-0.171932 -0.39039,-0.321028 -0.59909,-0.470719 -0.14046,-0.100169 -0.27979,-0.210011 -0.42793,-0.299548 -0.0101,-0.0062 -0.0327,0.006 -0.0428,0 -0.31775,-0.189969 -0.6334,-0.37627 -0.98423,-0.513511 0.4129,0.132555 0.81676,0.279539 1.19819,0.470719 0.76286,0.382358 1.4516,0.911576 2.05404,1.49774 0.30123,0.293082 0.56057,0.605073 0.81306,0.941436 0.25249,0.336364 0.48669,0.695285 0.68468,1.069815 0.19188,0.362946 0.37813,0.718544 0.51351,1.112607 0.0143,0.04215 0.0292,0.08591 0.0428,0.128377 0.12387,0.380799 0.19006,0.793414 0.25675,1.198192 0.0718,0.435526 0.12838,0.868216 0.12838,1.32657 l 0,2.738725 0,93.116641 0,2.738724 c 0,4.551761 -3.66441,8.216175 -8.21617,8.216175 l -98.594094,0 z"
       style="opacity:0;fill:url(#radialGradient3619);fill-opacity:1;fill-rule:nonzero;stroke:none"
       inkscape:connector-curvature="0" />
    <path
       style="opacity:0.6;fill:url(#linearGradient3687);fill-opacity:1;fill-rule:nonzero;stroke:none"
       d="m 15.705166,-26.884793 c -4.55176,0 -8.216174,3.664414 -8.216174,8.216174 l 0,2.738725 0,93.116641 0,2.738724 c 0,0.458355 0.056623,0.891045 0.1283778,1.32657 0.066688,0.404778 0.1328829,0.817393 0.2567554,1.198192 0.013557,0.0416 0.028606,0.08709 0.042793,0.128378 0.1353751,0.394063 0.3216358,0.74966 0.5135109,1.112607 0.1979988,0.37453 0.4321926,0.733451 0.6846811,1.069814 0.2524885,0.336364 0.5118348,0.648355 0.8130589,0.941437 0.6024473,0.586164 1.2911853,1.115381 2.0540433,1.49774 0.381429,0.191179 0.785293,0.33816 1.198192,0.470718 -0.350833,-0.13724 -0.666483,-0.323542 -0.984229,-0.513511 -0.01013,-0.006 -0.03269,0.0062 -0.04279,0 -0.04372,-0.02643 -0.0853,-0.05821 -0.128378,-0.08558 -0.164865,-0.10503 -0.316354,-0.223908 -0.470718,-0.34234 C 11.408897,86.618846 11.262228,86.50887 11.126361,86.38715 10.88271,86.16609 10.650562,85.914189 10.44168,85.659676 10.294365,85.48131 10.142619,85.296405 10.013754,85.103373 9.9793966,85.050817 9.9611019,84.985786 9.9281687,84.932203 9.8394888,84.791114 9.7498394,84.652145 9.6714133,84.504277 9.5330967,84.237654 9.3897697,83.935032 9.2862801,83.648425 9.2753252,83.61856 9.2539769,83.592898 9.2434876,83.56284 9.1999008,83.436927 9.1944644,83.307001 9.1579024,83.177707 9.1163669,83.031708 9.0615144,82.899684 9.0295247,82.749781 8.9297269,82.282128 8.8583544,81.793686 8.8583544,81.294834 l 0,-2.738725 0,-93.116641 0,-2.738724 c 0,-3.809358 3.0374536,-6.846812 6.8468116,-6.846812 l 2.738725,0 93.116639,0 2.73873,0 c 3.80935,0 6.84681,3.037454 6.84681,6.846812 l 0,2.738724 0,93.116641 0,2.738725 c 0,0.498852 -0.0714,0.987294 -0.17117,1.454947 -0.0605,0.283312 -0.12103,0.544538 -0.21396,0.813059 -0.0106,0.03006 -0.0319,0.05572 -0.0428,0.08559 -0.0859,0.237912 -0.18949,0.503171 -0.29955,0.727474 -0.0569,0.113383 -0.10823,0.232729 -0.17117,0.342341 -0.0748,0.133115 -0.1736,0.257919 -0.25675,0.385133 -0.12887,0.193032 -0.28061,0.377937 -0.42793,0.556303 -0.19605,0.238886 -0.41511,0.475166 -0.64189,0.684682 -0.0153,0.01397 -0.0274,0.02896 -0.0428,0.04279 -0.1895,0.171932 -0.39039,0.321028 -0.59909,0.470718 -0.14046,0.100169 -0.27979,0.210011 -0.42793,0.299548 -0.0101,0.0062 -0.0327,-0.006 -0.0428,0 -0.31775,0.189969 -0.6334,0.376271 -0.98423,0.513511 0.4129,-0.132554 0.81676,-0.279539 1.19819,-0.470718 0.76286,-0.382359 1.4516,-0.911576 2.05404,-1.49774 0.30123,-0.293082 0.56057,-0.605073 0.81306,-0.941437 0.25249,-0.336363 0.48669,-0.695284 0.68468,-1.069814 0.19188,-0.362947 0.37813,-0.718544 0.51351,-1.112607 0.0143,-0.04215 0.0292,-0.08591 0.0428,-0.128378 0.12387,-0.380799 0.19006,-0.793414 0.25675,-1.198192 0.0718,-0.435525 0.12838,-0.868215 0.12838,-1.32657 l 0,-2.738724 0,-93.116641 0,-2.738725 c 0,-4.55176 -3.66441,-8.216174 -8.21617,-8.216174 l -98.594094,0 z"
       id="rect3728"
       inkscape:connector-curvature="0" />
    <path
       id="path3615-5"
       d="m 15.705166,88.141646 c -4.55176,0 -8.216174,-3.664414 -8.216174,-8.216175 l 0,-2.738724 0,-93.116641 0,-2.738725 c 0,-0.458354 0.056623,-0.891044 0.1283778,-1.32657 0.066688,-0.404778 0.1328829,-0.817393 0.2567554,-1.198192 0.013529,-0.0416 0.028609,-0.08709 0.042793,-0.128377 0.135382,-0.394063 0.3216361,-0.749661 0.5135109,-1.112607 0.1979985,-0.37453 0.4321928,-0.733451 0.6846811,-1.069815 0.2524884,-0.336363 0.5118355,-0.648354 0.8130589,-0.941436 0.6024473,-0.586164 1.2911853,-1.115382 2.0540433,-1.49774 0.381429,-0.19118 0.785293,-0.33816 1.198192,-0.470719 -0.350833,0.137241 -0.666483,0.323542 -0.984229,0.513511 -0.01015,0.006 -0.03268,-0.0062 -0.04279,0 -0.04373,0.02643 -0.0853,0.05821 -0.128378,0.08558 -0.164865,0.10503 -0.316354,0.223909 -0.470718,0.342341 -0.145389,0.110644 -0.292059,0.220621 -0.427926,0.342341 -0.243651,0.22106 -0.475798,0.472961 -0.684681,0.727473 -0.147315,0.178367 -0.299061,0.363272 -0.427926,0.556304 -0.034356,0.05256 -0.052647,0.117587 -0.085585,0.17117 -0.088684,0.141088 -0.1783286,0.280058 -0.2567554,0.427926 -0.138317,0.266623 -0.2816433,0.569245 -0.3851332,0.855851 -0.0109,0.02987 -0.032302,0.05553 -0.042793,0.08559 -0.04358,0.125913 -0.049029,0.25584 -0.085585,0.385134 -0.041536,0.145998 -0.096389,0.278023 -0.1283777,0.427925 -0.099797,0.467654 -0.1711703,0.956096 -0.1711703,1.454948 l 0,2.738725 0,93.11664 0,2.738725 c 0,3.809358 3.0374536,6.846812 6.8468116,6.846812 l 2.738725,0 93.116639,0 2.73873,0 c 3.80935,0 6.84681,-3.037454 6.84681,-6.846812 l 0,-2.738725 0,-93.11664 0,-2.738725 c 0,-0.498852 -0.0714,-0.987294 -0.17117,-1.454948 -0.0605,-0.283311 -0.12103,-0.544538 -0.21396,-0.813059 -0.0106,-0.03006 -0.0319,-0.05572 -0.0428,-0.08559 -0.0859,-0.237911 -0.18949,-0.503171 -0.29955,-0.727473 -0.0569,-0.113384 -0.10823,-0.232729 -0.17117,-0.342341 -0.0748,-0.133116 -0.1736,-0.257919 -0.25675,-0.385133 -0.12887,-0.193032 -0.28061,-0.377937 -0.42793,-0.556304 -0.19605,-0.238885 -0.41511,-0.475166 -0.64189,-0.684681 -0.0153,-0.01397 -0.0274,-0.02896 -0.0428,-0.04279 -0.1895,-0.171932 -0.39039,-0.321028 -0.59909,-0.470719 -0.14046,-0.100169 -0.27979,-0.210011 -0.42793,-0.299548 -0.0101,-0.0062 -0.0327,0.006 -0.0428,0 -0.31775,-0.189969 -0.6334,-0.37627 -0.98423,-0.513511 0.4129,0.132555 0.81676,0.279539 1.19819,0.470719 0.76286,0.382358 1.4516,0.911576 2.05404,1.49774 0.30123,0.293082 0.56057,0.605073 0.81306,0.941436 0.25249,0.336364 0.48669,0.695285 0.68468,1.069815 0.19188,0.362946 0.37813,0.718544 0.51351,1.112607 0.0143,0.04215 0.0292,0.08591 0.0428,0.128377 0.12387,0.380799 0.19006,0.793414 0.25675,1.198192 0.0718,0.435526 0.12838,0.868216 0.12838,1.32657 l 0,2.738725 0,93.116641 0,2.738724 c 0,4.551761 -3.66441,8.216175 -8.21617,8.216175 l -98.594094,0 z"
       style="opacity:0.3;fill:url(#radialGradient2858);fill-opacity:1;fill-rule:nonzero;stroke:none"
       inkscape:connector-curvature="0" />
  </g>
  <g
     inkscape:groupmode="layer"
     id="layer4"
     inkscape:label="Symbol"
     transform="translate(0,32)">
    <path
       sodipodi:type="inkscape:offset"
       inkscape:radius="1.0193838"
       inkscape:original="M 61.5 47.0625 C 60.336182 47.185478 59.32532 47.68606 58.625 48.21875 C 57.115056 49.524552 56.410901 51.446017 55.34375 53.09375 C 51.088707 60.427389 46.865681 67.801493 42.59375 75.125 C 41.849781 76.835958 41.843518 78.736373 42.84375 80.34375 C 43.896112 82.20593 46.118187 83.127072 48.21875 82.9375 C 57.774075 82.91435 67.319672 82.89665 76.875 82.875 C 79.055383 82.722692 81.04331 81.216102 81.6875 79.125 C 82.245222 77.409626 81.847771 75.515252 80.8125 74 C 76.049447 65.80794 71.252705 57.635428 66.5 49.4375 C 65.36418 47.856008 63.469881 46.884918 61.5 47.0625 z "
       style="opacity:0.05;color:#000000;fill:#000000;fill-opacity:1;fill-rule:nonzero;stroke:none;stroke-width:1.5;marker:none;visibility:visible;display:inline;overflow:visible;enable-background:accumulate"
       id="path3777"
       d="M 61.40625,46.0625 C 60.016298,46.209373 58.831602,46.773702 58,47.40625 A 1.0194857,1.0194857 0 0 0 57.96875,47.4375 C 56.203171,48.964376 55.481814,51.015281 54.5,52.53125 a 1.0194857,1.0194857 0 0 0 -0.03125,0.0625 c -4.256974,7.336967 -8.480805,14.712433 -12.75,22.03125 a 1.0194857,1.0194857 0 0 0 -0.0625,0.09375 c -0.849203,1.952973 -0.862275,4.215519 0.3125,6.125 0.0075,0.01322 0.02369,0.01812 0.03125,0.03125 1.275389,2.216227 3.801425,3.248721 6.21875,3.0625 l 0,0.03125 c 9.554939,-0.02315 19.100643,-0.04085 28.65625,-0.0625 a 1.0194857,1.0194857 0 0 0 0.0625,0 c 2.603579,-0.18187 4.941399,-1.945396 5.71875,-4.46875 0.662483,-2.037586 0.192166,-4.204974 -0.96875,-5.9375 -0.01169,-0.0201 -0.01956,-0.0424 -0.03125,-0.0625 C 76.903324,65.263235 72.114222,57.112172 67.375,48.9375 A 1.0194857,1.0194857 0 0 0 67.3125,48.84375 C 65.978754,46.98667 63.765307,45.849834 61.40625,46.0625 z"
       transform="matrix(1.3693624,0,0,1.3693624,7.488992,-26.884793)" />
    <path
       style="opacity:0.1;color:#000000;fill:#000000;fill-opacity:1;fill-rule:nonzero;stroke:none;stroke-width:1.5;marker:none;visibility:visible;display:inline;overflow:visible;enable-background:accumulate"
       d="m 91.720526,37.549694 c -1.593688,0.168402 -3.005041,0.852985 -3.964032,1.58243 -2.067661,1.788116 -3.023198,4.449104 -4.484514,6.705447 -5.826696,10.042409 -11.616503,20.106952 -17.466324,30.135487 -1.018763,2.342921 -1.022827,4.969302 0.346853,7.170383 1.441064,2.55 4.496406,3.817497 7.372838,3.557904 13.084704,-0.0317 26.169402,-0.06669 39.254113,-0.09634 2.98573,-0.208565 5.70807,-2.27942 6.5902,-5.142896 0.76373,-2.348969 0.18199,-4.924827 -1.23568,-6.999756 -6.52234,-11.217899 -13.06732,-22.422965 -19.575495,-33.648899 -1.555349,-2.165636 -4.140478,-3.506935 -6.837959,-3.26376 z"
       id="path3767"
       inkscape:connector-curvature="0" />
    <path
       sodipodi:type="inkscape:offset"
       inkscape:radius="0.86809516"
       inkscape:original="M 55.4375 23.53125 A 2.9965231 2.9965231 0 0 0 53 25.03125 L 40.46875 46.71875 A 2.9965231 2.9965231 0 0 0 43.0625 51.21875 L 68.15625 51.15625 A 2.9965231 2.9965231 0 0 0 70.75 46.65625 L 58.1875 25.03125 A 2.9965231 2.9965231 0 0 0 55.4375 23.53125 z "
       style="opacity:0.15;color:#000000;fill:#000000;fill-opacity:1;fill-rule:nonzero;stroke:none;stroke-width:1.5;marker:none;visibility:visible;display:inline;overflow:visible;enable-background:accumulate"
       id="path3763"
       d="m 55.40625,22.65625 c -0.04409,0.0024 -0.206143,0.02614 -0.25,0.03125 -0.04386,0.0051 -0.206545,0.02342 -0.25,0.03125 -0.04346,0.0078 -0.175866,0.05198 -0.21875,0.0625 -0.04288,0.01052 -0.207853,0.04934 -0.25,0.0625 -0.04215,0.01316 -0.177504,0.04674 -0.21875,0.0625 C 54.177504,22.922009 54.040186,22.981706 54,23 c -0.04019,0.01829 -0.179779,0.104242 -0.21875,0.125 -0.03897,0.02076 -0.181146,0.07061 -0.21875,0.09375 -0.0376,0.02314 -0.151408,0.130815 -0.1875,0.15625 -0.03609,0.02544 -0.15306,0.09737 -0.1875,0.125 -0.03444,0.02763 -0.154845,0.126531 -0.1875,0.15625 -0.03265,0.02972 -0.156756,0.155807 -0.1875,0.1875 -0.03074,0.03169 -0.127537,0.122707 -0.15625,0.15625 -0.02871,0.03354 -0.129679,0.152236 -0.15625,0.1875 -0.02657,0.03526 -0.100673,0.181901 -0.125,0.21875 -0.02433,0.03685 -0.103012,0.14921 -0.125,0.1875 l -12.53125,21.6875 c -0.02333,0.04022 -0.104357,0.177092 -0.125,0.21875 -0.02064,0.04166 -0.07588,0.20708 -0.09375,0.25 -0.01787,0.04292 -0.07873,0.174752 -0.09375,0.21875 -0.01502,0.044 -0.05039,0.205112 -0.0625,0.25 -0.01211,0.04489 -0.05336,0.204416 -0.0625,0.25 -0.0091,0.04558 -0.05636,0.203915 -0.0625,0.25 -0.0061,0.04608 0.0031,0.203612 0,0.25 -0.0031,0.04639 -0.03119,0.203508 -0.03125,0.25 -6.4e-5,0.04649 0.02827,0.203603 0.03125,0.25 0.003,0.0464 -0.006,0.203898 0,0.25 0.006,0.0461 0.05348,0.204391 0.0625,0.25 0.009,0.04561 0.01926,0.205079 0.03125,0.25 0.01199,0.04492 0.07885,0.205961 0.09375,0.25 0.0149,0.04404 0.076,0.175781 0.09375,0.21875 0.01775,0.04297 0.07322,0.208286 0.09375,0.25 0.02053,0.04171 0.101783,0.17847 0.125,0.21875 0.02322,0.04028 0.0992,0.180077 0.125,0.21875 0.0258,0.03867 0.127968,0.150599 0.15625,0.1875 0.02828,0.0369 0.125612,0.183781 0.15625,0.21875 0.03064,0.03497 0.123388,0.154612 0.15625,0.1875 0.03286,0.03289 0.152555,0.125584 0.1875,0.15625 0.03495,0.03067 0.181872,0.127939 0.21875,0.15625 0.03688,0.02831 0.148847,0.130414 0.1875,0.15625 0.03865,0.02584 0.178488,0.101751 0.21875,0.125 0.04026,0.02325 0.177052,0.104437 0.21875,0.125 0.0417,0.02056 0.207045,0.07596 0.25,0.09375 0.04295,0.01779 0.174723,0.07881 0.21875,0.09375 0.04403,0.01494 0.205089,0.08173 0.25,0.09375 0.04491,0.01202 0.204398,0.0222 0.25,0.03125 0.0456,0.0091 0.203903,0.05645 0.25,0.0625 0.0461,0.0061 0.203606,0.02823 0.25,0.03125 0.04639,0.003 0.203508,2.6e-5 0.25,0 l 25.09375,-0.0625 c 0.04649,2.6e-5 0.203606,0.003 0.25,0 0.04639,-0.003 0.203903,-0.0252 0.25,-0.03125 0.0461,-0.0061 0.204398,-0.05345 0.25,-0.0625 0.0456,-0.0091 0.205089,-0.01923 0.25,-0.03125 0.04491,-0.01202 0.205973,-0.07881 0.25,-0.09375 0.04403,-0.01494 0.175795,-0.07596 0.21875,-0.09375 0.04296,-0.01779 0.208302,-0.07319 0.25,-0.09375 0.0417,-0.02056 0.178488,-0.101751 0.21875,-0.125 0.04026,-0.02325 0.180097,-0.09916 0.21875,-0.125 0.03865,-0.02584 0.150622,-0.127939 0.1875,-0.15625 0.03688,-0.02831 0.183805,-0.125584 0.21875,-0.15625 0.03494,-0.03067 0.154638,-0.123362 0.1875,-0.15625 0.03286,-0.03289 0.125612,-0.152531 0.15625,-0.1875 0.03064,-0.03497 0.127968,-0.181849 0.15625,-0.21875 0.02828,-0.0369 0.130445,-0.148827 0.15625,-0.1875 0.02581,-0.03867 0.101783,-0.17847 0.125,-0.21875 0.02322,-0.04028 0.10447,-0.177036 0.125,-0.21875 0.02053,-0.04171 0.076,-0.207031 0.09375,-0.25 0.01775,-0.04297 0.07885,-0.174711 0.09375,-0.21875 0.0149,-0.04404 0.08176,-0.205079 0.09375,-0.25 0.01199,-0.04492 0.02223,-0.204391 0.03125,-0.25 0.009,-0.04561 0.05649,-0.203898 0.0625,-0.25 0.006,-0.0461 -0.003,-0.203603 0,-0.25 0.003,-0.0464 0.03131,-0.203508 0.03125,-0.25 -6.4e-5,-0.04649 -0.02814,-0.203612 -0.03125,-0.25 -0.0031,-0.04639 0.0061,-0.203915 0,-0.25 -0.0061,-0.04608 -0.05336,-0.204416 -0.0625,-0.25 -0.0091,-0.04558 -0.05039,-0.205112 -0.0625,-0.25 -0.01211,-0.04489 -0.04748,-0.206002 -0.0625,-0.25 -0.01502,-0.044 -0.07588,-0.17583 -0.09375,-0.21875 -0.01787,-0.04292 -0.07311,-0.208342 -0.09375,-0.25 -0.02064,-0.04166 -0.101673,-0.178533 -0.125,-0.21875 l -12.5625,-21.625 c -0.0243,-0.04229 -0.09786,-0.178225 -0.125,-0.21875 -0.02714,-0.04052 -0.126385,-0.180186 -0.15625,-0.21875 -0.02987,-0.03856 -0.155056,-0.151078 -0.1875,-0.1875 -0.03244,-0.03642 -0.152631,-0.184643 -0.1875,-0.21875 -0.03487,-0.03411 -0.15037,-0.124619 -0.1875,-0.15625 -0.03713,-0.03163 -0.179535,-0.158494 -0.21875,-0.1875 -0.03921,-0.02901 -0.177635,-0.09876 -0.21875,-0.125 -0.04111,-0.02624 -0.175929,-0.132893 -0.21875,-0.15625 -0.04282,-0.02336 -0.205676,-0.10464 -0.25,-0.125 -0.04432,-0.02036 -0.173132,-0.07648 -0.21875,-0.09375 -0.04562,-0.01727 -0.203304,-0.07966 -0.25,-0.09375 -0.0467,-0.01409 -0.233696,-0.05165 -0.28125,-0.0625 -0.04755,-0.01085 -0.201813,-0.02369 -0.25,-0.03125 -0.04819,-0.0076 -0.201407,-0.02702 -0.25,-0.03125 -0.04859,-0.0042 -0.232481,-0.03037 -0.28125,-0.03125 -0.04877,-8.83e-4 -0.201286,-0.0025 -0.25,0 z"
       transform="matrix(1.5856134,0,0,1.5824294,4.2144846,2.983502)" />
    <path
       transform="matrix(1.5856134,0,0,1.5824294,4.2144846,2.983502)"
       d="m 55.4375,23.53125 a 2.9965231,2.9965231 0 0 0 -2.4375,1.5 l -12.53125,21.6875 a 2.9965231,2.9965231 0 0 0 2.59375,4.5 l 25.09375,-0.0625 a 2.9965231,2.9965231 0 0 0 2.59375,-4.5 l -12.5625,-21.625 a 2.9965231,2.9965231 0 0 0 -2.75,-1.5 z"
       id="path3757"
       style="opacity:0.3;color:#000000;fill:#000000;fill-opacity:1;fill-rule:nonzero;stroke:none;stroke-width:1.5;marker:none;visibility:visible;display:inline;overflow:visible;enable-background:accumulate"
       inkscape:original="M 55.59375 26.53125 L 43.0625 48.21875 L 68.15625 48.15625 L 55.59375 26.53125 z "
       inkscape:radius="2.9962234"
       sodipodi:type="inkscape:offset" />
    <path
       sodipodi:type="inkscape:offset"
       inkscape:radius="2.9962234"
       inkscape:original="M 55.59375 26.53125 L 43.0625 48.21875 L 68.15625 48.15625 L 55.59375 26.53125 z "
       style="color:#000000;fill:url(#linearGradient3755);fill-opacity:1;fill-rule:nonzero;stroke:none;stroke-width:1.5;marker:none;visibility:visible;display:inline;overflow:visible;enable-background:accumulate"
       id="path3746"
       d="m 55.4375,23.53125 a 2.9965231,2.9965231 0 0 0 -2.4375,1.5 l -12.53125,21.6875 a 2.9965231,2.9965231 0 0 0 2.59375,4.5 l 25.09375,-0.0625 a 2.9965231,2.9965231 0 0 0 2.59375,-4.5 l -12.5625,-21.625 a 2.9965231,2.9965231 0 0 0 -2.75,-1.5 z"
       transform="matrix(1.5856134,0,0,1.5824294,4.2144846,1.6141397)" />
    <path
       style="color:#000000;fill:#ffffff;fill-opacity:1;fill-rule:nonzero;stroke:none;stroke-width:1.5;marker:none;visibility:visible;display:inline;overflow:visible;enable-background:accumulate"
       d="m 92.261081,41.583325 c -1.577511,0.07575 -1.947005,1.751298 -2.695932,2.82431 -6.300999,10.868725 -12.555333,21.748831 -18.871527,32.607941 -0.631692,1.122763 0.191184,2.824069 1.540533,2.867103 3.60771,0.107645 7.2501,0.01856 10.869315,0.04279 9.765612,-0.02989 19.54781,-0.04168 29.31291,-0.08558 1.39367,-0.0499 2.34453,-1.643313 1.71171,-2.909895 -2.53481,-4.213137 -5.01696,-8.601155 -7.5315,-12.880564 -4.15954,-7.17276 -8.410173,-14.338729 -12.538221,-21.524665 -0.395881,-0.595648 -1.076616,-0.966497 -1.797288,-0.941437 z m 0.08558,2.738725 c 4.030353,7.00359 8.159174,13.964629 12.195884,20.925569 2.3759,4.043462 4.76668,8.188228 7.18915,12.238676 -9.53289,0.04141 -19.087856,0.05638 -28.62823,0.08558 -3.392028,-0.0227 -6.700675,0.02907 -9.970671,-0.04279 6.150213,-10.578824 12.227215,-21.175941 18.358016,-31.75209 0.03551,-0.06126 0.09286,-0.109905 0.128377,-0.17117 0.372461,-0.570306 0.569287,-0.987484 0.727474,-1.283777 z"
       id="path3787"
       inkscape:connector-curvature="0" />
    <path
       style="opacity:0.3;color:#000000;fill:#ffffff;fill-opacity:1;fill-rule:nonzero;stroke:none;stroke-width:1.5;marker:none;visibility:visible;display:inline;overflow:visible;enable-background:accumulate"
       d="m 92.132703,38.844601 a 4.7513273,4.7417862 0 0 0 -3.894124,2.396384 L 68.382823,75.560629 a 4.7513273,4.7417862 0 0 0 -0.599096,3.038273 4.7513273,4.7417862 0 0 1 0.599096,-1.668911 L 88.238579,42.610347 a 4.7513273,4.7417862 0 0 1 3.894124,-2.396384 4.7513273,4.7417862 0 0 1 4.364843,2.396384 l 19.898544,34.191267 a 4.7513273,4.7417862 0 0 1 0.5991,1.711702 4.7513273,4.7417862 0 0 0 -0.5991,-3.081065 L 96.497546,41.240985 a 4.7513273,4.7417862 0 0 0 -4.364843,-2.396384 z"
       id="path3802"
       inkscape:connector-curvature="0" />
    <path
       style="opacity:0.4;color:#000000;fill:#550000;fill-opacity:1;fill-rule:nonzero;stroke:none;stroke-width:1.5;marker:none;visibility:visible;display:inline;overflow:visible;enable-background:accumulate"
       d="m 116.99519,77.143954 a 4.7513273,4.7417862 0 0 1 -4.70718,4.065295 l -39.7971,0.08558 a 4.7513273,4.7417862 0 0 1 -4.707183,-4.065295 4.7513273,4.7417862 0 0 0 4.707183,5.434657 l 39.7971,-0.08559 a 4.7513273,4.7417862 0 0 0 4.70718,-5.434657 z"
       id="path3815"
       inkscape:connector-curvature="0" />
    <rect
       style="color:#000000;fill:#ffffff;fill-opacity:1;fill-rule:nonzero;stroke:none;stroke-width:1.5;marker:none;visibility:visible;display:inline;overflow:visible;enable-background:accumulate"
       id="rect3826"
       width="5.4774508"
       height="13.693624"
       x="89.650734"
       y="53.907585"
       rx="2.6252222"
       ry="2.7387247" />
    <path
       sodipodi:type="arc"
       style="color:#000000;fill:#ffffff;fill-opacity:1;fill-rule:nonzero;stroke:none;stroke-width:1.5;marker:none;visibility:visible;display:inline;overflow:visible;enable-background:accumulate"
       id="path3828"
       sodipodi:cx="62"
       sodipodi:cy="73"
       sodipodi:rx="2"
       sodipodi:ry="2"
       d="m 64,73 c 0,1.104569 -0.895431,2 -2,2 -1.104569,0 -2,-0.895431 -2,-2 0,-1.104569 0.895431,-2 2,-2 1.104569,0 2,0.895431 2,2 z"
       transform="matrix(1.3693624,0,0,1.3693624,7.4889915,-28.254155)" />
  </g>
</svg>
