<?xml version="1.0" encoding="UTF-8" standalone="no"?>
<!-- Created with Inkscape (http://www.inkscape.org/) -->

<svg
   xmlns:dc="http://purl.org/dc/elements/1.1/"
   xmlns:cc="http://creativecommons.org/ns#"
   xmlns:rdf="http://www.w3.org/1999/02/22-rdf-syntax-ns#"
   xmlns:svg="http://www.w3.org/2000/svg"
   xmlns="http://www.w3.org/2000/svg"
   xmlns:sodipodi="http://sodipodi.sourceforge.net/DTD/sodipodi-0.dtd"
   xmlns:inkscape="http://www.inkscape.org/namespaces/inkscape"
   width="128"
   height="128"
   id="svg3027"
   version="1.1"
   inkscape:version="0.48.5 r10040"
   sodipodi:docname="ZZ-BASE.svg"
   inkscape:export-xdpi="90"
   inkscape:export-ydpi="90">
  <metadata
     id="metadata5">
    <rdf:RDF>
      <cc:Work
         rdf:about="">
        <dc:format>image/svg+xml</dc:format>
        <dc:type
           rdf:resource="http://purl.org/dc/dcmitype/StillImage" />
        <dc:title></dc:title>
      </cc:Work>
    </rdf:RDF>
  </metadata>
  <defs
     id="defs3029" />
  <sodipodi:namedview
     id="base"
     pagecolor="#ffffff"
     bordercolor="#666666"
     borderopacity="1.0"
     inkscape:pageopacity="0.0"
     inkscape:pageshadow="2"
     inkscape:zoom="2.8"
     inkscape:cx="72.889059"
     inkscape:cy="75.108275"
     inkscape:document-units="px"
     inkscape:current-layer="svg3027"
     showgrid="true"
     inkscape:window-width="1013"
     inkscape:window-height="847"
     inkscape:window-x="1932"
     inkscape:window-y="1"
     inkscape:window-maximized="0"
     inkscape:showpageshadow="false"
     borderlayer="false"
     showguides="true"
     inkscape:guide-bbox="true"
     inkscape:snap-to-guides="false"
     inkscape:snap-grids="false">
    <inkscape:grid
       type="xygrid"
       id="grid2981"
       empspacing="4"
       visible="true"
       enabled="true"
       snapvisiblegridlinesonly="true"
       spacingx="4px"
       spacingy="4px"
       dotted="false" />
    <sodipodi:guide
       orientation="0,1"
       position="0,120"
       id="guide2999" />
    <sodipodi:guide
       orientation="1,0"
       position="120,128"
       id="guide3001" />
    <sodipodi:guide
       orientation="0,1"
       position="0,8"
       id="guide3003" />
    <sodipodi:guide
       orientation="1,0"
       position="8,128"
       id="guide3005" />
  </sodipodi:namedview>
  <path
     inkscape:connector-curvature="0"
     style="fill:#3399ff;fill-opacity:1;stroke:none;display:inline"
     d="M 69.468546,9.9619933 42.259157,28.55226 l 27.209389,19.266275 0,-12.506179 c 12.671287,2.327863 22.510023,12.697295 23.829342,25.688368 0.100052,0.985562 0,2.030074 0,3.042044 0,16.19154 -13.045888,29.237416 -29.23742,29.237416 C 52.505967,93.046882 44.924564,87.397135 38.541104,78.745979 l -11.830171,6.929099 c 8.004442,14.059413 19.637127,21.632302 37.349535,21.632302 23.894383,0 43.264622,-19.370221 43.264622,-43.264612 0,-22.055698 -16.524689,-40.256047 -37.856544,-42.926615 l 0,-11.1541597 z M 64.060468,53.226613 c -5.973599,0 -10.816154,4.842561 -10.816154,10.816155 0,5.973595 4.842555,10.816154 10.816154,10.816154 5.973601,0 10.816156,-4.842559 10.816156,-10.816154 0,-5.973594 -4.842555,-10.816155 -10.816156,-10.816155 z"
     id="path2856"
     sodipodi:nodetypes="ccccssccccscccsssc" />
</svg>
