<?xml version="1.0" encoding="UTF-8" standalone="no"?>
<!-- Created with Inkscape (http://www.inkscape.org/) -->

<svg
   xmlns:dc="http://purl.org/dc/elements/1.1/"
   xmlns:cc="http://creativecommons.org/ns#"
   xmlns:rdf="http://www.w3.org/1999/02/22-rdf-syntax-ns#"
   xmlns:svg="http://www.w3.org/2000/svg"
   xmlns="http://www.w3.org/2000/svg"
   xmlns:xlink="http://www.w3.org/1999/xlink"
   xmlns:sodipodi="http://sodipodi.sourceforge.net/DTD/sodipodi-0.dtd"
   xmlns:inkscape="http://www.inkscape.org/namespaces/inkscape"
   width="128"
   height="128"
   id="svg3027"
   version="1.1"
   inkscape:version="0.48.5 r10040"
   sodipodi:docname="system-run.svg"
   inkscape:export-xdpi="90"
   inkscape:export-ydpi="90">
  <metadata
     id="metadata5">
    <rdf:RDF>
      <cc:Work
         rdf:about="">
        <dc:format>image/svg+xml</dc:format>
        <dc:type
           rdf:resource="http://purl.org/dc/dcmitype/StillImage" />
        <dc:title />
      </cc:Work>
    </rdf:RDF>
  </metadata>
  <defs
     id="defs3029">
    <linearGradient
       y2="45.017357"
       x2="20.758585"
       y1="8.6665707"
       x1="26.388914"
       gradientTransform="matrix(0.41860332,0,0,0.41860332,0.9535131,1.3721447)"
       gradientUnits="userSpaceOnUse"
       id="linearGradient3991"
       xlink:href="#StandardGradient-9"
       inkscape:collect="always" />
    <linearGradient
       y2="45.017357"
       x2="20.758585"
       y1="1"
       x1="20.758585"
       gradientTransform="matrix(0.41860332,0,0,0.41860332,0.9535131,1.3721447)"
       gradientUnits="userSpaceOnUse"
       id="linearGradient3987"
       xlink:href="#StandardGradient-9"
       inkscape:collect="always" />
    <clipPath
       id="clipPath4461"
       clipPathUnits="userSpaceOnUse">
      <path
         id="path4463"
         d="m -30,0 0,22 22,0 0,-22 -22,0 z m 9.75,2 2.5,0 c 0.354191,0 0.625,0.2960006 0.625,0.65625 l 0,1.28125 c 0.633321,0.1687424 1.258817,0.3967312 1.8125,0.71875 l 0.90625,-0.875 c 0.254734,-0.2547 0.624543,-0.2816994 0.875,-0.03125 L -11.75,5.53125 c 0.250482,0.250452 0.22348,0.6202678 -0.03125,0.875 l -0.875,0.90625 c 0.322016,0.5536838 0.550009,1.1791804 0.71875,1.8125 l 1.28125,0 C -10.296007,9.125 -10,9.3958086 -10,9.75 l 0,2.5 c 0,0.354193 -0.296007,0.625008 -0.65625,0.625 l -1.28125,0 c -0.168741,0.633322 -0.396734,1.258819 -0.71875,1.8125 l 0.875,0.90625 c 0.2547,0.254732 0.2817,0.624547 0.03125,0.875 L -13.53125,18.25 c -0.250452,0.250463 -0.62027,0.223481 -0.875,-0.03125 l -0.90625,-0.875 c -0.553682,0.322017 -1.179179,0.550008 -1.8125,0.71875 l 0,1.28125 C -17.125,19.703997 -17.395806,20 -17.75,20 l -2.5,0 c -0.354195,0 -0.625,-0.296003 -0.625,-0.65625 l 0,-1.28125 c -0.63332,-0.168742 -1.258817,-0.396733 -1.8125,-0.71875 l -0.90625,0.875 c -0.254733,0.25473 -0.624549,0.281702 -0.875,0.03125 L -26.25,16.46875 c -0.250472,-0.250452 -0.223483,-0.620267 0.03125,-0.875 l 0.875,-0.90625 c -0.322016,-0.553681 -0.550005,-1.179178 -0.71875,-1.8125 l -1.28125,0 C -27.703997,12.875 -28,12.604192 -28,12.25 l 0,-2.5 c 0,-0.3541928 0.295998,-0.625 0.65625,-0.625 l 1.28125,0 c 0.168745,-0.633321 0.39673,-1.2588174 0.71875,-1.8125 l -0.875,-0.90625 C -26.473472,6.1515166 -26.50045,5.781702 -26.25,5.53125 L -24.46875,3.75 c 0.125226,-0.1252174 0.272674,-0.18891 0.4375,-0.1875 0.164826,0.0014 0.310131,0.091387 0.4375,0.21875 l 0.90625,0.875 c 0.553683,-0.3220174 1.17918,-0.550009 1.8125,-0.71875 l 0,-1.28125 C -20.875,2.2960032 -20.604195,2 -20.25,2 z M -19,8.28125 c -1.501948,0 -2.71875,1.2168013 -2.71875,2.71875 0,1.501951 1.216802,2.71875 2.71875,2.71875 1.501948,0 2.71875,-1.216799 2.71875,-2.71875 0,-1.5019487 -1.216799,-2.71875 -2.71875,-2.71875 z"
         style="fill:#ff00ff;fill-opacity:1;stroke:none;display:inline" />
    </clipPath>
    <linearGradient
       y2="45.017357"
       x2="20.758585"
       y1="1"
       x1="20.758585"
       gradientTransform="matrix(0.41860332,0,0,0.41860332,-29.046487,1.3721447)"
       gradientUnits="userSpaceOnUse"
       id="linearGradient4454"
       xlink:href="#StandardGradient-9"
       inkscape:collect="always" />
    <linearGradient
       inkscape:collect="always"
       xlink:href="#StandardGradient-9"
       id="linearGradient4427"
       gradientUnits="userSpaceOnUse"
       gradientTransform="matrix(0.41860332,0,0,0.41860332,0.9535131,1.3721447)"
       x1="20.758585"
       y1="1"
       x2="20.758585"
       y2="45.017357" />
    <linearGradient
       id="StandardGradient-9">
      <stop
         id="stop3389-8"
         offset="0"
         style="stop-color:#000000;stop-opacity:0.86274511;" />
      <stop
         id="stop3391-3"
         offset="1"
         style="stop-color:#000000;stop-opacity:0.47058824;" />
    </linearGradient>
    <linearGradient
       y2="45.017357"
       x2="20.758585"
       y1="1"
       x1="20.758585"
       gradientTransform="matrix(0.41860332,0,0,0.41860332,0.9535131,1.3721447)"
       gradientUnits="userSpaceOnUse"
       id="linearGradient4377-4"
       xlink:href="#StandardGradient-9"
       inkscape:collect="always" />
    <inkscape:perspective
       sodipodi:type="inkscape:persp3d"
       inkscape:vp_x="0 : 0.5 : 1"
       inkscape:vp_y="0 : 1000 : 0"
       inkscape:vp_z="1 : 0.5 : 1"
       inkscape:persp3d-origin="0.5 : 0.33333333 : 1"
       id="perspective4416" />
    <linearGradient
       y2="45.017357"
       x2="20.758585"
       y1="1"
       x1="20.758585"
       gradientTransform="matrix(0.41860332,0,0,0.41860332,-29.046487,1.3721447)"
       gradientUnits="userSpaceOnUse"
       id="linearGradient4399"
       xlink:href="#StandardGradient"
       inkscape:collect="always" />
    <linearGradient
       y2="45.017357"
       x2="20.758585"
       y1="1"
       x1="20.758585"
       gradientTransform="matrix(0.41860332,0,0,0.41860332,0.9535131,1.3721447)"
       gradientUnits="userSpaceOnUse"
       id="linearGradient4394"
       xlink:href="#StandardGradient"
       inkscape:collect="always" />
    <linearGradient
       y2="45.017357"
       x2="20.758585"
       y1="1"
       x1="20.758585"
       gradientTransform="matrix(0.41860332,0,0,0.41860332,0.9535131,2.3721447)"
       gradientUnits="userSpaceOnUse"
       id="linearGradient4390"
       xlink:href="#StandardGradient"
       inkscape:collect="always" />
    <linearGradient
       y2="45.017357"
       x2="20.758585"
       y1="1"
       x1="20.758585"
       gradientTransform="matrix(0.41860332,0,0,0.41860332,0.9535131,1.3721447)"
       gradientUnits="userSpaceOnUse"
       id="linearGradient4385"
       xlink:href="#StandardGradient"
       inkscape:collect="always" />
    <linearGradient
       y2="45.017357"
       x2="20.758585"
       y1="1"
       x1="20.758585"
       gradientTransform="matrix(0.41860332,0,0,0.41860332,0.9535131,2.3721447)"
       gradientUnits="userSpaceOnUse"
       id="linearGradient4383"
       xlink:href="#StandardGradient"
       inkscape:collect="always" />
    <linearGradient
       y2="45.017357"
       x2="20.758585"
       y1="1"
       x1="20.758585"
       gradientTransform="matrix(0.41860332,0,0,0.41860332,0.9535131,1.3721447)"
       gradientUnits="userSpaceOnUse"
       id="linearGradient4377"
       xlink:href="#StandardGradient"
       inkscape:collect="always" />
    <linearGradient
       inkscape:collect="always"
       xlink:href="#linearGradient4081"
       id="linearGradient2913"
       gradientUnits="userSpaceOnUse"
       gradientTransform="matrix(0.27906888,0,0,-0.27906888,3.302342,14.418579)"
       x1="20.758585"
       y1="1"
       x2="20.758585"
       y2="45.017357" />
    <linearGradient
       id="linearGradient2905">
      <stop
         id="stop2907"
         offset="0"
         style="stop-color:#aaaaaa;stop-opacity:1;" />
      <stop
         id="stop2909"
         offset="1"
         style="stop-color:#f0f0f0;stop-opacity:1;" />
    </linearGradient>
    <linearGradient
       y2="45.017357"
       x2="20.758585"
       y1="1"
       x1="20.758585"
       gradientTransform="matrix(0.93022994,0,0,-0.93022994,23.674475,61.395341)"
       gradientUnits="userSpaceOnUse"
       id="linearGradient3665"
       xlink:href="#linearGradient4081"
       inkscape:collect="always" />
    <linearGradient
       id="linearGradient4081">
      <stop
         id="stop4083"
         offset="0"
         style="stop-color:#aaaaaa;stop-opacity:1;" />
      <stop
         id="stop4085"
         offset="1"
         style="stop-color:#f0f0f0;stop-opacity:1;" />
    </linearGradient>
    <linearGradient
       y2="45.017357"
       x2="20.758585"
       y1="1"
       x1="20.758585"
       gradientTransform="matrix(0.15660811,0.04196301,0.04196302,-0.15660807,9.2762575,19.094875)"
       gradientUnits="userSpaceOnUse"
       id="linearGradient3669"
       xlink:href="#linearGradient4081"
       inkscape:collect="always" />
    <inkscape:perspective
       sodipodi:type="inkscape:persp3d"
       inkscape:vp_x="0 : 0.5 : 1"
       inkscape:vp_y="0 : 1000 : 0"
       inkscape:vp_z="1 : 0.5 : 1"
       inkscape:persp3d-origin="0.5 : 0.33333333 : 1"
       id="perspective2896" />
    <linearGradient
       y2="21.001953"
       x2="9.75"
       y1="5"
       x1="9.75"
       gradientTransform="translate(1,-32)"
       gradientUnits="userSpaceOnUse"
       id="linearGradient3564"
       xlink:href="#StandardGradient"
       inkscape:collect="always" />
    <inkscape:perspective
       sodipodi:type="inkscape:persp3d"
       inkscape:vp_x="0 : 0.5 : 1"
       inkscape:vp_y="0 : 1000 : 0"
       inkscape:vp_z="1 : 0.5 : 1"
       inkscape:persp3d-origin="0.5 : 0.33333333 : 1"
       id="perspective2850" />
    <linearGradient
       y2="21.001953"
       x2="9.75"
       y1="5"
       x1="9.75"
       gradientTransform="translate(1,-2)"
       gradientUnits="userSpaceOnUse"
       id="linearGradient3227"
       xlink:href="#StandardGradient"
       inkscape:collect="always" />
    <linearGradient
       id="StandardGradient">
      <stop
         id="stop3389"
         offset="0"
         style="stop-color:#000000;stop-opacity:0.86274511;" />
      <stop
         id="stop3391"
         offset="1"
         style="stop-color:#000000;stop-opacity:0.47058824;" />
    </linearGradient>
    <linearGradient
       id="ShadowGradient">
      <stop
         id="stop3393"
         offset="0"
         style="stop-color:#000000;stop-opacity:1;" />
      <stop
         id="stop3395"
         offset="1"
         style="stop-color:#000000;stop-opacity:0;" />
    </linearGradient>
    <inkscape:perspective
       id="perspective22"
       inkscape:persp3d-origin="11 : 7.3333333 : 1"
       inkscape:vp_z="22 : 11 : 1"
       inkscape:vp_y="0 : 1000 : 0"
       inkscape:vp_x="0 : 11 : 1"
       sodipodi:type="inkscape:persp3d" />
    <linearGradient
       y2="45.017357"
       x2="20.758585"
       y1="1.4998871"
       x1="24.000017"
       gradientTransform="matrix(0.27906888,0,0,0.27906888,1.3023421,1.5814282)"
       gradientUnits="userSpaceOnUse"
       id="linearGradient3991-4"
       xlink:href="#StandardGradient-9-5"
       inkscape:collect="always" />
    <linearGradient
       y2="45.017357"
       x2="20.758585"
       y1="1"
       x1="20.758585"
       gradientTransform="matrix(0.27906888,0,0,0.27906888,1.3023421,1.5814282)"
       gradientUnits="userSpaceOnUse"
       id="linearGradient3987-4"
       xlink:href="#StandardGradient-9-5"
       inkscape:collect="always" />
    <clipPath
       id="clipPath3686"
       clipPathUnits="userSpaceOnUse">
      <path
         id="path3688"
         d="m -20,0 0,16 16,0 0,-16 -16,0 z m 7.15625,2 1.6875,0 c 0.236127,0 0.40625,0.1973338 0.40625,0.4375 l 0,0.84375 c 0.422214,0.1124949 0.818378,0.2853208 1.1875,0.5 l 0.625,-0.59375 c 0.169822,-0.1698 0.426778,-0.1982162 0.59375,-0.03125 l 1.1875,1.1875 c 0.166988,0.166968 0.13857,0.4239286 -0.03125,0.59375 l -0.59375,0.625 c 0.214677,0.3691225 0.387506,0.7652869 0.5,1.1875 l 0.84375,0 C -6.197338,6.75 -6,6.9201224 -6,7.15625 l 0,1.6875 C -6,9.0798786 -6.197348,9.2500183 -6.4375,9.25 l -0.84375,0 c -0.112494,0.4222147 -0.285323,0.81838 -0.5,1.1875 l 0.59375,0.625 c 0.1698,0.169822 0.198217,0.426782 0.03125,0.59375 l -1.1875,1.1875 c -0.166968,0.166988 -0.42393,0.13857 -0.59375,-0.03125 l -0.625,-0.59375 c -0.369122,0.214678 -0.765286,0.387506 -1.1875,0.5 l 0,0.84375 c 0,0.240164 -0.170121,0.4375 -0.40625,0.4375 l -1.6875,0 C -13.07988,14 -13.25,13.802664 -13.25,13.5625 l 0,-0.84375 c -0.422213,-0.112494 -0.818378,-0.285322 -1.1875,-0.5 l -0.625,0.59375 c -0.169822,0.1698 -0.426783,0.198218 -0.59375,0.03125 l -1.1875,-1.1875 c -0.166988,-0.166968 -0.138572,-0.423928 0.03125,-0.59375 l 0.59375,-0.625 c -0.214677,-0.36912 -0.387503,-0.7652854 -0.5,-1.1875 l -0.84375,0 C -17.802664,9.25 -18,9.079878 -18,8.84375 l 0,-1.6875 C -18,6.9201214 -17.802654,6.75 -17.5625,6.75 l 0.84375,0 c 0.112497,-0.422214 0.28532,-0.8183783 0.5,-1.1875 l -0.59375,-0.625 c -0.169801,-0.1698223 -0.198217,-0.426782 -0.03125,-0.59375 l 1.1875,-1.1875 c 0.08348,-0.083478 0.202616,-0.1259428 0.3125,-0.125 0.109883,9.3e-4 0.19634,0.071341 0.28125,0.15625 l 0.625,0.59375 c 0.369122,-0.2146783 0.765286,-0.387506 1.1875,-0.5 l 0,-0.84375 C -13.25,2.1973355 -13.07988,2 -12.84375,2 z M -12,6.1875 c -1.001298,0 -1.8125,0.8112009 -1.8125,1.8125 0,1.0013006 0.811202,1.8125 1.8125,1.8125 1.001299,0 1.8125,-0.8111994 1.8125,-1.8125 0,-1.0012991 -0.811199,-1.8125 -1.8125,-1.8125 z"
         style="fill:#ff00ff;fill-opacity:1;stroke:none;display:inline" />
    </clipPath>
    <linearGradient
       y2="45.017357"
       x2="20.758585"
       y1="1"
       x1="20.758585"
       gradientTransform="matrix(0.27906888,0,0,0.27906888,-18.697658,1.5814282)"
       gradientUnits="userSpaceOnUse"
       id="linearGradient3679"
       xlink:href="#StandardGradient-9-5"
       inkscape:collect="always" />
    <linearGradient
       y2="45.017357"
       x2="20.758585"
       y1="1"
       x1="20.758585"
       gradientTransform="matrix(0.27906888,0,0,0.27906888,1.3023421,1.5814282)"
       gradientUnits="userSpaceOnUse"
       id="linearGradient3674"
       xlink:href="#StandardGradient-9-5"
       inkscape:collect="always" />
    <linearGradient
       y2="45.017357"
       x2="20.758585"
       y1="1"
       x1="20.758585"
       gradientTransform="matrix(0.27906888,0,0,0.27906888,1.3023421,2.5814282)"
       gradientUnits="userSpaceOnUse"
       id="linearGradient3670"
       xlink:href="#StandardGradient-9-5"
       inkscape:collect="always" />
    <linearGradient
       y2="45.017357"
       x2="20.758585"
       y1="1"
       x1="20.758585"
       gradientTransform="matrix(0.27906888,0,0,0.27906888,1.3023421,1.5814282)"
       gradientUnits="userSpaceOnUse"
       id="linearGradient2893"
       xlink:href="#StandardGradient-9-5"
       inkscape:collect="always" />
    <linearGradient
       y2="45.017357"
       x2="20.758585"
       y1="1"
       x1="20.758585"
       gradientTransform="matrix(0.27906888,0,0,0.27906888,1.3023421,2.5814282)"
       gradientUnits="userSpaceOnUse"
       id="linearGradient2891"
       xlink:href="#StandardGradient-9-5"
       inkscape:collect="always" />
    <linearGradient
       inkscape:collect="always"
       xlink:href="#StandardGradient-9-5"
       id="linearGradient2885"
       gradientUnits="userSpaceOnUse"
       gradientTransform="matrix(0.27906888,0,0,0.27906888,1.3023421,1.5814282)"
       x1="20.758585"
       y1="1"
       x2="20.758585"
       y2="45.017357" />
    <linearGradient
       id="StandardGradient-9-5">
      <stop
         id="stop3389-8-5"
         offset="0"
         style="stop-color:#000000;stop-opacity:0.86274511;" />
      <stop
         id="stop3391-3-9"
         offset="1"
         style="stop-color:#000000;stop-opacity:0.47058824;" />
    </linearGradient>
    <linearGradient
       inkscape:collect="always"
       xlink:href="#StandardGradient-9-5"
       id="linearGradient4427-9"
       gradientUnits="userSpaceOnUse"
       gradientTransform="matrix(0.41860332,0,0,0.41860332,0.9535131,1.3721447)"
       x1="20.758585"
       y1="1"
       x2="20.758585"
       y2="45.017357" />
    <inkscape:perspective
       sodipodi:type="inkscape:persp3d"
       inkscape:vp_x="0 : 0.5 : 1"
       inkscape:vp_y="0 : 1000 : 0"
       inkscape:vp_z="1 : 0.5 : 1"
       inkscape:persp3d-origin="0.5 : 0.33333333 : 1"
       id="perspective2876" />
    <inkscape:perspective
       sodipodi:type="inkscape:persp3d"
       inkscape:vp_x="0 : 0.5 : 1"
       inkscape:vp_y="0 : 1000 : 0"
       inkscape:vp_z="1 : 0.5 : 1"
       inkscape:persp3d-origin="0.5 : 0.33333333 : 1"
       id="perspective3648" />
    <linearGradient
       gradientUnits="userSpaceOnUse"
       y2="15.001111"
       x2="6.7010484"
       y1="1"
       x1="6.7010484"
       id="linearGradient3228"
       xlink:href="#StandardGradient-7"
       inkscape:collect="always" />
    <linearGradient
       y2="19.055693"
       x2="9.75"
       y1="5"
       x1="9.75"
       gradientTransform="translate(-22,-5)"
       gradientUnits="userSpaceOnUse"
       id="linearGradient2407"
       xlink:href="#StandardGradient-7"
       inkscape:collect="always" />
    <linearGradient
       y2="19.055693"
       x2="9.75"
       y1="5"
       x1="9.75"
       gradientTransform="matrix(0.7071068,0.7071068,-0.7071068,0.7071068,11.292893,-6.263456)"
       gradientUnits="userSpaceOnUse"
       id="linearGradient3224"
       xlink:href="#StandardGradient-7"
       inkscape:collect="always" />
    <linearGradient
       y2="19.055693"
       x2="9.75"
       y1="5"
       x1="9.75"
       gradientTransform="matrix(0.7071068,-0.7071068,0.7071068,0.7071068,-11.856186,21.124197)"
       gradientUnits="userSpaceOnUse"
       id="linearGradient3198"
       xlink:href="#StandardGradient-7"
       inkscape:collect="always" />
    <linearGradient
       y2="19.055693"
       x2="9.75"
       y1="5"
       x1="9.75"
       gradientTransform="matrix(0,-1,1,0,-6.0098215,31.009821)"
       gradientUnits="userSpaceOnUse"
       id="linearGradient3194"
       xlink:href="#StandardGradient-7"
       inkscape:collect="always" />
    <linearGradient
       y2="19.055693"
       x2="9.75"
       y1="5"
       x1="9.75"
       gradientTransform="matrix(-0.7071068,-0.7071068,0.7071068,-0.7071068,5.1143752,33.866009)"
       gradientUnits="userSpaceOnUse"
       id="linearGradient3190"
       xlink:href="#StandardGradient-7"
       inkscape:collect="always" />
    <linearGradient
       y2="19.055693"
       x2="9.75"
       y1="5"
       x1="9.75"
       gradientTransform="matrix(-1,0,0,-1,15,28.019644)"
       gradientUnits="userSpaceOnUse"
       id="linearGradient3186"
       xlink:href="#StandardGradient-7"
       inkscape:collect="always" />
    <linearGradient
       y2="19.055693"
       x2="9.75"
       y1="5"
       x1="9.75"
       gradientTransform="matrix(-0.7071068,0.7071068,-0.7071068,-0.7071068,17.856188,16.895447)"
       gradientUnits="userSpaceOnUse"
       id="linearGradient3182"
       xlink:href="#StandardGradient-7"
       inkscape:collect="always" />
    <linearGradient
       y2="19.055693"
       x2="9.75"
       y1="5"
       x1="9.75"
       gradientTransform="matrix(0,1,-1,0,12.009822,7.0098219)"
       gradientUnits="userSpaceOnUse"
       id="linearGradient3178"
       xlink:href="#StandardGradient-7"
       inkscape:collect="always" />
    <linearGradient
       y2="19.055693"
       x2="9.75"
       y1="5"
       x1="9.75"
       gradientTransform="matrix(0.7071068,0.7071068,-0.7071068,0.7071068,0.8856249,4.1536343)"
       gradientUnits="userSpaceOnUse"
       id="linearGradient3174"
       xlink:href="#StandardGradient-7"
       inkscape:collect="always" />
    <linearGradient
       y2="19.055693"
       x2="9.75"
       y1="5"
       x1="9.75"
       gradientTransform="translate(-9,10)"
       gradientUnits="userSpaceOnUse"
       id="linearGradient2400"
       xlink:href="#StandardGradient-7"
       inkscape:collect="always" />
    <linearGradient
       gradientTransform="translate(0,-1)"
       gradientUnits="userSpaceOnUse"
       y2="19.055693"
       x2="9.75"
       y1="5"
       x1="9.75"
       id="linearGradient3782"
       xlink:href="#StandardGradient-7"
       inkscape:collect="always" />
    <linearGradient
       gradientUnits="userSpaceOnUse"
       y2="19.017569"
       x2="9.9375"
       y1="3"
       x1="9.9375"
       id="linearGradient3381"
       xlink:href="#StandardGradient-7"
       inkscape:collect="always" />
    <linearGradient
       id="StandardGradient-7">
      <stop
         id="stop3389-4"
         offset="0"
         style="stop-color:#000000;stop-opacity:0.86274511;" />
      <stop
         id="stop3391-1"
         offset="1"
         style="stop-color:#000000;stop-opacity:0.47058824;" />
    </linearGradient>
    <linearGradient
       id="ShadowGradient-4">
      <stop
         id="stop3393-6"
         offset="0"
         style="stop-color:#000000;stop-opacity:1;" />
      <stop
         id="stop3395-2"
         offset="1"
         style="stop-color:#000000;stop-opacity:0;" />
    </linearGradient>
    <inkscape:perspective
       id="perspective23"
       inkscape:persp3d-origin="11 : 7.3333333 : 1"
       inkscape:vp_z="22 : 11 : 1"
       inkscape:vp_y="0 : 1000 : 0"
       inkscape:vp_x="0 : 11 : 1"
       sodipodi:type="inkscape:persp3d" />
  </defs>
  <sodipodi:namedview
     id="base"
     pagecolor="#ffffff"
     bordercolor="#666666"
     borderopacity="1.0"
     inkscape:pageopacity="0.0"
     inkscape:pageshadow="2"
     inkscape:zoom="2.8"
     inkscape:cx="-11.977367"
     inkscape:cy="109.75233"
     inkscape:document-units="px"
     inkscape:current-layer="svg3027"
     showgrid="true"
     inkscape:window-width="1680"
     inkscape:window-height="987"
     inkscape:window-x="0"
     inkscape:window-y="0"
     inkscape:window-maximized="1"
     inkscape:showpageshadow="false"
     borderlayer="false"
     showguides="true"
     inkscape:guide-bbox="true"
     inkscape:snap-to-guides="false"
     inkscape:snap-grids="false">
    <inkscape:grid
       type="xygrid"
       id="grid2981"
       empspacing="4"
       visible="true"
       enabled="true"
       snapvisiblegridlinesonly="true"
       spacingx="8px"
       spacingy="8px"
       dotted="false" />
    <sodipodi:guide
       orientation="0,1"
       position="0,120"
       id="guide2999" />
    <sodipodi:guide
       orientation="1,0"
       position="120,128"
       id="guide3001" />
    <sodipodi:guide
       orientation="0,1"
       position="0,8"
       id="guide3003" />
    <sodipodi:guide
       orientation="1,0"
       position="8,128"
       id="guide3005" />
  </sodipodi:namedview>
  <path
     inkscape:connector-curvature="0"
     style="opacity:0.15;fill:#ffffff;fill-opacity:1;fill-rule:nonzero;stroke:none;stroke-width:1;marker:none;visibility:visible;display:block;overflow:visible;enable-background:accumulate"
     d="m 181.21861,47.836477 c -0.79976,0 -1.40625,0.719599 -1.40625,1.4375 l 0,0.15625 -0.0937,-0.125 c -0.003,-0.0034 -0.0276,0.0037 -0.0312,0 -0.1363,-0.135809 -0.44534,-0.43307 -0.96875,-0.4375 -0.37677,-0.0032 -0.72878,0.103805 -1.03125,0.40625 l -1.1875,1.1875 c -0.56662,0.566625 -0.44251,1.503469 0.0312,2 l 0.125,0.125 -0.15625,0 c -0.71791,0 -1.4375,0.606485 -1.4375,1.40625 l 0,1.6875 c 0,0.799766 0.71959,1.40625 1.4375,1.40625 l 0.15625,0 -0.125,0.125 c -0.47378,0.496525 -0.59789,1.43339 -0.0312,2 l 1.1875,1.1875 c 0.56664,0.566646 1.50348,0.442473 2,-0.03125 l 0.0312,0 0.0937,-0.125 0,0.15625 c 0,0.717902 0.60649,1.4375 1.40625,1.4375 l 1.6875,0 c 0.79977,0 1.40625,-0.719596 1.40625,-1.4375 l 0,-0.15625 0.125,0.125 c 0.49651,0.473772 1.43338,0.597933 2,0.03125 l 1.1875,-1.1875 c 0.56664,-0.566641 0.44247,-1.503477 -0.0312,-2 l -0.125,-0.125 0.15625,0 c 0.718,5.5e-5 1.4375,-0.606478 1.4375,-1.40625 l 0,-1.6875 c 0,-0.799773 -0.71959,-1.40625 -1.4375,-1.40625 l -0.15625,0 0.125,-0.09375 0,-0.03125 c 0.47377,-0.496512 0.59793,-1.433387 0.0312,-2 l -1.1875,-1.1875 c -0.56663,-0.566616 -1.50348,-0.442468 -2,0.03125 -0.007,0.0066 -0.0245,-0.0067 -0.0312,0 l -0.0937,0.125 0,-0.15625 c 0,-0.717907 -0.60649,-1.4375 -1.40625,-1.4375 l -1.6875,0 z m 0,1 1.6875,0 c 0.23613,0 0.40625,0.197334 0.40625,0.4375 l 0,0.84375 c 0.42221,0.112495 0.81838,0.285321 1.1875,0.5 l 0.625,-0.59375 c 0.16982,-0.1698 0.42678,-0.198216 0.59375,-0.03125 l 1.1875,1.1875 c 0.16699,0.166968 0.13857,0.423929 -0.0312,0.59375 l -0.59375,0.625 c 0.21468,0.369123 0.38751,0.765287 0.5,1.1875 l 0.84375,0 c 0.24016,0 0.4375,0.170122 0.4375,0.40625 l 0,1.6875 c 0,0.236129 -0.19734,0.406268 -0.4375,0.40625 l -0.84375,0 c -0.11249,0.422215 -0.28532,0.81838 -0.5,1.1875 l 0.59375,0.625 c 0.1698,0.169822 0.19822,0.426782 0.0312,0.59375 l -1.1875,1.1875 c -0.16697,0.166988 -0.42393,0.13857 -0.59375,-0.03125 l -0.625,-0.59375 c -0.36912,0.214678 -0.76529,0.387506 -1.1875,0.5 l 0,0.84375 c 0,0.240164 -0.17012,0.4375 -0.40625,0.4375 l -1.6875,0 c -0.23613,0 -0.40625,-0.197336 -0.40625,-0.4375 l 0,-0.84375 c -0.42221,-0.112494 -0.81838,-0.285322 -1.1875,-0.5 l -0.625,0.59375 c -0.16982,0.1698 -0.42678,0.198218 -0.59375,0.03125 l -1.1875,-1.1875 c -0.16698,-0.166968 -0.13857,-0.423928 0.0312,-0.59375 l 0.59375,-0.625 c -0.21468,-0.36912 -0.3875,-0.765285 -0.5,-1.1875 l -0.84375,0 c -0.24016,0 -0.4375,-0.170122 -0.4375,-0.40625 l 0,-1.6875 c 0,-0.236129 0.19734,-0.40625 0.4375,-0.40625 l 0.84375,0 c 0.1125,-0.422214 0.28532,-0.818378 0.5,-1.1875 l -0.59375,-0.625 c -0.16981,-0.169822 -0.19822,-0.426782 -0.0312,-0.59375 l 1.1875,-1.1875 c 0.0835,-0.08348 0.20262,-0.125943 0.3125,-0.125 0.10988,9.3e-4 0.19634,0.07134 0.28125,0.15625 l 0.625,0.59375 c 0.36912,-0.214678 0.76529,-0.387506 1.1875,-0.5 l 0,-0.84375 c 0,-0.240164 0.17012,-0.4375 0.40625,-0.4375 z m 0.84375,4.1875 c -1.0013,0 -1.8125,0.811201 -1.8125,1.8125 0,1.001301 0.8112,1.8125 1.8125,1.8125 1.0013,0 1.8125,-0.811199 1.8125,-1.8125 0,-1.001299 -0.8112,-1.8125 -1.8125,-1.8125 z m 0,1 c 0.45491,0 0.8125,0.357595 0.8125,0.8125 0,0.454906 -0.3576,0.8125 -0.8125,0.8125 -0.4549,0 -0.8125,-0.357594 -0.8125,-0.8125 0,-0.454904 0.3576,-0.8125 0.8125,-0.8125 z"
     id="path3989-4" />
  <path
     inkscape:connector-curvature="0"
     d="m 57.409712,15.998836 c -1.890995,0 -3.422178,1.568654 -3.422178,3.491962 l 0,6.774426 c -3.381175,0.900883 -6.611954,2.261642 -9.56797,3.980843 l -4.818901,-4.818909 c -0.679903,-0.679983 -1.494585,-1.040147 -2.374534,-1.047595 -0.88003,-0.0076 -1.775836,0.3092 -2.444367,0.977747 l -9.428306,9.428313 c -1.337142,1.337127 -1.290213,3.458944 0.07207,4.818926 l 4.818901,4.818909 c -1.719217,2.956031 -3.079984,6.186795 -3.980915,9.568002 l -6.774362,0 c -1.923349,0 -3.49201,1.531158 -3.49201,3.422137 l 0,13.269484 c 0,1.890979 1.568661,3.422146 3.49201,3.422146 l 6.774362,0 c 0.900931,3.381207 2.261698,6.61197 3.980915,9.567986 l -4.818981,4.818925 c -1.359966,1.359982 -1.406975,3.481783 -0.07207,4.818909 l 9.428306,9.428333 c 1.337142,1.33712 3.458935,1.29013 4.818981,-0.0697 l 4.818901,-4.819081 c 2.956016,1.719201 6.186795,3.079971 9.56797,3.980851 l 0,6.77443 c 0,1.9233 1.531183,3.49197 3.422178,3.49197 l 13.269476,0 c 1.890994,0 3.422177,-1.56867 3.422177,-3.49197 l 0,-6.77443 c 3.381175,-0.90088 6.611955,-2.26165 9.56797,-3.980851 l 4.818901,4.818931 c 1.359966,1.35997 3.481839,1.40696 4.818901,0.0697 l 9.428383,-9.428325 c 1.33707,-1.337126 1.29014,-3.458936 -0.0721,-4.818917 l -4.818902,-4.818934 c 1.719137,-2.956015 3.079902,-6.186779 3.980832,-9.567994 l 6.77444,0 c 1.92327,1.45e-4 3.49193,-1.531006 3.49193,-3.421985 l 0,-13.269492 c 0,-1.890979 -1.56866,-3.422137 -3.49193,-3.422137 l -6.77444,0 c -0.90093,-3.381199 -2.261695,-6.611963 -3.980832,-9.567994 l 4.818902,-4.818917 c 1.35996,-1.359974 1.40697,-3.481791 0.0721,-4.818918 l -9.428303,-9.428329 c -1.337142,-1.33711 -3.458935,-1.290134 -4.818981,0.06967 l -4.818901,4.818925 C 80.71332,28.526666 77.48254,27.165907 74.101365,26.265016 l 0,-6.77441 c 0,-1.923317 -1.531183,-3.491978 -3.422177,-3.491978 l -13.269476,0 z m 6.634778,33.522908 c 8.018688,0 14.526535,6.507911 14.526535,14.526591 0,8.018697 -6.507927,14.5266 -14.526535,14.5266 -8.018689,0 -14.526616,-6.507903 -14.526616,-14.5266 0,-8.01868 6.507927,-14.526591 14.526616,-14.526591 z"
     id="rect3267-3"
     style="fill:#3399ff;fill-opacity:1;fill-rule:nonzero;stroke:none;stroke-width:1;marker:none;visibility:visible;display:block;overflow:visible;enable-background:accumulate" />
</svg>
