<?xml version="1.0" encoding="UTF-8" standalone="no"?>
<!-- Created with Inkscape (http://www.inkscape.org/) -->

<svg
   xmlns:dc="http://purl.org/dc/elements/1.1/"
   xmlns:cc="http://creativecommons.org/ns#"
   xmlns:rdf="http://www.w3.org/1999/02/22-rdf-syntax-ns#"
   xmlns:svg="http://www.w3.org/2000/svg"
   xmlns="http://www.w3.org/2000/svg"
   xmlns:sodipodi="http://sodipodi.sourceforge.net/DTD/sodipodi-0.dtd"
   xmlns:inkscape="http://www.inkscape.org/namespaces/inkscape"
   width="128"
   height="128"
   id="svg3027"
   version="1.1"
   inkscape:version="0.48.5 r10040"
   sodipodi:docname="system-log-out.svg"
   inkscape:export-xdpi="90"
   inkscape:export-ydpi="90">
  <metadata
     id="metadata5">
    <rdf:RDF>
      <cc:Work
         rdf:about="">
        <dc:format>image/svg+xml</dc:format>
        <dc:type
           rdf:resource="http://purl.org/dc/dcmitype/StillImage" />
        <dc:title />
      </cc:Work>
    </rdf:RDF>
  </metadata>
  <defs
     id="defs3029" />
  <sodipodi:namedview
     id="base"
     pagecolor="#ffffff"
     bordercolor="#666666"
     borderopacity="1.0"
     inkscape:pageopacity="0.0"
     inkscape:pageshadow="2"
     inkscape:zoom="3.959798"
     inkscape:cx="66.06226"
     inkscape:cy="74.589172"
     inkscape:document-units="px"
     inkscape:current-layer="svg3027"
     showgrid="true"
     inkscape:window-width="1013"
     inkscape:window-height="847"
     inkscape:window-x="1932"
     inkscape:window-y="-22"
     inkscape:window-maximized="0"
     inkscape:showpageshadow="false"
     borderlayer="false"
     showguides="true"
     inkscape:guide-bbox="true"
     inkscape:snap-to-guides="false"
     inkscape:snap-grids="false">
    <inkscape:grid
       type="xygrid"
       id="grid2981"
       empspacing="4"
       visible="true"
       enabled="true"
       snapvisiblegridlinesonly="true"
       spacingx="4px"
       spacingy="4px"
       dotted="false" />
    <sodipodi:guide
       orientation="0,1"
       position="0,120"
       id="guide2999" />
    <sodipodi:guide
       orientation="1,0"
       position="120,128"
       id="guide3001" />
    <sodipodi:guide
       orientation="0,1"
       position="0,8"
       id="guide3003" />
    <sodipodi:guide
       orientation="1,0"
       position="8,128"
       id="guide3005" />
  </sodipodi:namedview>
  <path
     inkscape:connector-curvature="0"
     style="color:#000000;fill:#3399ff;fill-opacity:1;stroke:none;stroke-width:6;marker:none;visibility:visible;display:inline;overflow:visible;enable-background:accumulate"
     d="m 119.93239,63.981582 c 0,-4.128491 -3.32366,-7.45215 -7.45215,-7.45215 l -44.712903,0 c -4.128491,0 -7.45215,3.323659 -7.45215,7.45215 0,4.128491 3.323659,7.45215 7.45215,7.45215 l 44.712903,0 c 4.12849,0 7.45215,-3.323659 7.45215,-7.45215 z M 106.5418,85.755833 A 7.4528953,7.4528953 0 0 0 92.569024,82.611957 C 82.235617,100.50994 59.582797,106.56882 41.684811,96.235419 23.786824,85.902013 17.727944,63.249192 28.061349,45.351207 38.394756,27.453221 61.047576,21.394338 78.945562,31.727745 c 5.664679,3.270504 10.352959,7.958782 13.623462,13.623462 a 7.4596514,7.4596514 0 0 0 12.924826,-7.45215 C 100.9156,29.969294 94.327474,23.381171 86.397712,18.802922 61.523996,4.442076 29.497373,13.025341 15.136524,37.899057 0.77568372,62.772772 9.3589437,94.799395 34.232661,109.16024 59.106377,123.52109 91.133,114.93782 105.49385,90.064107 a 7.4528953,7.4528953 0 0 0 1.04795,-4.308274 z"
     id="rect4223" />
</svg>
