<?xml version="1.0" encoding="UTF-8" standalone="no"?>
<!-- Created with Inkscape (http://www.inkscape.org/) -->

<svg
   xmlns:dc="http://purl.org/dc/elements/1.1/"
   xmlns:cc="http://creativecommons.org/ns#"
   xmlns:rdf="http://www.w3.org/1999/02/22-rdf-syntax-ns#"
   xmlns:svg="http://www.w3.org/2000/svg"
   xmlns="http://www.w3.org/2000/svg"
   xmlns:sodipodi="http://sodipodi.sourceforge.net/DTD/sodipodi-0.dtd"
   xmlns:inkscape="http://www.inkscape.org/namespaces/inkscape"
   width="128"
   height="128"
   id="svg3027"
   version="1.1"
   inkscape:version="0.48.5 r10040"
   sodipodi:docname="system-lock-screen.svg"
   inkscape:export-xdpi="90"
   inkscape:export-ydpi="90">
  <metadata
     id="metadata5">
    <rdf:RDF>
      <cc:Work
         rdf:about="">
        <dc:format>image/svg+xml</dc:format>
        <dc:type
           rdf:resource="http://purl.org/dc/dcmitype/StillImage" />
        <dc:title />
      </cc:Work>
    </rdf:RDF>
  </metadata>
  <defs
     id="defs3029" />
  <sodipodi:namedview
     id="base"
     pagecolor="#ffffff"
     bordercolor="#666666"
     borderopacity="1.0"
     inkscape:pageopacity="0.0"
     inkscape:pageshadow="2"
     inkscape:zoom="3.959798"
     inkscape:cx="31.483174"
     inkscape:cy="72.738008"
     inkscape:document-units="px"
     inkscape:current-layer="svg3027"
     showgrid="true"
     inkscape:window-width="1680"
     inkscape:window-height="979"
     inkscape:window-x="1688"
     inkscape:window-y="0"
     inkscape:window-maximized="0"
     inkscape:showpageshadow="false"
     borderlayer="false"
     showguides="true"
     inkscape:guide-bbox="true"
     inkscape:snap-to-guides="false"
     inkscape:snap-grids="false">
    <inkscape:grid
       type="xygrid"
       id="grid2981"
       empspacing="4"
       visible="true"
       enabled="true"
       snapvisiblegridlinesonly="true"
       spacingx="4px"
       spacingy="4px"
       dotted="false" />
    <sodipodi:guide
       orientation="0,1"
       position="0,120"
       id="guide2999" />
    <sodipodi:guide
       orientation="1,0"
       position="120,128"
       id="guide3001" />
    <sodipodi:guide
       orientation="0,1"
       position="0,8"
       id="guide3003" />
    <sodipodi:guide
       orientation="1,0"
       position="8,128"
       id="guide3005" />
  </sodipodi:namedview>
  <path
     inkscape:connector-curvature="0"
     style="color:#000000;fill:#3399ff;fill-opacity:1;stroke:none;stroke-width:6;marker:none;visibility:visible;display:inline;overflow:visible;enable-background:accumulate"
     d="m 85.828393,21.493919 c -3.199138,0.190442 -6.124743,2.677088 -6.828236,5.803723 -0.703493,3.126636 0.875096,6.626725 3.68436,8.169058 C 100.5825,45.800107 106.64138,68.452927 96.307979,86.350913 85.974573,104.2489 63.321752,110.30778 45.423767,99.974375 27.525781,89.640968 21.466898,66.988148 31.800305,49.090162 35.070809,43.425483 39.759087,38.737203 45.423767,35.4667 c 1.691496,-0.975672 2.970981,-2.64158 3.47731,-4.527507 0.506328,-1.885928 0.233267,-3.968658 -0.742109,-5.660325 -0.975375,-1.691667 -2.641057,-2.971445 -4.526896,-3.478105 -1.885838,-0.50666 -3.968617,-0.233965 -5.660455,0.741114 C 30.041854,27.120128 23.453731,33.70825 18.875482,41.638012 4.5146359,66.511728 13.097901,98.538351 37.971617,112.8992 62.845332,127.26004 94.871955,118.67678 109.2328,93.803063 123.59365,68.929347 115.01038,36.902724 90.136667,22.541877 88.850018,21.769499 87.326054,21.398805 85.828393,21.493919 z"
     id="rect4223"
     sodipodi:nodetypes="cscssscssscssscc" />
  <path
     d="m 59.228812,33.260588 9.378522,0 c 5.1957,0 9.378521,4.18282 9.378521,9.378521 l 0,14.06777 7.180428,0 c 1.212314,0 2.19809,1.045706 2.19809,2.34463 l 0,32.82482 c 0,1.298925 -0.985776,2.344631 -2.19809,2.344631 l -42.496419,0 c -1.212337,0 -2.198091,-1.045706 -2.198091,-2.344631 l 0,-32.82482 c 0,-1.298924 0.985754,-2.34463 2.198091,-2.34463 l 7.18043,0 0,-14.06777 c 0,-5.195701 4.182819,-9.378521 9.378518,-9.378521 z m 0,6.887351 c -1.488018,0 -2.491167,1.003165 -2.491167,2.49117 l 0,14.06777 14.360858,0 0,-14.06777 c 0,-1.488005 -1.003173,-2.49117 -2.491169,-2.49117 z"
     id="path3921"
     style="fill:#3399ff;fill-opacity:1;stroke:none;display:inline"
     inkscape:connector-curvature="0"
     sodipodi:nodetypes="ssscsssssssscssssccsss" />
</svg>
