<?xml version="1.0" encoding="UTF-8" standalone="no"?>
<!-- Created with Inkscape (http://www.inkscape.org/) -->

<svg
   xmlns:dc="http://purl.org/dc/elements/1.1/"
   xmlns:cc="http://creativecommons.org/ns#"
   xmlns:rdf="http://www.w3.org/1999/02/22-rdf-syntax-ns#"
   xmlns:svg="http://www.w3.org/2000/svg"
   xmlns="http://www.w3.org/2000/svg"
   xmlns:sodipodi="http://sodipodi.sourceforge.net/DTD/sodipodi-0.dtd"
   xmlns:inkscape="http://www.inkscape.org/namespaces/inkscape"
   width="128"
   height="128"
   id="svg3027"
   version="1.1"
   inkscape:version="0.48.5 r10040"
   sodipodi:docname="ZZ-BASE.svg"
   inkscape:export-xdpi="90"
   inkscape:export-ydpi="90">
  <metadata
     id="metadata5">
    <rdf:RDF>
      <cc:Work
         rdf:about="">
        <dc:format>image/svg+xml</dc:format>
        <dc:type
           rdf:resource="http://purl.org/dc/dcmitype/StillImage" />
        <dc:title></dc:title>
      </cc:Work>
    </rdf:RDF>
  </metadata>
  <defs
     id="defs3029" />
  <sodipodi:namedview
     id="base"
     pagecolor="#ffffff"
     bordercolor="#666666"
     borderopacity="1.0"
     inkscape:pageopacity="0.0"
     inkscape:pageshadow="2"
     inkscape:zoom="3.959798"
     inkscape:cx="66.06226"
     inkscape:cy="74.589172"
     inkscape:document-units="px"
     inkscape:current-layer="svg3027"
     showgrid="true"
     inkscape:window-width="1013"
     inkscape:window-height="847"
     inkscape:window-x="1932"
     inkscape:window-y="1"
     inkscape:window-maximized="0"
     inkscape:showpageshadow="false"
     borderlayer="false"
     showguides="true"
     inkscape:guide-bbox="true"
     inkscape:snap-to-guides="false"
     inkscape:snap-grids="false">
    <inkscape:grid
       type="xygrid"
       id="grid2981"
       empspacing="4"
       visible="true"
       enabled="true"
       snapvisiblegridlinesonly="true"
       spacingx="4px"
       spacingy="4px"
       dotted="false" />
    <sodipodi:guide
       orientation="0,1"
       position="0,120"
       id="guide2999" />
    <sodipodi:guide
       orientation="1,0"
       position="120,128"
       id="guide3001" />
    <sodipodi:guide
       orientation="0,1"
       position="0,8"
       id="guide3003" />
    <sodipodi:guide
       orientation="1,0"
       position="8,128"
       id="guide3005" />
  </sodipodi:namedview>
  <path
     inkscape:connector-curvature="0"
     style="color:#000000;fill:#3399ff;fill-opacity:1;stroke:none;stroke-width:6;marker:none;visibility:visible;display:inline;overflow:visible;enable-background:accumulate"
     d="m 64.054142,8.1033375 c -4.128491,0 -7.45215,3.3236585 -7.45215,7.4521495 l 0,44.7129 c 0,4.128491 3.323659,7.45215 7.45215,7.45215 4.128491,0 7.45215,-3.323659 7.45215,-7.45215 l 0,-44.7129 c 0,-4.128491 -3.323659,-7.4521495 -7.45215,-7.4521495 z M 85.828393,21.493919 A 7.4528953,7.4528953 0 0 0 82.684517,35.4667 C 100.5825,45.800107 106.64138,68.452927 96.307979,86.350913 85.974573,104.2489 63.321752,110.30778 45.423767,99.974375 27.525781,89.640968 21.466898,66.988148 31.800305,49.090162 35.070809,43.425483 39.759087,38.737203 45.423767,35.4667 A 7.4596514,7.4596514 0 0 0 37.971617,22.541877 C 30.041854,27.120128 23.453731,33.70825 18.875482,41.638012 4.5146359,66.511728 13.097901,98.538351 37.971617,112.8992 62.845332,127.26004 94.871955,118.67678 109.2328,93.803063 123.59365,68.929347 115.01038,36.902724 90.136667,22.541877 a 7.4528953,7.4528953 0 0 0 -4.308274,-1.047958 z"
     id="rect4223" />
</svg>
