<?xml version="1.0" encoding="UTF-8" standalone="no"?>
<!-- Created with Inkscape (http://www.inkscape.org/) -->

<svg
   xmlns:dc="http://purl.org/dc/elements/1.1/"
   xmlns:cc="http://creativecommons.org/ns#"
   xmlns:rdf="http://www.w3.org/1999/02/22-rdf-syntax-ns#"
   xmlns:svg="http://www.w3.org/2000/svg"
   xmlns="http://www.w3.org/2000/svg"
   xmlns:sodipodi="http://sodipodi.sourceforge.net/DTD/sodipodi-0.dtd"
   xmlns:inkscape="http://www.inkscape.org/namespaces/inkscape"
   width="128"
   height="128"
   id="svg3027"
   version="1.1"
   inkscape:version="0.48.5 r10040"
   sodipodi:docname="view-refresh.svg">
  <defs
     id="defs3029" />
  <sodipodi:namedview
     id="base"
     pagecolor="#ffffff"
     bordercolor="#666666"
     borderopacity="1.0"
     inkscape:pageopacity="0.0"
     inkscape:pageshadow="2"
     inkscape:zoom="2.8"
     inkscape:cx="68.006648"
     inkscape:cy="77.070011"
     inkscape:document-units="px"
     inkscape:current-layer="svg3027"
     showgrid="false"
     inkscape:window-width="1013"
     inkscape:window-height="847"
     inkscape:window-x="506"
     inkscape:window-y="20"
     inkscape:window-maximized="0" />
  <metadata
     id="metadata3032">
    <rdf:RDF>
      <cc:Work
         rdf:about="">
        <dc:format>image/svg+xml</dc:format>
        <dc:type
           rdf:resource="http://purl.org/dc/dcmitype/StillImage" />
        <dc:title></dc:title>
      </cc:Work>
    </rdf:RDF>
  </metadata>
  <g
     inkscape:label="Livello 1"
     inkscape:groupmode="layer"
     id="layer1"
     transform="translate(0,-924.36218)" />
  <path
     inkscape:connector-curvature="0"
     d="m 83.748268,9.8958731 a 6.7292885,6.7292885 0 0 0 -5.256732,6.7286149 l 0,26.914462 a 6.7292885,6.7292885 0 0 0 6.728617,6.728617 l 26.914467,0 a 6.7292885,6.7292885 0 1 0 0,-13.457232 l -20.185852,0 0,-20.185847 a 6.7292885,6.7292885 0 0 0 -8.2005,-6.7286149 z"
     id="path12113-8"
     style="font-size:medium;font-style:normal;font-variant:normal;font-weight:normal;font-stretch:normal;text-indent:0;text-align:start;text-decoration:none;line-height:normal;letter-spacing:normal;word-spacing:normal;text-transform:none;direction:ltr;block-progression:tb;writing-mode:lr-tb;text-anchor:start;baseline-shift:baseline;color:#000000;fill:#3397ff;fill-opacity:1;stroke:none;stroke-width:2;marker:none;visibility:visible;display:inline;overflow:visible;enable-background:new;font-family:Sans;-inkscape-font-specification:Sans" />
  <path
     inkscape:connector-curvature="0"
     d="m 111.29354,9.8958731 a 6.7292885,6.7292885 0 0 0 -3.99511,1.8924229 L 80.38396,38.702759 a 6.839409,6.839409 0 1 0 9.672384,9.672384 L 116.97081,21.460681 A 6.7292885,6.7292885 0 0 0 111.29354,9.8958731 z"
     id="path12147-8"
     style="font-size:medium;font-style:normal;font-variant:normal;font-weight:normal;font-stretch:normal;text-indent:0;text-align:start;text-decoration:none;line-height:normal;letter-spacing:normal;word-spacing:normal;text-transform:none;direction:ltr;block-progression:tb;writing-mode:lr-tb;text-anchor:start;baseline-shift:baseline;color:#000000;fill:#3397ff;fill-opacity:1;stroke:none;stroke-width:2;marker:none;visibility:visible;display:inline;overflow:visible;enable-background:new;font-family:Sans;-inkscape-font-specification:Sans" />
  <rect
     x="78.492851"
     y="43.538956"
     id="rect12919-5"
     height="6.7286153"
     style="color:#000000;fill:#3397ff;fill-opacity:1;stroke:none;stroke-width:2;marker:none;visibility:visible;display:inline;overflow:visible;enable-background:new"
     width="6.7286153" />
  <path
     inkscape:connector-curvature="0"
     d="m 17.303188,50.267567 a 6.7292885,6.7292885 0 0 0 -6.097808,6.728615 l 0,53.828928 a 6.7292885,6.7292885 0 0 0 6.728616,6.7286 l 53.828925,0 a 6.7292885,6.7292885 0 0 0 6.728615,-6.7286 l 0,-53.828928 a 6.7292885,6.7292885 0 0 0 -6.728615,-6.728615 l -53.828925,0 a 6.7292885,6.7292885 0 0 0 -0.630808,0 z m 7.359423,13.457231 40.371694,0 0,40.371682 -40.371694,0 0,-40.371682 z"
     id="rect13039"
     style="font-size:medium;font-style:normal;font-variant:normal;font-weight:normal;font-stretch:normal;text-indent:0;text-align:start;text-decoration:none;line-height:normal;letter-spacing:normal;word-spacing:normal;text-transform:none;direction:ltr;block-progression:tb;writing-mode:lr-tb;text-anchor:start;baseline-shift:baseline;color:#000000;fill:#3397ff;fill-opacity:1;stroke:none;stroke-width:2;marker:none;visibility:visible;display:inline;overflow:visible;enable-background:new;font-family:Sans;-inkscape-font-specification:Sans" />
  <path
     inkscape:connector-curvature="0"
     d="m 17.303188,63.724798 a 6.7360051,6.7360051 0 0 0 0.630808,13.457231 l 53.828925,0 a 6.7292885,6.7292885 0 1 0 0,-13.457231 l -53.828925,0 a 6.7292885,6.7292885 0 0 0 -0.630808,0 z"
     id="path13041"
     style="font-size:medium;font-style:normal;font-variant:normal;font-weight:normal;font-stretch:normal;text-indent:0;text-align:start;text-decoration:none;line-height:normal;letter-spacing:normal;word-spacing:normal;text-transform:none;direction:ltr;block-progression:tb;writing-mode:lr-tb;text-anchor:start;baseline-shift:baseline;color:#000000;fill:#3397ff;fill-opacity:1;fill-rule:evenodd;stroke:none;stroke-width:2;marker:none;visibility:visible;display:inline;overflow:visible;enable-background:new;font-family:Sans;-inkscape-font-specification:Sans" />
  <rect
     x="112.13593"
     y="43.538956"
     id="rect4479-2-9-9-0-8-6"
     height="6.7286153"
     width="6.7286153"
     style="color:#000000;fill:#3397ff;fill-opacity:1;fill-rule:nonzero;stroke:none;stroke-width:2;marker:none;visibility:visible;display:inline;overflow:visible;enable-background:accumulate" />
  <rect
     x="78.492851"
     y="9.8958759"
     id="rect4479-2-9-9-0-8-6-6"
     height="6.7286153"
     width="6.7286153"
     style="color:#000000;fill:#3397ff;fill-opacity:1;fill-rule:nonzero;stroke:none;stroke-width:2;marker:none;visibility:visible;display:inline;overflow:visible;enable-background:accumulate" />
  <rect
     x="71.764236"
     y="110.82513"
     id="rect4479-2-9-9-0-8-6-9"
     height="6.7286153"
     width="6.7286153"
     style="color:#000000;fill:#3397ff;fill-opacity:1;fill-rule:nonzero;stroke:none;stroke-width:2;marker:none;visibility:visible;display:inline;overflow:visible;enable-background:accumulate" />
  <rect
     x="11.206725"
     y="110.82513"
     id="rect4479-2-9-9-0-8-6-4"
     height="6.7286153"
     width="6.7286153"
     style="color:#000000;fill:#3397ff;fill-opacity:1;fill-rule:nonzero;stroke:none;stroke-width:2;marker:none;visibility:visible;display:inline;overflow:visible;enable-background:accumulate" />
</svg>
