<?xml version="1.0" encoding="UTF-8" standalone="no"?>
<!-- Created with Inkscape (http://www.inkscape.org/) -->

<svg
   xmlns:dc="http://purl.org/dc/elements/1.1/"
   xmlns:cc="http://creativecommons.org/ns#"
   xmlns:rdf="http://www.w3.org/1999/02/22-rdf-syntax-ns#"
   xmlns:svg="http://www.w3.org/2000/svg"
   xmlns="http://www.w3.org/2000/svg"
   xmlns:sodipodi="http://sodipodi.sourceforge.net/DTD/sodipodi-0.dtd"
   xmlns:inkscape="http://www.inkscape.org/namespaces/inkscape"
   width="128"
   height="128"
   id="svg3027"
   version="1.1"
   inkscape:version="0.48.5 r10040"
   sodipodi:docname="address-book-new.svg"
   inkscape:export-xdpi="90"
   inkscape:export-ydpi="90">
  <metadata
     id="metadata5">
    <rdf:RDF>
      <cc:Work
         rdf:about="">
        <dc:format>image/svg+xml</dc:format>
        <dc:type
           rdf:resource="http://purl.org/dc/dcmitype/StillImage" />
        <dc:title />
      </cc:Work>
    </rdf:RDF>
  </metadata>
  <defs
     id="defs3029" />
  <sodipodi:namedview
     id="base"
     pagecolor="#ffffff"
     bordercolor="#666666"
     borderopacity="1.0"
     inkscape:pageopacity="0.0"
     inkscape:pageshadow="2"
     inkscape:zoom="2.8"
     inkscape:cx="80.803086"
     inkscape:cy="41.753654"
     inkscape:document-units="px"
     inkscape:current-layer="svg3027"
     showgrid="true"
     inkscape:window-width="1680"
     inkscape:window-height="979"
     inkscape:window-x="1680"
     inkscape:window-y="0"
     inkscape:window-maximized="1"
     inkscape:showpageshadow="false"
     borderlayer="false"
     showguides="true"
     inkscape:guide-bbox="true"
     inkscape:snap-to-guides="false"
     inkscape:snap-grids="false">
    <inkscape:grid
       type="xygrid"
       id="grid2981"
       empspacing="4"
       visible="true"
       enabled="true"
       snapvisiblegridlinesonly="true"
       spacingx="4px"
       spacingy="4px"
       dotted="false" />
    <sodipodi:guide
       orientation="0,1"
       position="0,120"
       id="guide2999" />
    <sodipodi:guide
       orientation="1,0"
       position="120,128"
       id="guide3001" />
    <sodipodi:guide
       orientation="0,1"
       position="0,8"
       id="guide3003" />
    <sodipodi:guide
       orientation="1,0"
       position="8,128"
       id="guide3005" />
  </sodipodi:namedview>
  <g
     id="text3653"
     style="font-size:44.84671402px;font-style:normal;font-variant:normal;font-weight:normal;font-stretch:normal;text-align:start;line-height:125%;writing-mode:lr-tb;text-anchor:start;fill:#3399ff;fill-opacity:1;stroke:none;font-family:Droid Sans;-inkscape-font-specification:Abandoned Bitplane"
     transform="translate(-76.455589,-16.722105)">
    <path
       style="fill:#3399ff;fill-opacity:1"
       d="M 69.84375 20.59375 C 63.50644 20.593822 57.77857 21.704752 52.65625 23.9375 C 47.56672 26.170387 43.20564 29.24888 39.59375 33.15625 C 36.01465 37.06374 33.24979 41.710352 31.3125 47.0625 C 29.3752 52.381903 28.40625 58.108196 28.40625 64.28125 C 28.40625 66.612341 28.580338 68.833935 28.84375 70.96875 L 35.25 70.96875 C 35.584256 70.96875 35.919415 70.985602 36.25 71 C 35.92684 68.791002 35.749995 66.428242 35.75 63.9375 C 35.74999 58.618169 36.49113 53.746929 37.96875 49.28125 C 39.44633 44.782825 41.61204 40.907025 44.46875 37.65625 C 47.35826 34.37275 50.92041 31.806018 55.15625 30 C 59.39198 28.161271 64.29448 27.250065 69.84375 27.25 C 73.88246 27.250065 77.6163 27.905391 81.03125 29.21875 C 84.47893 30.499401 87.44193 32.379556 89.9375 34.875 C 92.43294 37.370559 94.40049 40.449055 95.8125 44.09375 C 97.22436 47.705711 97.90616 51.83739 97.90625 56.5 C 97.90616 59.061208 97.70646 61.48279 97.3125 63.78125 C 96.91841 66.079768 96.35048 68.105075 95.5625 69.8125 C 94.80721 71.519971 93.83668 72.888367 92.6875 73.90625 C 91.53818 74.891335 90.22911 75.375018 88.71875 75.375 C 87.96345 75.375018 87.2223 75.261115 86.5 75.03125 C 85.81039 74.768582 85.18314 74.312979 84.625 73.65625 C 84.06673 72.999558 83.61114 72.116431 83.25 71 C 82.92166 69.883614 82.74996 68.427809 82.75 66.6875 C 82.74996 66.58902 82.74996 66.475128 82.75 66.34375 C 82.74996 66.212435 82.74996 66.04396 82.75 65.78125 C 82.74996 65.518591 82.74996 65.145639 82.75 64.71875 C 82.7828 64.25908 82.81085 63.691163 82.84375 62.96875 L 83.96875 42.46875 C 83.21347 42.206116 82.27419 41.950236 81.125 41.6875 C 80.00853 41.392031 78.78372 41.136149 77.4375 40.90625 C 76.0912 40.676452 74.66505 40.47515 73.1875 40.34375 C 71.70984 40.212469 70.22754 40.156302 68.75 40.15625 C 65.53205 40.156302 62.6252 40.727393 60.03125 41.84375 C 57.43721 42.96021 55.24503 44.497079 53.40625 46.5 C 51.60027 48.503015 50.20378 50.898104 49.21875 53.65625 C 48.2665 56.414476 47.78123 59.433639 47.78125 62.75 C 47.78123 65.573889 48.12292 68.168699 48.8125 70.5 C 49.53484 72.831345 50.55996 74.825402 51.90625 76.5 C 53.25246 78.141795 54.90641 79.424367 56.84375 80.34375 C 58.81385 81.263156 61.06536 81.718758 63.59375 81.71875 C 65.33398 81.718758 66.93018 81.490961 68.375 81.03125 C 69.85255 80.571562 71.16321 79.944315 72.3125 79.15625 C 73.49454 78.335374 74.51964 77.396086 75.40625 76.3125 C 76.29276 75.228943 77.03392 74.058685 77.625 72.84375 L 77.8125 72.84375 C 78.00947 73.993014 78.38083 75.135193 78.90625 76.21875 C 79.4644 77.269503 80.17746 78.210374 81.03125 79.03125 C 81.88493 79.85215 82.88034 80.507477 84.0625 81 C 85.27733 81.492546 86.64732 81.718758 88.125 81.71875 C 90.02938 81.718758 91.76757 81.406724 93.34375 80.75 C 94.95263 80.060465 96.37719 79.119589 97.625 77.9375 C 98.87268 76.755433 99.95554 75.357373 100.875 73.78125 C 101.82715 72.172325 102.59638 70.463814 103.1875 68.625 C 103.81128 66.753395 104.26688 64.785834 104.5625 62.75 C 104.89082 60.68139 105.06243 58.629592 105.0625 56.59375 C 105.06241 51.011744 104.17769 46.026602 102.4375 41.59375 C 100.69713 37.128166 98.27714 33.336603 95.125 30.25 C 92.00555 27.130686 88.27014 24.766846 83.96875 23.125 C 79.66721 21.450456 74.96603 20.593822 69.84375 20.59375 z M 68.75 46.5 C 70.12906 46.500048 71.43969 46.613946 72.6875 46.84375 C 73.96804 47.040808 75.08055 47.26861 76 47.53125 L 75.3125 60 C 75.18112 62.265686 74.89557 64.345564 74.46875 66.25 C 74.04185 68.121651 73.41459 69.745927 72.59375 71.125 C 71.77283 72.471278 70.71804 73.526051 69.4375 74.28125 C 68.15689 75.003649 66.61841 75.375018 64.8125 75.375 C 62.02145 75.375018 59.79959 74.406067 58.125 72.46875 C 56.48317 70.498636 55.65621 67.33591 55.65625 62.96875 C 55.65621 60.932977 55.884 58.907667 56.34375 56.9375 C 56.8034 54.967402 57.54456 53.230812 58.5625 51.6875 C 59.61318 50.144271 60.95191 48.889776 62.59375 47.9375 C 64.2683 46.985313 66.32013 46.500048 68.75 46.5 z M 86.96875 90.59375 C 85.55678 91.15195 84.04798 91.69338 82.40625 92.21875 C 80.76441 92.71128 79.02622 93.13723 77.1875 93.53125 C 75.3815 93.92528 73.50133 94.23889 71.53125 94.46875 C 69.59391 94.69858 67.59668 94.8125 65.59375 94.8125 C 62.730164 94.8125 60.075938 94.567577 57.59375 94.09375 L 57.59375 100.875 C 57.59375 100.90631 57.593878 100.93747 57.59375 100.96875 C 60.148107 101.3617 62.87158 101.5625 65.71875 101.5625 C 69.98733 101.56249 73.8912 101.22238 77.4375 100.5 C 80.98368 99.77762 84.14484 98.779 86.96875 97.53125 L 86.96875 90.59375 z "
       transform="translate(76.455589,16.722105)"
       id="path3658" />
  </g>
  <path
     id="path3928"
     d="m 20.407454,76.507856 0,15.665611 -15.6656093,0 0,15.665603 15.6656093,0 0,15.66561 15.665611,0 0,-15.66561 15.665612,0 0,-15.665603 -15.665612,0 0,-15.665611 z"
     style="color:#000000;fill:#3399ff;fill-opacity:1;fill-rule:nonzero;stroke:none;stroke-width:1;marker:none;visibility:visible;display:inline;overflow:visible;enable-background:accumulate"
     inkscape:connector-curvature="0"
     sodipodi:nodetypes="ccccccccccccc" />
</svg>
