<?xml version="1.0" encoding="UTF-8" standalone="no"?>
<!-- Created with Inkscape (http://www.inkscape.org/) -->

<svg
   xmlns:dc="http://purl.org/dc/elements/1.1/"
   xmlns:cc="http://creativecommons.org/ns#"
   xmlns:rdf="http://www.w3.org/1999/02/22-rdf-syntax-ns#"
   xmlns:svg="http://www.w3.org/2000/svg"
   xmlns="http://www.w3.org/2000/svg"
   xmlns:sodipodi="http://sodipodi.sourceforge.net/DTD/sodipodi-0.dtd"
   xmlns:inkscape="http://www.inkscape.org/namespaces/inkscape"
   width="128"
   height="128"
   id="svg3027"
   version="1.1"
   inkscape:version="0.48.5 r10040"
   sodipodi:docname="BASE.svg"
   inkscape:export-xdpi="90"
   inkscape:export-ydpi="90">
  <metadata
     id="metadata5">
    <rdf:RDF>
      <cc:Work
         rdf:about="">
        <dc:format>image/svg+xml</dc:format>
        <dc:type
           rdf:resource="http://purl.org/dc/dcmitype/StillImage" />
        <dc:title></dc:title>
      </cc:Work>
    </rdf:RDF>
  </metadata>
  <defs
     id="defs3029" />
  <sodipodi:namedview
     id="base"
     pagecolor="#ffffff"
     bordercolor="#666666"
     borderopacity="1.0"
     inkscape:pageopacity="0.0"
     inkscape:pageshadow="2"
     inkscape:zoom="3.959798"
     inkscape:cx="66.06226"
     inkscape:cy="74.589172"
     inkscape:document-units="px"
     inkscape:current-layer="svg3027"
     showgrid="true"
     inkscape:window-width="1013"
     inkscape:window-height="847"
     inkscape:window-x="1932"
     inkscape:window-y="1"
     inkscape:window-maximized="0"
     inkscape:showpageshadow="false"
     borderlayer="false"
     showguides="true"
     inkscape:guide-bbox="true"
     inkscape:snap-to-guides="false"
     inkscape:snap-grids="false">
    <inkscape:grid
       type="xygrid"
       id="grid2981"
       empspacing="4"
       visible="true"
       enabled="true"
       snapvisiblegridlinesonly="true"
       spacingx="4px"
       spacingy="4px"
       dotted="false" />
    <sodipodi:guide
       orientation="0,1"
       position="0,120"
       id="guide2999" />
    <sodipodi:guide
       orientation="1,0"
       position="120,128"
       id="guide3001" />
    <sodipodi:guide
       orientation="0,1"
       position="0,8"
       id="guide3003" />
    <sodipodi:guide
       orientation="1,0"
       position="8,128"
       id="guide3005" />
  </sodipodi:namedview>
  <path
     style="fill:#3399ff;fill-opacity:1;stroke:none;display:inline"
     d="m 29.802403,8.288047 c -5.153878,0 -9.303029,4.149151 -9.303029,9.303029 l 0,34.086878 -3.125236,0 c -5.153877,0 -9.3030277,4.14915 -9.3030277,9.303028 l 0,31.034322 c 0,5.153878 4.1491507,9.303026 9.3030277,9.303026 l 3.125236,0 0,9.30303 c 0,5.15388 4.149151,9.30303 9.303029,9.30303 l 68.173756,0 c 1.460808,0 2.842311,-0.34977 4.070071,-0.94484 l -11.338062,-11.48343 -54.727973,0 c -1.717957,0 -3.125236,-1.33459 -3.125236,-3.05255 l 0,-3.12524 0,-6.17779 16.13494,0 C 47.012664,93.879882 45.124779,92.431956 43.393546,90.707066 34.504051,81.850138 31.660199,69.208264 34.889997,57.928426 l -2.035038,0 0,-6.250472 0,-27.909086 c 0,-1.717958 1.407279,-3.052556 3.125236,-3.052556 l 55.818172,0 c 1.717967,0 3.125236,1.334598 3.125236,3.052556 l 0,24.929209 c 6.913547,10.448764 7.183617,23.952485 1.017518,34.813677 0.03419,0.388037 0.09257,0.746996 0.14536,1.090199 0.213505,0.0018 0.24867,-0.0047 0.50876,0 1.820393,0.03184 5.242489,0.466649 7.704069,3.052556 0.0507,0.05324 0.0956,0.09026 0.14536,0.14536 l 11.55611,11.628786 c 2.25545,-1.6945 3.70667,-4.362581 3.70667,-7.413351 l 0,-31.034322 c 0,-5.153868 -4.14915,-9.303028 -9.30303,-9.303028 l -2.90719,0 -0.21793,0 0,-34.086878 c 0,-5.153878 -4.14915,-9.303029 -9.303025,-9.303029 l -68.173756,0 z m 9.303028,24.783849 0,6.250473 9.448389,0 c 5.574884,-3.709418 12.014889,-5.596353 18.460697,-5.596353 6.446138,0 12.935791,1.884396 18.533377,5.596353 l 3.343276,0 0,-6.250473 -49.785739,0 z m 27.909086,5.450994 c -7.356198,0 -14.669101,2.770149 -20.277695,8.358189 -11.217185,11.176087 -11.217182,29.306622 0,40.482711 9.778883,9.743054 24.835249,11.096506 35.976556,3.852035 1.893771,0.09468 4.947257,0.299716 6.032432,1.526278 1.477577,1.670077 -0.653305,5.594811 2.180398,8.140147 l 17.661222,17.87926 c 0,0 3.26622,3.47435 8.35819,-1.59896 5.09196,-5.07331 1.59895,-8.35819 1.59895,-8.35819 L 100.88336,90.997785 C 98.328651,88.174456 94.419425,90.216854 92.743205,88.744708 91.512136,87.663515 91.239231,84.671798 91.144247,82.784955 98.415355,71.684477 97.14377,56.624127 87.364892,46.881079 81.756305,41.293039 74.370724,38.52289 67.014517,38.52289 z m -27.909086,6.977271 0,3.270596 c 0.748283,-1.131118 1.570175,-2.218719 2.471117,-3.270596 l -2.471117,0 z m 28.054446,2.543797 c 10.575659,0 19.114816,8.577902 19.114816,19.114817 0,10.536921 -8.539157,19.114816 -19.114816,19.114816 -10.575657,5e-6 -19.187497,-8.577895 -19.187497,-19.114816 3e-6,-5.268459 2.128608,-10.136106 5.596354,-13.591144 3.467748,-3.45504 8.303311,-5.523673 13.591143,-5.523673 z m -11.192706,9.884468 c -2.024649,2.480218 -3.197914,5.742476 -3.197916,9.230349 0,7.942942 6.389259,14.317947 14.390622,14.317942 8.001372,0 14.317942,-6.353106 14.317942,-14.317942 0,-3.522681 -1.272817,-6.748408 -3.343276,-9.230349 l -22.167372,0 z m 48.259459,12.355585 c 1.71176,0 3.05256,1.413479 3.05256,3.125236 0,1.711757 -1.3408,3.125236 -3.05256,3.125236 -1.71176,0 -3.12523,-1.413479 -3.12523,-3.125236 0,-1.711757 1.41347,-3.125236 3.12523,-3.125236 z"
     id="Symbol"
     inkscape:connector-curvature="0" />
</svg>
