<?xml version="1.0" encoding="UTF-8" standalone="no"?>
<!-- Created with Inkscape (http://www.inkscape.org/) -->

<svg
   xmlns:dc="http://purl.org/dc/elements/1.1/"
   xmlns:cc="http://creativecommons.org/ns#"
   xmlns:rdf="http://www.w3.org/1999/02/22-rdf-syntax-ns#"
   xmlns:svg="http://www.w3.org/2000/svg"
   xmlns="http://www.w3.org/2000/svg"
   xmlns:sodipodi="http://sodipodi.sourceforge.net/DTD/sodipodi-0.dtd"
   xmlns:inkscape="http://www.inkscape.org/namespaces/inkscape"
   width="128"
   height="128"
   id="svg3027"
   version="1.1"
   inkscape:version="0.48.5 r10040"
   sodipodi:docname="BASE.svg"
   inkscape:export-xdpi="90"
   inkscape:export-ydpi="90">
  <metadata
     id="metadata5">
    <rdf:RDF>
      <cc:Work
         rdf:about="">
        <dc:format>image/svg+xml</dc:format>
        <dc:type
           rdf:resource="http://purl.org/dc/dcmitype/StillImage" />
        <dc:title></dc:title>
      </cc:Work>
    </rdf:RDF>
  </metadata>
  <defs
     id="defs3029" />
  <sodipodi:namedview
     id="base"
     pagecolor="#ffffff"
     bordercolor="#666666"
     borderopacity="1.0"
     inkscape:pageopacity="0.0"
     inkscape:pageshadow="2"
     inkscape:zoom="3.959798"
     inkscape:cx="66.057094"
     inkscape:cy="74.620493"
     inkscape:document-units="px"
     inkscape:current-layer="svg3027"
     showgrid="true"
     inkscape:window-width="1013"
     inkscape:window-height="847"
     inkscape:window-x="1932"
     inkscape:window-y="1"
     inkscape:window-maximized="0"
     inkscape:showpageshadow="false"
     borderlayer="false"
     showguides="true"
     inkscape:guide-bbox="true"
     inkscape:snap-to-guides="false"
     inkscape:snap-grids="false">
    <inkscape:grid
       type="xygrid"
       id="grid2981"
       empspacing="4"
       visible="true"
       enabled="true"
       snapvisiblegridlinesonly="true"
       spacingx="4px"
       spacingy="4px"
       dotted="false" />
    <sodipodi:guide
       orientation="0,1"
       position="0,120"
       id="guide2999" />
    <sodipodi:guide
       orientation="1,0"
       position="120,128"
       id="guide3001" />
    <sodipodi:guide
       orientation="0,1"
       position="0,8"
       id="guide3003" />
    <sodipodi:guide
       orientation="1,0"
       position="8,128"
       id="guide3005" />
  </sodipodi:namedview>
  <path
     style="color:#000000;fill:#3399ff;fill-opacity:1;fill-rule:nonzero;stroke:none;stroke-width:1;marker:none;visibility:visible;display:inline;overflow:visible;enable-background:accumulate"
     d="m 24.160307,4.2677417 c -5.832791,0 -10.55243,4.78746 -10.55243,10.6960013 l 0,98.058647 c 0,5.90853 4.719639,10.69599 10.55243,10.69599 l 79.968763,0 c 5.83279,0 10.55243,-4.78746 10.55243,-10.69599 l 0,-98.058647 c 0,-5.9085413 -4.71964,-10.6960013 -10.55243,-10.6960013 l -79.968763,0 z m 7.824591,13.7827663 2.297128,0 59.72532,0 2.297128,0 c 2.545217,0 4.594256,2.049038 4.594256,4.594255 l 0,2.297128 0,78.102339 0,2.29713 c 0,2.54522 -2.049039,4.59426 -4.594256,4.59426 l -2.297128,0 -59.72532,0 -2.297128,0 c -2.545217,0 -4.594255,-2.04904 -4.594255,-4.59426 l 0,-2.29713 0,-78.102339 0,-2.297128 c 0,-2.545217 2.049038,-4.594255 4.594255,-4.594255 z m 4.594255,9.188511 0,73.508091 55.131065,0 -55.131065,-73.508091 z m 9.188511,27.565533 27.565533,36.754042 -27.565533,0 0,-36.754042 z"
     id="rect2957"
     inkscape:connector-curvature="0" />
</svg>
