<?xml version="1.0" encoding="UTF-8" standalone="no"?>
<!-- Created with Inkscape (http://www.inkscape.org/) -->

<svg
   xmlns:dc="http://purl.org/dc/elements/1.1/"
   xmlns:cc="http://creativecommons.org/ns#"
   xmlns:rdf="http://www.w3.org/1999/02/22-rdf-syntax-ns#"
   xmlns:svg="http://www.w3.org/2000/svg"
   xmlns="http://www.w3.org/2000/svg"
   xmlns:sodipodi="http://sodipodi.sourceforge.net/DTD/sodipodi-0.dtd"
   xmlns:inkscape="http://www.inkscape.org/namespaces/inkscape"
   width="128"
   height="128"
   id="svg3027"
   version="1.1"
   inkscape:version="0.48.5 r10040"
   sodipodi:docname="ZZ-BASE.svg"
   inkscape:export-xdpi="90"
   inkscape:export-ydpi="90">
  <metadata
     id="metadata5">
    <rdf:RDF>
      <cc:Work
         rdf:about="">
        <dc:format>image/svg+xml</dc:format>
        <dc:type
           rdf:resource="http://purl.org/dc/dcmitype/StillImage" />
        <dc:title></dc:title>
      </cc:Work>
    </rdf:RDF>
  </metadata>
  <defs
     id="defs3029" />
  <sodipodi:namedview
     id="base"
     pagecolor="#ffffff"
     bordercolor="#666666"
     borderopacity="1.0"
     inkscape:pageopacity="0.0"
     inkscape:pageshadow="2"
     inkscape:zoom="3.959798"
     inkscape:cx="66.06226"
     inkscape:cy="74.589172"
     inkscape:document-units="px"
     inkscape:current-layer="svg3027"
     showgrid="true"
     inkscape:window-width="1013"
     inkscape:window-height="847"
     inkscape:window-x="1932"
     inkscape:window-y="1"
     inkscape:window-maximized="0"
     inkscape:showpageshadow="false"
     borderlayer="false"
     showguides="true"
     inkscape:guide-bbox="true"
     inkscape:snap-to-guides="false"
     inkscape:snap-grids="false">
    <inkscape:grid
       type="xygrid"
       id="grid2981"
       empspacing="4"
       visible="true"
       enabled="true"
       snapvisiblegridlinesonly="true"
       spacingx="4px"
       spacingy="4px"
       dotted="false" />
    <sodipodi:guide
       orientation="0,1"
       position="0,120"
       id="guide2999" />
    <sodipodi:guide
       orientation="1,0"
       position="120,128"
       id="guide3001" />
    <sodipodi:guide
       orientation="0,1"
       position="0,8"
       id="guide3003" />
    <sodipodi:guide
       orientation="1,0"
       position="8,128"
       id="guide3005" />
  </sodipodi:namedview>
  <path
     style="color:#000000;fill:#3399ff;fill-opacity:1;fill-rule:nonzero;stroke:none;stroke-width:1;marker:none;visibility:visible;display:inline;overflow:visible;enable-background:accumulate"
     d="m 26.27908,8.3083518 c -5.468452,0 -9.893284,4.4884232 -9.893284,10.0278872 l 0,91.933511 c 0,5.53947 4.424832,10.02789 9.893284,10.02789 l 74.9736,0 c 5.46845,0 9.89328,-4.48842 9.89328,-10.02789 l 0,-91.933511 c 0,-5.539464 -4.42483,-10.0278872 -9.89328,-10.0278872 l -74.9736,0 z m 7.335837,12.9218412 2.15364,0 55.994643,0 2.15364,0 c 2.386233,0 4.30728,1.921047 4.30728,4.30728 l 0,2.15364 0,73.223767 0,2.15364 c 0,2.38623 -1.921047,4.30728 -4.30728,4.30728 l -2.15364,0 -55.994643,0 -2.15364,0 c -2.386233,0 -4.30728,-1.92105 -4.30728,-4.30728 l 0,-2.15364 0,-73.223767 0,-2.15364 c 0,-2.386233 1.921047,-4.30728 4.30728,-4.30728 z m 4.30728,12.921841 0,8.61456 51.687363,0 0,-8.61456 -51.687363,0 z m 0,17.229121 0,8.61456 51.687363,0 0,-8.61456 -51.687363,0 z m 0,17.229121 0,8.61456 51.687363,0 0,-8.61456 -51.687363,0 z m 30.150962,12.92184 0,4.30728 4.30728,0 0,8.614561 -4.30728,0 0,4.30728 12.92184,0 0,-4.30728 -4.30728,0 0,-8.614561 4.30728,0 0,-4.30728 -12.92184,0 z m -30.150962,4.30728 0,8.614561 25.843681,0 0,-8.614561 -25.843681,0 z"
     id="rect2957"
     inkscape:connector-curvature="0" />
</svg>
