<?xml version="1.0" encoding="UTF-8" standalone="no"?>
<!-- Created with Inkscape (http://www.inkscape.org/) -->

<svg
   xmlns:dc="http://purl.org/dc/elements/1.1/"
   xmlns:cc="http://creativecommons.org/ns#"
   xmlns:rdf="http://www.w3.org/1999/02/22-rdf-syntax-ns#"
   xmlns:svg="http://www.w3.org/2000/svg"
   xmlns="http://www.w3.org/2000/svg"
   xmlns:sodipodi="http://sodipodi.sourceforge.net/DTD/sodipodi-0.dtd"
   xmlns:inkscape="http://www.inkscape.org/namespaces/inkscape"
   width="128"
   height="128"
   id="svg3027"
   version="1.1"
   inkscape:version="0.48.5 r10040"
   sodipodi:docname="ZZ-BASE.svg"
   inkscape:export-xdpi="90"
   inkscape:export-ydpi="90">
  <metadata
     id="metadata5">
    <rdf:RDF>
      <cc:Work
         rdf:about="">
        <dc:format>image/svg+xml</dc:format>
        <dc:type
           rdf:resource="http://purl.org/dc/dcmitype/StillImage" />
        <dc:title></dc:title>
      </cc:Work>
    </rdf:RDF>
  </metadata>
  <defs
     id="defs3029" />
  <sodipodi:namedview
     id="base"
     pagecolor="#ffffff"
     bordercolor="#666666"
     borderopacity="1.0"
     inkscape:pageopacity="0.0"
     inkscape:pageshadow="2"
     inkscape:zoom="3.959798"
     inkscape:cx="66.06226"
     inkscape:cy="74.589172"
     inkscape:document-units="px"
     inkscape:current-layer="svg3027"
     showgrid="true"
     inkscape:window-width="1013"
     inkscape:window-height="847"
     inkscape:window-x="1932"
     inkscape:window-y="1"
     inkscape:window-maximized="0"
     inkscape:showpageshadow="false"
     borderlayer="false"
     showguides="true"
     inkscape:guide-bbox="true"
     inkscape:snap-to-guides="false"
     inkscape:snap-grids="false">
    <inkscape:grid
       type="xygrid"
       id="grid2981"
       empspacing="4"
       visible="true"
       enabled="true"
       snapvisiblegridlinesonly="true"
       spacingx="4px"
       spacingy="4px"
       dotted="false" />
    <sodipodi:guide
       orientation="0,1"
       position="0,120"
       id="guide2999" />
    <sodipodi:guide
       orientation="1,0"
       position="120,128"
       id="guide3001" />
    <sodipodi:guide
       orientation="0,1"
       position="0,8"
       id="guide3003" />
    <sodipodi:guide
       orientation="1,0"
       position="8,128"
       id="guide3005" />
  </sodipodi:namedview>
  <path
     sodipodi:type="inkscape:offset"
     inkscape:radius="1.0297792"
     inkscape:original="M 24 29 L 24 35 L 56 35 L 56 29 L 24 29 z M 24 41 L 24 59 L 36 50 L 24 41 z M 42 41 L 42 47 L 72 47 L 72 41 L 42 41 z M 42 53 L 42 59 L 66 59 L 66 53 L 42 53 z M 24 65 L 24 71 L 56 71 L 56 65 L 24 65 z "
     style="fill:#3399ff;fill-opacity:1;stroke:none;display:inline"
     id="path3923"
     d="M 23.90625,27.96875 A 1.0298822,1.0298822 0 0 0 22.96875,29 l 0,6 A 1.0298822,1.0298822 0 0 0 24,36.03125 l 32,0 A 1.0298822,1.0298822 0 0 0 57.03125,35 l 0,-6 A 1.0298822,1.0298822 0 0 0 56,27.96875 l -32,0 a 1.0298822,1.0298822 0 0 0 -0.09375,0 z m -0.0625,12 A 1.0298822,1.0298822 0 0 0 22.96875,41 l 0,18 a 1.0298822,1.0298822 0 0 0 1.65625,0.8125 l 12,-9 a 1.0298822,1.0298822 0 0 0 0,-1.625 l -12,-9 a 1.0298822,1.0298822 0 0 0 -0.78125,-0.21875 z m 18.0625,0 A 1.0298822,1.0298822 0 0 0 40.96875,41 l 0,6 A 1.0298822,1.0298822 0 0 0 42,48.03125 l 30,0 A 1.0298822,1.0298822 0 0 0 73.03125,47 l 0,-6 A 1.0298822,1.0298822 0 0 0 72,39.96875 l -30,0 a 1.0298822,1.0298822 0 0 0 -0.09375,0 z m 0,12 A 1.0298822,1.0298822 0 0 0 40.96875,53 l 0,6 A 1.0298822,1.0298822 0 0 0 42,60.03125 l 24,0 A 1.0298822,1.0298822 0 0 0 67.03125,59 l 0,-6 A 1.0298822,1.0298822 0 0 0 66,51.96875 l -24,0 a 1.0298822,1.0298822 0 0 0 -0.09375,0 z m -18,12 A 1.0298822,1.0298822 0 0 0 22.96875,65 l 0,6 A 1.0298822,1.0298822 0 0 0 24,72.03125 l 32,0 A 1.0298822,1.0298822 0 0 0 57.03125,71 l 0,-6 A 1.0298822,1.0298822 0 0 0 56,63.96875 l -32,0 a 1.0298822,1.0298822 0 0 0 -0.09375,0 z"
     transform="matrix(2.2358899,0,0,2.2358899,-43.051669,-47.478172)" />
</svg>
