<?xml version="1.0" encoding="UTF-8" standalone="no"?>
<!-- Created with Inkscape (http://www.inkscape.org/) -->

<svg
   xmlns:dc="http://purl.org/dc/elements/1.1/"
   xmlns:cc="http://creativecommons.org/ns#"
   xmlns:rdf="http://www.w3.org/1999/02/22-rdf-syntax-ns#"
   xmlns:svg="http://www.w3.org/2000/svg"
   xmlns="http://www.w3.org/2000/svg"
   xmlns:xlink="http://www.w3.org/1999/xlink"
   xmlns:sodipodi="http://sodipodi.sourceforge.net/DTD/sodipodi-0.dtd"
   xmlns:inkscape="http://www.inkscape.org/namespaces/inkscape"
   width="128"
   height="128"
   id="svg2408"
   sodipodi:version="0.32"
   inkscape:version="0.48.5 r10040"
   version="1.0"
   sodipodi:docname="mail-mark-notjunk.svg"
   inkscape:output_extension="org.inkscape.output.svg.inkscape">
  <defs
     id="defs2410">
    <linearGradient
       inkscape:collect="always"
       id="linearGradient3942">
      <stop
         style="stop-color:#ffffff;stop-opacity:1;"
         offset="0"
         id="stop3944" />
      <stop
         style="stop-color:#ffffff;stop-opacity:0;"
         offset="1"
         id="stop3946" />
    </linearGradient>
    <linearGradient
       id="linearGradient3727">
      <stop
         id="stop3729"
         offset="0"
         style="stop-color:#d5d5d5;stop-opacity:1;" />
      <stop
         id="stop3731"
         offset="1"
         style="stop-color:#f1f1f1;stop-opacity:1;" />
    </linearGradient>
    <linearGradient
       inkscape:collect="always"
       id="linearGradient3641">
      <stop
         style="stop-color:#000000;stop-opacity:1;"
         offset="0"
         id="stop3643" />
      <stop
         style="stop-color:#000000;stop-opacity:0;"
         offset="1"
         id="stop3645" />
    </linearGradient>
    <linearGradient
       inkscape:collect="always"
       id="linearGradient3737">
      <stop
         style="stop-color:#ffffff;stop-opacity:1;"
         offset="0"
         id="stop3739" />
      <stop
         style="stop-color:#ffffff;stop-opacity:0;"
         offset="1"
         id="stop3741" />
    </linearGradient>
    <linearGradient
       id="linearGradient3700">
      <stop
         style="stop-color:#dcdcdc;stop-opacity:1;"
         offset="0"
         id="stop3702" />
      <stop
         style="stop-color:#f0f0f0;stop-opacity:1;"
         offset="1"
         id="stop3704" />
    </linearGradient>
    <filter
       inkscape:collect="always"
       id="filter3794"
       x="-0.192"
       width="1.3839999"
       y="-0.192"
       height="1.3839999"
       color-interpolation-filters="sRGB">
      <feGaussianBlur
         inkscape:collect="always"
         stdDeviation="5.28"
         id="feGaussianBlur3796" />
    </filter>
    <linearGradient
       inkscape:collect="always"
       xlink:href="#linearGradient3737"
       id="linearGradient3613"
       x1="48"
       y1="20.220806"
       x2="48"
       y2="138.66119"
       gradientUnits="userSpaceOnUse" />
    <radialGradient
       inkscape:collect="always"
       xlink:href="#linearGradient3737"
       id="radialGradient3619"
       cx="48"
       cy="90.171875"
       fx="48"
       fy="90.171875"
       r="42"
       gradientTransform="matrix(1.5605403,0,0,1.3428988,-10.867869,-32.844677)"
       gradientUnits="userSpaceOnUse" />
    <clipPath
       clipPathUnits="userSpaceOnUse"
       id="clipPath3613">
      <rect
         ry="6"
         rx="6"
         y="6"
         x="6"
         height="84"
         width="84"
         id="rect3615"
         style="fill:#ffffff;fill-opacity:1;fill-rule:nonzero;stroke:none" />
    </clipPath>
    <linearGradient
       inkscape:collect="always"
       xlink:href="#linearGradient3700"
       id="linearGradient3627"
       x1="48"
       y1="88"
       x2="48"
       y2="32"
       gradientUnits="userSpaceOnUse"
       gradientTransform="matrix(1.3484169,0,0,1.3484169,-0.68594575,-33.110493)" />
    <linearGradient
       inkscape:collect="always"
       xlink:href="#linearGradient3727"
       id="linearGradient3635"
       x1="48"
       y1="88"
       x2="48"
       y2="36"
       gradientUnits="userSpaceOnUse"
       gradientTransform="matrix(1.3484169,0,0,1.3484169,-0.68594575,-33.110493)" />
    <filter
       inkscape:collect="always"
       id="filter3649"
       color-interpolation-filters="sRGB">
      <feGaussianBlur
         inkscape:collect="always"
         stdDeviation="1.38"
         id="feGaussianBlur3651" />
    </filter>
    <filter
       inkscape:collect="always"
       id="filter3665"
       color-interpolation-filters="sRGB">
      <feGaussianBlur
         inkscape:collect="always"
         stdDeviation="0.69"
         id="feGaussianBlur3667" />
    </filter>
    <linearGradient
       inkscape:collect="always"
       xlink:href="#linearGradient3737"
       id="linearGradient3687"
       gradientUnits="userSpaceOnUse"
       x1="36.357143"
       y1="6"
       x2="36.357143"
       y2="63.893143"
       gradientTransform="matrix(1.3484169,0,0,1.3484169,-0.68594575,-33.110493)" />
    <linearGradient
       inkscape:collect="always"
       xlink:href="#linearGradient3700"
       id="linearGradient3689"
       gradientUnits="userSpaceOnUse"
       x1="48"
       y1="90"
       x2="48"
       y2="5.9877172"
       gradientTransform="matrix(1.3484169,0,0,1.3484169,-0.68594575,-33.110493)" />
    <clipPath
       clipPathUnits="userSpaceOnUse"
       id="clipPath3696">
      <rect
         ry="6"
         rx="6"
         y="6"
         x="106"
         height="84"
         width="84"
         id="rect3698"
         style="fill:#ff00ff;fill-opacity:1;fill-rule:nonzero;stroke:none" />
    </clipPath>
    <linearGradient
       inkscape:collect="always"
       xlink:href="#linearGradient3641"
       id="linearGradient3701"
       gradientUnits="userSpaceOnUse"
       gradientTransform="translate(100,0)"
       x1="48"
       y1="32"
       x2="48"
       y2="80" />
    <clipPath
       clipPathUnits="userSpaceOnUse"
       id="clipPath3703">
      <rect
         style="fill:#ff00ff;fill-opacity:1;fill-rule:nonzero;stroke:none"
         id="rect3705"
         width="84"
         height="84"
         x="106"
         y="6"
         rx="6"
         ry="6" />
    </clipPath>
    <linearGradient
       inkscape:collect="always"
       xlink:href="#linearGradient3641"
       id="linearGradient3707"
       gradientUnits="userSpaceOnUse"
       gradientTransform="translate(100,-1)"
       x1="51"
       y1="62"
       x2="51"
       y2="21" />
    <linearGradient
       inkscape:collect="always"
       id="linearGradient3737-3">
      <stop
         style="stop-color:#ffffff;stop-opacity:1;"
         offset="0"
         id="stop3739-5" />
      <stop
         style="stop-color:#ffffff;stop-opacity:0;"
         offset="1"
         id="stop3741-7" />
    </linearGradient>
    <radialGradient
       r="42"
       fy="90.171875"
       fx="48"
       cy="90.171875"
       cx="48"
       gradientTransform="matrix(1.5605403,0,0,1.3428988,-10.86787,-32.844677)"
       gradientUnits="userSpaceOnUse"
       id="radialGradient2858"
       xlink:href="#linearGradient3737-3"
       inkscape:collect="always" />
    <linearGradient
       id="ButtonShadow-0"
       gradientTransform="matrix(1.0058652,0,0,0.994169,100,0)"
       x1="45.447727"
       y1="92.539597"
       x2="45.447727"
       y2="7.0165396"
       gradientUnits="userSpaceOnUse">
      <stop
         style="stop-color:#000000;stop-opacity:1;"
         offset="0"
         id="stop3750-8" />
      <stop
         style="stop-color:#000000;stop-opacity:0.58823532;"
         offset="1"
         id="stop3752-5" />
    </linearGradient>
    <linearGradient
       inkscape:collect="always"
       xlink:href="#ButtonShadow-0"
       id="linearGradient3780"
       gradientUnits="userSpaceOnUse"
       gradientTransform="matrix(1.0238095,0,0,1.0119048,-1.1428571,-98.071429)"
       x1="32.251034"
       y1="6.1317081"
       x2="32.251034"
       y2="90.238609" />
    <linearGradient
       inkscape:collect="always"
       xlink:href="#ButtonShadow-0"
       id="linearGradient3772"
       gradientUnits="userSpaceOnUse"
       gradientTransform="matrix(1.0238095,0,0,1.0119048,-1.1428571,-98.071429)"
       x1="32.251034"
       y1="6.1317081"
       x2="32.251034"
       y2="90.238609" />
    <linearGradient
       inkscape:collect="always"
       xlink:href="#ButtonShadow-0"
       id="linearGradient3725"
       gradientUnits="userSpaceOnUse"
       gradientTransform="matrix(1.380522,0,0,1.3644695,-2.2269936,-99.130679)"
       x1="32.251034"
       y1="6.1317081"
       x2="32.251034"
       y2="90.238609" />
    <linearGradient
       inkscape:collect="always"
       xlink:href="#ButtonShadow-0"
       id="linearGradient3721"
       gradientUnits="userSpaceOnUse"
       gradientTransform="matrix(1.3484169,0,0,1.3484169,-0.68594575,-97.685946)"
       x1="32.251034"
       y1="6.1317081"
       x2="32.251034"
       y2="90.238609" />
    <linearGradient
       y2="90.238609"
       x2="32.251034"
       y1="6.1317081"
       x1="32.251034"
       gradientTransform="matrix(1.0238095,0,0,1.0119048,-1.1428571,-98.071429)"
       gradientUnits="userSpaceOnUse"
       id="linearGradient2918"
       xlink:href="#ButtonShadow-0"
       inkscape:collect="always" />
    <linearGradient
       id="linearGradient3801">
      <stop
         offset="0"
         style="stop-color:#a4d620;stop-opacity:1;"
         id="stop3803" />
      <stop
         offset="1"
         style="stop-color:#62a915;stop-opacity:1;"
         id="stop3805" />
    </linearGradient>
    <linearGradient
       inkscape:collect="always"
       xlink:href="#linearGradient3801"
       id="linearGradient3915"
       x1="45.298355"
       y1="72.618279"
       x2="79.622185"
       y2="72.618279"
       gradientUnits="userSpaceOnUse" />
    <linearGradient
       inkscape:collect="always"
       xlink:href="#linearGradient3942"
       id="linearGradient3948"
       x1="68"
       y1="52"
       x2="68"
       y2="84"
       gradientUnits="userSpaceOnUse"
       gradientTransform="matrix(1.3484169,0,0,1.3484169,-0.68594575,-33.110493)" />
  </defs>
  <sodipodi:namedview
     id="base"
     pagecolor="#ffffff"
     bordercolor="#666666"
     borderopacity="1.0"
     inkscape:pageopacity="0.0"
     inkscape:pageshadow="2"
     inkscape:zoom="4.311701"
     inkscape:cx="53.973555"
     inkscape:cy="61.82752"
     inkscape:document-units="px"
     inkscape:current-layer="layer3"
     showgrid="true"
     showborder="true"
     inkscape:showpageshadow="false"
     inkscape:window-width="1680"
     inkscape:window-height="987"
     inkscape:window-x="0"
     inkscape:window-y="0"
     inkscape:window-maximized="1"
     showguides="true"
     inkscape:guide-bbox="true">
    <inkscape:grid
       type="xygrid"
       id="grid3732"
       visible="true"
       enabled="true"
       empspacing="4"
       snapvisiblegridlinesonly="true"
       spacingx="4px"
       spacingy="4px" />
  </sodipodi:namedview>
  <metadata
     id="metadata2413">
    <rdf:RDF>
      <cc:Work
         rdf:about="">
        <dc:format>image/svg+xml</dc:format>
        <dc:type
           rdf:resource="http://purl.org/dc/dcmitype/StillImage" />
        <dc:title />
      </cc:Work>
    </rdf:RDF>
  </metadata>
  <g
     inkscape:groupmode="layer"
     id="layer3"
     inkscape:label="Shadow"
     style="display:inline"
     transform="translate(0,32)">
    <path
       sodipodi:type="inkscape:offset"
       inkscape:radius="0.99097413"
       inkscape:original="M 12 -94.03125 C 7.028367 -94.03125 2.96875 -89.971633 2.96875 -85 L 2.96875 -14 C 2.96875 -9.0283671 7.0283671 -4.96875 12 -4.96875 L 84 -4.96875 C 88.971633 -4.96875 93.03125 -9.028367 93.03125 -14 L 93.03125 -85 C 93.03125 -89.971633 88.971633 -94.03125 84 -94.03125 L 12 -94.03125 z "
       style="opacity:0.07999998;fill:url(#linearGradient2918);fill-opacity:1;fill-rule:nonzero;stroke:none;display:inline"
       id="path3786"
       d="m 12,-95.03125 c -5.5110903,0 -10.03125,4.52016 -10.03125,10.03125 l 0,71 c 0,5.5110902 4.5201598,10.03125 10.03125,10.03125 l 72,0 c 5.51109,0 10.03125,-4.5201597 10.03125,-10.03125 l 0,-71 c 0,-5.51109 -4.52016,-10.03125 -10.03125,-10.03125 l -72,0 z"
       transform="matrix(1.3484169,0,0,-1.3484169,-0.68594575,-33.110493)" />
    <path
       sodipodi:type="inkscape:offset"
       inkscape:radius="1.0360184"
       inkscape:original="M 12 -93 C 7.5908667 -93 4 -89.409133 4 -85 L 4 -14 C 4 -9.5908667 7.5908667 -6 12 -6 L 84 -6 C 88.409133 -6 92 -9.5908667 92 -14 L 92 -85 C 92 -89.409133 88.409133 -93 84 -93 L 12 -93 z "
       style="opacity:0.1;fill:url(#linearGradient3780);fill-opacity:1;fill-rule:nonzero;stroke:none;display:inline"
       id="path3778"
       d="m 12,-94.03125 c -4.971633,0 -9.03125,4.059617 -9.03125,9.03125 l 0,71 c 0,4.9716329 4.0596171,9.03125 9.03125,9.03125 l 72,0 c 4.971633,0 9.03125,-4.059617 9.03125,-9.03125 l 0,-71 c 0,-4.971633 -4.059617,-9.03125 -9.03125,-9.03125 l -72,0 z"
       transform="matrix(1.3484169,0,0,-1.3484169,-0.68594575,-33.110493)" />
    <path
       sodipodi:type="inkscape:offset"
       inkscape:radius="0.98962283"
       inkscape:original="M 12 -92 C 8.122 -92 5 -88.878 5 -85 L 5 -14 C 5 -10.122 8.122 -7 12 -7 L 84 -7 C 87.878 -7 91 -10.122 91 -14 L 91 -85 C 91 -88.878 87.878 -92 84 -92 L 12 -92 z "
       style="opacity:0.2;fill:url(#linearGradient3772);fill-opacity:1;fill-rule:nonzero;stroke:none;display:inline"
       id="path3770"
       d="m 12,-93 c -4.4091333,0 -8,3.590867 -8,8 l 0,71 c 0,4.4091333 3.5908667,8 8,8 l 72,0 c 4.409133,0 8,-3.5908667 8,-8 l 0,-71 c 0,-4.409133 -3.590867,-8 -8,-8 l -72,0 z"
       transform="matrix(1.3484169,0,0,-1.3484169,-0.68594575,-33.110493)" />
    <rect
       style="opacity:0.3;fill:url(#linearGradient3725);fill-opacity:1;fill-rule:nonzero;stroke:none;display:inline"
       id="rect3723"
       width="115.96385"
       height="114.61543"
       x="6.0561385"
       y="-90.943863"
       rx="9.4389181"
       ry="9.4389181"
       transform="scale(1,-1)" />
    <rect
       transform="scale(1,-1)"
       ry="8.0905018"
       rx="8.0905018"
       y="-89.595444"
       x="7.4045558"
       height="113.26702"
       width="113.26702"
       id="rect3716"
       style="opacity:0.45;fill:url(#linearGradient3721);fill-opacity:1;fill-rule:nonzero;stroke:none;display:inline" />
  </g>
  <g
     inkscape:label="Button"
     inkscape:groupmode="layer"
     id="layer1"
     style="display:inline"
     transform="translate(0,32)">
    <rect
       style="fill:url(#linearGradient3689);fill-opacity:1;fill-rule:nonzero;stroke:none"
       id="rect2419"
       width="113.26702"
       height="113.26702"
       x="7.4045558"
       y="-25.019991"
       rx="8.0905018"
       ry="8.0905018" />
    <path
       sodipodi:nodetypes="cccccccc"
       style="opacity:0.3;fill:url(#linearGradient3701);fill-opacity:1;stroke:none;filter:url(#filter3665)"
       d="m 112,89 c -3.324,0 -6,-2.676 -6,-6 l 0,-6 42,-42 42,42 0,6 c 0,3.324 -2.676,6 -6,6 l -72,0 z"
       id="path3653"
       clip-path="url(#clipPath3696)"
       transform="matrix(1.3484169,0,0,1.3484169,-135.52763,-34.458909)"
       inkscape:connector-curvature="0" />
    <path
       id="path3619"
       d="m 15.495057,88.247028 c -4.482138,0 -8.0905014,-3.608364 -8.0905014,-8.090502 l 0,-8.090501 56.6335094,-56.63351 56.633505,56.63351 0,8.090501 c 0,4.482138 -3.60836,8.090502 -8.0905,8.090502 l -97.086013,0 z"
       style="fill:url(#linearGradient3635);fill-opacity:1;stroke:none"
       sodipodi:nodetypes="cccccccc"
       inkscape:connector-curvature="0" />
    <path
       style="opacity:0.4;fill:#ffffff;fill-opacity:1;stroke:none"
       d="m 64.038065,15.432515 -56.6335094,56.63351 0,1.348417 56.6335094,-56.63351 56.633505,56.63351 0,-1.348417 -56.633505,-56.63351 z"
       id="path3718"
       inkscape:connector-curvature="0" />
    <path
       sodipodi:nodetypes="cccccccc"
       id="path3637"
       d="m 112,7 c -3.324,0 -6,2.676 -6,6 l 0,6 42,42 42,-42 0,-6 c 0,-3.324 -2.676,-6 -6,-6 l -72,0 z"
       style="opacity:0.4;fill:url(#linearGradient3707);fill-opacity:1;stroke:none;filter:url(#filter3649)"
       clip-path="url(#clipPath3703)"
       transform="matrix(1.3484169,0,0,1.3484169,-135.52763,-31.762076)"
       inkscape:connector-curvature="0" />
    <path
       style="fill:url(#linearGradient3627);fill-opacity:1;stroke:none"
       d="m 15.495057,-25.019991 c -4.482138,0 -8.0905014,3.608363 -8.0905014,8.090501 l 0,8.0905015 56.6335094,56.6335095 56.633505,-56.6335095 0,-8.0905015 c 0,-4.482138 -3.60836,-8.090501 -8.0905,-8.090501 l -97.086013,0 z"
       id="path3613"
       sodipodi:nodetypes="cccccccc"
       inkscape:connector-curvature="0" />
    <path
       style="opacity:0.6;fill:#ffffff;fill-opacity:1;stroke:none"
       d="m 7.4045556,-10.187405 0,1.3484165 56.6335094,56.6335095 56.633505,-56.6335095 0,-1.3484165 L 64.038065,46.446104 7.4045556,-10.187405 z"
       id="path3709"
       inkscape:connector-curvature="0" />
  </g>
  <g
     inkscape:groupmode="layer"
     id="layer5"
     inkscape:label="Highlight"
     style="display:inline"
     transform="translate(0,32)">
    <rect
       style="opacity:0.1;fill:url(#linearGradient3613);fill-opacity:1;fill-rule:nonzero;stroke:#ffffff;stroke-width:0.5;stroke-linecap:round;stroke-linejoin:miter;stroke-miterlimit:4;stroke-opacity:1;stroke-dasharray:none;stroke-dashoffset:0;filter:url(#filter3794)"
       id="rect3171"
       width="66"
       height="66"
       x="15"
       y="15"
       rx="12"
       ry="12"
       clip-path="url(#clipPath3613)"
       transform="matrix(1.3484169,0,0,1.3484169,-0.68594575,-33.110493)" />
    <path
       id="path3615"
       d="m 15.495057,88.247028 c -4.482138,0 -8.0905014,-3.608364 -8.0905014,-8.090502 l 0,-2.696834 0,-91.692348 0,-2.696834 c 0,-0.451343 0.055757,-0.877415 0.1264141,-1.306279 0.065668,-0.398586 0.1308503,-0.80489 0.2528281,-1.179864 0.013322,-0.04096 0.028171,-0.08576 0.042138,-0.126415 0.1333112,-0.388035 0.3167164,-0.738193 0.5056563,-1.095588 0.19497,-0.368802 0.4255821,-0.722233 0.6742084,-1.053451 0.2486264,-0.331218 0.5040066,-0.638438 0.8006226,-0.927037 0.5932318,-0.577198 1.2714358,-1.09832 2.0226258,-1.474831 0.375594,-0.188255 0.77328,-0.332987 1.179864,-0.463518 -0.345467,0.135141 -0.656289,0.318593 -0.969174,0.505656 -0.01,0.0059 -0.03218,-0.0061 -0.04214,0 -0.04306,0.02602 -0.084,0.05732 -0.126414,0.08428 -0.162343,0.103424 -0.311515,0.220484 -0.463519,0.337105 -0.143165,0.108952 -0.287591,0.217246 -0.42138,0.337104 -0.239924,0.217679 -0.46852,0.465727 -0.674208,0.716346 -0.145062,0.175638 -0.294487,0.357715 -0.4213808,0.547795 -0.03383,0.05175 -0.051841,0.115788 -0.084276,0.168552 -0.087328,0.13893 -0.175601,0.275774 -0.2528282,0.42138 -0.1362013,0.262545 -0.2773354,0.560538 -0.3792422,0.842761 -0.010733,0.02941 -0.031808,0.05468 -0.042138,0.08428 -0.042914,0.123987 -0.048279,0.251926 -0.084276,0.379242 -0.040901,0.143766 -0.094914,0.27377 -0.1264141,0.42138 -0.098271,0.460501 -0.1685521,0.941472 -0.1685521,1.432693 l 0,2.696834 0,91.692349 0,2.696833 c 0,3.751091 2.9909935,6.742085 6.7420845,6.742085 l 2.696834,0 91.692349,0 2.69683,0 c 3.75109,0 6.74209,-2.990994 6.74209,-6.742085 l 0,-2.696833 0,-91.692349 0,-2.696834 c 0,-0.491221 -0.0703,-0.972192 -0.16855,-1.432693 -0.0595,-0.278978 -0.11918,-0.536208 -0.21069,-0.800622 -0.0104,-0.0296 -0.0314,-0.05487 -0.0421,-0.08428 -0.0846,-0.234273 -0.1866,-0.495475 -0.29497,-0.716347 -0.0561,-0.111649 -0.10658,-0.229169 -0.16855,-0.337104 -0.0736,-0.13108 -0.17095,-0.253974 -0.25283,-0.379242 -0.1269,-0.19008 -0.27632,-0.372157 -0.42138,-0.547795 -0.19306,-0.235231 -0.40876,-0.467898 -0.63207,-0.674208 -0.0151,-0.01375 -0.0269,-0.02852 -0.0421,-0.04214 -0.1866,-0.169302 -0.38442,-0.316118 -0.58993,-0.463518 -0.13831,-0.09864 -0.27551,-0.206799 -0.42138,-0.294967 -0.01,-0.0061 -0.0322,0.0059 -0.0421,0 -0.31288,-0.187063 -0.62371,-0.370515 -0.96917,-0.505656 0.40658,0.130527 0.80427,0.275263 1.17986,0.463518 0.75119,0.376511 1.42939,0.897633 2.02263,1.474831 0.29661,0.288599 0.55199,0.595819 0.80062,0.927037 0.24863,0.331218 0.47924,0.684649 0.67421,1.053451 0.18894,0.357395 0.37234,0.707553 0.50565,1.095588 0.014,0.04151 0.0288,0.0846 0.0421,0.126415 0.12198,0.374974 0.18716,0.781278 0.25283,1.179864 0.0707,0.428864 0.12641,0.854936 0.12641,1.306279 l 0,2.696834 0,91.692348 0,2.696834 c 0,4.482138 -3.60836,8.090502 -8.0905,8.090502 l -97.086013,0 z"
       style="opacity:0;fill:url(#radialGradient3619);fill-opacity:1;fill-rule:nonzero;stroke:none"
       inkscape:connector-curvature="0" />
    <path
       style="opacity:0.6;fill:url(#linearGradient3687);fill-opacity:1;fill-rule:nonzero;stroke:none"
       d="m 15.495057,-25.019991 c -4.482138,0 -8.0905014,3.608363 -8.0905014,8.090501 l 0,2.696834 0,91.692348 0,2.696834 c 0,0.451344 0.055757,0.877415 0.1264141,1.306279 0.065668,0.398587 0.1308503,0.80489 0.2528281,1.179865 0.013349,0.04096 0.028168,0.08576 0.042138,0.126414 0.1333045,0.388035 0.3167161,0.738193 0.5056563,1.095589 0.1949703,0.368801 0.4255819,0.722232 0.6742084,1.05345 0.2486265,0.331219 0.5040059,0.638438 0.8006226,0.927037 0.5932318,0.577198 1.2714358,1.098321 2.0226258,1.474831 0.375594,0.188255 0.77328,0.332987 1.179864,0.463518 -0.345467,-0.135141 -0.656289,-0.318593 -0.969174,-0.505656 -0.01,-0.0059 -0.03219,0.0061 -0.04214,0 -0.04305,-0.02602 -0.08399,-0.05732 -0.126414,-0.08428 -0.162343,-0.103424 -0.311516,-0.220484 -0.463519,-0.337104 -0.143165,-0.108952 -0.287591,-0.217247 -0.42138,-0.337105 C 10.746364,86.301689 10.517767,86.053641 10.31208,85.803022 10.167018,85.627384 10.017593,85.445307 9.8906992,85.255228 9.8568674,85.203475 9.8388526,85.139439 9.8064232,85.086675 9.7190997,84.947745 9.6308215,84.810901 9.553595,84.665295 9.4173941,84.40275 9.2762594,84.104757 9.1743528,83.822535 c -0.010787,-0.02941 -0.031809,-0.05468 -0.042138,-0.08428 -0.04292,-0.123987 -0.048273,-0.251927 -0.084276,-0.379243 -0.0409,-0.143765 -0.094914,-0.27377 -0.1264141,-0.42138 -0.098271,-0.460501 -0.1685521,-0.941471 -0.1685521,-1.432693 l 0,-2.696834 0,-91.692348 0,-2.696834 c 0,-3.751091 2.9909935,-6.742084 6.7420845,-6.742084 l 2.696834,0 91.692349,0 2.69683,0 c 3.75109,0 6.74209,2.990993 6.74209,6.742084 l 0,2.696834 0,91.692348 0,2.696834 c 0,0.491222 -0.0703,0.972192 -0.16855,1.432693 -0.0595,0.278978 -0.11918,0.536209 -0.21069,0.800623 -0.0104,0.0296 -0.0314,0.05487 -0.0421,0.08428 -0.0846,0.234272 -0.1866,0.495474 -0.29497,0.716346 -0.0561,0.111649 -0.10658,0.229169 -0.16855,0.337104 -0.0736,0.13108 -0.17095,0.253975 -0.25283,0.379243 -0.1269,0.190079 -0.27632,0.372156 -0.42138,0.547794 -0.19306,0.235231 -0.40876,0.467898 -0.63207,0.674208 -0.0151,0.01375 -0.0269,0.02852 -0.0421,0.04214 -0.1866,0.169302 -0.38442,0.316118 -0.58993,0.463519 -0.13831,0.09864 -0.27551,0.206798 -0.42138,0.294966 -0.01,0.0061 -0.0322,-0.0059 -0.0421,0 -0.31288,0.187063 -0.62371,0.370515 -0.96917,0.505656 0.40658,-0.130527 0.80427,-0.275263 1.17986,-0.463518 0.75119,-0.37651 1.42939,-0.897633 2.02263,-1.474831 0.29661,-0.288599 0.55199,-0.595818 0.80062,-0.927037 0.24863,-0.331218 0.47924,-0.684649 0.67421,-1.05345 0.18894,-0.357396 0.37234,-0.707554 0.50565,-1.095589 0.014,-0.0415 0.0288,-0.0846 0.0421,-0.126414 0.12198,-0.374975 0.18716,-0.781278 0.25283,-1.179865 0.0707,-0.428864 0.12641,-0.854935 0.12641,-1.306279 l 0,-2.696834 0,-91.692348 0,-2.696834 c 0,-4.482138 -3.60836,-8.090501 -8.0905,-8.090501 l -97.086013,0 z"
       id="rect3728"
       inkscape:connector-curvature="0" />
    <path
       id="path3615-5"
       d="m 15.495057,88.247028 c -4.482138,0 -8.0905014,-3.608364 -8.0905014,-8.090502 l 0,-2.696834 0,-91.692348 0,-2.696834 c 0,-0.451343 0.055757,-0.877415 0.1264141,-1.306279 0.065668,-0.398586 0.1308503,-0.80489 0.2528281,-1.179864 0.013322,-0.04096 0.028171,-0.08576 0.042138,-0.126415 0.1333112,-0.388035 0.3167164,-0.738193 0.5056563,-1.095588 0.19497,-0.368802 0.4255821,-0.722233 0.6742084,-1.053451 0.2486264,-0.331218 0.5040066,-0.638438 0.8006226,-0.927037 0.5932318,-0.577198 1.2714358,-1.09832 2.0226258,-1.474831 0.375594,-0.188255 0.77328,-0.332987 1.179864,-0.463518 -0.345467,0.135141 -0.656289,0.318593 -0.969174,0.505656 -0.01,0.0059 -0.03218,-0.0061 -0.04214,0 -0.04306,0.02602 -0.084,0.05732 -0.126414,0.08428 -0.162343,0.103424 -0.311515,0.220484 -0.463519,0.337105 -0.143165,0.108952 -0.287591,0.217246 -0.42138,0.337104 -0.239924,0.217679 -0.46852,0.465727 -0.674208,0.716346 -0.145062,0.175638 -0.294487,0.357715 -0.4213808,0.547795 -0.03383,0.05175 -0.051841,0.115788 -0.084276,0.168552 -0.087328,0.13893 -0.175601,0.275774 -0.2528282,0.42138 -0.1362013,0.262545 -0.2773354,0.560538 -0.3792422,0.842761 -0.010733,0.02941 -0.031808,0.05468 -0.042138,0.08428 -0.042914,0.123987 -0.048279,0.251926 -0.084276,0.379242 -0.040901,0.143766 -0.094914,0.27377 -0.1264141,0.42138 -0.098271,0.460501 -0.1685521,0.941472 -0.1685521,1.432693 l 0,2.696834 0,91.692349 0,2.696833 c 0,3.751091 2.9909935,6.742085 6.7420845,6.742085 l 2.696834,0 91.692349,0 2.69683,0 c 3.75109,0 6.74209,-2.990994 6.74209,-6.742085 l 0,-2.696833 0,-91.692349 0,-2.696834 c 0,-0.491221 -0.0703,-0.972192 -0.16855,-1.432693 -0.0595,-0.278978 -0.11918,-0.536208 -0.21069,-0.800622 -0.0104,-0.0296 -0.0314,-0.05487 -0.0421,-0.08428 -0.0846,-0.234273 -0.1866,-0.495475 -0.29497,-0.716347 -0.0561,-0.111649 -0.10658,-0.229169 -0.16855,-0.337104 -0.0736,-0.13108 -0.17095,-0.253974 -0.25283,-0.379242 -0.1269,-0.19008 -0.27632,-0.372157 -0.42138,-0.547795 -0.19306,-0.235231 -0.40876,-0.467898 -0.63207,-0.674208 -0.0151,-0.01375 -0.0269,-0.02852 -0.0421,-0.04214 -0.1866,-0.169302 -0.38442,-0.316118 -0.58993,-0.463518 -0.13831,-0.09864 -0.27551,-0.206799 -0.42138,-0.294967 -0.01,-0.0061 -0.0322,0.0059 -0.0421,0 -0.31288,-0.187063 -0.62371,-0.370515 -0.96917,-0.505656 0.40658,0.130527 0.80427,0.275263 1.17986,0.463518 0.75119,0.376511 1.42939,0.897633 2.02263,1.474831 0.29661,0.288599 0.55199,0.595819 0.80062,0.927037 0.24863,0.331218 0.47924,0.684649 0.67421,1.053451 0.18894,0.357395 0.37234,0.707553 0.50565,1.095588 0.014,0.04151 0.0288,0.0846 0.0421,0.126415 0.12198,0.374974 0.18716,0.781278 0.25283,1.179864 0.0707,0.428864 0.12641,0.854936 0.12641,1.306279 l 0,2.696834 0,91.692348 0,2.696834 c 0,4.482138 -3.60836,8.090502 -8.0905,8.090502 l -97.086013,0 z"
       style="opacity:0.3;fill:url(#radialGradient2858);fill-opacity:1;fill-rule:nonzero;stroke:none"
       inkscape:connector-curvature="0" />
  </g>
  <g
     inkscape:groupmode="layer"
     id="layer4"
     inkscape:label="Symbol"
     transform="translate(0,32)">
    <path
       style="opacity:0.1;color:#000000;fill:#000000;fill-opacity:1;fill-rule:nonzero;stroke:none;stroke-width:2;marker:none;visibility:visible;display:inline;overflow:visible;enable-background:accumulate"
       d="m 120.65317,60.252524 c -0.28975,-2.105004 -2.66122,-2.657845 -4.15441,-3.756642 0.6099,-1.351757 1.76279,-2.536027 1.94462,-4.021818 0.13274,-1.634881 -1.36663,-2.851757 -2.91426,-2.879889 -0.77526,-0.258875 -2.06303,-0.163337 -2.53932,-0.628951 0.14221,-1.758231 1.25079,-3.782224 -0.0709,-5.330318 -1.22422,-1.43052 -3.15468,-0.686927 -4.72435,-0.439145 -1.28185,0.680171 -1.09544,-0.762911 -1.3123,-1.62282 -0.17614,-1.444873 -0.54124,-3.266314 -2.22796,-3.595097 -1.71196,-0.474259 -3.04382,1.059068 -4.5112,1.684017 -0.761427,0.266732 -1.026935,-1.392251 -1.58892,-1.899976 -0.574432,-1.364333 -2.051825,-2.493038 -3.578759,-1.90544 -1.476677,0.588788 -2.20392,2.19469 -3.314685,3.270488 -1.312882,-0.883024 -2.325574,-2.406519 -3.933426,-2.695943 -1.677117,-0.244925 -2.878376,1.220553 -3.199779,2.723149 -0.465278,0.599819 -0.328335,2.484488 -1.352532,1.891837 -1.635759,-0.479234 -3.548572,-1.756417 -5.126568,-0.460581 -1.569945,1.273147 -0.864822,3.511037 -1.059725,5.275605 -1.599459,0.363354 -3.883908,-0.458513 -5.216078,1.000198 -1.384364,1.542436 -0.193294,3.502448 0.320329,5.141642 0.658016,1.036919 -1.201537,0.907127 -1.779571,1.371226 -1.480632,0.362231 -2.959873,1.512471 -2.783555,3.210207 0.336234,1.607702 1.801152,2.659577 2.695944,3.977621 -1.175629,1.234013 -3.060315,2.01361 -3.447272,3.80084 -0.250896,1.541214 0.956448,2.677962 2.242678,3.240295 0.504654,0.564439 2.376785,0.762144 1.613788,1.666546 -0.790128,1.555856 -2.380946,3.304398 -1.248915,5.081408 1.092678,1.628017 3.339684,1.289299 5.038322,1.767833 -0.11564,1.655178 -1.053758,3.399801 -0.309371,4.994125 0.710479,1.445174 2.486636,1.636273 3.87868,1.185583 0.756101,0.09733 2.331516,-0.973879 2.325761,0.210026 0.390528,1.627779 0.190006,3.921994 2.060173,4.615018 1.867382,0.803933 3.473719,-0.940787 5.088339,-1.652571 0.613237,0.372883 1.000721,1.587541 1.526528,2.286431 0.614646,1.733313 3.046215,2.455203 4.389886,1.089777 0.823715,-0.870872 1.585374,-1.834466 2.386573,-2.740139 1.443531,0.939541 2.590876,2.746378 4.463775,2.695942 1.7323,-0.126616 2.45094,-1.801109 2.90115,-3.242689 0.27793,-1.029421 0.6094,-1.943299 1.74124,-1.130137 1.45588,0.539935 3.24551,1.370952 4.59453,0.130028 1.398,-1.358399 0.73829,-3.471608 0.92811,-5.215103 1.67975,-0.182542 3.60145,0.40292 5.03832,-0.707133 1.26212,-1.084541 0.93589,-2.870963 0.29603,-4.209974 -0.17465,-0.835244 -1.22976,-2.08316 0.20713,-2.163062 1.49883,-0.604412 3.6652,-0.939901 3.91642,-2.863885 0.3961,-1.93935 -1.56279,-3.125241 -2.51259,-4.560188 -0.002,-0.670809 1.31944,-1.22717 1.82688,-1.853933 0.9193,-0.655837 1.55733,-1.565456 1.48124,-2.734409 z"
       id="path3960"
       inkscape:connector-curvature="0" />
    <path
       sodipodi:type="inkscape:offset"
       inkscape:radius="0.86255777"
       inkscape:original="M 60.96875 55.46875 L 58.8125 59.0625 L 55.1875 57 L 54.40625 61.125 L 50.28125 60.4375 L 50.96875 64.5625 L 46.84375 65.34375 L 48.90625 68.96875 L 45.3125 71.125 L 48.46875 73.84375 L 45.8125 77.0625 L 49.75 78.5625 L 48.34375 82.5 L 52.53125 82.53125 L 52.59375 86.71875 L 56.53125 85.34375 L 58 89.25 L 61.25 86.59375 L 63.96875 89.78125 L 66.09375 86.1875 L 69.75 88.21875 L 70.5 84.125 L 74.65625 84.8125 L 73.96875 80.65625 L 78.0625 79.90625 L 76.03125 76.25 L 79.625 74.125 L 76.4375 71.40625 L 79.09375 68.15625 L 75.1875 66.6875 L 76.5625 62.75 L 72.375 62.6875 L 72.34375 58.5 L 68.40625 59.90625 L 66.90625 55.96875 L 63.6875 58.625 L 60.96875 55.46875 z "
       style="opacity:0.15;color:#000000;fill:#000000;fill-opacity:1;fill-rule:nonzero;stroke:none;stroke-width:2;marker:none;visibility:visible;display:inline;overflow:visible;enable-background:accumulate"
       id="path3956"
       d="m 60.9375,54.59375 a 0.86264402,0.86264402 0 0 0 -0.71875,0.4375 L 58.5,57.875 55.625,56.25 a 0.86264402,0.86264402 0 0 0 -1.28125,0.59375 l -0.625,3.3125 -3.28125,-0.5625 a 0.86264402,0.86264402 0 0 0 -1,1 L 50,63.875 46.6875,64.5 a 0.86264402,0.86264402 0 0 0 -0.59375,1.28125 l 1.625,2.875 L 44.875,70.375 A 0.86264402,0.86264402 0 0 0 44.75,71.78125 L 47.25,73.9375 45.15625,76.5 A 0.86264402,0.86264402 0 0 0 45.5,77.875 l 3.15625,1.1875 -1.125,3.15625 a 0.86264402,0.86264402 0 0 0 0.8125,1.15625 l 3.3125,0.03125 0.0625,3.3125 a 0.86264402,0.86264402 0 0 0 1.15625,0.8125 L 56,86.4375 l 1.1875,3.125 a 0.86264402,0.86264402 0 0 0 1.34375,0.34375 l 2.59375,-2.125 2.1875,2.5625 a 0.86264402,0.86264402 0 0 0 1.40625,-0.125 l 1.6875,-2.875 2.9375,1.625 a 0.86264402,0.86264402 0 0 0 1.25,-0.59375 l 0.59375,-3.28125 3.3125,0.5625 a 0.86264402,0.86264402 0 0 0 1,-1 L 74.9375,81.34375 78.21875,80.75 A 0.86264402,0.86264402 0 0 0 78.8125,79.5 l -1.625,-2.9375 2.875,-1.6875 a 0.86264402,0.86264402 0 0 0 0.125,-1.40625 L 77.625,71.28125 79.75,68.6875 a 0.86264402,0.86264402 0 0 0 -0.34375,-1.34375 l -3.125,-1.1875 1.09375,-3.125 A 0.86264402,0.86264402 0 0 0 76.5625,61.875 L 73.25,61.8125 73.21875,58.5 A 0.86264402,0.86264402 0 0 0 72.0625,57.6875 l -3.15625,1.125 -1.1875,-3.15625 a 0.86264402,0.86264402 0 0 0 -1.375,-0.34375 l -2.5625,2.09375 -2.15625,-2.5 a 0.86264402,0.86264402 0 0 0 -0.6875,-0.3125 z"
       transform="matrix(0,1.4142655,-1.4142655,0,196.40476,-25.708299)" />
    <path
       transform="matrix(0,1.4142655,-1.4142655,0,196.40476,-25.708299)"
       d="m 74.641931,84.79994 -4.128425,-0.680449 -0.772592,4.112178 -3.646724,-2.051417 -2.132447,3.599941 -2.725174,-3.174954 -3.235096,2.653498 -1.474928,-3.915545 -3.947546,1.387004 -0.04678,-4.183864 -4.183864,-0.04678 1.387005,-3.947547 -3.915546,-1.474927 2.653499,-3.235097 -3.174955,-2.725173 3.599941,-2.132447 -2.051417,-3.646724 4.112178,-0.772592 -0.680448,-4.128426 4.128425,0.680449 0.772592,-4.112178 3.646724,2.051417 2.132447,-3.599941 2.725173,3.174954 3.235097,-2.653498 1.474927,3.915545 3.947547,-1.387004 0.04678,4.183864 4.183863,0.04678 -1.387004,3.947547 3.915545,1.474927 -2.653498,3.235097 3.174955,2.725173 -3.599942,2.132447 2.051418,3.646724 -4.112178,0.772592 z"
       inkscape:randomized="0"
       inkscape:rounded="0"
       inkscape:flatsided="false"
       sodipodi:arg2="0.95993109"
       sodipodi:arg1="0.78539816"
       sodipodi:r2="14.040388"
       sodipodi:r1="17.22747"
       sodipodi:cy="72.618279"
       sodipodi:cx="62.46027"
       sodipodi:sides="18"
       id="path3950"
       style="opacity:0.3;color:#000000;fill:#000000;fill-opacity:1;fill-rule:nonzero;stroke:none;stroke-width:2;marker:none;visibility:visible;display:inline;overflow:visible;enable-background:accumulate"
       sodipodi:type="star" />
    <path
       sodipodi:type="star"
       style="color:#000000;fill:url(#linearGradient3915);fill-opacity:1;fill-rule:nonzero;stroke:none;stroke-width:2;marker:none;visibility:visible;display:inline;overflow:visible;enable-background:accumulate"
       id="path3139"
       sodipodi:sides="18"
       sodipodi:cx="62.46027"
       sodipodi:cy="72.618279"
       sodipodi:r1="17.22747"
       sodipodi:r2="14.040388"
       sodipodi:arg1="0.78539816"
       sodipodi:arg2="0.95993109"
       inkscape:flatsided="false"
       inkscape:rounded="0"
       inkscape:randomized="0"
       d="m 74.641931,84.79994 -4.128425,-0.680449 -0.772592,4.112178 -3.646724,-2.051417 -2.132447,3.599941 -2.725174,-3.174954 -3.235096,2.653498 -1.474928,-3.915545 -3.947546,1.387004 -0.04678,-4.183864 -4.183864,-0.04678 1.387005,-3.947547 -3.915546,-1.474927 2.653499,-3.235097 -3.174955,-2.725173 3.599941,-2.132447 -2.051417,-3.646724 4.112178,-0.772592 -0.680448,-4.128426 4.128425,0.680449 0.772592,-4.112178 3.646724,2.051417 2.132447,-3.599941 2.725173,3.174954 3.235097,-2.653498 1.474927,3.915545 3.947547,-1.387004 0.04678,4.183864 4.183863,0.04678 -1.387004,3.947547 3.915545,1.474927 -2.653498,3.235097 3.174955,2.725173 -3.599942,2.132447 2.051418,3.646724 -4.112178,0.772592 z"
       transform="matrix(0,1.4142655,-1.4142655,0,196.40476,-27.056716)" />
    <path
       style="opacity:0;fill:#000000;stroke:none;display:inline"
       d="m 80.219068,63.975524 5.393667,-5.393668 5.393668,5.393668 10.787337,-10.787336 5.39367,5.393668 L 91.006403,74.762859 80.219068,63.975524 z"
       id="path3919"
       sodipodi:nodetypes="ccccccc"
       inkscape:connector-curvature="0" />
    <path
       style="opacity:0.07999998;fill:#000000;stroke:none;display:inline"
       d="m 101.62519,50.491355 c -1.21071,0.01335 -1.939206,1.045809 -2.740439,1.813398 -2.626116,2.626116 -5.252232,5.252232 -7.878348,7.878348 -1.300389,-1.266376 -2.519885,-2.656437 -3.876699,-3.834561 -1.186098,-0.894038 -2.873108,-0.44086 -3.753193,0.634979 -1.731564,1.758581 -3.540038,3.485305 -5.222207,5.264345 -1.056327,1.12821 -0.72362,2.981898 0.407318,3.903843 3.572265,3.558747 7.145405,7.116618 10.717122,10.675915 1.128595,1.056711 2.981171,0.722896 3.904308,-0.406852 5.300189,-5.300189 10.600378,-10.600376 15.900568,-15.900565 1.1243,-1.05264 1.07313,-3.057327 -0.17873,-4.013285 -1.80561,-1.804752 -3.6378,-3.638977 -5.42563,-5.425633 -0.52394,-0.410767 -1.19944,-0.589903 -1.85407,-0.589932 z"
       id="path3929"
       inkscape:connector-curvature="0" />
    <path
       sodipodi:type="inkscape:offset"
       inkscape:radius="0.90841055"
       inkscape:original="M 76 64 L 68 72 L 64 68 L 60 72 L 68 80 L 80 68 L 76 64 z "
       style="opacity:0.12000002;fill:#000000;stroke:none;display:inline"
       id="path3925"
       d="m 75.90625,63.09375 a 0.90850139,0.90850139 0 0 0 -0.5625,0.25 L 68,70.6875 64.65625,67.34375 a 0.90850139,0.90850139 0 0 0 -1.3125,0 l -4,4 a 0.90850139,0.90850139 0 0 0 0,1.3125 l 8,8 a 0.90850139,0.90850139 0 0 0 1.3125,0 l 12,-12 a 0.90850139,0.90850139 0 0 0 0,-1.3125 l -4,-4 a 0.90850139,0.90850139 0 0 0 -0.75,-0.25 z"
       transform="matrix(1.3484169,0,0,1.3484169,-0.68594575,-33.110493)" />
    <path
       style="opacity:0.3;fill:#000000;stroke:none;display:inline"
       d="m 80.219068,63.975524 5.393667,-5.393668 5.393668,5.393668 10.787337,-10.787336 5.39367,5.393668 L 91.006403,74.762859 80.219068,63.975524 z"
       id="path3921"
       sodipodi:nodetypes="ccccccc"
       inkscape:connector-curvature="0" />
    <path
       inkscape:connector-curvature="0"
       sodipodi:nodetypes="ccccccc"
       id="path3917"
       d="m 80.219068,62.627107 5.393667,-5.393668 5.393668,5.393668 10.787337,-10.787335 5.39367,5.393667 L 91.006403,73.414442 80.219068,62.627107 z"
       style="fill:#ffffff;stroke:none;display:inline" />
    <path
       style="opacity:0.6;color:#000000;fill:url(#linearGradient3948);fill-opacity:1;fill-rule:nonzero;stroke:none;stroke-width:2;marker:none;visibility:visible;display:inline;overflow:visible;enable-background:accumulate"
       d="m 95.810138,37.007186 -3.834561,4.508769 -4.593045,-3.750285 -2.064763,5.520082 -5.604358,-1.980487 0,1.348416 5.604358,1.980488 2.064763,-5.520082 4.593045,3.750285 3.834561,-4.508769 3.033938,5.098701 5.140844,-2.907524 1.09558,5.815048 5.6465,-0.927037 0.21069,-1.390555 -5.85719,0.969175 -1.09558,-5.815048 -5.140844,2.907524 -3.033938,-5.098701 z m -16.138865,10.23954 -5.941462,0.04214 0.463519,1.348416 5.477943,-0.04214 0,-1.348417 z m 30.507937,2.696834 -0.21069,1.306279 5.14083,0.969175 0.67421,-1.222003 -5.60435,-1.053451 z m -34.890292,3.118214 -5.098701,1.896212 0.842761,1.05345 4.677321,-1.769797 -0.421381,-1.179865 z m 38.177052,3.413181 -0.58993,1.011312 4.17166,2.486144 0.92704,-0.800623 -4.50877,-2.696833 z m -40.157539,3.62387 -3.876698,3.286766 0.927036,0.547794 3.581732,-3.033938 -0.63207,-0.800622 z m 40.789609,3.708146 -0.63207,0.547795 2.90753,3.539594 0.84276,-0.294966 -3.11822,-3.792423 z m -40.157539,3.623871 -2.317591,4.129527 0.674208,0.126414 2.233316,-3.918837 -0.589933,-0.337104 z m 38.177049,3.41318 -0.42138,0.168552 1.51697,4.255941 0.46352,0 -1.55911,-4.424493 z m -34.890282,3.118214 -0.758485,4.550907 0.21069,-0.04214 0.758485,-4.466631 -0.21069,-0.04214 z"
       id="path3933"
       inkscape:connector-curvature="0" />
  </g>
</svg>
