<?xml version="1.0" encoding="UTF-8" standalone="no"?>
<!-- Created with Inkscape (http://www.inkscape.org/) -->

<svg
   xmlns:dc="http://purl.org/dc/elements/1.1/"
   xmlns:cc="http://creativecommons.org/ns#"
   xmlns:rdf="http://www.w3.org/1999/02/22-rdf-syntax-ns#"
   xmlns:svg="http://www.w3.org/2000/svg"
   xmlns="http://www.w3.org/2000/svg"
   xmlns:sodipodi="http://sodipodi.sourceforge.net/DTD/sodipodi-0.dtd"
   xmlns:inkscape="http://www.inkscape.org/namespaces/inkscape"
   width="128"
   height="128"
   id="svg3027"
   version="1.1"
   inkscape:version="0.48.5 r10040"
   sodipodi:docname="view-sort-descending.svg"
   inkscape:export-xdpi="90"
   inkscape:export-ydpi="90">
  <metadata
     id="metadata5">
    <rdf:RDF>
      <cc:Work
         rdf:about="">
        <dc:format>image/svg+xml</dc:format>
        <dc:type
           rdf:resource="http://purl.org/dc/dcmitype/StillImage" />
        <dc:title></dc:title>
      </cc:Work>
    </rdf:RDF>
  </metadata>
  <defs
     id="defs3029" />
  <sodipodi:namedview
     id="base"
     pagecolor="#ffffff"
     bordercolor="#666666"
     borderopacity="1.0"
     inkscape:pageopacity="0.0"
     inkscape:pageshadow="2"
     inkscape:zoom="2.8"
     inkscape:cx="49.156248"
     inkscape:cy="77.840465"
     inkscape:document-units="px"
     inkscape:current-layer="svg3027"
     showgrid="true"
     inkscape:window-width="1013"
     inkscape:window-height="847"
     inkscape:window-x="1932"
     inkscape:window-y="1"
     inkscape:window-maximized="0"
     inkscape:showpageshadow="false"
     borderlayer="false"
     showguides="true"
     inkscape:guide-bbox="true"
     inkscape:snap-to-guides="false"
     inkscape:snap-grids="false">
    <inkscape:grid
       type="xygrid"
       id="grid2981"
       empspacing="4"
       visible="true"
       enabled="true"
       snapvisiblegridlinesonly="true"
       spacingx="4px"
       spacingy="4px"
       dotted="false" />
    <sodipodi:guide
       orientation="0,1"
       position="0,120"
       id="guide2999" />
    <sodipodi:guide
       orientation="1,0"
       position="120,128"
       id="guide3001" />
    <sodipodi:guide
       orientation="0,1"
       position="0,8"
       id="guide3003" />
    <sodipodi:guide
       orientation="1,0"
       position="8,128"
       id="guide3005" />
  </sodipodi:namedview>
  <path
     style="fill:#3399ff;fill-opacity:1;stroke:none;display:inline"
     d="m 26.385516,8.0558141 c -5.938307,0 -10.752258,4.8139509 -10.752258,10.7522569 0,5.938307 4.813951,10.752258 10.752258,10.752258 5.938306,0 10.752257,-4.813951 10.752257,-10.752258 0,-5.938306 -4.813951,-10.7522569 -10.752257,-10.7522569 z m 44.957876,0 0,34.0040139 -17.002007,0 29.434305,39.111337 28.62789,-39.111337 -17.203616,0 0,-34.0040139 -23.856572,0 z M 26.385516,38.162135 c -5.938307,0 -10.752258,4.813951 -10.752258,10.752257 0,5.938307 4.813951,10.752258 10.752258,10.752258 5.938306,0 10.752257,-4.813951 10.752257,-10.752258 0,-5.938306 -4.813951,-10.752257 -10.752257,-10.752257 z m 0,30.106321 c -5.938307,0 -10.752258,4.813951 -10.752258,10.752257 0,5.938307 4.813951,10.752258 10.752258,10.752258 5.938306,0 10.752257,-4.813951 10.752257,-10.752258 0,-5.938306 -4.813951,-10.752257 -10.752257,-10.752257 z m 0,30.106319 c -5.938307,0 -10.752258,4.813955 -10.752258,10.752255 0,5.9383 4.813951,10.75226 10.752258,10.75226 5.938306,0 10.752257,-4.81396 10.752257,-10.75226 0,-5.9383 -4.813951,-10.752255 -10.752257,-10.752255 z"
     id="path3108"
     inkscape:connector-curvature="0" />
</svg>
