<?xml version="1.0" encoding="UTF-8" standalone="no"?>
<!-- Created with Inkscape (http://www.inkscape.org/) -->

<svg
   xmlns:dc="http://purl.org/dc/elements/1.1/"
   xmlns:cc="http://creativecommons.org/ns#"
   xmlns:rdf="http://www.w3.org/1999/02/22-rdf-syntax-ns#"
   xmlns:svg="http://www.w3.org/2000/svg"
   xmlns="http://www.w3.org/2000/svg"
   xmlns:xlink="http://www.w3.org/1999/xlink"
   xmlns:sodipodi="http://sodipodi.sourceforge.net/DTD/sodipodi-0.dtd"
   xmlns:inkscape="http://www.inkscape.org/namespaces/inkscape"
   width="128"
   height="128"
   id="svg26392"
   version="1.1"
   inkscape:version="0.48.5 r10040"
   sodipodi:docname="media-flash-cf.svg">
  <defs
     id="defs26394">
    <filter
       color-interpolation-filters="sRGB"
       inkscape:collect="always"
       id="filter10207">
      <feGaussianBlur
         inkscape:collect="always"
         stdDeviation="0.022402919"
         id="feGaussianBlur10209" />
    </filter>
    <filter
       color-interpolation-filters="sRGB"
       inkscape:collect="always"
       id="filter5190">
      <feGaussianBlur
         inkscape:collect="always"
         stdDeviation="0.10969233"
         id="feGaussianBlur5192" />
    </filter>
    <filter
       color-interpolation-filters="sRGB"
       inkscape:collect="always"
       id="filter7497">
      <feGaussianBlur
         inkscape:collect="always"
         stdDeviation="0.036652415"
         id="feGaussianBlur7499" />
    </filter>
    <linearGradient
       inkscape:collect="always"
       xlink:href="#linearGradient4827"
       id="linearGradient7553"
       gradientUnits="userSpaceOnUse"
       spreadMethod="reflect"
       x1="64.492081"
       y1="83.273643"
       x2="64.492081"
       y2="83.705124" />
    <linearGradient
       id="linearGradient4827">
      <stop
         id="stop4829"
         offset="0"
         style="stop-color:#a5acb2;stop-opacity:1" />
      <stop
         style="stop-color:#bdc1c7;stop-opacity:1"
         offset="0.64333254"
         id="stop4831" />
      <stop
         id="stop4833"
         offset="0.88042605"
         style="stop-color:#33373c;stop-opacity:1;" />
      <stop
         id="stop4835"
         offset="1"
         style="stop-color:#000000;stop-opacity:1;" />
    </linearGradient>
    <clipPath
       id="clipPath3613"
       clipPathUnits="userSpaceOnUse">
      <rect
         style="fill:#ffffff;fill-opacity:1;fill-rule:nonzero;stroke:none"
         id="rect3615"
         width="84"
         height="84"
         x="6"
         y="6"
         rx="6"
         ry="6" />
    </clipPath>
    <linearGradient
       gradientUnits="userSpaceOnUse"
       y2="138.66119"
       x2="48"
       y1="20.220806"
       x1="48"
       id="linearGradient3613"
       xlink:href="#linearGradient3737"
       inkscape:collect="always" />
    <filter
       color-interpolation-filters="sRGB"
       height="1.3839999"
       y="-0.192"
       width="1.3839999"
       x="-0.192"
       id="filter3794"
       inkscape:collect="always">
      <feGaussianBlur
         id="feGaussianBlur3796"
         stdDeviation="5.28"
         inkscape:collect="always" />
    </filter>
    <filter
       color-interpolation-filters="sRGB"
       id="filter3174"
       inkscape:collect="always">
      <feGaussianBlur
         id="feGaussianBlur3176"
         stdDeviation="1.71"
         inkscape:collect="always" />
    </filter>
    <linearGradient
       id="linearGradient3737"
       inkscape:collect="always">
      <stop
         id="stop3739"
         offset="0"
         style="stop-color:#ffffff;stop-opacity:1;" />
      <stop
         id="stop3741"
         offset="1"
         style="stop-color:#ffffff;stop-opacity:0;" />
    </linearGradient>
    <linearGradient
       gradientUnits="userSpaceOnUse"
       y2="7.0165396"
       x2="45.447727"
       y1="92.539597"
       x1="45.447727"
       gradientTransform="scale(1.0058652,0.994169)"
       id="ButtonShadow">
      <stop
         id="stop3750"
         offset="0"
         style="stop-color:#000000;stop-opacity:1;" />
      <stop
         id="stop3752"
         offset="1"
         style="stop-color:#000000;stop-opacity:0.58823532;" />
    </linearGradient>
    <linearGradient
       inkscape:collect="always"
       xlink:href="#ButtonShadow-2"
       id="linearGradient2961"
       gradientUnits="userSpaceOnUse"
       gradientTransform="scale(1.0058652,0.994169)"
       x1="45.447727"
       y1="92.539597"
       x2="45.447727"
       y2="7.0165396" />
    <filter
       id="filter3689"
       inkscape:collect="always"
       color-interpolation-filters="sRGB">
      <feGaussianBlur
         id="feGaussianBlur3691"
         stdDeviation="1.71"
         inkscape:collect="always" />
    </filter>
    <linearGradient
       gradientUnits="userSpaceOnUse"
       y2="7.0165396"
       x2="45.447727"
       y1="92.539597"
       x1="45.447727"
       gradientTransform="scale(1.0058652,0.994169)"
       id="ButtonShadow-2">
      <stop
         id="stop3750-61"
         offset="0"
         style="stop-color:#000000;stop-opacity:1;" />
      <stop
         id="stop3752-0"
         offset="1"
         style="stop-color:#000000;stop-opacity:0.58823532;" />
    </linearGradient>
    <filter
       id="filter3174-6"
       inkscape:collect="always">
      <feGaussianBlur
         id="feGaussianBlur3176-5"
         stdDeviation="1.71"
         inkscape:collect="always" />
    </filter>
    <linearGradient
       gradientUnits="userSpaceOnUse"
       y2="7.0165396"
       x2="45.447727"
       y1="92.539597"
       x1="45.447727"
       gradientTransform="scale(1.0058652,0.994169)"
       id="ButtonShadow-8">
      <stop
         id="stop3750-6"
         offset="0"
         style="stop-color:#000000;stop-opacity:1;" />
      <stop
         id="stop3752-9"
         offset="1"
         style="stop-color:#000000;stop-opacity:0.58823532;" />
    </linearGradient>
    <linearGradient
       gradientUnits="userSpaceOnUse"
       xlink:href="#linearGradient3627"
       id="linearGradient3633"
       y2="42"
       x2="23"
       y1="11"
       x1="23" />
    <linearGradient
       gradientTransform="translate(0,1.9999985)"
       gradientUnits="userSpaceOnUse"
       xlink:href="#linearGradient4071"
       id="linearGradient4069"
       y2="21"
       x2="24"
       y1="3.6559613"
       x1="24" />
    <radialGradient
       gradientTransform="matrix(1.9090911,-7.6571995e-8,2.8677115e-8,1.4090911,-8.1818204,-4.9821908)"
       gradientUnits="userSpaceOnUse"
       xlink:href="#linearGradient4992"
       id="radialGradient3677"
       fy="19.148649"
       fx="9"
       r="21.999998"
       cy="19.148649"
       cx="9" />
    <radialGradient
       gradientTransform="matrix(2.2852777,0.06529364,-0.04761903,1.6666667,-6.0882932,-0.15980297)"
       gradientUnits="userSpaceOnUse"
       xlink:href="#linearGradient5036"
       id="radialGradient3675"
       fy="7.0999999"
       fx="5"
       r="21"
       cy="7.0999999"
       cx="5" />
    <radialGradient
       gradientTransform="matrix(-2.774389,0,0,1.969706,112.7623,-872.8854)"
       gradientUnits="userSpaceOnUse"
       xlink:href="#linearGradient5060"
       id="radialGradient6454"
       fy="486.64789"
       fx="605.71429"
       r="117.14286"
       cy="486.64789"
       cx="605.71429" />
    <radialGradient
       gradientTransform="matrix(2.774389,0,0,1.969706,-1891.633,-872.8854)"
       gradientUnits="userSpaceOnUse"
       xlink:href="#linearGradient5060"
       id="radialGradient6452"
       fy="486.64789"
       fx="605.71429"
       r="117.14286"
       cy="486.64789"
       cx="605.71429" />
    <linearGradient
       gradientTransform="matrix(2.774389,0,0,1.969706,-1892.179,-872.8854)"
       gradientUnits="userSpaceOnUse"
       xlink:href="#linearGradient5048"
       id="linearGradient6450"
       y2="609.50507"
       x2="302.85715"
       y1="366.64789"
       x1="302.85715" />
    <linearGradient
       id="linearGradient5060">
      <stop
         offset="0"
         style="stop-color:black;stop-opacity:1"
         id="stop5062" />
      <stop
         offset="1"
         style="stop-color:black;stop-opacity:0"
         id="stop5064" />
    </linearGradient>
    <linearGradient
       id="linearGradient5048">
      <stop
         offset="0"
         style="stop-color:black;stop-opacity:0"
         id="stop5050" />
      <stop
         offset="0.5"
         style="stop-color:black;stop-opacity:1"
         id="stop5056" />
      <stop
         offset="1"
         style="stop-color:black;stop-opacity:0"
         id="stop5052" />
    </linearGradient>
    <linearGradient
       id="linearGradient5036">
      <stop
         offset="0"
         style="stop-color:white;stop-opacity:1"
         id="stop5038" />
      <stop
         offset="1"
         style="stop-color:white;stop-opacity:0"
         id="stop5040" />
    </linearGradient>
    <linearGradient
       id="linearGradient4992">
      <stop
         offset="0"
         style="stop-color:#787878;stop-opacity:1"
         id="stop4994" />
      <stop
         offset="1"
         style="stop-color:#3c3c3c;stop-opacity:1"
         id="stop4996" />
    </linearGradient>
    <linearGradient
       id="linearGradient4071">
      <stop
         offset="0"
         style="stop-color:#edd563;stop-opacity:1"
         id="stop4073" />
      <stop
         offset="1"
         style="stop-color:#e08223;stop-opacity:1"
         id="stop4075" />
    </linearGradient>
    <linearGradient
       id="linearGradient3627">
      <stop
         offset="0"
         style="stop-color:#e6e6e6;stop-opacity:1"
         id="stop3629" />
      <stop
         offset="1"
         style="stop-color:#aaa;stop-opacity:1"
         id="stop3631" />
    </linearGradient>
    <radialGradient
       gradientTransform="matrix(1.1220207,0,0,0.0701262,-3.1735529,32.826089)"
       gradientUnits="userSpaceOnUse"
       xlink:href="#linearGradient6125"
       id="radialGradient2857"
       fy="45.25996"
       fx="24.218407"
       r="21.38998"
       cy="45.25996"
       cx="24.218407" />
    <radialGradient
       gradientTransform="matrix(1.6033589,0.01259397,-0.00618956,0.78800158,-6.0110088,9.3957949)"
       gradientUnits="userSpaceOnUse"
       xlink:href="#linearGradient4070"
       id="radialGradient2854"
       fy="15.833331"
       fx="10.125002"
       r="22.999998"
       cy="15.833331"
       cx="10.125002" />
    <linearGradient
       gradientTransform="matrix(0,-1.0833331,1.0357155,0,-0.58930093,51.541662)"
       gradientUnits="userSpaceOnUse"
       xlink:href="#linearGradient4082"
       id="linearGradient2851"
       y2="24.706882"
       x2="18.961538"
       y1="24.706882"
       x1="19.884615" />
    <linearGradient
       gradientTransform="translate(0,2)"
       gradientUnits="userSpaceOnUse"
       xlink:href="#linearGradient6334"
       id="linearGradient2848"
       y2="33.038029"
       x2="24.032988"
       y1="13.961969"
       x1="24.032988" />
    <linearGradient
       id="linearGradient6125">
      <stop
         offset="0"
         style="stop-color:black;stop-opacity:1"
         id="stop6127" />
      <stop
         offset="1"
         style="stop-color:black;stop-opacity:0"
         id="stop6129" />
    </linearGradient>
    <linearGradient
       id="linearGradient6334">
      <stop
         offset="0"
         style="stop-color:white;stop-opacity:1"
         id="stop6336" />
      <stop
         offset="1"
         style="stop-color:white;stop-opacity:0"
         id="stop6338" />
    </linearGradient>
    <linearGradient
       id="linearGradient4070">
      <stop
         offset="0"
         style="stop-color:#b8b2ed;stop-opacity:1"
         id="stop4072" />
      <stop
         offset="1"
         style="stop-color:#8181b5;stop-opacity:1"
         id="stop4074" />
    </linearGradient>
    <linearGradient
       id="linearGradient4082">
      <stop
         offset="0"
         style="stop-color:#6d6dab;stop-opacity:1"
         id="stop4084" />
      <stop
         offset="1"
         style="stop-color:#acacd0;stop-opacity:1"
         id="stop4086" />
    </linearGradient>
  </defs>
  <sodipodi:namedview
     id="base"
     pagecolor="#ffffff"
     bordercolor="#666666"
     borderopacity="1.0"
     inkscape:pageopacity="0.0"
     inkscape:pageshadow="2"
     inkscape:zoom="2.8284272"
     inkscape:cx="51.980188"
     inkscape:cy="67.345859"
     inkscape:current-layer="layer5-5"
     showgrid="true"
     inkscape:document-units="px"
     inkscape:grid-bbox="true"
     inkscape:window-width="817"
     inkscape:window-height="785"
     inkscape:window-x="774"
     inkscape:window-y="47"
     inkscape:window-maximized="0"
     showguides="true"
     inkscape:guide-bbox="true"
     inkscape:snap-grids="false"
     inkscape:snap-to-guides="false"
     inkscape:showpageshadow="false">
    <inkscape:grid
       type="xygrid"
       id="grid3056"
       empspacing="4"
       visible="true"
       enabled="true"
       snapvisiblegridlinesonly="true"
       spacingx="8px"
       spacingy="8px" />
  </sodipodi:namedview>
  <metadata
     id="metadata26397">
    <rdf:RDF>
      <cc:Work
         rdf:about="">
        <dc:format>image/svg+xml</dc:format>
        <dc:type
           rdf:resource="http://purl.org/dc/dcmitype/StillImage" />
        <dc:title></dc:title>
      </cc:Work>
    </rdf:RDF>
  </metadata>
  <g
     id="layer1"
     inkscape:label="Layer 1"
     inkscape:groupmode="layer"
     transform="translate(0,64)">
    <g
       id="layer1-6"
       transform="translate(25.999999,-46.999925)">
      <g
         id="g10713"
         transform="translate(-3.5156255,4.4999263)">
        <g
           style="display:none"
           inkscape:label="Blur Shadow"
           id="layer2">
          <rect
             ry="6"
             rx="6"
             y="7"
             x="5"
             height="85"
             width="86"
             id="rect3745"
             style="opacity:0.9;fill:url(#ButtonShadow);fill-opacity:1;fill-rule:nonzero;stroke:none;filter:url(#filter3174)" />
        </g>
        <g
           style="display:none"
           inkscape:label="Highlight"
           id="layer5">
          <rect
             clip-path="url(#clipPath3613)"
             ry="12"
             rx="12"
             y="15"
             x="15"
             height="66"
             width="66"
             id="rect3171"
             style="opacity:0.5;fill:url(#linearGradient3613);fill-opacity:1;fill-rule:nonzero;stroke:#ffffff;stroke-width:0.5;stroke-linecap:round;stroke-linejoin:miter;stroke-miterlimit:4;stroke-opacity:1;stroke-dasharray:none;stroke-dashoffset:0;filter:url(#filter3794)" />
        </g>
        <g
           style="display:inline"
           inkscape:label="Keys"
           id="layer3">
          <g
             style="display:inline"
             id="g11357"
             transform="translate(38.007882,-11.245305)">
            <g
               style="display:none"
               inkscape:label="Blur Shadow"
               id="layer2-6">
              <path
                 id="rect3745-5"
                 d="m 11,7.0000001 c -3.324,0 -6,2.676 -6,5.9999999 l 0,5 0,16 c 0,15.179622 5,20.148843 5,40 l 0,12 c 0,3.313708 2.686292,6 6,6 l 64,0 c 3.313708,0 6,-2.686292 6,-6 l 0,-12 c 0,-19.851157 5,-24.820378 5,-40 l 0,-16 0,-5 C 91,9.6760001 88.324,7.0000001 85,7.0000001 l -74,0 z"
                 style="opacity:0.9;fill:url(#linearGradient2961);fill-opacity:1;fill-rule:nonzero;stroke:none;display:inline;filter:url(#filter3689)"
                 inkscape:connector-curvature="0" />
            </g>
            <g
               style="display:inline"
               id="layer1-9"
               inkscape:label="Button"
               transform="matrix(1.3208701,0,0,1.3208701,-59.151765,-11.293507)">
              <g
                 id="g11630"
                 transform="matrix(0.75707672,0,0,0.75707672,6.1892029,3.5126038)">
                <g
                   style="display:none"
                   inkscape:label="Blur Shadow"
                   id="layer2-4">
                  <rect
                     ry="6"
                     rx="6"
                     y="7"
                     x="5"
                     height="85"
                     width="86"
                     id="rect3745-6"
                     style="opacity:0.9;fill:url(#ButtonShadow-8);fill-opacity:1;fill-rule:nonzero;stroke:none;filter:url(#filter3174-6)" />
                </g>
                <g
                   style="display:inline"
                   inkscape:label="Highlight"
                   id="layer5-5"
                   transform="matrix(1.3050676,0,0,1.3050676,-8.4701078,-2.6104295)">
                  <g
                     id="g11932"
                     transform="matrix(1.9627545,0,0,1.9627545,1.3980437,3.9262747)">
                    <path
                       style="opacity:0.3;color:#000000;fill:url(#radialGradient2857);fill-opacity:1;fill-rule:evenodd;stroke:none;stroke-width:1;marker:none;visibility:visible;display:inline;overflow:visible"
                       id="path6318"
                       d="M 48.000001,36 A 24.000001,1.5 0 0 1 6.9226478e-8,36 24.000001,1.5 0 1 1 48.000001,36 z"
                       inkscape:connector-curvature="0" />
                    <path
                       style="color:#000000;fill:url(#radialGradient2854);fill-opacity:1;fill-rule:evenodd;stroke:#606090;stroke-width:1;stroke-linecap:butt;stroke-linejoin:round;stroke-miterlimit:4;stroke-opacity:1;stroke-dasharray:none;stroke-dashoffset:0.8015976;marker:none;visibility:visible;display:inline;overflow:visible"
                       id="path6316"
                       d="m 6,35.495379 39.262703,0 c 0.818261,0.03293 1.230948,-0.09483 1.230948,-0.885272 l 0,-2.523151 c 0,-0.76263 -1.047537,-0.781081 -1.047537,-0.781081 l 0.03273,-12.584039 c 0,0 1.021157,0.0598 1.021157,-0.767121 l 0,-2.454716 -44.000001,0 c -0.4714041,0 -0.9999971,0.528597 -0.9999971,1.000001 l 0,16 L 6,35.495379 z"
                       inkscape:connector-curvature="0" />
                    <path
                       style="color:#000000;fill:none;stroke:url(#linearGradient2851);stroke-width:0.99999928;stroke-linecap:butt;stroke-linejoin:miter;stroke-miterlimit:4;stroke-opacity:1;stroke-dashoffset:0.8015976;marker:none;visibility:visible;display:inline;overflow:visible"
                       id="rect6322"
                       d="m 45,31.5 -27.548459,0 C 16.924387,31.5 16.5,31.068083 16.5,30.531576 l 0,-11.063152 C 16.5,18.931917 16.924387,18.5 17.451541,18.5 L 45,18.5"
                       inkscape:connector-curvature="0" />
                    <path
                       style="opacity:0.45;color:#000000;fill:none;stroke:url(#linearGradient2848);stroke-width:0.95106083;stroke-linecap:butt;stroke-linejoin:round;stroke-miterlimit:4;stroke-opacity:1;stroke-dashoffset:0.8015976;marker:none;visibility:visible;display:inline;overflow:visible"
                       id="path6332"
                       d="M 2.5,16.4375 2.5,32 c 1.2916667,0.854167 2.5208333,1.708333 3.8125,2.5625 13.083333,0 26.166667,0 39.25,0 0,-0.760417 0,-1.520833 0,-2.28125 -0.782421,0.03563 -1.210752,-0.752645 -1.061308,-1.449037 0.02328,-4.09992 -0.0058,-8.203325 0.05006,-12.301079 -0.04527,-0.753397 1.085172,-0.503693 1.011249,-1.038057 L 45.5,16.5 c -14.098012,0 -28.901987,-0.0625 -43,-0.0625 z"
                       inkscape:connector-curvature="0" />
                    <path
                       style="fill:#444459;fill-rule:evenodd"
                       id="path4012"
                       d="m 8.9993921,23.535666 c -2.1154514,0 -3.8406468,-0.024 -3.8406468,0.0621 0,0.0861 1.7251954,0.191404 3.8406468,0.191404 2.1154519,0 3.8406469,-0.105602 3.8406469,-0.191404 0,-0.0861 -1.725195,-0.0621 -3.8406469,-0.0621 z m 0,0.572414 c -1.583632,0 -2.8754416,-0.0315 -2.8754416,0.03061 0,0.06241 1.2918096,0.183905 2.8754416,0.183905 1.5839799,0 2.8757899,-0.121504 2.8757899,-0.183905 0,-0.06241 -1.29181,-0.03061 -2.8757899,-0.03061 z m 0,0.696016 c -1.1627678,0 -2.1112775,-0.027 -2.1112775,0.027 0,0.0546 0.9485097,0.168904 2.1112775,0.168904 1.1627679,0 2.1112789,-0.114602 2.1112789,-0.168904 0,-0.054 -0.948511,-0.027 -2.1112789,-0.027 z M 6.7608119,23.128857 c 0.4361683,-0.0477 0.6469483,-0.233704 0.7373819,-0.49561 0.090086,-0.262206 0.2681705,-0.43111 0.5763405,-0.420309 0.3085178,0.0108 0.3599954,0.148803 0.30817,0.312306 -0.05113,0.163803 -0.039999,0.260406 -0.079999,0.409509 -0.084521,0.327308 1.4726768,0.306907 1.3937213,0 -0.040347,-0.149403 -0.02887,-0.245706 -0.079999,-0.409509 -0.051826,-0.163503 0,-0.301507 0.3085176,-0.312306 0.3081698,-0.0108 0.4859068,0.158103 0.5763408,0.420309 0.09009,0.261906 0.300866,0.44791 0.737382,0.49561 0.436168,0.0477 0.937379,0.0357 1.367634,0.0429 0.42956,0.0072 0.593732,-0.084 0.04626,-0.136803 -0.547471,-0.0528 -1.28033,-0.259205 -1.418068,-0.539712 -0.138086,-0.280207 -0.283822,-0.411009 -0.786425,-0.44371 -1.0563343,-0.0693 -1.7923249,-0.0681 -2.895963,0 -0.5029501,0.0309 -0.6483396,0.163803 -0.7864249,0.44371 -0.1377373,0.280507 -0.8702498,0.486911 -1.4184167,0.539712 -0.5471235,0.05251 -0.3832994,0.144003 0.046608,0.136803 0.4295597,-0.0072 0.9307707,0.0049 1.3669391,-0.0429 z"
                       inkscape:connector-curvature="0" />
                    <path
                       style="fill:#3a3a59;fill-rule:evenodd"
                       id="path4014"
                       d="m 30.528029,27.958297 h -0.773654 c -0.210169,0 -0.381449,0.179968 -0.381449,0.399653 v 1.242398 c 0,0.219271 0.17128,0.399238 0.381449,0.399238 h 0.773654 c 0.209756,0 0.381449,-0.179967 0.381449,-0.399238 V 28.35795 c 0,-0.219685 -0.171693,-0.399653 -0.381449,-0.399653 z m -0.04592,1.510902 c 0,0.174175 -0.07654,0.315667 -0.169211,0.315667 h -0.343387 c -0.09309,0 -0.168797,-0.141492 -0.168797,-0.315667 v -0.980928 c 0,-0.172521 0.07612,-0.31484 0.168797,-0.31484 h 0.343387 c 0.09309,0 0.169211,0.142319 0.169211,0.31484 v 0.980928 z m 6.043192,-0.891978 h -0.466675 v -8.28e-4 h -0.26147 c -0.09226,0 -0.168384,-0.205618 -0.168384,-0.404617 v -0.119151 c 0,-0.198171 0.07654,-0.361177 0.168384,-0.361177 h 1.068222 v -0.24699 h -1.271772 c -0.209756,0 -0.381035,0.206446 -0.381035,0.458401 v 0.418683 c 0,0.251955 0.171279,0.501841 0.381035,0.501841 h 0.426958 v 8.28e-4 h 0.317322 c 0.09309,0 0.168798,0.162591 0.168798,0.36159 v 0.205618 c 0,0.198586 -0.07612,0.361591 -0.168798,0.361591 h -1.117455 v 0.246576 h 1.30487 c 0.209755,0 0.381449,-0.206445 0.381449,-0.457987 v -0.505978 c -4.14e-4,-0.252368 -0.172107,-0.4584 -0.381449,-0.4584 z M 25.482314,28.35795 v 1.242398 c 0,0.219271 0.181208,0.399238 0.403375,0.399238 h 0.939556 v -0.215134 h -0.712424 c -0.09888,0 -0.17914,-0.141491 -0.17914,-0.315667 v -0.393033 h 0.879566 V 28.88089 h -0.879152 v -0.393033 c 0,-0.17252 0.07985,-0.31484 0.17914,-0.31484 h 0.712424 v -0.215134 h -0.939556 c -0.222581,4.14e-4 -0.403789,0.180382 -0.403789,0.400067 z m 14.365148,0 v 1.242398 c 0,0.219271 0.181209,0.399238 0.402962,0.399238 h 0.940797 v -0.215134 h -0.713252 c -0.09805,0 -0.178726,-0.141491 -0.178726,-0.315667 v -0.980928 c 0,-0.17252 0.08026,-0.31484 0.178726,-0.31484 h 0.713252 v -0.215134 h -0.940797 c -0.221753,4.14e-4 -0.402962,0.180382 -0.402962,0.400067 z M 27.971247,29.448099 27.611725,27.958297 H 27.18063 v 2.041289 h 0.291672 v -1.411195 l 0.340076,1.411195 h 0.317323 l 0.322287,-1.334657 v 1.334657 h 0.452195 v -2.041289 h -0.573415 l -0.359521,1.489802 z M 23.993339,29.307021 23.541558,27.43577 H 23 v 2.563816 h 0.366141 v -1.772785 l 0.427786,1.772785 h 0.397997 l 0.436474,-1.805055 v 1.805055 h 0.537421 V 27.43577 h -0.721113 l -0.451367,1.871251 z m 8.707129,-0.584585 V 28.35795 c 0,-0.219685 -0.17128,-0.399653 -0.381449,-0.399653 h -0.966448 v 2.041289 h 0.389723 v -1.826155 h 0.446817 c 0.09309,0 0.169211,0.141492 0.169211,0.31484 v 0.103844 c 0,0.173348 -0.07654,0.315667 -0.169211,0.315667 h -0.09557 v 0.01903 h -0.176244 l 0.450126,1.073187 h 0.335526 l -0.368624,-0.877912 c 0.203136,-0.0095 0.366142,-0.185346 0.366142,-0.399652 z m 6.135865,1.27715 h 0.389309 v -2.041289 h -0.389309 v 2.041289 z m -1.833602,-1.69873 h 0.522527 v 1.698317 h 0.388895 v -1.698317 h 0.523768 v -0.342559 h -1.43519 v 0.342559 z M 43,27.958297 h -0.38931 l -0.599478,0.71532 v -0.71532 h -0.388896 v 2.041289 h 0.388896 v -0.878739 l 0.599478,0.878739 H 43 L 42.232551,28.874271 43,27.958297 z m -9.249514,0.802615 -0.342559,-0.802201 h -0.38931 l 0.495222,1.160481 V 30 h 0.389309 v -0.887013 l 0.451368,-1.154276 h -0.290845 l -0.313185,0.802201 z"
                       inkscape:connector-curvature="0" />
                    <path
                       style="fill:#444459;fill-rule:evenodd"
                       id="path4016"
                       d="m 12.317681,19.0736 0,0.240797 0.06299,0 c 0.053,0 0.06967,0.01116 0.06967,0.0392 0,0.0168 -0.007,0.0364 -0.02133,0.06481 l -0.250001,0.381197 c -0.032,0.0524 -0.066,0.04681 -0.09434,0.0055 l -0.235334,-0.367151 c -0.01233,-0.02239 -0.03133,-0.04441 -0.03133,-0.0728 0,-0.0332 0.02633,-0.05 0.089,-0.05 l 0.06166,0 0,-0.240768 -0.864335,0 0,0.240798 c 0.214334,0 0.203668,0.028 0.280668,0.156799 l 0.465334,0.736396 0,0.372796 c 0,0.09521 -0.03366,0.1288 -0.130001,0.1288 l -0.149334,0 0,0.232798 0.955336,0 0,-0.232807 -0.149,0 c -0.09634,0 -0.130334,-0.0332 -0.130334,-0.128801 l 0,-0.372796 0.395667,-0.610396 c 0.144334,-0.260398 0.163667,-0.282798 0.267335,-0.282798 l 0.09,0 0,-0.240799 -0.682335,0 z m -6.9523474,0.430797 c 0,-0.1484 0.1920003,-0.249199 0.4190007,-0.249199 0.1763338,0 0.3856676,0.105999 0.4823343,0.233199 0.053666,0.0704 0.1123336,0.122798 0.129667,0.257199 l 0.1923337,0 0,-0.671996 -0.2083338,0 c 3.334e-4,0.154399 -0.041,0.149198 -0.085333,0.108399 C 6.1353357,19.053204 5.9686686,19.014805 5.7703348,19.014805 5.298334,19.014404 5,19.255203 5,19.6388 c 0,0.369998 0.2360005,0.473598 0.5600012,0.543597 l 0.2870005,0.06721 c 0.3380007,0.0752 0.4433341,0.108795 0.4433341,0.249198 0,0.139998 -0.1063334,0.236399 -0.4150007,0.240398 -0.2046671,0.0031 -0.4280009,-0.0868 -0.5216678,-0.209998 -0.054,-0.07 -0.1126668,-0.106394 -0.1553335,-0.282399 l -0.1933343,0 0,0.694395 0.2140004,0 c 0.009,-0.098 0.029666,-0.175597 0.078,-0.135997 C 5.451334,20.923203 5.7136677,21 5.8866681,21 6.3870024,21 6.6653363,20.773203 6.6653363,20.366806 6.6656696,19.58841 5.3653338,19.916408 5.3653338,19.504411 z m 4.8303434,-0.184798 0.119667,0 c 0.101667,0 0.137333,0.0336 0.137333,0.131999 l -0.004,0.747194 -0.8286677,-1.111193 -0.6836676,0 0,0.232398 0.1310004,0 c 0.1020001,0 0.1376668,0.0336 0.1376668,0.132 l 0,1.142393 c 0,0.09521 -0.035667,0.131999 -0.1376668,0.131999 l -0.1310004,0 0,0.229198 0.7906681,0 0,-0.229198 -0.1323336,0 c -0.1020002,0 -0.1376669,-0.0364 -0.1376669,-0.131999 l 0,-0.949594 0.9650017,1.307591 0.298334,0.0031 0,-1.503557 c 0,-0.09801 0.03566,-0.132 0.137667,-0.132 l 0.09933,0 0,-0.232351 -0.761668,0 0,0.232 z M 7.8980053,19 c -0.6070012,0 -0.9866687,0.383596 -0.9866687,0.999993 0,0.605196 0.3746675,0.985994 0.9683354,0.985994 0.6306678,0 0.9973352,-0.375597 0.9973352,-1.017194 C 8.8770072,19.392798 8.4810065,19 7.8980053,19 z m -0.013667,1.742388 c -0.3360007,0 -0.529001,-0.277198 -0.529001,-0.755995 0,-0.467597 0.201667,-0.744795 0.546001,-0.744795 0.3303341,0 0.5233344,0.282798 0.5233344,0.764796 -3.333e-4,0.469996 -0.1960004,0.735994 -0.5403344,0.735994 z"
                       inkscape:connector-curvature="0" />
                    <polygon
                       style="fill:#444459;fill-rule:evenodd"
                       id="polygon4018"
                       transform="matrix(0.37740121,0,0,0.37740121,2.5804808,0.4658532)"
                       points="6.411,79.385 11.258,83.821 11.258,74.951 " />
                  </g>
                </g>
              </g>
            </g>
          </g>
        </g>
      </g>
    </g>
  </g>
</svg>
