ply
format ascii 1.0
comment Created by Blender 2.69 (sub 0) - www.blender.org, source file: ''
element vertex 288
property float x
property float y
property float z
property float nx
property float ny
property float nz
element face 100
property list uchar uint vertex_indices
end_header
1.000000 0.000000 -1.000000 0.000000 1.000000 0.000000
-1.000000 0.000000 -1.000000 0.000000 1.000000 0.000000
-0.846154 0.000000 -0.846154 0.000000 1.000000 0.000000
0.846154 0.000000 -0.846154 0.000000 1.000000 0.000000
-1.000000 0.000000 1.000000 0.000000 1.000000 0.000000
-0.846154 0.000000 0.846154 0.000000 1.000000 0.000000
0.846154 0.000000 0.846154 0.000000 1.000000 0.000000
1.000000 0.000000 1.000000 0.000000 1.000000 0.000000
0.076923 0.000000 0.692308 -0.000000 1.000000 0.000000
0.076923 0.000000 -0.692308 -0.000000 1.000000 0.000000
-0.076923 0.000000 -0.692308 -0.000000 1.000000 0.000000
-0.076923 0.000000 0.692308 -0.000000 1.000000 0.000000
0.230769 0.000000 0.692308 0.000000 1.000000 -0.000000
0.384615 0.000000 0.692308 0.000000 1.000000 -0.000000
0.384615 0.000000 0.230769 0.000000 1.000000 -0.000000
0.230769 0.000000 0.076923 0.000000 1.000000 -0.000000
0.538462 0.000000 0.230769 -0.000000 1.000000 0.000000
0.538462 0.000000 0.076923 -0.000000 1.000000 0.000000
0.692308 0.000000 0.692308 -0.000000 1.000000 0.000000
0.692308 0.000000 -0.692308 -0.000000 1.000000 0.000000
0.538462 0.000000 -0.538462 -0.000000 1.000000 0.000000
0.538462 0.000000 0.692308 -0.000000 1.000000 0.000000
0.384615 0.000000 -0.384615 -0.000000 1.000000 0.000000
0.384615 0.000000 -0.538462 -0.000000 1.000000 0.000000
0.230769 0.000000 -0.692308 -0.000000 1.000000 0.000000
0.230769 0.000000 -0.384615 -0.000000 1.000000 0.000000
-0.692308 0.000000 -0.692308 0.000000 1.000000 0.000000
-0.692308 0.000000 0.692308 0.000000 1.000000 0.000000
-0.538462 0.000000 0.538462 0.000000 1.000000 0.000000
-0.538462 0.000000 -0.692308 0.000000 1.000000 0.000000
-0.538462 0.000000 0.076923 0.000000 1.000000 0.000000
-0.538462 0.000000 0.230769 0.000000 1.000000 0.000000
-0.384615 0.000000 0.230769 0.000000 1.000000 0.000000
-0.230769 0.000000 0.076923 0.000000 1.000000 0.000000
-0.384615 0.000000 0.538462 0.000000 1.000000 0.000000
-0.230769 0.000000 0.692308 0.000000 1.000000 0.000000
0.384615 0.000000 -0.384615 0.000000 -0.000000 1.000000
0.230769 0.000000 -0.384615 0.000000 -0.000000 1.000000
0.230769 -0.100000 -0.384615 0.000000 -0.000000 1.000000
0.384615 -0.100000 -0.384615 0.000000 -0.000000 1.000000
-0.846154 0.000000 -0.846154 1.000000 -0.000000 0.000000
-0.846154 0.000000 0.846154 1.000000 -0.000000 0.000000
-0.846154 -0.100000 0.846154 1.000000 -0.000000 0.000000
-0.846154 -0.100000 -0.846154 1.000000 -0.000000 0.000000
0.538462 0.000000 0.230769 -1.000000 0.000000 0.000000
0.538462 0.000000 0.076923 -1.000000 0.000000 0.000000
0.538462 -0.100000 0.076923 -1.000000 0.000000 0.000000
0.538462 -0.100000 0.230769 -1.000000 0.000000 0.000000
0.230769 0.000000 -0.692308 0.000000 0.000000 -1.000000
0.692308 0.000000 -0.692308 0.000000 0.000000 -1.000000
0.692308 -0.100000 -0.692308 0.000000 0.000000 -1.000000
0.230769 -0.100000 -0.692308 0.000000 0.000000 -1.000000
1.000000 0.000000 -1.000000 1.000000 -0.000000 0.000000
1.000000 0.000000 1.000000 1.000000 -0.000000 0.000000
1.000000 -0.100000 1.000000 1.000000 -0.000000 0.000000
1.000000 -0.100000 -1.000000 1.000000 -0.000000 0.000000
0.230769 0.000000 0.076923 -1.000000 0.000000 0.000000
0.230769 -0.100000 0.076923 -1.000000 0.000000 0.000000
0.230769 -0.100000 0.692308 -1.000000 0.000000 0.000000
0.230769 0.000000 0.692308 -1.000000 0.000000 0.000000
-0.692308 0.000000 0.692308 -1.000000 0.000000 0.000000
-0.692308 0.000000 -0.692308 -1.000000 0.000000 0.000000
-0.692308 -0.100000 -0.692308 -1.000000 0.000000 0.000000
-0.692308 -0.100000 0.692308 -1.000000 0.000000 0.000000
-0.384615 0.000000 0.230769 0.000000 -0.000000 1.000000
-0.538462 0.000000 0.230769 0.000000 -0.000000 1.000000
-0.538462 -0.100000 0.230769 0.000000 -0.000000 1.000000
-0.384615 -0.100000 0.230769 0.000000 -0.000000 1.000000
0.692308 0.000000 0.692308 0.000000 -0.000000 1.000000
0.538462 0.000000 0.692308 0.000000 -0.000000 1.000000
0.538462 -0.100000 0.692308 0.000000 -0.000000 1.000000
0.692308 -0.100000 0.692308 0.000000 -0.000000 1.000000
0.230769 0.000000 0.692308 0.000000 0.000000 1.000000
0.230769 -0.100000 0.692308 0.000000 0.000000 1.000000
0.384615 -0.100000 0.692308 0.000000 0.000000 1.000000
0.384615 0.000000 0.692308 0.000000 0.000000 1.000000
-0.230769 0.000000 0.692308 0.000000 -0.000000 1.000000
-0.692308 0.000000 0.692308 0.000000 -0.000000 1.000000
-0.692308 -0.100000 0.692308 0.000000 -0.000000 1.000000
-0.230769 -0.100000 0.692308 0.000000 -0.000000 1.000000
-0.076923 0.000000 -0.692308 -1.000000 0.000000 0.000000
-0.076923 -0.100000 -0.692308 -1.000000 0.000000 0.000000
-0.076923 -0.100000 0.692308 -1.000000 0.000000 0.000000
-0.076923 0.000000 0.692308 -1.000000 0.000000 0.000000
0.384615 0.000000 -0.538462 1.000000 -0.000000 0.000000
0.384615 0.000000 -0.384615 1.000000 -0.000000 0.000000
0.384615 -0.100000 -0.384615 1.000000 -0.000000 0.000000
0.384615 -0.100000 -0.538462 1.000000 -0.000000 0.000000
-1.000000 0.000000 1.000000 -1.000000 0.000000 0.000000
-1.000000 0.000000 -1.000000 -1.000000 0.000000 0.000000
-1.000000 -0.100000 -1.000000 -1.000000 0.000000 0.000000
-1.000000 -0.100000 1.000000 -1.000000 0.000000 0.000000
0.538462 0.000000 -0.538462 0.000000 0.000000 0.000000
0.384615 0.000000 -0.538462 0.000000 0.000000 0.000000
0.384615 0.000000 -0.538462 0.000000 0.000000 0.000000
0.538462 0.000000 -0.538462 0.000000 0.000000 0.000000
0.538462 0.000000 0.076923 0.000000 0.000000 0.000000
0.230769 0.000000 0.076923 0.000000 0.000000 0.000000
0.230769 0.000000 0.076923 0.000000 0.000000 0.000000
0.538462 0.000000 0.076923 0.000000 0.000000 0.000000
-0.538462 0.000000 -0.692308 0.000000 0.000000 0.000000
-0.538462 0.000000 0.538462 0.000000 0.000000 0.000000
-0.538462 0.000000 0.538462 0.000000 0.000000 0.000000
-0.538462 0.000000 -0.692308 0.000000 0.000000 0.000000
-0.692308 0.000000 -0.692308 0.000000 0.000000 0.000000
-0.692308 0.000000 -0.692308 0.000000 0.000000 0.000000
-0.230769 0.000000 0.076923 0.000000 0.000000 0.000000
-0.230769 0.000000 0.692308 0.000000 0.000000 0.000000
-0.230769 0.000000 0.692308 0.000000 0.000000 0.000000
-0.230769 0.000000 0.076923 0.000000 0.000000 0.000000
0.384615 0.000000 0.692308 0.000000 0.000000 0.000000
0.384615 0.000000 0.692308 0.000000 0.000000 0.000000
0.384615 0.000000 0.230769 0.000000 0.000000 0.000000
0.384615 0.000000 0.230769 0.000000 0.000000 0.000000
0.846154 0.000000 0.846154 0.000000 0.000000 0.000000
0.846154 0.000000 -0.846154 0.000000 0.000000 0.000000
0.846154 0.000000 -0.846154 0.000000 0.000000 0.000000
0.846154 0.000000 0.846154 0.000000 0.000000 0.000000
-0.538462 0.000000 0.230769 0.000000 0.000000 0.000000
-0.538462 0.000000 0.076923 0.000000 0.000000 0.000000
-0.538462 0.000000 0.076923 0.000000 0.000000 0.000000
-0.538462 0.000000 0.230769 0.000000 0.000000 0.000000
0.230769 0.000000 -0.384615 0.000000 0.000000 0.000000
0.230769 0.000000 -0.692308 0.000000 0.000000 0.000000
0.230769 0.000000 -0.692308 0.000000 0.000000 0.000000
0.230769 0.000000 -0.384615 0.000000 0.000000 0.000000
0.076923 0.000000 -0.692308 0.000000 0.000000 0.000000
-0.076923 0.000000 -0.692308 0.000000 0.000000 0.000000
-0.076923 0.000000 -0.692308 0.000000 0.000000 0.000000
0.076923 0.000000 -0.692308 0.000000 0.000000 0.000000
0.538462 0.000000 0.692308 0.000000 0.000000 0.000000
0.538462 0.000000 0.692308 0.000000 0.000000 0.000000
1.000000 0.000000 1.000000 0.000000 0.000000 0.000000
-1.000000 0.000000 1.000000 0.000000 0.000000 0.000000
-1.000000 0.000000 1.000000 0.000000 0.000000 0.000000
1.000000 0.000000 1.000000 0.000000 0.000000 0.000000
-0.384615 0.000000 0.538462 0.000000 0.000000 0.000000
-0.384615 0.000000 0.538462 0.000000 0.000000 0.000000
-1.000000 0.000000 -1.000000 0.000000 0.000000 0.000000
1.000000 0.000000 -1.000000 0.000000 0.000000 0.000000
1.000000 0.000000 -1.000000 0.000000 0.000000 0.000000
-1.000000 0.000000 -1.000000 0.000000 0.000000 0.000000
-0.384615 0.000000 0.230769 0.000000 0.000000 0.000000
-0.384615 0.000000 0.230769 0.000000 0.000000 0.000000
0.538462 0.000000 0.230769 0.000000 0.000000 0.000000
0.538462 0.000000 0.230769 0.000000 0.000000 0.000000
0.384615 0.000000 -0.384615 0.000000 0.000000 0.000000
0.384615 0.000000 -0.384615 0.000000 0.000000 0.000000
-0.692308 0.000000 0.692308 0.000000 0.000000 0.000000
-0.692308 0.000000 0.692308 0.000000 0.000000 0.000000
0.230769 0.000000 0.692308 0.000000 0.000000 0.000000
0.230769 0.000000 0.692308 0.000000 0.000000 0.000000
-0.076923 0.000000 0.692308 0.000000 0.000000 0.000000
-0.076923 0.000000 0.692308 0.000000 0.000000 0.000000
0.692308 0.000000 0.692308 0.000000 0.000000 0.000000
0.692308 0.000000 0.692308 0.000000 0.000000 0.000000
-0.846154 0.000000 -0.846154 0.000000 0.000000 0.000000
-0.846154 0.000000 0.846154 0.000000 0.000000 0.000000
-0.846154 0.000000 0.846154 0.000000 0.000000 0.000000
-0.846154 0.000000 -0.846154 0.000000 0.000000 0.000000
0.692308 0.000000 -0.692308 0.000000 0.000000 0.000000
0.692308 0.000000 -0.692308 0.000000 0.000000 0.000000
0.076923 0.000000 0.692308 0.000000 0.000000 0.000000
0.076923 0.000000 0.692308 0.000000 0.000000 0.000000
1.000000 -0.100000 -1.000000 0.000000 -1.000000 0.000000
0.846154 -0.100000 -0.846154 0.000000 -1.000000 0.000000
-0.846154 -0.100000 -0.846154 0.000000 -1.000000 0.000000
-1.000000 -0.100000 -1.000000 0.000000 -1.000000 0.000000
-0.846154 -0.100000 0.846154 0.000000 -1.000000 0.000000
-1.000000 -0.100000 1.000000 0.000000 -1.000000 0.000000
0.846154 -0.100000 0.846154 0.000000 -1.000000 0.000000
1.000000 -0.100000 1.000000 0.000000 -1.000000 0.000000
0.076923 -0.100000 0.692308 0.000000 -1.000000 0.000000
-0.076923 -0.100000 0.692308 0.000000 -1.000000 0.000000
-0.076923 -0.100000 -0.692308 0.000000 -1.000000 0.000000
0.076923 -0.100000 -0.692308 0.000000 -1.000000 0.000000
0.230769 -0.100000 0.692308 -0.000000 -1.000000 0.000000
0.230769 -0.100000 0.076923 -0.000000 -1.000000 0.000000
0.384615 -0.100000 0.230769 -0.000000 -1.000000 0.000000
0.384615 -0.100000 0.692308 -0.000000 -1.000000 0.000000
0.538462 -0.100000 0.230769 0.000000 -1.000000 0.000000
0.538462 -0.100000 0.076923 0.000000 -1.000000 0.000000
0.692308 -0.100000 0.692308 0.000000 -1.000000 0.000000
0.538462 -0.100000 0.692308 0.000000 -1.000000 0.000000
0.538462 -0.100000 -0.538462 0.000000 -1.000000 0.000000
0.692308 -0.100000 -0.692308 0.000000 -1.000000 0.000000
0.384615 -0.100000 -0.384615 0.000000 -1.000000 0.000000
0.230769 -0.100000 -0.384615 0.000000 -1.000000 0.000000
0.230769 -0.100000 -0.692308 0.000000 -1.000000 0.000000
0.384615 -0.100000 -0.538462 0.000000 -1.000000 0.000000
-0.692308 -0.100000 -0.692308 0.000000 -1.000000 -0.000000
-0.538462 -0.100000 -0.692308 0.000000 -1.000000 -0.000000
-0.538462 -0.100000 0.538462 0.000000 -1.000000 -0.000000
-0.692308 -0.100000 0.692308 0.000000 -1.000000 -0.000000
-0.538462 -0.100000 0.076923 0.000000 -1.000000 -0.000000
-0.230769 -0.100000 0.076923 0.000000 -1.000000 -0.000000
-0.384615 -0.100000 0.230769 0.000000 -1.000000 -0.000000
-0.538462 -0.100000 0.230769 0.000000 -1.000000 -0.000000
-0.384615 -0.100000 0.538462 0.000000 -1.000000 0.000000
-0.230769 -0.100000 0.692308 0.000000 -1.000000 0.000000
0.076923 0.000000 0.692308 1.000000 0.000000 -0.000000
0.076923 -0.100000 0.692308 1.000000 0.000000 -0.000000
0.076923 -0.100000 -0.692308 1.000000 0.000000 -0.000000
0.076923 0.000000 -0.692308 1.000000 0.000000 -0.000000
-0.846154 0.000000 0.846154 0.000000 0.000000 -1.000000
0.846154 0.000000 0.846154 0.000000 0.000000 -1.000000
0.846154 -0.100000 0.846154 0.000000 0.000000 -1.000000
-0.846154 -0.100000 0.846154 0.000000 0.000000 -1.000000
0.692308 0.000000 -0.692308 1.000000 -0.000000 0.000000
0.692308 0.000000 0.692308 1.000000 -0.000000 0.000000
0.692308 -0.100000 0.692308 1.000000 -0.000000 0.000000
0.692308 -0.100000 -0.692308 1.000000 -0.000000 0.000000
-0.538462 0.000000 0.076923 0.000000 0.000000 -1.000000
-0.230769 0.000000 0.076923 0.000000 0.000000 -1.000000
-0.230769 -0.100000 0.076923 0.000000 0.000000 -1.000000
-0.538462 -0.100000 0.076923 0.000000 0.000000 -1.000000
-0.076923 0.000000 0.692308 0.000000 0.000000 1.000000
-0.076923 -0.100000 0.692308 0.000000 0.000000 1.000000
0.076923 -0.100000 0.692308 0.000000 0.000000 1.000000
0.076923 0.000000 0.692308 0.000000 0.000000 1.000000
0.846154 0.000000 -0.846154 0.000000 -0.000000 1.000000
-0.846154 0.000000 -0.846154 0.000000 -0.000000 1.000000
-0.846154 -0.100000 -0.846154 0.000000 -0.000000 1.000000
0.846154 -0.100000 -0.846154 0.000000 -0.000000 1.000000
0.538462 0.000000 -0.538462 0.000000 -0.000000 1.000000
0.384615 0.000000 -0.538462 0.000000 -0.000000 1.000000
0.384615 -0.100000 -0.538462 0.000000 -0.000000 1.000000
0.538462 -0.100000 -0.538462 0.000000 -0.000000 1.000000
0.538462 0.000000 0.076923 0.000000 0.000000 -1.000000
0.538462 -0.100000 0.076923 0.000000 0.000000 -1.000000
0.230769 -0.100000 0.076923 0.000000 0.000000 -1.000000
0.230769 0.000000 0.076923 0.000000 0.000000 -1.000000
-0.692308 0.000000 -0.692308 0.000000 0.000000 -1.000000
-0.538462 0.000000 -0.692308 0.000000 0.000000 -1.000000
-0.538462 -0.100000 -0.692308 0.000000 0.000000 -1.000000
-0.692308 -0.100000 -0.692308 0.000000 0.000000 -1.000000
-0.538462 0.000000 -0.692308 1.000000 -0.000000 0.000000
-0.538462 0.000000 0.538462 1.000000 -0.000000 0.000000
-0.538462 -0.100000 0.538462 1.000000 -0.000000 0.000000
-0.538462 -0.100000 -0.692308 1.000000 -0.000000 0.000000
-0.230769 0.000000 0.076923 1.000000 0.000000 -0.000000
-0.230769 0.000000 0.692308 1.000000 0.000000 -0.000000
-0.230769 -0.100000 0.692308 1.000000 0.000000 -0.000000
-0.230769 -0.100000 0.076923 1.000000 0.000000 -0.000000
0.384615 0.000000 0.692308 1.000000 0.000000 -0.000000
0.384615 -0.100000 0.692308 1.000000 0.000000 -0.000000
0.384615 -0.100000 0.230769 1.000000 0.000000 -0.000000
0.384615 0.000000 0.230769 1.000000 0.000000 -0.000000
0.846154 0.000000 0.846154 -1.000000 0.000000 0.000000
0.846154 0.000000 -0.846154 -1.000000 0.000000 0.000000
0.846154 -0.100000 -0.846154 -1.000000 0.000000 0.000000
0.846154 -0.100000 0.846154 -1.000000 0.000000 0.000000
-0.538462 0.000000 0.230769 -1.000000 0.000000 0.000000
-0.538462 0.000000 0.076923 -1.000000 0.000000 0.000000
-0.538462 -0.100000 0.076923 -1.000000 0.000000 0.000000
-0.538462 -0.100000 0.230769 -1.000000 0.000000 0.000000
0.230769 0.000000 -0.384615 -1.000000 0.000000 0.000000
0.230769 0.000000 -0.692308 -1.000000 0.000000 0.000000
0.230769 -0.100000 -0.692308 -1.000000 0.000000 0.000000
0.230769 -0.100000 -0.384615 -1.000000 0.000000 0.000000
0.076923 0.000000 -0.692308 0.000000 0.000000 -1.000000
0.076923 -0.100000 -0.692308 0.000000 0.000000 -1.000000
-0.076923 -0.100000 -0.692308 0.000000 0.000000 -1.000000
-0.076923 0.000000 -0.692308 0.000000 0.000000 -1.000000
1.000000 0.000000 1.000000 0.000000 -0.000000 1.000000
-1.000000 0.000000 1.000000 0.000000 -0.000000 1.000000
-1.000000 -0.100000 1.000000 0.000000 -0.000000 1.000000
1.000000 -0.100000 1.000000 0.000000 -0.000000 1.000000
0.538462 0.000000 0.692308 -1.000000 0.000000 0.000000
0.538462 0.000000 -0.538462 -1.000000 0.000000 0.000000
0.538462 -0.100000 -0.538462 -1.000000 0.000000 0.000000
0.538462 -0.100000 0.692308 -1.000000 0.000000 0.000000
-0.538462 0.000000 0.538462 0.000000 0.000000 -1.000000
-0.384615 0.000000 0.538462 0.000000 0.000000 -1.000000
-0.384615 -0.100000 0.538462 0.000000 0.000000 -1.000000
-0.538462 -0.100000 0.538462 0.000000 0.000000 -1.000000
-1.000000 0.000000 -1.000000 0.000000 0.000000 -1.000000
1.000000 0.000000 -1.000000 0.000000 0.000000 -1.000000
1.000000 -0.100000 -1.000000 0.000000 0.000000 -1.000000
-1.000000 -0.100000 -1.000000 0.000000 0.000000 -1.000000
-0.384615 0.000000 0.538462 -1.000000 0.000000 0.000000
-0.384615 0.000000 0.230769 -1.000000 0.000000 0.000000
-0.384615 -0.100000 0.230769 -1.000000 0.000000 0.000000
-0.384615 -0.100000 0.538462 -1.000000 0.000000 0.000000
0.384615 0.000000 0.230769 0.000000 0.000000 1.000000
0.384615 -0.100000 0.230769 0.000000 0.000000 1.000000
0.538462 -0.100000 0.230769 0.000000 0.000000 1.000000
0.538462 0.000000 0.230769 0.000000 0.000000 1.000000
4 0 1 2 3
4 1 4 5 2
4 6 5 4 7
4 3 6 7 0
4 8 9 10 11
4 12 13 14 15
4 16 17 15 14
4 18 19 20 21
4 22 23 24 25
4 23 20 19 24
4 26 27 28 29
4 30 31 32 33
4 34 28 27 35
4 32 34 35 33
4 36 37 38 39
4 40 41 42 43
4 44 45 46 47
4 48 49 50 51
4 52 53 54 55
4 56 57 58 59
4 60 61 62 63
4 64 65 66 67
4 68 69 70 71
4 72 73 74 75
4 76 77 78 79
4 80 81 82 83
4 84 85 86 87
4 88 89 90 91
4 92 93 94 95
4 96 97 98 99
4 100 101 102 103
4 104 100 103 105
4 106 107 108 109
4 110 111 112 113
4 114 115 116 117
4 118 119 120 121
4 122 123 124 125
4 126 127 128 129
4 130 92 95 131
4 132 133 134 135
4 101 136 137 102
4 138 139 140 141
4 136 142 143 137
4 113 144 145 112
4 133 138 141 134
4 93 146 147 94
4 107 148 149 108
4 150 151 111 110
4 127 128 152 153
4 154 130 131 155
4 142 118 121 143
4 148 104 105 149
4 97 98 151 150
4 139 132 135 140
4 144 96 99 145
4 156 157 158 159
4 123 160 161 124
4 146 122 125 147
4 162 126 129 163
4 157 114 117 158
4 160 154 155 161
4 119 106 109 120
4 153 162 163 152
4 115 156 159 116
4 164 165 166 167
4 168 169 167 166
4 170 171 169 168
4 165 164 171 170
4 172 173 174 175
4 176 177 178 179
4 180 178 177 181
4 182 183 184 185
4 186 187 188 189
4 189 188 185 184
4 190 191 192 193
4 194 195 196 197
4 198 199 193 192
4 196 195 199 198
4 200 201 202 203
4 204 205 206 207
4 208 209 210 211
4 212 213 214 215
4 216 217 218 219
4 220 221 222 223
4 224 225 226 227
4 228 229 230 231
4 232 233 234 235
4 236 237 238 239
4 240 241 242 243
4 244 245 246 247
4 248 249 250 251
4 252 253 254 255
4 256 257 258 259
4 260 261 262 263
4 264 265 266 267
4 268 269 270 271
4 272 273 274 275
4 276 277 278 279
4 280 281 282 283
4 284 285 286 287
