ply
format ascii 1.0
comment Created by Blender 2.69 (sub 0) - www.blender.org, source file: 'star.blend'
element vertex 22
property float x
property float y
property float z
property uchar red
property uchar green
property uchar blue
element face 32
property list uchar uint vertex_indices
end_header
-0.000000 -0.183650 0.183650 128 128 128
-0.183650 0.000000 0.183650 130 130 130
-0.183650 -0.183650 0.000000 128 128 128
0.183650 -0.183649 0.000000 128 128 128
0.183650 0.000000 0.183650 128 128 128
0.183650 0.183650 0.000000 128 128 128
-0.000000 0.183650 0.183650 128 128 128
-0.183650 0.183650 0.000000 128 128 128
-0.183650 0.000000 0.183650 129 129 129
0.000000 0.183650 -0.183650 128 128 128
0.183650 -0.000000 -0.183649 128 128 128
0.000000 -0.183649 -0.183650 128 128 128
-0.183650 -0.000000 -0.183650 154 154 154
-0.183650 -0.000000 -0.183650 128 128 128
0.000000 -1.000000 -0.000000 128 255 128
1.000000 0.000001 0.000000 128 128 0
0.183650 0.000000 0.183650 149 149 148
0.000000 1.000000 0.000000 151 46 151
0.000000 -0.000000 -1.000000 255 128 128
-0.000000 0.000000 1.000000 0 128 128
0.000000 -0.000000 -1.000000 255 123 123
-1.000000 0.000000 0.000000 128 128 255
3 0 1 2
3 0 3 4
3 5 6 4
3 6 7 8
3 9 5 10
3 3 11 10
3 2 12 11
3 9 13 7
3 0 2 14
3 14 2 11
3 14 11 3
3 0 14 3
3 15 16 3
3 3 10 15
3 15 10 5
3 5 4 15
3 17 6 5
3 9 17 5
3 18 9 10
3 6 19 4
3 19 6 1
3 6 17 7
3 7 17 9
3 18 13 9
3 12 20 11
3 18 10 11
3 2 1 21
3 7 21 8
3 21 7 13
3 21 12 2
3 19 1 0
3 4 19 0
