ply
format ascii 1.0
comment Created by Blender 2.69 (sub 0) - www.blender.org, source file: 'star.blend'
element vertex 96
property float x
property float y
property float z
property float s
property float t
property uchar red
property uchar green
property uchar blue
element face 32
property list uchar uint vertex_indices
end_header
-0.000000 -0.183650 0.183650 0.050297 0.982954 128 128 128
-0.183650 0.000000 0.183650 0.974921 0.982954 130 130 130
-0.183650 -0.183650 0.000000 0.974921 0.058330 128 128 128
-0.000000 -0.183650 0.183650 0.973896 0.987342 128 128 128
0.183650 -0.183649 0.000000 0.973896 0.062718 128 128 128
0.183650 0.000000 0.183650 0.049272 0.987342 128 128 128
0.183650 0.183650 0.000000 0.045665 0.987342 128 128 128
-0.000000 0.183650 0.183650 0.970289 0.987342 128 128 128
0.183650 0.000000 0.183650 0.970289 0.062718 128 128 128
-0.000000 0.183650 0.183650 0.020228 0.028261 128 128 128
-0.183650 0.183650 0.000000 0.944852 0.028261 128 128 128
-0.183650 0.000000 0.183650 0.020228 0.952885 129 129 129
0.000000 0.183650 -0.183650 0.943828 0.032650 128 128 128
0.183650 0.183650 0.000000 0.019203 0.032650 128 128 128
0.183650 -0.000000 -0.183649 0.019203 0.957274 128 128 128
0.183650 -0.183649 0.000000 0.046157 0.987627 128 128 128
0.000000 -0.183649 -0.183650 0.970781 0.063003 128 128 128
0.183650 -0.000000 -0.183649 0.970781 0.987627 128 128 128
-0.183650 -0.183650 0.000000 0.940712 0.032934 128 128 128
-0.183650 -0.000000 -0.183650 0.016088 0.032934 154 154 154
0.000000 -0.183649 -0.183650 0.016088 0.957558 128 128 128
0.000000 0.183650 -0.183650 0.940220 0.032650 128 128 128
-0.183650 -0.000000 -0.183650 0.015596 0.957274 128 128 128
-0.183650 0.183650 0.000000 0.015596 0.032650 128 128 128
-0.000000 -0.183650 0.183650 0.050297 0.982670 128 128 128
-0.183650 -0.183650 0.000000 0.974921 0.982670 128 128 128
0.000000 -1.000000 -0.000000 0.974921 0.058046 128 255 128
0.000000 -1.000000 -0.000000 0.020228 0.952601 128 255 128
-0.183650 -0.183650 0.000000 0.020228 0.027977 128 128 128
0.000000 -0.183649 -0.183650 0.944852 0.027977 128 128 128
0.000000 -1.000000 -0.000000 0.974388 0.062718 128 255 128
0.000000 -0.183649 -0.183650 0.974388 0.987342 128 128 128
0.183650 -0.183649 0.000000 0.049764 0.987342 128 128 128
-0.000000 -0.183650 0.183650 0.019695 0.032650 128 128 128
0.000000 -1.000000 -0.000000 0.019695 0.957274 128 255 128
0.183650 -0.183649 0.000000 0.944319 0.032650 128 128 128
1.000000 0.000001 0.000000 0.970781 0.062718 128 128 0
0.183650 0.000000 0.183650 0.046157 0.987342 149 149 148
0.183650 -0.183649 0.000000 0.970781 0.987342 128 128 128
0.183650 -0.183649 0.000000 0.053904 0.982954 128 128 128
0.183650 -0.000000 -0.183649 0.978528 0.982954 128 128 128
1.000000 0.000001 0.000000 0.978528 0.058330 128 128 0
1.000000 0.000001 0.000000 0.978036 0.058046 128 128 0
0.183650 -0.000000 -0.183649 0.978036 0.982670 128 128 128
0.183650 0.183650 0.000000 0.053412 0.982670 128 128 128
0.183650 0.183650 0.000000 0.016088 0.032650 128 128 128
0.183650 0.000000 0.183650 0.940712 0.032650 128 128 128
1.000000 0.000001 0.000000 0.016088 0.957274 128 128 0
0.000000 1.000000 0.000000 0.974388 0.063003 151 46 151
-0.000000 0.183650 0.183650 0.049764 0.987627 128 128 128
0.183650 0.183650 0.000000 0.974388 0.987627 128 128 128
0.000000 0.183650 -0.183650 0.023835 0.028261 128 128 128
0.000000 1.000000 0.000000 0.023835 0.952885 151 46 151
0.183650 0.183650 0.000000 0.948459 0.028261 128 128 128
0.000000 -0.000000 -1.000000 0.974429 0.058046 255 128 128
0.000000 0.183650 -0.183650 0.049805 0.982670 128 128 128
0.183650 -0.000000 -0.183649 0.974429 0.982670 128 128 128
-0.000000 0.183650 0.183650 0.053412 0.982954 128 128 128
-0.000000 0.000000 1.000000 0.978036 0.058330 0 128 128
0.183650 0.000000 0.183650 0.978036 0.982954 128 128 128
-0.000000 0.000000 1.000000 0.974429 0.058330 0 128 128
-0.000000 0.183650 0.183650 0.049805 0.982954 128 128 128
-0.183650 0.000000 0.183650 0.974429 0.982954 130 130 130
-0.000000 0.183650 0.183650 0.023343 0.027977 128 128 128
0.000000 1.000000 0.000000 0.023343 0.952601 151 46 151
-0.183650 0.183650 0.000000 0.947968 0.027977 128 128 128
-0.183650 0.183650 0.000000 0.944319 0.032934 128 128 128
0.000000 1.000000 0.000000 0.019695 0.957558 151 46 151
0.000000 0.183650 -0.183650 0.019695 0.032934 128 128 128
0.000000 -0.000000 -1.000000 0.019736 0.952601 255 128 128
-0.183650 -0.000000 -0.183650 0.019736 0.027977 128 128 128
0.000000 0.183650 -0.183650 0.944360 0.027977 128 128 128
-0.183650 -0.000000 -0.183650 0.053904 0.982670 154 154 154
0.000000 -0.000000 -1.000000 0.978528 0.058046 255 123 123
0.000000 -0.183649 -0.183650 0.978528 0.982670 128 128 128
0.000000 -0.000000 -1.000000 0.023835 0.952601 255 128 128
0.183650 -0.000000 -0.183649 0.948459 0.027977 128 128 128
0.000000 -0.183649 -0.183650 0.023835 0.027977 128 128 128
-0.183650 -0.183650 0.000000 0.973896 0.987627 128 128 128
-0.183650 0.000000 0.183650 0.049272 0.987627 130 130 130
-1.000000 0.000000 0.000000 0.973896 0.063003 128 128 255
-0.183650 0.183650 0.000000 0.019736 0.028261 128 128 128
-1.000000 0.000000 0.000000 0.019736 0.952885 128 128 255
-0.183650 0.000000 0.183650 0.944360 0.028261 129 129 129
-1.000000 0.000000 0.000000 0.970289 0.063003 128 128 255
-0.183650 0.183650 0.000000 0.045665 0.987627 128 128 128
-0.183650 -0.000000 -0.183650 0.970289 0.987627 128 128 128
-1.000000 0.000000 0.000000 0.019203 0.957558 128 128 255
-0.183650 -0.000000 -0.183650 0.019203 0.032934 154 154 154
-0.183650 -0.183650 0.000000 0.943828 0.032934 128 128 128
-0.000000 0.000000 1.000000 0.015596 0.957558 0 128 128
-0.183650 0.000000 0.183650 0.015596 0.032934 130 130 130
-0.000000 -0.183650 0.183650 0.940220 0.032934 128 128 128
0.183650 0.000000 0.183650 0.023343 0.028261 128 128 128
-0.000000 0.000000 1.000000 0.023343 0.952885 0 128 128
-0.000000 -0.183650 0.183650 0.947968 0.028261 128 128 128
3 0 1 2
3 3 4 5
3 6 7 8
3 9 10 11
3 12 13 14
3 15 16 17
3 18 19 20
3 21 22 23
3 24 25 26
3 27 28 29
3 30 31 32
3 33 34 35
3 36 37 38
3 39 40 41
3 42 43 44
3 45 46 47
3 48 49 50
3 51 52 53
3 54 55 56
3 57 58 59
3 60 61 62
3 63 64 65
3 66 67 68
3 69 70 71
3 72 73 74
3 75 76 77
3 78 79 80
3 81 82 83
3 84 85 86
3 87 88 89
3 90 91 92
3 93 94 95
