ply
format ascii 1.0
comment Created by Blender 2.69 (sub 0) - www.blender.org, source file: 'star.blend'
element vertex 18
property float x
property float y
property float z
element face 32
property list uchar uint vertex_indices
end_header
-0.000000 -0.183650 0.183650
-0.183650 0.000000 0.183650
-0.183650 -0.183650 0.000000
0.183650 -0.183649 0.000000
0.183650 0.000000 0.183650
0.183650 0.183650 0.000000
-0.000000 0.183650 0.183650
-0.183650 0.183650 0.000000
0.000000 0.183650 -0.183650
0.183650 -0.000000 -0.183649
0.000000 -0.183649 -0.183650
-0.183650 -0.000000 -0.183650
0.000000 -1.000000 -0.000000
1.000000 0.000001 0.000000
0.000000 1.000000 0.000000
0.000000 -0.000000 -1.000000
-0.000000 0.000000 1.000000
-1.000000 0.000000 0.000000
3 0 1 2
3 0 3 4
3 5 6 4
3 6 7 1
3 8 5 9
3 3 10 9
3 2 11 10
3 8 11 7
3 0 2 12
3 12 2 10
3 12 10 3
3 0 12 3
3 13 4 3
3 3 9 13
3 13 9 5
3 5 4 13
3 14 6 5
3 8 14 5
3 15 8 9
3 6 16 4
3 16 6 1
3 6 14 7
3 7 14 8
3 15 11 8
3 11 15 10
3 15 9 10
3 2 1 17
3 7 17 1
3 17 7 11
3 17 11 2
3 16 1 0
3 4 16 0
