ply
format ascii 1.0
comment Created by Blender 2.69 (sub 0) - www.blender.org, source file: 'star.blend'
element vertex 96
property float x
property float y
property float z
property float nx
property float ny
property float nz
property uchar red
property uchar green
property uchar blue
element face 32
property list uchar uint vertex_indices
end_header
-0.000000 -0.183650 0.183650 -0.577350 -0.577351 0.577350 128 128 128
-0.183650 0.000000 0.183650 -0.577350 -0.577351 0.577350 130 130 130
-0.183650 -0.183650 0.000000 -0.577350 -0.577351 0.577350 128 128 128
-0.000000 -0.183650 0.183650 0.577350 -0.577351 0.577350 128 128 128
0.183650 -0.183649 0.000000 0.577350 -0.577351 0.577350 128 128 128
0.183650 0.000000 0.183650 0.577350 -0.577351 0.577350 128 128 128
0.183650 0.183650 0.000000 0.577350 0.577350 0.577350 128 128 128
-0.000000 0.183650 0.183650 0.577350 0.577350 0.577350 128 128 128
0.183650 0.000000 0.183650 0.577350 0.577350 0.577350 128 128 128
-0.000000 0.183650 0.183650 -0.577350 0.577350 0.577350 128 128 128
-0.183650 0.183650 0.000000 -0.577350 0.577350 0.577350 128 128 128
-0.183650 0.000000 0.183650 -0.577350 0.577350 0.577350 129 129 129
0.000000 0.183650 -0.183650 0.577351 0.577349 -0.577351 128 128 128
0.183650 0.183650 0.000000 0.577351 0.577349 -0.577351 128 128 128
0.183650 -0.000000 -0.183649 0.577351 0.577349 -0.577351 128 128 128
0.183650 -0.183649 0.000000 0.577350 -0.577350 -0.577350 128 128 128
0.000000 -0.183649 -0.183650 0.577350 -0.577350 -0.577350 128 128 128
0.183650 -0.000000 -0.183649 0.577350 -0.577350 -0.577350 128 128 128
-0.183650 -0.183650 0.000000 -0.577350 -0.577350 -0.577350 128 128 128
-0.183650 -0.000000 -0.183650 -0.577350 -0.577350 -0.577350 154 154 154
0.000000 -0.183649 -0.183650 -0.577350 -0.577350 -0.577350 128 128 128
0.000000 0.183650 -0.183650 -0.577350 0.577349 -0.577351 128 128 128
-0.183650 -0.000000 -0.183650 -0.577350 0.577349 -0.577351 128 128 128
-0.183650 0.183650 0.000000 -0.577350 0.577349 -0.577351 128 128 128
-0.000000 -0.183650 0.183650 -0.698327 -0.157099 0.698327 128 128 128
-0.183650 -0.183650 0.000000 -0.698327 -0.157099 0.698327 128 128 128
0.000000 -1.000000 -0.000000 -0.698327 -0.157099 0.698327 128 255 128
0.000000 -1.000000 -0.000000 -0.698327 -0.157098 -0.698327 128 255 128
-0.183650 -0.183650 0.000000 -0.698327 -0.157098 -0.698327 128 128 128
0.000000 -0.183649 -0.183650 -0.698327 -0.157098 -0.698327 128 128 128
0.000000 -1.000000 -0.000000 0.698327 -0.157098 -0.698327 128 255 128
0.000000 -0.183649 -0.183650 0.698327 -0.157098 -0.698327 128 128 128
0.183650 -0.183649 0.000000 0.698327 -0.157098 -0.698327 128 128 128
-0.000000 -0.183650 0.183650 0.698326 -0.157099 0.698327 128 128 128
0.000000 -1.000000 -0.000000 0.698326 -0.157099 0.698327 128 255 128
0.183650 -0.183649 0.000000 0.698326 -0.157099 0.698327 128 128 128
1.000000 0.000001 0.000000 0.157100 -0.698328 0.698325 128 128 0
0.183650 0.000000 0.183650 0.157100 -0.698328 0.698325 149 149 148
0.183650 -0.183649 0.000000 0.157100 -0.698328 0.698325 128 128 128
0.183650 -0.183649 0.000000 0.157099 -0.698327 -0.698327 128 128 128
0.183650 -0.000000 -0.183649 0.157099 -0.698327 -0.698327 128 128 128
1.000000 0.000001 0.000000 0.157099 -0.698327 -0.698327 128 128 0
1.000000 0.000001 0.000000 0.157098 0.698325 -0.698328 128 128 0
0.183650 -0.000000 -0.183649 0.157098 0.698325 -0.698328 128 128 128
0.183650 0.183650 0.000000 0.157098 0.698325 -0.698328 128 128 128
0.183650 0.183650 0.000000 0.157098 0.698327 0.698327 128 128 128
0.183650 0.000000 0.183650 0.157098 0.698327 0.698327 128 128 128
1.000000 0.000001 0.000000 0.157098 0.698327 0.698327 128 128 0
0.000000 1.000000 0.000000 0.698327 0.157099 0.698326 151 46 151
-0.000000 0.183650 0.183650 0.698327 0.157099 0.698326 128 128 128
0.183650 0.183650 0.000000 0.698327 0.157099 0.698326 128 128 128
0.000000 0.183650 -0.183650 0.698327 0.157099 -0.698327 128 128 128
0.000000 1.000000 0.000000 0.698327 0.157099 -0.698327 151 46 151
0.183650 0.183650 0.000000 0.698327 0.157099 -0.698327 128 128 128
0.000000 -0.000000 -1.000000 0.698327 0.698326 -0.157099 255 128 128
0.000000 0.183650 -0.183650 0.698327 0.698326 -0.157099 128 128 128
0.183650 -0.000000 -0.183649 0.698327 0.698326 -0.157099 128 128 128
-0.000000 0.183650 0.183650 0.698327 0.698326 0.157099 128 128 128
-0.000000 0.000000 1.000000 0.698327 0.698326 0.157099 0 128 128
0.183650 0.000000 0.183650 0.698327 0.698326 0.157099 128 128 128
-0.000000 0.000000 1.000000 -0.698327 0.698326 0.157099 0 128 128
-0.000000 0.183650 0.183650 -0.698327 0.698326 0.157099 128 128 128
-0.183650 0.000000 0.183650 -0.698327 0.698326 0.157099 130 130 130
-0.000000 0.183650 0.183650 -0.698327 0.157099 0.698327 128 128 128
0.000000 1.000000 0.000000 -0.698327 0.157099 0.698327 151 46 151
-0.183650 0.183650 0.000000 -0.698327 0.157099 0.698327 128 128 128
-0.183650 0.183650 0.000000 -0.698326 0.157099 -0.698327 128 128 128
0.000000 1.000000 0.000000 -0.698326 0.157099 -0.698327 151 46 151
0.000000 0.183650 -0.183650 -0.698326 0.157099 -0.698327 128 128 128
0.000000 -0.000000 -1.000000 -0.698327 0.698326 -0.157099 255 128 128
-0.183650 -0.000000 -0.183650 -0.698327 0.698326 -0.157099 128 128 128
0.000000 0.183650 -0.183650 -0.698327 0.698326 -0.157099 128 128 128
-0.183650 -0.000000 -0.183650 -0.698326 -0.698327 -0.157099 154 154 154
0.000000 -0.000000 -1.000000 -0.698326 -0.698327 -0.157099 255 123 123
0.000000 -0.183649 -0.183650 -0.698326 -0.698327 -0.157099 128 128 128
0.000000 -0.000000 -1.000000 0.698326 -0.698327 -0.157098 255 128 128
0.183650 -0.000000 -0.183649 0.698326 -0.698327 -0.157098 128 128 128
0.000000 -0.183649 -0.183650 0.698326 -0.698327 -0.157098 128 128 128
-0.183650 -0.183650 0.000000 -0.157099 -0.698327 0.698326 128 128 128
-0.183650 0.000000 0.183650 -0.157099 -0.698327 0.698326 130 130 130
-1.000000 0.000000 0.000000 -0.157099 -0.698327 0.698326 128 128 255
-0.183650 0.183650 0.000000 -0.157099 0.698327 0.698326 128 128 128
-1.000000 0.000000 0.000000 -0.157099 0.698327 0.698326 128 128 255
-0.183650 0.000000 0.183650 -0.157099 0.698327 0.698326 129 129 129
-1.000000 0.000000 0.000000 -0.157099 0.698326 -0.698327 128 128 255
-0.183650 0.183650 0.000000 -0.157099 0.698326 -0.698327 128 128 128
-0.183650 -0.000000 -0.183650 -0.157099 0.698326 -0.698327 128 128 128
-1.000000 0.000000 0.000000 -0.157099 -0.698327 -0.698327 128 128 255
-0.183650 -0.000000 -0.183650 -0.157099 -0.698327 -0.698327 154 154 154
-0.183650 -0.183650 0.000000 -0.157099 -0.698327 -0.698327 128 128 128
-0.000000 0.000000 1.000000 -0.698326 -0.698327 0.157099 0 128 128
-0.183650 0.000000 0.183650 -0.698326 -0.698327 0.157099 130 130 130
-0.000000 -0.183650 0.183650 -0.698326 -0.698327 0.157099 128 128 128
0.183650 0.000000 0.183650 0.698327 -0.698327 0.157099 128 128 128
-0.000000 0.000000 1.000000 0.698327 -0.698327 0.157099 0 128 128
-0.000000 -0.183650 0.183650 0.698327 -0.698327 0.157099 128 128 128
3 0 1 2
3 3 4 5
3 6 7 8
3 9 10 11
3 12 13 14
3 15 16 17
3 18 19 20
3 21 22 23
3 24 25 26
3 27 28 29
3 30 31 32
3 33 34 35
3 36 37 38
3 39 40 41
3 42 43 44
3 45 46 47
3 48 49 50
3 51 52 53
3 54 55 56
3 57 58 59
3 60 61 62
3 63 64 65
3 66 67 68
3 69 70 71
3 72 73 74
3 75 76 77
3 78 79 80
3 81 82 83
3 84 85 86
3 87 88 89
3 90 91 92
3 93 94 95
