ply
format ascii 1.0
comment Created by Blender 2.69 (sub 0) - www.blender.org, source file: ''
element vertex 352
property float x
property float y
property float z
property float nx
property float ny
property float nz
element face 156
property list uchar uint vertex_indices
end_header
0.000000 1.000000 -1.000000 0.081467 0.827145 0.556053
-0.011899 0.336573 -0.011390 0.081467 0.827145 0.556053
0.053763 0.330106 -0.011390 0.081467 0.827145 0.556053
0.195090 0.980785 -1.000000 0.081467 0.827145 0.556053
0.195090 0.980785 -1.000000 0.241011 0.794507 0.557379
0.053763 0.330106 -0.011390 0.241011 0.794507 0.557379
0.116902 0.310953 -0.011390 0.241011 0.794507 0.557379
0.382683 0.923880 -1.000000 0.241011 0.794507 0.557379
0.382683 0.923880 -1.000000 0.390986 0.731483 0.558625
0.116902 0.310953 -0.011390 0.390986 0.731483 0.558625
0.175091 0.279850 -0.011390 0.390986 0.731483 0.558625
0.555570 0.831470 -1.000000 0.390986 0.731483 0.558625
0.555570 0.831470 -1.000000 0.525701 0.640568 0.559743
0.175091 0.279850 -0.011390 0.525701 0.640568 0.559743
0.226094 0.237993 -0.011390 0.525701 0.640568 0.559743
0.707107 0.707107 -1.000000 0.525701 0.640568 0.559743
0.707107 0.707107 -1.000000 0.640072 0.525294 0.560691
0.226094 0.237993 -0.011390 0.640072 0.525294 0.560691
0.267951 0.186990 -0.011390 0.640072 0.525294 0.560691
0.831470 0.555570 -1.000000 0.640072 0.525294 0.560691
0.831470 0.555570 -1.000000 0.729808 0.390091 0.561435
0.267951 0.186990 -0.011390 0.729808 0.390091 0.561435
0.299054 0.128801 -0.011390 0.729808 0.390091 0.561435
0.923880 0.382683 -1.000000 0.729808 0.390091 0.561435
0.923880 0.382683 -1.000000 0.791556 0.240116 0.561946
0.299054 0.128801 -0.011390 0.791556 0.240116 0.561946
0.318207 0.065662 -0.011390 0.791556 0.240116 0.561946
0.980785 0.195090 -1.000000 0.791556 0.240116 0.561946
0.980785 0.195090 -1.000000 0.823015 0.081060 0.562207
0.318207 0.065662 -0.011390 0.823015 0.081060 0.562207
0.324674 0.000000 -0.011390 0.823015 0.081060 0.562207
1.000000 0.000000 -1.000000 0.823015 0.081060 0.562207
1.000000 0.000000 -1.000000 0.823015 -0.081060 0.562207
0.324674 0.000000 -0.011390 0.823015 -0.081060 0.562207
0.318207 -0.065662 -0.011390 0.823015 -0.081060 0.562207
0.980785 -0.195090 -1.000000 0.823015 -0.081060 0.562207
0.980785 -0.195090 -1.000000 0.791556 -0.240116 0.561946
0.318207 -0.065662 -0.011390 0.791556 -0.240116 0.561946
0.299054 -0.128800 -0.011390 0.791556 -0.240116 0.561946
0.923880 -0.382683 -1.000000 0.791556 -0.240116 0.561946
0.923880 -0.382683 -1.000000 0.729809 -0.390090 0.561435
0.299054 -0.128800 -0.011390 0.729809 -0.390090 0.561435
0.267951 -0.186989 -0.011390 0.729809 -0.390090 0.561435
0.831470 -0.555570 -1.000000 0.729809 -0.390090 0.561435
0.831470 -0.555570 -1.000000 0.640072 -0.525293 0.560691
0.267951 -0.186989 -0.011390 0.640072 -0.525293 0.560691
0.226094 -0.237993 -0.011390 0.640072 -0.525293 0.560691
0.707107 -0.707107 -1.000000 0.640072 -0.525293 0.560691
0.707107 -0.707107 -1.000000 0.525700 -0.640568 0.559743
0.226094 -0.237993 -0.011390 0.525700 -0.640568 0.559743
0.175091 -0.279850 -0.011390 0.525700 -0.640568 0.559743
0.555570 -0.831470 -1.000000 0.525700 -0.640568 0.559743
0.555570 -0.831470 -1.000000 0.390986 -0.731483 0.558625
0.175091 -0.279850 -0.011390 0.390986 -0.731483 0.558625
0.116902 -0.310952 -0.011390 0.390986 -0.731483 0.558625
0.382683 -0.923880 -1.000000 0.390986 -0.731483 0.558625
0.382683 -0.923880 -1.000000 0.241011 -0.794507 0.557380
0.116902 -0.310952 -0.011390 0.241011 -0.794507 0.557380
0.053763 -0.330105 -0.011390 0.241011 -0.794507 0.557380
0.195090 -0.980785 -1.000000 0.241011 -0.794507 0.557380
0.195090 -0.980785 -1.000000 0.081466 -0.827145 0.556053
0.053763 -0.330105 -0.011390 0.081466 -0.827145 0.556053
-0.011899 -0.336572 -0.011390 0.081466 -0.827145 0.556053
-0.000000 -1.000000 -1.000000 0.081466 -0.827145 0.556053
-0.000000 -1.000000 -1.000000 -0.081556 -0.828046 0.554696
-0.011899 -0.336572 -0.011390 -0.081556 -0.828046 0.554696
-0.077561 -0.330105 -0.011390 -0.081556 -0.828046 0.554696
-0.195091 -0.980785 -1.000000 -0.081556 -0.828046 0.554696
-0.195091 -0.980785 -1.000000 -0.241791 -0.797075 0.553361
-0.077561 -0.330105 -0.011390 -0.241791 -0.797075 0.553361
-0.140700 -0.310952 -0.011390 -0.241791 -0.797075 0.553361
-0.382684 -0.923879 -1.000000 -0.241791 -0.797075 0.553361
-0.382684 -0.923879 -1.000000 -0.393041 -0.735327 0.552099
-0.140700 -0.310952 -0.011390 -0.393041 -0.735327 0.552099
-0.198889 -0.279850 -0.011390 -0.393041 -0.735327 0.552099
-0.555571 -0.831469 -1.000000 -0.393041 -0.735327 0.552099
-0.555571 -0.831469 -1.000000 -0.529421 -0.645101 0.550961
-0.198889 -0.279850 -0.011390 -0.529421 -0.645101 0.550961
-0.249892 -0.237992 -0.011390 -0.529421 -0.645101 0.550961
-0.707107 -0.707106 -1.000000 -0.529421 -0.645101 0.550961
-0.707107 -0.707106 -1.000000 -0.645597 -0.529826 0.549990
-0.249892 -0.237992 -0.011390 -0.645597 -0.529826 0.549990
-0.291749 -0.186989 -0.011390 -0.645597 -0.529826 0.549990
-0.831470 -0.555570 -1.000000 -0.645597 -0.529826 0.549990
-0.831470 -0.555570 -1.000000 -0.736999 -0.393934 0.549226
-0.291749 -0.186989 -0.011390 -0.736999 -0.393934 0.549226
-0.322851 -0.128800 -0.011390 -0.736999 -0.393934 0.549226
-0.923880 -0.382683 -1.000000 -0.736999 -0.393934 0.549226
-0.923880 -0.382683 -1.000000 -0.800022 -0.242683 0.548698
-0.322851 -0.128800 -0.011390 -0.800022 -0.242683 0.548698
-0.342004 -0.065661 -0.011390 -0.800022 -0.242683 0.548698
-0.980785 -0.195089 -1.000000 -0.800022 -0.242683 0.548698
-0.980785 -0.195089 -1.000000 -0.832170 -0.081961 0.548429
-0.342004 -0.065661 -0.011390 -0.832170 -0.081961 0.548429
-0.348471 0.000001 -0.011390 -0.832170 -0.081961 0.548429
-1.000000 0.000001 -1.000000 -0.832170 -0.081961 0.548429
-1.000000 0.000001 -1.000000 -0.832170 0.081963 0.548429
-0.348471 0.000001 -0.011390 -0.832170 0.081963 0.548429
-0.342004 0.065663 -0.011390 -0.832170 0.081963 0.548429
-0.980785 0.195091 -1.000000 -0.832170 0.081963 0.548429
-0.980785 0.195091 -1.000000 -0.800021 0.242685 0.548698
-0.342004 0.065663 -0.011390 -0.800021 0.242685 0.548698
-0.322851 0.128801 -0.011390 -0.800021 0.242685 0.548698
-0.923879 0.382684 -1.000000 -0.800021 0.242685 0.548698
-0.923879 0.382684 -1.000000 -0.736998 0.393935 0.549226
-0.322851 0.128801 -0.011390 -0.736998 0.393935 0.549226
-0.291748 0.186990 -0.011390 -0.736998 0.393935 0.549226
-0.831469 0.555571 -1.000000 -0.736998 0.393935 0.549226
-0.831469 0.555571 -1.000000 -0.645595 0.529828 0.549990
-0.291748 0.186990 -0.011390 -0.645595 0.529828 0.549990
-0.249891 0.237994 -0.011390 -0.645595 0.529828 0.549990
-0.707106 0.707108 -1.000000 -0.645595 0.529828 0.549990
-0.707106 0.707108 -1.000000 -0.529420 0.645102 0.550961
-0.249891 0.237994 -0.011390 -0.529420 0.645102 0.550961
-0.198888 0.279851 -0.011390 -0.529420 0.645102 0.550961
-0.555569 0.831470 -1.000000 -0.529420 0.645102 0.550961
-0.555569 0.831470 -1.000000 -0.393040 0.735327 0.552099
-0.198888 0.279851 -0.011390 -0.393040 0.735327 0.552099
-0.140699 0.310953 -0.011390 -0.393040 0.735327 0.552099
-0.382682 0.923880 -1.000000 -0.393040 0.735327 0.552099
-0.011899 0.336573 -0.011390 -0.095975 0.974455 -0.203045
-0.077560 0.330106 -0.011390 -0.095975 0.974455 -0.203045
-0.117223 0.529503 0.964306 -0.095975 0.974455 -0.203045
-0.011899 0.539877 0.964306 -0.095975 0.974455 -0.203045
-0.011899 0.336573 -0.011390 -0.081555 0.828047 0.554696
0.000000 1.000000 -1.000000 -0.081555 0.828047 0.554696
-0.195089 0.980786 -1.000000 -0.081555 0.828047 0.554696
-0.077560 0.330106 -0.011390 -0.081555 0.828047 0.554696
-0.382682 0.923880 -1.000000 -0.241789 0.797076 0.553361
-0.140699 0.310953 -0.011390 -0.241789 0.797076 0.553361
-0.077560 0.330106 -0.011390 -0.241789 0.797076 0.553361
-0.195089 0.980786 -1.000000 -0.241789 0.797076 0.553361
0.000000 1.000000 -1.000000 0.000000 0.000000 -1.000000
0.195090 0.980785 -1.000000 0.000000 0.000000 -1.000000
-0.195089 0.980786 -1.000000 0.000000 0.000000 -1.000000
-0.382682 0.923880 -1.000000 0.000000 -0.000000 -1.000000
0.382683 0.923880 -1.000000 0.000000 0.000000 -1.000000
-0.555569 0.831470 -1.000000 0.000000 -0.000000 -1.000000
0.555570 0.831470 -1.000000 0.000000 0.000000 -1.000000
-0.707106 0.707108 -1.000000 0.000000 -0.000000 -1.000000
0.707107 0.707107 -1.000000 0.000000 0.000000 -1.000000
-0.831469 0.555571 -1.000000 0.000000 -0.000000 -1.000000
0.831470 0.555570 -1.000000 0.000000 0.000000 -1.000000
-0.923879 0.382684 -1.000000 0.000000 -0.000000 -1.000000
0.923880 0.382683 -1.000000 0.000000 0.000000 -1.000000
-0.980785 0.195091 -1.000000 0.000000 -0.000000 -1.000000
0.980785 0.195090 -1.000000 0.000000 0.000000 -1.000000
-1.000000 0.000001 -1.000000 0.000000 -0.000000 -1.000000
1.000000 0.000000 -1.000000 0.000000 0.000000 -1.000000
-0.980785 -0.195089 -1.000000 0.000000 0.000000 -1.000000
0.980785 -0.195090 -1.000000 0.000000 0.000000 -1.000000
-0.923880 -0.382683 -1.000000 0.000000 0.000000 -1.000000
0.923880 -0.382683 -1.000000 0.000000 0.000000 -1.000000
-0.831470 -0.555570 -1.000000 0.000000 0.000000 -1.000000
0.831470 -0.555570 -1.000000 0.000000 0.000000 -1.000000
-0.707107 -0.707106 -1.000000 0.000000 0.000000 -1.000000
0.707107 -0.707107 -1.000000 0.000000 0.000000 -1.000000
-0.555571 -0.831469 -1.000000 0.000000 0.000000 -1.000000
0.555570 -0.831470 -1.000000 0.000000 0.000000 -1.000000
-0.382684 -0.923879 -1.000000 0.000000 0.000000 -1.000000
0.382683 -0.923880 -1.000000 0.000000 0.000000 -1.000000
-0.195091 -0.980785 -1.000000 0.000000 0.000000 -1.000000
0.195090 -0.980785 -1.000000 0.000000 0.000000 -1.000000
-0.000000 -1.000000 -1.000000 0.000000 0.000000 -1.000000
-0.510679 -0.206601 0.964306 -0.000000 -0.000000 1.000000
-0.460790 -0.299939 0.964306 -0.000000 -0.000000 1.000000
-0.195072 -0.122392 0.964306 -0.000000 -0.000000 1.000000
-0.215430 -0.084305 0.964306 -0.000000 -0.000000 1.000000
-0.291749 -0.186989 -0.011390 -0.756909 -0.621178 -0.203045
-0.249892 -0.237992 -0.011390 -0.756909 -0.621178 -0.203045
-0.393649 -0.381750 0.964306 -0.756909 -0.621178 -0.203045
-0.460790 -0.299939 0.964306 -0.756909 -0.621178 -0.203045
0.299054 -0.128800 -0.011390 0.937006 -0.284239 -0.203045
0.318207 -0.065662 -0.011390 0.937006 -0.284239 -0.203045
0.517604 -0.105324 0.964306 0.937006 -0.284239 -0.203045
0.486882 -0.206601 0.964306 0.937006 -0.284239 -0.203045
-0.348471 0.000001 -0.011390 -0.974455 -0.095975 -0.203045
-0.342004 -0.065661 -0.011390 -0.974455 -0.095975 -0.203045
-0.541401 -0.105324 0.964306 -0.974455 -0.095975 -0.203045
-0.551775 0.000001 0.964306 -0.974455 -0.095975 -0.203045
0.116902 0.310953 -0.011390 0.284238 0.937007 -0.203045
0.053763 0.330106 -0.011390 0.284238 0.937007 -0.203045
0.093426 0.529503 0.964306 0.284238 0.937007 -0.203045
0.194703 0.498781 0.964306 0.284238 0.937007 -0.203045
0.175091 -0.279850 -0.011390 0.621179 -0.756908 -0.203045
0.226094 -0.237993 -0.011390 0.621179 -0.756908 -0.203045
0.369851 -0.381750 0.964306 0.621179 -0.756908 -0.203045
0.288040 -0.448890 0.964306 0.621179 -0.756908 -0.203045
-0.291748 0.186990 -0.011390 -0.863550 0.461578 -0.203045
-0.322851 0.128801 -0.011390 -0.863550 0.461578 -0.203045
-0.510679 0.206603 0.964306 -0.863550 0.461578 -0.203045
-0.460789 0.299940 0.964306 -0.863550 0.461578 -0.203045
0.267951 0.186990 -0.011390 0.756908 0.621179 -0.203045
0.226094 0.237993 -0.011390 0.756908 0.621179 -0.203045
0.369851 0.381750 0.964306 0.756908 0.621179 -0.203045
0.436992 0.299939 0.964306 0.756908 0.621179 -0.203045
-0.011899 -0.336572 -0.011390 0.095975 -0.974455 -0.203045
0.053763 -0.330105 -0.011390 0.095975 -0.974455 -0.203045
0.093426 -0.529502 0.964306 0.095975 -0.974455 -0.203045
-0.011899 -0.539876 0.964306 0.095975 -0.974455 -0.203045
-0.140699 0.310953 -0.011390 -0.461577 0.863551 -0.203045
-0.198888 0.279851 -0.011390 -0.461577 0.863551 -0.203045
-0.311837 0.448891 0.964306 -0.461577 0.863551 -0.203045
-0.218500 0.498781 0.964306 -0.461577 0.863551 -0.203045
-0.198889 -0.279850 -0.011390 -0.461578 -0.863550 -0.203045
-0.140700 -0.310952 -0.011390 -0.461578 -0.863550 -0.203045
-0.218501 -0.498780 0.964306 -0.461578 -0.863550 -0.203045
-0.311838 -0.448890 0.964306 -0.461578 -0.863550 -0.203045
0.053763 0.330106 -0.011390 0.095976 0.974454 -0.203045
-0.011899 0.336573 -0.011390 0.095976 0.974454 -0.203045
-0.011899 0.539877 0.964306 0.095976 0.974454 -0.203045
0.093426 0.529503 0.964306 0.095976 0.974454 -0.203045
0.324674 0.000000 -0.011390 0.974454 0.095976 -0.203045
0.318207 0.065662 -0.011390 0.974454 0.095976 -0.203045
0.517604 0.105325 0.964306 0.974454 0.095976 -0.203045
0.527978 0.000000 0.964306 0.974454 0.095976 -0.203045
-0.322851 -0.128800 -0.011390 -0.863551 -0.461577 -0.203045
-0.291749 -0.186989 -0.011390 -0.863551 -0.461577 -0.203045
-0.460790 -0.299939 0.964306 -0.863551 -0.461577 -0.203045
-0.510679 -0.206601 0.964306 -0.863551 -0.461577 -0.203045
0.267951 -0.186989 -0.011390 0.863551 -0.461576 -0.203045
0.299054 -0.128800 -0.011390 0.863551 -0.461576 -0.203045
0.486882 -0.206601 0.964306 0.863551 -0.461576 -0.203045
0.436992 -0.299939 0.964306 0.863551 -0.461576 -0.203045
-0.342004 0.065663 -0.011390 -0.974454 0.095977 -0.203045
-0.348471 0.000001 -0.011390 -0.974454 0.095977 -0.203045
-0.551775 0.000001 0.964306 -0.974454 0.095977 -0.203045
-0.541401 0.105325 0.964306 -0.974454 0.095977 -0.203045
0.175091 0.279850 -0.011390 0.461577 0.863550 -0.203045
0.116902 0.310953 -0.011390 0.461577 0.863550 -0.203045
0.194703 0.498781 0.964306 0.461577 0.863550 -0.203045
0.288041 0.448891 0.964306 0.461577 0.863550 -0.203045
0.116902 -0.310952 -0.011390 0.461577 -0.863550 -0.203045
0.175091 -0.279850 -0.011390 0.461577 -0.863550 -0.203045
0.288040 -0.448890 0.964306 0.461577 -0.863550 -0.203045
0.194703 -0.498780 0.964306 0.461577 -0.863550 -0.203045
-0.249891 0.237994 -0.011390 -0.756907 0.621180 -0.203045
-0.291748 0.186990 -0.011390 -0.756907 0.621180 -0.203045
-0.460789 0.299940 0.964306 -0.756907 0.621180 -0.203045
-0.393648 0.381751 0.964306 -0.756907 0.621180 -0.203045
-0.077561 -0.330105 -0.011390 -0.095976 -0.974454 -0.203045
-0.011899 -0.336572 -0.011390 -0.095976 -0.974454 -0.203045
-0.011899 -0.539876 0.964306 -0.095976 -0.974454 -0.203045
-0.117224 -0.529502 0.964306 -0.095976 -0.974454 -0.203045
0.299054 0.128801 -0.011390 0.863550 0.461577 -0.203045
0.267951 0.186990 -0.011390 0.863550 0.461577 -0.203045
0.436992 0.299939 0.964306 0.863550 0.461577 -0.203045
0.486882 0.206602 0.964306 0.863550 0.461577 -0.203045
-0.077560 0.330106 -0.011390 -0.284236 0.937007 -0.203045
-0.140699 0.310953 -0.011390 -0.284236 0.937007 -0.203045
-0.218500 0.498781 0.964306 -0.284236 0.937007 -0.203045
-0.117223 0.529503 0.964306 -0.284236 0.937007 -0.203045
-0.249892 -0.237992 -0.011390 -0.621179 -0.756908 -0.203045
-0.198889 -0.279850 -0.011390 -0.621179 -0.756908 -0.203045
-0.311838 -0.448890 0.964306 -0.621179 -0.756908 -0.203045
-0.393649 -0.381750 0.964306 -0.621179 -0.756908 -0.203045
0.318207 -0.065662 -0.011390 0.974454 -0.095975 -0.203045
0.324674 0.000000 -0.011390 0.974454 -0.095975 -0.203045
0.527978 0.000000 0.964306 0.974454 -0.095975 -0.203045
0.517604 -0.105324 0.964306 0.974454 -0.095975 -0.203045
-0.342004 -0.065661 -0.011390 -0.937007 -0.284237 -0.203045
-0.322851 -0.128800 -0.011390 -0.937007 -0.284237 -0.203045
-0.510679 -0.206601 0.964306 -0.937007 -0.284237 -0.203045
-0.541401 -0.105324 0.964306 -0.937007 -0.284237 -0.203045
0.226094 -0.237993 -0.011390 0.756908 -0.621179 -0.203045
0.267951 -0.186989 -0.011390 0.756908 -0.621179 -0.203045
0.436992 -0.299939 0.964306 0.756908 -0.621179 -0.203045
0.369851 -0.381750 0.964306 0.756908 -0.621179 -0.203045
-0.322851 0.128801 -0.011390 -0.937006 0.284240 -0.203045
-0.342004 0.065663 -0.011390 -0.937006 0.284240 -0.203045
-0.541401 0.105325 0.964306 -0.937006 0.284240 -0.203045
-0.510679 0.206603 0.964306 -0.937006 0.284240 -0.203045
0.226094 0.237993 -0.011390 0.621179 0.756908 -0.203045
0.175091 0.279850 -0.011390 0.621179 0.756908 -0.203045
0.288041 0.448891 0.964306 0.621179 0.756908 -0.203045
0.369851 0.381750 0.964306 0.621179 0.756908 -0.203045
0.053763 -0.330105 -0.011390 0.284238 -0.937007 -0.203045
0.116902 -0.310952 -0.011390 0.284238 -0.937007 -0.203045
0.194703 -0.498780 0.964306 0.284238 -0.937007 -0.203045
0.093426 -0.529502 0.964306 0.284238 -0.937007 -0.203045
-0.198888 0.279851 -0.011390 -0.621177 0.756909 -0.203045
-0.249891 0.237994 -0.011390 -0.621177 0.756909 -0.203045
-0.393648 0.381751 0.964306 -0.621177 0.756909 -0.203045
-0.311837 0.448891 0.964306 -0.621177 0.756909 -0.203045
-0.140700 -0.310952 -0.011390 -0.284238 -0.937007 -0.203045
-0.077561 -0.330105 -0.011390 -0.284238 -0.937007 -0.203045
-0.117224 -0.529502 0.964306 -0.284238 -0.937007 -0.203045
-0.218501 -0.498780 0.964306 -0.284238 -0.937007 -0.203045
0.318207 0.065662 -0.011390 0.937007 0.284237 -0.203045
0.299054 0.128801 -0.011390 0.937007 0.284237 -0.203045
0.486882 0.206602 0.964306 0.937007 0.284237 -0.203045
0.517604 0.105325 0.964306 0.937007 0.284237 -0.203045
0.031080 0.216068 0.964306 -0.000000 0.000000 1.000000
-0.011899 0.220301 0.964306 -0.000000 0.000000 1.000000
-0.054877 0.216068 0.964306 -0.000000 0.000000 1.000000
-0.096204 0.203532 0.964306 -0.000000 0.000000 1.000000
0.072407 0.203531 0.964306 0.000000 -0.000000 1.000000
-0.134291 0.183174 0.964306 0.000000 -0.000000 1.000000
0.110494 0.183173 0.964306 0.000000 0.000000 1.000000
-0.167674 0.155776 0.964306 0.000000 -0.000000 1.000000
0.143877 0.155776 0.964306 0.000000 0.000000 1.000000
-0.195072 0.122393 0.964306 0.000000 -0.000000 1.000000
0.171274 0.122393 0.964306 0.000000 0.000000 1.000000
-0.215429 0.084306 0.964306 0.000000 -0.000000 1.000000
0.191632 0.084306 0.964306 0.000000 0.000000 1.000000
-0.227966 0.042979 0.964306 0.000000 -0.000000 1.000000
0.204169 0.042979 0.964306 0.000000 0.000000 1.000000
-0.232199 0.000001 0.964306 0.000000 -0.000000 1.000000
0.208402 0.000000 0.964306 0.000000 0.000000 1.000000
-0.227966 -0.042978 0.964306 0.000000 0.000000 1.000000
0.204169 -0.042978 0.964306 0.000000 0.000000 1.000000
0.191632 -0.084305 0.964306 0.000000 0.000000 1.000000
0.171274 -0.122392 0.964306 0.000000 0.000000 1.000000
-0.167675 -0.155775 0.964306 0.000000 0.000000 1.000000
0.143877 -0.155776 0.964306 0.000000 0.000000 1.000000
-0.134291 -0.183173 0.964306 0.000000 0.000000 1.000000
0.110494 -0.183173 0.964306 0.000000 0.000000 1.000000
-0.096204 -0.203531 0.964306 0.000000 0.000000 1.000000
0.072407 -0.203531 0.964306 0.000000 0.000000 1.000000
-0.054877 -0.216067 0.964306 0.000000 0.000000 1.000000
0.031080 -0.216067 0.964306 0.000000 0.000000 1.000000
-0.011899 -0.220300 0.964306 0.000000 0.000000 1.000000
0.436992 -0.299939 0.964306 0.000000 -0.000000 1.000000
0.486882 -0.206601 0.964306 0.000000 -0.000000 1.000000
-0.117223 0.529503 0.964306 -0.000000 0.000000 1.000000
-0.218500 0.498781 0.964306 -0.000000 0.000000 1.000000
-0.393649 -0.381750 0.964306 -0.000000 -0.000000 1.000000
-0.311838 -0.448890 0.964306 -0.000000 -0.000000 1.000000
0.517604 -0.105324 0.964306 0.000000 -0.000000 1.000000
0.527978 0.000000 0.964306 0.000000 -0.000000 1.000000
-0.311837 0.448891 0.964306 -0.000000 0.000000 1.000000
-0.393648 0.381751 0.964306 -0.000000 0.000000 1.000000
-0.218501 -0.498780 0.964306 -0.000000 -0.000000 1.000000
-0.117224 -0.529502 0.964306 -0.000000 -0.000000 1.000000
0.517604 0.105325 0.964306 0.000000 0.000000 1.000000
0.486882 0.206602 0.964306 0.000000 0.000000 1.000000
-0.460789 0.299940 0.964306 -0.000000 0.000000 1.000000
-0.510679 0.206603 0.964306 -0.000000 0.000000 1.000000
0.436992 0.299939 0.964306 0.000000 0.000000 1.000000
0.369851 0.381750 0.964306 0.000000 0.000000 1.000000
-0.011899 -0.539876 0.964306 0.000000 -0.000000 1.000000
0.093426 -0.529502 0.964306 0.000000 -0.000000 1.000000
-0.541401 0.105325 0.964306 -0.000000 0.000000 1.000000
-0.551775 0.000001 0.964306 -0.000000 0.000000 1.000000
0.288041 0.448891 0.964306 0.000000 0.000000 1.000000
0.194703 0.498781 0.964306 0.000000 0.000000 1.000000
0.194703 -0.498780 0.964306 0.000000 -0.000000 1.000000
0.288040 -0.448890 0.964306 0.000000 -0.000000 1.000000
-0.541401 -0.105324 0.964306 -0.000000 -0.000000 1.000000
0.093426 0.529503 0.964306 0.000000 0.000000 1.000000
-0.011899 0.539877 0.964306 0.000000 0.000000 1.000000
0.369851 -0.381750 0.964306 0.000000 -0.000000 1.000000
4 0 1 2 3
4 4 5 6 7
4 8 9 10 11
4 12 13 14 15
4 16 17 18 19
4 20 21 22 23
4 24 25 26 27
4 28 29 30 31
4 32 33 34 35
4 36 37 38 39
4 40 41 42 43
4 44 45 46 47
4 48 49 50 51
4 52 53 54 55
4 56 57 58 59
4 60 61 62 63
4 64 65 66 67
4 68 69 70 71
4 72 73 74 75
4 76 77 78 79
4 80 81 82 83
4 84 85 86 87
4 88 89 90 91
4 92 93 94 95
4 96 97 98 99
4 100 101 102 103
4 104 105 106 107
4 108 109 110 111
4 112 113 114 115
4 116 117 118 119
4 120 121 122 123
4 124 125 126 127
4 128 129 130 131
3 132 133 134
3 133 135 134
3 133 136 135
3 136 137 135
3 136 138 137
3 138 139 137
3 138 140 139
3 140 141 139
3 140 142 141
3 142 143 141
3 142 144 143
3 144 145 143
3 144 146 145
3 146 147 145
3 146 148 147
3 148 149 147
3 148 150 149
3 150 151 149
3 150 152 151
3 152 153 151
3 152 154 153
3 154 155 153
3 154 156 155
3 156 157 155
3 156 158 157
3 158 159 157
3 158 160 159
3 160 161 159
3 160 162 161
3 162 163 161
4 164 165 166 167
4 168 169 170 171
4 172 173 174 175
4 176 177 178 179
4 180 181 182 183
4 184 185 186 187
4 188 189 190 191
4 192 193 194 195
4 196 197 198 199
4 200 201 202 203
4 204 205 206 207
4 208 209 210 211
4 212 213 214 215
4 216 217 218 219
4 220 221 222 223
4 224 225 226 227
4 228 229 230 231
4 232 233 234 235
4 236 237 238 239
4 240 241 242 243
4 244 245 246 247
4 248 249 250 251
4 252 253 254 255
4 256 257 258 259
4 260 261 262 263
4 264 265 266 267
4 268 269 270 271
4 272 273 274 275
4 276 277 278 279
4 280 281 282 283
4 284 285 286 287
4 288 289 290 291
3 292 293 294
3 292 294 295
3 292 295 296
3 295 297 296
3 297 298 296
3 297 299 298
3 299 300 298
3 299 301 300
3 301 302 300
3 301 303 302
3 303 304 302
3 303 305 304
3 305 306 304
3 305 307 306
3 307 308 306
3 307 309 308
3 309 310 308
3 309 167 310
3 167 311 310
3 167 166 311
3 166 312 311
3 166 313 312
3 313 314 312
3 313 315 314
3 315 316 314
3 315 317 316
3 317 318 316
3 317 319 318
3 319 320 318
3 319 321 320
4 322 323 311 312
4 324 325 295 294
4 326 327 315 313
4 328 329 308 310
4 330 331 299 297
4 332 333 319 317
4 334 335 304 306
4 336 337 303 301
4 338 339 300 302
4 340 341 320 321
4 342 343 307 305
4 344 345 296 298
4 346 347 316 318
4 348 164 167 309
4 349 350 293 292
4 351 322 312 314
4 350 324 294 293
4 165 326 313 166
4 323 328 310 311
4 325 330 297 295
4 327 332 317 315
4 329 334 306 308
4 331 336 301 299
4 333 340 321 319
4 335 338 302 304
4 337 342 305 303
4 339 344 298 300
4 341 346 318 320
4 343 348 309 307
4 345 349 292 296
4 347 351 314 316
