ply
format ascii 1.0
comment Created by Blender 2.69 (sub 0) - www.blender.org, source file: ''
element vertex 192
property float x
property float y
property float z
property float nx
property float ny
property float nz
element face 90
property list uchar uint vertex_indices
end_header
-0.117223 0.529503 0.964306 0.000000 0.000000 1.000000
-0.011899 -0.539876 0.964306 0.000000 0.000000 1.000000
0.093426 -0.529502 0.964306 0.000000 0.000000 1.000000
0.194703 -0.498780 0.964306 0.000000 0.000000 1.000000
0.436992 0.299939 0.964306 0.752039 0.617184 0.231346
0.831470 0.555570 -1.000000 0.752039 0.617184 0.231346
0.707107 0.707107 -1.000000 0.752039 0.617184 0.231346
0.369851 0.381750 0.964306 0.752039 0.617184 0.231346
-0.510679 -0.206601 0.964306 -0.859899 -0.459622 0.222084
-0.923880 -0.382683 -1.000000 -0.859899 -0.459622 0.222084
-0.831470 -0.555570 -1.000000 -0.859899 -0.459622 0.222084
-0.460790 -0.299939 0.964306 -0.859899 -0.459622 0.222084
0.707107 -0.707107 -1.000000 0.752039 -0.617184 0.231346
0.831470 -0.555570 -1.000000 0.752039 -0.617184 0.231346
0.436992 -0.299939 0.964306 0.752039 -0.617184 0.231346
0.369851 -0.381750 0.964306 0.752039 -0.617184 0.231346
0.195090 0.980785 -1.000000 0.000000 0.000000 -1.000000
-0.980785 -0.195089 -1.000000 0.000000 0.000000 -1.000000
-1.000000 0.000001 -1.000000 0.000000 0.000000 -1.000000
0.288040 -0.448890 0.964306 0.000000 0.000000 1.000000
-0.460789 0.299940 0.964306 -0.753598 0.618463 0.222696
-0.393648 0.381751 0.964306 -0.753598 0.618463 0.222696
-0.707106 0.707108 -1.000000 -0.753598 0.618463 0.222696
-0.831469 0.555571 -1.000000 -0.753598 0.618463 0.222696
-0.980785 0.195091 -1.000000 0.000000 -0.000000 -1.000000
0.369851 -0.381750 0.964306 0.000000 0.000000 1.000000
-0.707107 -0.707106 -1.000000 -0.753597 -0.618465 0.222695
-0.393649 -0.381750 0.964306 -0.753597 -0.618465 0.222695
-0.460790 -0.299939 0.964306 -0.753597 -0.618465 0.222695
-0.831470 -0.555570 -1.000000 -0.753597 -0.618465 0.222695
0.436992 -0.299939 0.964306 0.000000 0.000000 1.000000
-0.923879 0.382684 -1.000000 0.000000 -0.000000 -1.000000
0.923880 0.382683 -1.000000 0.857868 0.458541 0.231953
0.831470 0.555570 -1.000000 0.857868 0.458541 0.231953
0.436992 0.299939 0.964306 0.857868 0.458541 0.231953
0.486882 0.206602 0.964306 0.857868 0.458541 0.231953
-0.831469 0.555571 -1.000000 0.000000 -0.000000 -1.000000
0.486882 -0.206601 0.964306 0.000000 0.000000 1.000000
0.000000 1.000000 -1.000000 0.095447 0.969071 0.227575
-0.011899 0.539877 0.964306 0.095447 0.969071 0.227575
0.093426 0.529503 0.964306 0.095447 0.969071 0.227575
0.195090 0.980785 -1.000000 0.095447 0.969071 0.227575
0.288040 -0.448890 0.964306 0.617298 -0.752183 0.230573
0.555570 -0.831470 -1.000000 0.617298 -0.752183 0.230573
0.707107 -0.707107 -1.000000 0.617298 -0.752183 0.230573
0.369851 -0.381750 0.964306 0.617298 -0.752183 0.230573
0.517604 -0.105324 0.964306 0.000000 0.000000 1.000000
-0.707106 0.707108 -1.000000 0.000000 -0.000000 -1.000000
-0.510679 0.206603 0.964306 -0.859897 0.459626 0.222084
-0.460789 0.299940 0.964306 -0.859897 0.459626 0.222084
-0.831469 0.555571 -1.000000 -0.859897 0.459626 0.222084
-0.923879 0.382684 -1.000000 -0.859897 0.459626 0.222084
-0.555569 0.831470 -1.000000 0.000000 -0.000000 -1.000000
-0.555571 -0.831469 -1.000000 -0.618350 -0.753461 0.223473
-0.311838 -0.448890 0.964306 -0.618350 -0.753461 0.223473
-0.393649 -0.381750 0.964306 -0.618350 -0.753461 0.223473
-0.707107 -0.707106 -1.000000 -0.618350 -0.753461 0.223473
0.527978 0.000000 0.964306 0.000000 0.000000 1.000000
0.382683 0.923880 -1.000000 0.000000 0.000000 -1.000000
0.555570 0.831470 -1.000000 0.000000 0.000000 -1.000000
-0.382682 0.923880 -1.000000 0.000000 -0.000000 -1.000000
0.517604 0.105325 0.964306 0.000000 0.000000 1.000000
0.517604 0.105325 0.964306 0.930747 0.282337 0.232371
0.980785 0.195090 -1.000000 0.930747 0.282337 0.232371
0.923880 0.382683 -1.000000 0.930747 0.282337 0.232371
0.486882 0.206602 0.964306 0.930747 0.282337 0.232371
0.707107 0.707107 -1.000000 0.000000 0.000000 -1.000000
-0.195089 0.980786 -1.000000 0.000000 -0.000000 -1.000000
0.194703 -0.498780 0.964306 0.458797 -0.858347 0.229663
0.382683 -0.923880 -1.000000 0.458797 -0.858347 0.229663
0.555570 -0.831470 -1.000000 0.458797 -0.858347 0.229663
0.288040 -0.448890 0.964306 0.458797 -0.858347 0.229663
0.486882 0.206602 0.964306 0.000000 0.000000 1.000000
0.831470 0.555570 -1.000000 0.000000 0.000000 -1.000000
0.000000 1.000000 -1.000000 -0.000000 0.000000 -1.000000
0.436992 0.299939 0.964306 0.000000 0.000000 1.000000
0.000000 1.000000 -1.000000 -0.095470 0.969326 0.226479
-0.195089 0.980786 -1.000000 -0.095470 0.969326 0.226479
-0.117223 0.529503 0.964306 -0.095470 0.969326 0.226479
-0.011899 0.539877 0.964306 -0.095470 0.969326 0.226479
0.923880 0.382683 -1.000000 0.000000 0.000000 -1.000000
-0.541401 0.105325 0.964306 -0.933135 0.283063 0.221663
-0.510679 0.206603 0.964306 -0.933135 0.283063 0.221663
-0.923879 0.382684 -1.000000 -0.933135 0.283063 0.221663
-0.980785 0.195091 -1.000000 -0.933135 0.283063 0.221663
0.369851 0.381750 0.964306 0.000000 0.000000 1.000000
-0.218501 -0.498780 0.964306 -0.459377 -0.859432 0.224387
-0.311838 -0.448890 0.964306 -0.459377 -0.859432 0.224387
-0.555571 -0.831469 -1.000000 -0.459377 -0.859432 0.224387
-0.382684 -0.923879 -1.000000 -0.459377 -0.859432 0.224387
0.980785 0.195090 -1.000000 0.000000 0.000000 -1.000000
0.288041 0.448891 0.964306 0.000000 0.000000 1.000000
1.000000 0.000000 -1.000000 0.967893 0.095331 0.232584
0.980785 0.195090 -1.000000 0.967893 0.095331 0.232584
0.517604 0.105325 0.964306 0.967893 0.095331 0.232584
0.527978 0.000000 0.964306 0.967893 0.095331 0.232584
1.000000 0.000000 -1.000000 0.000000 0.000000 -1.000000
-0.218500 0.498781 0.964306 0.000000 0.000000 1.000000
-0.311837 0.448891 0.964306 0.000000 0.000000 1.000000
0.194703 0.498781 0.964306 0.000000 0.000000 1.000000
0.093426 -0.529502 0.964306 0.282592 -0.931590 0.228651
0.195090 -0.980785 -1.000000 0.282592 -0.931590 0.228651
0.382683 -0.923880 -1.000000 0.282592 -0.931590 0.228651
0.194703 -0.498780 0.964306 0.282592 -0.931590 0.228651
0.980785 -0.195090 -1.000000 0.000000 0.000000 -1.000000
-0.393648 0.381751 0.964306 0.000000 0.000000 1.000000
0.093426 0.529503 0.964306 0.000000 0.000000 1.000000
-1.000000 0.000001 -1.000000 -0.970476 0.095586 0.221448
-0.551775 0.000001 0.964306 -0.970476 0.095586 0.221448
-0.541401 0.105325 0.964306 -0.970476 0.095586 0.221448
-0.980785 0.195091 -1.000000 -0.970476 0.095586 0.221448
0.923880 -0.382683 -1.000000 0.000000 0.000000 -1.000000
-0.460789 0.299940 0.964306 0.000000 0.000000 1.000000
-0.011899 0.539877 0.964306 0.000000 0.000000 1.000000
0.382683 0.923880 -1.000000 0.282592 0.931590 0.228651
0.195090 0.980785 -1.000000 0.282592 0.931590 0.228651
0.093426 0.529503 0.964306 0.282592 0.931590 0.228651
0.194703 0.498781 0.964306 0.282592 0.931590 0.228651
0.831470 -0.555570 -1.000000 0.000000 0.000000 -1.000000
-0.510679 0.206603 0.964306 0.000000 0.000000 1.000000
-0.117224 -0.529502 0.964306 -0.282815 -0.932314 0.225402
-0.218501 -0.498780 0.964306 -0.282815 -0.932314 0.225402
-0.382684 -0.923879 -1.000000 -0.282815 -0.932314 0.225402
-0.195091 -0.980785 -1.000000 -0.282815 -0.932314 0.225402
0.517604 -0.105324 0.964306 0.967893 -0.095332 0.232584
0.980785 -0.195090 -1.000000 0.967893 -0.095332 0.232584
1.000000 0.000000 -1.000000 0.967893 -0.095332 0.232584
0.527978 0.000000 0.964306 0.967893 -0.095332 0.232584
-0.541401 0.105325 0.964306 0.000000 0.000000 1.000000
0.707107 -0.707107 -1.000000 0.000000 0.000000 -1.000000
-0.382682 0.923880 -1.000000 -0.282815 0.932314 0.225402
-0.218500 0.498781 0.964306 -0.282815 0.932314 0.225402
-0.117223 0.529503 0.964306 -0.282815 0.932314 0.225402
-0.195089 0.980786 -1.000000 -0.282815 0.932314 0.225402
0.555570 -0.831470 -1.000000 0.000000 0.000000 -1.000000
-0.551775 0.000001 0.964306 0.000000 0.000000 1.000000
-0.011899 -0.539876 0.964306 0.095447 -0.969071 0.227576
0.000000 -1.000000 -1.000000 0.095447 -0.969071 0.227576
0.195090 -0.980785 -1.000000 0.095447 -0.969071 0.227576
0.093426 -0.529502 0.964306 0.095447 -0.969071 0.227576
-0.541401 -0.105324 0.964306 -0.970476 -0.095586 0.221448
-0.551775 0.000001 0.964306 -0.970476 -0.095586 0.221448
-1.000000 0.000001 -1.000000 -0.970476 -0.095586 0.221448
-0.980785 -0.195089 -1.000000 -0.970476 -0.095586 0.221448
0.382683 -0.923880 -1.000000 0.000000 0.000000 -1.000000
-0.541401 -0.105324 0.964306 0.000000 -0.000000 1.000000
0.555570 0.831470 -1.000000 0.458796 0.858348 0.229662
0.382683 0.923880 -1.000000 0.458796 0.858348 0.229662
0.194703 0.498781 0.964306 0.458796 0.858348 0.229662
0.288041 0.448891 0.964306 0.458796 0.858348 0.229662
0.195090 -0.980785 -1.000000 0.000000 0.000000 -1.000000
0.000000 -1.000000 -1.000000 -0.095472 -0.969326 0.226479
-0.011899 -0.539876 0.964306 -0.095472 -0.969326 0.226479
-0.117224 -0.529502 0.964306 -0.095472 -0.969326 0.226479
-0.195091 -0.980785 -1.000000 -0.095472 -0.969326 0.226479
-0.510679 -0.206601 0.964306 0.000000 -0.000000 1.000000
0.486882 -0.206601 0.964306 0.930747 -0.282337 0.232371
0.923880 -0.382683 -1.000000 0.930747 -0.282337 0.232371
0.980785 -0.195090 -1.000000 0.930747 -0.282337 0.232371
0.517604 -0.105324 0.964306 0.930747 -0.282337 0.232371
0.000000 -1.000000 -1.000000 0.000000 0.000000 -1.000000
-0.460790 -0.299939 0.964306 0.000000 -0.000000 1.000000
-0.195091 -0.980785 -1.000000 -0.000000 0.000000 -1.000000
-0.382684 -0.923879 -1.000000 -0.000000 0.000000 -1.000000
-0.555569 0.831470 -1.000000 -0.459377 0.859432 0.224387
-0.311837 0.448891 0.964306 -0.459377 0.859432 0.224387
-0.218500 0.498781 0.964306 -0.459377 0.859432 0.224387
-0.382682 0.923880 -1.000000 -0.459377 0.859432 0.224387
-0.393649 -0.381750 0.964306 0.000000 -0.000000 1.000000
-0.923880 -0.382683 -1.000000 -0.933136 -0.283060 0.221663
-0.510679 -0.206601 0.964306 -0.933136 -0.283060 0.221663
-0.541401 -0.105324 0.964306 -0.933136 -0.283060 0.221663
-0.980785 -0.195089 -1.000000 -0.933136 -0.283060 0.221663
-0.311838 -0.448890 0.964306 0.000000 -0.000000 1.000000
0.369851 0.381750 0.964306 0.617302 0.752180 0.230573
0.707107 0.707107 -1.000000 0.617302 0.752180 0.230573
0.555570 0.831470 -1.000000 0.617302 0.752180 0.230573
0.288041 0.448891 0.964306 0.617302 0.752180 0.230573
-0.555571 -0.831469 -1.000000 0.000000 0.000000 -1.000000
-0.218501 -0.498780 0.964306 0.000000 -0.000000 1.000000
0.436992 -0.299939 0.964306 0.857869 -0.458540 0.231953
0.831470 -0.555570 -1.000000 0.857869 -0.458540 0.231953
0.923880 -0.382683 -1.000000 0.857869 -0.458540 0.231953
0.486882 -0.206601 0.964306 0.857869 -0.458540 0.231953
-0.707107 -0.707106 -1.000000 0.000000 0.000000 -1.000000
-0.117224 -0.529502 0.964306 0.000000 -0.000000 1.000000
-0.393648 0.381751 0.964306 -0.618346 0.753464 0.223473
-0.311837 0.448891 0.964306 -0.618346 0.753464 0.223473
-0.555569 0.831470 -1.000000 -0.618346 0.753464 0.223473
-0.707106 0.707108 -1.000000 -0.618346 0.753464 0.223473
-0.831470 -0.555570 -1.000000 0.000000 0.000000 -1.000000
-0.923880 -0.382683 -1.000000 0.000000 0.000000 -1.000000
4 0 1 2 3
4 4 5 6 7
4 8 9 10 11
4 12 13 14 15
3 16 17 18
3 0 3 19
4 20 21 22 23
3 16 18 24
3 0 19 25
4 26 27 28 29
3 0 25 30
3 16 24 31
4 32 33 34 35
3 16 31 36
3 0 30 37
4 38 39 40 41
4 42 43 44 45
3 0 37 46
3 16 36 47
4 48 49 50 51
3 16 47 52
4 53 54 55 56
3 0 46 57
3 16 58 59
3 16 52 60
3 0 57 61
4 62 63 64 65
3 16 59 66
3 16 60 67
4 68 69 70 71
3 0 61 72
3 16 66 73
3 67 74 16
3 0 72 75
4 76 77 78 79
3 16 73 80
4 81 82 83 84
3 0 75 85
4 86 87 88 89
3 16 80 90
3 0 85 91
4 92 93 94 95
3 16 90 96
3 0 97 98
3 0 91 99
4 100 101 102 103
3 16 96 104
3 0 98 105
3 0 99 106
4 107 108 109 110
3 16 104 111
3 0 105 112
3 0 106 113
4 114 115 116 117
3 16 111 118
3 0 112 119
4 120 121 122 123
4 124 125 126 127
3 0 119 128
3 16 118 129
4 130 131 132 133
3 16 129 134
3 0 128 135
4 136 137 138 139
4 140 141 142 143
3 16 134 144
3 0 135 145
4 146 147 148 149
3 16 144 150
4 151 152 153 154
3 0 145 155
4 156 157 158 159
3 16 150 160
3 0 155 161
4 162 163 16 160
4 164 165 166 167
3 0 161 168
4 169 170 171 172
3 0 168 173
4 174 175 176 177
3 16 163 178
3 0 173 179
4 180 181 182 183
3 16 178 184
3 0 179 185
4 186 187 188 189
3 16 184 190
3 0 185 1
3 16 190 191
3 16 191 17
