ply
format ascii 1.0
comment Created by Blender 2.69 (sub 0) - www.blender.org, source file: ''
element vertex 64
property float x
property float y
property float z
element face 90
property list uchar uint vertex_indices
end_header
-0.117223 0.529503 0.964306
-0.011899 -0.539876 0.964306
0.093426 -0.529502 0.964306
0.194703 -0.498780 0.964306
0.436992 0.299939 0.964306
0.831470 0.555570 -1.000000
0.707107 0.707107 -1.000000
0.369851 0.381750 0.964306
-0.510679 -0.206601 0.964306
-0.923880 -0.382683 -1.000000
-0.831470 -0.555570 -1.000000
-0.460790 -0.299939 0.964306
0.707107 -0.707107 -1.000000
0.831470 -0.555570 -1.000000
0.436992 -0.299939 0.964306
0.369851 -0.381750 0.964306
0.195090 0.980785 -1.000000
-0.980785 -0.195089 -1.000000
-1.000000 0.000001 -1.000000
0.288040 -0.448890 0.964306
-0.460789 0.299940 0.964306
-0.393648 0.381751 0.964306
-0.707106 0.707108 -1.000000
-0.831469 0.555571 -1.000000
-0.980785 0.195091 -1.000000
-0.923879 0.382684 -1.000000
0.486882 -0.206601 0.964306
0.517604 -0.105324 0.964306
0.527978 0.000000 0.964306
0.382683 0.923880 -1.000000
0.555570 0.831470 -1.000000
-0.555569 0.831470 -1.000000
-0.382682 0.923880 -1.000000
0.517604 0.105325 0.964306
-0.195089 0.980786 -1.000000
-0.218500 0.498781 0.964306
-0.311837 0.448891 0.964306
0.288041 0.448891 0.964306
0.194703 0.498781 0.964306
0.980785 -0.195090 -1.000000
0.923880 -0.382683 -1.000000
-0.707107 -0.707106 -1.000000
-0.393649 -0.381750 0.964306
0.923880 0.382683 -1.000000
0.486882 0.206602 0.964306
0.000000 1.000000 -1.000000
-0.011899 0.539877 0.964306
0.093426 0.529503 0.964306
0.555570 -0.831470 -1.000000
-0.510679 0.206603 0.964306
-0.555571 -0.831469 -1.000000
-0.311838 -0.448890 0.964306
0.980785 0.195090 -1.000000
0.382683 -0.923880 -1.000000
-0.541401 0.105325 0.964306
-0.218501 -0.498780 0.964306
-0.382684 -0.923879 -1.000000
1.000000 0.000000 -1.000000
0.195090 -0.980785 -1.000000
-0.551775 0.000001 0.964306
-0.117224 -0.529502 0.964306
-0.195091 -0.980785 -1.000000
0.000000 -1.000000 -1.000000
-0.541401 -0.105324 0.964306
4 0 1 2 3
4 4 5 6 7
4 8 9 10 11
4 12 13 14 15
3 16 17 18
3 0 3 19
4 20 21 22 23
3 16 18 24
3 16 24 25
3 0 26 27
3 0 27 28
3 16 29 30
3 16 31 32
3 0 28 33
3 16 32 34
3 0 35 36
3 0 37 38
3 16 39 40
3 0 19 15
4 41 42 11 10
3 0 15 14
4 43 5 4 44
3 16 25 23
3 0 14 26
4 45 46 47 16
4 19 48 12 15
3 16 23 22
4 49 20 23 25
3 16 22 31
4 50 51 42 41
4 33 52 43 44
3 16 30 6
4 3 53 48 19
3 0 33 44
3 16 6 5
3 34 45 16
3 0 44 4
4 0 46 45 34
3 16 5 43
4 54 49 25 24
3 0 4 7
4 55 51 50 56
3 16 43 52
3 0 7 37
4 57 52 33 28
3 16 52 57
4 2 58 53 3
3 16 57 39
3 0 36 21
3 0 38 47
4 18 59 54 24
3 0 21 20
3 0 47 46
4 29 16 47 38
3 16 40 13
3 0 20 49
4 60 55 56 61
4 27 39 57 28
3 0 49 54
3 16 13 12
4 0 34 32 35
3 16 12 48
3 0 54 59
4 1 62 58 2
4 63 59 18 17
3 16 48 53
3 0 59 63
4 30 29 38 37
3 16 53 58
4 62 1 60 61
3 0 63 8
4 26 40 39 27
3 16 58 62
3 0 8 11
4 61 56 16 62
4 31 36 35 32
3 0 11 42
4 9 8 63 17
3 0 42 51
4 7 6 30 37
3 16 56 50
3 0 51 55
4 14 13 40 26
3 16 50 41
3 0 55 60
4 21 36 31 22
3 16 41 10
3 0 60 1
3 16 10 9
3 16 9 17
