ply
format ascii 1.0
comment Created by Blender 2.69 (sub 0) - www.blender.org, source file: ''
element vertex 45
property float x
property float y
property float z
element face 69
property list uchar uint vertex_indices
end_header
5.286846 -12.507089 -2.892074
5.286847 -11.926323 -1.918860
5.051982 -11.998919 -1.797208
-28.298796 3.100986 -3.378680
-28.533657 2.738008 -3.135377
-22.427179 3.681757 2.095648
-18.434486 4.770696 -11.407694
-29.473116 3.318773 -12.137604
-17.025297 5.061080 -9.217964
29.008156 3.972170 -3.378680
29.243021 3.681786 -3.135377
30.417343 4.189959 -12.137604
7.635484 1.503901 13.530909
7.635484 1.721687 13.530909
0.824412 1.140917 15.112381
26.424646 3.826977 -13.354122
18.674114 4.915909 -12.259256
19.378708 5.351484 -11.407694
18.204386 5.424080 -9.217964
23.371405 4.335146 2.095648
-22.427179 3.100990 2.338951
23.606272 3.681784 2.338951
-2.463683 -12.361902 -0.459039
10.453859 -0.093205 10.854572
-25.480419 2.955797 -13.354122
0.354687 -4.303767 -15.300550
-2.463684 -11.055178 -7.149884
-9.039898 -0.093217 10.854572
-8.335305 0.995720 11.949438
-17.964754 4.335121 -12.259256
14.916283 5.351483 -7.149884
15.620876 4.915908 4.285378
-2.698548 -13.087861 -1.432253
-13.972055 5.061082 -7.149884
-14.676649 4.552910 4.285378
-4.577465 -10.982584 -5.811715
0.824414 -2.634064 -15.908808
-6.456389 1.721679 13.530909
0.824415 -3.940788 -15.787157
0.824415 -3.360022 -15.908808
-6.456389 1.503891 13.530909
0.824416 -4.448958 -15.178898
3.173064 -10.111429 -8.123098
29.947615 3.826977 -11.894300
5.756574 -9.821045 -7.149884
3 0 1 2
3 3 4 5
3 6 7 8
3 9 10 11
3 12 13 14
3 15 16 17
3 7 4 3
3 9 18 19
3 9 19 10
3 4 20 5
3 7 3 8
3 19 21 10
4 22 2 23 14
4 1 10 23 2
4 24 25 26 7
3 27 28 20
3 16 15 29
4 18 30 31 19
3 23 12 14
4 32 0 2 22
4 33 34 31 30
3 26 35 7
3 15 24 29
3 10 21 23
3 15 36 24
3 13 37 14
4 32 22 27 4
3 21 12 23
3 25 38 26
3 36 39 24
3 34 5 37
3 30 18 33
4 20 40 37 5
3 39 38 24
3 38 41 26
4 21 19 13 12
4 7 35 32 4
4 38 15 11 42
3 41 42 26
3 18 8 33
3 38 25 24
3 39 15 38
3 41 38 42
3 13 31 37
3 35 26 32
3 19 31 13
4 8 5 34 33
3 39 36 15
4 17 6 8 18
3 31 34 37
4 0 32 26 42
4 0 43 10 1
3 11 44 42
3 20 28 40
3 44 0 42
3 11 43 44
3 28 27 40
3 43 0 44
3 15 17 11
3 27 22 40
4 11 17 18 9
3 8 3 5
4 16 29 6 17
3 37 40 14
3 40 22 14
3 6 29 7
3 4 27 20
3 29 24 7
3 43 11 10
