ply
format ascii 1.0
comment Created by Blender 2.69 (sub 0) - www.blender.org, source file: ''
element vertex 224
property float x
property float y
property float z
property float nx
property float ny
property float nz
element face 69
property list uchar uint vertex_indices
end_header
5.286846 -12.507089 -2.892074 0.468882 -0.758475 0.452620
5.286847 -11.926323 -1.918860 0.468882 -0.758475 0.452620
5.051982 -11.998919 -1.797208 0.468882 -0.758475 0.452620
-28.298796 3.100986 -3.378680 -0.534151 0.681200 0.500648
-28.533657 2.738008 -3.135377 -0.534151 0.681200 0.500648
-22.427179 3.681757 2.095648 -0.534151 0.681200 0.500648
-18.434486 4.770696 -11.407694 -0.127021 0.990658 -0.049629
-29.473116 3.318773 -12.137604 -0.127021 0.990658 -0.049629
-17.025297 5.061080 -9.217964 -0.127021 0.990658 -0.049629
-29.473116 3.318773 -12.137604 -0.794323 0.595264 0.121297
-28.533657 2.738008 -3.135377 -0.794323 0.595264 0.121297
-28.298796 3.100986 -3.378680 -0.794323 0.595264 0.121297
29.008156 3.972170 -3.378680 0.713765 0.687846 0.131938
29.243021 3.681786 -3.135377 0.713765 0.687846 0.131938
30.417343 4.189959 -12.137604 0.713765 0.687846 0.131938
29.008156 3.972170 -3.378680 0.108600 0.993022 0.045980
18.204386 5.424080 -9.217964 0.108600 0.993022 0.045980
23.371405 4.335146 2.095648 0.108600 0.993022 0.045980
29.008156 3.972170 -3.378680 0.478766 0.758155 0.442701
23.371405 4.335146 2.095648 0.478766 0.758155 0.442701
29.243021 3.681786 -3.135377 0.478766 0.758155 0.442701
-28.533657 2.738008 -3.135377 -0.647569 0.294437 0.702824
-22.427179 3.100990 2.338951 -0.647569 0.294437 0.702824
-22.427179 3.681757 2.095648 -0.647569 0.294437 0.702824
-29.473116 3.318773 -12.137604 -0.148710 0.987879 0.044501
-28.298796 3.100986 -3.378680 -0.148710 0.987879 0.044501
-17.025297 5.061080 -9.217964 -0.148710 0.987879 0.044501
23.371405 4.335146 2.095648 0.618731 0.459662 0.637089
23.606272 3.681784 2.338951 0.618731 0.459662 0.637089
29.243021 3.681786 -3.135377 0.618731 0.459662 0.637089
7.635484 1.503901 13.530909 0.226175 0.000000 0.974087
7.635484 1.721687 13.530909 0.226175 0.000000 0.974087
0.824412 1.140917 15.112381 0.226175 0.000000 0.974087
-2.463683 -12.361902 -0.459039 0.167346 -0.757782 0.630683
5.051982 -11.998919 -1.797208 0.167346 -0.757782 0.630683
10.453859 -0.093205 10.854572 0.167346 -0.757782 0.630683
0.824412 1.140917 15.112381 0.167346 -0.757782 0.630683
26.424646 3.826977 -13.354122 0.053188 0.870507 -0.489273
18.674114 4.915909 -12.259256 0.053188 0.870507 -0.489273
19.378708 5.351484 -11.407694 0.053188 0.870507 -0.489273
5.286847 -11.926323 -1.918860 0.497627 -0.727377 0.472535
29.243021 3.681786 -3.135377 0.497627 -0.727377 0.472535
10.453859 -0.093205 10.854572 0.497627 -0.727377 0.472535
5.051982 -11.998919 -1.797208 0.497627 -0.727377 0.472535
-25.480419 2.955797 -13.354122 -0.250558 -0.705273 -0.663183
0.354687 -4.303767 -15.300550 -0.250558 -0.705273 -0.663183
-2.463684 -11.055178 -7.149884 -0.250558 -0.705273 -0.663183
-29.473116 3.318773 -12.137604 -0.250558 -0.705273 -0.663183
-9.039898 -0.093217 10.854572 -0.559352 -0.379198 0.737112
-8.335305 0.995720 11.949438 -0.559352 -0.379198 0.737112
-22.427179 3.100990 2.338951 -0.559352 -0.379198 0.737112
18.674114 4.915909 -12.259256 -0.010626 0.670365 -0.741956
26.424646 3.826977 -13.354122 -0.010626 0.670365 -0.741956
-17.964754 4.335121 -12.259256 -0.010626 0.670365 -0.741956
18.204386 5.424080 -9.217964 0.065155 0.996623 0.049972
14.916283 5.351483 -7.149884 0.065155 0.996623 0.049972
15.620876 4.915908 4.285378 0.065155 0.996623 0.049972
23.371405 4.335146 2.095648 0.065155 0.996623 0.049972
10.453859 -0.093205 10.854572 0.188690 -0.743030 0.642108
7.635484 1.503901 13.530909 0.188690 -0.743030 0.642108
0.824412 1.140917 15.112381 0.188690 -0.743030 0.642108
5.051982 -11.998919 -1.797208 0.143285 -0.849861 0.507155
-2.463683 -12.361902 -0.459039 0.143285 -0.849861 0.507155
-2.698548 -13.087861 -1.432253 0.143285 -0.849861 0.507155
5.286846 -12.507089 -2.892074 0.143285 -0.849861 0.507155
-13.972055 5.061082 -7.149884 -0.011030 0.999089 0.041227
-14.676649 4.552910 4.285378 -0.011030 0.999089 0.041227
15.620876 4.915908 4.285378 -0.011030 0.999089 0.041227
14.916283 5.351483 -7.149884 -0.011030 0.999089 0.041227
-2.463684 -11.055178 -7.149884 -0.337502 -0.804040 -0.489502
-4.577465 -10.982584 -5.811715 -0.337502 -0.804040 -0.489502
-29.473116 3.318773 -12.137604 -0.337502 -0.804040 -0.489502
26.424646 3.826977 -13.354122 -0.011042 0.657897 -0.753027
-25.480419 2.955797 -13.354122 -0.011042 0.657897 -0.753027
-17.964754 4.335121 -12.259256 -0.011042 0.657897 -0.753027
29.243021 3.681786 -3.135377 0.541611 -0.629008 0.557680
23.606272 3.681784 2.338951 0.541611 -0.629008 0.557680
10.453859 -0.093205 10.854572 0.541611 -0.629008 0.557680
26.424646 3.826977 -13.354122 -0.006546 0.390014 -0.920786
0.824414 -2.634064 -15.908808 -0.006546 0.390014 -0.920786
-25.480419 2.955797 -13.354122 -0.006546 0.390014 -0.920786
7.635484 1.721687 13.530909 -0.000001 0.938705 0.344722
-6.456389 1.721679 13.530909 -0.000001 0.938705 0.344722
0.824412 1.140917 15.112381 -0.000001 0.938705 0.344722
-2.698548 -13.087861 -1.432253 -0.468257 -0.716896 0.516523
-2.463683 -12.361902 -0.459039 -0.468257 -0.716896 0.516523
-9.039898 -0.093217 10.854572 -0.468257 -0.716896 0.516523
-28.533657 2.738008 -3.135377 -0.468257 -0.716896 0.516523
23.606272 3.681784 2.338951 0.576812 -0.272548 0.770068
7.635484 1.503901 13.530909 0.576812 -0.272548 0.770068
10.453859 -0.093205 10.854572 0.576812 -0.272548 0.770068
0.354687 -4.303767 -15.300550 -0.099616 -0.749090 -0.654936
0.824415 -3.940788 -15.787157 -0.099616 -0.749090 -0.654936
-2.463684 -11.055178 -7.149884 -0.099616 -0.749090 -0.654936
0.824414 -2.634064 -15.908808 -0.096664 -0.000000 -0.995317
0.824415 -3.360022 -15.908808 -0.096664 -0.000000 -0.995317
-25.480419 2.955797 -13.354122 -0.096664 -0.000000 -0.995317
-14.676649 4.552910 4.285378 -0.227390 0.855990 0.464301
-22.427179 3.681757 2.095648 -0.227390 0.855990 0.464301
-6.456389 1.721679 13.530909 -0.227390 0.855990 0.464301
14.916283 5.351483 -7.149884 -0.010050 0.999767 0.019116
18.204386 5.424080 -9.217964 -0.010050 0.999767 0.019116
-13.972055 5.061082 -7.149884 -0.010050 0.999767 0.019116
-22.427179 3.100990 2.338951 -0.542139 0.244904 0.803808
-6.456389 1.503891 13.530909 -0.542139 0.244904 0.803808
-6.456389 1.721679 13.530909 -0.542139 0.244904 0.803808
-22.427179 3.681757 2.095648 -0.542139 0.244904 0.803808
0.824415 -3.360022 -15.908808 -0.142802 -0.202915 -0.968727
0.824415 -3.940788 -15.787157 -0.142802 -0.202915 -0.968727
-25.480419 2.955797 -13.354122 -0.142802 -0.202915 -0.968727
0.824415 -3.940788 -15.787157 -0.023710 -0.767206 -0.640962
0.824416 -4.448958 -15.178898 -0.023710 -0.767206 -0.640962
-2.463684 -11.055178 -7.149884 -0.023710 -0.767206 -0.640962
23.606272 3.681784 2.338951 0.506624 0.355909 0.785278
23.371405 4.335146 2.095648 0.506624 0.355909 0.785278
7.635484 1.721687 13.530909 0.506624 0.355909 0.785278
7.635484 1.503901 13.530909 0.506624 0.355909 0.785278
-29.473116 3.318773 -12.137604 -0.501529 -0.862504 -0.067497
-4.577465 -10.982584 -5.811715 -0.501529 -0.862504 -0.067497
-2.698548 -13.087861 -1.432253 -0.501529 -0.862504 -0.067497
-28.533657 2.738008 -3.135377 -0.501529 -0.862504 -0.067497
0.824415 -3.940788 -15.787157 0.274141 -0.703423 -0.655776
26.424646 3.826977 -13.354122 0.274141 -0.703423 -0.655776
30.417343 4.189959 -12.137604 0.274141 -0.703423 -0.655776
3.173064 -10.111429 -8.123098 0.274141 -0.703423 -0.655776
0.824416 -4.448958 -15.178898 0.021191 -0.776276 -0.630037
3.173064 -10.111429 -8.123098 0.021191 -0.776276 -0.630037
-2.463684 -11.055178 -7.149884 0.021191 -0.776276 -0.630037
18.204386 5.424080 -9.217964 -0.010302 0.999831 0.015209
-17.025297 5.061080 -9.217964 -0.010302 0.999831 0.015209
-13.972055 5.061082 -7.149884 -0.010302 0.999831 0.015209
0.824415 -3.940788 -15.787157 -0.237945 -0.654339 -0.717790
0.354687 -4.303767 -15.300550 -0.237945 -0.654339 -0.717790
-25.480419 2.955797 -13.354122 -0.237945 -0.654339 -0.717790
0.824415 -3.360022 -15.908808 0.153391 -0.202591 -0.967175
26.424646 3.826977 -13.354122 0.153391 -0.202591 -0.967175
0.824415 -3.940788 -15.787157 0.153391 -0.202591 -0.967175
0.824416 -4.448958 -15.178898 0.075685 -0.765221 -0.639303
0.824415 -3.940788 -15.787157 0.075685 -0.765221 -0.639303
3.173064 -10.111429 -8.123098 0.075685 -0.765221 -0.639303
7.635484 1.721687 13.530909 -0.000001 0.945181 0.326548
15.620876 4.915908 4.285378 -0.000001 0.945181 0.326548
-6.456389 1.721679 13.530909 -0.000001 0.945181 0.326548
-4.577465 -10.982584 -5.811715 -0.242600 -0.910892 -0.333798
-2.463684 -11.055178 -7.149884 -0.242600 -0.910892 -0.333798
-2.698548 -13.087861 -1.432253 -0.242600 -0.910892 -0.333798
23.371405 4.335146 2.095648 0.196687 0.861774 0.467612
15.620876 4.915908 4.285378 0.196687 0.861774 0.467612
7.635484 1.721687 13.530909 0.196687 0.861774 0.467612
-17.025297 5.061080 -9.217964 -0.101802 0.993278 0.055086
-22.427179 3.681757 2.095648 -0.101802 0.993278 0.055086
-14.676649 4.552910 4.285378 -0.101802 0.993278 0.055086
-13.972055 5.061082 -7.149884 -0.101802 0.993278 0.055086
0.824415 -3.360022 -15.908808 0.099298 0.000000 -0.995058
0.824414 -2.634064 -15.908808 0.099298 0.000000 -0.995058
26.424646 3.826977 -13.354122 0.099298 0.000000 -0.995058
19.378708 5.351484 -11.407694 -0.012877 0.996557 -0.081906
-18.434486 4.770696 -11.407694 -0.012877 0.996557 -0.081906
-17.025297 5.061080 -9.217964 -0.012877 0.996557 -0.081906
18.204386 5.424080 -9.217964 -0.012877 0.996557 -0.081906
15.620876 4.915908 4.285378 -0.011421 0.953222 0.302056
-14.676649 4.552910 4.285378 -0.011421 0.953222 0.302056
-6.456389 1.721679 13.530909 -0.011421 0.953222 0.302056
-2.463684 -11.055178 -7.149884 0.035581 -0.924318 -0.379960
3.173064 -10.111429 -8.123098 0.035581 -0.924318 -0.379960
5.286846 -12.507089 -2.892074 0.035581 -0.924318 -0.379960
-2.698548 -13.087861 -1.432253 0.035581 -0.924318 -0.379960
29.243021 3.681786 -3.135377 0.558771 -0.825701 0.077410
5.286847 -11.926323 -1.918860 0.558771 -0.825701 0.077410
5.286846 -12.507089 -2.892074 0.558771 -0.825701 0.077410
29.947615 3.826977 -11.894300 0.558771 -0.825701 0.077410
30.417343 4.189959 -12.137604 0.305918 -0.748082 -0.588886
5.756574 -9.821045 -7.149884 0.305918 -0.748082 -0.588886
3.173064 -10.111429 -8.123098 0.305918 -0.748082 -0.588886
-22.427179 3.100990 2.338951 -0.568229 -0.292554 0.769108
-8.335305 0.995720 11.949438 -0.568229 -0.292554 0.769108
-6.456389 1.503891 13.530909 -0.568229 -0.292554 0.769108
3.173064 -10.111429 -8.123098 0.277614 -0.826047 -0.490486
5.756574 -9.821045 -7.149884 0.277614 -0.826047 -0.490486
5.286846 -12.507089 -2.892074 0.277614 -0.826047 -0.490486
30.417343 4.189959 -12.137604 0.344358 -0.787863 -0.510578
29.947615 3.826977 -11.894300 0.344358 -0.787863 -0.510578
5.756574 -9.821045 -7.149884 0.344358 -0.787863 -0.510578
-8.335305 0.995720 11.949438 -0.516342 -0.417624 0.747651
-9.039898 -0.093217 10.854572 -0.516342 -0.417624 0.747651
-6.456389 1.503891 13.530909 -0.516342 -0.417624 0.747651
5.756574 -9.821045 -7.149884 0.362723 -0.805705 -0.468264
29.947615 3.826977 -11.894300 0.362723 -0.805705 -0.468264
5.286846 -12.507089 -2.892074 0.362723 -0.805705 -0.468264
26.424646 3.826977 -13.354122 0.061978 0.882262 -0.466662
19.378708 5.351484 -11.407694 0.061978 0.882262 -0.466662
30.417343 4.189959 -12.137604 0.061978 0.882262 -0.466662
-9.039898 -0.093217 10.854572 -0.228069 -0.723297 0.651787
-2.463683 -12.361902 -0.459039 -0.228069 -0.723297 0.651787
-6.456389 1.503891 13.530909 -0.228069 -0.723297 0.651787
30.417343 4.189959 -12.137604 0.109700 0.993197 0.039056
19.378708 5.351484 -11.407694 0.109700 0.993197 0.039056
18.204386 5.424080 -9.217964 0.109700 0.993197 0.039056
29.008156 3.972170 -3.378680 0.109700 0.993197 0.039056
-17.025297 5.061080 -9.217964 -0.145342 0.988063 0.051066
-28.298796 3.100986 -3.378680 -0.145342 0.988063 0.051066
-22.427179 3.681757 2.095648 -0.145342 0.988063 0.051066
18.674114 4.915909 -12.259256 -0.013901 0.890984 -0.453822
-17.964754 4.335121 -12.259256 -0.013901 0.890984 -0.453822
-18.434486 4.770696 -11.407694 -0.013901 0.890984 -0.453822
19.378708 5.351484 -11.407694 -0.013901 0.890984 -0.453822
-6.456389 1.721679 13.530909 -0.212262 0.000000 0.977213
-6.456389 1.503891 13.530909 -0.212262 0.000000 0.977213
0.824412 1.140917 15.112381 -0.212262 0.000000 0.977213
-6.456389 1.503891 13.530909 -0.180719 -0.723860 0.665859
-2.463683 -12.361902 -0.459039 -0.180719 -0.723860 0.665859
0.824412 1.140917 15.112381 -0.180719 -0.723860 0.665859
-18.434486 4.770696 -11.407694 -0.081853 0.868279 -0.489277
-17.964754 4.335121 -12.259256 -0.081853 0.868279 -0.489277
-29.473116 3.318773 -12.137604 -0.081853 0.868279 -0.489277
-28.533657 2.738008 -3.135377 -0.536667 -0.555152 0.635449
-9.039898 -0.093217 10.854572 -0.536667 -0.555152 0.635449
-22.427179 3.100990 2.338951 -0.536667 -0.555152 0.635449
-17.964754 4.335121 -12.259256 -0.080652 0.851162 -0.518670
-25.480419 2.955797 -13.354122 -0.080652 0.851162 -0.518670
-29.473116 3.318773 -12.137604 -0.080652 0.851162 -0.518670
29.947615 3.826977 -11.894300 0.623018 -0.781324 0.037166
30.417343 4.189959 -12.137604 0.623018 -0.781324 0.037166
29.243021 3.681786 -3.135377 0.623018 -0.781324 0.037166
3 0 1 2
3 3 4 5
3 6 7 8
3 9 10 11
3 12 13 14
3 15 16 17
3 18 19 20
3 21 22 23
3 24 25 26
3 27 28 29
3 30 31 32
4 33 34 35 36
3 37 38 39
4 40 41 42 43
4 44 45 46 47
3 48 49 50
3 51 52 53
4 54 55 56 57
3 58 59 60
4 61 62 63 64
4 65 66 67 68
3 69 70 71
3 72 73 74
3 75 76 77
3 78 79 80
3 81 82 83
4 84 85 86 87
3 88 89 90
3 91 92 93
3 94 95 96
3 97 98 99
3 100 101 102
4 103 104 105 106
3 107 108 109
3 110 111 112
4 113 114 115 116
4 117 118 119 120
4 121 122 123 124
3 125 126 127
3 128 129 130
3 131 132 133
3 134 135 136
3 137 138 139
3 140 141 142
3 143 144 145
3 146 147 148
4 149 150 151 152
3 153 154 155
4 156 157 158 159
3 160 161 162
4 163 164 165 166
4 167 168 169 170
3 171 172 173
3 174 175 176
3 177 178 179
3 180 181 182
3 183 184 185
3 186 187 188
3 189 190 191
3 192 193 194
4 195 196 197 198
3 199 200 201
4 202 203 204 205
3 206 207 208
3 209 210 211
3 212 213 214
3 215 216 217
3 218 219 220
3 221 222 223
