ply
format ascii 1.0
comment Created by Blender 2.69 (sub 0) - www.blender.org, source file: ''
element vertex 12
property float x
property float y
property float z
element face 13
property list uchar uint vertex_indices
end_header
-0.000002 3.075149 -1.000000
0.000002 3.075149 1.000000
1.000002 2.000002 0.999998
0.999998 2.000002 -1.000002
0.999997 0.000002 -1.000003
-1.000002 2.000002 -0.999998
-0.662208 2.991038 -0.307612
-0.999997 2.000002 1.000003
1.000002 0.000002 0.999998
-0.999998 0.000002 1.000002
-0.662209 2.991038 -0.629904
-1.000003 0.000002 -0.999997
4 0 1 2 3
4 4 5 0 3
3 1 6 7
4 8 2 7 9
4 5 7 6 10
4 4 3 2 8
3 10 0 5
3 0 10 6
4 9 11 4 8
4 11 9 7 5
3 2 1 7
3 6 1 0
3 4 11 5
