# Blender v2.69 (sub 0) OBJ File: ''
# www.blender.org
mtllib home_blender_ch.mtl
o home_blender_ch
v -0.999998 -1.000002 2.000002
v 0.000002 -1.000000 3.075149
v -0.000002 1.000000 3.075149
v -1.000002 0.999998 2.000002
v 0.999998 1.000002 0.000002
v 0.999997 1.000003 2.000002
v 1.000002 -0.999998 2.000002
v 1.000003 -0.999997 0.000002
v 0.662209 -0.629904 2.991038
v 0.662208 -0.307612 2.991038
v -0.999997 -1.000003 0.000002
v -1.000002 0.999998 0.000002
vn -0.732233 -0.000002 0.681054
vn 1.000000 0.000002 0.000000
vn 0.000000 0.000000 -1.000000
vn -1.000000 -0.000002 -0.000000
vn 0.946528 0.000002 0.322622
vn 0.000002 -1.000000 -0.000000
vn -0.000002 1.000000 0.000000
vn 0.126003 0.000000 0.992030
vn 0.695965 0.310817 0.647321
vn 0.479195 -0.756123 0.445701
vn 0.126008 0.000000 0.992029
usemtl None
s off
f 1//1 2//1 3//1 4//1
f 5//2 6//2 7//2 8//2
f 11//3 12//3 5//3 8//3
f 1//4 4//4 12//4 11//4
f 9//5 7//5 6//5 10//5
f 8//6 7//6 2//6 1//6 11//6
f 12//7 4//7 3//7 6//7 5//7
f 9//8 3//8 2//8
f 3//9 10//9 6//9
f 9//10 2//10 7//10
f 9//11 10//11 3//11
