ply
format ascii 1.0
comment Created by Blender 2.69 (sub 0) - www.blender.org, source file: ''
element vertex 437
property float x
property float y
property float z
property float nx
property float ny
property float nz
element face 396
property list uchar uint vertex_indices
end_header
0.898889 0.909091 0.000000 0.000000 0.000000 1.000000
1.010000 0.909091 0.000000 0.000000 0.000000 1.000000
1.010000 1.000000 0.000000 0.000000 0.000000 1.000000
0.898889 1.000000 0.000000 0.000000 0.000000 1.000000
0.898889 -1.000000 0.000000 0.000000 0.000000 1.000000
1.010000 -1.000000 0.000000 0.000000 0.000000 1.000000
1.010000 -0.909091 0.000000 0.000000 0.000000 1.000000
0.898889 -0.909091 0.000000 0.000000 0.000000 1.000000
1.010000 -0.818182 0.000000 0.000000 0.000000 1.000000
0.898889 -0.818182 0.000000 0.000000 0.000000 1.000000
1.010000 -0.727273 0.000000 0.000000 0.000000 1.000000
0.898889 -0.727273 0.000000 0.000000 0.000000 1.000000
1.010000 -0.636364 0.000000 0.000000 0.000000 1.000000
0.898889 -0.636364 0.000000 0.000000 0.000000 1.000000
1.010000 -0.545455 0.000000 0.000000 0.000000 1.000000
0.898889 -0.545455 0.000000 0.000000 0.000000 1.000000
1.010000 -0.454545 0.000000 0.000000 0.000000 1.000000
0.898889 -0.454545 0.000000 0.000000 0.000000 1.000000
1.010000 -0.363636 0.000000 0.000000 0.000000 1.000000
0.898889 -0.363636 0.000000 0.000000 0.000000 1.000000
1.010000 -0.272727 0.000000 0.000000 0.000000 1.000000
0.898889 -0.272727 0.000000 0.000000 0.000000 1.000000
1.010000 -0.181818 0.000000 0.000000 0.000000 1.000000
0.898889 -0.181818 0.000000 0.000000 0.000000 1.000000
1.010000 -0.090909 0.000000 0.000000 0.000000 1.000000
0.898889 -0.090909 0.000000 0.000000 0.000000 1.000000
1.010000 0.000000 0.000000 0.000000 0.000000 1.000000
0.898889 0.000000 0.000000 0.000000 0.000000 1.000000
1.010000 0.090909 0.000000 0.000000 0.000000 1.000000
0.898889 0.090909 0.000000 0.000000 0.000000 1.000000
1.010000 0.181818 0.000000 0.000000 0.000000 1.000000
0.898889 0.181818 0.000000 0.000000 0.000000 1.000000
1.010000 0.272727 0.000000 0.000000 0.000000 1.000000
0.898889 0.272727 0.000000 0.000000 0.000000 1.000000
1.010000 0.363636 0.000000 0.000000 0.000000 1.000000
0.898889 0.363636 0.000000 0.000000 0.000000 1.000000
1.010000 0.454545 0.000000 0.000000 0.000000 1.000000
0.898889 0.454545 0.000000 0.000000 0.000000 1.000000
1.010000 0.545455 0.000000 0.000000 0.000000 1.000000
0.898889 0.545455 0.000000 0.000000 0.000000 1.000000
1.010000 0.636364 0.000000 0.000000 0.000000 1.000000
0.898889 0.636364 0.000000 0.000000 0.000000 1.000000
1.010000 0.727273 0.000000 0.000000 0.000000 1.000000
0.898889 0.727273 0.000000 0.000000 0.000000 1.000000
1.010000 0.818182 0.000000 0.000000 0.000000 1.000000
0.898889 0.818182 0.000000 0.000000 0.000000 1.000000
-0.990000 0.909091 0.000000 0.000000 0.000000 1.000000
-0.878889 0.909091 0.000000 0.000000 0.000000 1.000000
-0.878889 1.000000 0.000000 0.000000 0.000000 1.000000
-0.990000 1.000000 0.000000 0.000000 0.000000 1.000000
-0.767778 0.909091 0.000000 0.000000 0.000000 1.000000
-0.767778 1.000000 0.000000 0.000000 0.000000 1.000000
-0.656667 0.909091 0.000000 0.000000 0.000000 1.000000
-0.656667 1.000000 0.000000 0.000000 0.000000 1.000000
-0.545556 0.909091 0.000000 0.000000 0.000000 1.000000
-0.545556 1.000000 0.000000 0.000000 0.000000 1.000000
-0.434444 0.909091 0.000000 0.000000 0.000000 1.000000
-0.434444 1.000000 0.000000 0.000000 0.000000 1.000000
-0.323333 0.909091 0.000000 0.000000 0.000000 1.000000
-0.323333 1.000000 0.000000 0.000000 0.000000 1.000000
-0.212222 0.909091 0.000000 0.000000 0.000000 1.000000
-0.212222 1.000000 0.000000 0.000000 0.000000 1.000000
-0.101111 0.909091 0.000000 0.000000 0.000000 1.000000
-0.101111 1.000000 0.000000 0.000000 0.000000 1.000000
0.010000 0.909091 0.000000 0.000000 0.000000 1.000000
0.010000 1.000000 0.000000 0.000000 0.000000 1.000000
0.121111 0.909091 0.000000 0.000000 0.000000 1.000000
0.121111 1.000000 0.000000 0.000000 0.000000 1.000000
0.232222 0.909091 0.000000 0.000000 0.000000 1.000000
0.232222 1.000000 0.000000 0.000000 0.000000 1.000000
0.343333 0.909091 0.000000 0.000000 0.000000 1.000000
0.343333 1.000000 0.000000 0.000000 0.000000 1.000000
0.454444 0.909091 0.000000 0.000000 0.000000 1.000000
0.454444 1.000000 0.000000 0.000000 0.000000 1.000000
0.565556 0.909091 0.000000 0.000000 0.000000 1.000000
0.565556 1.000000 0.000000 0.000000 0.000000 1.000000
0.676667 0.909091 0.000000 0.000000 0.000000 1.000000
0.676667 1.000000 0.000000 0.000000 0.000000 1.000000
0.787778 0.909091 0.000000 0.000000 0.000000 1.000000
0.787778 1.000000 0.000000 0.000000 0.000000 1.000000
-0.990000 -1.000000 0.000000 0.000000 0.000000 1.000000
-0.878889 -1.000000 0.000000 0.000000 0.000000 1.000000
-0.878889 -0.909091 0.000000 0.000000 0.000000 1.000000
-0.990000 -0.909091 0.000000 0.000000 0.000000 1.000000
-0.767778 -1.000000 0.000000 0.000000 0.000000 1.000000
-0.767778 -0.909091 0.000000 0.000000 0.000000 1.000000
-0.656667 -1.000000 0.000000 0.000000 0.000000 1.000000
-0.656667 -0.909091 0.000000 0.000000 0.000000 1.000000
-0.545556 -1.000000 0.000000 0.000000 0.000000 1.000000
-0.545556 -0.909091 0.000000 0.000000 0.000000 1.000000
-0.434444 -1.000000 0.000000 0.000000 0.000000 1.000000
-0.434444 -0.909091 0.000000 0.000000 0.000000 1.000000
-0.323333 -1.000000 0.000000 0.000000 0.000000 1.000000
-0.323333 -0.909091 0.000000 0.000000 0.000000 1.000000
-0.212222 -1.000000 0.000000 0.000000 0.000000 1.000000
-0.212222 -0.909091 0.000000 0.000000 0.000000 1.000000
-0.101111 -1.000000 0.000000 0.000000 0.000000 1.000000
-0.101111 -0.909091 0.000000 0.000000 0.000000 1.000000
0.010000 -1.000000 0.000000 0.000000 0.000000 1.000000
0.010000 -0.909091 0.000000 0.000000 0.000000 1.000000
0.121111 -1.000000 0.000000 0.000000 0.000000 1.000000
0.121111 -0.909091 0.000000 0.000000 0.000000 1.000000
0.232222 -1.000000 0.000000 0.000000 0.000000 1.000000
0.232222 -0.909091 0.000000 0.000000 0.000000 1.000000
0.343333 -1.000000 0.000000 0.000000 0.000000 1.000000
0.343333 -0.909091 0.000000 0.000000 0.000000 1.000000
0.454444 -1.000000 0.000000 0.000000 0.000000 1.000000
0.454444 -0.909091 0.000000 0.000000 0.000000 1.000000
0.565556 -1.000000 0.000000 0.000000 0.000000 1.000000
0.565556 -0.909091 0.000000 0.000000 0.000000 1.000000
0.676667 -1.000000 0.000000 0.000000 0.000000 1.000000
0.676667 -0.909091 0.000000 0.000000 0.000000 1.000000
0.787778 -1.000000 0.000000 0.000000 0.000000 1.000000
0.787778 -0.909091 0.000000 0.000000 0.000000 1.000000
-0.878889 -0.818182 0.000000 0.000000 0.000000 1.000000
-0.990000 -0.818182 0.000000 0.000000 0.000000 1.000000
-0.767778 -0.818182 0.000000 0.000000 0.000000 1.000000
-0.656667 -0.818182 0.000000 0.000000 0.000000 1.000000
-0.545556 -0.818182 0.000000 0.000000 0.000000 1.000000
-0.434444 -0.818182 0.000000 0.000000 0.000000 1.000000
-0.323333 -0.818182 0.000000 0.000000 0.000000 1.000000
-0.212222 -0.818182 0.000000 0.000000 0.000000 1.000000
-0.101111 -0.818182 0.000000 0.000000 0.000000 1.000000
0.010000 -0.818182 0.000000 0.000000 0.000000 1.000000
0.121111 -0.818182 0.000000 0.000000 0.000000 1.000000
0.232222 -0.818182 0.000000 0.000000 0.000000 1.000000
0.343333 -0.818182 0.000000 0.000000 0.000000 1.000000
0.454444 -0.818182 0.000000 0.000000 0.000000 1.000000
0.565556 -0.818182 0.000000 0.000000 0.000000 1.000000
0.676667 -0.818182 0.000000 0.000000 0.000000 1.000000
0.787778 -0.818182 0.000000 0.000000 0.000000 1.000000
-0.878889 -0.727273 0.000000 0.000000 0.000000 1.000000
-0.990000 -0.727273 0.000000 0.000000 0.000000 1.000000
-0.767778 -0.727273 0.000000 0.000000 0.000000 1.000000
-0.656667 -0.727273 0.000000 0.000000 0.000000 1.000000
-0.545556 -0.727273 0.000000 0.000000 0.000000 1.000000
-0.434444 -0.727273 0.000000 0.000000 0.000000 1.000000
-0.323333 -0.727273 0.000000 0.000000 0.000000 1.000000
-0.212222 -0.727273 0.000000 0.000000 0.000000 1.000000
-0.101111 -0.727273 0.000000 0.000000 0.000000 1.000000
0.010000 -0.727273 0.000000 0.000000 0.000000 1.000000
0.121111 -0.727273 0.000000 0.000000 0.000000 1.000000
0.232222 -0.727273 0.000000 0.000000 0.000000 1.000000
0.343333 -0.727273 0.000000 0.000000 0.000000 1.000000
0.454444 -0.727273 0.000000 0.000000 0.000000 1.000000
0.565556 -0.727273 0.000000 0.000000 0.000000 1.000000
0.676667 -0.727273 0.000000 0.000000 0.000000 1.000000
0.787778 -0.727273 0.000000 0.000000 0.000000 1.000000
-0.878889 -0.636364 0.000000 0.000000 0.000000 1.000000
-0.990000 -0.636364 0.000000 0.000000 0.000000 1.000000
-0.767778 -0.636364 0.000000 0.000000 0.000000 1.000000
-0.656667 -0.636364 0.000000 0.000000 0.000000 1.000000
-0.545556 -0.636364 0.000000 0.000000 0.000000 1.000000
-0.434444 -0.636364 0.000000 0.000000 0.000000 1.000000
-0.323333 -0.636364 0.000000 0.000000 0.000000 1.000000
-0.212222 -0.636364 0.000000 0.000000 0.000000 1.000000
-0.101111 -0.636364 0.000000 0.000000 0.000000 1.000000
0.010000 -0.636364 0.000000 0.000000 0.000000 1.000000
0.121111 -0.636364 0.000000 0.000000 0.000000 1.000000
0.232222 -0.636364 0.000000 0.000000 0.000000 1.000000
0.343333 -0.636364 0.000000 0.000000 0.000000 1.000000
0.454444 -0.636364 0.000000 0.000000 0.000000 1.000000
0.565556 -0.636364 0.000000 0.000000 0.000000 1.000000
0.676667 -0.636364 0.000000 0.000000 0.000000 1.000000
0.787778 -0.636364 0.000000 0.000000 0.000000 1.000000
-0.878889 -0.545455 0.000000 0.000000 0.000000 1.000000
-0.990000 -0.545455 0.000000 0.000000 0.000000 1.000000
-0.767778 -0.545455 0.000000 0.000000 0.000000 1.000000
-0.656667 -0.545455 0.000000 0.000000 0.000000 1.000000
-0.545556 -0.545455 0.000000 0.000000 0.000000 1.000000
-0.434444 -0.545455 0.000000 0.000000 0.000000 1.000000
-0.323333 -0.545455 0.000000 0.000000 0.000000 1.000000
-0.212222 -0.545455 0.000000 0.000000 0.000000 1.000000
-0.101111 -0.545455 0.000000 0.000000 0.000000 1.000000
0.010000 -0.545455 0.000000 0.000000 0.000000 1.000000
0.121111 -0.545455 0.000000 0.000000 0.000000 1.000000
0.232222 -0.545455 0.000000 0.000000 0.000000 1.000000
0.343333 -0.545455 0.000000 0.000000 0.000000 1.000000
0.454444 -0.545455 0.000000 0.000000 0.000000 1.000000
0.565556 -0.545455 0.000000 0.000000 0.000000 1.000000
0.676667 -0.545455 0.000000 0.000000 0.000000 1.000000
0.787778 -0.545455 0.000000 0.000000 0.000000 1.000000
-0.878889 -0.454545 0.000000 0.000000 0.000000 1.000000
-0.990000 -0.454545 0.000000 0.000000 0.000000 1.000000
-0.767778 -0.454545 0.000000 0.000000 0.000000 1.000000
-0.656667 -0.454545 0.000000 0.000000 0.000000 1.000000
-0.545556 -0.454545 0.000000 0.000000 0.000000 1.000000
-0.434444 -0.454545 0.000000 0.000000 0.000000 1.000000
-0.323333 -0.454545 0.000000 0.000000 0.000000 1.000000
-0.212222 -0.454545 0.000000 0.000000 0.000000 1.000000
-0.101111 -0.454545 0.000000 0.000000 0.000000 1.000000
0.010000 -0.454545 0.000000 0.000000 0.000000 1.000000
0.121111 -0.454545 0.000000 0.000000 0.000000 1.000000
0.232222 -0.454545 0.000000 0.000000 0.000000 1.000000
0.343333 -0.454545 0.000000 0.000000 0.000000 1.000000
0.454444 -0.454545 0.000000 0.000000 0.000000 1.000000
0.565556 -0.454545 0.000000 0.000000 0.000000 1.000000
0.676667 -0.454545 0.000000 0.000000 0.000000 1.000000
0.787778 -0.454545 0.000000 0.000000 0.000000 1.000000
-0.878889 -0.363636 0.000000 0.000000 0.000000 1.000000
-0.990000 -0.363636 0.000000 0.000000 0.000000 1.000000
-0.767778 -0.363636 0.000000 0.000000 0.000000 1.000000
-0.656667 -0.363636 0.000000 0.000000 0.000000 1.000000
-0.545556 -0.363636 0.000000 0.000000 0.000000 1.000000
-0.434444 -0.363636 0.000000 0.000000 0.000000 1.000000
-0.323333 -0.363636 0.000000 0.000000 0.000000 1.000000
-0.212222 -0.363636 0.000000 0.000000 0.000000 1.000000
-0.101111 -0.363636 0.000000 0.000000 0.000000 1.000000
0.010000 -0.363636 0.000000 0.000000 0.000000 1.000000
0.121111 -0.363636 0.000000 0.000000 0.000000 1.000000
0.232222 -0.363636 0.000000 0.000000 0.000000 1.000000
0.343333 -0.363636 0.000000 0.000000 0.000000 1.000000
0.454444 -0.363636 0.000000 0.000000 0.000000 1.000000
0.565556 -0.363636 0.000000 0.000000 0.000000 1.000000
0.676667 -0.363636 0.000000 0.000000 0.000000 1.000000
0.787778 -0.363636 0.000000 0.000000 0.000000 1.000000
-0.878889 -0.272727 0.000000 0.000000 0.000000 1.000000
-0.990000 -0.272727 0.000000 0.000000 0.000000 1.000000
-0.767778 -0.272727 0.000000 0.000000 0.000000 1.000000
-0.656667 -0.272727 0.000000 0.000000 0.000000 1.000000
-0.545556 -0.272727 0.000000 0.000000 0.000000 1.000000
-0.434444 -0.272727 0.000000 0.000000 0.000000 1.000000
-0.323333 -0.272727 0.000000 0.000000 0.000000 1.000000
-0.212222 -0.272727 0.000000 0.000000 0.000000 1.000000
-0.101111 -0.272727 0.000000 0.000000 0.000000 1.000000
0.010000 -0.272727 0.000000 0.000000 0.000000 1.000000
0.121111 -0.272727 0.000000 0.000000 0.000000 1.000000
0.232222 -0.272727 0.000000 0.000000 0.000000 1.000000
0.343333 -0.272727 0.000000 0.000000 0.000000 1.000000
0.454444 -0.272727 0.000000 0.000000 0.000000 1.000000
0.565556 -0.272727 0.000000 0.000000 0.000000 1.000000
0.676667 -0.272727 0.000000 0.000000 0.000000 1.000000
0.787778 -0.272727 0.000000 0.000000 0.000000 1.000000
-0.878889 -0.181818 0.000000 0.000000 0.000000 1.000000
-0.990000 -0.181818 0.000000 0.000000 0.000000 1.000000
-0.767778 -0.181818 0.000000 0.000000 0.000000 1.000000
-0.656667 -0.181818 0.000000 0.000000 0.000000 1.000000
-0.545556 -0.181818 0.000000 0.000000 0.000000 1.000000
-0.434444 -0.181818 0.000000 0.000000 0.000000 1.000000
-0.323333 -0.181818 0.000000 0.000000 0.000000 1.000000
-0.212222 -0.181818 0.000000 0.000000 0.000000 1.000000
-0.101111 -0.181818 0.000000 0.000000 0.000000 1.000000
0.010000 -0.181818 0.000000 0.000000 0.000000 1.000000
0.121111 -0.181818 0.000000 0.000000 0.000000 1.000000
0.232222 -0.181818 0.000000 0.000000 0.000000 1.000000
0.343333 -0.181818 0.000000 0.000000 0.000000 1.000000
0.454444 -0.181818 0.000000 0.000000 0.000000 1.000000
0.565556 -0.181818 0.000000 0.000000 0.000000 1.000000
0.676667 -0.181818 0.000000 0.000000 0.000000 1.000000
0.787778 -0.181818 0.000000 0.000000 0.000000 1.000000
-0.878889 -0.090909 0.000000 0.000000 0.000000 1.000000
-0.990000 -0.090909 0.000000 0.000000 0.000000 1.000000
-0.767778 -0.090909 0.000000 0.000000 0.000000 1.000000
-0.656667 -0.090909 0.000000 0.000000 0.000000 1.000000
-0.545556 -0.090909 0.000000 0.000000 0.000000 1.000000
-0.434444 -0.090909 0.000000 0.000000 0.000000 1.000000
-0.323333 -0.090909 0.000000 0.000000 0.000000 1.000000
-0.212222 -0.090909 0.000000 0.000000 0.000000 1.000000
-0.101111 -0.090909 0.000000 0.000000 0.000000 1.000000
0.010000 -0.090909 0.000000 0.000000 0.000000 1.000000
0.121111 -0.090909 0.000000 0.000000 0.000000 1.000000
0.232222 -0.090909 0.000000 0.000000 0.000000 1.000000
0.343333 -0.090909 0.000000 0.000000 0.000000 1.000000
0.454444 -0.090909 0.000000 0.000000 0.000000 1.000000
0.565556 -0.090909 0.000000 0.000000 0.000000 1.000000
0.676667 -0.090909 0.000000 0.000000 0.000000 1.000000
0.787778 -0.090909 0.000000 0.000000 0.000000 1.000000
-0.878889 -0.000000 0.000000 0.000000 0.000000 1.000000
-0.990000 -0.000000 0.000000 0.000000 0.000000 1.000000
-0.767778 -0.000000 0.000000 0.000000 0.000000 1.000000
-0.656667 -0.000000 0.000000 0.000000 0.000000 1.000000
-0.545556 -0.000000 0.000000 0.000000 0.000000 1.000000
-0.434444 -0.000000 0.000000 0.000000 0.000000 1.000000
-0.323333 -0.000000 0.000000 0.000000 0.000000 1.000000
-0.212222 -0.000000 0.000000 0.000000 0.000000 1.000000
-0.101111 -0.000000 0.000000 0.000000 0.000000 1.000000
0.010000 0.000000 0.000000 0.000000 0.000000 1.000000
0.121111 0.000000 0.000000 0.000000 0.000000 1.000000
0.232222 0.000000 0.000000 0.000000 0.000000 1.000000
0.343333 0.000000 0.000000 0.000000 0.000000 1.000000
0.454444 0.000000 0.000000 0.000000 0.000000 1.000000
0.565556 0.000000 0.000000 0.000000 0.000000 1.000000
0.676667 0.000000 0.000000 0.000000 0.000000 1.000000
0.787778 0.000000 0.000000 0.000000 0.000000 1.000000
-0.878889 0.090909 0.000000 0.000000 0.000000 1.000000
-0.990000 0.090909 0.000000 0.000000 0.000000 1.000000
-0.767778 0.090909 0.000000 0.000000 0.000000 1.000000
-0.656667 0.090909 0.000000 0.000000 0.000000 1.000000
-0.545556 0.090909 0.000000 0.000000 0.000000 1.000000
-0.434444 0.090909 0.000000 0.000000 0.000000 1.000000
-0.323333 0.090909 0.000000 0.000000 0.000000 1.000000
-0.212222 0.090909 0.000000 0.000000 0.000000 1.000000
-0.101111 0.090909 0.000000 0.000000 0.000000 1.000000
0.010000 0.090909 0.000000 0.000000 0.000000 1.000000
0.121111 0.090909 0.000000 0.000000 0.000000 1.000000
0.232222 0.090909 0.000000 0.000000 0.000000 1.000000
0.343333 0.090909 0.000000 0.000000 0.000000 1.000000
0.454444 0.090909 0.000000 0.000000 0.000000 1.000000
0.565556 0.090909 0.000000 0.000000 0.000000 1.000000
0.676667 0.090909 0.000000 0.000000 0.000000 1.000000
0.787778 0.090909 0.000000 0.000000 0.000000 1.000000
-0.878889 0.181818 0.000000 0.000000 0.000000 1.000000
-0.990000 0.181818 0.000000 0.000000 0.000000 1.000000
-0.767778 0.181818 0.000000 0.000000 0.000000 1.000000
-0.656667 0.181818 0.000000 0.000000 0.000000 1.000000
-0.545556 0.181818 0.000000 0.000000 0.000000 1.000000
-0.434444 0.181818 0.000000 0.000000 0.000000 1.000000
-0.323333 0.181818 0.000000 0.000000 0.000000 1.000000
-0.212222 0.181818 0.000000 0.000000 0.000000 1.000000
-0.101111 0.181818 0.000000 0.000000 0.000000 1.000000
0.010000 0.181818 0.000000 0.000000 0.000000 1.000000
0.121111 0.181818 0.000000 0.000000 0.000000 1.000000
0.232222 0.181818 0.000000 0.000000 0.000000 1.000000
0.343333 0.181818 0.000000 0.000000 0.000000 1.000000
0.454444 0.181818 0.000000 0.000000 0.000000 1.000000
0.565556 0.181818 0.000000 0.000000 0.000000 1.000000
0.676667 0.181818 0.000000 0.000000 0.000000 1.000000
0.787778 0.181818 0.000000 0.000000 0.000000 1.000000
-0.878889 0.272727 0.000000 0.000000 0.000000 1.000000
-0.990000 0.272727 0.000000 0.000000 0.000000 1.000000
-0.767778 0.272727 0.000000 0.000000 0.000000 1.000000
-0.656667 0.272727 0.000000 0.000000 0.000000 1.000000
-0.545556 0.272727 0.000000 0.000000 0.000000 1.000000
-0.434444 0.272727 0.000000 0.000000 0.000000 1.000000
-0.323333 0.272727 0.000000 0.000000 0.000000 1.000000
-0.212222 0.272727 0.000000 0.000000 0.000000 1.000000
-0.101111 0.272727 0.000000 0.000000 0.000000 1.000000
0.010000 0.272727 0.000000 0.000000 0.000000 1.000000
0.121111 0.272727 0.000000 0.000000 0.000000 1.000000
0.232222 0.272727 0.000000 0.000000 0.000000 1.000000
0.343333 0.272727 0.000000 0.000000 0.000000 1.000000
0.454444 0.272727 0.000000 0.000000 0.000000 1.000000
0.565556 0.272727 0.000000 0.000000 0.000000 1.000000
0.676667 0.272727 0.000000 0.000000 0.000000 1.000000
0.787778 0.272727 0.000000 0.000000 0.000000 1.000000
-0.878889 0.363636 0.000000 0.000000 0.000000 1.000000
-0.990000 0.363636 0.000000 0.000000 0.000000 1.000000
-0.767778 0.363636 0.000000 0.000000 0.000000 1.000000
-0.656667 0.363636 0.000000 0.000000 0.000000 1.000000
-0.545556 0.363636 0.000000 0.000000 0.000000 1.000000
-0.434444 0.363636 0.000000 0.000000 0.000000 1.000000
-0.323333 0.363636 0.000000 0.000000 0.000000 1.000000
-0.212222 0.363636 0.000000 0.000000 0.000000 1.000000
-0.101111 0.363636 0.000000 0.000000 0.000000 1.000000
0.010000 0.363636 0.000000 0.000000 0.000000 1.000000
0.121111 0.363636 0.000000 0.000000 0.000000 1.000000
0.232222 0.363636 0.000000 0.000000 0.000000 1.000000
0.343333 0.363636 0.000000 0.000000 0.000000 1.000000
0.454444 0.363636 0.000000 0.000000 0.000000 1.000000
0.565556 0.363636 0.000000 0.000000 0.000000 1.000000
0.676667 0.363636 0.000000 0.000000 0.000000 1.000000
0.787778 0.363636 0.000000 0.000000 0.000000 1.000000
-0.878889 0.454545 0.000000 0.000000 0.000000 1.000000
-0.990000 0.454545 0.000000 0.000000 0.000000 1.000000
-0.767778 0.454545 0.000000 0.000000 0.000000 1.000000
-0.656667 0.454545 0.000000 0.000000 0.000000 1.000000
-0.545556 0.454545 0.000000 0.000000 0.000000 1.000000
-0.434444 0.454545 0.000000 0.000000 0.000000 1.000000
-0.323333 0.454545 0.000000 0.000000 0.000000 1.000000
-0.212222 0.454545 0.000000 0.000000 0.000000 1.000000
-0.101111 0.454545 0.000000 0.000000 0.000000 1.000000
0.010000 0.454545 0.000000 0.000000 0.000000 1.000000
0.121111 0.454545 0.000000 0.000000 0.000000 1.000000
0.232222 0.454545 0.000000 0.000000 0.000000 1.000000
0.343333 0.454545 0.000000 0.000000 0.000000 1.000000
0.454444 0.454545 0.000000 0.000000 0.000000 1.000000
0.565556 0.454545 0.000000 0.000000 0.000000 1.000000
0.676667 0.454545 0.000000 0.000000 0.000000 1.000000
0.787778 0.454545 0.000000 0.000000 0.000000 1.000000
-0.878889 0.545455 0.000000 0.000000 0.000000 1.000000
-0.990000 0.545455 0.000000 0.000000 0.000000 1.000000
-0.767778 0.545455 0.000000 0.000000 0.000000 1.000000
-0.656667 0.545455 0.000000 0.000000 0.000000 1.000000
-0.545556 0.545455 0.000000 0.000000 0.000000 1.000000
-0.434444 0.545455 0.000000 0.000000 0.000000 1.000000
-0.323333 0.545455 0.000000 0.000000 0.000000 1.000000
-0.212222 0.545455 0.000000 0.000000 0.000000 1.000000
-0.101111 0.545455 0.000000 0.000000 0.000000 1.000000
0.010000 0.545455 0.000000 0.000000 0.000000 1.000000
0.121111 0.545455 0.000000 0.000000 0.000000 1.000000
0.232222 0.545455 0.000000 0.000000 0.000000 1.000000
0.343333 0.545455 0.000000 0.000000 0.000000 1.000000
0.454444 0.545455 0.000000 0.000000 0.000000 1.000000
0.565556 0.545455 0.000000 0.000000 0.000000 1.000000
0.676667 0.545455 0.000000 0.000000 0.000000 1.000000
0.787778 0.545455 0.000000 0.000000 0.000000 1.000000
-0.878889 0.636364 0.000000 0.000000 0.000000 1.000000
-0.990000 0.636364 0.000000 0.000000 0.000000 1.000000
-0.767778 0.636364 0.000000 0.000000 0.000000 1.000000
-0.656667 0.636364 0.000000 0.000000 0.000000 1.000000
-0.545556 0.636364 0.000000 0.000000 0.000000 1.000000
-0.434444 0.636364 0.000000 0.000000 0.000000 1.000000
-0.323333 0.636364 0.000000 0.000000 0.000000 1.000000
-0.212222 0.636364 0.000000 0.000000 0.000000 1.000000
-0.101111 0.636364 0.000000 0.000000 0.000000 1.000000
0.010000 0.636364 0.000000 0.000000 0.000000 1.000000
0.121111 0.636364 0.000000 0.000000 0.000000 1.000000
0.232222 0.636364 0.000000 0.000000 0.000000 1.000000
0.343333 0.636364 0.000000 0.000000 0.000000 1.000000
0.454444 0.636364 0.000000 0.000000 0.000000 1.000000
0.565556 0.636364 0.000000 0.000000 0.000000 1.000000
0.676667 0.636364 0.000000 0.000000 0.000000 1.000000
0.787778 0.636364 0.000000 0.000000 0.000000 1.000000
-0.878889 0.727273 0.000000 0.000000 0.000000 1.000000
-0.990000 0.727273 0.000000 0.000000 0.000000 1.000000
-0.767778 0.727273 0.000000 0.000000 0.000000 1.000000
-0.656667 0.727273 0.000000 0.000000 0.000000 1.000000
-0.545556 0.727273 0.000000 0.000000 0.000000 1.000000
-0.434444 0.727273 0.000000 0.000000 0.000000 1.000000
-0.323333 0.727273 0.000000 0.000000 0.000000 1.000000
-0.212222 0.727273 0.000000 0.000000 0.000000 1.000000
-0.101111 0.727273 0.000000 0.000000 0.000000 1.000000
0.010000 0.727273 0.000000 0.000000 0.000000 1.000000
0.121111 0.727273 0.000000 0.000000 0.000000 1.000000
0.232222 0.727273 0.000000 0.000000 0.000000 1.000000
0.343333 0.727273 0.000000 0.000000 0.000000 1.000000
0.454444 0.727273 0.000000 0.000000 0.000000 1.000000
0.565556 0.727273 0.000000 0.000000 0.000000 1.000000
0.676667 0.727273 0.000000 0.000000 0.000000 1.000000
0.787778 0.727273 0.000000 0.000000 0.000000 1.000000
-0.878889 0.818182 0.000000 0.000000 0.000000 1.000000
-0.990000 0.818182 0.000000 0.000000 0.000000 1.000000
-0.767778 0.818182 0.000000 0.000000 0.000000 1.000000
-0.656667 0.818182 0.000000 0.000000 0.000000 1.000000
-0.545556 0.818182 0.000000 0.000000 0.000000 1.000000
-0.434444 0.818182 0.000000 0.000000 0.000000 1.000000
-0.323333 0.818182 0.000000 0.000000 0.000000 1.000000
-0.212222 0.818182 0.000000 0.000000 0.000000 1.000000
-0.101111 0.818182 0.000000 0.000000 0.000000 1.000000
0.010000 0.818182 0.000000 0.000000 0.000000 1.000000
0.121111 0.818182 0.000000 0.000000 0.000000 1.000000
0.232222 0.818182 0.000000 0.000000 0.000000 1.000000
0.343333 0.818182 0.000000 0.000000 0.000000 1.000000
0.454444 0.818182 0.000000 0.000000 0.000000 1.000000
0.565556 0.818182 0.000000 0.000000 0.000000 1.000000
0.676667 0.818182 0.000000 0.000000 0.000000 1.000000
0.787778 0.818182 0.000000 0.000000 0.000000 1.000000
4 0 1 2 3
4 4 5 6 7
4 7 6 8 9
4 9 8 10 11
4 11 10 12 13
4 13 12 14 15
4 15 14 16 17
4 17 16 18 19
4 19 18 20 21
4 21 20 22 23
4 23 22 24 25
4 25 24 26 27
4 27 26 28 29
4 29 28 30 31
4 31 30 32 33
4 33 32 34 35
4 35 34 36 37
4 37 36 38 39
4 39 38 40 41
4 41 40 42 43
4 43 42 44 45
4 45 44 1 0
4 46 47 48 49
4 47 50 51 48
4 50 52 53 51
4 52 54 55 53
4 54 56 57 55
4 56 58 59 57
4 58 60 61 59
4 60 62 63 61
4 62 64 65 63
4 64 66 67 65
4 66 68 69 67
4 68 70 71 69
4 70 72 73 71
4 72 74 75 73
4 74 76 77 75
4 76 78 79 77
4 78 0 3 79
4 80 81 82 83
4 81 84 85 82
4 84 86 87 85
4 86 88 89 87
4 88 90 91 89
4 90 92 93 91
4 92 94 95 93
4 94 96 97 95
4 96 98 99 97
4 98 100 101 99
4 100 102 103 101
4 102 104 105 103
4 104 106 107 105
4 106 108 109 107
4 108 110 111 109
4 110 112 113 111
4 112 4 7 113
4 83 82 114 115
4 82 85 116 114
4 85 87 117 116
4 87 89 118 117
4 89 91 119 118
4 91 93 120 119
4 93 95 121 120
4 95 97 122 121
4 97 99 123 122
4 99 101 124 123
4 101 103 125 124
4 103 105 126 125
4 105 107 127 126
4 107 109 128 127
4 109 111 129 128
4 111 113 130 129
4 113 7 9 130
4 115 114 131 132
4 114 116 133 131
4 116 117 134 133
4 117 118 135 134
4 118 119 136 135
4 119 120 137 136
4 120 121 138 137
4 121 122 139 138
4 122 123 140 139
4 123 124 141 140
4 124 125 142 141
4 125 126 143 142
4 126 127 144 143
4 127 128 145 144
4 128 129 146 145
4 129 130 147 146
4 130 9 11 147
4 132 131 148 149
4 131 133 150 148
4 133 134 151 150
4 134 135 152 151
4 135 136 153 152
4 136 137 154 153
4 137 138 155 154
4 138 139 156 155
4 139 140 157 156
4 140 141 158 157
4 141 142 159 158
4 142 143 160 159
4 143 144 161 160
4 144 145 162 161
4 145 146 163 162
4 146 147 164 163
4 147 11 13 164
4 149 148 165 166
4 148 150 167 165
4 150 151 168 167
4 151 152 169 168
4 152 153 170 169
4 153 154 171 170
4 154 155 172 171
4 155 156 173 172
4 156 157 174 173
4 157 158 175 174
4 158 159 176 175
4 159 160 177 176
4 160 161 178 177
4 161 162 179 178
4 162 163 180 179
4 163 164 181 180
4 164 13 15 181
4 166 165 182 183
4 165 167 184 182
4 167 168 185 184
4 168 169 186 185
4 169 170 187 186
4 170 171 188 187
4 171 172 189 188
4 172 173 190 189
4 173 174 191 190
4 174 175 192 191
4 175 176 193 192
4 176 177 194 193
4 177 178 195 194
4 178 179 196 195
4 179 180 197 196
4 180 181 198 197
4 181 15 17 198
4 183 182 199 200
4 182 184 201 199
4 184 185 202 201
4 185 186 203 202
4 186 187 204 203
4 187 188 205 204
4 188 189 206 205
4 189 190 207 206
4 190 191 208 207
4 191 192 209 208
4 192 193 210 209
4 193 194 211 210
4 194 195 212 211
4 195 196 213 212
4 196 197 214 213
4 197 198 215 214
4 198 17 19 215
4 200 199 216 217
4 199 201 218 216
4 201 202 219 218
4 202 203 220 219
4 203 204 221 220
4 204 205 222 221
4 205 206 223 222
4 206 207 224 223
4 207 208 225 224
4 208 209 226 225
4 209 210 227 226
4 210 211 228 227
4 211 212 229 228
4 212 213 230 229
4 213 214 231 230
4 214 215 232 231
4 215 19 21 232
4 217 216 233 234
4 216 218 235 233
4 218 219 236 235
4 219 220 237 236
4 220 221 238 237
4 221 222 239 238
4 222 223 240 239
4 223 224 241 240
4 224 225 242 241
4 225 226 243 242
4 226 227 244 243
4 227 228 245 244
4 228 229 246 245
4 229 230 247 246
4 230 231 248 247
4 231 232 249 248
4 232 21 23 249
4 234 233 250 251
4 233 235 252 250
4 235 236 253 252
4 236 237 254 253
4 237 238 255 254
4 238 239 256 255
4 239 240 257 256
4 240 241 258 257
4 241 242 259 258
4 242 243 260 259
4 243 244 261 260
4 244 245 262 261
4 245 246 263 262
4 246 247 264 263
4 247 248 265 264
4 248 249 266 265
4 249 23 25 266
4 251 250 267 268
4 250 252 269 267
4 252 253 270 269
4 253 254 271 270
4 254 255 272 271
4 255 256 273 272
4 256 257 274 273
4 257 258 275 274
4 258 259 276 275
4 259 260 277 276
4 260 261 278 277
4 261 262 279 278
4 262 263 280 279
4 263 264 281 280
4 264 265 282 281
4 265 266 283 282
4 266 25 27 283
4 268 267 284 285
4 267 269 286 284
4 269 270 287 286
4 270 271 288 287
4 271 272 289 288
4 272 273 290 289
4 273 274 291 290
4 274 275 292 291
4 275 276 293 292
4 276 277 294 293
4 277 278 295 294
4 278 279 296 295
4 279 280 297 296
4 280 281 298 297
4 281 282 299 298
4 282 283 300 299
4 283 27 29 300
4 285 284 301 302
4 284 286 303 301
4 286 287 304 303
4 287 288 305 304
4 288 289 306 305
4 289 290 307 306
4 290 291 308 307
4 291 292 309 308
4 292 293 310 309
4 293 294 311 310
4 294 295 312 311
4 295 296 313 312
4 296 297 314 313
4 297 298 315 314
4 298 299 316 315
4 299 300 317 316
4 300 29 31 317
4 302 301 318 319
4 301 303 320 318
4 303 304 321 320
4 304 305 322 321
4 305 306 323 322
4 306 307 324 323
4 307 308 325 324
4 308 309 326 325
4 309 310 327 326
4 310 311 328 327
4 311 312 329 328
4 312 313 330 329
4 313 314 331 330
4 314 315 332 331
4 315 316 333 332
4 316 317 334 333
4 317 31 33 334
4 319 318 335 336
4 318 320 337 335
4 320 321 338 337
4 321 322 339 338
4 322 323 340 339
4 323 324 341 340
4 324 325 342 341
4 325 326 343 342
4 326 327 344 343
4 327 328 345 344
4 328 329 346 345
4 329 330 347 346
4 330 331 348 347
4 331 332 349 348
4 332 333 350 349
4 333 334 351 350
4 334 33 35 351
4 336 335 352 353
4 335 337 354 352
4 337 338 355 354
4 338 339 356 355
4 339 340 357 356
4 340 341 358 357
4 341 342 359 358
4 342 343 360 359
4 343 344 361 360
4 344 345 362 361
4 345 346 363 362
4 346 347 364 363
4 347 348 365 364
4 348 349 366 365
4 349 350 367 366
4 350 351 368 367
4 351 35 37 368
4 353 352 369 370
4 352 354 371 369
4 354 355 372 371
4 355 356 373 372
4 356 357 374 373
4 357 358 375 374
4 358 359 376 375
4 359 360 377 376
4 360 361 378 377
4 361 362 379 378
4 362 363 380 379
4 363 364 381 380
4 364 365 382 381
4 365 366 383 382
4 366 367 384 383
4 367 368 385 384
4 368 37 39 385
4 370 369 386 387
4 369 371 388 386
4 371 372 389 388
4 372 373 390 389
4 373 374 391 390
4 374 375 392 391
4 375 376 393 392
4 376 377 394 393
4 377 378 395 394
4 378 379 396 395
4 379 380 397 396
4 380 381 398 397
4 381 382 399 398
4 382 383 400 399
4 383 384 401 400
4 384 385 402 401
4 385 39 41 402
4 387 386 403 404
4 386 388 405 403
4 388 389 406 405
4 389 390 407 406
4 390 391 408 407
4 391 392 409 408
4 392 393 410 409
4 393 394 411 410
4 394 395 412 411
4 395 396 413 412
4 396 397 414 413
4 397 398 415 414
4 398 399 416 415
4 399 400 417 416
4 400 401 418 417
4 401 402 419 418
4 402 41 43 419
4 404 403 420 421
4 403 405 422 420
4 405 406 423 422
4 406 407 424 423
4 407 408 425 424
4 408 409 426 425
4 409 410 427 426
4 410 411 428 427
4 411 412 429 428
4 412 413 430 429
4 413 414 431 430
4 414 415 432 431
4 415 416 433 432
4 416 417 434 433
4 417 418 435 434
4 418 419 436 435
4 419 43 45 436
4 421 420 47 46
4 420 422 50 47
4 422 423 52 50
4 423 424 54 52
4 424 425 56 54
4 425 426 58 56
4 426 427 60 58
4 427 428 62 60
4 428 429 64 62
4 429 430 66 64
4 430 431 68 66
4 431 432 70 68
4 432 433 72 70
4 433 434 74 72
4 434 435 76 74
4 435 436 78 76
4 436 45 0 78
