ply
format ascii 1.0
comment Created by Blender 2.69 (sub 0) - www.blender.org, source file: ''
element vertex 493
property float x
property float y
property float z
property float nx
property float ny
property float nz
element face 153
property list uchar uint vertex_indices
end_header
-7.648584 -5.354379 40.099701 -0.057946 -0.137793 0.988764
-4.763044 -5.435272 40.257534 -0.057946 -0.137793 0.988764
-7.648587 -4.221783 40.257538 -0.057946 -0.137793 0.988764
-4.763049 -3.170080 40.257534 -0.063522 0.174286 0.982644
-7.648588 -3.331884 40.099701 -0.063522 0.174286 0.982644
-7.648587 -4.221783 40.257538 -0.063522 0.174286 0.982644
-12.727139 -3.655493 38.837002 -0.322410 0.292719 0.900204
-12.727139 -4.140892 38.994839 -0.322410 0.292719 0.900204
-10.303285 -3.412790 39.626190 -0.322410 0.292719 0.900204
-10.303285 -3.412790 39.626190 -0.298863 0.182739 0.936636
-12.727139 -4.140892 38.994839 -0.298863 0.182739 0.936636
-10.303284 -4.221786 39.784027 -0.298863 0.182739 0.936636
-10.303284 -4.221786 39.784027 -0.309595 -0.000001 0.950868
-12.727139 -4.140892 38.994839 -0.309595 -0.000001 0.950868
-12.727138 -4.707191 38.994839 -0.309595 -0.000001 0.950868
-12.727139 -4.140892 38.994839 -0.524088 -0.000002 0.851664
-15.035570 -4.221796 37.574303 -0.524088 -0.000002 0.851664
-12.727138 -4.707191 38.994839 -0.524088 -0.000002 0.851664
-12.727138 -4.707191 38.994839 -0.545123 -0.259248 0.797265
-15.035570 -4.221796 37.574303 -0.545123 -0.259248 0.797265
-12.727137 -5.192589 38.837002 -0.545123 -0.259248 0.797265
-15.035570 -4.221796 37.574303 -0.511996 0.265626 0.816886
-12.727139 -4.140892 38.994839 -0.511996 0.265626 0.816886
-12.727139 -3.655493 38.837002 -0.511996 0.265626 0.816886
-10.303284 -4.221786 39.784027 -0.280529 -0.142457 0.949215
-12.727138 -4.707191 38.994839 -0.280529 -0.142457 0.949215
-10.303282 -5.273483 39.626190 -0.280529 -0.142457 0.949215
-10.303282 -5.273483 39.626190 -0.304736 -0.294525 0.905754
-12.727138 -4.707191 38.994839 -0.304736 -0.294525 0.905754
-12.727137 -5.192589 38.837002 -0.304736 -0.294525 0.905754
-6.378932 -13.444347 33.786201 -0.043490 -0.992833 0.111317
-7.994836 -13.444351 33.154854 -0.043490 -0.992833 0.111317
-7.533150 -13.606150 31.892155 -0.043490 -0.992833 0.111317
-7.533150 -13.606150 31.892155 -0.047754 -0.992811 0.109755
-7.994836 -13.444351 33.154854 -0.047754 -0.992811 0.109755
-10.072424 -13.606153 30.787292 -0.047754 -0.992811 0.109755
-7.994836 -13.444351 33.154854 -0.071092 -0.988966 0.129972
-10.303267 -13.444355 31.892155 -0.071092 -0.988966 0.129972
-10.072424 -13.606153 30.787292 -0.071092 -0.988966 0.129972
-10.072424 -13.606153 30.787292 -0.078937 -0.988592 0.128278
-10.303267 -13.444355 31.892155 -0.078937 -0.988592 0.128278
-12.611699 -13.444359 30.471617 -0.078937 -0.988592 0.128278
-8.571943 -13.201653 33.944042 -0.103926 -0.630162 0.769477
-6.840620 -12.716251 34.575394 -0.103926 -0.630162 0.769477
-7.071465 -11.907255 35.206741 -0.103926 -0.630162 0.769477
-12.611733 4.434479 30.471617 -0.131789 0.990257 0.044973
-10.303303 4.677183 31.892155 -0.131789 0.990257 0.044973
-10.072460 4.758083 30.787292 -0.131789 0.990257 0.044973
-10.303303 4.677183 31.892155 -0.035845 0.997207 0.065528
-7.994871 4.677187 33.154854 -0.035845 0.997207 0.065528
-10.072460 4.758083 30.787292 -0.035845 0.997207 0.065528
-10.072460 4.758083 30.787292 -0.024009 0.998188 0.055175
-7.994871 4.677187 33.154854 -0.024009 0.998188 0.055175
-7.533185 4.758088 31.892155 -0.024009 0.998188 0.055175
10.588003 3.868225 0.166830 0.080722 0.013353 -0.996647
11.511386 -1.713855 0.166830 0.080722 0.013353 -0.996647
8.625835 3.949121 0.008991 0.080722 0.013353 -0.996647
11.511386 -1.713855 0.166830 0.079594 0.012776 -0.996746
9.664642 -2.522855 0.008991 0.079594 0.012776 -0.996746
8.625835 3.949121 0.008991 0.079594 0.012776 -0.996746
11.511396 -6.972337 0.166830 0.080722 -0.013353 -0.996647
10.588035 -12.554419 0.166830 0.080722 -0.013353 -0.996647
8.625867 -12.635324 0.008991 0.080722 -0.013353 -0.996647
9.664649 -6.163343 0.008991 0.079594 -0.012775 -0.996746
11.511396 -6.972337 0.166830 0.079594 -0.012775 -0.996746
8.625867 -12.635324 0.008991 0.079594 -0.012775 -0.996746
-7.648588 -3.331884 40.099701 -0.175915 0.316304 0.932205
-7.648590 -2.280189 39.626190 -0.175915 0.316304 0.932205
-10.303285 -3.412790 39.626190 -0.175915 0.316304 0.932205
-10.303284 -4.221786 39.784027 -0.175915 0.316304 0.932205
3.431894 -11.745436 0.008993 -0.000000 -0.000000 -1.000000
3.431867 3.059213 0.008993 -0.000000 -0.000000 -1.000000
9.664649 -6.163343 0.008991 -0.000000 -0.000000 -1.000000
5.624905 -12.311729 0.008993 -0.000000 -0.000000 -1.000000
12.896457 -7.700430 0.482506 0.222217 0.000000 -0.974997
11.511396 -6.972337 0.166830 0.222217 0.000000 -0.974997
11.511386 -1.713855 0.166830 0.222217 0.000000 -0.974997
12.896444 -0.985754 0.482506 0.222217 0.000000 -0.974997
-4.763049 -3.170080 40.257534 0.108994 0.200787 0.973553
-1.415820 -4.221771 40.099697 0.108994 0.200787 0.973553
6.548257 2.169322 37.889973 0.108994 0.200787 0.973553
3.201058 -14.657825 12.162475 0.158308 -0.986005 -0.052280
4.816958 -14.172424 7.900866 0.158308 -0.986005 -0.052280
4.816960 -14.415123 12.478149 0.158308 -0.986005 -0.052280
8.395024 -13.201622 1.113853 0.205240 -0.965507 -0.160225
10.588035 -12.554419 0.166830 0.205240 -0.965507 -0.160225
12.088513 -12.311718 0.482506 0.205240 -0.965507 -0.160225
12.088514 -12.392616 1.113853 0.205240 -0.965507 -0.160225
-10.303267 -13.444355 31.892155 -0.116556 -0.970056 0.213087
-7.994836 -13.444351 33.154854 -0.116556 -0.970056 0.213087
-8.571943 -13.201653 33.944042 -0.116556 -0.970056 0.213087
-7.533150 -13.606150 31.892155 0.074316 -0.993285 0.088665
3.201058 -14.657825 12.162475 0.074316 -0.993285 0.088665
4.816960 -14.415123 12.478149 0.074316 -0.993285 0.088665
-6.378932 -13.444347 33.786201 0.074316 -0.993285 0.088665
-1.415820 -4.221771 40.099697 0.263805 0.004766 0.964564
0.315503 -4.221767 39.626186 0.263805 0.004766 0.964564
6.548257 2.169322 37.889973 0.263805 0.004766 0.964564
10.588003 3.868225 0.166830 0.207936 0.035318 -0.977505
12.088484 3.625528 0.482506 0.207936 0.035318 -0.977505
12.896444 -0.985754 0.482506 0.207936 0.035318 -0.977505
11.511386 -1.713855 0.166830 0.207936 0.035318 -0.977505
-7.994836 -13.444351 33.154854 -0.090515 -0.968573 0.231674
-6.378932 -13.444347 33.786201 -0.090515 -0.968573 0.231674
-8.571943 -13.201653 33.944042 -0.090515 -0.968573 0.231674
6.548281 -10.855533 37.889973 0.276655 0.000001 0.960969
6.894546 -10.855532 37.732136 0.276655 0.000001 0.960969
6.548257 2.169322 37.889973 0.276655 0.000001 0.960969
0.315503 -4.221767 39.626186 0.276655 0.000001 0.960969
12.896457 -7.700430 0.482506 0.207936 -0.035317 -0.977505
12.088513 -12.311718 0.482506 0.207936 -0.035317 -0.977505
10.588035 -12.554419 0.166830 0.207936 -0.035317 -0.977505
11.511396 -6.972337 0.166830 0.207936 -0.035317 -0.977505
5.624876 3.625515 0.008993 -0.000000 0.000000 -1.000000
2.623950 -14.415127 10.584101 -0.142545 -0.968515 -0.204105
5.740328 -12.878027 1.113855 -0.142545 -0.968515 -0.204105
4.816958 -14.172424 7.900866 -0.142545 -0.968515 -0.204105
8.394991 4.515418 1.113853 0.205236 0.965508 -0.160226
12.088484 3.706429 1.113853 0.205236 0.965508 -0.160226
12.088484 3.625528 0.482506 0.205236 0.965508 -0.160226
10.588003 3.868225 0.166830 0.205236 0.965508 -0.160226
-8.571977 4.191788 33.944042 -0.055540 0.786025 0.615695
-4.878484 3.463697 35.206738 -0.055540 0.786025 0.615695
6.548257 2.169322 37.889973 -0.055540 0.786025 0.615695
3.201058 -14.657825 12.162475 -0.052972 -0.989724 -0.132816
2.623950 -14.415127 10.584101 -0.052972 -0.989724 -0.132816
4.816958 -14.172424 7.900866 -0.052972 -0.989724 -0.132816
9.664649 -6.163343 0.008991 -0.000001 -0.000000 -1.000000
5.624876 3.625515 0.008993 -0.000001 -0.000000 -1.000000
8.625835 3.949121 0.008991 -0.000001 -0.000000 -1.000000
-15.035570 -4.221796 37.574303 -0.660353 -0.559399 0.501005
-14.343026 -12.473566 28.577570 -0.660353 -0.559399 0.501005
-12.611699 -13.444359 30.471617 -0.660353 -0.559399 0.501005
-12.727137 -5.192589 38.837002 -0.660353 -0.559399 0.501005
9.664652 -5.273447 32.523502 0.939532 -0.226871 0.256534
6.894546 -10.855532 37.732136 0.939532 -0.226871 0.256534
11.395974 -4.707145 26.683516 0.939532 -0.226871 0.256534
2.046834 -11.179140 0.166830 -0.185351 -0.000000 -0.982672
0.084644 0.713115 0.640345 -0.185351 -0.000000 -0.982672
2.046808 2.492913 0.166830 -0.185351 -0.000000 -0.982672
3.431894 -11.745436 0.008993 -0.185351 -0.000000 -0.982672
-4.878484 3.463697 35.206738 -0.057613 0.780868 0.622034
-7.071494 3.301892 35.206741 -0.057613 0.780868 0.622034
6.548257 2.169322 37.889973 -0.057613 0.780868 0.622034
8.625835 3.949121 0.008991 -0.000000 -0.000000 -1.000000
9.664642 -2.522855 0.008991 -0.000000 -0.000000 -1.000000
3.431894 -11.745436 0.008993 -0.226265 -0.876228 -0.425474
5.624905 -12.311729 0.008993 -0.226265 -0.876228 -0.425474
5.740328 -12.878027 1.113855 -0.226265 -0.876228 -0.425474
-12.611699 -13.444359 30.471617 -0.550752 -0.598009 0.582287
-10.995797 -12.473559 32.997017 -0.550752 -0.598009 0.582287
-12.727137 -5.192589 38.837002 -0.550752 -0.598009 0.582287
-7.648590 -2.280189 39.626190 -0.088030 0.593141 0.800271
-4.763049 -3.170080 40.257534 -0.088030 0.593141 0.800271
6.548257 2.169322 37.889973 -0.088030 0.593141 0.800271
-7.071494 3.301892 35.206741 -0.088030 0.593141 0.800271
9.664652 -5.273447 32.523502 0.907359 -0.062386 0.415701
9.664650 -4.221749 32.681339 0.907359 -0.062386 0.415701
6.894546 -10.855532 37.732136 0.907359 -0.062386 0.415701
12.088484 3.706429 1.113853 0.521057 0.849607 -0.081652
13.819809 2.654735 1.429529 0.521057 0.849607 -0.081652
13.935230 2.573835 1.113853 0.521057 0.849607 -0.081652
12.088484 3.625528 0.482506 0.521057 0.849607 -0.081652
2.623950 -14.415127 10.584101 -0.324929 -0.910781 -0.254752
3.431894 -11.745436 0.008993 -0.324929 -0.910781 -0.254752
5.740328 -12.878027 1.113855 -0.324929 -0.910781 -0.254752
3.431867 3.059213 0.008993 -0.226269 0.876227 -0.425475
5.740296 4.191814 1.113855 -0.226269 0.876227 -0.425475
5.624876 3.625515 0.008993 -0.226269 0.876227 -0.425475
3.431894 -11.745436 0.008993 -0.113224 -0.000000 -0.993569
2.046808 2.492913 0.166830 -0.113224 -0.000000 -0.993569
3.431867 3.059213 0.008993 -0.113224 -0.000000 -0.993569
-6.378967 4.434491 33.786201 0.105548 0.973329 0.203693
6.548257 2.169322 37.889973 0.105548 0.973329 0.203693
6.894521 2.169323 37.732136 0.105548 0.973329 0.203693
-5.917280 4.677190 32.365665 0.105548 0.973329 0.203693
9.664650 -4.221749 32.681339 0.876789 0.000001 0.480875
8.972122 -4.221751 33.944038 0.876789 0.000001 0.480875
6.894546 -10.855532 37.732136 0.876789 0.000001 0.480875
-12.611699 -13.444359 30.471617 -0.479524 -0.671479 0.564954
-10.534111 -13.201656 32.523506 -0.479524 -0.671479 0.564954
-10.995797 -12.473559 32.997017 -0.479524 -0.671479 0.564954
4.816921 5.486207 7.900866 0.158304 0.986005 -0.052281
3.201020 5.971603 12.162475 0.158304 0.986005 -0.052281
4.816922 5.728907 12.478149 0.158304 0.986005 -0.052281
3.431867 3.059213 0.008993 -0.324933 0.910780 -0.254752
2.623912 5.728904 10.584101 -0.324933 0.910780 -0.254752
5.740296 4.191814 1.113855 -0.324933 0.910780 -0.254752
2.046808 2.492913 0.166830 -0.390638 0.881422 -0.265512
-14.343058 3.787279 28.577570 -0.390638 0.881422 -0.265512
3.431867 3.059213 0.008993 -0.390638 0.881422 -0.265512
6.548281 -10.855533 37.889973 0.243288 -0.809907 0.533724
6.432859 -11.098231 37.574299 0.243288 -0.809907 0.533724
6.894546 -10.855532 37.732136 0.243288 -0.809907 0.533724
4.816960 -14.415123 12.478149 0.213817 -0.976176 -0.036917
8.395024 -13.201622 1.113853 0.213817 -0.976176 -0.036917
12.088514 -12.392616 1.113853 0.213817 -0.976176 -0.036917
2.623912 5.728904 10.584101 -0.142547 0.968515 -0.204105
4.816921 5.486207 7.900866 -0.142547 0.968515 -0.204105
5.740296 4.191814 1.113855 -0.142547 0.968515 -0.204105
-14.343058 3.787279 28.577570 -0.371399 0.893101 -0.253839
2.623912 5.728904 10.584101 -0.371399 0.893101 -0.253839
3.431867 3.059213 0.008993 -0.371399 0.893101 -0.253839
6.432859 -11.098231 37.574299 0.418352 -0.895311 0.152967
6.548282 -11.098231 37.258625 0.418352 -0.895311 0.152967
6.894546 -10.855532 37.732136 0.418352 -0.895311 0.152967
13.819809 2.654735 1.429529 0.827512 0.536644 0.165036
6.894521 2.169323 37.732136 0.827512 0.536644 0.165036
13.935230 2.573835 1.113853 0.827512 0.536644 0.165036
6.548282 -11.098231 37.258625 0.400461 -0.911477 0.094023
4.816960 -14.415123 12.478149 0.400461 -0.911477 0.094023
12.088514 -12.392616 1.113853 0.400461 -0.911477 0.094023
2.623912 5.728904 10.584101 -0.052974 0.989724 -0.132816
3.201020 5.971603 12.162475 -0.052974 0.989724 -0.132816
4.816921 5.486207 7.900866 -0.052974 0.989724 -0.132816
-12.611733 4.434479 30.471617 -0.217949 0.970424 -0.103806
3.201020 5.971603 12.162475 -0.217949 0.970424 -0.103806
2.623912 5.728904 10.584101 -0.217949 0.970424 -0.103806
-14.343058 3.787279 28.577570 -0.217949 0.970424 -0.103806
12.088514 -12.392616 1.113853 0.496311 -0.861580 0.106563
13.819837 -11.340918 1.429529 0.496311 -0.861580 0.106563
6.894546 -10.855532 37.732136 0.496311 -0.861580 0.106563
6.548282 -11.098231 37.258625 0.496311 -0.861580 0.106563
9.664642 -2.522855 0.008991 0.085158 0.000000 -0.996367
11.511386 -1.713855 0.166830 0.085158 0.000000 -0.996367
11.511396 -6.972337 0.166830 0.085158 0.000000 -0.996367
9.664649 -6.163343 0.008991 0.085158 0.000000 -0.996367
3.201020 5.971603 12.162475 0.014328 0.997504 0.069149
-7.533185 4.758088 31.892155 0.014328 0.997504 0.069149
-7.994871 4.677187 33.154854 0.014328 0.997504 0.069149
8.395024 -13.201622 1.113853 0.072474 -0.893640 -0.442894
8.625867 -12.635324 0.008991 0.072474 -0.893640 -0.442894
10.588035 -12.554419 0.166830 0.072474 -0.893640 -0.442894
2.046834 -11.179140 0.166830 -0.234588 -0.000000 -0.972095
0.084663 -9.399349 0.640345 -0.234588 -0.000000 -0.972095
0.084644 0.713115 0.640345 -0.234588 -0.000000 -0.972095
-12.611733 4.434479 30.471617 -0.357250 0.824004 0.439761
-10.995829 3.787284 32.997017 -0.357250 0.824004 0.439761
-10.303303 4.677183 31.892155 -0.357250 0.824004 0.439761
4.816958 -14.172424 7.900866 -0.118517 -0.972281 -0.201554
5.740328 -12.878027 1.113855 -0.118517 -0.972281 -0.201554
8.395024 -13.201622 1.113853 -0.118517 -0.972281 -0.201554
5.624905 -12.311729 0.008993 -0.101067 -0.883205 -0.457967
8.625867 -12.635324 0.008991 -0.101067 -0.883205 -0.457967
8.395024 -13.201622 1.113853 -0.101067 -0.883205 -0.457967
5.740328 -12.878027 1.113855 -0.101067 -0.883205 -0.457967
-14.343058 3.787279 28.577570 -0.697451 0.561088 0.445806
-15.035570 -4.221796 37.574303 -0.697451 0.561088 0.445806
-12.611733 4.434479 30.471617 -0.697451 0.561088 0.445806
6.548257 2.169322 37.889973 0.414770 0.000001 0.909926
6.894546 -10.855532 37.732136 0.414770 0.000001 0.909926
6.894521 2.169323 37.732136 0.414770 0.000001 0.909926
-10.303303 4.677183 31.892155 -0.276846 0.856232 0.436146
-10.995829 3.787284 32.997017 -0.276846 0.856232 0.436146
-8.571977 4.191788 33.944042 -0.276846 0.856232 0.436146
-7.994871 4.677187 33.154854 -0.276846 0.856232 0.436146
-15.035570 -4.221796 37.574303 -0.545950 0.606009 0.578526
-12.727139 -3.655493 38.837002 -0.545950 0.606009 0.578526
-10.995829 3.787284 32.997017 -0.545950 0.606009 0.578526
-12.611733 4.434479 30.471617 -0.545950 0.606009 0.578526
6.894546 -10.855532 37.732136 0.876789 0.000002 0.480876
8.972122 -4.221751 33.944038 0.876789 0.000002 0.480876
6.894521 2.169323 37.732136 0.876789 0.000002 0.480876
0.084644 0.713115 0.640345 -0.395651 0.197571 -0.896898
1.008015 1.845713 0.482508 -0.395651 0.197571 -0.896898
2.046808 2.492913 0.166830 -0.395651 0.197571 -0.896898
-14.343026 -12.473566 28.577570 -0.995174 -0.000002 -0.098122
-15.035570 -4.221796 37.574303 -0.995174 -0.000002 -0.098122
-14.343058 3.787279 28.577570 -0.995174 -0.000002 -0.098122
-13.650513 -4.221793 23.526773 -0.995174 -0.000002 -0.098122
14.396943 -10.370119 1.113853 0.387830 0.000001 -0.921731
12.896457 -7.700430 0.482506 0.387830 0.000001 -0.921731
12.896444 -0.985754 0.482506 0.387830 0.000001 -0.921731
8.972122 -4.221751 33.944038 0.876789 0.000002 0.480875
9.664650 -4.221749 32.681339 0.876789 0.000002 0.480875
6.894521 2.169323 37.732136 0.876789 0.000002 0.480875
1.008015 1.845713 0.482508 -0.569700 0.737704 -0.362263
-14.343058 3.787279 28.577570 -0.569700 0.737704 -0.362263
2.046808 2.492913 0.166830 -0.569700 0.737704 -0.362263
-12.611733 4.434479 30.471617 -0.123520 0.992066 -0.023391
-10.072460 4.758083 30.787292 -0.123520 0.992066 -0.023391
3.201020 5.971603 12.162475 -0.123520 0.992066 -0.023391
4.816960 -14.415123 12.478149 0.168080 -0.984391 -0.052195
4.816958 -14.172424 7.900866 0.168080 -0.984391 -0.052195
8.395024 -13.201622 1.113853 0.168080 -0.984391 -0.052195
14.396943 -10.370119 1.113853 0.387831 0.000001 -0.921731
12.896444 -0.985754 0.482506 0.387831 0.000001 -0.921731
14.396918 1.683939 1.113853 0.387831 0.000001 -0.921731
9.664650 -4.221749 32.681339 0.912550 0.078314 0.401396
9.664649 -3.412752 32.523502 0.912550 0.078314 0.401396
6.894521 2.169323 37.732136 0.912550 0.078314 0.401396
5.624876 3.625515 0.008993 -0.101071 0.883205 -0.457967
5.740296 4.191814 1.113855 -0.101071 0.883205 -0.457967
8.394991 4.515418 1.113853 -0.101071 0.883205 -0.457967
8.625835 3.949121 0.008991 -0.101071 0.883205 -0.457967
8.625835 3.949121 0.008991 0.072470 0.893640 -0.442894
8.394991 4.515418 1.113853 0.072470 0.893640 -0.442894
10.588003 3.868225 0.166830 0.072470 0.893640 -0.442894
-10.072460 4.758083 30.787292 -0.021610 0.998532 0.049660
-7.533185 4.758088 31.892155 -0.021610 0.998532 0.049660
3.201020 5.971603 12.162475 -0.021610 0.998532 0.049660
12.896444 -0.985754 0.482506 0.305002 0.053441 -0.950851
12.088484 3.625528 0.482506 0.305002 0.053441 -0.950851
14.396918 1.683939 1.113853 0.305002 0.053441 -0.950851
9.664649 -3.412752 32.523502 0.939786 0.233575 0.249489
11.395973 -4.140847 26.683516 0.939786 0.233575 0.249489
6.894521 2.169323 37.732136 0.939786 0.233575 0.249489
-10.995829 3.787284 32.997017 -0.336593 0.620090 0.708656
-12.727139 -3.655493 38.837002 -0.336593 0.620090 0.708656
-10.303285 -3.412790 39.626190 -0.336593 0.620090 0.708656
-8.571977 4.191788 33.944042 -0.336593 0.620090 0.708656
0.315503 -4.221767 39.626186 0.263805 -0.004590 0.964565
-1.415820 -4.221771 40.099697 0.263805 -0.004590 0.964565
6.548281 -10.855533 37.889973 0.263805 -0.004590 0.964565
6.894521 2.169323 37.732136 0.918092 0.351363 0.183442
11.395973 -4.140847 26.683516 0.918092 0.351363 0.183442
14.396918 1.683939 1.113853 0.918092 0.351363 0.183442
13.935230 2.573835 1.113853 0.918092 0.351363 0.183442
12.088484 3.625528 0.482506 0.425771 0.220895 -0.877453
13.935230 2.573835 1.113853 0.425771 0.220895 -0.877453
14.396918 1.683939 1.113853 0.425771 0.220895 -0.877453
13.819809 2.654735 1.429529 0.501826 0.858299 0.107208
12.088484 3.706429 1.113853 0.501826 0.858299 0.107208
6.894521 2.169323 37.732136 0.501826 0.858299 0.107208
1.008015 1.845713 0.482508 -0.726946 0.532177 -0.433979
0.084644 0.713115 0.640345 -0.726946 0.532177 -0.433979
-14.343058 3.787279 28.577570 -0.726946 0.532177 -0.433979
-7.648584 -5.354379 40.099701 -0.175925 -0.140804 0.974282
-7.648587 -4.221783 40.257538 -0.175925 -0.140804 0.974282
-10.303284 -4.221786 39.784027 -0.175925 -0.140804 0.974282
-10.303282 -5.273483 39.626190 -0.175925 -0.140804 0.974282
-1.415820 -4.221771 40.099697 0.114133 -0.187930 0.975528
-4.763044 -5.435272 40.257534 0.114133 -0.187930 0.975528
6.548281 -10.855533 37.889973 0.114133 -0.187930 0.975528
-7.648590 -2.280189 39.626190 -0.261873 0.615372 0.743465
-7.071494 3.301892 35.206741 -0.261873 0.615372 0.743465
-8.571977 4.191788 33.944042 -0.261873 0.615372 0.743465
-10.303285 -3.412790 39.626190 -0.261873 0.615372 0.743465
0.084663 -9.399349 0.640345 -0.862526 0.105001 -0.494999
-13.650513 -4.221793 23.526773 -0.862526 0.105001 -0.494999
-14.343058 3.787279 28.577570 -0.862526 0.105001 -0.494999
0.084644 0.713115 0.640345 -0.862526 0.105001 -0.494999
-7.648584 -5.354379 40.099701 -0.061341 -0.468853 0.881144
-7.648582 -6.244276 39.626190 -0.061341 -0.468853 0.881144
-4.763044 -5.435272 40.257534 -0.061341 -0.468853 0.881144
12.088484 3.706429 1.113853 0.402156 0.910601 0.095266
4.816922 5.728907 12.478149 0.402156 0.910601 0.095266
6.894521 2.169323 37.732136 0.402156 0.910601 0.095266
5.740296 4.191814 1.113855 -0.118520 0.972280 -0.201554
4.816921 5.486207 7.900866 -0.118520 0.972280 -0.201554
8.394991 4.515418 1.113853 -0.118520 0.972280 -0.201554
-7.648582 -6.244276 39.626190 -0.094154 -0.591411 0.800854
-7.071465 -11.907255 35.206741 -0.094154 -0.591411 0.800854
6.548281 -10.855533 37.889973 -0.094154 -0.591411 0.800854
-4.763044 -5.435272 40.257534 -0.094154 -0.591411 0.800854
4.816922 5.728907 12.478149 0.137585 0.982416 0.126214
3.201020 5.971603 12.162475 0.137585 0.982416 0.126214
-5.917280 4.677190 32.365665 0.137585 0.982416 0.126214
6.894521 2.169323 37.732136 0.137585 0.982416 0.126214
-7.648584 -5.354379 40.099701 -0.169298 -0.462957 0.870062
-10.303282 -5.273483 39.626190 -0.169298 -0.462957 0.870062
-7.648582 -6.244276 39.626190 -0.169298 -0.462957 0.870062
11.395974 -4.464446 26.841352 0.993224 0.001484 0.116208
14.396943 -10.370119 1.113853 0.993224 0.001484 0.116208
14.396918 1.683939 1.113853 0.993224 0.001484 0.116208
11.395973 -4.140847 26.683516 0.993224 0.001484 0.116208
-10.303284 -4.221786 39.784027 -0.172979 0.172006 0.969790
-7.648587 -4.221783 40.257538 -0.172979 0.172006 0.969790
-7.648588 -3.331884 40.099701 -0.172979 0.172006 0.969790
4.816921 5.486207 7.900866 0.168076 0.984391 -0.052195
4.816922 5.728907 12.478149 0.168076 0.984391 -0.052195
8.394991 4.515418 1.113853 0.168076 0.984391 -0.052195
-7.071494 3.301892 35.206741 -0.057729 0.782447 0.620036
-4.878484 3.463697 35.206738 -0.057729 0.782447 0.620036
-8.571977 4.191788 33.944042 -0.057729 0.782447 0.620036
-8.571943 -13.201653 33.944042 -0.187632 -0.606262 0.772814
-7.071465 -11.907255 35.206741 -0.187632 -0.606262 0.772814
-7.648582 -6.244276 39.626190 -0.187632 -0.606262 0.772814
-10.303282 -5.273483 39.626190 -0.187632 -0.606262 0.772814
9.664649 -3.412752 32.523502 0.957617 0.077337 0.277468
9.664650 -4.221749 32.681339 0.957617 0.077337 0.277468
11.395974 -4.464446 26.841352 0.957617 0.077337 0.277468
11.395973 -4.140847 26.683516 0.957617 0.077337 0.277468
-12.611699 -13.444359 30.471617 -0.110796 -0.993395 -0.029850
2.623950 -14.415127 10.584101 -0.110796 -0.993395 -0.029850
3.201058 -14.657825 12.162475 -0.110796 -0.993395 -0.029850
-10.072424 -13.606153 30.787292 -0.110796 -0.993395 -0.029850
4.816922 5.728907 12.478149 0.213813 0.976177 -0.036918
12.088484 3.706429 1.113853 0.213813 0.976177 -0.036918
8.394991 4.515418 1.113853 0.213813 0.976177 -0.036918
-7.071465 -11.907255 35.206741 -0.102983 -0.630058 0.769689
-6.840620 -12.716251 34.575394 -0.102983 -0.630058 0.769689
6.548281 -10.855533 37.889973 -0.102983 -0.630058 0.769689
-13.650513 -4.221793 23.526773 -0.858212 -0.213648 -0.466719
0.084663 -9.399349 0.640345 -0.858212 -0.213648 -0.466719
-14.343026 -12.473566 28.577570 -0.858212 -0.213648 -0.466719
-7.533150 -13.606150 31.892155 -0.018732 -0.998897 0.043054
-10.072424 -13.606153 30.787292 -0.018732 -0.998897 0.043054
3.201058 -14.657825 12.162475 -0.018732 -0.998897 0.043054
-7.994871 4.677187 33.154854 0.072479 0.978948 0.190810
-6.378967 4.434491 33.786201 0.072479 0.978948 0.190810
-5.917280 4.677190 32.365665 0.072479 0.978948 0.190810
-6.840620 -12.716251 34.575394 -0.101487 -0.634567 0.766176
-8.571943 -13.201653 33.944042 -0.101487 -0.634567 0.766176
6.548281 -10.855533 37.889973 -0.101487 -0.634567 0.766176
13.935257 -11.260017 1.113853 0.425772 -0.220894 -0.877453
12.088513 -12.311718 0.482506 0.425772 -0.220894 -0.877453
14.396943 -10.370119 1.113853 0.425772 -0.220894 -0.877453
9.664652 -5.273447 32.523502 0.957006 -0.068726 0.281810
11.395974 -4.707145 26.683516 0.957006 -0.068726 0.281810
11.395974 -4.464446 26.841352 0.957006 -0.068726 0.281810
9.664650 -4.221749 32.681339 0.957006 -0.068726 0.281810
-12.727137 -5.192589 38.837002 -0.354890 -0.614547 0.704546
-10.995797 -12.473559 32.997017 -0.354890 -0.614547 0.704546
-8.571943 -13.201653 33.944042 -0.354890 -0.614547 0.704546
-10.303282 -5.273483 39.626190 -0.354890 -0.614547 0.704546
0.084663 -9.399349 0.640345 -0.726944 -0.532180 -0.433979
1.008038 -10.531944 0.482508 -0.726944 -0.532180 -0.433979
-14.343026 -12.473566 28.577570 -0.726944 -0.532180 -0.433979
-8.571943 -13.201653 33.944042 -0.041539 -0.780794 0.623406
-6.378932 -13.444347 33.786201 -0.041539 -0.780794 0.623406
6.548281 -10.855533 37.889973 -0.041539 -0.780794 0.623406
6.894546 -10.855532 37.732136 0.915431 -0.358565 0.182801
13.935257 -11.260017 1.113853 0.915431 -0.358565 0.182801
14.396943 -10.370119 1.113853 0.915431 -0.358565 0.182801
11.395974 -4.707145 26.683516 0.915431 -0.358565 0.182801
12.088513 -12.311718 0.482506 0.305002 -0.053439 -0.950851
12.896457 -7.700430 0.482506 0.305002 -0.053439 -0.950851
14.396943 -10.370119 1.113853 0.305002 -0.053439 -0.950851
1.008038 -10.531944 0.482508 -0.569697 -0.737706 -0.362263
2.046834 -11.179140 0.166830 -0.569697 -0.737706 -0.362263
-14.343026 -12.473566 28.577570 -0.569697 -0.737706 -0.362263
3.201020 5.971603 12.162475 0.029271 0.996597 0.077063
-7.994871 4.677187 33.154854 0.029271 0.996597 0.077063
-5.917280 4.677190 32.365665 0.029271 0.996597 0.077063
-6.378932 -13.444347 33.786201 -0.038915 -0.785252 0.617952
6.432859 -11.098231 37.574299 -0.038915 -0.785252 0.617952
6.548281 -10.855533 37.889973 -0.038915 -0.785252 0.617952
-4.763049 -3.170080 40.257534 -0.072704 0.409457 0.909428
-7.648590 -2.280189 39.626190 -0.072704 0.409457 0.909428
-7.648588 -3.331884 40.099701 -0.072704 0.409457 0.909428
11.395974 -4.464446 26.841352 0.986887 -0.088001 0.135315
11.395974 -4.707145 26.683516 0.986887 -0.088001 0.135315
14.396943 -10.370119 1.113853 0.986887 -0.088001 0.135315
-12.611699 -13.444359 30.471617 -0.310945 -0.930671 -0.192783
-14.343026 -12.473566 28.577570 -0.310945 -0.930671 -0.192783
2.623950 -14.415127 10.584101 -0.310945 -0.930671 -0.192783
-8.571977 4.191788 33.944042 -0.046567 0.805218 0.591148
6.548257 2.169322 37.889973 -0.046567 0.805218 0.591148
-6.378967 4.434491 33.786201 -0.046567 0.805218 0.591148
6.894546 -10.855532 37.732136 0.827516 -0.536637 0.165037
13.819837 -11.340918 1.429529 0.827516 -0.536637 0.165037
13.935257 -11.260017 1.113853 0.827516 -0.536637 0.165037
1.008038 -10.531944 0.482508 -0.395649 -0.197572 -0.896899
0.084663 -9.399349 0.640345 -0.395649 -0.197572 -0.896899
2.046834 -11.179140 0.166830 -0.395649 -0.197572 -0.896899
-6.378932 -13.444347 33.786201 0.144222 -0.982178 0.120526
4.816960 -14.415123 12.478149 0.144222 -0.982178 0.120526
6.432859 -11.098231 37.574299 0.144222 -0.982178 0.120526
-10.995797 -12.473559 32.997017 -0.436177 -0.668401 0.602487
-10.534111 -13.201656 32.523506 -0.436177 -0.668401 0.602487
-8.571943 -13.201653 33.944042 -0.436177 -0.668401 0.602487
12.088514 -12.392616 1.113853 0.521060 -0.849606 -0.081650
12.088513 -12.311718 0.482506 0.521060 -0.849606 -0.081650
13.935257 -11.260017 1.113853 0.521060 -0.849606 -0.081650
13.819837 -11.340918 1.429529 0.521060 -0.849606 -0.081650
-14.343026 -12.473566 28.577570 -0.371395 -0.893102 -0.253839
3.431894 -11.745436 0.008993 -0.371395 -0.893102 -0.253839
2.623950 -14.415127 10.584101 -0.371395 -0.893102 -0.253839
-7.994871 4.677187 33.154854 -0.060943 0.869470 0.490212
-8.571977 4.191788 33.944042 -0.060943 0.869470 0.490212
-6.378967 4.434491 33.786201 -0.060943 0.869470 0.490212
4.816960 -14.415123 12.478149 0.292102 -0.950405 0.106804
6.548282 -11.098231 37.258625 0.292102 -0.950405 0.106804
6.432859 -11.098231 37.574299 0.292102 -0.950405 0.106804
-7.648587 -4.221783 40.257538 0.000001 0.000000 1.000000
-4.763044 -5.435272 40.257534 0.000001 0.000000 1.000000
-4.763049 -3.170080 40.257534 0.000001 0.000000 1.000000
-14.343026 -12.473566 28.577570 -0.390636 -0.881423 -0.265512
2.046834 -11.179140 0.166830 -0.390636 -0.881423 -0.265512
3.431894 -11.745436 0.008993 -0.390636 -0.881423 -0.265512
-10.534111 -13.201656 32.523506 -0.281404 -0.877338 0.388702
-12.611699 -13.444359 30.471617 -0.281404 -0.877338 0.388702
-8.571943 -13.201653 33.944042 -0.281404 -0.877338 0.388702
-4.763044 -5.435272 40.257534 0.047102 0.000000 0.998890
-1.415820 -4.221771 40.099697 0.047102 0.000000 0.998890
-4.763049 -3.170080 40.257534 0.047102 0.000000 0.998890
9.664649 -6.163343 0.008991 -0.000001 0.000000 -1.000000
8.625867 -12.635324 0.008991 -0.000001 0.000000 -1.000000
5.624905 -12.311729 0.008993 -0.000001 0.000000 -1.000000
-12.611699 -13.444359 30.471617 -0.145447 -0.960718 0.236360
-10.303267 -13.444355 31.892155 -0.145447 -0.960718 0.236360
-8.571943 -13.201653 33.944042 -0.145447 -0.960718 0.236360
3 0 1 2
3 3 4 5
3 6 7 8
3 9 10 11
3 12 13 14
3 15 16 17
3 18 19 20
3 21 22 23
3 24 25 26
3 27 28 29
3 30 31 32
3 33 34 35
3 36 37 38
3 39 40 41
3 42 43 44
3 45 46 47
3 48 49 50
3 51 52 53
3 54 55 56
3 57 58 59
3 60 61 62
3 63 64 65
4 66 67 68 69
4 70 71 72 73
4 74 75 76 77
3 78 79 80
3 81 82 83
4 84 85 86 87
3 88 89 90
4 91 92 93 94
3 95 96 97
4 98 99 100 101
3 102 103 104
4 105 106 107 108
4 109 110 111 112
3 72 71 113
3 114 115 116
4 117 118 119 120
3 121 122 123
3 124 125 126
3 127 128 129
4 130 131 132 133
3 134 135 136
4 137 138 139 140
3 141 142 143
3 72 144 145
3 146 147 148
3 149 150 151
4 152 153 154 155
3 156 157 158
4 159 160 161 162
3 163 164 165
3 166 167 168
3 169 170 171
4 172 173 174 175
3 176 177 178
3 179 180 181
3 182 183 184
3 185 186 187
3 188 189 190
3 191 192 193
3 194 195 196
3 197 198 199
3 200 201 202
3 203 204 205
3 206 207 208
3 209 210 211
3 212 213 214
4 215 216 217 218
4 219 220 221 222
4 223 224 225 226
3 227 228 229
3 230 231 232
3 233 234 235
3 236 237 238
3 239 240 241
4 242 243 244 245
3 246 247 248
3 249 250 251
4 252 253 254 255
4 256 257 258 259
3 260 261 262
3 263 264 265
4 266 267 268 269
3 270 271 272
3 273 274 275
3 276 277 278
3 279 280 281
3 282 283 284
3 285 286 287
3 288 289 290
4 291 292 293 294
3 295 296 297
3 298 299 300
3 301 302 303
3 304 305 306
4 307 308 309 310
3 311 312 313
4 314 315 316 317
3 318 319 320
3 321 322 323
3 324 325 326
4 327 328 329 330
3 331 332 333
4 334 335 336 337
4 338 339 340 341
3 342 343 344
3 345 346 347
3 348 349 350
4 351 352 353 354
4 355 356 357 358
3 359 360 361
4 362 363 364 365
3 366 367 368
3 369 370 371
3 372 373 374
4 375 376 377 378
4 379 380 381 382
4 383 384 385 386
3 387 388 389
3 390 391 392
3 393 394 395
3 396 397 398
3 399 400 401
3 402 403 404
3 405 406 407
4 408 409 410 411
4 412 413 414 415
3 416 417 418
3 419 420 421
4 422 423 424 425
3 426 427 428
3 429 430 431
3 432 433 434
3 435 436 437
3 438 439 440
3 441 442 443
3 444 445 446
3 447 448 449
3 450 451 452
3 453 454 455
3 456 457 458
3 459 460 461
4 462 463 464 465
3 466 467 468
3 469 470 471
3 472 473 474
3 475 476 477
3 478 479 480
3 481 482 483
3 484 485 486
3 487 488 489
3 490 491 492
