ply
format ascii 1.0
comment Created by Blender 2.69 (sub 0) - www.blender.org, source file: ''
element vertex 97
property float x
property float y
property float z
element face 153
property list uchar uint vertex_indices
end_header
-7.648584 -5.354379 40.099701
-4.763044 -5.435272 40.257534
-7.648587 -4.221783 40.257538
-12.727139 -3.655493 38.837002
-12.727139 -4.140892 38.994839
-10.303285 -3.412790 39.626190
-6.378932 -13.444347 33.786201
-7.994836 -13.444351 33.154854
-7.533150 -13.606150 31.892155
-8.571943 -13.201653 33.944042
-6.840620 -12.716251 34.575394
-7.071465 -11.907255 35.206741
-12.611733 4.434479 30.471617
-10.303303 4.677183 31.892155
-10.072460 4.758083 30.787292
10.588003 3.868225 0.166830
11.511386 -1.713855 0.166830
8.625835 3.949121 0.008991
11.511396 -6.972337 0.166830
10.588035 -12.554419 0.166830
8.625867 -12.635324 0.008991
3.201058 -14.657825 12.162475
4.816958 -14.172424 7.900866
4.816960 -14.415123 12.478149
4.816921 5.486207 7.900866
3.201020 5.971603 12.162475
4.816922 5.728907 12.478149
-4.763049 -3.170080 40.257534
-7.648588 -3.331884 40.099701
-10.303284 -4.221786 39.784027
-12.727138 -4.707191 38.994839
-15.035570 -4.221796 37.574303
-12.727137 -5.192589 38.837002
-10.303282 -5.273483 39.626190
-10.072424 -13.606153 30.787292
-10.303267 -13.444355 31.892155
-12.611699 -13.444359 30.471617
-7.994871 4.677187 33.154854
-7.533185 4.758088 31.892155
9.664642 -2.522855 0.008991
9.664649 -6.163343 0.008991
-7.648590 -2.280189 39.626190
3.431894 -11.745436 0.008993
3.431867 3.059213 0.008993
5.624905 -12.311729 0.008993
12.896457 -7.700430 0.482506
12.896444 -0.985754 0.482506
-1.415820 -4.221771 40.099697
6.548257 2.169322 37.889973
8.395024 -13.201622 1.113853
12.088513 -12.311718 0.482506
12.088514 -12.392616 1.113853
0.315503 -4.221767 39.626186
12.088484 3.625528 0.482506
6.548281 -10.855533 37.889973
6.894546 -10.855532 37.732136
5.624876 3.625515 0.008993
2.623950 -14.415127 10.584101
5.740328 -12.878027 1.113855
8.394991 4.515418 1.113853
12.088484 3.706429 1.113853
-8.571977 4.191788 33.944042
-4.878484 3.463697 35.206738
-14.343026 -12.473566 28.577570
9.664652 -5.273447 32.523502
11.395974 -4.707145 26.683516
2.046834 -11.179140 0.166830
0.084644 0.713115 0.640345
2.046808 2.492913 0.166830
-7.071494 3.301892 35.206741
-10.995797 -12.473559 32.997017
9.664650 -4.221749 32.681339
13.819809 2.654735 1.429529
13.935230 2.573835 1.113853
5.740296 4.191814 1.113855
-6.378967 4.434491 33.786201
6.894521 2.169323 37.732136
-5.917280 4.677190 32.365665
8.972122 -4.221751 33.944038
-10.534111 -13.201656 32.523506
2.623912 5.728904 10.584101
-14.343058 3.787279 28.577570
6.432859 -11.098231 37.574299
6.548282 -11.098231 37.258625
13.819837 -11.340918 1.429529
0.084663 -9.399349 0.640345
-10.995829 3.787284 32.997017
1.008015 1.845713 0.482508
-13.650513 -4.221793 23.526773
14.396943 -10.370119 1.113853
14.396918 1.683939 1.113853
9.664649 -3.412752 32.523502
11.395973 -4.140847 26.683516
-7.648582 -6.244276 39.626190
11.395974 -4.464446 26.841352
13.935257 -11.260017 1.113853
1.008038 -10.531944 0.482508
3 0 1 2
3 3 4 5
3 6 7 8
3 9 10 11
3 12 13 14
3 15 16 17
3 18 19 20
3 21 22 23
3 24 25 26
3 27 28 2
3 5 4 29
3 29 4 30
3 4 31 30
3 30 31 32
3 31 4 3
3 29 30 33
3 33 30 32
3 8 7 34
3 7 35 34
3 34 35 36
3 13 37 14
3 14 37 38
3 16 39 17
3 40 18 20
4 28 41 5 29
4 42 43 40 44
4 45 18 16 46
3 27 47 48
4 49 19 50 51
3 35 7 9
4 8 21 23 6
3 47 52 48
4 15 53 46 16
3 7 6 9
4 54 55 48 52
4 45 50 19 18
3 40 43 56
3 57 58 22
4 59 60 53 15
3 61 62 48
3 21 57 22
3 40 56 17
4 31 63 36 32
3 64 55 65
4 66 67 68 42
3 62 69 48
3 40 17 39
3 42 44 58
3 36 70 32
4 41 27 48 69
3 64 71 55
4 60 72 73 53
3 57 42 58
3 43 74 56
3 42 68 43
4 75 48 76 77
3 71 78 55
3 36 79 70
3 43 80 74
3 68 81 43
3 54 82 55
3 23 49 51
3 80 24 74
3 81 80 43
3 82 83 55
3 72 76 73
3 83 23 51
3 80 25 24
4 12 25 80 81
4 51 84 55 83
4 39 16 18 40
3 25 38 37
3 49 20 19
3 66 85 67
3 12 86 13
3 22 58 49
4 44 20 49 58
3 81 31 12
3 48 55 76
4 13 86 61 37
4 31 3 86 12
3 55 78 76
3 67 87 68
4 63 31 81 88
3 89 45 46
3 78 71 76
3 87 81 68
3 12 14 25
3 23 22 49
3 89 46 90
3 71 91 76
4 56 74 59 17
3 17 59 15
3 14 38 25
3 46 53 90
3 91 92 76
4 86 3 5 61
3 52 47 54
4 76 92 90 73
3 53 73 90
3 72 60 76
3 87 67 81
4 0 2 29 33
3 47 1 54
4 41 69 61 5
4 85 88 81 67
3 0 93 1
3 60 26 76
3 74 24 59
4 93 11 54 1
4 26 25 77 76
3 0 33 93
4 94 89 90 92
3 29 2 28
3 24 26 59
3 69 62 61
4 9 11 93 33
4 91 71 94 92
4 36 57 21 34
3 26 60 59
3 11 10 54
3 88 85 63
3 8 34 21
3 37 75 77
3 10 9 54
3 95 50 89
4 64 65 94 71
4 32 70 9 33
3 85 96 63
3 9 6 54
4 55 95 89 65
3 50 45 89
3 96 66 63
3 25 37 77
3 6 82 54
3 27 41 28
3 94 65 89
3 36 63 57
3 61 48 75
3 55 84 95
3 96 85 66
3 6 23 82
3 70 79 9
4 51 50 95 84
3 63 42 57
3 37 61 75
3 23 83 82
3 2 1 27
3 63 66 42
3 79 36 9
3 1 47 27
3 40 20 44
3 36 35 9
