ply
format ascii 1.0
comment Created by Blender 2.69 (sub 0) - www.blender.org, source file: ''
element vertex 92
property float x
property float y
property float z
element face 92
property list uchar uint vertex_indices
end_header
0.155145 -0.475683 0.000000
0.147583 -0.452409 0.154509
-0.146310 -0.452409 0.154509
-0.153872 -0.475683 0.000000
0.048383 -0.147101 -0.475529
-0.047109 -0.147101 -0.475529
0.000637 -0.000154 -0.500000
0.125637 -0.090972 -0.475529
-0.326617 0.237610 -0.293893
-0.124363 0.384556 -0.293893
-0.090181 0.279354 -0.404509
-0.237127 0.172592 -0.404509
0.327891 -0.237919 0.293893
0.405146 -0.000154 0.293893
0.294530 -0.000154 0.404509
0.238401 -0.172900 0.404509
0.476165 -0.000154 -0.154509
0.385347 -0.279663 -0.154509
0.327891 -0.237919 -0.293893
0.405146 -0.000154 -0.293893
-0.124363 0.090664 0.475529
-0.153872 -0.000154 0.475529
0.000637 -0.000154 0.500000
-0.047109 0.146792 0.475529
-0.326617 0.237610 0.293893
-0.124363 0.384556 0.293893
-0.146309 0.452100 0.154509
-0.384074 0.279354 0.154509
-0.384074 -0.279663 0.154509
-0.474892 -0.000154 0.154509
-0.499363 -0.000154 0.000000
-0.403872 -0.294047 0.000000
-0.124363 -0.090972 0.475529
-0.237127 -0.172900 0.404509
-0.090181 -0.279663 0.404509
-0.047109 -0.147101 0.475529
0.327891 0.237610 -0.293893
0.385348 0.279354 -0.154509
0.091455 0.279354 -0.404509
0.125637 0.384556 -0.293893
0.125637 0.090664 0.475529
0.048383 0.146792 0.475529
0.091455 -0.279663 0.404509
0.125637 -0.384865 0.293893
0.147583 0.452100 0.154509
0.125637 0.384556 0.293893
-0.124363 -0.090972 -0.475529
-0.090181 -0.279663 -0.404509
-0.237127 -0.172900 -0.404509
-0.293256 -0.000154 -0.404509
-0.153872 -0.000154 -0.475529
0.147583 -0.452409 -0.154509
0.125637 -0.384865 -0.293893
0.155146 -0.000154 0.475529
0.327891 0.237610 0.293893
0.385348 0.279354 0.154509
0.238401 0.172592 -0.404509
-0.403872 0.293738 0.000000
0.048383 -0.147101 0.475529
0.125637 -0.090972 0.475529
0.476165 -0.000154 0.154509
-0.124363 0.090664 -0.475529
0.294530 -0.000154 -0.404509
-0.384074 -0.279663 -0.154509
-0.146310 -0.452409 -0.154509
-0.047109 0.146792 -0.475529
-0.153872 0.475374 0.000000
0.385348 -0.279663 0.154509
-0.293256 -0.000154 0.404509
0.238401 -0.172900 -0.404509
-0.474891 -0.000154 -0.154509
0.155146 0.475374 0.000000
0.048383 0.146792 -0.475529
-0.237127 0.172592 0.404509
0.091455 -0.279663 -0.404509
-0.124363 -0.384865 0.293893
0.405146 0.293738 0.000000
0.125637 0.090664 -0.475529
-0.384074 0.279354 -0.154509
-0.090181 0.279354 0.404509
-0.124363 -0.384865 -0.293893
-0.326618 -0.237918 0.293893
0.500637 -0.000154 0.000000
0.155145 -0.000154 -0.475529
-0.146309 0.452100 -0.154509
0.091455 0.279354 0.404509
0.405146 -0.294047 0.000000
-0.326618 -0.237918 -0.293893
-0.403872 -0.000154 0.293893
0.147583 0.452100 -0.154509
0.238401 0.172592 0.404509
-0.403872 -0.000154 -0.293893
4 0 1 2 3
4 4 5 6 7
4 8 9 10 11
4 12 13 14 15
4 16 17 18 19
4 20 21 22 23
4 24 25 26 27
4 28 29 30 31
4 32 33 34 35
4 19 36 37 16
4 38 10 9 39
4 22 40 41 23
4 42 43 12 15
4 44 26 25 45
4 46 5 47 48
4 49 50 46 48
4 51 52 18 17
3 22 53 40
4 45 54 55 44
4 39 36 56 38
4 27 57 30 29
4 22 58 59 53
4 54 13 60 55
4 49 11 61 50
4 36 19 62 56
4 3 31 63 64
4 35 34 42 58
4 11 10 65 61
4 51 0 3 64
4 27 26 66 57
4 67 60 13 12
4 32 21 68 33
4 18 69 62 19
4 12 43 1 67
4 30 70 63 31
4 71 66 26 44
4 72 65 10 38
4 20 73 68 21
4 18 52 74 69
4 34 75 43 42
4 55 76 71 44
4 56 77 72 38
4 30 57 78 70
4 20 23 79 73
4 64 80 52 51
4 33 81 75 34
4 55 60 82 76
4 56 62 83 77
4 66 84 78 57
4 85 79 23 41
4 67 86 82 60
4 63 87 80 64
4 33 68 88 81
4 69 7 83 62
4 68 73 24 88
4 89 84 66 71
4 40 90 85 41
4 46 50 6 5
4 91 87 63 70
4 0 86 67 1
4 69 74 4 7
4 8 91 70 78
4 71 76 37 89
4 40 53 14 90
4 61 65 6 50
4 78 84 9 8
4 59 15 14 53
4 73 79 25 24
4 75 81 28 2
4 82 16 37 76
4 80 87 48 47
4 45 25 79 85
4 72 77 6 65
4 75 2 1 43
4 80 47 74 52
4 39 9 84 89
4 82 86 17 16
4 59 58 42 15
4 81 88 29 28
4 87 91 49 48
3 77 83 6
4 90 54 45 85
4 0 51 17 86
3 83 7 6
4 91 8 11 49
3 58 22 35
4 47 5 4 74
4 37 36 39 89
4 22 21 32 35
4 90 14 13 54
4 88 24 27 29
4 28 31 3 2
