ply
format ascii 1.0
comment Created by Blender 2.69 (sub 0) - www.blender.org, source file: ''
element vertex 364
property float x
property float y
property float z
property float nx
property float ny
property float nz
element face 92
property list uchar uint vertex_indices
end_header
0.155145 -0.475683 0.000000 0.000000 -0.988844 0.148952
0.147583 -0.452409 0.154509 0.000000 -0.988844 0.148952
-0.146310 -0.452409 0.154509 0.000000 -0.988844 0.148952
-0.153872 -0.475683 0.000000 0.000000 -0.988844 0.148952
0.048383 -0.147101 -0.475529 0.048340 -0.148773 -0.987689
-0.047109 -0.147101 -0.475529 0.048340 -0.148773 -0.987689
0.000637 -0.000154 -0.500000 0.048340 -0.148773 -0.987689
0.125637 -0.090972 -0.475529 0.048340 -0.148773 -0.987689
-0.326617 0.237610 -0.293893 -0.425919 0.586229 -0.689151
-0.124363 0.384556 -0.293893 -0.425919 0.586229 -0.689151
-0.090181 0.279354 -0.404509 -0.425919 0.586229 -0.689151
-0.237127 0.172592 -0.404509 -0.425919 0.586229 -0.689151
0.327891 -0.237919 0.293893 0.689151 -0.223920 0.689152
0.405146 -0.000154 0.293893 0.689151 -0.223920 0.689152
0.294530 -0.000154 0.404509 0.689151 -0.223920 0.689152
0.238401 -0.172900 0.404509 0.689151 -0.223920 0.689152
0.476165 -0.000154 -0.154509 0.855863 -0.278087 -0.436081
0.385347 -0.279663 -0.154509 0.855863 -0.278087 -0.436081
0.327891 -0.237919 -0.293893 0.855863 -0.278087 -0.436081
0.405146 -0.000154 -0.293893 0.855863 -0.278087 -0.436081
-0.124363 0.090664 0.475529 -0.126554 0.091947 0.987689
-0.153872 -0.000154 0.475529 -0.126554 0.091947 0.987689
0.000637 -0.000154 0.500000 -0.126554 0.091947 0.987689
-0.047109 0.146792 0.475529 -0.126554 0.091947 0.987689
-0.326617 0.237610 0.293893 -0.528951 0.728040 0.436084
-0.124363 0.384556 0.293893 -0.528951 0.728040 0.436084
-0.146309 0.452100 0.154509 -0.528951 0.728040 0.436084
-0.384074 0.279354 0.154509 -0.528951 0.728040 0.436084
0.405146 -0.000154 -0.293893 0.855862 0.278087 -0.436083
0.327891 0.237610 -0.293893 0.855862 0.278087 -0.436083
0.385348 0.279354 -0.154509 0.855862 0.278087 -0.436083
0.476165 -0.000154 -0.154509 0.855862 0.278087 -0.436083
0.091455 0.279354 -0.404509 0.000000 0.724617 -0.689152
-0.090181 0.279354 -0.404509 0.000000 0.724617 -0.689152
-0.124363 0.384556 -0.293893 0.000000 0.724617 -0.689152
0.125637 0.384556 -0.293893 0.000000 0.724617 -0.689152
0.000637 -0.000154 0.500000 0.048339 0.148774 0.987689
0.125637 0.090664 0.475529 0.048339 0.148774 0.987689
0.048383 0.146792 0.475529 0.048339 0.148774 0.987689
-0.047109 0.146792 0.475529 0.048339 0.148774 0.987689
0.091455 -0.279663 0.404509 0.425919 -0.586227 0.689152
0.125637 -0.384865 0.293893 0.425919 -0.586227 0.689152
0.327891 -0.237919 0.293893 0.425919 -0.586227 0.689152
0.238401 -0.172900 0.404509 0.425919 -0.586227 0.689152
0.147583 0.452100 0.154509 0.000000 0.899906 0.436085
-0.146309 0.452100 0.154509 0.000000 0.899906 0.436085
-0.124363 0.384556 0.293893 0.000000 0.899906 0.436085
0.125637 0.384556 0.293893 0.000000 0.899906 0.436085
-0.124363 -0.090972 -0.475529 -0.277580 -0.382053 -0.881467
-0.047109 -0.147101 -0.475529 -0.277580 -0.382053 -0.881467
-0.090181 -0.279663 -0.404509 -0.277580 -0.382053 -0.881467
-0.237127 -0.172900 -0.404509 -0.277580 -0.382053 -0.881467
-0.384074 -0.279663 0.154509 -0.940448 -0.305569 0.148949
-0.474892 -0.000154 0.154509 -0.940448 -0.305569 0.148949
-0.499363 -0.000154 0.000000 -0.940448 -0.305569 0.148949
-0.403872 -0.294047 0.000000 -0.940448 -0.305569 0.148949
-0.293256 -0.000154 -0.404509 -0.449131 -0.145933 -0.881467
-0.153872 -0.000154 -0.475529 -0.449131 -0.145933 -0.881467
-0.124363 -0.090972 -0.475529 -0.449131 -0.145933 -0.881467
-0.237127 -0.172900 -0.404509 -0.449131 -0.145933 -0.881467
0.147583 -0.452409 -0.154509 0.528952 -0.728040 -0.436082
0.125637 -0.384865 -0.293893 0.528952 -0.728040 -0.436082
0.327891 -0.237919 -0.293893 0.528952 -0.728040 -0.436082
0.385347 -0.279663 -0.154509 0.528952 -0.728040 -0.436082
-0.124363 -0.090972 0.475529 -0.277580 -0.382053 0.881467
-0.237127 -0.172900 0.404509 -0.277580 -0.382053 0.881467
-0.090181 -0.279663 0.404509 -0.277580 -0.382053 0.881467
-0.047109 -0.147101 0.475529 -0.277580 -0.382053 0.881467
0.000637 -0.000154 0.500000 0.156228 0.050762 0.986416
0.155146 -0.000154 0.475529 0.156228 0.050762 0.986416
0.125637 0.090664 0.475529 0.156228 0.050762 0.986416
0.125637 0.384556 0.293893 0.528951 0.728040 0.436084
0.327891 0.237610 0.293893 0.528951 0.728040 0.436084
0.385348 0.279354 0.154509 0.528951 0.728040 0.436084
0.147583 0.452100 0.154509 0.528951 0.728040 0.436084
0.125637 0.384556 -0.293893 0.425919 0.586229 -0.689151
0.327891 0.237610 -0.293893 0.425919 0.586229 -0.689151
0.238401 0.172592 -0.404509 0.425919 0.586229 -0.689151
0.091455 0.279354 -0.404509 0.425919 0.586229 -0.689151
-0.384074 0.279354 0.154509 -0.940447 0.305570 0.148949
-0.403872 0.293738 0.000000 -0.940447 0.305570 0.148949
-0.499363 -0.000154 0.000000 -0.940447 0.305570 0.148949
-0.474892 -0.000154 0.154509 -0.940447 0.305570 0.148949
0.000637 -0.000154 0.500000 0.126555 -0.091947 0.987689
0.048383 -0.147101 0.475529 0.126555 -0.091947 0.987689
0.125637 -0.090972 0.475529 0.126555 -0.091947 0.987689
0.155146 -0.000154 0.475529 0.126555 -0.091947 0.987689
0.327891 0.237610 0.293893 0.855862 0.278087 0.436083
0.405146 -0.000154 0.293893 0.855862 0.278087 0.436083
0.476165 -0.000154 0.154509 0.855862 0.278087 0.436083
0.385348 0.279354 0.154509 0.855862 0.278087 0.436083
-0.293256 -0.000154 -0.404509 -0.449131 0.145933 -0.881467
-0.237127 0.172592 -0.404509 -0.449131 0.145933 -0.881467
-0.124363 0.090664 -0.475529 -0.449131 0.145933 -0.881467
-0.153872 -0.000154 -0.475529 -0.449131 0.145933 -0.881467
0.327891 0.237610 -0.293893 0.689152 0.223921 -0.689151
0.405146 -0.000154 -0.293893 0.689152 0.223921 -0.689151
0.294530 -0.000154 -0.404509 0.689152 0.223921 -0.689151
0.238401 0.172592 -0.404509 0.689152 0.223921 -0.689151
-0.153872 -0.475683 0.000000 -0.581229 -0.799991 -0.148951
-0.403872 -0.294047 0.000000 -0.581229 -0.799991 -0.148951
-0.384074 -0.279663 -0.154509 -0.581229 -0.799991 -0.148951
-0.146310 -0.452409 -0.154509 -0.581229 -0.799991 -0.148951
-0.047109 -0.147101 0.475529 0.000000 -0.472245 0.881467
-0.090181 -0.279663 0.404509 0.000000 -0.472245 0.881467
0.091455 -0.279663 0.404509 0.000000 -0.472245 0.881467
0.048383 -0.147101 0.475529 0.000000 -0.472245 0.881467
-0.237127 0.172592 -0.404509 -0.277578 0.382055 -0.881467
-0.090181 0.279354 -0.404509 -0.277578 0.382055 -0.881467
-0.047109 0.146792 -0.475529 -0.277578 0.382055 -0.881467
-0.124363 0.090664 -0.475529 -0.277578 0.382055 -0.881467
-0.153872 -0.475683 0.000000 0.000000 -0.988844 -0.148952
-0.146310 -0.452409 -0.154509 0.000000 -0.988844 -0.148952
0.147583 -0.452409 -0.154509 0.000000 -0.988844 -0.148952
0.155145 -0.475683 0.000000 0.000000 -0.988844 -0.148952
-0.384074 0.279354 0.154509 -0.581228 0.799992 0.148953
-0.146309 0.452100 0.154509 -0.581228 0.799992 0.148953
-0.153872 0.475374 0.000000 -0.581228 0.799992 0.148953
-0.403872 0.293738 0.000000 -0.581228 0.799992 0.148953
0.385348 -0.279663 0.154509 0.855862 -0.278086 0.436083
0.476165 -0.000154 0.154509 0.855862 -0.278086 0.436083
0.405146 -0.000154 0.293893 0.855862 -0.278086 0.436083
0.327891 -0.237919 0.293893 0.855862 -0.278086 0.436083
-0.124363 -0.090972 0.475529 -0.449131 -0.145933 0.881467
-0.153872 -0.000154 0.475529 -0.449131 -0.145933 0.881467
-0.293256 -0.000154 0.404509 -0.449131 -0.145933 0.881467
-0.237127 -0.172900 0.404509 -0.449131 -0.145933 0.881467
0.327891 -0.237919 -0.293893 0.689151 -0.223920 -0.689152
0.238401 -0.172900 -0.404509 0.689151 -0.223920 -0.689152
0.294530 -0.000154 -0.404509 0.689151 -0.223920 -0.689152
0.405146 -0.000154 -0.293893 0.689151 -0.223920 -0.689152
0.327891 -0.237919 0.293893 0.528951 -0.728040 0.436084
0.125637 -0.384865 0.293893 0.528951 -0.728040 0.436084
0.147583 -0.452409 0.154509 0.528951 -0.728040 0.436084
0.385348 -0.279663 0.154509 0.528951 -0.728040 0.436084
-0.499363 -0.000154 0.000000 -0.940448 -0.305567 -0.148952
-0.474891 -0.000154 -0.154509 -0.940448 -0.305567 -0.148952
-0.384074 -0.279663 -0.154509 -0.940448 -0.305567 -0.148952
-0.403872 -0.294047 0.000000 -0.940448 -0.305567 -0.148952
0.155146 0.475374 0.000000 0.000000 0.988844 0.148952
-0.153872 0.475374 0.000000 0.000000 0.988844 0.148952
-0.146309 0.452100 0.154509 0.000000 0.988844 0.148952
0.147583 0.452100 0.154509 0.000000 0.988844 0.148952
0.048383 0.146792 -0.475529 0.000000 0.472245 -0.881467
-0.047109 0.146792 -0.475529 0.000000 0.472245 -0.881467
-0.090181 0.279354 -0.404509 0.000000 0.472245 -0.881467
0.091455 0.279354 -0.404509 0.000000 0.472245 -0.881467
-0.124363 0.090664 0.475529 -0.449131 0.145933 0.881467
-0.237127 0.172592 0.404509 -0.449131 0.145933 0.881467
-0.293256 -0.000154 0.404509 -0.449131 0.145933 0.881467
-0.153872 -0.000154 0.475529 -0.449131 0.145933 0.881467
0.327891 -0.237919 -0.293893 0.425919 -0.586227 -0.689152
0.125637 -0.384865 -0.293893 0.425919 -0.586227 -0.689152
0.091455 -0.279663 -0.404509 0.425919 -0.586227 -0.689152
0.238401 -0.172900 -0.404509 0.425919 -0.586227 -0.689152
-0.090181 -0.279663 0.404509 0.000000 -0.724617 0.689152
-0.124363 -0.384865 0.293893 0.000000 -0.724617 0.689152
0.125637 -0.384865 0.293893 0.000000 -0.724617 0.689152
0.091455 -0.279663 0.404509 0.000000 -0.724617 0.689152
0.385348 0.279354 0.154509 0.581228 0.799992 0.148953
0.405146 0.293738 0.000000 0.581228 0.799992 0.148953
0.155146 0.475374 0.000000 0.581228 0.799992 0.148953
0.147583 0.452100 0.154509 0.581228 0.799992 0.148953
0.238401 0.172592 -0.404509 0.277578 0.382055 -0.881467
0.125637 0.090664 -0.475529 0.277578 0.382055 -0.881467
0.048383 0.146792 -0.475529 0.277578 0.382055 -0.881467
0.091455 0.279354 -0.404509 0.277578 0.382055 -0.881467
-0.499363 -0.000154 0.000000 -0.940447 0.305568 -0.148952
-0.403872 0.293738 0.000000 -0.940447 0.305568 -0.148952
-0.384074 0.279354 -0.154509 -0.940447 0.305568 -0.148952
-0.474891 -0.000154 -0.154509 -0.940447 0.305568 -0.148952
-0.124363 0.090664 0.475529 -0.277578 0.382055 0.881467
-0.047109 0.146792 0.475529 -0.277578 0.382055 0.881467
-0.090181 0.279354 0.404509 -0.277578 0.382055 0.881467
-0.237127 0.172592 0.404509 -0.277578 0.382055 0.881467
-0.146310 -0.452409 -0.154509 0.000000 -0.899906 -0.436085
-0.124363 -0.384865 -0.293893 0.000000 -0.899906 -0.436085
0.125637 -0.384865 -0.293893 0.000000 -0.899906 -0.436085
0.147583 -0.452409 -0.154509 0.000000 -0.899906 -0.436085
-0.237127 -0.172900 0.404509 -0.425920 -0.586227 0.689152
-0.326618 -0.237918 0.293893 -0.425920 -0.586227 0.689152
-0.124363 -0.384865 0.293893 -0.425920 -0.586227 0.689152
-0.090181 -0.279663 0.404509 -0.425920 -0.586227 0.689152
0.385348 0.279354 0.154509 0.940447 0.305568 0.148952
0.476165 -0.000154 0.154509 0.940447 0.305568 0.148952
0.500637 -0.000154 0.000000 0.940447 0.305568 0.148952
0.405146 0.293738 0.000000 0.940447 0.305568 0.148952
0.238401 0.172592 -0.404509 0.449131 0.145931 -0.881468
0.294530 -0.000154 -0.404509 0.449131 0.145931 -0.881468
0.155145 -0.000154 -0.475529 0.449131 0.145931 -0.881468
0.125637 0.090664 -0.475529 0.449131 0.145931 -0.881468
-0.153872 0.475374 0.000000 -0.581228 0.799992 -0.148953
-0.146309 0.452100 -0.154509 -0.581228 0.799992 -0.148953
-0.384074 0.279354 -0.154509 -0.581228 0.799992 -0.148953
-0.403872 0.293738 0.000000 -0.581228 0.799992 -0.148953
0.091455 0.279354 0.404509 0.000000 0.472245 0.881467
-0.090181 0.279354 0.404509 0.000000 0.472245 0.881467
-0.047109 0.146792 0.475529 0.000000 0.472245 0.881467
0.048383 0.146792 0.475529 0.000000 0.472245 0.881467
0.385348 -0.279663 0.154509 0.940448 -0.305567 0.148952
0.405146 -0.294047 0.000000 0.940448 -0.305567 0.148952
0.500637 -0.000154 0.000000 0.940448 -0.305567 0.148952
0.476165 -0.000154 0.154509 0.940448 -0.305567 0.148952
-0.384074 -0.279663 -0.154509 -0.528951 -0.728038 -0.436086
-0.326618 -0.237918 -0.293893 -0.528951 -0.728038 -0.436086
-0.124363 -0.384865 -0.293893 -0.528951 -0.728038 -0.436086
-0.146310 -0.452409 -0.154509 -0.528951 -0.728038 -0.436086
-0.237127 -0.172900 0.404509 -0.689151 -0.223919 0.689153
-0.293256 -0.000154 0.404509 -0.689151 -0.223919 0.689153
-0.403872 -0.000154 0.293893 -0.689151 -0.223919 0.689153
-0.326618 -0.237918 0.293893 -0.689151 -0.223919 0.689153
0.238401 -0.172900 -0.404509 0.449131 -0.145931 -0.881468
0.125637 -0.090972 -0.475529 0.449131 -0.145931 -0.881468
0.155145 -0.000154 -0.475529 0.449131 -0.145931 -0.881468
0.294530 -0.000154 -0.404509 0.449131 -0.145931 -0.881468
-0.293256 -0.000154 0.404509 -0.689152 0.223921 0.689151
-0.237127 0.172592 0.404509 -0.689152 0.223921 0.689151
-0.326617 0.237610 0.293893 -0.689152 0.223921 0.689151
-0.403872 -0.000154 0.293893 -0.689152 0.223921 0.689151
0.147583 0.452100 -0.154509 0.000000 0.988844 -0.148952
-0.146309 0.452100 -0.154509 0.000000 0.988844 -0.148952
-0.153872 0.475374 0.000000 0.000000 0.988844 -0.148952
0.155146 0.475374 0.000000 0.000000 0.988844 -0.148952
0.125637 0.090664 0.475529 0.277578 0.382055 0.881467
0.238401 0.172592 0.404509 0.277578 0.382055 0.881467
0.091455 0.279354 0.404509 0.277578 0.382055 0.881467
0.048383 0.146792 0.475529 0.277578 0.382055 0.881467
-0.124363 -0.090972 -0.475529 -0.126554 -0.091947 -0.987689
-0.153872 -0.000154 -0.475529 -0.126554 -0.091947 -0.987689
0.000637 -0.000154 -0.500000 -0.126554 -0.091947 -0.987689
-0.047109 -0.147101 -0.475529 -0.126554 -0.091947 -0.987689
-0.403872 -0.000154 -0.293893 -0.855863 -0.278085 -0.436082
-0.326618 -0.237918 -0.293893 -0.855863 -0.278085 -0.436082
-0.384074 -0.279663 -0.154509 -0.855863 -0.278085 -0.436082
-0.474891 -0.000154 -0.154509 -0.855863 -0.278085 -0.436082
0.385348 -0.279663 0.154509 0.581227 -0.799993 0.148951
0.147583 -0.452409 0.154509 0.581227 -0.799993 0.148951
0.155145 -0.475683 0.000000 0.581227 -0.799993 0.148951
0.405146 -0.294047 0.000000 0.581227 -0.799993 0.148951
0.238401 -0.172900 -0.404509 0.277580 -0.382053 -0.881467
0.091455 -0.279663 -0.404509 0.277580 -0.382053 -0.881467
0.048383 -0.147101 -0.475529 0.277580 -0.382053 -0.881467
0.125637 -0.090972 -0.475529 0.277580 -0.382053 -0.881467
-0.326617 0.237610 -0.293893 -0.855862 0.278087 -0.436083
-0.403872 -0.000154 -0.293893 -0.855862 0.278087 -0.436083
-0.474891 -0.000154 -0.154509 -0.855862 0.278087 -0.436083
-0.384074 0.279354 -0.154509 -0.855862 0.278087 -0.436083
0.155146 0.475374 0.000000 0.581228 0.799992 -0.148953
0.405146 0.293738 0.000000 0.581228 0.799992 -0.148953
0.385348 0.279354 -0.154509 0.581228 0.799992 -0.148953
0.147583 0.452100 -0.154509 0.581228 0.799992 -0.148953
0.125637 0.090664 0.475529 0.449131 0.145933 0.881467
0.155146 -0.000154 0.475529 0.449131 0.145933 0.881467
0.294530 -0.000154 0.404509 0.449131 0.145933 0.881467
0.238401 0.172592 0.404509 0.449131 0.145933 0.881467
-0.124363 0.090664 -0.475529 -0.126554 0.091947 -0.987689
-0.047109 0.146792 -0.475529 -0.126554 0.091947 -0.987689
0.000637 -0.000154 -0.500000 -0.126554 0.091947 -0.987689
-0.153872 -0.000154 -0.475529 -0.126554 0.091947 -0.987689
-0.384074 0.279354 -0.154509 -0.528951 0.728040 -0.436084
-0.146309 0.452100 -0.154509 -0.528951 0.728040 -0.436084
-0.124363 0.384556 -0.293893 -0.528951 0.728040 -0.436084
-0.326617 0.237610 -0.293893 -0.528951 0.728040 -0.436084
0.125637 -0.090972 0.475529 0.449131 -0.145933 0.881467
0.238401 -0.172900 0.404509 0.449131 -0.145933 0.881467
0.294530 -0.000154 0.404509 0.449131 -0.145933 0.881467
0.155146 -0.000154 0.475529 0.449131 -0.145933 0.881467
-0.237127 0.172592 0.404509 -0.425919 0.586229 0.689151
-0.090181 0.279354 0.404509 -0.425919 0.586229 0.689151
-0.124363 0.384556 0.293893 -0.425919 0.586229 0.689151
-0.326617 0.237610 0.293893 -0.425919 0.586229 0.689151
-0.124363 -0.384865 0.293893 -0.528951 -0.728038 0.436086
-0.326618 -0.237918 0.293893 -0.528951 -0.728038 0.436086
-0.384074 -0.279663 0.154509 -0.528951 -0.728038 0.436086
-0.146310 -0.452409 0.154509 -0.528951 -0.728038 0.436086
0.500637 -0.000154 0.000000 0.940447 0.305568 -0.148952
0.476165 -0.000154 -0.154509 0.940447 0.305568 -0.148952
0.385348 0.279354 -0.154509 0.940447 0.305568 -0.148952
0.405146 0.293738 0.000000 0.940447 0.305568 -0.148952
-0.124363 -0.384865 -0.293893 -0.425920 -0.586227 -0.689152
-0.326618 -0.237918 -0.293893 -0.425920 -0.586227 -0.689152
-0.237127 -0.172900 -0.404509 -0.425920 -0.586227 -0.689152
-0.090181 -0.279663 -0.404509 -0.425920 -0.586227 -0.689152
0.125637 0.384556 0.293893 0.000000 0.724617 0.689152
-0.124363 0.384556 0.293893 0.000000 0.724617 0.689152
-0.090181 0.279354 0.404509 0.000000 0.724617 0.689152
0.091455 0.279354 0.404509 0.000000 0.724617 0.689152
0.048383 0.146792 -0.475529 0.048339 0.148774 -0.987689
0.125637 0.090664 -0.475529 0.048339 0.148774 -0.987689
0.000637 -0.000154 -0.500000 0.048339 0.148774 -0.987689
-0.047109 0.146792 -0.475529 0.048339 0.148774 -0.987689
-0.124363 -0.384865 0.293893 0.000000 -0.899906 0.436085
-0.146310 -0.452409 0.154509 0.000000 -0.899906 0.436085
0.147583 -0.452409 0.154509 0.000000 -0.899906 0.436085
0.125637 -0.384865 0.293893 0.000000 -0.899906 0.436085
-0.124363 -0.384865 -0.293893 0.000000 -0.724617 -0.689152
-0.090181 -0.279663 -0.404509 0.000000 -0.724617 -0.689152
0.091455 -0.279663 -0.404509 0.000000 -0.724617 -0.689152
0.125637 -0.384865 -0.293893 0.000000 -0.724617 -0.689152
0.125637 0.384556 -0.293893 0.000000 0.899906 -0.436085
-0.124363 0.384556 -0.293893 0.000000 0.899906 -0.436085
-0.146309 0.452100 -0.154509 0.000000 0.899906 -0.436085
0.147583 0.452100 -0.154509 0.000000 0.899906 -0.436085
0.500637 -0.000154 0.000000 0.940447 -0.305569 -0.148955
0.405146 -0.294047 0.000000 0.940447 -0.305569 -0.148955
0.385347 -0.279663 -0.154509 0.940447 -0.305569 -0.148955
0.476165 -0.000154 -0.154509 0.940447 -0.305569 -0.148955
0.125637 -0.090972 0.475529 0.277580 -0.382053 0.881467
0.048383 -0.147101 0.475529 0.277580 -0.382053 0.881467
0.091455 -0.279663 0.404509 0.277580 -0.382053 0.881467
0.238401 -0.172900 0.404509 0.277580 -0.382053 0.881467
-0.326618 -0.237918 0.293893 -0.855861 -0.278086 0.436084
-0.403872 -0.000154 0.293893 -0.855861 -0.278086 0.436084
-0.474892 -0.000154 0.154509 -0.855861 -0.278086 0.436084
-0.384074 -0.279663 0.154509 -0.855861 -0.278086 0.436084
-0.326618 -0.237918 -0.293893 -0.689151 -0.223919 -0.689153
-0.403872 -0.000154 -0.293893 -0.689151 -0.223919 -0.689153
-0.293256 -0.000154 -0.404509 -0.689151 -0.223919 -0.689153
-0.237127 -0.172900 -0.404509 -0.689151 -0.223919 -0.689153
0.125637 0.090664 -0.475529 0.156229 0.050761 -0.986416
0.155145 -0.000154 -0.475529 0.156229 0.050761 -0.986416
0.000637 -0.000154 -0.500000 0.156229 0.050761 -0.986416
0.238401 0.172592 0.404509 0.425919 0.586229 0.689151
0.327891 0.237610 0.293893 0.425919 0.586229 0.689151
0.125637 0.384556 0.293893 0.425919 0.586229 0.689151
0.091455 0.279354 0.404509 0.425919 0.586229 0.689151
0.155145 -0.475683 0.000000 0.581228 -0.799992 -0.148953
0.147583 -0.452409 -0.154509 0.581228 -0.799992 -0.148953
0.385347 -0.279663 -0.154509 0.581228 -0.799992 -0.148953
0.405146 -0.294047 0.000000 0.581228 -0.799992 -0.148953
0.155145 -0.000154 -0.475529 0.156229 -0.050761 -0.986416
0.125637 -0.090972 -0.475529 0.156229 -0.050761 -0.986416
0.000637 -0.000154 -0.500000 0.156229 -0.050761 -0.986416
-0.403872 -0.000154 -0.293893 -0.689152 0.223921 -0.689151
-0.326617 0.237610 -0.293893 -0.689152 0.223921 -0.689151
-0.237127 0.172592 -0.404509 -0.689152 0.223921 -0.689151
-0.293256 -0.000154 -0.404509 -0.689152 0.223921 -0.689151
0.048383 -0.147101 0.475529 0.000000 -0.164267 0.986416
0.000637 -0.000154 0.500000 0.000000 -0.164267 0.986416
-0.047109 -0.147101 0.475529 0.000000 -0.164267 0.986416
-0.090181 -0.279663 -0.404509 0.000000 -0.472245 -0.881467
-0.047109 -0.147101 -0.475529 0.000000 -0.472245 -0.881467
0.048383 -0.147101 -0.475529 0.000000 -0.472245 -0.881467
0.091455 -0.279663 -0.404509 0.000000 -0.472245 -0.881467
0.385348 0.279354 -0.154509 0.528951 0.728040 -0.436084
0.327891 0.237610 -0.293893 0.528951 0.728040 -0.436084
0.125637 0.384556 -0.293893 0.528951 0.728040 -0.436084
0.147583 0.452100 -0.154509 0.528951 0.728040 -0.436084
0.000637 -0.000154 0.500000 -0.126554 -0.091947 0.987689
-0.153872 -0.000154 0.475529 -0.126554 -0.091947 0.987689
-0.124363 -0.090972 0.475529 -0.126554 -0.091947 0.987689
-0.047109 -0.147101 0.475529 -0.126554 -0.091947 0.987689
0.238401 0.172592 0.404509 0.689152 0.223921 0.689151
0.294530 -0.000154 0.404509 0.689152 0.223921 0.689151
0.405146 -0.000154 0.293893 0.689152 0.223921 0.689151
0.327891 0.237610 0.293893 0.689152 0.223921 0.689151
-0.403872 -0.000154 0.293893 -0.855860 0.278088 0.436086
-0.326617 0.237610 0.293893 -0.855860 0.278088 0.436086
-0.384074 0.279354 0.154509 -0.855860 0.278088 0.436086
-0.474892 -0.000154 0.154509 -0.855860 0.278088 0.436086
-0.384074 -0.279663 0.154509 -0.581229 -0.799991 0.148951
-0.403872 -0.294047 0.000000 -0.581229 -0.799991 0.148951
-0.153872 -0.475683 0.000000 -0.581229 -0.799991 0.148951
-0.146310 -0.452409 0.154509 -0.581229 -0.799991 0.148951
4 0 1 2 3
4 4 5 6 7
4 8 9 10 11
4 12 13 14 15
4 16 17 18 19
4 20 21 22 23
4 24 25 26 27
4 28 29 30 31
4 32 33 34 35
4 36 37 38 39
4 40 41 42 43
4 44 45 46 47
4 48 49 50 51
4 52 53 54 55
4 56 57 58 59
4 60 61 62 63
4 64 65 66 67
3 68 69 70
4 71 72 73 74
4 75 76 77 78
4 79 80 81 82
4 83 84 85 86
4 87 88 89 90
4 91 92 93 94
4 95 96 97 98
4 99 100 101 102
4 103 104 105 106
4 107 108 109 110
4 111 112 113 114
4 115 116 117 118
4 119 120 121 122
4 123 124 125 126
4 127 128 129 130
4 131 132 133 134
4 135 136 137 138
4 139 140 141 142
4 143 144 145 146
4 147 148 149 150
4 151 152 153 154
4 155 156 157 158
4 159 160 161 162
4 163 164 165 166
4 167 168 169 170
4 171 172 173 174
4 175 176 177 178
4 179 180 181 182
4 183 184 185 186
4 187 188 189 190
4 191 192 193 194
4 195 196 197 198
4 199 200 201 202
4 203 204 205 206
4 207 208 209 210
4 211 212 213 214
4 215 216 217 218
4 219 220 221 222
4 223 224 225 226
4 227 228 229 230
4 231 232 233 234
4 235 236 237 238
4 239 240 241 242
4 243 244 245 246
4 247 248 249 250
4 251 252 253 254
4 255 256 257 258
4 259 260 261 262
4 263 264 265 266
4 267 268 269 270
4 271 272 273 274
4 275 276 277 278
4 279 280 281 282
4 283 284 285 286
4 287 288 289 290
4 291 292 293 294
4 295 296 297 298
4 299 300 301 302
4 303 304 305 306
4 307 308 309 310
4 311 312 313 314
4 315 316 317 318
3 319 320 321
4 322 323 324 325
4 326 327 328 329
3 330 331 332
4 333 334 335 336
3 337 338 339
4 340 341 342 343
4 344 345 346 347
4 348 349 350 351
4 352 353 354 355
4 356 357 358 359
4 360 361 362 363
