ply
format ascii 1.0
comment Created by Blender 2.69 (sub 0) - www.blender.org, source file: ''
element vertex 180
property float x
property float y
property float z
property float nx
property float ny
property float nz
element face 52
property list uchar uint vertex_indices
end_header
0.498061 0.000000 0.000000 0.908661 0.295242 0.295242
0.402940 0.292753 0.000000 0.908661 0.295242 0.295242
0.387549 0.281571 0.058551 0.908661 0.295242 0.295242
0.479037 0.000000 0.058551 0.908661 0.295242 0.295242
0.479037 0.000000 0.058551 0.577350 0.187593 0.794654
0.387549 0.281571 0.058551 0.577350 0.187593 0.794654
0.347255 0.252296 0.094737 0.577350 0.187593 0.794654
0.429231 0.000000 0.094737 0.577350 0.187593 0.794654
0.429231 0.000000 -0.094737 0.577350 0.187593 -0.794654
0.347255 0.252296 -0.094737 0.577350 0.187593 -0.794654
0.387549 0.281571 -0.058551 0.577350 0.187593 -0.794654
0.479037 0.000000 -0.058551 0.577350 0.187593 -0.794654
0.498061 0.000000 0.000000 0.908661 0.295242 -0.295242
0.479037 0.000000 -0.058551 0.908661 0.295242 -0.295242
0.387549 0.281571 -0.058551 0.908661 0.295242 -0.295242
0.402940 0.292753 0.000000 0.908661 0.295242 -0.295242
0.402940 0.292753 0.000000 0.561583 0.772953 0.295242
0.153910 0.473685 0.000000 0.561583 0.772953 0.295242
0.148031 0.455591 0.058551 0.561583 0.772953 0.295242
0.387549 0.281571 0.058551 0.561583 0.772953 0.295242
0.387549 0.281571 0.058551 0.356822 0.491123 0.794654
0.148031 0.455591 0.058551 0.356822 0.491123 0.794654
0.132640 0.408223 0.094737 0.356822 0.491123 0.794654
0.347255 0.252296 0.094737 0.356822 0.491123 0.794654
0.347255 0.252296 -0.094737 0.356822 0.491123 -0.794654
0.132640 0.408223 -0.094737 0.356822 0.491123 -0.794654
0.148031 0.455591 -0.058551 0.356822 0.491123 -0.794654
0.387549 0.281571 -0.058551 0.356822 0.491123 -0.794654
0.387549 0.281571 -0.058551 0.561583 0.772953 -0.295242
0.148031 0.455591 -0.058551 0.561583 0.772953 -0.295242
0.153910 0.473685 0.000000 0.561583 0.772953 -0.295242
0.402940 0.292753 0.000000 0.561583 0.772953 -0.295242
0.153910 0.473685 0.000000 0.000000 0.955423 0.295241
-0.153909 0.473685 0.000000 0.000000 0.955423 0.295241
-0.148031 0.455592 0.058551 0.000000 0.955423 0.295241
0.148031 0.455591 0.058551 0.000000 0.955423 0.295241
0.148031 0.455591 0.058551 0.000000 0.607062 0.794654
-0.148031 0.455592 0.058551 0.000000 0.607062 0.794654
-0.132640 0.408223 0.094737 0.000000 0.607062 0.794654
0.132640 0.408223 0.094737 0.000000 0.607062 0.794654
0.132640 0.408223 -0.094737 0.000000 0.607062 -0.794654
-0.132640 0.408223 -0.094737 0.000000 0.607062 -0.794654
-0.148031 0.455592 -0.058551 0.000000 0.607062 -0.794654
0.148031 0.455591 -0.058551 0.000000 0.607062 -0.794654
0.148031 0.455591 -0.058551 0.000000 0.955423 -0.295241
-0.148031 0.455592 -0.058551 0.000000 0.955423 -0.295241
-0.153909 0.473685 0.000000 0.000000 0.955423 -0.295241
0.153910 0.473685 0.000000 0.000000 0.955423 -0.295241
-0.153909 0.473685 0.000000 -0.561584 0.772953 0.295242
-0.402940 0.292753 0.000000 -0.561584 0.772953 0.295242
-0.387549 0.281571 0.058551 -0.561584 0.772953 0.295242
-0.148031 0.455592 0.058551 -0.561584 0.772953 0.295242
-0.148031 0.455592 0.058551 -0.356822 0.491123 0.794655
-0.387549 0.281571 0.058551 -0.356822 0.491123 0.794655
-0.347255 0.252296 0.094737 -0.356822 0.491123 0.794655
-0.132640 0.408223 0.094737 -0.356822 0.491123 0.794655
-0.132640 0.408223 -0.094737 -0.356822 0.491123 -0.794655
-0.347255 0.252296 -0.094737 -0.356822 0.491123 -0.794655
-0.387549 0.281571 -0.058551 -0.356822 0.491123 -0.794655
-0.148031 0.455592 -0.058551 -0.356822 0.491123 -0.794655
-0.148031 0.455592 -0.058551 -0.561584 0.772953 -0.295242
-0.387549 0.281571 -0.058551 -0.561584 0.772953 -0.295242
-0.402940 0.292753 0.000000 -0.561584 0.772953 -0.295242
-0.153909 0.473685 0.000000 -0.561584 0.772953 -0.295242
-0.402940 0.292753 0.000000 -0.908661 0.295242 0.295242
-0.498061 0.000000 0.000000 -0.908661 0.295242 0.295242
-0.479037 0.000000 0.058551 -0.908661 0.295242 0.295242
-0.387549 0.281571 0.058551 -0.908661 0.295242 0.295242
-0.387549 0.281571 0.058551 -0.577350 0.187593 0.794654
-0.479037 0.000000 0.058551 -0.577350 0.187593 0.794654
-0.429231 0.000000 0.094737 -0.577350 0.187593 0.794654
-0.347255 0.252296 0.094737 -0.577350 0.187593 0.794654
-0.347255 0.252296 -0.094737 -0.577350 0.187593 -0.794654
-0.429231 0.000000 -0.094737 -0.577350 0.187593 -0.794654
-0.479037 0.000000 -0.058551 -0.577350 0.187593 -0.794654
-0.387549 0.281571 -0.058551 -0.577350 0.187593 -0.794654
-0.387549 0.281571 -0.058551 -0.908661 0.295242 -0.295242
-0.479037 0.000000 -0.058551 -0.908661 0.295242 -0.295242
-0.498061 0.000000 0.000000 -0.908661 0.295242 -0.295242
-0.402940 0.292753 0.000000 -0.908661 0.295242 -0.295242
-0.498061 0.000000 0.000000 -0.908661 -0.295242 0.295242
-0.402940 -0.292753 0.000000 -0.908661 -0.295242 0.295242
-0.387549 -0.281571 0.058551 -0.908661 -0.295242 0.295242
-0.479037 0.000000 0.058551 -0.908661 -0.295242 0.295242
-0.479037 0.000000 0.058551 -0.577350 -0.187593 0.794654
-0.387549 -0.281571 0.058551 -0.577350 -0.187593 0.794654
-0.347255 -0.252296 0.094737 -0.577350 -0.187593 0.794654
-0.429231 0.000000 0.094737 -0.577350 -0.187593 0.794654
-0.429231 0.000000 -0.094737 -0.577350 -0.187593 -0.794654
-0.347255 -0.252296 -0.094737 -0.577350 -0.187593 -0.794654
-0.387549 -0.281571 -0.058551 -0.577350 -0.187593 -0.794654
-0.479037 0.000000 -0.058551 -0.577350 -0.187593 -0.794654
-0.479037 0.000000 -0.058551 -0.908661 -0.295242 -0.295242
-0.387549 -0.281571 -0.058551 -0.908661 -0.295242 -0.295242
-0.402940 -0.292753 0.000000 -0.908661 -0.295242 -0.295242
-0.498061 0.000000 0.000000 -0.908661 -0.295242 -0.295242
-0.402940 -0.292753 0.000000 -0.561584 -0.772953 0.295242
-0.153909 -0.473685 0.000000 -0.561584 -0.772953 0.295242
-0.148031 -0.455592 0.058551 -0.561584 -0.772953 0.295242
-0.387549 -0.281571 0.058551 -0.561584 -0.772953 0.295242
-0.387549 -0.281571 0.058551 -0.356822 -0.491123 0.794655
-0.148031 -0.455592 0.058551 -0.356822 -0.491123 0.794655
-0.132640 -0.408223 0.094737 -0.356822 -0.491123 0.794655
-0.347255 -0.252296 0.094737 -0.356822 -0.491123 0.794655
-0.347255 -0.252296 -0.094737 -0.356822 -0.491123 -0.794655
-0.132640 -0.408223 -0.094737 -0.356822 -0.491123 -0.794655
-0.148031 -0.455592 -0.058551 -0.356822 -0.491123 -0.794655
-0.387549 -0.281571 -0.058551 -0.356822 -0.491123 -0.794655
-0.387549 -0.281571 -0.058551 -0.561584 -0.772953 -0.295242
-0.148031 -0.455592 -0.058551 -0.561584 -0.772953 -0.295242
-0.153909 -0.473685 0.000000 -0.561584 -0.772953 -0.295242
-0.402940 -0.292753 0.000000 -0.561584 -0.772953 -0.295242
-0.153909 -0.473685 0.000000 0.000000 -0.955423 0.295241
0.153910 -0.473685 0.000000 0.000000 -0.955423 0.295241
0.148031 -0.455591 0.058551 0.000000 -0.955423 0.295241
-0.148031 -0.455592 0.058551 0.000000 -0.955423 0.295241
-0.148031 -0.455592 0.058551 0.000000 -0.607062 0.794654
0.148031 -0.455591 0.058551 0.000000 -0.607062 0.794654
0.132640 -0.408223 0.094737 0.000000 -0.607062 0.794654
-0.132640 -0.408223 0.094737 0.000000 -0.607062 0.794654
-0.132640 -0.408223 -0.094737 0.000000 -0.607062 -0.794654
0.132640 -0.408223 -0.094737 0.000000 -0.607062 -0.794654
0.148031 -0.455591 -0.058551 0.000000 -0.607062 -0.794654
-0.148031 -0.455592 -0.058551 0.000000 -0.607062 -0.794654
-0.148031 -0.455592 -0.058551 0.000000 -0.955423 -0.295241
0.148031 -0.455591 -0.058551 0.000000 -0.955423 -0.295241
0.153910 -0.473685 0.000000 0.000000 -0.955423 -0.295241
-0.153909 -0.473685 0.000000 0.000000 -0.955423 -0.295241
0.153910 -0.473685 0.000000 0.561583 -0.772953 0.295242
0.402940 -0.292753 0.000000 0.561583 -0.772953 0.295242
0.387549 -0.281571 0.058551 0.561583 -0.772953 0.295242
0.148031 -0.455591 0.058551 0.561583 -0.772953 0.295242
0.148031 -0.455591 0.058551 0.356822 -0.491124 0.794654
0.387549 -0.281571 0.058551 0.356822 -0.491124 0.794654
0.347255 -0.252296 0.094737 0.356822 -0.491124 0.794654
0.132640 -0.408223 0.094737 0.356822 -0.491124 0.794654
0.132640 -0.408223 -0.094737 0.356822 -0.491124 -0.794654
0.347255 -0.252296 -0.094737 0.356822 -0.491124 -0.794654
0.387549 -0.281571 -0.058551 0.356822 -0.491124 -0.794654
0.148031 -0.455591 -0.058551 0.356822 -0.491124 -0.794654
0.148031 -0.455591 -0.058551 0.561583 -0.772953 -0.295242
0.387549 -0.281571 -0.058551 0.561583 -0.772953 -0.295242
0.402940 -0.292753 0.000000 0.561583 -0.772953 -0.295242
0.153910 -0.473685 0.000000 0.561583 -0.772953 -0.295242
0.402940 -0.292753 0.000000 0.908661 -0.295242 0.295241
0.498061 0.000000 0.000000 0.908661 -0.295242 0.295241
0.479037 0.000000 0.058551 0.908661 -0.295242 0.295241
0.387549 -0.281571 0.058551 0.908661 -0.295242 0.295241
0.387549 -0.281571 0.058551 0.577350 -0.187593 0.794654
0.479037 0.000000 0.058551 0.577350 -0.187593 0.794654
0.429231 0.000000 0.094737 0.577350 -0.187593 0.794654
0.347255 -0.252296 0.094737 0.577350 -0.187593 0.794654
-0.132640 -0.408223 0.094737 -0.000000 0.000000 1.000000
0.132640 -0.408223 0.094737 -0.000000 0.000000 1.000000
-0.132640 0.408223 0.094737 -0.000000 0.000000 1.000000
-0.347255 -0.252296 0.094737 -0.000000 0.000000 1.000000
0.347255 -0.252296 -0.094737 0.577350 -0.187593 -0.794654
0.429231 0.000000 -0.094737 0.577350 -0.187593 -0.794654
0.479037 0.000000 -0.058551 0.577350 -0.187593 -0.794654
0.387549 -0.281571 -0.058551 0.577350 -0.187593 -0.794654
0.498061 0.000000 0.000000 0.908661 -0.295242 -0.295241
0.402940 -0.292753 0.000000 0.908661 -0.295242 -0.295241
0.387549 -0.281571 -0.058551 0.908661 -0.295242 -0.295241
0.479037 0.000000 -0.058551 0.908661 -0.295242 -0.295241
-0.347255 0.252296 0.094737 -0.000000 0.000000 1.000000
-0.429231 0.000000 0.094737 -0.000000 0.000000 1.000000
0.347255 -0.252296 -0.094737 0.000000 0.000000 -1.000000
0.132640 -0.408223 -0.094737 0.000000 0.000000 -1.000000
-0.132640 -0.408223 -0.094737 0.000000 0.000000 -1.000000
-0.347255 -0.252296 -0.094737 0.000000 0.000000 -1.000000
-0.429231 0.000000 -0.094737 0.000000 0.000000 -1.000000
-0.347255 0.252296 -0.094737 0.000000 0.000000 -1.000000
0.347255 -0.252296 0.094737 0.000000 -0.000000 1.000000
0.429231 0.000000 0.094737 0.000000 -0.000000 1.000000
-0.132640 0.408223 -0.094737 -0.000000 -0.000000 -1.000000
0.132640 0.408223 -0.094737 -0.000000 -0.000000 -1.000000
0.347255 0.252296 0.094737 0.000000 0.000000 1.000000
0.132640 0.408223 0.094737 0.000000 -0.000000 1.000000
0.347255 0.252296 -0.094737 0.000000 -0.000000 -1.000000
0.429231 0.000000 -0.094737 -0.000000 -0.000000 -1.000000
4 0 1 2 3
4 4 5 6 7
4 8 9 10 11
4 12 13 14 15
4 16 17 18 19
4 20 21 22 23
4 24 25 26 27
4 28 29 30 31
4 32 33 34 35
4 36 37 38 39
4 40 41 42 43
4 44 45 46 47
4 48 49 50 51
4 52 53 54 55
4 56 57 58 59
4 60 61 62 63
4 64 65 66 67
4 68 69 70 71
4 72 73 74 75
4 76 77 78 79
4 80 81 82 83
4 84 85 86 87
4 88 89 90 91
4 92 93 94 95
4 96 97 98 99
4 100 101 102 103
4 104 105 106 107
4 108 109 110 111
4 112 113 114 115
4 116 117 118 119
4 120 121 122 123
4 124 125 126 127
4 128 129 130 131
4 132 133 134 135
4 136 137 138 139
4 140 141 142 143
4 144 145 146 147
4 148 149 150 151
4 152 153 154 155
4 156 157 158 159
4 160 161 162 163
3 154 164 165
3 154 165 155
3 166 167 168
3 166 168 169
4 170 171 166 169
4 172 173 154 153
4 174 175 166 171
3 154 173 176
3 154 176 177
3 166 175 178
3 166 178 179
