<?xml version="1.0" encoding="UTF-8" standalone="no"?>
<!-- Created with Inkscape (http://www.inkscape.org/) -->

<svg
   xmlns:dc="http://purl.org/dc/elements/1.1/"
   xmlns:cc="http://creativecommons.org/ns#"
   xmlns:rdf="http://www.w3.org/1999/02/22-rdf-syntax-ns#"
   xmlns:svg="http://www.w3.org/2000/svg"
   xmlns="http://www.w3.org/2000/svg"
   xmlns:sodipodi="http://sodipodi.sourceforge.net/DTD/sodipodi-0.dtd"
   xmlns:inkscape="http://www.inkscape.org/namespaces/inkscape"
   width="128"
   height="128"
   id="svg3027"
   version="1.1"
   inkscape:version="0.48.5 r10040"
   sodipodi:docname="document-save.svg">
  <defs
     id="defs3029" />
  <sodipodi:namedview
     id="base"
     pagecolor="#ffffff"
     bordercolor="#666666"
     borderopacity="1.0"
     inkscape:pageopacity="0.0"
     inkscape:pageshadow="2"
     inkscape:zoom="2.8"
     inkscape:cx="65.271065"
     inkscape:cy="72.608031"
     inkscape:document-units="px"
     inkscape:current-layer="svg3027"
     showgrid="false"
     inkscape:window-width="1013"
     inkscape:window-height="847"
     inkscape:window-x="564"
     inkscape:window-y="78"
     inkscape:window-maximized="0" />
  <metadata
     id="metadata3032">
    <rdf:RDF>
      <cc:Work
         rdf:about="">
        <dc:format>image/svg+xml</dc:format>
        <dc:type
           rdf:resource="http://purl.org/dc/dcmitype/StillImage" />
        <dc:title></dc:title>
      </cc:Work>
    </rdf:RDF>
  </metadata>
  <g
     inkscape:label="Livello 1"
     inkscape:groupmode="layer"
     id="layer1"
     transform="translate(0,-924.36218)" />
  <path
     style="font-size:medium;font-style:normal;font-variant:normal;font-weight:normal;font-stretch:normal;text-indent:0;text-align:start;text-decoration:none;line-height:normal;letter-spacing:normal;word-spacing:normal;text-transform:none;direction:ltr;block-progression:tb;writing-mode:lr-tb;text-anchor:start;color:#000000;fill:#3397ff;fill-opacity:1;stroke:none;stroke-width:2;marker:none;visibility:visible;display:inline;overflow:visible;enable-background:accumulate;font-family:Bitstream Vera Sans;-inkscape-font-specification:Bitstream Vera Sans"
     d="m 31.263524,43.47619 0,8.095237 c 8.1e-5,2.147667 0.753666,4.295172 2.276785,5.818452 l 24.285715,24.285715 2.276785,2.276785 7.083334,0 2.276785,-2.276785 24.285714,-24.285715 c 1.523442,-1.52328 2.276705,-3.670785 2.276785,-5.818452 l 0,-8.095237 -8.095238,0 c -2.147666,8.1e-5 -4.295253,0.753666 -5.818452,2.276785 L 63.644476,64.220238 45.177213,45.752975 c -1.5232,-1.523119 -3.670784,-2.276704 -5.818452,-2.276785 l -8.095237,0 z"
     id="path3613-6"
     inkscape:connector-curvature="0" />
  <path
     style="font-size:medium;font-style:normal;font-variant:normal;font-weight:normal;font-stretch:normal;text-indent:0;text-align:start;text-decoration:none;line-height:normal;letter-spacing:normal;word-spacing:normal;text-transform:none;direction:ltr;block-progression:tb;writing-mode:lr-tb;text-anchor:start;baseline-shift:baseline;color:#000000;fill:#3397ff;fill-opacity:1;stroke:none;stroke-width:2;marker:none;visibility:visible;display:inline;overflow:visible;enable-background:accumulate;font-family:Sans;-inkscape-font-specification:Sans"
     d="m 55.547619,27.285714 0,40.476189 16.190476,0 0,-40.476189 -16.190476,0 z"
     id="path4388-5"
     inkscape:connector-curvature="0" />
  <path
     style="color:#000000;fill:#3397ff;fill-opacity:1;fill-rule:evenodd;stroke:none;stroke-width:1;marker:none;visibility:visible;display:inline;overflow:visible;enable-background:accumulate"
     d="m 23.168286,92.047617 0,32.380953 80.952384,0 0,-32.380953 z m 27.068451,11.636903 c 0.16839,-0.008 0.337572,-0.008 0.505952,0 2.355392,-0.4501 4.848887,1.65005 4.806548,4.04762 l 0,0.50595 16.190476,0 0,-0.50595 c -0.03239,-2.13844 1.909019,-4.10526 4.047619,-4.10526 2.1386,0 4.077815,1.96682 4.04762,4.10526 l 0,0.50595 c 0,4.41474 -3.6805,8.09524 -8.095239,8.09524 l -16.190476,0 c -4.414737,0 -8.095237,-3.6805 -8.095237,-8.09524 l 0,-0.50595 c -0.08743,-1.75715 1.110909,-3.4999 2.782737,-4.04762 z"
     id="rect11668-7-5-4"
     sodipodi:nodetypes="ccccccsccccsccccccc"
     inkscape:connector-curvature="0" />
  <path
     style="font-size:medium;font-style:normal;font-variant:normal;font-weight:normal;font-stretch:normal;text-indent:0;text-align:start;text-decoration:none;line-height:normal;letter-spacing:normal;word-spacing:normal;text-transform:none;direction:ltr;block-progression:tb;writing-mode:lr-tb;text-anchor:start;baseline-shift:baseline;color:#bebebe;fill:#3397ff;fill-opacity:1;stroke:none;stroke-width:1;marker:none;visibility:visible;display:inline;overflow:visible;enable-background:accumulate;font-family:Sans;-inkscape-font-specification:Sans"
     d="m 23.166668,3 c -4.414739,0 -8.095239,3.6804999 -8.095239,8.095238 l 0,16.190476 c 0,4.414737 3.6805,8.095237 8.095239,8.095237 l 80.952382,0 c 4.41474,0 8.09524,-3.6805 8.09524,-8.095237 l 0,-16.190476 C 112.21429,6.6804999 108.53379,3 104.11905,3 L 23.166668,3 z m 0,8.095238 80.952382,0 0,16.190476 -80.952382,0 0,-16.190476 z"
     id="rect4390"
     inkscape:connector-curvature="0" />
  <path
     style="font-size:medium;font-style:normal;font-variant:normal;font-weight:normal;font-stretch:normal;text-indent:0;text-align:start;text-decoration:none;line-height:normal;letter-spacing:normal;word-spacing:normal;text-transform:none;direction:ltr;block-progression:tb;writing-mode:lr-tb;text-anchor:start;baseline-shift:baseline;color:#bebebe;fill:#3397ff;fill-opacity:1;stroke:none;stroke-width:1;marker:none;visibility:visible;display:inline;overflow:visible;enable-background:accumulate;font-family:Sans;-inkscape-font-specification:Sans"
     d="m 34.550596,75.857142 a 4.0480238,4.0480238 0 0 0 -2.529763,1.770832 l -8.095237,12.142857 a 4.0480238,4.0480238 0 1 0 6.577381,4.553571 l 8.095237,-12.142856 a 4.0480238,4.0480238 0 0 0 -4.047618,-6.324404 z m 56.666664,0 a 4.0480238,4.0480238 0 0 0 -2.529761,6.324404 l 8.095237,12.142856 a 4.0480238,4.0480238 0 1 0 6.577384,-4.553571 L 95.26488,77.627974 a 4.0480238,4.0480238 0 0 0 -4.04762,-1.770832 z"
     id="rect4390-9-1"
     inkscape:connector-curvature="0" />
</svg>
