<?xml version="1.0" encoding="UTF-8" standalone="no"?>
<!-- Created with Inkscape (http://www.inkscape.org/) -->

<svg
   xmlns:dc="http://purl.org/dc/elements/1.1/"
   xmlns:cc="http://creativecommons.org/ns#"
   xmlns:rdf="http://www.w3.org/1999/02/22-rdf-syntax-ns#"
   xmlns:svg="http://www.w3.org/2000/svg"
   xmlns="http://www.w3.org/2000/svg"
   xmlns:sodipodi="http://sodipodi.sourceforge.net/DTD/sodipodi-0.dtd"
   xmlns:inkscape="http://www.inkscape.org/namespaces/inkscape"
   width="128"
   height="128"
   id="svg3027"
   version="1.1"
   inkscape:version="0.48.5 r10040"
   sodipodi:docname="document-open-recent.svg">
  <defs
     id="defs3029" />
  <sodipodi:namedview
     id="base"
     pagecolor="#ffffff"
     bordercolor="#666666"
     borderopacity="1.0"
     inkscape:pageopacity="0.0"
     inkscape:pageshadow="2"
     inkscape:zoom="2.8"
     inkscape:cx="65.271065"
     inkscape:cy="72.608031"
     inkscape:document-units="px"
     inkscape:current-layer="svg3027"
     showgrid="false"
     inkscape:window-width="1013"
     inkscape:window-height="847"
     inkscape:window-x="564"
     inkscape:window-y="78"
     inkscape:window-maximized="0" />
  <metadata
     id="metadata3032">
    <rdf:RDF>
      <cc:Work
         rdf:about="">
        <dc:format>image/svg+xml</dc:format>
        <dc:type
           rdf:resource="http://purl.org/dc/dcmitype/StillImage" />
        <dc:title></dc:title>
      </cc:Work>
    </rdf:RDF>
  </metadata>
  <g
     inkscape:label="Livello 1"
     inkscape:groupmode="layer"
     id="layer1"
     transform="translate(0,-924.36218)" />
  <path
     inkscape:connector-curvature="0"
     d="m 17.519662,43.211962 0,56.937368 97.769508,0 z m 16.267819,24.83787 25.341848,16.085863 -25.341848,0 z"
     id="path3757"
     sodipodi:nodetypes="cccccccc"
     style="fill:#3397ff;fill-opacity:1;stroke:none;display:inline" />
  <path
     inkscape:connector-curvature="0"
     d="m 25.783714,2.6584826 c -4.258754,4.065e-4 -8.133503,3.8751572 -8.13391,8.1339104 l 0,20.843144 16.267819,9.659017 0,-22.368252 37.110966,0 27.70613,27.706132 0,29.485423 16.267821,9.659019 0,-42.703029 c -0.0162,-2.183385 -0.95623,-4.345053 -2.54185,-5.846247 L 80.179235,5.2003295 C 78.678043,3.6147049 76.516374,2.6748318 74.332988,2.6584826 z m -8.13391,105.7408274 0,7.87973 c 4.07e-4,4.25875 3.875156,8.1335 8.13391,8.13391 l 81.084906,0 c 4.25876,-4.1e-4 8.13351,-3.87516 8.13392,-8.13391 l 0,-7.87973 z"
     id="path5034"
     sodipodi:nodetypes="ccccccccccccccccccccc"
     style="font-size:medium;font-style:normal;font-variant:normal;font-weight:normal;font-stretch:normal;text-indent:0;text-align:start;text-decoration:none;line-height:normal;letter-spacing:normal;word-spacing:normal;text-transform:none;direction:ltr;block-progression:tb;writing-mode:lr-tb;text-anchor:start;baseline-shift:baseline;color:#000000;fill:#3397ff;fill-opacity:1;stroke:none;stroke-width:2;marker:none;visibility:visible;display:inline;overflow:visible;enable-background:accumulate;font-family:Sans;-inkscape-font-specification:Sans" />
</svg>
