<?xml version="1.0" encoding="UTF-8" standalone="no"?>
<!-- Created with Inkscape (http://www.inkscape.org/) -->

<svg
   xmlns:dc="http://purl.org/dc/elements/1.1/"
   xmlns:cc="http://creativecommons.org/ns#"
   xmlns:rdf="http://www.w3.org/1999/02/22-rdf-syntax-ns#"
   xmlns:svg="http://www.w3.org/2000/svg"
   xmlns="http://www.w3.org/2000/svg"
   xmlns:sodipodi="http://sodipodi.sourceforge.net/DTD/sodipodi-0.dtd"
   xmlns:inkscape="http://www.inkscape.org/namespaces/inkscape"
   width="128"
   height="128"
   id="svg3027"
   version="1.1"
   inkscape:version="0.48.5 r10040"
   sodipodi:docname="edit-undo.svg">
  <defs
     id="defs3029" />
  <sodipodi:namedview
     id="base"
     pagecolor="#ffffff"
     bordercolor="#666666"
     borderopacity="1.0"
     inkscape:pageopacity="0.0"
     inkscape:pageshadow="2"
     inkscape:zoom="1.979899"
     inkscape:cx="46.026459"
     inkscape:cy="7.852841"
     inkscape:document-units="px"
     inkscape:current-layer="svg3027"
     showgrid="false"
     inkscape:window-width="1013"
     inkscape:window-height="847"
     inkscape:window-x="610"
     inkscape:window-y="135"
     inkscape:window-maximized="0" />
  <metadata
     id="metadata3032">
    <rdf:RDF>
      <cc:Work
         rdf:about="">
        <dc:format>image/svg+xml</dc:format>
        <dc:type
           rdf:resource="http://purl.org/dc/dcmitype/StillImage" />
        <dc:title></dc:title>
      </cc:Work>
    </rdf:RDF>
  </metadata>
  <g
     inkscape:label="Livello 1"
     inkscape:groupmode="layer"
     id="layer1"
     transform="translate(0,-924.36218)" />
  <path
     inkscape:connector-curvature="0"
     d="m 24.7305,3.8333796 c -4.080264,0.317478 -7.567369,4.157664 -7.495916,8.2537624 l 0,104.046738 c -0.0643,4.33858 3.911238,8.31685 8.245483,8.25367 l 79.956013,0 c 4.33425,0.0642 8.3085,-3.91509 8.24548,-8.25367 l 0,-80.035983 c -0.0322,-2.146307 -0.95162,-4.26617 -2.49866,-5.752606 L 87.196092,6.3345374 C 85.711184,4.7859715 83.593411,3.8643235 81.449274,3.8333796 l -55.969207,0 c -0.249963,-0.00797 -0.499925,-0.00797 -0.749889,0 z m 8.745169,16.5082474 47.973605,0 0,16.007196 -47.973605,0 z m 0,32.014394 63.964809,0 0,16.007195 -63.964809,0 z m 0,32.014304 63.964809,0 0,16.007205 -63.964809,0 z"
     id="path4387-5"
     style="color:#bebebe;fill:#3397ff;fill-opacity:1;fill-rule:nonzero;stroke:none;stroke-width:1;marker:none;visibility:visible;display:inline;overflow:visible;enable-background:accumulate" />
</svg>
