<?xml version="1.0" encoding="UTF-8" standalone="no"?>
<!-- Created with Inkscape (http://www.inkscape.org/) -->

<svg
   xmlns:dc="http://purl.org/dc/elements/1.1/"
   xmlns:cc="http://creativecommons.org/ns#"
   xmlns:rdf="http://www.w3.org/1999/02/22-rdf-syntax-ns#"
   xmlns:svg="http://www.w3.org/2000/svg"
   xmlns="http://www.w3.org/2000/svg"
   xmlns:sodipodi="http://sodipodi.sourceforge.net/DTD/sodipodi-0.dtd"
   xmlns:inkscape="http://www.inkscape.org/namespaces/inkscape"
   width="128"
   height="128"
   id="svg3027"
   version="1.1"
   inkscape:version="0.48.5 r10040"
   sodipodi:docname="format-text-direction-ltr.svg">
  <defs
     id="defs3029" />
  <sodipodi:namedview
     id="base"
     pagecolor="#ffffff"
     bordercolor="#666666"
     borderopacity="1.0"
     inkscape:pageopacity="0.0"
     inkscape:pageshadow="2"
     inkscape:zoom="1.979899"
     inkscape:cx="46.518652"
     inkscape:cy="7.8231049"
     inkscape:document-units="px"
     inkscape:current-layer="svg3027"
     showgrid="false"
     inkscape:window-width="1013"
     inkscape:window-height="847"
     inkscape:window-x="610"
     inkscape:window-y="135"
     inkscape:window-maximized="0"
     showguides="true"
     inkscape:guide-bbox="true" />
  <metadata
     id="metadata3032">
    <rdf:RDF>
      <cc:Work
         rdf:about="">
        <dc:format>image/svg+xml</dc:format>
        <dc:type
           rdf:resource="http://purl.org/dc/dcmitype/StillImage" />
        <dc:title></dc:title>
      </cc:Work>
    </rdf:RDF>
  </metadata>
  <g
     inkscape:label="Livello 1"
     inkscape:groupmode="layer"
     id="layer1"
     transform="translate(0,-924.36218)" />
  <path
     d="m 50.633458,7.9507435 0,15.5052535 46.515762,0 c 3.31937,0 7.75263,4.761198 7.75263,7.752627 l 0,7.752626 -38.763139,0 c -7.126757,0 -13.45546,2.9767 -17.44341,7.510359 -3.987951,4.533658 -5.86401,10.160825 -5.81447,15.747523 0.04651,5.586697 2.084913,11.262318 6.05674,15.747523 3.971826,4.485205 10.159585,7.510358 17.20114,7.510358 l 46.515759,0 7.75263,0 0,-7.752626 0,-46.515763 c 0,-12.670428 -10.23192,-23.2578805 -23.25788,-23.2578805 l -46.515762,0 z m 15.505253,46.5157615 38.763139,0 0,15.505254 -38.763139,0 c -3.084537,0 -4.39504,-0.851161 -5.5722,-2.180426 -1.177159,-1.329267 -2.1612,-3.406272 -2.180427,-5.572201 -0.01551,-2.165929 0.811468,-4.291389 1.938157,-5.5722 1.12669,-1.280811 2.54007,-2.180427 5.81447,-2.180427 z"
     id="path11643-3-2-9"
     style="font-size:xx-small;font-style:normal;font-variant:normal;font-weight:normal;font-stretch:normal;text-indent:0;text-align:start;text-decoration:none;line-height:normal;letter-spacing:normal;word-spacing:normal;text-transform:none;direction:ltr;block-progression:tb;writing-mode:lr-tb;text-anchor:start;baseline-shift:baseline;color:#000000;fill:#3397ff;fill-opacity:1;stroke:none;stroke-width:2;marker:none;visibility:visible;display:inline;overflow:visible;enable-background:accumulate;font-family:Sans;-inkscape-font-specification:Sans"
     inkscape:connector-curvature="0" />
  <path
     sodipodi:nodetypes="ccccccccscccccccc"
     d="m 35.127273,123.85833 -7.752627,-8e-5 c -2.056849,-2.4e-4 -4.113389,-0.72177 -5.572198,-2.18034 l -15.5052549,-15.50533 -2.1805038,-2.18044 0,-6.783465 2.1805038,-2.180503 15.5052549,-15.505176 c 1.458887,-1.459122 3.515582,-2.180116 5.572275,-2.180116 l 7.752628,-7.9e-5 0,7.752628 c 3.1e-4,2.056849 -0.721769,4.113466 -2.180117,5.572355 l -9.933131,9.932976 9.933054,9.93305 c 1.458657,1.45882 2.180427,3.51543 2.180427,5.57221 l 0,7.75262 z"
     id="path4484"
     style="font-size:medium;font-style:normal;font-variant:normal;font-weight:normal;font-stretch:normal;text-indent:0;text-align:start;text-decoration:none;line-height:normal;letter-spacing:normal;word-spacing:normal;text-transform:none;direction:ltr;block-progression:tb;writing-mode:lr-tb;text-anchor:start;color:#000000;fill:#3397ff;fill-opacity:1;stroke:none;stroke-width:2;marker:none;visibility:visible;display:inline;overflow:visible;enable-background:accumulate;font-family:Bitstream Vera Sans;-inkscape-font-specification:Bitstream Vera Sans"
     inkscape:connector-curvature="0" />
  <path
     d="m 19.620471,92.847745 0,15.505255 100.299609,0 0,-15.505255 -100.299609,0 z"
     id="path4486"
     style="font-size:medium;font-style:normal;font-variant:normal;font-weight:normal;font-stretch:normal;text-indent:0;text-align:start;text-decoration:none;line-height:normal;letter-spacing:normal;word-spacing:normal;text-transform:none;direction:ltr;block-progression:tb;writing-mode:lr-tb;text-anchor:start;baseline-shift:baseline;color:#000000;fill:#3397ff;fill-opacity:1;stroke:none;stroke-width:2;marker:none;visibility:visible;display:inline;overflow:visible;enable-background:accumulate;font-family:Sans;-inkscape-font-specification:Sans"
     inkscape:connector-curvature="0" />
</svg>
