<?xml version="1.0" encoding="UTF-8" standalone="no"?>
<!-- Created with Inkscape (http://www.inkscape.org/) -->

<svg
   xmlns:dc="http://purl.org/dc/elements/1.1/"
   xmlns:cc="http://creativecommons.org/ns#"
   xmlns:rdf="http://www.w3.org/1999/02/22-rdf-syntax-ns#"
   xmlns:svg="http://www.w3.org/2000/svg"
   xmlns="http://www.w3.org/2000/svg"
   xmlns:sodipodi="http://sodipodi.sourceforge.net/DTD/sodipodi-0.dtd"
   xmlns:inkscape="http://www.inkscape.org/namespaces/inkscape"
   width="128"
   height="128"
   id="svg3027"
   version="1.1"
   inkscape:version="0.48.5 r10040"
   sodipodi:docname="insert-object.svg">
  <defs
     id="defs3029" />
  <sodipodi:namedview
     id="base"
     pagecolor="#ffffff"
     bordercolor="#666666"
     borderopacity="1.0"
     inkscape:pageopacity="0.0"
     inkscape:pageshadow="2"
     inkscape:zoom="2.8"
     inkscape:cx="55.527467"
     inkscape:cy="24.763114"
     inkscape:document-units="px"
     inkscape:current-layer="svg3027"
     showgrid="false"
     inkscape:window-width="1013"
     inkscape:window-height="847"
     inkscape:window-x="610"
     inkscape:window-y="112"
     inkscape:window-maximized="0"
     showguides="true"
     inkscape:guide-bbox="true" />
  <metadata
     id="metadata3032">
    <rdf:RDF>
      <cc:Work
         rdf:about="">
        <dc:format>image/svg+xml</dc:format>
        <dc:type
           rdf:resource="http://purl.org/dc/dcmitype/StillImage" />
        <dc:title></dc:title>
      </cc:Work>
    </rdf:RDF>
  </metadata>
  <g
     inkscape:label="Livello 1"
     inkscape:groupmode="layer"
     id="layer1"
     transform="translate(0,-924.36218)" />
  <path
     inkscape:connector-curvature="0"
     d="m 87.63166,90.319937 -7.710971,0 c -1.981003,0 -4.07492,1.00113 -5.542264,2.409709 l -9.879523,9.879674 -9.8796,-9.879754 c -1.465418,-1.410425 -3.561338,-2.409629 -5.542418,-2.409321 l -7.710971,0 -7.7e-5,7.710965 c 0,2.38614 0.695509,4.25893 2.169091,5.78305 l 20.964129,20.48219 20.963975,-20.48219 c 1.472274,-1.5245 2.168783,-3.39714 2.168783,-5.783192 l 0,-7.710977 z"
     id="path9197"
     sodipodi:nodetypes="ccccccccccccc"
     style="font-size:medium;font-style:normal;font-variant:normal;font-weight:normal;font-stretch:normal;text-indent:0;text-align:start;text-decoration:none;line-height:normal;letter-spacing:normal;word-spacing:normal;text-transform:none;direction:ltr;block-progression:tb;writing-mode:lr-tb;text-anchor:start;color:#bebebe;fill:#3397ff;fill-opacity:1;stroke:none;stroke-width:2;marker:none;visibility:visible;display:inline;overflow:visible;enable-background:accumulate;font-family:Bitstream Vera Sans;-inkscape-font-specification:Bitstream Vera Sans" />
  <path
     inkscape:connector-curvature="0"
     d="m 30.822262,4.7858602 0,15.9283998 47.785199,0 c 3.409984,0 7.9642,4.891134 7.9642,7.9642 l 0,7.9642 -39.820999,0 c -7.321242,0 -13.822673,3.057933 -17.919449,7.715318 -4.096777,4.657384 -6.024057,10.438119 -5.973151,16.17728 0.05097,5.739162 2.141789,11.569674 6.222032,16.177281 4.080243,4.607608 10.436861,7.715319 17.670568,7.715319 l 47.785199,0 7.964199,0 0,-7.9642 0,-47.785198 c 0,-13.016211 -10.511182,-23.8925998 -23.892599,-23.8925998 l -47.785199,0 z m 15.9284,47.7851978 39.820999,0 0,15.9284 -39.820999,0 c -3.168732,0 -4.514992,-0.87439 -5.724269,-2.239931 -1.209276,-1.365541 -2.220196,-3.49923 -2.239931,-5.724269 -0.01991,-2.225038 0.833629,-4.408502 1.99105,-5.724268 1.157421,-1.315766 2.609382,-2.239932 5.97315,-2.239932 z"
     id="path7493"
     style="font-size:medium;font-style:normal;font-variant:normal;font-weight:normal;font-stretch:normal;text-indent:0;text-align:start;text-decoration:none;line-height:normal;letter-spacing:normal;word-spacing:normal;text-transform:none;direction:ltr;block-progression:tb;writing-mode:lr-tb;text-anchor:start;baseline-shift:baseline;color:#000000;fill:#3397ff;fill-opacity:1;stroke:none;stroke-width:2;marker:none;visibility:visible;display:inline;overflow:visible;enable-background:accumulate;font-family:Sans;-inkscape-font-specification:Sans" />
</svg>
