<?xml version="1.0" encoding="UTF-8" standalone="no"?>
<!-- Created with Inkscape (http://www.inkscape.org/) -->

<svg
   xmlns:dc="http://purl.org/dc/elements/1.1/"
   xmlns:cc="http://creativecommons.org/ns#"
   xmlns:rdf="http://www.w3.org/1999/02/22-rdf-syntax-ns#"
   xmlns:svg="http://www.w3.org/2000/svg"
   xmlns="http://www.w3.org/2000/svg"
   xmlns:sodipodi="http://sodipodi.sourceforge.net/DTD/sodipodi-0.dtd"
   xmlns:inkscape="http://www.inkscape.org/namespaces/inkscape"
   width="128"
   height="128"
   id="svg3027"
   version="1.1"
   inkscape:version="0.48.5 r10040"
   sodipodi:docname="window-close.svg">
  <defs
     id="defs3029" />
  <sodipodi:namedview
     id="base"
     pagecolor="#ffffff"
     bordercolor="#666666"
     borderopacity="1.0"
     inkscape:pageopacity="0.0"
     inkscape:pageshadow="2"
     inkscape:zoom="2.8"
     inkscape:cx="68.006648"
     inkscape:cy="77.070011"
     inkscape:document-units="px"
     inkscape:current-layer="svg3027"
     showgrid="false"
     inkscape:window-width="1013"
     inkscape:window-height="847"
     inkscape:window-x="506"
     inkscape:window-y="20"
     inkscape:window-maximized="0" />
  <metadata
     id="metadata3032">
    <rdf:RDF>
      <cc:Work
         rdf:about="">
        <dc:format>image/svg+xml</dc:format>
        <dc:type
           rdf:resource="http://purl.org/dc/dcmitype/StillImage" />
        <dc:title></dc:title>
      </cc:Work>
    </rdf:RDF>
  </metadata>
  <g
     inkscape:label="Livello 1"
     inkscape:groupmode="layer"
     id="layer1"
     transform="translate(0,-924.36218)" />
  <path
     inkscape:connector-curvature="0"
     d="m 85.389742,11.680829 c -1.760306,3.193157 -3.430665,7.378706 -5.273021,10.546041 -0.688665,-0.05136 -1.36243,-0.229629 -2.063354,-0.229629 -2.437549,0 -4.842655,0.357281 -7.107115,0.917046 -2.237779,-2.808364 -4.624426,-6.589019 -6.877853,-9.399731 -2.087904,0.770613 -4.051646,1.661542 -5.960805,2.751142 0.703778,3.54068 2.031411,7.857625 2.751139,11.463086 -2.516404,1.825438 -4.593919,3.902953 -6.419328,6.419331 -3.605483,-0.7197 -7.922421,-2.047363 -11.463088,-2.751143 -1.089605,1.909146 -1.98055,3.872874 -2.751141,5.960807 2.810698,2.253441 6.591338,4.64011 9.399733,6.877852 -0.560133,2.264446 -0.917049,4.669603 -0.917049,7.107115 0,0.700623 0.18091,1.37469 0.229262,2.063355 -3.167369,1.842385 -7.352882,3.512732 -10.546039,5.273021 0.375915,2.015743 0.941277,4.062444 1.604831,5.960805 3.605087,-0.07336 8.066295,-0.694021 11.692349,-0.687419 1.37282,2.8741 3.085183,5.530234 5.273021,7.7949 -1.262165,3.432178 -3.287598,7.399469 -4.585236,10.775303 1.561901,1.289002 3.29768,2.393347 5.043759,3.438926 2.708635,-2.348447 5.688788,-5.659793 8.482685,-8.024161 2.77348,1.265965 5.785622,1.946268 8.941209,2.292617 1.207142,3.497691 2.232342,7.982565 3.438925,11.463088 2.212212,-0.01469 4.304993,-0.103455 6.419331,-0.458523 0.590944,-3.616173 0.809701,-8.206104 1.375569,-11.921611 3.008553,-0.857183 5.952311,-1.958667 8.482686,-3.668188 3.113052,1.940178 6.594438,4.613773 9.628988,6.419329 1.64142,-1.398826 3.18641,-2.943795 4.58524,-4.585235 -1.80553,-3.034547 -4.47915,-6.515949 -6.41933,-9.628993 1.70949,-2.530392 2.81102,-5.474111 3.66819,-8.482686 3.7155,-0.565633 8.3054,-0.784627 11.92162,-1.375571 0.3547,-2.114343 0.44611,-4.207117 0.45851,-6.419328 -3.48055,-1.206615 -7.96538,-2.231799 -11.46308,-3.438927 -0.34635,-3.155595 -1.0267,-6.167691 -2.29262,-8.941208 2.36437,-2.793914 5.67571,-5.774023 8.02416,-8.482685 -1.04558,-1.746059 -2.14993,-3.481844 -3.43892,-5.043759 -3.37584,1.297659 -7.34316,3.323086 -10.775311,4.585236 -2.26466,-2.187855 -4.920768,-3.900165 -7.794897,-5.273021 -0.0065,-3.626078 0.615963,-8.087254 0.687786,-11.69235 -1.898376,-0.663208 -3.945041,-1.228916 -5.960806,-1.604832 z M 78.053367,36.67036 c 8.103533,0 14.67275,6.569212 14.67275,14.672752 0,8.103541 -6.569217,14.672753 -14.67275,14.672753 -8.103536,0 -14.672754,-6.569212 -14.672754,-14.672753 0,-8.10354 6.569218,-14.672752 14.672754,-14.672752 z"
     id="path42961"
     style="color:#000000;fill:#3397ff;fill-opacity:1;fill-rule:nonzero;stroke:none;stroke-width:1;marker:none;visibility:visible;display:inline;overflow:visible;enable-background:accumulate" />
  <path
     inkscape:connector-curvature="0"
     d="m 28.99135,66.703649 c -1.688387,0.345544 -3.256675,0.960774 -4.814498,1.604834 -0.122582,4.580319 0.637753,10.577368 -1.146308,12.150872 -1.753136,1.546288 -7.617785,0.251638 -12.150873,-0.229628 -0.9639104,1.73498 -1.7259474,3.55983 -2.2926174,5.502282 3.5074704,2.904179 8.3671964,6.155292 8.4826854,8.482685 0.116948,2.35637 -4.595638,5.904976 -7.7949004,9.170466 0.7584864,1.89154 1.8351504,3.62079 2.9804034,5.27302 4.462888,-0.92739 10.024366,-2.74043 11.92161,-1.37557 1.931727,1.38965 1.945697,7.37563 2.52188,11.92161 1.83078,0.55023 3.759959,0.76665 5.731543,0.91705 2.064106,-4.0689 4.162755,-9.68255 6.419331,-10.31678 2.316475,-0.65074 7.068927,3.36101 11.004565,5.73154 1.604538,-1.11219 3.029416,-2.4728 4.355972,-3.89745 -1.862251,-4.19875 -5.290143,-9.478 -4.355972,-11.692343 0.935041,-2.216392 7.15593,-3.445381 11.463088,-5.043758 0.03227,-0.539223 0.22926,-1.057466 0.22926,-1.604831 0,-1.403964 -0.252371,-2.780414 -0.458523,-4.126713 -4.446556,-1.179837 -10.763982,-1.770268 -11.921611,-3.897449 -1.149876,-2.11295 1.773833,-7.786832 3.209663,-12.150874 -1.475792,-1.31013 -3.07694,-2.473533 -4.814496,-3.438926 -3.67474,2.752096 -7.955045,7.295 -10.316779,6.877852 -2.324803,-0.410835 -4.863196,-6.012526 -7.336375,-9.858254 -0.29485,0.05134 -0.625573,-0.05869 -0.917048,0 z m 4.585236,13.755706 c 6.837363,0 12.380134,5.542779 12.380134,12.380135 0,6.837355 -5.542771,12.38013 -12.380134,12.38013 -6.837365,0 -12.380136,-5.542775 -12.380136,-12.38013 0,-6.837356 5.542771,-12.380135 12.380136,-12.380135 z"
     id="path42972"
     style="color:#000000;fill:#3397ff;fill-opacity:1;fill-rule:nonzero;stroke:none;stroke-width:1;marker:none;visibility:visible;display:inline;overflow:visible;enable-background:accumulate" />
</svg>
