<?xml version="1.0" encoding="UTF-8" standalone="no"?>
<svg
   xmlns:dc="http://purl.org/dc/elements/1.1/"
   xmlns:cc="http://creativecommons.org/ns#"
   xmlns:rdf="http://www.w3.org/1999/02/22-rdf-syntax-ns#"
   xmlns:svg="http://www.w3.org/2000/svg"
   xmlns="http://www.w3.org/2000/svg"
   xmlns:sodipodi="http://sodipodi.sourceforge.net/DTD/sodipodi-0.dtd"
   xmlns:inkscape="http://www.inkscape.org/namespaces/inkscape"
   inkscape:export-ydpi="48"
   inkscape:export-xdpi="48"
   inkscape:export-filename="/home/raster/C/th-efl/th/img/ic/addressbook-040.png"
   inkscape:version="1.0.1 (3bc2e813f5, 2020-09-07)"
   sodipodi:docname="addressbook.svg"
   viewBox="0 0 80 80"
   height="80"
   width="80"
   id="svg2"
   version="1.1">
  <metadata
     id="metadata8">
    <rdf:RDF>
      <cc:Work
         rdf:about="">
        <dc:format>image/svg+xml</dc:format>
        <dc:type
           rdf:resource="http://purl.org/dc/dcmitype/StillImage" />
        <dc:title></dc:title>
      </cc:Work>
    </rdf:RDF>
  </metadata>
  <defs
     id="defs6">
    <mask
       maskUnits="userSpaceOnUse"
       id="mask995">
      <rect
         style="fill:#ffffff;fill-opacity:1;stroke-width:4;stroke-linecap:round;stroke-linejoin:round"
         id="rect997"
         width="48"
         height="32"
         x="16"
         y="24" />
    </mask>
    <mask
       maskUnits="userSpaceOnUse"
       id="mask999">
      <rect
         style="fill:#ffffff;fill-opacity:1;stroke-width:4;stroke-linecap:round;stroke-linejoin:round"
         id="rect1001"
         width="48"
         height="32"
         x="16"
         y="24" />
    </mask>
    <mask
       maskUnits="userSpaceOnUse"
       id="mask1005">
      <rect
         style="fill:#ffffff;fill-opacity:1;stroke-width:4;stroke-linecap:round;stroke-linejoin:round"
         id="rect1007"
         width="48"
         height="32"
         x="16"
         y="24"
         mask="url(#mask999)" />
    </mask>
  </defs>
  <sodipodi:namedview
     inkscape:bbox-nodes="true"
     inkscape:bbox-paths="true"
     inkscape:object-paths="true"
     inkscape:snap-intersection-paths="true"
     inkscape:snap-nodes="true"
     inkscape:snap-bbox="true"
     inkscape:current-layer="g10"
     inkscape:window-maximized="0"
     inkscape:window-y="0"
     inkscape:window-x="804"
     inkscape:cy="40.037987"
     inkscape:cx="40"
     inkscape:zoom="13.1625"
     showgrid="true"
     id="namedview4"
     inkscape:window-height="1372"
     inkscape:window-width="1756"
     inkscape:pageshadow="2"
     inkscape:pageopacity="0"
     guidetolerance="10"
     gridtolerance="10"
     objecttolerance="10"
     borderopacity="1"
     bordercolor="#666666"
     pagecolor="#404040"
     inkscape:document-rotation="0">
    <inkscape:grid
       id="grid837"
       type="xygrid"
       empspacing="4" />
  </sodipodi:namedview>
  <g
     id="g10"
     inkscape:label="Image"
     inkscape:groupmode="layer">
    <path
       style="fill:#be7c5f;fill-opacity:1;stroke:none;stroke-width:4;stroke-linecap:round;stroke-linejoin:round"
       d="m 58,16 h 8 c 2,0 4,2 4,4 v 8 c 0,2 -2,4 -4,4 h -8 z"
       id="path3654"
       sodipodi:nodetypes="ccccccc" />
    <path
       style="fill:#91bb62;fill-opacity:1;stroke:none;stroke-width:4;stroke-linecap:round;stroke-linejoin:round"
       d="m 58,32 h 8 c 2,0 4,2 4,4 v 8 c 0,2 -2,4 -4,4 h -8 z"
       id="path3656"
       sodipodi:nodetypes="ccccccc" />
    <path
       style="fill:#ae62bb;fill-opacity:1;stroke:none;stroke-width:4;stroke-linecap:round;stroke-linejoin:round"
       d="m 58,48 h 8 c 2,0 4,2 4,4 v 8 c 0,2 -2,4 -4,4 h -8 z"
       id="path3658"
       sodipodi:nodetypes="ccccccc" />
    <path
       style="fill:#66799f;fill-opacity:1;stroke:none;stroke-width:4;stroke-linecap:round;stroke-linejoin:round"
       d="m 20,8 c -2,0 -4,2 -4,4 v 56 c 0,2 2,4 4,4 h 40 c 2,0 4,-2 4,-4 V 12 C 64,10 62,8 60,8 Z"
       id="path3623"
       sodipodi:nodetypes="ccccccccc" />
    <path
       style="fill:#ffffff;fill-opacity:1;stroke:none;stroke-width:4;stroke-linecap:round;stroke-linejoin:round"
       d="m 12,20 c -1,0 -2,1 -2,2 0,1 1,2 2,2 h 8 c 1,0 2,-1 2,-2 0,-1 -1,-2 -2,-2 z"
       id="path3625"
       sodipodi:nodetypes="ccccccc" />
    <path
       style="fill:#ffffff;fill-opacity:1;stroke:none;stroke-width:4;stroke-linecap:round;stroke-linejoin:round"
       d="m 12,32 c -1,0 -2,1 -2,2 0,1 1,2 2,2 h 8 c 1,0 2,-1 2,-2 0,-1 -1,-2 -2,-2 z"
       id="path3625-1"
       sodipodi:nodetypes="ccccccc" />
    <path
       style="fill:#ffffff;fill-opacity:1;stroke:none;stroke-width:4;stroke-linecap:round;stroke-linejoin:round"
       d="m 12,44 c -1,0 -2,1 -2,2 0,1 1,2 2,2 h 8 c 1,0 2,-1 2,-2 0,-1 -1,-2 -2,-2 z"
       id="path3625-0"
       sodipodi:nodetypes="ccccccc" />
    <path
       style="fill:#ffffff;fill-opacity:1;stroke:none;stroke-width:4;stroke-linecap:round;stroke-linejoin:round"
       d="m 12,56 c -1,0 -2,1 -2,2 0,1 1,2 2,2 h 8 c 1,0 2,-1 2,-2 0,-1 -1,-2 -2,-2 z"
       id="path3625-3"
       sodipodi:nodetypes="ccccccc" />
    <rect
       style="fill:#000000;fill-opacity:0.2;stroke:none;stroke-width:4;stroke-linecap:round;stroke-linejoin:round"
       id="rect3660"
       width="2"
       height="64"
       x="24"
       y="8" />
    <path
       id="path3662"
       style="fill:#000000;fill-opacity:0.2;stroke:none;stroke-width:4;stroke-linecap:round;stroke-linejoin:round"
       d="M 44 24 A 8 8 0 0 0 36 32 A 8 8 0 0 0 40 38.927734 L 40 44 L 36 44 C 34 44 32 46 32 48 L 32 56 L 56 56 L 56 48 C 56 46 54 44 52 44 L 48 44 L 48 38.929688 A 8 8 0 0 0 52 32 A 8 8 0 0 0 44 24 z " />
    <rect
       style="fill:#000000;fill-opacity:0.2;stroke:none;stroke-width:3.4641;stroke-linecap:round;stroke-linejoin:round"
       id="rect3671"
       width="2"
       height="48"
       x="64"
       y="16" />
  </g>
</svg>
