<?xml version="1.0" encoding="UTF-8" standalone="no"?>
<svg
   xmlns:dc="http://purl.org/dc/elements/1.1/"
   xmlns:cc="http://creativecommons.org/ns#"
   xmlns:rdf="http://www.w3.org/1999/02/22-rdf-syntax-ns#"
   xmlns:svg="http://www.w3.org/2000/svg"
   xmlns="http://www.w3.org/2000/svg"
   xmlns:sodipodi="http://sodipodi.sourceforge.net/DTD/sodipodi-0.dtd"
   xmlns:inkscape="http://www.inkscape.org/namespaces/inkscape"
   inkscape:export-ydpi="48"
   inkscape:export-xdpi="48"
   inkscape:export-filename="/home/raster/C/th-efl/th/img/ic/calendar-plus-040.png"
   inkscape:version="1.0.1 (3bc2e813f5, 2020-09-07)"
   sodipodi:docname="calendar-plus.svg"
   viewBox="0 0 80 80"
   height="80"
   width="80"
   id="svg2"
   version="1.1">
  <metadata
     id="metadata8">
    <rdf:RDF>
      <cc:Work
         rdf:about="">
        <dc:format>image/svg+xml</dc:format>
        <dc:type
           rdf:resource="http://purl.org/dc/dcmitype/StillImage" />
        <dc:title></dc:title>
      </cc:Work>
    </rdf:RDF>
  </metadata>
  <defs
     id="defs6" />
  <sodipodi:namedview
     inkscape:bbox-nodes="true"
     inkscape:bbox-paths="true"
     inkscape:object-paths="true"
     inkscape:snap-intersection-paths="true"
     inkscape:snap-nodes="true"
     inkscape:snap-bbox="true"
     inkscape:current-layer="g10"
     inkscape:window-maximized="0"
     inkscape:window-y="0"
     inkscape:window-x="804"
     inkscape:cy="40.075973"
     inkscape:cx="40"
     inkscape:zoom="13.1625"
     showgrid="true"
     id="namedview4"
     inkscape:window-height="1372"
     inkscape:window-width="1756"
     inkscape:pageshadow="2"
     inkscape:pageopacity="0"
     guidetolerance="10"
     gridtolerance="10"
     objecttolerance="10"
     borderopacity="1"
     bordercolor="#666666"
     pagecolor="#404040"
     inkscape:document-rotation="0">
    <inkscape:grid
       id="grid837"
       type="xygrid"
       empspacing="4" />
  </sodipodi:namedview>
  <g
     id="g10"
     inkscape:label="Image"
     inkscape:groupmode="layer">
    <rect
       y="20"
       x="8"
       height="52"
       width="64"
       id="rect5726"
       style="opacity:1;fill:#dcdcdc;fill-opacity:1;stroke:none;stroke-width:3.84592;stroke-linecap:round;stroke-linejoin:round;stroke-miterlimit:4;stroke-dasharray:none;stroke-opacity:1" />
    <rect
       style="fill:#000000;fill-opacity:0.2;stroke-width:2.58199;stroke-linecap:round;stroke-linejoin:round"
       id="rect2091"
       width="10"
       height="8"
       x="14"
       y="36" />
    <rect
       y="8"
       x="8"
       height="12"
       width="64"
       id="rect6682"
       style="opacity:1;fill:#cb5841;fill-opacity:1;stroke:none;stroke-width:4.13118;stroke-linecap:round;stroke-linejoin:round;stroke-miterlimit:4;stroke-dasharray:none;stroke-opacity:1" />
    <path
       id="rect2069"
       style="fill:#ffffff;fill-opacity:1;stroke-width:4;stroke-linecap:round;stroke-linejoin:round"
       d="m 21.951023,4.0244151 a 2,2 0 0 0 -1.951172,2 2,2 0 0 0 0,0.048828 v 7.9511719 a 2,2 0 0 0 2,2 2,2 0 0 0 2,-2 2,2 0 0 0 0,-0.04883 V 6.0244151 a 2,2 0 0 0 -2,-2 2,2 0 0 0 -0.04883,0 z" />
    <path
       id="path2079"
       style="fill:#ffffff;fill-opacity:1;stroke-width:4;stroke-linecap:round;stroke-linejoin:round"
       d="m 33.951023,4.0244151 a 2,2 0 0 0 -1.951172,2 2,2 0 0 0 0,0.048828 v 7.9511719 a 2,2 0 0 0 2,2 2,2 0 0 0 2,-2 2,2 0 0 0 0,-0.04883 V 6.0244151 a 2,2 0 0 0 -2,-2 2,2 0 0 0 -0.04883,0 z" />
    <path
       id="path2081"
       style="fill:#ffffff;fill-opacity:1;stroke-width:4;stroke-linecap:round;stroke-linejoin:round"
       d="m 45.951172,4.0005961 a 2,2 0 0 0 -1.951172,2 2,2 0 0 0 0,0.048828 v 7.9511719 a 2,2 0 0 0 2,2 2,2 0 0 0 2,-2 2,2 0 0 0 0,-0.04883 V 6.0005961 a 2,2 0 0 0 -2,-2 2,2 0 0 0 -0.04883,0 z" />
    <path
       id="path2083"
       style="fill:#ffffff;fill-opacity:1;stroke-width:4;stroke-linecap:round;stroke-linejoin:round"
       d="m 57.951321,3.975586 a 2,2 0 0 0 -1.951172,2 2,2 0 0 0 0,0.048828 v 7.951172 a 2,2 0 0 0 2,2 2,2 0 0 0 2,-2 2,2 0 0 0 0,-0.04883 v -7.95117 a 2,2 0 0 0 -2,-2 2,2 0 0 0 -0.04883,0 z" />
    <rect
       style="fill:#000000;fill-opacity:0.2;stroke-width:2.58199;stroke-linecap:round;stroke-linejoin:round"
       id="rect2137"
       width="10"
       height="8"
       x="28"
       y="36" />
    <rect
       style="fill:#000000;fill-opacity:0.2;stroke-width:2.58199;stroke-linecap:round;stroke-linejoin:round"
       id="rect2139"
       width="10"
       height="8"
       x="42"
       y="36" />
    <rect
       style="fill:#000000;fill-opacity:0.2;stroke-width:2.58199;stroke-linecap:round;stroke-linejoin:round"
       id="rect2141"
       width="10"
       height="8"
       x="56"
       y="36" />
    <rect
       style="fill:#000000;fill-opacity:0.2;stroke-width:2.58199;stroke-linecap:round;stroke-linejoin:round"
       id="rect2145"
       width="10"
       height="8"
       x="14"
       y="47" />
    <rect
       style="fill:#000000;fill-opacity:0.2;stroke-width:2.58199;stroke-linecap:round;stroke-linejoin:round"
       id="rect2147"
       width="10"
       height="8"
       x="28"
       y="47" />
    <rect
       style="fill:#000000;fill-opacity:0.2;stroke-width:2.58199;stroke-linecap:round;stroke-linejoin:round"
       id="rect2149"
       width="10"
       height="8"
       x="42"
       y="47" />
    <rect
       style="fill:#000000;fill-opacity:0.2;stroke-width:2.58199;stroke-linecap:round;stroke-linejoin:round"
       id="rect2151"
       width="10"
       height="8"
       x="56"
       y="47" />
    <rect
       style="fill:#000000;fill-opacity:0.2;stroke-width:2.58199;stroke-linecap:round;stroke-linejoin:round"
       id="rect2153"
       width="10"
       height="8"
       x="14"
       y="58" />
    <rect
       style="fill:#000000;fill-opacity:0.2;stroke-width:2.58199;stroke-linecap:round;stroke-linejoin:round"
       id="rect2155"
       width="10"
       height="8"
       x="28"
       y="58" />
    <rect
       style="fill:#000000;fill-opacity:0.05;stroke-width:2.58199;stroke-linecap:round;stroke-linejoin:round"
       id="rect2157"
       width="10"
       height="8"
       x="42"
       y="58" />
    <rect
       style="fill:#000000;fill-opacity:0.05;stroke-width:2.58199;stroke-linecap:round;stroke-linejoin:round"
       id="rect2159"
       width="10"
       height="8"
       x="56"
       y="58" />
    <rect
       style="fill:#000000;fill-opacity:0.05;stroke-width:2.58199;stroke-linecap:round;stroke-linejoin:round"
       id="rect2091-3"
       width="10"
       height="8"
       x="14"
       y="26" />
    <rect
       style="fill:#000000;fill-opacity:0.05;stroke-width:2.58199;stroke-linecap:round;stroke-linejoin:round"
       id="rect2137-6"
       width="10"
       height="8"
       x="28"
       y="26" />
    <rect
       style="fill:#000000;fill-opacity:0.2;stroke-width:2.58199;stroke-linecap:round;stroke-linejoin:round"
       id="rect2139-7"
       width="10"
       height="8"
       x="42"
       y="26" />
    <rect
       style="fill:#000000;fill-opacity:0.2;stroke-width:2.58199;stroke-linecap:round;stroke-linejoin:round"
       id="rect2141-5"
       width="10"
       height="8"
       x="56"
       y="26" />
    <g
       id="g7854"
       transform="translate(4,4)">
      <rect
         style="fill:#ffffff;stroke-width:5.71411"
         id="rect7848"
         width="8"
         height="32"
         x="52"
         y="40" />
      <rect
         style="fill:#ffffff;stroke-width:5.71411"
         id="rect7850"
         width="32"
         height="8"
         x="40"
         y="52" />
    </g>
  </g>
</svg>
