<?xml version="1.0" encoding="UTF-8" standalone="no"?>
<svg
   xmlns:dc="http://purl.org/dc/elements/1.1/"
   xmlns:cc="http://creativecommons.org/ns#"
   xmlns:rdf="http://www.w3.org/1999/02/22-rdf-syntax-ns#"
   xmlns:svg="http://www.w3.org/2000/svg"
   xmlns="http://www.w3.org/2000/svg"
   xmlns:sodipodi="http://sodipodi.sourceforge.net/DTD/sodipodi-0.dtd"
   xmlns:inkscape="http://www.inkscape.org/namespaces/inkscape"
   version="1.1"
   id="svg2"
   width="80"
   height="80"
   viewBox="0 0 80 80"
   sodipodi:docname="clouds.svg"
   inkscape:version="1.0.1 (3bc2e813f5, 2020-09-07)"
   inkscape:export-filename="/home/raster/C/th-efl/th/img/ic/clouds-040.png"
   inkscape:export-xdpi="48"
   inkscape:export-ydpi="48">
  <metadata
     id="metadata8">
    <rdf:RDF>
      <cc:Work
         rdf:about="">
        <dc:format>image/svg+xml</dc:format>
        <dc:type
           rdf:resource="http://purl.org/dc/dcmitype/StillImage" />
        <dc:title></dc:title>
      </cc:Work>
    </rdf:RDF>
  </metadata>
  <defs
     id="defs6">
    <mask
       maskUnits="userSpaceOnUse"
       id="mask947">
      <rect
         style="opacity:1;fill:#a0a0a0;fill-opacity:1;stroke-width:3.96122;stroke-linecap:round;stroke-linejoin:round"
         id="rect949"
         width="60"
         height="40"
         x="10"
         y="5" />
    </mask>
    <mask
       id="mask3567"
       maskUnits="userSpaceOnUse">
      <path
         style="fill:#ffffff;fill-opacity:1;fill-rule:evenodd;stroke:none;stroke-width:1px;stroke-linecap:butt;stroke-linejoin:miter;stroke-opacity:1"
         d="M 40,10 C 19,10 20,17.832395 20,30 20,42.167605 19,70 40,70 61,70 60,42.167605 60,30 60,17.832395 61,10 40,10 Z"
         id="path3569"
         sodipodi:nodetypes="zzzzz" />
    </mask>
    <clipPath
       id="clipPath922"
       clipPathUnits="userSpaceOnUse">
      <path
         sodipodi:nodetypes="ccccccc"
         inkscape:connector-curvature="0"
         id="path924"
         d="m 1.3229166,295.4125 h 7.9375003 v -6.08542 c 0,-0.52917 0,-0.52917 -0.529167,-0.52917 H 1.8520833 c -0.5291666,0 -0.5291666,0 -0.5291667,0.52917 z"
         style="fill:#ffffff;fill-opacity:1;fill-rule:evenodd;stroke:none;stroke-width:0.264583px;stroke-linecap:butt;stroke-linejoin:miter;stroke-opacity:1" />
    </clipPath>
    <clipPath
       id="clipPath922-6"
       clipPathUnits="userSpaceOnUse">
      <path
         sodipodi:nodetypes="ccccccc"
         inkscape:connector-curvature="0"
         id="path924-7"
         d="m 1.3229166,295.4125 h 7.9375003 v -6.08542 c 0,-0.52917 0,-0.52917 -0.529167,-0.52917 H 1.8520833 c -0.5291666,0 -0.5291666,0 -0.5291667,0.52917 z"
         style="fill:#ffffff;fill-opacity:1;fill-rule:evenodd;stroke:none;stroke-width:0.264583px;stroke-linecap:butt;stroke-linejoin:miter;stroke-opacity:1" />
    </clipPath>
    <clipPath
       clipPathUnits="userSpaceOnUse"
       id="clipPath876">
      <path
         inkscape:connector-curvature="0"
         style="opacity:1;fill:#ffffff;fill-opacity:1;stroke:none;stroke-width:1;stroke-linecap:round;stroke-linejoin:round;stroke-miterlimit:4;stroke-dasharray:none;stroke-opacity:1"
         d="m 5.2916667,287.73958 a 3.96875,3.96875 0 0 0 -3.9687501,3.96875 3.96875,3.96875 0 0 0 3.9687501,3.96875 3.96875,3.96875 0 0 0 3.96875,-3.96875 3.96875,3.96875 0 0 0 -3.96875,-3.96875 z m 0,2.38125 a 1.5875001,1.5875044 0 0 1 1.5875,1.5875 1.5875001,1.5875044 0 0 1 -1.5875,1.5875 1.5875001,1.5875044 0 0 1 -1.5875,-1.5875 1.5875001,1.5875044 0 0 1 1.5875,-1.5875 z"
         id="path878" />
    </clipPath>
  </defs>
  <sodipodi:namedview
     inkscape:document-rotation="0"
     pagecolor="#404040"
     bordercolor="#666666"
     borderopacity="1"
     objecttolerance="10"
     gridtolerance="10"
     guidetolerance="10"
     inkscape:pageopacity="0"
     inkscape:pageshadow="2"
     inkscape:window-width="1756"
     inkscape:window-height="1372"
     id="namedview4"
     showgrid="true"
     inkscape:zoom="13.1625"
     inkscape:cx="40"
     inkscape:cy="40"
     inkscape:window-x="804"
     inkscape:window-y="0"
     inkscape:window-maximized="0"
     inkscape:current-layer="g10"
     showguides="false"
     inkscape:snap-bbox="true"
     inkscape:bbox-nodes="true"
     inkscape:snap-others="true"
     inkscape:snap-nodes="true"
     inkscape:bbox-paths="true"
     inkscape:object-paths="true"
     inkscape:snap-intersection-paths="true"
     inkscape:snap-smooth-nodes="true"
     inkscape:snap-midpoints="true">
    <inkscape:grid
       type="xygrid"
       id="grid837"
       empspacing="4"
       enabled="true"
       snapvisiblegridlinesonly="false" />
  </sodipodi:namedview>
  <g
     inkscape:groupmode="layer"
     inkscape:label="Image"
     id="g10">
    <path
       id="path1031"
       style="fill:#a0a0a0;fill-opacity:1;stroke-width:2;stroke-linecap:round;stroke-linejoin:round"
       d="M 53.980465,20 A 10,10 0 0 0 44.130855,28.390625 6,6 0 0 0 41.999996,28 6,6 0 0 0 36.210934,32.423828 4,4 0 0 0 33.999996,36 a 2,2 0 0 0 -2,2 2,2 0 0 0 2,2 2,2 0 0 0 0.04883,0 h 3.951172 0.06055 3.939453 12 0.01953 H 62 68 A 4,4 0 0 0 72,36 4,4 0 0 0 68,32 4,4 0 0 0 67.662105,32.01563 6,6 0 0 0 63.851558,28.292969 10,10 0 0 0 53.999996,20 a 10,10 0 0 0 -0.01953,0 z" />
    <path
       id="path1003"
       style="fill:#c8c8c8;fill-opacity:1;stroke-width:2;stroke-linecap:round;stroke-linejoin:round"
       d="m 46.906246,27.999998 a 7,7 0 0 0 -6.861328,6.210938 10,10 0 0 0 -2.044922,-0.210938 10,10 0 0 0 -9.853516,8.294922 6,6 0 0 0 -3.808593,3.71875 4,4 0 0 1 -0.002,0 A 4,4 0 0 0 23.999996,46 a 4,4 0 0 0 -4,4 4,4 0 0 0 4,4 4,4 0 0 0 0.06055,0 h 5.939453 8 0.01953 12.980469 0.01953 8.980469 0.06055 H 66 A 2,2 0 0 0 68,52 2,2 0 0 0 66,50 2,2 0 0 0 65.740234,50.01758 2,2 0 0 0 63.999997,49 a 2,2 0 0 0 -0.126953,0.0059 4,4 0 0 0 -3.091798,-2.927777 10,10 0 0 0 0.21875,-2.078125 10,10 0 0 0 -7.021484,-9.546875 7,7 0 0 0 -6.978516,-6.453125 7,7 0 0 0 -0.09375,0 z" />
    <path
       id="path987"
       style="fill:#dcdcdc;fill-opacity:1;stroke-width:2;stroke-linecap:round;stroke-linejoin:round"
       d="m 24,24 a 8,8 0 0 0 -8,8 8,8 0 0 0 0.0078,0.341797 6,6 0 0 0 -3.669921,3.671875 4,4 0 0 1 -0.002,0 A 4,4 0 0 0 12,36.000002 a 4,4 0 0 0 -4,4 4,4 0 0 0 4,4 4,4 0 0 0 0.06055,0 H 18 34 a 6,6 0 0 0 6,-6 6,6 0 0 0 -6,-6 6,6 0 0 0 -2.007812,0.347656 8,8 0 0 0 0.0078,-0.347656 8,8 0 0 0 -8,-8 z" />
  </g>
</svg>
