<?xml version="1.0" encoding="UTF-8" standalone="no"?>
<svg
   xmlns:dc="http://purl.org/dc/elements/1.1/"
   xmlns:cc="http://creativecommons.org/ns#"
   xmlns:rdf="http://www.w3.org/1999/02/22-rdf-syntax-ns#"
   xmlns:svg="http://www.w3.org/2000/svg"
   xmlns="http://www.w3.org/2000/svg"
   xmlns:xlink="http://www.w3.org/1999/xlink"
   xmlns:sodipodi="http://sodipodi.sourceforge.net/DTD/sodipodi-0.dtd"
   xmlns:inkscape="http://www.inkscape.org/namespaces/inkscape"
   inkscape:export-ydpi="48"
   inkscape:export-xdpi="48"
   inkscape:export-filename="/home/raster/C/th-efl/th/img/ic/desktop-pc-040.png"
   inkscape:version="1.0 (4035a4fb49, 2020-05-01)"
   sodipodi:docname="desktop-pc.svg"
   viewBox="0 0 80 80"
   height="80"
   width="80"
   id="svg2"
   version="1.1">
  <metadata
     id="metadata8">
    <rdf:RDF>
      <cc:Work
         rdf:about="">
        <dc:format>image/svg+xml</dc:format>
        <dc:type
           rdf:resource="http://purl.org/dc/dcmitype/StillImage" />
        <dc:title></dc:title>
      </cc:Work>
    </rdf:RDF>
  </metadata>
  <defs
     id="defs6">
    <linearGradient
       id="linearGradient854"
       inkscape:collect="always">
      <stop
         id="stop850"
         offset="0"
         style="stop-color:#000000;stop-opacity:0.25" />
      <stop
         id="stop852"
         offset="1"
         style="stop-color:#040404;stop-opacity:0" />
    </linearGradient>
    <linearGradient
       gradientTransform="matrix(1.6666666,0,0,1,-26.666666,0)"
       gradientUnits="userSpaceOnUse"
       y2="54"
       x2="40"
       y1="50"
       x1="40"
       id="linearGradient856"
       xlink:href="#linearGradient854"
       inkscape:collect="always" />
    <linearGradient
       gradientTransform="matrix(1.6666666,0,0,0.25,-26.666666,-72.5)"
       y2="54"
       x2="40"
       y1="50"
       x1="40"
       gradientUnits="userSpaceOnUse"
       id="linearGradient860"
       xlink:href="#linearGradient854"
       inkscape:collect="always" />
    <filter
       height="1.12"
       y="-0.06"
       width="1.08"
       x="-0.04"
       id="filter943"
       style="color-interpolation-filters:sRGB"
       inkscape:collect="always">
      <feGaussianBlur
         id="feGaussianBlur945"
         stdDeviation="1"
         inkscape:collect="always" />
    </filter>
    <mask
       id="mask947"
       maskUnits="userSpaceOnUse">
      <rect
         y="5"
         x="10"
         height="40"
         width="60"
         id="rect949"
         style="opacity:1;fill:#a0a0a0;fill-opacity:1;stroke-width:3.96122;stroke-linecap:round;stroke-linejoin:round" />
    </mask>
    <filter
       height="1.108"
       y="-0.054"
       width="1.0864"
       x="-0.0432"
       id="filter975"
       style="color-interpolation-filters:sRGB"
       inkscape:collect="always">
      <feGaussianBlur
         id="feGaussianBlur977"
         stdDeviation="0.45"
         inkscape:collect="always" />
    </filter>
    <filter
       height="1.408"
       y="-0.204"
       width="1.0544"
       x="-0.0272"
       id="filter1003"
       style="color-interpolation-filters:sRGB"
       inkscape:collect="always">
      <feGaussianBlur
         id="feGaussianBlur1005"
         stdDeviation="0.34"
         inkscape:collect="always" />
    </filter>
  </defs>
  <sodipodi:namedview
     inkscape:snap-nodes="false"
     inkscape:snap-others="false"
     inkscape:bbox-nodes="true"
     inkscape:snap-bbox="true"
     showguides="false"
     inkscape:current-layer="g10"
     inkscape:window-maximized="0"
     inkscape:window-y="0"
     inkscape:window-x="1206"
     inkscape:cy="40.122888"
     inkscape:cx="40"
     inkscape:zoom="8.1375"
     showgrid="true"
     id="namedview4"
     inkscape:window-height="1372"
     inkscape:window-width="1354"
     inkscape:pageshadow="2"
     inkscape:pageopacity="0"
     guidetolerance="10"
     gridtolerance="10"
     objecttolerance="10"
     borderopacity="1"
     bordercolor="#666666"
     pagecolor="#404040"
     inkscape:document-rotation="0">
    <inkscape:grid
       id="grid837"
       type="xygrid" />
  </sodipodi:namedview>
  <g
     id="g10"
     inkscape:label="Image"
     inkscape:groupmode="layer">
    <rect
       style="opacity:1;fill:#28303e;fill-opacity:1;stroke-width:3.63052;stroke-linecap:round;stroke-linejoin:round"
       id="rect838"
       width="56"
       height="36"
       x="12"
       y="12" />
    <rect
       style="opacity:0.5;fill:#000000;fill-opacity:1;stroke-width:4;stroke-linecap:round;stroke-linejoin:round;filter:url(#filter1003)"
       id="rect1001"
       width="30"
       height="4"
       x="25"
       y="45" />
    <rect
       y="44"
       x="25"
       height="4"
       width="30"
       id="rect965"
       style="opacity:1;fill:#808080;fill-opacity:1;stroke-width:4;stroke-linecap:round;stroke-linejoin:round" />
    <path
       d="m 19,17 a 2,2 0 0 1 -1.996448,1.999997 2,2 0 0 1 -2.003539,-1.992894 2,2 0 0 1 1.989332,-2.007075 2,2 0 0 1 2.010605,1.985765 L 17,17 Z"
       sodipodi:arc-type="slice"
       sodipodi:end="6.2760818"
       sodipodi:start="0"
       sodipodi:ry="2"
       sodipodi:rx="2"
       sodipodi:cy="17"
       sodipodi:cx="17"
       sodipodi:type="arc"
       id="path967"
       style="opacity:1;fill:#f2e884;fill-opacity:1;stroke-width:4;stroke-linecap:round;stroke-linejoin:round" />
    <path
       style="opacity:1;fill:#84c7f2;fill-opacity:1;stroke-width:4;stroke-linecap:round;stroke-linejoin:round"
       id="path969"
       sodipodi:type="arc"
       sodipodi:cx="17"
       sodipodi:cy="23"
       sodipodi:rx="2"
       sodipodi:ry="2"
       sodipodi:start="0"
       sodipodi:end="6.2760818"
       sodipodi:arc-type="slice"
       d="m 19,23 a 2,2 0 0 1 -1.996448,1.999997 2,2 0 0 1 -2.003539,-1.992894 2,2 0 0 1 1.989332,-2.007075 2,2 0 0 1 2.010605,1.985765 L 17,23 Z" />
    <path
       d="m 19,29 a 2,2 0 0 1 -1.996448,1.999997 2,2 0 0 1 -2.003539,-1.992894 2,2 0 0 1 1.989332,-2.007075 2,2 0 0 1 2.010605,1.985765 L 17,29 Z"
       sodipodi:arc-type="slice"
       sodipodi:end="6.2760818"
       sodipodi:start="0"
       sodipodi:ry="2"
       sodipodi:rx="2"
       sodipodi:cy="29"
       sodipodi:cx="17"
       sodipodi:type="arc"
       id="path971"
       style="opacity:1;fill:#da84f2;fill-opacity:1;stroke-width:4;stroke-linecap:round;stroke-linejoin:round" />
    <rect
       style="opacity:0.5;fill:#000000;fill-opacity:1;stroke-width:8.16496;stroke-linecap:round;stroke-linejoin:round;filter:url(#filter975)"
       id="rect973"
       width="25"
       height="20"
       x="33"
       y="17" />
    <rect
       y="16"
       x="33"
       height="20"
       width="25"
       id="rect979"
       style="opacity:1;mix-blend-mode:normal;fill:#808080;fill-opacity:1;stroke-width:8.16496;stroke-linecap:round;stroke-linejoin:round" />
    <rect
       style="opacity:1;mix-blend-mode:normal;fill:#212121;fill-opacity:1;stroke-width:3.65148;stroke-linecap:round;stroke-linejoin:round"
       id="rect1007"
       width="25"
       height="4"
       x="33"
       y="16" />
    <path
       d="m 57,18 a 1.0000005,1.0000001 0 0 1 -0.998224,0.999999 1.0000005,1.0000001 0 0 1 -1.00177,-0.996447 1.0000005,1.0000001 0 0 1 0.994666,-1.003538 1.0000005,1.0000001 0 0 1 1.005303,0.992883 L 56,18 Z"
       sodipodi:arc-type="slice"
       sodipodi:end="6.2760818"
       sodipodi:start="0"
       sodipodi:ry="1.0000001"
       sodipodi:rx="1.0000005"
       sodipodi:cy="18"
       sodipodi:cx="56"
       sodipodi:type="arc"
       id="path1009"
       style="opacity:1;fill:#ffffff;fill-opacity:1;stroke-width:4.94529;stroke-linecap:round;stroke-linejoin:round" />
    <path
       style="opacity:1;fill:#ffffff;fill-opacity:1;stroke-width:4.94529;stroke-linecap:round;stroke-linejoin:round"
       id="path1013"
       sodipodi:type="arc"
       sodipodi:cx="52"
       sodipodi:cy="18"
       sodipodi:rx="1.0000005"
       sodipodi:ry="1.0000001"
       sodipodi:start="0"
       sodipodi:end="6.2760818"
       sodipodi:arc-type="slice"
       d="m 53,18 a 1.0000005,1.0000001 0 0 1 -0.998224,0.999999 1.0000005,1.0000001 0 0 1 -1.00177,-0.996447 1.0000005,1.0000001 0 0 1 0.994666,-1.003538 1.0000005,1.0000001 0 0 1 1.005303,0.992883 L 52,18 Z" />
    <path
       d="m 50,18 a 1.0000005,1.0000001 0 0 1 -0.998224,0.999999 1.0000005,1.0000001 0 0 1 -1.00177,-0.996447 1.0000005,1.0000001 0 0 1 0.994666,-1.003538 1.0000005,1.0000001 0 0 1 1.005303,0.992883 L 49,18 Z"
       sodipodi:arc-type="slice"
       sodipodi:end="6.2760818"
       sodipodi:start="0"
       sodipodi:ry="1.0000001"
       sodipodi:rx="1.0000005"
       sodipodi:cy="18"
       sodipodi:cx="49"
       sodipodi:type="arc"
       id="path1015"
       style="opacity:1;fill:#ffffff;fill-opacity:1;stroke-width:4.94529;stroke-linecap:round;stroke-linejoin:round" />
    <path
       style="opacity:1;fill:#d58282;fill-opacity:1;stroke-width:4.94529;stroke-linecap:round;stroke-linejoin:round"
       id="path1017"
       sodipodi:type="arc"
       sodipodi:cx="35"
       sodipodi:cy="18"
       sodipodi:rx="1.0000005"
       sodipodi:ry="1.0000001"
       sodipodi:start="0"
       sodipodi:end="6.2760818"
       sodipodi:arc-type="slice"
       d="m 36,18 a 1.0000005,1.0000001 0 0 1 -0.998224,0.999999 1.0000005,1.0000001 0 0 1 -1.00177,-0.996447 1.0000005,1.0000001 0 0 1 0.994666,-1.003538 1.0000005,1.0000001 0 0 1 1.005303,0.992883 L 35,18 Z" />
    <g
       id="g963">
      <path
         style="opacity:1;fill:#a0a0a0;fill-opacity:1;stroke-width:4;stroke-linecap:round;stroke-linejoin:round"
         d="m 16,64 -4,4 h 56 l -4,-4 z"
         id="path844"
         sodipodi:nodetypes="ccccc" />
      <rect
         style="opacity:1;fill:#808080;fill-opacity:1;stroke-width:4;stroke-linecap:round;stroke-linejoin:round"
         id="rect846"
         width="56"
         height="2"
         x="12"
         y="68" />
      <path
         style="opacity:1;fill:#000000;fill-opacity:0.25;stroke-width:4;stroke-linecap:round;stroke-linejoin:round"
         d="m 17,65 -2,2 h 40 l -2,-2 z"
         id="path862" />
      <path
         style="opacity:1;fill:#000000;fill-opacity:0.25;stroke-width:4;stroke-linecap:round;stroke-linejoin:round"
         d="m 65,67 -2,-2 h -7 l 2,2 z"
         id="path864" />
    </g>
    <rect
       y="50"
       x="35"
       height="10"
       width="10"
       id="rect840"
       style="fill:#a0a0a0;fill-opacity:1;stroke-width:4.92367;stroke-linecap:round;stroke-linejoin:round" />
    <rect
       y="60"
       x="28"
       height="2"
       width="25"
       id="rect842"
       style="fill:#a0a0a0;fill-opacity:1;stroke-width:4.47215;stroke-linecap:round;stroke-linejoin:round" />
    <rect
       y="50"
       x="35"
       height="4"
       width="10"
       id="rect848"
       style="fill:url(#linearGradient856);fill-opacity:1;stroke-width:5.16398;stroke-linecap:round;stroke-linejoin:round" />
    <rect
       transform="scale(1,-1)"
       style="fill:url(#linearGradient860);fill-opacity:1;stroke-width:2.58199;stroke-linecap:round;stroke-linejoin:round"
       id="rect858"
       width="10"
       height="1"
       x="35"
       y="-60" />
    <path
       transform="translate(0,5)"
       mask="url(#mask947)"
       id="path873"
       style="opacity:0.5;fill:#000000;fill-opacity:1;stroke-width:3.96122;stroke-linecap:round;stroke-linejoin:round;filter:url(#filter943)"
       d="M 10,5 V 45 H 70 V 5 Z m 2,2 H 68 V 43 H 12 Z" />
    <path
       d="M 10,10 V 50 H 70 V 10 Z m 2,2 H 68 V 48 H 12 Z"
       style="fill:#a0a0a0;fill-opacity:1;stroke-width:3.96122;stroke-linecap:round;stroke-linejoin:round"
       id="rect866" />
  </g>
</svg>
