<?xml version="1.0" encoding="UTF-8" standalone="no"?>
<svg
   xmlns:dc="http://purl.org/dc/elements/1.1/"
   xmlns:cc="http://creativecommons.org/ns#"
   xmlns:rdf="http://www.w3.org/1999/02/22-rdf-syntax-ns#"
   xmlns:svg="http://www.w3.org/2000/svg"
   xmlns="http://www.w3.org/2000/svg"
   xmlns:sodipodi="http://sodipodi.sourceforge.net/DTD/sodipodi-0.dtd"
   xmlns:inkscape="http://www.inkscape.org/namespaces/inkscape"
   version="1.1"
   id="svg2"
   width="80"
   height="80"
   viewBox="0 0 80 80"
   sodipodi:docname="efm-html.svg"
   inkscape:version="1.0.1 (3bc2e813f5, 2020-09-07)"
   inkscape:export-filename="/home/raster/C/th-efl/th/img/ic/efm-html-040.png"
   inkscape:export-xdpi="48"
   inkscape:export-ydpi="48">
  <metadata
     id="metadata8">
    <rdf:RDF>
      <cc:Work
         rdf:about="">
        <dc:format>image/svg+xml</dc:format>
        <dc:type
           rdf:resource="http://purl.org/dc/dcmitype/StillImage" />
        <dc:title></dc:title>
      </cc:Work>
    </rdf:RDF>
  </metadata>
  <defs
     id="defs6">
    <rect
       id="rect1822"
       height="22.426638"
       width="47.970909"
       y="8"
       x="16" />
    <rect
       x="20"
       y="20"
       width="40"
       height="30"
       id="rect878" />
    <rect
       x="20"
       y="50"
       width="40"
       height="30"
       id="rect872" />
    <rect
       x="20"
       y="20"
       width="40"
       height="30"
       id="rect864" />
    <rect
       x="20"
       y="20"
       width="40"
       height="30"
       id="rect858" />
    <rect
       x="20"
       y="20"
       width="40"
       height="30"
       id="rect852" />
  </defs>
  <sodipodi:namedview
     inkscape:showpageshadow="false"
     inkscape:document-rotation="0"
     pagecolor="#404040"
     bordercolor="#ff66ac"
     borderopacity="1"
     objecttolerance="10"
     gridtolerance="10"
     guidetolerance="10"
     inkscape:pageopacity="0"
     inkscape:pageshadow="2"
     inkscape:window-width="1756"
     inkscape:window-height="1378"
     id="namedview4"
     showgrid="true"
     inkscape:zoom="13.05"
     inkscape:cx="40"
     inkscape:cy="39.846743"
     inkscape:window-x="804"
     inkscape:window-y="0"
     inkscape:window-maximized="0"
     inkscape:current-layer="g10"
     showguides="false"
     inkscape:snap-bbox="true"
     inkscape:bbox-nodes="true"
     inkscape:snap-others="false"
     inkscape:snap-nodes="true"
     borderlayer="true">
    <inkscape:grid
       type="xygrid"
       id="grid837"
       empspacing="4" />
  </sodipodi:namedview>
  <g
     inkscape:groupmode="layer"
     inkscape:label="Image"
     id="g10">
    <path
       sodipodi:nodetypes="cccccc"
       style="opacity:1;fill:#ffffff;fill-opacity:1;stroke:none;stroke-width:1.1;stroke-linecap:round;stroke-linejoin:round;stroke-miterlimit:4;stroke-dasharray:none;stroke-opacity:1"
       d="M 68,4 V 76 H 12 V 25 L 34,4 Z"
       id="path27896" />
    <text
       transform="translate(0.02909091,19.573362)"
       style="font-size:7px;line-height:6.87873px;font-family:'Arial Black';-inkscape-font-specification:'Arial Black, ';letter-spacing:0px;word-spacing:0px;white-space:pre;shape-inside:url(#rect1822);fill:none;stroke:#000000;stroke-width:1px;stroke-linecap:butt;stroke-linejoin:miter;stroke-opacity:1;"
       id="text1820"
       xml:space="preserve"><tspan
         x="16"
         y="13.348456"><tspan
           style="font-style:normal;font-variant:normal;font-weight:800;font-stretch:extra-condensed;font-size:7px;font-family:'Input Mono Compressed';-inkscape-font-specification:'Input Mono Compressed Ultra-Bold Extra-Condensed';fill:#000000;fill-opacity:1;stroke:none">&lt;&gt;&lt;/&gt; {a:b;}
</tspan></tspan><tspan
         x="16"
         y="20.235224"><tspan
           style="font-style:normal;font-variant:normal;font-weight:800;font-stretch:extra-condensed;font-size:7px;font-family:'Input Mono Compressed';-inkscape-font-specification:'Input Mono Compressed Ultra-Bold Extra-Condensed';fill:#000000;fill-opacity:1;stroke:none">{x,b;} </tspan></tspan></text>
    <path
       style="opacity:0.25;fill:#000000;fill-opacity:1;stroke:none;stroke-width:1.1;stroke-linecap:round;stroke-linejoin:round;stroke-miterlimit:4;stroke-dasharray:none;stroke-opacity:1"
       d="M 12,25 37,30 34,4 C 33,10 19,24 12,25 Z"
       id="path27900"
       sodipodi:nodetypes="cccc" />
    <path
       sodipodi:nodetypes="cccc"
       style="opacity:1;fill:#ffffff;fill-opacity:1;stroke:none;stroke-width:1.1;stroke-linecap:round;stroke-linejoin:round;stroke-miterlimit:4;stroke-dasharray:none;stroke-opacity:1"
       d="M 12,25 H 34 V 4 Z"
       id="path27898" />
    <circle
       r="14.048828"
       cy="58.048828"
       cx="40.341408"
       id="path3766"
       style="fill:#3399ff;fill-opacity:1;stroke-width:0.46903;stroke-linecap:round;stroke-linejoin:round;stroke-opacity:0.2" />
    <path
       d="m 39.980125,44.438113 c -0.902273,0.164285 -2.672311,0.445458 -1.994274,1.678859 -0.526865,0.560735 0.213473,0.698694 -0.04895,0.768581 -1.130864,0.807812 0.939109,2.982843 1.378627,1.515538 0.09148,-1.253745 2.246617,-1.616943 1.49063,-2.906345 -0.333998,-0.281191 -0.478887,-0.926023 -0.826032,-1.056633 z m -2.29574,0.227744 c -0.649353,0.268383 -1.785679,1.085375 -1.944205,1.200233 0.768665,0.05378 1.959051,-0.904321 2.201385,-1.176588 z m -0.97043,0.193904 c -0.585112,-0.06865 -1.514116,1.043632 -0.458115,0.310843 0.01506,-0.103269 0.74119,-0.24857 0.458115,-0.310843 z m -1.584152,0.487501 c -0.54167,0.312556 0.399443,0.293436 0,0 z m -0.837807,0.377745 c -0.714721,-0.152502 -1.184804,1.007231 -0.296845,0.285637 -0.05987,-0.008 0.720052,-0.33212 0.296845,-0.285637 z m 0.7436,0.166464 c -0.778658,0.81775 1.535127,0.125615 0.22,0.204388 -0.07426,-0.06671 -0.09668,-0.202424 -0.22,-0.204388 z m -0.490246,0.0878 c -0.609167,0.124442 0.247156,0.27715 0,0 z m -1.800006,0.251526 c -1.710888,1.097895 -3.177866,2.573366 -4.265868,4.290563 0.940136,0.330624 -0.650172,1.920232 -0.624685,2.703999 -0.292111,1.123254 -0.104257,2.647969 0.272658,3.535528 -0.09492,-0.563065 -0.09077,-1.605663 0.205639,-0.405702 0.116706,1.245193 0.716494,2.445468 2.007333,2.607409 0.317263,0.46935 1.977597,1.498532 1.785545,1.015185 -0.66319,-0.230062 -1.042301,-1.441632 -1.334281,-1.675492 0.495146,-1.525001 -1.102821,0.354142 -1.330814,-0.883578 -0.33952,-1.4294 2.002328,-2.472065 2.446847,-0.843764 -0.06395,-1.253689 1.094035,-2.134555 1.76388,-3.090464 0.172558,-0.8297 2.217976,-0.744028 1.993241,-1.06786 -0.507947,0.19902 -0.581898,-0.81639 -0.956207,-0.578252 0.562098,-0.502925 2.819114,-0.221352 1.643699,-1.432475 -0.01922,-0.923815 -0.945103,-0.763842 -1.081304,-0.823404 -0.383649,-1.256791 -1.644266,-0.113852 -1.455963,0.63276 -0.371448,0.533232 -0.82244,1.439754 -1.116322,0.402893 -1.415387,-0.933915 0.15725,-2.30122 1.25834,-2.514443 0.659137,-0.199592 0.651648,-0.697564 0.04015,-0.429791 -0.178111,-1.677079 -0.856099,0.816603 -1.859855,0.06704 -1.180089,0.0047 -0.588159,-1.191771 0.05785,-0.652397 -0.61405,1.416511 2.233296,-0.525666 0.550119,-0.857756 z m 13.084801,0.12439 c -0.775428,0.410309 -1.843979,2.445754 -0.346255,2.327242 1.264462,1.028687 -1.471703,1.731583 -1.384823,2.182281 1.19454,1.030315 -1.336589,0.548614 -0.768888,1.645421 1.034284,2.036845 1.876083,-1.654006 3.383242,-0.68383 0.529002,0.238474 0.867315,0.93441 0.435771,1.163654 1.75677,-0.0434 -1.436607,-1.928681 0.249763,-1.201298 0.502073,0.265483 1.316417,2.102182 1.252575,0.698874 0.491172,0.498835 1.473449,0.671676 1.731431,0.950797 0.311382,1.606625 -1.864948,0.129985 -2.5027,0.650982 -1.188072,-0.126385 -1.321951,-1.387218 -2.613054,-0.922786 -1.589614,-0.05806 -2.402565,1.520116 -2.979715,2.753534 -0.716568,1.436929 0.220191,3.201461 1.726034,3.50032 0.912335,-0.07555 2.441794,-0.703907 2.826412,0.528003 0.02211,1.257549 0.761314,2.26524 0.05355,3.492379 0.06946,0.8831 -0.370246,2.917176 0.85259,2.945641 1.566184,-0.573854 2.051447,-2.42223 3.099641,-3.456027 0.0097,-1.50198 0.964054,-2.634646 1.706607,-3.813835 0.368908,-0.616279 0.304892,-1.282725 -0.40166,-1.020538 -0.742207,-0.725691 -1.581392,-2.617944 -1.495794,-3.073887 0.839386,0.65641 1.057694,3.705348 2.438207,2.037785 0.908055,-0.896325 -0.211316,-1.843957 -0.667296,-2.327886 0.634228,0.256959 2.296615,1.797564 1.602763,0.14302 -0.75749,-3.287314 -2.740118,-6.275086 -5.48833,-8.234479 -0.314933,0.54338 -1.648691,1.409733 -0.943583,0.421329 -0.477184,-0.425154 -1.161709,-0.556913 -1.766487,-0.706696 z M 34.04047,46.511595 c -0.980481,0.177008 -0.106703,0.540633 0.216044,0.09285 z m 1.18537,0.04482 c -0.775676,-0.107498 -1.447909,0.883592 -0.295702,0.729247 0.585376,0.200873 -0.287288,0.717409 0.440304,0.487314 -0.21588,0.710428 -1.369102,0.541608 -0.248224,0.912293 0.434701,0.513494 0.616742,-0.184397 0.937652,0.05497 -0.270732,-0.796962 0.09287,-0.696686 0.622303,-0.550728 -0.322478,-0.705446 -0.47515,-1.53383 -1.456333,-1.633096 z m 6.292704,0.553355 c -1.412239,0.04173 -0.06586,1.201121 0.501356,0.337953 0.134149,-0.288906 -0.325932,-0.321121 -0.501356,-0.337953 z m 4.903371,0.08964 c -0.01219,0.81448 0.497485,1.289978 1.165604,1.250816 -0.688496,0.213685 0.200171,0.948898 -0.760505,1.162238 -0.627699,0.362412 -1.236193,-0.226336 -0.416237,-0.494404 0.204071,-0.627186 -1.01668,-1.563343 0.01114,-1.91865 z m -12.587238,1.1378 c -1.361068,0.435137 0.765506,0.551506 0,0 z m 9.750947,0.551526 c 0.0084,0.607215 0.484424,2.164715 0.99446,1.172217 -0.20782,-0.480639 -0.670566,-0.778426 -0.99446,-1.172217 z m -0.38872,0.498477 c -1.170871,1.030988 1.060013,0.592236 0,0 z m 8.173199,1.593298 c 0.02373,0.767839 1.468652,1.422903 0.760929,2.157139 -0.260048,-0.652783 -1.486417,-1.441764 -0.760929,-2.157139 z m -1.54025,0.06677 c 0.465903,0.280107 1.344752,1.567691 0.156302,1.124856 -1.338244,0.492666 -1.172529,-1.512963 -0.216781,-0.741432 l 0.02811,-0.152786 z m -13.16163,0.497563 c -1.417921,0.786034 1.830007,1.097891 0,0 z m 9.536922,0.440855 c -0.119896,0.962809 0.522144,0.754044 0,0 z m 3.786599,1.354577 c -0.260863,0.283611 0.415581,0.02793 0,0 z m -18.182989,3.894525 c -1.2256,0.172356 2.12293,0.992595 0.58227,0.152912 -0.176923,-0.09863 -0.378306,-0.15955 -0.58227,-0.152912 z m 1.42592,0.57805 c -0.985366,0.918225 1.887105,0.301362 0,0 z m 1.112199,0.365855 c -0.473097,0.226746 0.449856,0.164339 0,0 z m -1.777141,1.971043 c -0.97631,0.579043 -0.646257,2.08147 -0.847229,2.93833 0.443703,1.617368 2.42258,2.087603 2.747747,3.735985 0.436339,1.486071 1.047643,3.240213 2.580749,3.895709 0.684902,-0.09049 -1.087673,-0.754851 -0.684703,-1.513622 0.07714,-1.073998 1.195796,-1.592654 1.310348,-2.594217 1.161213,-0.479757 1.043529,-1.762394 1.633256,-2.602902 -0.064,-1.414552 -2.418076,-1.075453 -2.889159,-1.68521 -0.0862,-1.032094 -1.77958,-1.295528 -2.439466,-1.822262 -0.445868,-0.253274 -1.360311,0.0601 -1.370382,-0.06553 -0.01372,-0.09543 -0.02744,-0.190854 -0.04116,-0.286282 z m 19.307078,2.703668 c -0.974421,0.146281 -1.413939,2.926121 -0.445354,1.272933 0.220791,-0.390473 0.447816,-0.812248 0.445354,-1.272933 z M 38.00085,70.283932 c -0.335208,0.276995 0.444278,0.09182 0,0 z"
       style="fill:#006731;fill-opacity:1;stroke-width:0.46903;stroke-linecap:round;stroke-linejoin:round;stroke-opacity:0.2"
       id="path3762" />
    <path
       d="M 47.653931,46.053363 A 14.048828,14.048828 0 0 1 49.707292,53.365887 14.048828,14.048828 0 0 1 35.658464,67.414715 14.048828,14.048828 0 0 1 28.345939,65.361354 14.048828,14.048828 0 0 0 40.341406,72.097658 14.048828,14.048828 0 0 0 54.390235,58.04883 14.048828,14.048828 0 0 0 47.653931,46.053363 Z"
       style="fill:#000000;fill-opacity:0.2;stroke-width:0.46903;stroke-linecap:round;stroke-linejoin:round;stroke-opacity:0.2"
       id="circle3784" />
  </g>
</svg>
