<?xml version="1.0" encoding="UTF-8" standalone="no"?>
<svg
   xmlns:dc="http://purl.org/dc/elements/1.1/"
   xmlns:cc="http://creativecommons.org/ns#"
   xmlns:rdf="http://www.w3.org/1999/02/22-rdf-syntax-ns#"
   xmlns:svg="http://www.w3.org/2000/svg"
   xmlns="http://www.w3.org/2000/svg"
   xmlns:sodipodi="http://sodipodi.sourceforge.net/DTD/sodipodi-0.dtd"
   xmlns:inkscape="http://www.inkscape.org/namespaces/inkscape"
   inkscape:export-ydpi="48"
   inkscape:export-xdpi="48"
   inkscape:export-filename="/home/raster/C/th-efl/th/img/ic/emblem-system-040.png"
   inkscape:version="1.0.1 (3bc2e813f5, 2020-09-07)"
   sodipodi:docname="emblem-system.svg"
   viewBox="0 0 80 80"
   height="80"
   width="80"
   id="svg2"
   version="1.1">
  <metadata
     id="metadata8">
    <rdf:RDF>
      <cc:Work
         rdf:about="">
        <dc:format>image/svg+xml</dc:format>
        <dc:type
           rdf:resource="http://purl.org/dc/dcmitype/StillImage" />
        <dc:title></dc:title>
      </cc:Work>
    </rdf:RDF>
  </metadata>
  <defs
     id="defs6">
    <rect
       id="rect878"
       height="30"
       width="40"
       y="20"
       x="20" />
    <rect
       id="rect872"
       height="30"
       width="40"
       y="50"
       x="20" />
    <rect
       id="rect864"
       height="30"
       width="40"
       y="20"
       x="20" />
    <rect
       id="rect858"
       height="30"
       width="40"
       y="20"
       x="20" />
    <rect
       id="rect852"
       height="30"
       width="40"
       y="20"
       x="20" />
  </defs>
  <sodipodi:namedview
     borderlayer="true"
     inkscape:snap-nodes="true"
     inkscape:snap-others="false"
     inkscape:bbox-nodes="true"
     inkscape:snap-bbox="true"
     showguides="false"
     inkscape:current-layer="g10"
     inkscape:window-maximized="0"
     inkscape:window-y="0"
     inkscape:window-x="804"
     inkscape:cy="40.075973"
     inkscape:cx="40"
     inkscape:zoom="13.1625"
     showgrid="true"
     id="namedview4"
     inkscape:window-height="1372"
     inkscape:window-width="1756"
     inkscape:pageshadow="2"
     inkscape:pageopacity="0"
     guidetolerance="10"
     gridtolerance="10"
     objecttolerance="10"
     borderopacity="1"
     bordercolor="#666666"
     pagecolor="#404040"
     inkscape:document-rotation="0">
    <inkscape:grid
       id="grid837"
       type="xygrid"
       empspacing="4" />
  </sodipodi:namedview>
  <g
     id="g10"
     inkscape:label="Image"
     inkscape:groupmode="layer">
    <circle
       style="fill:#5b62a9;fill-opacity:1;stroke-width:4;stroke-linecap:round;stroke-linejoin:round;stroke-opacity:0.2"
       id="path848"
       cx="40"
       cy="40"
       r="32" />
    <path
       id="path890"
       style="fill:#fdf6f5;fill-opacity:1;stroke-width:4;stroke-linecap:round;stroke-linejoin:round;stroke-opacity:0.2"
       d="M 40 12 A 28 28 0 0 0 37.574219 12.105469 L 35.888672 20.511719 A 20.5 20 0 0 0 33.833984 21.087891 L 28.154297 14.630859 A 28 28 0 0 0 23.951172 17.056641 L 26.705078 25.207031 A 20.5 20 0 0 0 25.189453 26.701172 L 17.054688 23.951172 A 28 28 0 0 0 14.630859 28.154297 L 21.019531 33.773438 A 20.5 20 0 0 0 20.435547 35.904297 L 12.105469 37.574219 A 28 28 0 0 0 12 40 A 28 28 0 0 0 12.105469 42.425781 L 20.433594 44.095703 A 20.5 20 0 0 0 21.019531 46.226562 L 14.630859 51.845703 A 28 28 0 0 0 17.056641 56.048828 L 25.189453 53.300781 A 20.5 20 0 0 0 26.705078 54.792969 L 23.951172 62.945312 A 28 28 0 0 0 28.154297 65.369141 L 33.833984 58.912109 A 20.5 20 0 0 0 35.888672 59.488281 L 37.574219 67.894531 A 28 28 0 0 0 40 68 A 28 28 0 0 0 42.425781 67.894531 L 44.070312 59.693359 A 20.5 20 0 0 0 46.380859 59.158203 L 51.845703 65.369141 A 28 28 0 0 0 56.048828 62.943359 L 53.517578 55.451172 A 20.5 20 0 0 0 55.570312 53.556641 L 62.945312 56.048828 A 28 28 0 0 0 65.369141 51.845703 L 59.742188 46.894531 A 20.5 20 0 0 0 60.607422 43.886719 L 67.894531 42.425781 A 28 28 0 0 0 68 40 A 28 28 0 0 0 67.894531 37.574219 L 60.609375 36.113281 A 20.5 20 0 0 0 59.742188 33.105469 L 65.369141 28.154297 A 28 28 0 0 0 62.943359 23.951172 L 55.572266 26.443359 A 20.5 20 0 0 0 53.515625 24.548828 L 56.048828 17.054688 A 28 28 0 0 0 51.845703 14.630859 L 46.380859 20.841797 A 20.5 20 0 0 0 44.070312 20.304688 L 42.425781 12.105469 A 28 28 0 0 0 40 12 z M 40 32 A 8 8 0 0 1 48 40 A 8 8 0 0 1 40 48 A 8 8 0 0 1 32 40 A 8 8 0 0 1 40 32 z " />
  </g>
</svg>
