<?xml version="1.0" encoding="UTF-8" standalone="no"?>
<!-- Created with Inkscape (http://www.inkscape.org/) -->

<svg
   xmlns:dc="http://purl.org/dc/elements/1.1/"
   xmlns:cc="http://creativecommons.org/ns#"
   xmlns:rdf="http://www.w3.org/1999/02/22-rdf-syntax-ns#"
   xmlns:svg="http://www.w3.org/2000/svg"
   xmlns="http://www.w3.org/2000/svg"
   xmlns:xlink="http://www.w3.org/1999/xlink"
   xmlns:sodipodi="http://sodipodi.sourceforge.net/DTD/sodipodi-0.dtd"
   xmlns:inkscape="http://www.inkscape.org/namespaces/inkscape"
   version="1.1"
   id="svg2"
   width="64"
   height="64"
   viewBox="0 0 64 64"
   sodipodi:docname="emo-guilty.svg"
   inkscape:export-filename="/home/raster/C/th-efl/th/img/emo-guilty.png"
   inkscape:export-xdpi="96"
   inkscape:export-ydpi="96"
   inkscape:version="0.92.4 5da689c313, 2019-01-14">
  <metadata
     id="metadata8">
    <rdf:RDF>
      <cc:Work
         rdf:about="">
        <dc:format>image/svg+xml</dc:format>
        <dc:type
           rdf:resource="http://purl.org/dc/dcmitype/StillImage" />
        <dc:title></dc:title>
      </cc:Work>
    </rdf:RDF>
  </metadata>
  <defs
     id="defs6">
    <linearGradient
       inkscape:collect="always"
       id="linearGradient4735">
      <stop
         style="stop-color:#3399ff;stop-opacity:1"
         offset="0"
         id="stop4731" />
      <stop
         style="stop-color:#0050a0;stop-opacity:1"
         offset="1"
         id="stop4733" />
    </linearGradient>
    <filter
       inkscape:collect="always"
       style="color-interpolation-filters:sRGB"
       id="filter4694"
       x="-0.12614952"
       width="1.252299"
       y="-1.1836719"
       height="3.3673438">
      <feGaussianBlur
         inkscape:collect="always"
         stdDeviation="2.0009134"
         id="feGaussianBlur4696" />
    </filter>
    <radialGradient
       inkscape:collect="always"
       xlink:href="#linearGradient4735"
       id="radialGradient4737"
       cx="24.09226"
       cy="20.077192"
       fx="24.09226"
       fy="20.077192"
       r="24"
       gradientUnits="userSpaceOnUse"
       gradientTransform="matrix(0.00863139,1.5472089,-1.3273048,0.00740461,50.532865,-17.347232)" />
  </defs>
  <sodipodi:namedview
     pagecolor="#404040"
     bordercolor="#666666"
     borderopacity="1"
     objecttolerance="10"
     gridtolerance="10000"
     guidetolerance="10"
     inkscape:pageopacity="0"
     inkscape:pageshadow="2"
     inkscape:window-width="2050"
     inkscape:window-height="1372"
     id="namedview4"
     showgrid="true"
     inkscape:snap-grids="false"
     inkscape:zoom="19.1875"
     inkscape:cx="31.947883"
     inkscape:cy="32"
     inkscape:window-x="510"
     inkscape:window-y="0"
     inkscape:window-maximized="0"
     inkscape:current-layer="svg2"
     inkscape:snap-bbox="true"
     inkscape:bbox-paths="true"
     inkscape:bbox-nodes="true"
     inkscape:snap-global="false"
     inkscape:snap-nodes="false">
    <inkscape:grid
       type="xygrid"
       id="grid4520"
       empspacing="8" />
  </sodipodi:namedview>
  <path
     style="opacity:0.5;fill:#000000;fill-opacity:1;stroke:none;stroke-width:10.8475399;stroke-linecap:square;stroke-linejoin:miter;stroke-miterlimit:4;stroke-dasharray:none;stroke-opacity:1;filter:url(#filter4694)"
     id="path4524"
     sodipodi:type="arc"
     sodipodi:cx="31.966749"
     sodipodi:cy="57.014408"
     sodipodi:rx="19.033731"
     sodipodi:ry="2.0285149"
     sodipodi:start="0"
     sodipodi:end="6.2760818"
     sodipodi:open="true"
     d="M 51.000481,57.014408 A 19.033731,2.0285149 0 0 1 32.000551,59.04292 19.033731,2.0285149 0 0 1 12.933138,57.021613 19.033731,2.0285149 0 0 1 31.865345,54.985922 19.033731,2.0285149 0 0 1 51,56.999999" />
  <path
     style="opacity:1;fill:url(#radialGradient4737);fill-opacity:1;stroke:none;stroke-width:16;stroke-linecap:square;stroke-linejoin:miter;stroke-miterlimit:4;stroke-dasharray:none;stroke-opacity:1"
     id="path4522"
     sodipodi:type="arc"
     sodipodi:cx="32.000607"
     sodipodi:cy="33.170483"
     sodipodi:rx="24"
     sodipodi:ry="24"
     sodipodi:start="0"
     sodipodi:end="6.2760818"
     sodipodi:open="true"
     d="M 56.000607,33.170483 A 24,24 0 0 1 32.043228,57.170445 24,24 0 0 1 8.0007579,33.255725 24,24 0 0 1 31.872744,9.1708232 24,24 0 0 1 56.000001,33" />
  <path
     sodipodi:nodetypes="cczc"
     inkscape:connector-curvature="0"
     id="path4752"
     d="m 26.840391,24.703583 c -4.37785,1.389794 -8.807818,2.049946 -13.133551,2.29316 0.625407,-4.655809 8.352723,-12.233449 11.570033,-12.299675 3.217311,-0.06622 1.771987,6.479914 1.563518,10.006515 z"
     style="fill:#000000;fill-opacity:1;fill-rule:evenodd;stroke:none;stroke-width:1px;stroke-linecap:butt;stroke-linejoin:miter;stroke-opacity:1" />
  <path
     style="fill:#ffffff;fill-opacity:1;fill-rule:evenodd;stroke:none;stroke-width:1px;stroke-linecap:butt;stroke-linejoin:miter;stroke-opacity:1"
     d="m 26.840391,24.703583 c -4.37785,1.389794 -8.807818,2.049946 -13.133551,2.29316 0.416938,-3.092291 8.196371,-11.660159 11.413681,-11.726385 3.217311,-0.06622 1.928339,5.906624 1.71987,9.433225 z"
     id="path4735"
     inkscape:connector-curvature="0"
     sodipodi:nodetypes="cczc" />
  <path
     style="fill:#ffffff;fill-opacity:1;fill-rule:evenodd;stroke:none;stroke-width:1px;stroke-linecap:butt;stroke-linejoin:miter;stroke-opacity:1"
     d="m 35.967444,24.886266 c 4.37785,1.389794 8.807818,2.049946 13.133551,2.29316 -0.416938,-3.092291 -8.196371,-11.660159 -11.413681,-11.726385 -3.217311,-0.06622 -1.928339,5.906624 -1.71987,9.433225 z"
     id="path4735-3"
     inkscape:connector-curvature="0"
     sodipodi:nodetypes="cczc" />
  <path
     style="fill:#000000;fill-opacity:1;fill-rule:evenodd;stroke:none;stroke-width:1px;stroke-linecap:butt;stroke-linejoin:miter;stroke-opacity:1"
     d="m 35.967444,24.886266 c 4.37785,1.389794 8.807818,2.049946 13.133551,2.29316 -0.57329,-4.238871 -8.352723,-12.077097 -11.570033,-12.143323 -3.217311,-0.06622 -1.771987,6.323562 -1.563518,9.850163 z"
     id="path4756"
     inkscape:connector-curvature="0"
     sodipodi:nodetypes="cczc" />
  <path
     sodipodi:nodetypes="cczc"
     inkscape:connector-curvature="0"
     id="path4754"
     d="m 35.967444,24.886266 c 4.37785,1.389794 8.807818,2.049946 13.133551,2.29316 -0.416938,-3.092291 -8.196371,-11.660159 -11.413681,-11.726385 -3.217311,-0.06622 -1.928339,5.906624 -1.71987,9.433225 z"
     style="fill:#ffffff;fill-opacity:1;fill-rule:evenodd;stroke:none;stroke-width:1px;stroke-linecap:butt;stroke-linejoin:miter;stroke-opacity:1" />
  <path
     style="fill:#000000;fill-opacity:1;fill-rule:evenodd;stroke:none;stroke-width:1px;stroke-linecap:butt;stroke-linejoin:miter;stroke-opacity:1"
     d="M 19.908795,26.267101 C 22.60152,25.919652 24.2519,25.572204 26.736156,24.7557 26.545059,22.375678 26.275215,18.238653 23.60912,18.501629 20.943026,18.764605 20.065147,24.2519 19.908795,26.267101 Z"
     id="path4758"
     inkscape:connector-curvature="0"
     sodipodi:nodetypes="cczc" />
  <path
     sodipodi:nodetypes="cczc"
     inkscape:connector-curvature="0"
     id="path4760"
     d="m 43.100977,26.527688 c -2.692725,-0.347449 -4.343105,-0.694897 -6.827361,-1.511401 0.191097,-2.380022 0.460941,-6.517047 3.127036,-6.254071 2.666094,0.262976 3.543973,5.750271 3.700325,7.765472 z"
     style="fill:#000000;fill-opacity:1;fill-rule:evenodd;stroke:none;stroke-width:1px;stroke-linecap:butt;stroke-linejoin:miter;stroke-opacity:1" />
  <path
     style="fill:#000000;fill-opacity:1;fill-rule:evenodd;stroke:none;stroke-width:1px;stroke-linecap:butt;stroke-linejoin:miter;stroke-opacity:1"
     d="M 25.90228,5.9934853 V 8.6514658 C 22.636265,8.7557002 20.360478,9.5374591 17.355049,11.309446 19.37025,8.8599347 21.906623,6.8273615 25.90228,5.9934853 Z"
     id="path4762"
     inkscape:connector-curvature="0"
     sodipodi:nodetypes="cccc" />
  <path
     sodipodi:nodetypes="cccc"
     inkscape:connector-curvature="0"
     id="path4764"
     d="m 37.107492,5.9934853 v 2.6579805 c 3.266015,0.1042344 5.541802,0.8859933 8.547231,2.6579802 C 43.639522,8.8599347 41.103149,6.8273615 37.107492,5.9934853 Z"
     style="fill:#000000;fill-opacity:1;fill-rule:evenodd;stroke:none;stroke-width:1px;stroke-linecap:butt;stroke-linejoin:miter;stroke-opacity:1" />
  <path
     style="fill:#000000;fill-opacity:1;fill-rule:evenodd;stroke:none;stroke-width:1px;stroke-linecap:butt;stroke-linejoin:miter;stroke-opacity:1"
     d="m 24.078176,39.400651 c 0.260586,-1.546145 1.14658,-3.09229 2.345277,-3.700325 1.094462,-0.312704 4.37785,0.208469 6.566775,0.312703 2.22367,0.260587 4.499457,3.022802 4.482085,4.221499 -0.05212,1.424538 -0.05212,2.327904 -2.188925,2.397394 -2.640608,-0.104235 -3.300761,-3.074919 -5.576548,-2.970684 -1.876221,-0.08686 -5.732899,0.712269 -5.628664,-0.260587 z"
     id="path4766"
     inkscape:connector-curvature="0"
     sodipodi:nodetypes="ccccccc" />
  <path
     style="fill:#ffffff;fill-opacity:1;fill-rule:evenodd;stroke:none;stroke-width:1px;stroke-linecap:butt;stroke-linejoin:miter;stroke-opacity:1"
     d="m 24.703583,39.2443 c -0.277959,-0.694897 0.955483,-2.744843 1.824104,-3.022802 1.528773,-0.225842 4.412595,0.277959 6.618893,0.416938 1.667753,0.225842 4.065147,2.744843 4.01303,3.960913 0,0 -2.814333,1.198697 -4.58632,0 -0.833876,-0.729642 -2.501629,-1.71987 -2.501629,-1.71987 -1.111835,-0.295331 -5.038002,1.07709 -5.368078,0.364821 z"
     id="path4768"
     inkscape:connector-curvature="0"
     sodipodi:nodetypes="ccccccc" />
</svg>
