<?xml version="1.0" encoding="UTF-8" standalone="no"?>
<!-- Created with Inkscape (http://www.inkscape.org/) -->

<svg
   xmlns:dc="http://purl.org/dc/elements/1.1/"
   xmlns:cc="http://creativecommons.org/ns#"
   xmlns:rdf="http://www.w3.org/1999/02/22-rdf-syntax-ns#"
   xmlns:svg="http://www.w3.org/2000/svg"
   xmlns="http://www.w3.org/2000/svg"
   xmlns:xlink="http://www.w3.org/1999/xlink"
   xmlns:sodipodi="http://sodipodi.sourceforge.net/DTD/sodipodi-0.dtd"
   xmlns:inkscape="http://www.inkscape.org/namespaces/inkscape"
   version="1.1"
   id="svg2"
   width="64"
   height="64"
   viewBox="0 0 64 64"
   sodipodi:docname="emo-surprised.svg"
   inkscape:version="0.92.4 5da689c313, 2019-01-14"
   inkscape:export-filename="/home/raster/C/th-efl/th/img/emo-surprised.png"
   inkscape:export-xdpi="96"
   inkscape:export-ydpi="96">
  <metadata
     id="metadata8">
    <rdf:RDF>
      <cc:Work
         rdf:about="">
        <dc:format>image/svg+xml</dc:format>
        <dc:type
           rdf:resource="http://purl.org/dc/dcmitype/StillImage" />
        <dc:title></dc:title>
      </cc:Work>
    </rdf:RDF>
  </metadata>
  <defs
     id="defs6">
    <linearGradient
       inkscape:collect="always"
       id="linearGradient4735">
      <stop
         style="stop-color:#3399ff;stop-opacity:1"
         offset="0"
         id="stop4731" />
      <stop
         style="stop-color:#0050a0;stop-opacity:1"
         offset="1"
         id="stop4733" />
    </linearGradient>
    <filter
       inkscape:collect="always"
       style="color-interpolation-filters:sRGB"
       id="filter4694"
       x="-0.12614952"
       width="1.252299"
       y="-1.1836719"
       height="3.3673438">
      <feGaussianBlur
         inkscape:collect="always"
         stdDeviation="2.0009134"
         id="feGaussianBlur4696" />
    </filter>
    <radialGradient
       inkscape:collect="always"
       xlink:href="#linearGradient4735"
       id="radialGradient4737"
       cx="24.09226"
       cy="20.077192"
       fx="24.09226"
       fy="20.077192"
       r="24"
       gradientUnits="userSpaceOnUse"
       gradientTransform="matrix(0.00863139,1.5472089,-1.3273048,0.00740461,50.532865,-17.347232)" />
  </defs>
  <sodipodi:namedview
     pagecolor="#404040"
     bordercolor="#666666"
     borderopacity="1"
     objecttolerance="10"
     gridtolerance="10"
     guidetolerance="10"
     inkscape:pageopacity="0"
     inkscape:pageshadow="2"
     inkscape:window-width="2032"
     inkscape:window-height="1372"
     id="namedview4"
     showgrid="true"
     inkscape:snap-grids="false"
     inkscape:zoom="19.203125"
     inkscape:cx="38.248983"
     inkscape:cy="32"
     inkscape:window-x="528"
     inkscape:window-y="0"
     inkscape:window-maximized="0"
     inkscape:current-layer="svg2"
     inkscape:snap-bbox="true">
    <inkscape:grid
       type="xygrid"
       id="grid4520"
       empspacing="8" />
  </sodipodi:namedview>
  <path
     style="opacity:0.5;fill:#000000;fill-opacity:1;stroke:none;stroke-width:10.8475399;stroke-linecap:square;stroke-linejoin:miter;stroke-miterlimit:4;stroke-dasharray:none;stroke-opacity:1;filter:url(#filter4694)"
     id="path4524"
     sodipodi:type="arc"
     sodipodi:cx="31.966749"
     sodipodi:cy="57.014408"
     sodipodi:rx="19.033731"
     sodipodi:ry="2.0285149"
     sodipodi:start="0"
     sodipodi:end="6.2760818"
     sodipodi:open="true"
     d="M 51.000481,57.014408 A 19.033731,2.0285149 0 0 1 32.000551,59.04292 19.033731,2.0285149 0 0 1 12.933138,57.021613 19.033731,2.0285149 0 0 1 31.865345,54.985922 19.033731,2.0285149 0 0 1 51,56.999999" />
  <path
     style="opacity:1;fill:url(#radialGradient4737);fill-opacity:1;stroke:none;stroke-width:16;stroke-linecap:square;stroke-linejoin:miter;stroke-miterlimit:4;stroke-dasharray:none;stroke-opacity:1"
     id="path4522"
     sodipodi:type="arc"
     sodipodi:cx="32.000607"
     sodipodi:cy="33.170483"
     sodipodi:rx="24"
     sodipodi:ry="24"
     sodipodi:start="0"
     sodipodi:end="6.2760818"
     sodipodi:open="true"
     d="M 56.000607,33.170483 A 24,24 0 0 1 32.043228,57.170445 24,24 0 0 1 8.0007579,33.255725 24,24 0 0 1 31.872744,9.1708232 24,24 0 0 1 56.000001,33" />
  <path
     style="opacity:1;fill:#000000;fill-opacity:1;stroke:none;stroke-width:4;stroke-linecap:square;stroke-linejoin:miter;stroke-miterlimit:4;stroke-dasharray:none;stroke-opacity:1"
     id="path2483-3"
     sodipodi:type="arc"
     sodipodi:cx="28.531281"
     sodipodi:cy="19.785015"
     sodipodi:rx="6.957655"
     sodipodi:ry="9.1465797"
     sodipodi:start="0"
     sodipodi:end="6.2760818"
     sodipodi:open="true"
     d="m 35.488935,19.785015 a 6.957655,9.1465797 0 0 1 -6.945299,9.146565 6.957655,9.1465797 0 0 1 -6.969967,-9.114079 6.957655,9.1465797 0 0 1 6.920544,-9.178936 6.957655,9.1465797 0 0 1 6.994547,9.081478"
     transform="rotate(11.233713)" />
  <path
     style="opacity:1;fill:#ffffff;fill-opacity:1;stroke:none;stroke-width:4;stroke-linecap:square;stroke-linejoin:miter;stroke-miterlimit:4;stroke-dasharray:none;stroke-opacity:1"
     id="path2483"
     sodipodi:type="arc"
     sodipodi:cx="28.40962"
     sodipodi:cy="19.038715"
     sodipodi:rx="6.957655"
     sodipodi:ry="9.1465797"
     sodipodi:start="0"
     sodipodi:end="6.2760818"
     sodipodi:open="true"
     d="M 35.367275,19.038715 A 6.957655,9.1465797 0 0 1 28.421976,28.185281 6.957655,9.1465797 0 0 1 21.452009,19.071202 6.957655,9.1465797 0 0 1 28.372553,9.8922654 6.957655,9.1465797 0 0 1 35.3671,18.973743"
     transform="rotate(11.233713)" />
  <path
     transform="matrix(-0.9808407,0.19481151,0.19481151,0.9808407,0,0)"
     d="m -27.673513,32.436413 a 6.957655,9.1465797 0 0 1 -6.945299,9.146565 6.957655,9.1465797 0 0 1 -6.969967,-9.114079 6.957655,9.1465797 0 0 1 6.920543,-9.178936 6.957655,9.1465797 0 0 1 6.994547,9.081478"
     sodipodi:open="true"
     sodipodi:end="6.2760818"
     sodipodi:start="0"
     sodipodi:ry="9.1465797"
     sodipodi:rx="6.957655"
     sodipodi:cy="32.436413"
     sodipodi:cx="-34.631168"
     sodipodi:type="arc"
     id="path2485-6"
     style="opacity:1;fill:#000000;fill-opacity:1;stroke:none;stroke-width:4;stroke-linecap:square;stroke-linejoin:miter;stroke-miterlimit:4;stroke-dasharray:none;stroke-opacity:1" />
  <path
     transform="matrix(-0.9808407,0.19481151,0.19481151,0.9808407,0,0)"
     d="m -27.846289,31.700268 a 6.957655,9.1465797 0 0 1 -6.945299,9.146565 6.957655,9.1465797 0 0 1 -6.969967,-9.114079 6.957655,9.1465797 0 0 1 6.920544,-9.178936 6.957655,9.1465797 0 0 1 6.994547,9.081478"
     sodipodi:open="true"
     sodipodi:end="6.2760818"
     sodipodi:start="0"
     sodipodi:ry="9.1465797"
     sodipodi:rx="6.957655"
     sodipodi:cy="31.700268"
     sodipodi:cx="-34.803944"
     sodipodi:type="arc"
     id="path2485"
     style="opacity:1;fill:#ffffff;fill-opacity:1;stroke:none;stroke-width:4;stroke-linecap:square;stroke-linejoin:miter;stroke-miterlimit:4;stroke-dasharray:none;stroke-opacity:1" />
  <path
     style="opacity:1;fill:#000000;fill-opacity:1;stroke:none;stroke-width:4;stroke-linecap:square;stroke-linejoin:miter;stroke-miterlimit:4;stroke-dasharray:none;stroke-opacity:1"
     id="path2505"
     sodipodi:type="arc"
     sodipodi:cx="25.537458"
     sodipodi:cy="24.442997"
     sodipodi:rx="2.4495113"
     sodipodi:ry="2.3973942"
     sodipodi:start="0"
     sodipodi:end="6.2760818"
     sodipodi:open="true"
     d="m 27.98697,24.442997 a 2.4495113,2.3973942 0 0 1 -2.445162,2.39739 2.4495113,2.3973942 0 0 1 -2.453845,-2.388875 2.4495113,2.3973942 0 0 1 2.436445,-2.405875 2.4495113,2.3973942 0 0 1 2.4625,2.38033" />
  <path
     style="opacity:1;fill:#000000;fill-opacity:1;stroke:none;stroke-width:4;stroke-linecap:square;stroke-linejoin:miter;stroke-miterlimit:4;stroke-dasharray:none;stroke-opacity:1"
     id="path2505-1"
     sodipodi:type="arc"
     sodipodi:cx="39.504887"
     sodipodi:cy="24.390879"
     sodipodi:rx="2.4495113"
     sodipodi:ry="2.3973942"
     sodipodi:start="0"
     sodipodi:end="6.2760818"
     sodipodi:open="true"
     d="m 41.954398,24.390879 a 2.4495113,2.3973942 0 0 1 -2.445161,2.39739 2.4495113,2.3973942 0 0 1 -2.453846,-2.388875 2.4495113,2.3973942 0 0 1 2.436446,-2.405875 2.4495113,2.3973942 0 0 1 2.462499,2.38033" />
  <path
     style="fill:#000000;fill-opacity:1;fill-rule:evenodd;stroke:none;stroke-width:1px;stroke-linecap:butt;stroke-linejoin:miter;stroke-opacity:1"
     d="m 26.892508,8.495114 c 0.173724,0.8512487 0.347449,1.702497 0.521173,2.553746 -2.327905,0.08686 -4.44734,0.277959 -7.452769,2.136808 1.841477,-1.980456 4.256243,-3.5960914 6.931596,-4.690554 z"
     id="path2524"
     inkscape:connector-curvature="0"
     sodipodi:nodetypes="cccc" />
  <path
     style="fill:#000000;fill-opacity:1;fill-rule:evenodd;stroke:none;stroke-width:1px;stroke-linecap:butt;stroke-linejoin:miter;stroke-opacity:1"
     d="m 36.37785,8.9120521 c -0.191097,0.7643866 -0.382193,1.5287729 -0.57329,2.2931599 2.744843,0.243214 4.760043,0.851249 7.140065,1.980456 -1.824104,-2.049946 -3.596091,-3.057546 -6.566775,-4.2736159 z"
     id="path2526"
     inkscape:connector-curvature="0"
     sodipodi:nodetypes="cccc" />
  <path
     style="fill:#000000;fill-opacity:1;fill-rule:evenodd;stroke:none;stroke-width:1px;stroke-linecap:butt;stroke-linejoin:miter;stroke-opacity:1"
     d="m 25.881204,39.316517 c 1.996203,-0.156224 3.973841,-0.512283 5.988609,-0.468673 2.014768,0.04361 5.179668,0.214998 6.040683,0.729048 0.861015,0.51405 0.277733,1.596962 0.416599,2.395443 -0.590182,-0.538107 -0.618824,-1.191422 -1.770545,-1.61432 -1.151721,-0.422898 -3.111919,-0.659235 -4.895037,-0.833198 -1.783118,-0.173963 -3.853539,-0.138867 -5.780309,-0.2083 z"
     id="path4242"
     inkscape:connector-curvature="0"
     sodipodi:nodetypes="czzczzc" />
</svg>
