<?xml version="1.0" encoding="UTF-8" standalone="no"?>
<!-- Created with Inkscape (http://www.inkscape.org/) -->

<svg
   xmlns:dc="http://purl.org/dc/elements/1.1/"
   xmlns:cc="http://creativecommons.org/ns#"
   xmlns:rdf="http://www.w3.org/1999/02/22-rdf-syntax-ns#"
   xmlns:svg="http://www.w3.org/2000/svg"
   xmlns="http://www.w3.org/2000/svg"
   xmlns:xlink="http://www.w3.org/1999/xlink"
   xmlns:sodipodi="http://sodipodi.sourceforge.net/DTD/sodipodi-0.dtd"
   xmlns:inkscape="http://www.inkscape.org/namespaces/inkscape"
   version="1.1"
   id="svg2"
   width="64"
   height="64"
   viewBox="0 0 64 64"
   sodipodi:docname="emo-crazy-laugh.svg"
   inkscape:version="0.92.4 5da689c313, 2019-01-14"
   inkscape:export-filename="/home/raster/C/th-efl/th/img/emo-crazy-laugh.png"
   inkscape:export-xdpi="96"
   inkscape:export-ydpi="96">
  <metadata
     id="metadata8">
    <rdf:RDF>
      <cc:Work
         rdf:about="">
        <dc:format>image/svg+xml</dc:format>
        <dc:type
           rdf:resource="http://purl.org/dc/dcmitype/StillImage" />
        <dc:title></dc:title>
      </cc:Work>
    </rdf:RDF>
  </metadata>
  <defs
     id="defs6">
    <linearGradient
       inkscape:collect="always"
       id="linearGradient4735">
      <stop
         style="stop-color:#3399ff;stop-opacity:1"
         offset="0"
         id="stop4731" />
      <stop
         style="stop-color:#0050a0;stop-opacity:1"
         offset="1"
         id="stop4733" />
    </linearGradient>
    <filter
       inkscape:collect="always"
       style="color-interpolation-filters:sRGB"
       id="filter4694"
       x="-0.12614952"
       width="1.252299"
       y="-1.1836719"
       height="3.3673438">
      <feGaussianBlur
         inkscape:collect="always"
         stdDeviation="2.0009134"
         id="feGaussianBlur4696" />
    </filter>
    <radialGradient
       inkscape:collect="always"
       xlink:href="#linearGradient4735"
       id="radialGradient4737"
       cx="24.09226"
       cy="20.077192"
       fx="24.09226"
       fy="20.077192"
       r="24"
       gradientUnits="userSpaceOnUse"
       gradientTransform="matrix(0.00863139,1.5472089,-1.3273048,0.00740461,50.532865,-17.347232)" />
  </defs>
  <sodipodi:namedview
     pagecolor="#404040"
     bordercolor="#666666"
     borderopacity="1"
     objecttolerance="10"
     gridtolerance="10"
     guidetolerance="10"
     inkscape:pageopacity="0"
     inkscape:pageshadow="2"
     inkscape:window-width="2032"
     inkscape:window-height="1372"
     id="namedview4"
     showgrid="true"
     inkscape:snap-grids="false"
     inkscape:zoom="19.09375"
     inkscape:cx="32"
     inkscape:cy="32"
     inkscape:window-x="3088"
     inkscape:window-y="0"
     inkscape:window-maximized="0"
     inkscape:current-layer="svg2">
    <inkscape:grid
       type="xygrid"
       id="grid4520"
       empspacing="8" />
  </sodipodi:namedview>
  <path
     style="opacity:0.5;fill:#000000;fill-opacity:1;stroke:none;stroke-width:10.8475399;stroke-linecap:square;stroke-linejoin:miter;stroke-miterlimit:4;stroke-dasharray:none;stroke-opacity:1;filter:url(#filter4694)"
     id="path4524"
     sodipodi:type="arc"
     sodipodi:cx="31.966749"
     sodipodi:cy="57.014408"
     sodipodi:rx="19.033731"
     sodipodi:ry="2.0285149"
     sodipodi:start="0"
     sodipodi:end="6.2760818"
     sodipodi:open="true"
     d="M 51.000481,57.014408 A 19.033731,2.0285149 0 0 1 32.000551,59.04292 19.033731,2.0285149 0 0 1 12.933138,57.021613 19.033731,2.0285149 0 0 1 31.865345,54.985922 19.033731,2.0285149 0 0 1 51,56.999999" />
  <path
     style="opacity:1;fill:url(#radialGradient4737);fill-opacity:1;stroke:none;stroke-width:16;stroke-linecap:square;stroke-linejoin:miter;stroke-miterlimit:4;stroke-dasharray:none;stroke-opacity:1"
     id="path4522"
     sodipodi:type="arc"
     sodipodi:cx="32.000607"
     sodipodi:cy="33.170483"
     sodipodi:rx="24"
     sodipodi:ry="24"
     sodipodi:start="0"
     sodipodi:end="6.2760818"
     sodipodi:open="true"
     d="M 56.000607,33.170483 A 24,24 0 0 1 32.043228,57.170445 24,24 0 0 1 8.0007579,33.255725 24,24 0 0 1 31.872744,9.1708232 24,24 0 0 1 56.000001,33" />
  <path
     style="opacity:1;fill:#000000;fill-opacity:1;stroke:none;stroke-width:16.71494675;stroke-linecap:square;stroke-linejoin:miter;stroke-miterlimit:4;stroke-dasharray:none;stroke-opacity:1"
     id="path1034"
     sodipodi:type="arc"
     sodipodi:cx="22.238298"
     sodipodi:cy="25.240133"
     sodipodi:rx="6.7618656"
     sodipodi:ry="8.3927984"
     sodipodi:start="0"
     sodipodi:end="6.2760818"
     sodipodi:open="true"
     d="m 29.000164,25.240133 a 6.7618656,8.3927984 0 0 1 -6.749857,8.392785 6.7618656,8.3927984 0 0 1 -6.773832,-8.362976 6.7618656,8.3927984 0 0 1 6.725799,-8.422488 6.7618656,8.3927984 0 0 1 6.797719,8.333061" />
  <path
     d="M 46.178559,23.983177 A 9.5900164,10.959083 0 0 1 36.605574,34.942243 9.5900164,10.959083 0 0 1 26.998587,24.022101 9.5900164,10.959083 0 0 1 36.537451,13.02425 9.5900164,10.959083 0 0 1 46.178317,23.90533"
     sodipodi:open="true"
     sodipodi:end="6.2760818"
     sodipodi:start="0"
     sodipodi:ry="10.959083"
     sodipodi:rx="9.5900164"
     sodipodi:cy="23.983177"
     sodipodi:cx="36.588543"
     sodipodi:type="arc"
     id="path1036"
     style="opacity:1;fill:#000000;fill-opacity:1;stroke:none;stroke-width:22.74653053;stroke-linecap:square;stroke-linejoin:miter;stroke-miterlimit:4;stroke-dasharray:none;stroke-opacity:1" />
  <path
     d="m 29.000164,24.637842 a 6.7618656,7.7905073 0 0 1 -6.749857,7.790495 6.7618656,7.7905073 0 0 1 -6.773832,-7.762825 6.7618656,7.7905073 0 0 1 6.725799,-7.818067 6.7618656,7.7905073 0 0 1 6.797719,7.735058"
     sodipodi:open="true"
     sodipodi:end="6.2760818"
     sodipodi:start="0"
     sodipodi:ry="7.7905073"
     sodipodi:rx="6.7618656"
     sodipodi:cy="24.637842"
     sodipodi:cx="22.238298"
     sodipodi:type="arc"
     id="path1038"
     style="opacity:1;fill:#ffffff;fill-opacity:1;stroke:none;stroke-width:16.10402679;stroke-linecap:square;stroke-linejoin:miter;stroke-miterlimit:4;stroke-dasharray:none;stroke-opacity:1" />
  <path
     style="opacity:1;fill:#ffffff;fill-opacity:1;stroke:none;stroke-width:22.08467102;stroke-linecap:square;stroke-linejoin:miter;stroke-miterlimit:4;stroke-dasharray:none;stroke-opacity:1"
     id="path1040"
     sodipodi:type="arc"
     sodipodi:cx="36.588543"
     sodipodi:cy="23.3547"
     sodipodi:rx="9.5900164"
     sodipodi:ry="10.330605"
     sodipodi:start="0"
     sodipodi:end="6.2760818"
     sodipodi:open="true"
     d="m 46.178559,23.3547 a 9.5900164,10.330605 0 0 1 -9.572985,10.330588 9.5900164,10.330605 0 0 1 -9.606987,-10.293896 9.5900164,10.330605 0 0 1 9.538864,-10.36715 9.5900164,10.330605 0 0 1 9.640866,10.257075" />
  <path
     style="opacity:1;fill:#000000;fill-opacity:1;stroke:none;stroke-width:16;stroke-linecap:square;stroke-linejoin:miter;stroke-miterlimit:4;stroke-dasharray:none;stroke-opacity:1"
     id="path1042"
     sodipodi:type="arc"
     sodipodi:cx="21.603928"
     sodipodi:cy="24.955811"
     sodipodi:rx="2.0687399"
     sodipodi:ry="2.3306055"
     sodipodi:start="0"
     sodipodi:end="6.2760818"
     sodipodi:open="true"
     d="m 23.672668,24.955811 a 2.0687399,2.3306055 0 0 1 -2.065067,2.330601 2.0687399,2.3306055 0 0 1 -2.0724,-2.322324 2.0687399,2.3306055 0 0 1 2.057705,-2.33885 2.0687399,2.3306055 0 0 1 2.079709,2.314017" />
  <path
     d="m 39.27987,24.458265 a 2.7234044,2.7757773 0 0 1 -2.718568,2.775773 2.7234044,2.7757773 0 0 1 -2.728224,-2.765914 2.7234044,2.7757773 0 0 1 2.708878,-2.785597 2.7234044,2.7757773 0 0 1 2.737845,2.756021"
     sodipodi:open="true"
     sodipodi:end="6.2760818"
     sodipodi:start="0"
     sodipodi:ry="2.7757773"
     sodipodi:rx="2.7234044"
     sodipodi:cy="24.458265"
     sodipodi:cx="36.556465"
     sodipodi:type="arc"
     id="path1044"
     style="opacity:1;fill:#000000;fill-opacity:1;stroke:none;stroke-width:20.03461647;stroke-linecap:square;stroke-linejoin:miter;stroke-miterlimit:4;stroke-dasharray:none;stroke-opacity:1" />
  <path
     style="fill:#000000;fill-rule:evenodd;stroke:none;stroke-width:1px;stroke-linecap:butt;stroke-linejoin:miter;stroke-opacity:1;fill-opacity:1"
     d="m 25.977087,7.3322422 c -2.98527,0.4189854 -7.384616,3.1423898 -7.384616,3.1423898 v 0.576104 l 7.384616,-1.9378064 z"
     id="path1046"
     inkscape:connector-curvature="0"
     sodipodi:nodetypes="ccccc" />
  <path
     style="fill:#000000;fill-rule:evenodd;stroke:none;stroke-width:1px;stroke-linecap:butt;stroke-linejoin:miter;stroke-opacity:1;fill-opacity:1"
     d="m 34.094926,5.9181669 c 2.566285,0.314239 7.908347,3.299509 7.908347,3.299509 L 41.9509,10.055646 34.042553,7.8036007 Z"
     id="path1048"
     inkscape:connector-curvature="0"
     sodipodi:nodetypes="ccccc" />
  <path
     style="opacity:1;fill:#000000;fill-opacity:1;fill-rule:evenodd;stroke:none;stroke-width:1px;stroke-linecap:butt;stroke-linejoin:miter;stroke-opacity:1"
     d="m 13.459902,36.870704 c 11.469722,2.775777 23.148936,3.247135 34.409165,-0.15712 0,0 0.770416,17.491142 -16.549918,17.545009 C 13.998815,54.31246 13.459902,36.870704 13.459902,36.870704 Z"
     id="path1050"
     inkscape:connector-curvature="0"
     sodipodi:nodetypes="cczc" />
  <path
     style="fill:#ffffff;fill-opacity:1;fill-rule:evenodd;stroke:none;stroke-width:1px;stroke-linecap:butt;stroke-linejoin:miter;stroke-opacity:1"
     d="m 14.297872,37.761047 c 0.279324,1.187125 0.558647,2.37425 0.837971,3.561375 10.352428,2.671031 20.442989,2.775777 31.214402,0.314239 0.226951,-1.309329 0.453901,-2.618658 0.680852,-3.927987 -10.911075,2.897981 -21.665031,2.444081 -32.733225,0.05237 z"
     id="path1052"
     inkscape:connector-curvature="0"
     sodipodi:nodetypes="ccccc" />
</svg>
