<?xml version="1.0" encoding="UTF-8" standalone="no"?>
<!-- Created with Inkscape (http://www.inkscape.org/) -->

<svg
   xmlns:dc="http://purl.org/dc/elements/1.1/"
   xmlns:cc="http://creativecommons.org/ns#"
   xmlns:rdf="http://www.w3.org/1999/02/22-rdf-syntax-ns#"
   xmlns:svg="http://www.w3.org/2000/svg"
   xmlns="http://www.w3.org/2000/svg"
   xmlns:xlink="http://www.w3.org/1999/xlink"
   xmlns:sodipodi="http://sodipodi.sourceforge.net/DTD/sodipodi-0.dtd"
   xmlns:inkscape="http://www.inkscape.org/namespaces/inkscape"
   version="1.1"
   id="svg2"
   width="64"
   height="64"
   viewBox="0 0 64 64"
   sodipodi:docname="emo-angry-shout.svg"
   inkscape:export-filename="/home/raster/C/th-efl/th/img/emo-angry-shout.png"
   inkscape:export-xdpi="96"
   inkscape:export-ydpi="96"
   inkscape:version="0.92.4 5da689c313, 2019-01-14">
  <metadata
     id="metadata8">
    <rdf:RDF>
      <cc:Work
         rdf:about="">
        <dc:format>image/svg+xml</dc:format>
        <dc:type
           rdf:resource="http://purl.org/dc/dcmitype/StillImage" />
        <dc:title></dc:title>
      </cc:Work>
    </rdf:RDF>
  </metadata>
  <defs
     id="defs6">
    <linearGradient
       inkscape:collect="always"
       id="linearGradient4911">
      <stop
         style="stop-color:#000000;stop-opacity:1;"
         offset="0"
         id="stop4907" />
      <stop
         style="stop-color:#000000;stop-opacity:0;"
         offset="1"
         id="stop4909" />
    </linearGradient>
    <linearGradient
       inkscape:collect="always"
       id="linearGradient4735">
      <stop
         style="stop-color:#3399ff;stop-opacity:1"
         offset="0"
         id="stop4731" />
      <stop
         style="stop-color:#0050a0;stop-opacity:1"
         offset="1"
         id="stop4733" />
    </linearGradient>
    <filter
       inkscape:collect="always"
       style="color-interpolation-filters:sRGB"
       id="filter4694"
       x="-0.12614952"
       width="1.252299"
       y="-1.1836719"
       height="3.3673438">
      <feGaussianBlur
         inkscape:collect="always"
         stdDeviation="2.0009134"
         id="feGaussianBlur4696" />
    </filter>
    <radialGradient
       inkscape:collect="always"
       xlink:href="#linearGradient4735"
       id="radialGradient4737"
       cx="24.09226"
       cy="20.077192"
       fx="24.09226"
       fy="20.077192"
       r="24"
       gradientUnits="userSpaceOnUse"
       gradientTransform="matrix(0.00863139,1.5472089,-1.3273048,0.00740461,50.532865,-17.347232)" />
    <linearGradient
       inkscape:collect="always"
       xlink:href="#linearGradient4911"
       id="linearGradient4913"
       x1="31.685246"
       y1="30.426229"
       x2="31.737705"
       y2="31.303648"
       gradientUnits="userSpaceOnUse" />
  </defs>
  <sodipodi:namedview
     pagecolor="#404040"
     bordercolor="#666666"
     borderopacity="1"
     objecttolerance="10"
     gridtolerance="10"
     guidetolerance="10"
     inkscape:pageopacity="0"
     inkscape:pageshadow="2"
     inkscape:window-width="2050"
     inkscape:window-height="1372"
     id="namedview4"
     showgrid="true"
     inkscape:snap-grids="false"
     inkscape:zoom="19.0625"
     inkscape:cx="34.098361"
     inkscape:cy="32"
     inkscape:window-x="2936"
     inkscape:window-y="0"
     inkscape:window-maximized="0"
     inkscape:current-layer="svg2">
    <inkscape:grid
       type="xygrid"
       id="grid4520"
       empspacing="8" />
  </sodipodi:namedview>
  <path
     style="opacity:0.5;fill:#000000;fill-opacity:1;stroke:none;stroke-width:10.8475399;stroke-linecap:square;stroke-linejoin:miter;stroke-miterlimit:4;stroke-dasharray:none;stroke-opacity:1;filter:url(#filter4694)"
     id="path4524"
     sodipodi:type="arc"
     sodipodi:cx="31.966749"
     sodipodi:cy="57.014408"
     sodipodi:rx="19.033731"
     sodipodi:ry="2.0285149"
     sodipodi:start="0"
     sodipodi:end="6.2760818"
     sodipodi:open="true"
     d="M 51.000481,57.014408 A 19.033731,2.0285149 0 0 1 32.000551,59.04292 19.033731,2.0285149 0 0 1 12.933138,57.021613 19.033731,2.0285149 0 0 1 31.865345,54.985922 19.033731,2.0285149 0 0 1 51,56.999999" />
  <path
     style="opacity:1;fill:url(#radialGradient4737);fill-opacity:1;stroke:none;stroke-width:16;stroke-linecap:square;stroke-linejoin:miter;stroke-miterlimit:4;stroke-dasharray:none;stroke-opacity:1"
     id="path4522"
     sodipodi:type="arc"
     sodipodi:cx="32.000607"
     sodipodi:cy="33.170483"
     sodipodi:rx="24"
     sodipodi:ry="24"
     sodipodi:start="0"
     sodipodi:end="6.2760818"
     sodipodi:open="true"
     d="M 56.000607,33.170483 A 24,24 0 0 1 32.043228,57.170445 24,24 0 0 1 8.0007579,33.255725 24,24 0 0 1 31.872744,9.1708232 24,24 0 0 1 56.000001,33" />
  <path
     style="fill:#ffffff;fill-opacity:1;fill-rule:evenodd;stroke:none;stroke-width:1px;stroke-linecap:butt;stroke-linejoin:miter;stroke-opacity:1"
     d="m 15.842623,25.6 c 0,0 4.042941,8.956457 9.547541,8.708197 5.5046,-0.24826 6.452459,-4.511476 6.452459,-4.511476 0,0 -3.561899,0.185387 -5.770492,0.314754 C 23.863538,30.240842 21.048438,26.411317 19.2,25.862295 17.351562,25.313273 15.842623,25.6 15.842623,25.6 Z"
     id="path4899"
     inkscape:connector-curvature="0"
     sodipodi:nodetypes="czczzc" />
  <path
     style="fill:#ffffff;fill-opacity:1;fill-rule:evenodd;stroke:none;stroke-width:1px;stroke-linecap:butt;stroke-linejoin:miter;stroke-opacity:1"
     d="m 31.842623,29.796721 c 0,0 0.414019,4.26693 6.295082,4.144263 5.881063,-0.122667 8.813115,-8.760656 8.813115,-8.760656 0,0 -0.642746,-0.142917 -2.255738,0.419672 -1.612992,0.562589 -4.822113,3.080098 -7.029508,3.72459 -2.207395,0.644492 -5.822951,0.472131 -5.822951,0.472131 z"
     id="path4901"
     inkscape:connector-curvature="0"
     sodipodi:nodetypes="czczzc" />
  <path
     style="fill:#000000;fill-opacity:1;fill-rule:evenodd;stroke:none;stroke-width:1px;stroke-linecap:butt;stroke-linejoin:miter;stroke-opacity:1"
     d="m 35.462295,29.219672 c 0,0 0.394807,1.990801 2.15082,1.940984 1.756013,-0.04982 1.940983,-2.622951 1.940983,-2.622951 0,0 -1.190563,0.664484 -1.888524,0.786885 -0.697961,0.122401 -2.203279,-0.104918 -2.203279,-0.104918 z"
     id="path4903"
     inkscape:connector-curvature="0"
     sodipodi:nodetypes="czczc" />
  <path
     style="fill:#000000;fill-opacity:1;fill-rule:evenodd;stroke:none;stroke-width:1px;stroke-linecap:butt;stroke-linejoin:miter;stroke-opacity:1"
     d="m 27.488525,29.744262 c 0,0 -0.06967,1.333829 -1.888525,1.363935 -1.818854,0.03011 -2.518033,-2.990164 -2.518033,-2.990164 0,0 2.159087,1.853207 2.990164,1.993442 0.831077,0.140235 1.416394,-0.367213 1.416394,-0.367213 z"
     id="path4905"
     inkscape:connector-curvature="0"
     sodipodi:nodetypes="czczc" />
  <path
     style="fill:url(#linearGradient4913);fill-opacity:1;fill-rule:evenodd;stroke:none;stroke-width:1px;stroke-linecap:butt;stroke-linejoin:miter;stroke-opacity:1"
     d="m 13.009836,25.07541 c 0,0 3.843145,-0.149939 6.137705,0.52459 2.29456,0.674529 5.190131,3.438327 7.239344,3.829508 2.049213,0.391181 3.981981,-0.01516 4.30164,-0.472131 0.324308,-0.46362 -1.521312,-3.2 -1.521312,-3.2 0,0 1.937285,2.739013 2.518033,2.727869 C 32.265994,28.474102 34.255738,25.6 34.255738,25.6 c 0,0 -1.798226,2.753399 -1.468853,3.2 0.296674,0.402264 2.864452,0.303921 5.036066,-0.262295 2.171614,-0.566216 5.34316,-3.174075 7.554098,-3.72459 2.210938,-0.550515 5.245902,-0.157377 5.245902,-0.157377 0,0 -3.0361,0.294846 -5.245902,1.101639 -2.209802,0.806793 -5.465598,3.579006 -7.711475,4.144262 -2.245877,0.565256 -4.183727,-0.571764 -5.140984,0 -0.957257,0.571764 -0.205773,1.31068 -0.734426,1.363935 -0.528653,0.05326 -0.09202,-0.823749 -1.04918,-1.259017 -0.957163,-0.435268 -2.569528,0.610134 -4.668853,0.104918 -2.099325,-0.505216 -5.06822,-3.143559 -7.291803,-3.934426 -2.223583,-0.790867 -5.770492,-1.101639 -5.770492,-1.101639 z"
     id="path4897"
     inkscape:connector-curvature="0"
     sodipodi:nodetypes="czzsczcszzczzzzzzzc" />
  <path
     style="fill:#ffffff;fill-opacity:1;fill-rule:evenodd;stroke:none;stroke-width:1px;stroke-linecap:butt;stroke-linejoin:miter;stroke-opacity:1"
     d="m 25.022951,48.104918 c -0.339022,-3.571739 0.469461,-9.12019 2.622951,-9.390164 2.15349,-0.269974 2.83108,0.727578 4.354098,0.681967 1.523018,-0.04561 2.139854,-1.165008 4.563934,-0.891803 2.42408,0.273205 2.934391,5.762419 2.780328,9.337705 -0.154063,3.575286 -0.909285,9.493723 -3.567213,10.754098 -2.657928,1.260375 -3.441369,1.163584 -5.718033,0 -2.276664,-1.163584 -4.697043,-6.920064 -5.036065,-10.491803 z"
     id="path4915"
     inkscape:connector-curvature="0"
     sodipodi:nodetypes="zzzzzzzz" />
  <path
     style="fill:#000000;fill-opacity:1;fill-rule:evenodd;stroke:none;stroke-width:1px;stroke-linecap:butt;stroke-linejoin:miter;stroke-opacity:1"
     d="m 25.022951,48.104918 c 0,0 -0.397524,-8.432062 1.783607,-9.337705 2.181131,-0.905643 3.780399,0.575878 5.193442,0.52459 1.413043,-0.05129 3.196558,-1.594 5.455737,-0.891803 2.259179,0.702197 1.940984,9.6 1.940984,9.6 0,0 -0.684424,-8.623463 -2.570492,-8.603279 -1.886068,0.02018 -3.517176,0.936278 -4.826229,0.891804 -1.309053,-0.04447 -2.25651,-0.70036 -3.72459,-0.629509 -3.434454,0.16575 -3.252459,8.445902 -3.252459,8.445902 z"
     id="path4917"
     inkscape:connector-curvature="0"
     sodipodi:nodetypes="czzzczzsc" />
  <path
     style="fill:#000000;fill-opacity:1;fill-rule:evenodd;stroke:none;stroke-width:1px;stroke-linecap:butt;stroke-linejoin:miter;stroke-opacity:1"
     d="m 25.022951,48.104918 c -0.143326,-2.259819 0.914509,-4.236457 2.990164,-4.878688 2.075655,-0.642231 6.52674,-0.596021 8.288524,-0.209837 1.761784,0.386184 2.897825,2.840586 3.095082,4.983607 0.197257,2.143021 -0.194171,5.177523 -0.839344,5.927869 -0.645173,0.750346 -4.028312,1.268351 -6.032787,1.311475 -2.004475,0.04312 -5.30509,-0.366246 -5.770492,-0.996721 -0.465402,-0.630475 -1.587821,-3.877886 -1.731147,-6.137705 z"
     id="path4919"
     inkscape:connector-curvature="0"
     sodipodi:nodetypes="zzzzzzzz" />
</svg>
