<?xml version="1.0" encoding="UTF-8" standalone="no"?>
<!-- Created with Inkscape (http://www.inkscape.org/) -->

<svg
   xmlns:dc="http://purl.org/dc/elements/1.1/"
   xmlns:cc="http://creativecommons.org/ns#"
   xmlns:rdf="http://www.w3.org/1999/02/22-rdf-syntax-ns#"
   xmlns:svg="http://www.w3.org/2000/svg"
   xmlns="http://www.w3.org/2000/svg"
   xmlns:xlink="http://www.w3.org/1999/xlink"
   xmlns:sodipodi="http://sodipodi.sourceforge.net/DTD/sodipodi-0.dtd"
   xmlns:inkscape="http://www.inkscape.org/namespaces/inkscape"
   version="1.1"
   id="svg2"
   width="64"
   height="64"
   viewBox="0 0 64 64"
   sodipodi:docname="emo-tongue-dangling.svg"
   inkscape:version="0.92.4 5da689c313, 2019-01-14"
   inkscape:export-filename="/home/raster/C/th-efl/th/img/emo-tongue-dangling.png"
   inkscape:export-xdpi="96"
   inkscape:export-ydpi="96">
  <metadata
     id="metadata8">
    <rdf:RDF>
      <cc:Work
         rdf:about="">
        <dc:format>image/svg+xml</dc:format>
        <dc:type
           rdf:resource="http://purl.org/dc/dcmitype/StillImage" />
        <dc:title></dc:title>
      </cc:Work>
    </rdf:RDF>
  </metadata>
  <defs
     id="defs6">
    <linearGradient
       inkscape:collect="always"
       id="linearGradient4735">
      <stop
         style="stop-color:#3399ff;stop-opacity:1"
         offset="0"
         id="stop4731" />
      <stop
         style="stop-color:#0050a0;stop-opacity:1"
         offset="1"
         id="stop4733" />
    </linearGradient>
    <filter
       inkscape:collect="always"
       style="color-interpolation-filters:sRGB"
       id="filter4694"
       x="-0.12614952"
       width="1.252299"
       y="-1.1836719"
       height="3.3673438">
      <feGaussianBlur
         inkscape:collect="always"
         stdDeviation="2.0009134"
         id="feGaussianBlur4696" />
    </filter>
    <radialGradient
       inkscape:collect="always"
       xlink:href="#linearGradient4735"
       id="radialGradient4737"
       cx="24.09226"
       cy="20.077192"
       fx="24.09226"
       fy="20.077192"
       r="24"
       gradientUnits="userSpaceOnUse"
       gradientTransform="matrix(0.00863139,1.5472089,-1.3273048,0.00740461,50.532865,-17.347232)" />
    <radialGradient
       gradientTransform="matrix(0.00863139,1.5472089,-1.3273048,0.00740461,50.532865,-17.347232)"
       gradientUnits="userSpaceOnUse"
       r="24"
       fy="20.077192"
       fx="24.09226"
       cy="20.077192"
       cx="24.09226"
       id="radialGradient4737-1"
       xlink:href="#linearGradient4735"
       inkscape:collect="always" />
  </defs>
  <sodipodi:namedview
     pagecolor="#404040"
     bordercolor="#666666"
     borderopacity="1"
     objecttolerance="10"
     gridtolerance="10"
     guidetolerance="10"
     inkscape:pageopacity="0"
     inkscape:pageshadow="2"
     inkscape:window-width="2032"
     inkscape:window-height="1372"
     id="namedview4"
     showgrid="true"
     inkscape:snap-grids="false"
     inkscape:zoom="19.203125"
     inkscape:cx="32"
     inkscape:cy="32"
     inkscape:window-x="528"
     inkscape:window-y="0"
     inkscape:window-maximized="0"
     inkscape:current-layer="svg2"
     inkscape:snap-bbox="true">
    <inkscape:grid
       type="xygrid"
       id="grid4520"
       empspacing="8" />
  </sodipodi:namedview>
  <path
     style="opacity:0.5;fill:#000000;fill-opacity:1;stroke:none;stroke-width:10.8475399;stroke-linecap:square;stroke-linejoin:miter;stroke-miterlimit:4;stroke-dasharray:none;stroke-opacity:1;filter:url(#filter4694)"
     id="path4524"
     sodipodi:type="arc"
     sodipodi:cx="31.966749"
     sodipodi:cy="57.014408"
     sodipodi:rx="19.033731"
     sodipodi:ry="2.0285149"
     sodipodi:start="0"
     sodipodi:end="6.2760818"
     sodipodi:open="true"
     d="M 51.000481,57.014408 A 19.033731,2.0285149 0 0 1 32.000551,59.04292 19.033731,2.0285149 0 0 1 12.933138,57.021613 19.033731,2.0285149 0 0 1 31.865345,54.985922 19.033731,2.0285149 0 0 1 51,56.999999" />
  <path
     style="opacity:1;fill:url(#radialGradient4737);fill-opacity:1;stroke:none;stroke-width:16;stroke-linecap:square;stroke-linejoin:miter;stroke-miterlimit:4;stroke-dasharray:none;stroke-opacity:1"
     id="path4522"
     sodipodi:type="arc"
     sodipodi:cx="32.000607"
     sodipodi:cy="33.170483"
     sodipodi:rx="24"
     sodipodi:ry="24"
     sodipodi:start="0"
     sodipodi:end="6.2760818"
     sodipodi:open="true"
     d="M 56.000607,33.170483 A 24,24 0 0 1 32.043228,57.170445 24,24 0 0 1 8.0007579,33.255725 24,24 0 0 1 31.872744,9.1708232 24,24 0 0 1 56.000001,33" />
  <path
     style="opacity:1;fill:url(#radialGradient4737-1);fill-opacity:1;stroke:none;stroke-width:16;stroke-linecap:square;stroke-linejoin:miter;stroke-miterlimit:4;stroke-dasharray:none;stroke-opacity:1"
     id="path4522-5"
     sodipodi:type="arc"
     sodipodi:cx="32.000607"
     sodipodi:cy="33.170483"
     sodipodi:rx="24"
     sodipodi:ry="24"
     sodipodi:start="0"
     sodipodi:end="6.2760818"
     sodipodi:open="true"
     d="M 56.000607,33.170483 A 24,24 0 0 1 32.043228,57.170445 24,24 0 0 1 8.0007579,33.255725 24,24 0 0 1 31.872744,9.1708232 24,24 0 0 1 56.000001,33" />
  <path
     transform="rotate(-11.222003)"
     d="m 42.361342,35.322704 a 7.7133551,9.3029318 0 0 1 -7.699657,9.302917 7.7133551,9.3029318 0 0 1 -7.727004,-9.269875 7.7133551,9.3029318 0 0 1 7.672213,-9.335841 7.7133551,9.3029318 0 0 1 7.754254,9.236716"
     sodipodi:open="true"
     sodipodi:end="6.2760818"
     sodipodi:start="0"
     sodipodi:ry="9.3029318"
     sodipodi:rx="7.7133551"
     sodipodi:cy="35.322704"
     sodipodi:cx="34.647987"
     sodipodi:type="arc"
     id="path3217"
     style="opacity:1;fill:#000000;fill-opacity:1;stroke:none;stroke-width:3.98374724;stroke-linecap:square;stroke-linejoin:miter;stroke-miterlimit:4;stroke-dasharray:none;stroke-opacity:1" />
  <path
     style="opacity:1;fill:#ffffff;fill-opacity:1;stroke:none;stroke-width:3.98374724;stroke-linecap:square;stroke-linejoin:miter;stroke-miterlimit:4;stroke-dasharray:none;stroke-opacity:1"
     id="path3205"
     sodipodi:type="arc"
     sodipodi:cx="34.667458"
     sodipodi:cy="34.688969"
     sodipodi:rx="7.7133551"
     sodipodi:ry="9.3029318"
     sodipodi:start="0"
     sodipodi:end="6.2760818"
     sodipodi:open="true"
     d="m 42.380813,34.688969 a 7.7133551,9.3029318 0 0 1 -7.699657,9.302917 7.7133551,9.3029318 0 0 1 -7.727005,-9.269876 7.7133551,9.3029318 0 0 1 7.672213,-9.335841 7.7133551,9.3029318 0 0 1 7.754254,9.236717"
     transform="rotate(-11.222003)" />
  <path
     transform="rotate(10.619397)"
     style="opacity:1;fill:#000000;fill-opacity:1;stroke:none;stroke-width:3.98374724;stroke-linecap:square;stroke-linejoin:miter;stroke-miterlimit:4;stroke-dasharray:none;stroke-opacity:1"
     id="path3219"
     sodipodi:type="arc"
     sodipodi:cx="28.177227"
     sodipodi:cy="22.736443"
     sodipodi:rx="7.7133551"
     sodipodi:ry="9.3029318"
     sodipodi:start="0"
     sodipodi:end="6.2760818"
     sodipodi:open="true"
     d="m 35.890582,22.736443 a 7.7133551,9.3029318 0 0 1 -7.699657,9.302917 7.7133551,9.3029318 0 0 1 -7.727004,-9.269876 7.7133551,9.3029318 0 0 1 7.672212,-9.335841 7.7133551,9.3029318 0 0 1 7.754254,9.236717" />
  <path
     d="m 35.672881,22.140955 a 7.7133551,9.3029318 0 0 1 -7.699657,9.302917 7.7133551,9.3029318 0 0 1 -7.727004,-9.269875 7.7133551,9.3029318 0 0 1 7.672212,-9.335842 7.7133551,9.3029318 0 0 1 7.754255,9.236717"
     sodipodi:open="true"
     sodipodi:end="6.2760818"
     sodipodi:start="0"
     sodipodi:ry="9.3029318"
     sodipodi:rx="7.7133551"
     sodipodi:cy="22.140955"
     sodipodi:cx="27.959526"
     sodipodi:type="arc"
     id="path3207"
     style="opacity:1;fill:#ffffff;fill-opacity:1;stroke:none;stroke-width:3.98374724;stroke-linecap:square;stroke-linejoin:miter;stroke-miterlimit:4;stroke-dasharray:none;stroke-opacity:1"
     transform="rotate(10.619397)" />
  <path
     style="opacity:1;fill:#000000;fill-opacity:1;stroke:none;stroke-width:4;stroke-linecap:square;stroke-linejoin:miter;stroke-miterlimit:4;stroke-dasharray:none;stroke-opacity:1"
     id="path3209"
     sodipodi:type="arc"
     sodipodi:cx="26.240831"
     sodipodi:cy="26.314894"
     sodipodi:rx="3.7785015"
     sodipodi:ry="4.0651464"
     sodipodi:start="0"
     sodipodi:end="6.2760818"
     sodipodi:open="true"
     d="m 30.019333,26.314894 a 3.7785015,4.0651464 0 0 1 -3.771791,4.06514 3.7785015,4.0651464 0 0 1 -3.785188,-4.050702 3.7785015,4.0651464 0 0 1 3.758347,-4.079527 3.7785015,4.0651464 0 0 1 3.798537,4.036212" />
  <path
     style="opacity:1;fill:#000000;fill-opacity:1;stroke:none;stroke-width:4;stroke-linecap:square;stroke-linejoin:miter;stroke-miterlimit:4;stroke-dasharray:none;stroke-opacity:1"
     id="path3211"
     sodipodi:type="arc"
     sodipodi:cx="38.097511"
     sodipodi:cy="26.132484"
     sodipodi:rx="3.0228014"
     sodipodi:ry="3.1009772"
     sodipodi:start="0"
     sodipodi:end="6.2760818"
     sodipodi:open="true"
     d="m 41.120313,26.132484 a 3.0228014,3.1009772 0 0 1 -3.017434,3.100973 3.0228014,3.1009772 0 0 1 -3.02815,-3.089959 3.0228014,3.1009772 0 0 1 3.006678,-3.111947 3.0228014,3.1009772 0 0 1 3.038829,3.078906" />
  <path
     style="fill:#000000;fill-opacity:1;fill-rule:evenodd;stroke:none;stroke-width:1px;stroke-linecap:butt;stroke-linejoin:miter;stroke-opacity:1"
     d="m 17.928126,18.445185 c 1.893594,-1.858849 4.568947,-3.561346 7.869707,-4.794787 -0.01737,0.833876 -0.03475,1.667752 -0.05212,2.501628 -3.0228,0.191096 -4.742669,0.799131 -7.817587,2.293159 z"
     id="path3213"
     inkscape:connector-curvature="0"
     sodipodi:nodetypes="cccc" />
  <path
     style="fill:#000000;fill-opacity:1;fill-rule:evenodd;stroke:none;stroke-width:1px;stroke-linecap:butt;stroke-linejoin:miter;stroke-opacity:1"
     d="m 33.823892,11.565707 c 0.694897,0.277959 1.233442,1.181325 2.08469,2.397394 1.337677,-2.049945 2.362649,-2.536373 6.67101,-3.491856 -3.335505,0 -6.514658,0.416938 -8.7557,1.094462 z"
     id="path3215"
     inkscape:connector-curvature="0"
     sodipodi:nodetypes="cccc" />
  <path
     style="fill:#000000;fill-opacity:1;fill-rule:evenodd;stroke:none;stroke-width:1px;stroke-linecap:butt;stroke-linejoin:miter;stroke-opacity:1"
     d="m 18.665402,43.835326 c 11.240635,0.698233 15.451164,-0.113704 26.066901,-0.977717 -4.25278,0.694331 -8.357044,2.093763 -12.75834,2.082994 -4.401296,-0.01077 -8.872374,-0.389686 -13.308561,-1.105277 z"
     id="path4779"
     inkscape:connector-curvature="0"
     sodipodi:nodetypes="cczc" />
  <path
     style="fill:#b24b3f;fill-opacity:1;fill-rule:evenodd;stroke:none;stroke-width:1px;stroke-linecap:butt;stroke-linejoin:miter;stroke-opacity:1"
     d="m 17.101926,43.523852 c 0.347199,-0.764387 1.058997,-0.539054 2.396674,-0.573799 2.327904,0.104235 3.040724,0.469395 3.492407,1.146919 0.660152,-0.677524 1.528816,-0.365668 4.273659,-0.261433 1.077046,0.399141 0.590787,3.770832 0.573414,6.255088 -0.06949,0.833876 -1.000329,3.240471 -4.899022,3.127036 -3.898693,-0.113435 -5.611292,-1.980456 -5.680782,-3.439739 -0.05212,-2.084691 -0.104233,-4.169381 -0.15635,-6.254072 z"
     id="path1819"
     inkscape:connector-curvature="0"
     sodipodi:nodetypes="ccccczcc" />
</svg>
