<?xml version="1.0" encoding="UTF-8" standalone="no"?>
<!-- Created with Inkscape (http://www.inkscape.org/) -->

<svg
   xmlns:dc="http://purl.org/dc/elements/1.1/"
   xmlns:cc="http://creativecommons.org/ns#"
   xmlns:rdf="http://www.w3.org/1999/02/22-rdf-syntax-ns#"
   xmlns:svg="http://www.w3.org/2000/svg"
   xmlns="http://www.w3.org/2000/svg"
   xmlns:xlink="http://www.w3.org/1999/xlink"
   xmlns:sodipodi="http://sodipodi.sourceforge.net/DTD/sodipodi-0.dtd"
   xmlns:inkscape="http://www.inkscape.org/namespaces/inkscape"
   version="1.1"
   id="svg2"
   width="64"
   height="64"
   viewBox="0 0 64 64"
   sodipodi:docname="emo-guilty-smile.svg"
   inkscape:version="0.92.4 5da689c313, 2019-01-14"
   inkscape:export-filename="/home/raster/C/th-efl/th/img/emo-guilty-smile.png"
   inkscape:export-xdpi="96"
   inkscape:export-ydpi="96">
  <metadata
     id="metadata8">
    <rdf:RDF>
      <cc:Work
         rdf:about="">
        <dc:format>image/svg+xml</dc:format>
        <dc:type
           rdf:resource="http://purl.org/dc/dcmitype/StillImage" />
        <dc:title></dc:title>
      </cc:Work>
    </rdf:RDF>
  </metadata>
  <defs
     id="defs6">
    <linearGradient
       inkscape:collect="always"
       id="linearGradient4735">
      <stop
         style="stop-color:#3399ff;stop-opacity:1"
         offset="0"
         id="stop4731" />
      <stop
         style="stop-color:#0050a0;stop-opacity:1"
         offset="1"
         id="stop4733" />
    </linearGradient>
    <filter
       inkscape:collect="always"
       style="color-interpolation-filters:sRGB"
       id="filter4694"
       x="-0.12614952"
       width="1.252299"
       y="-1.1836719"
       height="3.3673438">
      <feGaussianBlur
         inkscape:collect="always"
         stdDeviation="2.0009134"
         id="feGaussianBlur4696" />
    </filter>
    <radialGradient
       inkscape:collect="always"
       xlink:href="#linearGradient4735"
       id="radialGradient4737"
       cx="24.09226"
       cy="20.077192"
       fx="24.09226"
       fy="20.077192"
       r="24"
       gradientUnits="userSpaceOnUse"
       gradientTransform="matrix(0.00863139,1.5472089,-1.3273048,0.00740461,50.532865,-17.347232)" />
    <radialGradient
       inkscape:collect="always"
       xlink:href="#linearGradient4735"
       id="radialGradient1251"
       cx="23.97785"
       cy="15.377245"
       fx="23.97785"
       fy="15.377245"
       r="6.883388"
       gradientTransform="matrix(-1.3043541,1.4125577,-1.0889776,-1.0055606,71.99893,-2.6097114)"
       gradientUnits="userSpaceOnUse" />
    <radialGradient
       inkscape:collect="always"
       xlink:href="#linearGradient4735"
       id="radialGradient1253"
       cx="36.79895"
       cy="14.736724"
       fx="36.79895"
       fy="14.736724"
       r="6.82973"
       gradientTransform="matrix(1.5685581,1.4305109,-1.2038553,1.3200298,-3.1814581,-56.954718)"
       gradientUnits="userSpaceOnUse" />
  </defs>
  <sodipodi:namedview
     pagecolor="#404040"
     bordercolor="#666666"
     borderopacity="1"
     objecttolerance="10"
     gridtolerance="10"
     guidetolerance="10"
     inkscape:pageopacity="0"
     inkscape:pageshadow="2"
     inkscape:window-width="2032"
     inkscape:window-height="1372"
     id="namedview4"
     showgrid="true"
     inkscape:snap-grids="false"
     inkscape:zoom="19.1875"
     inkscape:cx="32"
     inkscape:cy="32"
     inkscape:window-x="528"
     inkscape:window-y="0"
     inkscape:window-maximized="0"
     inkscape:current-layer="svg2"
     inkscape:snap-bbox="true">
    <inkscape:grid
       type="xygrid"
       id="grid4520"
       empspacing="8" />
  </sodipodi:namedview>
  <path
     style="opacity:0.5;fill:#000000;fill-opacity:1;stroke:none;stroke-width:10.8475399;stroke-linecap:square;stroke-linejoin:miter;stroke-miterlimit:4;stroke-dasharray:none;stroke-opacity:1;filter:url(#filter4694)"
     id="path4524"
     sodipodi:type="arc"
     sodipodi:cx="31.966749"
     sodipodi:cy="57.014408"
     sodipodi:rx="19.033731"
     sodipodi:ry="2.0285149"
     sodipodi:start="0"
     sodipodi:end="6.2760818"
     sodipodi:open="true"
     d="M 51.000481,57.014408 A 19.033731,2.0285149 0 0 1 32.000551,59.04292 19.033731,2.0285149 0 0 1 12.933138,57.021613 19.033731,2.0285149 0 0 1 31.865345,54.985922 19.033731,2.0285149 0 0 1 51,56.999999" />
  <path
     style="opacity:1;fill:url(#radialGradient4737);fill-opacity:1;stroke:none;stroke-width:16;stroke-linecap:square;stroke-linejoin:miter;stroke-miterlimit:4;stroke-dasharray:none;stroke-opacity:1"
     id="path4522"
     sodipodi:type="arc"
     sodipodi:cx="32.000607"
     sodipodi:cy="33.170483"
     sodipodi:rx="24"
     sodipodi:ry="24"
     sodipodi:start="0"
     sodipodi:end="6.2760818"
     sodipodi:open="true"
     d="M 56.000607,33.170483 A 24,24 0 0 1 32.043228,57.170445 24,24 0 0 1 8.0007579,33.255725 24,24 0 0 1 31.872744,9.1708232 24,24 0 0 1 56.000001,33" />
  <path
     sodipodi:nodetypes="cczc"
     inkscape:connector-curvature="0"
     id="path4752"
     d="m 28.039088,23.140065 c -4.37785,1.389794 -8.807818,2.049946 -13.133551,2.29316 0.625407,-4.655809 8.352723,-12.233449 11.570033,-12.299675 3.217311,-0.06622 1.771987,6.479914 1.563518,10.006515 z"
     style="fill:#000000;fill-opacity:1;fill-rule:evenodd;stroke:none;stroke-width:1px;stroke-linecap:butt;stroke-linejoin:miter;stroke-opacity:1" />
  <path
     style="fill:#ffffff;fill-opacity:1;fill-rule:evenodd;stroke:none;stroke-width:1px;stroke-linecap:butt;stroke-linejoin:miter;stroke-opacity:1"
     d="m 28.039088,23.140065 c -4.37785,1.389794 -8.807818,2.049946 -13.133551,2.29316 0.416938,-3.092291 8.196371,-11.660159 11.413681,-11.726385 3.217311,-0.06622 1.928339,5.906624 1.71987,9.433225 z"
     id="path4735-0"
     inkscape:connector-curvature="0"
     sodipodi:nodetypes="cczc" />
  <path
     style="fill:#000000;fill-opacity:1;fill-rule:evenodd;stroke:none;stroke-width:1px;stroke-linecap:butt;stroke-linejoin:miter;stroke-opacity:1"
     d="m 21.107492,24.703583 c 2.692725,-0.347449 4.343105,-0.694897 6.827361,-1.511401 -0.191097,-2.380022 -0.460941,-6.517047 -3.127036,-6.254071 -2.666094,0.262976 -3.543973,5.750271 -3.700325,7.765472 z"
     id="path4758"
     inkscape:connector-curvature="0"
     sodipodi:nodetypes="cczc" />
  <path
     style="fill:#ffffff;fill-opacity:1;fill-rule:evenodd;stroke:none;stroke-width:1px;stroke-linecap:butt;stroke-linejoin:miter;stroke-opacity:1"
     d="m 34.351809,22.645224 c 4.37785,1.389794 8.807818,2.049946 13.133551,2.29316 -0.416938,-3.092291 -8.196371,-11.660159 -11.413681,-11.726385 -3.217311,-0.06622 -1.928339,5.906624 -1.71987,9.433225 z"
     id="path4735-3"
     inkscape:connector-curvature="0"
     sodipodi:nodetypes="cczc" />
  <path
     style="fill:#000000;fill-opacity:1;fill-rule:evenodd;stroke:none;stroke-width:1px;stroke-linecap:butt;stroke-linejoin:miter;stroke-opacity:1"
     d="m 34.351809,22.645224 c 4.37785,1.389794 8.807818,2.049946 13.133551,2.29316 -0.57329,-4.238871 -8.352723,-12.077097 -11.570033,-12.143323 -3.217311,-0.06622 -1.771987,6.323562 -1.563518,9.850163 z"
     id="path4756"
     inkscape:connector-curvature="0"
     sodipodi:nodetypes="cczc" />
  <path
     sodipodi:nodetypes="cczc"
     inkscape:connector-curvature="0"
     id="path4754"
     d="m 34.351809,22.645224 c 4.37785,1.389794 8.807818,2.049946 13.133551,2.29316 -0.416938,-3.092291 -8.196371,-11.660159 -11.413681,-11.726385 -3.217311,-0.06622 -1.928339,5.906624 -1.71987,9.433225 z"
     style="fill:#ffffff;fill-opacity:1;fill-rule:evenodd;stroke:none;stroke-width:1px;stroke-linecap:butt;stroke-linejoin:miter;stroke-opacity:1" />
  <path
     sodipodi:nodetypes="cczc"
     inkscape:connector-curvature="0"
     id="path4760"
     d="m 41.485342,24.286646 c -2.692725,-0.347449 -4.343105,-0.694897 -6.827361,-1.511401 0.191097,-2.380022 0.460941,-6.517047 3.127036,-6.254071 2.666094,0.262976 3.543973,5.750271 3.700325,7.765472 z"
     style="fill:#000000;fill-opacity:1;fill-rule:evenodd;stroke:none;stroke-width:1px;stroke-linecap:butt;stroke-linejoin:miter;stroke-opacity:1" />
  <path
     style="fill:#000000;fill-opacity:1;fill-rule:evenodd;stroke:none;stroke-width:1px;stroke-linecap:butt;stroke-linejoin:miter;stroke-opacity:1"
     d="m 10.265907,30.454907 c 0,0 10.660468,-3.076715 22.206219,-3.561375 11.545751,-0.48466 20.163666,2.618658 20.163666,2.618658 0,0 -2.313266,18.39496 -20.687398,19.639934 C 13.574263,50.397097 10.265907,30.454907 10.265907,30.454907 Z"
     id="path4735"
     inkscape:connector-curvature="0"
     sodipodi:nodetypes="czczc" />
  <path
     style="fill:#ffffff;fill-opacity:1;fill-rule:evenodd;stroke:none;stroke-width:1px;stroke-linecap:butt;stroke-linejoin:miter;stroke-opacity:0.56020945"
     d="m 14.240381,38.249551 c 0,0 6.601833,0.563309 17.862062,0.772802 11.260229,0.209493 16.821764,-1.193835 16.821764,-1.193835 l 2.978361,-7.897343 c 0,0 -8.174422,-2.386946 -20.163666,-2.094927 -11.989244,0.292019 -20.268413,3.561375 -20.268413,3.561375 z"
     id="path4743"
     inkscape:connector-curvature="0"
     sodipodi:nodetypes="czcczcc" />
  <path
     style="fill:#ffffff;fill-opacity:1;fill-rule:evenodd;stroke:none;stroke-width:1px;stroke-linecap:butt;stroke-linejoin:miter;stroke-opacity:1"
     d="m 14.332248,38.775244 c 11.500543,1.07709 23.157437,1.528773 34.501628,-0.364821 -4.30836,4.273616 -7.061751,9.624097 -17.876221,9.693811 -10.81447,0.06971 -13.550489,-5.333333 -16.625407,-9.32899 z"
     id="path1231"
     inkscape:connector-curvature="0"
     sodipodi:nodetypes="cczc" />
  <path
     style="fill:#000000;fill-opacity:1;fill-rule:evenodd;stroke:none;stroke-width:1px;stroke-linecap:butt;stroke-linejoin:miter;stroke-opacity:1"
     d="m 14.905537,25.433225 c 4.864278,-4.621064 7.852335,-6.479913 13.550489,-8.234528 0.36482,-1.389794 0.710043,-4.435943 -2.918567,-4.013029 -3.628609,0.422914 -10.242654,7.842619 -10.631922,12.247557 z"
     id="path1233"
     inkscape:connector-curvature="0"
     sodipodi:nodetypes="cczc" />
  <path
     style="fill:#000000;fill-opacity:1;fill-rule:evenodd;stroke:none;stroke-width:1px;stroke-linecap:butt;stroke-linejoin:miter;stroke-opacity:1"
     d="m 33.876221,16.833876 c 5.507057,1.598263 8.51902,4.160968 13.609139,8.104508 -0.13898,-2.397394 -4.726529,-9.949006 -9.283406,-11.804834 -4.556876,-1.855828 -4.482085,1.963082 -4.325733,3.700326 z"
     id="path1235"
     inkscape:connector-curvature="0"
     sodipodi:nodetypes="cczc" />
  <path
     sodipodi:nodetypes="cczc"
     inkscape:connector-curvature="0"
     id="path1241"
     d="m 14.905537,25.433225 c 4.238871,-4.985885 7.695983,-8.2519 13.550489,-8.234528 0.36482,-1.389794 0.710043,-4.904998 -2.918567,-4.482084 -3.628609,0.422914 -10.242654,8.311674 -10.631922,12.716612 z"
     style="fill:url(#radialGradient1251);fill-opacity:1;fill-rule:evenodd;stroke:none;stroke-width:1px;stroke-linecap:butt;stroke-linejoin:miter;stroke-opacity:1" />
  <path
     sodipodi:nodetypes="cczc"
     inkscape:connector-curvature="0"
     id="path1243"
     d="m 33.876221,16.833876 c 5.871878,-0.06949 9.6656,3.848264 13.609139,8.104508 -0.13898,-2.397394 -4.674412,-10.26171 -9.231289,-12.117538 -4.556876,-1.855828 -4.534202,2.275786 -4.37785,4.01303 z"
     style="fill:url(#radialGradient1253);fill-opacity:1;fill-rule:evenodd;stroke:none;stroke-width:1px;stroke-linecap:butt;stroke-linejoin:miter;stroke-opacity:1" />
</svg>
