<?xml version="1.0" encoding="UTF-8" standalone="no"?>
<svg
   xmlns:dc="http://purl.org/dc/elements/1.1/"
   xmlns:cc="http://creativecommons.org/ns#"
   xmlns:rdf="http://www.w3.org/1999/02/22-rdf-syntax-ns#"
   xmlns:svg="http://www.w3.org/2000/svg"
   xmlns="http://www.w3.org/2000/svg"
   xmlns:sodipodi="http://sodipodi.sourceforge.net/DTD/sodipodi-0.dtd"
   xmlns:inkscape="http://www.inkscape.org/namespaces/inkscape"
   inkscape:export-ydpi="48"
   inkscape:export-xdpi="48"
   inkscape:export-filename="/home/raster/C/th-efl/th/img/ic/env-var-040.png"
   inkscape:version="1.0 (4035a4fb49, 2020-05-01)"
   sodipodi:docname="env-var.svg"
   viewBox="0 0 80 80"
   height="80"
   width="80"
   id="svg2"
   version="1.1">
  <metadata
     id="metadata8">
    <rdf:RDF>
      <cc:Work
         rdf:about="">
        <dc:format>image/svg+xml</dc:format>
        <dc:type
           rdf:resource="http://purl.org/dc/dcmitype/StillImage" />
        <dc:title></dc:title>
      </cc:Work>
    </rdf:RDF>
  </metadata>
  <defs
     id="defs6">
    <rect
       id="rect878"
       height="30"
       width="40"
       y="20"
       x="20" />
    <rect
       id="rect872"
       height="30"
       width="40"
       y="50"
       x="20" />
    <rect
       id="rect864"
       height="30"
       width="40"
       y="20"
       x="20" />
    <rect
       id="rect858"
       height="30"
       width="40"
       y="20"
       x="20" />
    <rect
       id="rect852"
       height="30"
       width="40"
       y="20"
       x="20" />
    <filter
       height="1.32856"
       y="-0.16428"
       width="1.32856"
       x="-0.16428"
       id="filter22124"
       style="color-interpolation-filters:sRGB"
       inkscape:collect="always">
      <feGaussianBlur
         id="feGaussianBlur22126"
         stdDeviation="4.107"
         inkscape:collect="always" />
    </filter>
  </defs>
  <sodipodi:namedview
     inkscape:snap-nodes="true"
     inkscape:snap-others="false"
     inkscape:bbox-nodes="true"
     inkscape:snap-bbox="true"
     showguides="false"
     inkscape:current-layer="g10"
     inkscape:window-maximized="1"
     inkscape:window-y="0"
     inkscape:window-x="0"
     inkscape:cy="40.165289"
     inkscape:cx="40"
     inkscape:zoom="15.125"
     showgrid="true"
     id="namedview4"
     inkscape:window-height="1377"
     inkscape:window-width="2560"
     inkscape:pageshadow="2"
     inkscape:pageopacity="0"
     guidetolerance="10"
     gridtolerance="10"
     objecttolerance="10"
     borderopacity="1"
     bordercolor="#666666"
     pagecolor="#404040"
     inkscape:document-rotation="0">
    <inkscape:grid
       id="grid837"
       type="xygrid" />
  </sodipodi:namedview>
  <g
     id="g10"
     inkscape:label="Image"
     inkscape:groupmode="layer">
    <rect
       style="fill:#000000;stroke:none;stroke-width:2;stroke-linecap:round;stroke-linejoin:round;fill-opacity:1;opacity:0.5;filter:url(#filter22124)"
       id="rect21978"
       width="60"
       height="60"
       x="10"
       y="10" />
    <rect
       y="10"
       x="10"
       height="60"
       width="60"
       id="rect21903"
       style="fill:#202020;stroke:none;stroke-width:2;stroke-linecap:round;stroke-linejoin:round" />
    <rect
       style="fill:#404040;stroke:none;stroke-width:1.73205;stroke-linecap:round;stroke-linejoin:round;fill-opacity:1"
       id="rect21976"
       width="60"
       height="45"
       x="10"
       y="25" />
    <g
       transform="translate(0.4765625,2.1015625)"
       style="font-size:32px;line-height:20px;font-family:'Arial Black';-inkscape-font-specification:'Arial Black, ';letter-spacing:0px;word-spacing:0px;fill:#ffffff;fill-opacity:1;stroke:#ffffff;stroke-width:1.1;stroke-linecap:butt;stroke-linejoin:miter;stroke-opacity:1;stroke-miterlimit:4;stroke-dasharray:none"
       id="text22130"
       aria-label="$E">
      <path
         id="path22132"
         style="font-style:normal;font-variant:normal;font-weight:normal;font-stretch:normal;font-size:32px;font-family:Aldrich;-inkscape-font-specification:Aldrich;stroke:#ffffff;stroke-opacity:1;stroke-width:1.1;stroke-miterlimit:4;stroke-dasharray:none"
         d="m 20,50.515625 h 3.109375 v 2.875 H 27.53125 V 47 h -4 q -0.65625,0 -1.25,-0.25 -0.578125,-0.265625 -1.015625,-0.6875 -0.4375,-0.4375 -0.6875,-1.015625 -0.25,-0.59375 -0.25,-1.25 v -6.40625 q 0,-0.65625 0.25,-1.234375 0.25,-0.59375 0.6875,-1.015625 0.4375,-0.4375 1.015625,-0.6875 0.59375,-0.265625 1.25,-0.265625 h 4 V 31 h 2.875 v 3.1875 h 4 q 0.65625,0 1.234375,0.265625 0.59375,0.25 1.03125,0.6875 0.4375,0.421875 0.6875,1.015625 0.25,0.578125 0.25,1.234375 V 40.28125 H 34.5 v -2.890625 h -4.09375 v 6.40625 h 4 q 0.65625,0 1.234375,0.25 0.59375,0.25 1.03125,0.6875 0.4375,0.4375 0.6875,1.03125 0.25,0.578125 0.25,1.234375 v 6.390625 q 0,0.65625 -0.25,1.25 -0.25,0.578125 -0.6875,1.015625 -0.4375,0.4375 -1.03125,0.6875 -0.578125,0.25 -1.234375,0.25 h -4 v 3.203125 h -2.875 V 56.59375 h -4.328125 q -0.65625,0 -1.25,-0.25 Q 21.375,56.09375 20.9375,55.65625 20.515625,55.21875 20.25,54.640625 20,54.046875 20,53.390625 Z m 3.421875,-6.71875 h 4.109375 v -6.40625 H 23.421875 Z M 30.40625,47 v 6.390625 H 34.5 V 47 Z" />
      <path
         id="path22134"
         style="font-style:normal;font-variant:normal;font-weight:normal;font-stretch:normal;font-size:32px;font-family:Aldrich;-inkscape-font-specification:Aldrich;stroke:#ffffff;stroke-opacity:1;stroke-width:1.1;stroke-miterlimit:4;stroke-dasharray:none"
         d="m 42.71875,34.1875 h 16.328125 v 3.203125 h -13.125 v 6.40625 H 57.125 V 47 H 45.921875 v 6.390625 h 13.125 V 56.59375 H 42.71875 Z" />
    </g>
  </g>
</svg>
