<?xml version="1.0" encoding="UTF-8" standalone="no"?>
<svg
   xmlns:dc="http://purl.org/dc/elements/1.1/"
   xmlns:cc="http://creativecommons.org/ns#"
   xmlns:rdf="http://www.w3.org/1999/02/22-rdf-syntax-ns#"
   xmlns:svg="http://www.w3.org/2000/svg"
   xmlns="http://www.w3.org/2000/svg"
   xmlns:xlink="http://www.w3.org/1999/xlink"
   xmlns:sodipodi="http://sodipodi.sourceforge.net/DTD/sodipodi-0.dtd"
   xmlns:inkscape="http://www.inkscape.org/namespaces/inkscape"
   version="1.1"
   id="svg2"
   width="80"
   height="80"
   viewBox="0 0 80 80"
   sodipodi:docname="film.svg"
   inkscape:version="1.0.1 (3bc2e813f5, 2020-09-07)"
   inkscape:export-filename="/home/raster/C/th-efl/th/img/ic/film-040.png"
   inkscape:export-xdpi="48"
   inkscape:export-ydpi="48">
  <metadata
     id="metadata8">
    <rdf:RDF>
      <cc:Work
         rdf:about="">
        <dc:format>image/svg+xml</dc:format>
        <dc:type
           rdf:resource="http://purl.org/dc/dcmitype/StillImage" />
        <dc:title></dc:title>
      </cc:Work>
    </rdf:RDF>
  </metadata>
  <defs
     id="defs6">
    <linearGradient
       inkscape:collect="always"
       id="linearGradient989">
      <stop
         style="stop-color:#5772b1;stop-opacity:1;"
         offset="0"
         id="stop985" />
      <stop
         style="stop-color:#5772b1;stop-opacity:0;"
         offset="1"
         id="stop987" />
    </linearGradient>
    <rect
       id="rect1822"
       height="22.426638"
       width="47.970909"
       y="8"
       x="16" />
    <rect
       x="20"
       y="20"
       width="40"
       height="30"
       id="rect878" />
    <rect
       x="20"
       y="50"
       width="40"
       height="30"
       id="rect872" />
    <rect
       x="20"
       y="20"
       width="40"
       height="30"
       id="rect864" />
    <rect
       x="20"
       y="20"
       width="40"
       height="30"
       id="rect858" />
    <rect
       x="20"
       y="20"
       width="40"
       height="30"
       id="rect852" />
    <linearGradient
       inkscape:collect="always"
       xlink:href="#linearGradient989"
       id="linearGradient991"
       x1="40"
       y1="21"
       x2="40"
       y2="4"
       gradientUnits="userSpaceOnUse" />
    <linearGradient
       inkscape:collect="always"
       xlink:href="#linearGradient989"
       id="linearGradient997"
       gradientUnits="userSpaceOnUse"
       x1="40"
       y1="21"
       x2="40"
       y2="4"
       gradientTransform="translate(0,-80)" />
  </defs>
  <sodipodi:namedview
     inkscape:showpageshadow="false"
     inkscape:document-rotation="0"
     pagecolor="#404040"
     bordercolor="#ff66ac"
     borderopacity="1"
     objecttolerance="10"
     gridtolerance="10"
     guidetolerance="10"
     inkscape:pageopacity="0"
     inkscape:pageshadow="2"
     inkscape:window-width="1756"
     inkscape:window-height="1378"
     id="namedview4"
     showgrid="true"
     inkscape:zoom="13.05"
     inkscape:cx="40"
     inkscape:cy="40"
     inkscape:window-x="804"
     inkscape:window-y="0"
     inkscape:window-maximized="0"
     inkscape:current-layer="g10"
     showguides="false"
     inkscape:snap-bbox="true"
     inkscape:bbox-nodes="true"
     inkscape:snap-others="false"
     inkscape:snap-nodes="true"
     borderlayer="true">
    <inkscape:grid
       type="xygrid"
       id="grid837"
       empspacing="4" />
  </sodipodi:namedview>
  <g
     inkscape:groupmode="layer"
     inkscape:label="Image"
     id="g10">
    <rect
       style="fill:url(#linearGradient997);fill-opacity:1;stroke:none;stroke-width:8"
       id="rect995"
       width="50"
       height="17"
       x="15"
       y="-76"
       transform="scale(1,-1)" />
    <rect
       style="fill:url(#linearGradient991);fill-opacity:1;stroke:none;stroke-width:8"
       id="rect983"
       width="50"
       height="17"
       x="15"
       y="4" />
    <rect
       style="fill:#937da5;fill-opacity:1;stroke:none;stroke-width:8"
       id="rect981"
       width="50"
       height="34"
       x="15"
       y="23" />
    <path
       id="rect894"
       style="fill:#202020;fill-opacity:1;stroke-width:8;stroke:none"
       d="M 8 4 L 8 76 L 10 76 L 10 72 L 14 72 L 14 76 L 16 76 L 16 68 C 16 63.568 19.568 60 24 60 L 56 60 C 60.432 60 64 63.568 64 68 L 64 76 L 66 76 L 66 72 L 70 72 L 70 76 L 72 76 L 72 4 L 64 4 L 64 12 C 64 16.432 60.432 20 56 20 L 24 20 C 19.568 20 16 16.432 16 12 L 16 4 L 8 4 z M 10 6 L 14 6 L 14 10 L 10 10 L 10 6 z M 66 6 L 70 6 L 70 10 L 66 10 L 66 6 z M 10 12 L 14 12 L 14 16 L 10 16 L 10 12 z M 66 12 L 70 12 L 70 16 L 66 16 L 66 12 z M 10 18 L 14 18 L 14 22 L 10 22 L 10 18 z M 66 18 L 70 18 L 70 22 L 66 22 L 66 18 z M 10 24 L 14 24 L 14 28 L 10 28 L 10 24 z M 24 24 L 56 24 C 60.432 24 64 27.568 64 32 L 64 48 C 64 52.432 60.432 56 56 56 L 24 56 C 19.568 56 16 52.432 16 48 L 16 32 C 16 27.568 19.568 24 24 24 z M 66 24 L 70 24 L 70 28 L 66 28 L 66 24 z M 10 30 L 14 30 L 14 34 L 10 34 L 10 30 z M 66 30 L 70 30 L 70 34 L 66 34 L 66 30 z M 10 36 L 14 36 L 14 40 L 10 40 L 10 36 z M 66 36 L 70 36 L 70 40 L 66 40 L 66 36 z M 10 42 L 14 42 L 14 46 L 10 46 L 10 42 z M 66 42 L 70 42 L 70 46 L 66 46 L 66 42 z M 10 48 L 14 48 L 14 52 L 10 52 L 10 48 z M 66 48 L 70 48 L 70 52 L 66 52 L 66 48 z M 10 54 L 14 54 L 14 58 L 10 58 L 10 54 z M 66 54 L 70 54 L 70 58 L 66 58 L 66 54 z M 10 60 L 14 60 L 14 64 L 10 64 L 10 60 z M 66 60 L 70 60 L 70 64 L 66 64 L 66 60 z M 10 66 L 14 66 L 14 70 L 10 70 L 10 66 z M 66 66 L 70 66 L 70 70 L 66 70 L 66 66 z " />
    <path
       style="fill:#ffffff;fill-opacity:1;stroke:none;stroke-width:8"
       d="M 32,32 V 48 L 48,40 Z"
       id="path993" />
  </g>
</svg>
