<?xml version="1.0" encoding="UTF-8" standalone="no"?>
<svg
   xmlns:dc="http://purl.org/dc/elements/1.1/"
   xmlns:cc="http://creativecommons.org/ns#"
   xmlns:rdf="http://www.w3.org/1999/02/22-rdf-syntax-ns#"
   xmlns:svg="http://www.w3.org/2000/svg"
   xmlns="http://www.w3.org/2000/svg"
   xmlns:sodipodi="http://sodipodi.sourceforge.net/DTD/sodipodi-0.dtd"
   xmlns:inkscape="http://www.inkscape.org/namespaces/inkscape"
   version="1.1"
   id="svg2"
   width="80"
   height="80"
   viewBox="0 0 80 80"
   sodipodi:docname="gamepad.svg"
   inkscape:version="1.0.1 (3bc2e813f5, 2020-09-07)"
   inkscape:export-filename="/home/raster/C/th-efl/th/img/ic/gamepad-040.png"
   inkscape:export-xdpi="48"
   inkscape:export-ydpi="48">
  <metadata
     id="metadata8">
    <rdf:RDF>
      <cc:Work
         rdf:about="">
        <dc:format>image/svg+xml</dc:format>
        <dc:type
           rdf:resource="http://purl.org/dc/dcmitype/StillImage" />
        <dc:title></dc:title>
      </cc:Work>
    </rdf:RDF>
  </metadata>
  <defs
     id="defs6">
    <mask
       maskUnits="userSpaceOnUse"
       id="mask947">
      <rect
         style="opacity:1;fill:#a0a0a0;fill-opacity:1;stroke-width:3.96122;stroke-linecap:round;stroke-linejoin:round"
         id="rect949"
         width="60"
         height="40"
         x="10"
         y="5" />
    </mask>
    <mask
       id="mask3567"
       maskUnits="userSpaceOnUse">
      <path
         style="fill:#ffffff;fill-opacity:1;fill-rule:evenodd;stroke:none;stroke-width:1px;stroke-linecap:butt;stroke-linejoin:miter;stroke-opacity:1"
         d="M 40,10 C 19,10 20,17.832395 20,30 20,42.167605 19,70 40,70 61,70 60,42.167605 60,30 60,17.832395 61,10 40,10 Z"
         id="path3569"
         sodipodi:nodetypes="zzzzz" />
    </mask>
    <clipPath
       id="clipPath922"
       clipPathUnits="userSpaceOnUse">
      <path
         sodipodi:nodetypes="ccccccc"
         inkscape:connector-curvature="0"
         id="path924"
         d="m 1.3229166,295.4125 h 7.9375003 v -6.08542 c 0,-0.52917 0,-0.52917 -0.529167,-0.52917 H 1.8520833 c -0.5291666,0 -0.5291666,0 -0.5291667,0.52917 z"
         style="fill:#ffffff;fill-opacity:1;fill-rule:evenodd;stroke:none;stroke-width:0.264583px;stroke-linecap:butt;stroke-linejoin:miter;stroke-opacity:1" />
    </clipPath>
    <clipPath
       id="clipPath922-6"
       clipPathUnits="userSpaceOnUse">
      <path
         sodipodi:nodetypes="ccccccc"
         inkscape:connector-curvature="0"
         id="path924-7"
         d="m 1.3229166,295.4125 h 7.9375003 v -6.08542 c 0,-0.52917 0,-0.52917 -0.529167,-0.52917 H 1.8520833 c -0.5291666,0 -0.5291666,0 -0.5291667,0.52917 z"
         style="fill:#ffffff;fill-opacity:1;fill-rule:evenodd;stroke:none;stroke-width:0.264583px;stroke-linecap:butt;stroke-linejoin:miter;stroke-opacity:1" />
    </clipPath>
    <clipPath
       clipPathUnits="userSpaceOnUse"
       id="clipPath876">
      <path
         inkscape:connector-curvature="0"
         style="opacity:1;fill:#ffffff;fill-opacity:1;stroke:none;stroke-width:1;stroke-linecap:round;stroke-linejoin:round;stroke-miterlimit:4;stroke-dasharray:none;stroke-opacity:1"
         d="m 5.2916667,287.73958 a 3.96875,3.96875 0 0 0 -3.9687501,3.96875 3.96875,3.96875 0 0 0 3.9687501,3.96875 3.96875,3.96875 0 0 0 3.96875,-3.96875 3.96875,3.96875 0 0 0 -3.96875,-3.96875 z m 0,2.38125 a 1.5875001,1.5875044 0 0 1 1.5875,1.5875 1.5875001,1.5875044 0 0 1 -1.5875,1.5875 1.5875001,1.5875044 0 0 1 -1.5875,-1.5875 1.5875001,1.5875044 0 0 1 1.5875,-1.5875 z"
         id="path878" />
    </clipPath>
  </defs>
  <sodipodi:namedview
     inkscape:document-rotation="0"
     pagecolor="#404040"
     bordercolor="#666666"
     borderopacity="1"
     objecttolerance="10"
     gridtolerance="10"
     guidetolerance="10"
     inkscape:pageopacity="0"
     inkscape:pageshadow="2"
     inkscape:window-width="1756"
     inkscape:window-height="1372"
     id="namedview4"
     showgrid="true"
     inkscape:zoom="13.1625"
     inkscape:cx="40"
     inkscape:cy="40.075973"
     inkscape:window-x="804"
     inkscape:window-y="0"
     inkscape:window-maximized="0"
     inkscape:current-layer="g10"
     showguides="false"
     inkscape:snap-bbox="true"
     inkscape:bbox-nodes="true"
     inkscape:snap-others="true"
     inkscape:snap-nodes="true"
     inkscape:bbox-paths="true"
     inkscape:object-paths="true"
     inkscape:snap-intersection-paths="true"
     inkscape:snap-smooth-nodes="true"
     inkscape:snap-midpoints="true">
    <inkscape:grid
       type="xygrid"
       id="grid837"
       empspacing="4"
       enabled="true"
       snapvisiblegridlinesonly="false" />
  </sodipodi:namedview>
  <g
     inkscape:groupmode="layer"
     inkscape:label="Image"
     id="g10">
    <path
       style="fill:#808080;fill-opacity:0.96;stroke:none;stroke-width:2;stroke-linecap:round;stroke-linejoin:round;stroke-opacity:1"
       d="M 52,20 H 28 C 16,20 8,44 8,56 c 0,8 12,6 16,2 4,-4 8,-6 12,-6 h 8 c 4,0 8,2 12,6 4,4 16,6 16,-2 0,-8 -8,-36 -20,-36 z"
       id="path1186"
       sodipodi:nodetypes="ccssssssc" />
    <path
       id="path1221"
       style="fill:#404040;fill-opacity:1;stroke:none;stroke-width:3;stroke-linecap:round;stroke-linejoin:round;stroke-opacity:1"
       d="m 27,27 c -3,0 -4,2.338 -4,4 v 2 h -2 c -1.662,0 -4,1 -4,4 0,3 2.338,4 4,4 h 2 v 2 c 0,1.662 1,4 4,4 3,0 4,-2 4,-4 v -2 h 2 c 1.662,0 4,-1 4,-4 0,-3 -2.338,-4 -4,-4 h -2 v -2 c 0,-1.662 -1,-4 -4,-4 z"
       sodipodi:nodetypes="sscssscssscssscss" />
    <path
       id="rect1188"
       style="fill:#dcdcdc;fill-opacity:1;stroke:none;stroke-width:3;stroke-linecap:round;stroke-linejoin:round;stroke-opacity:1"
       d="M 27 28 C 25.338 28 24 29.338 24 31 L 24 34 L 21 34 C 19.338 34 18 35.338 18 37 C 18 38.662 19.338 40 21 40 L 24 40 L 24 43 C 24 44.662 25.338 46 27 46 C 28.662 46 30 44.662 30 43 L 30 40 L 33 40 C 34.662 40 36 38.662 36 37 C 36 35.338 34.662 34 33 34 L 30 34 L 30 31 C 30 29.338 28.662 28 27 28 z " />
    <circle
       style="fill:#404040;fill-opacity:1;stroke:none;stroke-width:4;stroke-linecap:round;stroke-linejoin:round;stroke-opacity:1"
       id="circle1212"
       cx="53"
       cy="31"
       r="4" />
    <circle
       style="fill:#e2b596;fill-opacity:1;stroke:none;stroke-width:3;stroke-linecap:round;stroke-linejoin:round;stroke-opacity:1"
       id="path1192"
       cx="53"
       cy="31"
       r="3" />
    <circle
       style="fill:#404040;fill-opacity:1;stroke:none;stroke-width:4;stroke-linecap:round;stroke-linejoin:round;stroke-opacity:1"
       id="circle1214"
       cx="59"
       cy="37"
       r="4" />
    <circle
       style="fill:#e7a8a8;fill-opacity:1;stroke:none;stroke-width:3;stroke-linecap:round;stroke-linejoin:round;stroke-opacity:1"
       id="circle1200"
       cx="59"
       cy="37"
       r="3" />
    <circle
       style="fill:#404040;fill-opacity:1;stroke:none;stroke-width:4;stroke-linecap:round;stroke-linejoin:round;stroke-opacity:1"
       id="circle1216"
       cx="53"
       cy="43"
       r="4" />
    <circle
       style="fill:#87cdde;fill-opacity:1;stroke:none;stroke-width:3;stroke-linecap:round;stroke-linejoin:round;stroke-opacity:1"
       id="circle1202"
       cx="53"
       cy="43"
       r="3" />
    <circle
       style="fill:#404040;fill-opacity:1;stroke:none;stroke-width:4;stroke-linecap:round;stroke-linejoin:round;stroke-opacity:1"
       id="circle1210"
       cx="47"
       cy="37"
       r="4" />
    <circle
       style="fill:#aade87;fill-opacity:1;stroke:none;stroke-width:3;stroke-linecap:round;stroke-linejoin:round;stroke-opacity:1"
       id="circle1204"
       cx="47"
       cy="37"
       r="3" />
  </g>
</svg>
