<?xml version="1.0" encoding="UTF-8" standalone="no"?>
<svg
   xmlns:dc="http://purl.org/dc/elements/1.1/"
   xmlns:cc="http://creativecommons.org/ns#"
   xmlns:rdf="http://www.w3.org/1999/02/22-rdf-syntax-ns#"
   xmlns:svg="http://www.w3.org/2000/svg"
   xmlns="http://www.w3.org/2000/svg"
   xmlns:sodipodi="http://sodipodi.sourceforge.net/DTD/sodipodi-0.dtd"
   xmlns:inkscape="http://www.inkscape.org/namespaces/inkscape"
   version="1.1"
   id="svg2"
   width="80"
   height="80"
   viewBox="0 0 80 80"
   sodipodi:docname="gesture.svg"
   inkscape:version="1.0 (4035a4fb49, 2020-05-01)"
   inkscape:export-filename="/home/raster/C/th-efl/th/img/ic/gesture-040.png"
   inkscape:export-xdpi="48"
   inkscape:export-ydpi="48">
  <metadata
     id="metadata8">
    <rdf:RDF>
      <cc:Work
         rdf:about="">
        <dc:format>image/svg+xml</dc:format>
        <dc:type
           rdf:resource="http://purl.org/dc/dcmitype/StillImage" />
        <dc:title></dc:title>
      </cc:Work>
    </rdf:RDF>
  </metadata>
  <defs
     id="defs6">
    <mask
       maskUnits="userSpaceOnUse"
       id="mask947">
      <rect
         style="opacity:1;fill:#a0a0a0;fill-opacity:1;stroke-width:3.96122;stroke-linecap:round;stroke-linejoin:round"
         id="rect949"
         width="60"
         height="40"
         x="10"
         y="5" />
    </mask>
  </defs>
  <sodipodi:namedview
     inkscape:document-rotation="0"
     pagecolor="#404040"
     bordercolor="#666666"
     borderopacity="1"
     objecttolerance="10"
     gridtolerance="10"
     guidetolerance="10"
     inkscape:pageopacity="0"
     inkscape:pageshadow="2"
     inkscape:window-width="1354"
     inkscape:window-height="1372"
     id="namedview4"
     showgrid="true"
     inkscape:zoom="8.1375"
     inkscape:cx="40"
     inkscape:cy="40"
     inkscape:window-x="1206"
     inkscape:window-y="0"
     inkscape:window-maximized="0"
     inkscape:current-layer="g10"
     showguides="false"
     inkscape:snap-bbox="true"
     inkscape:bbox-nodes="true"
     inkscape:snap-others="false"
     inkscape:snap-nodes="true">
    <inkscape:grid
       type="xygrid"
       id="grid837" />
  </sodipodi:namedview>
  <g
     inkscape:groupmode="layer"
     inkscape:label="Image"
     id="g10">
    <path
       id="path5039"
       style="opacity:0.5;fill:#3399ff;fill-opacity:1;stroke-width:1.155;stroke-linecap:round;stroke-linejoin:round;stroke-miterlimit:4;stroke-dasharray:none"
       inkscape:transform-center-x="-12.073501"
       inkscape:transform-center-y="5.2728684"
       d="m 13.281233,20.020281 c -3.535534,3.535534 0,7.071068 0,7.071068 l 5.656854,5.656854 c 0,0 -3.535534,-3.535534 -7.071068,0 -3.535533,3.535534 0,7.071068 0,7.071068 l 14.151804,14.151803 c -0.05374,0.05297 -0.11264,0.09366 -0.164348,0.150536 -0.671387,0.738526 -1.157335,1.81283 -1.157334,3.375331 0,5 4.999466,4.999465 4.999466,4.999465 h 4.748111 c 28,0 30,-27 28.33399,-28.333989 l -8.485282,-8.485282 c 0,0 -3.535534,-3.535533 -7.071067,0 -3.535534,3.535534 0,7.071068 0,7.071068 L 32.373116,17.898961 c 0,0 -3.535534,-3.535534 -7.071068,0 -3.535534,3.535534 0,7.071068 0,7.071068 l -4.949747,-4.949748 c 0,0 -3.535534,-3.535534 -7.071068,0 z"
       sodipodi:nodetypes="sccscccsccccsccsccs" />
    <path
       sodipodi:nodetypes="sccscccsccccsccsccs"
       d="m 16.343146,20.272078 c -3.535534,3.535534 0,7.071068 0,7.071068 L 22,33 c 0,0 -3.535534,-3.535534 -7.071068,0 -3.535533,3.535534 0,7.071068 0,7.071068 l 14.151804,14.151803 c -0.05374,0.05297 -0.11264,0.09366 -0.164348,0.150536 -0.671387,0.738526 -1.157335,1.81283 -1.157334,3.375331 0,5 4.999466,4.999465 4.999466,4.999465 h 4.748111 c 28,0 30,-27 28.33399,-28.333989 l -8.485282,-8.485282 c 0,0 -3.535534,-3.535533 -7.071067,0 -3.535534,3.535534 0,7.071068 0,7.071068 L 35.435029,18.150758 c 0,0 -3.535534,-3.535534 -7.071068,0 -3.535534,3.535534 0,7.071068 0,7.071068 l -4.949747,-4.949748 c 0,0 -3.535534,-3.535534 -7.071068,0 z"
       inkscape:transform-center-y="5.2728684"
       inkscape:transform-center-x="-12.073501"
       style="opacity:0.5;fill:#3399ff;fill-opacity:1;stroke-width:1.155;stroke-linecap:round;stroke-linejoin:round;stroke-miterlimit:4;stroke-dasharray:none"
       id="path5041" />
    <path
       sodipodi:nodetypes="sccscccsccccsccsccs"
       d="m 20.058874,20.272078 c -3.535534,3.535534 0,7.071068 0,7.071068 L 25.715728,33 c 0,0 -3.535534,-3.535534 -7.071068,0 -3.535533,3.535534 0,7.071068 0,7.071068 l 14.151804,14.151803 c -0.05374,0.05297 -0.11264,0.09366 -0.164348,0.150536 -0.671387,0.738526 -1.157335,1.81283 -1.157334,3.375331 0,5 4.999466,4.999465 4.999466,4.999465 h 4.748111 c 28,0 30,-27 28.33399,-28.333989 l -8.485282,-8.485282 c 0,0 -3.535534,-3.535533 -7.071067,0 C 50.464466,29.464466 54,33 54,33 L 39.150757,18.150758 c 0,0 -3.535534,-3.535534 -7.071068,0 -3.535534,3.535534 0,7.071068 0,7.071068 l -4.949747,-4.949748 c 0,0 -3.535534,-3.535534 -7.071068,0 z"
       inkscape:transform-center-y="5.2728684"
       inkscape:transform-center-x="-12.073501"
       style="fill:#c8c8c8;fill-opacity:1;stroke-width:1.155;stroke-linecap:round;stroke-linejoin:round;stroke-miterlimit:4;stroke-dasharray:none"
       id="path5020" />
    <circle
       r="5"
       cy="23.505486"
       cx="23.453703"
       id="path5043"
       style="opacity:1;fill:#ffffff;fill-opacity:1;stroke-width:1.28333;stroke-linecap:round;stroke-linejoin:round;stroke-miterlimit:4;stroke-dasharray:none" />
    <circle
       style="opacity:1;fill:#ffffff;fill-opacity:1;stroke-width:1.28333;stroke-linecap:round;stroke-linejoin:round;stroke-miterlimit:4;stroke-dasharray:none"
       id="circle5045"
       cx="22"
       cy="36"
       r="5" />
    <circle
       r="5"
       cy="21.510441"
       cx="35.539734"
       id="circle5047"
       style="opacity:1;fill:#ffffff;fill-opacity:1;stroke-width:1.28333;stroke-linecap:round;stroke-linejoin:round;stroke-miterlimit:4;stroke-dasharray:none" />
  </g>
</svg>
