<?xml version="1.0" encoding="UTF-8" standalone="no"?>
<svg
   xmlns:dc="http://purl.org/dc/elements/1.1/"
   xmlns:cc="http://creativecommons.org/ns#"
   xmlns:rdf="http://www.w3.org/1999/02/22-rdf-syntax-ns#"
   xmlns:svg="http://www.w3.org/2000/svg"
   xmlns="http://www.w3.org/2000/svg"
   xmlns:xlink="http://www.w3.org/1999/xlink"
   xmlns:sodipodi="http://sodipodi.sourceforge.net/DTD/sodipodi-0.dtd"
   xmlns:inkscape="http://www.inkscape.org/namespaces/inkscape"
   inkscape:export-ydpi="48"
   inkscape:export-xdpi="48"
   inkscape:export-filename="/home/raster/C/th-efl/th/img/ic/keyboard-040.png"
   inkscape:version="1.0 (4035a4fb49, 2020-05-01)"
   sodipodi:docname="keyboard.svg"
   viewBox="0 0 80 80"
   height="80"
   width="80"
   id="svg2"
   version="1.1">
  <metadata
     id="metadata8">
    <rdf:RDF>
      <cc:Work
         rdf:about="">
        <dc:format>image/svg+xml</dc:format>
        <dc:type
           rdf:resource="http://purl.org/dc/dcmitype/StillImage" />
        <dc:title></dc:title>
      </cc:Work>
    </rdf:RDF>
  </metadata>
  <defs
     id="defs6">
    <linearGradient
       id="linearGradient7654"
       inkscape:collect="always">
      <stop
         id="stop7650"
         offset="0"
         style="stop-color:#808080;stop-opacity:1" />
      <stop
         id="stop7652"
         offset="1"
         style="stop-color:#808080;stop-opacity:0" />
    </linearGradient>
    <linearGradient
       inkscape:collect="always"
       id="linearGradient3678">
      <stop
         style="stop-color:#c8c8c8;stop-opacity:1;"
         offset="0"
         id="stop3674" />
      <stop
         style="stop-color:#c8c8c8;stop-opacity:0;"
         offset="1"
         id="stop3676" />
    </linearGradient>
    <mask
       id="mask947"
       maskUnits="userSpaceOnUse">
      <rect
         y="5"
         x="10"
         height="40"
         width="60"
         id="rect949"
         style="opacity:1;fill:#a0a0a0;fill-opacity:1;stroke-width:3.96122;stroke-linecap:round;stroke-linejoin:round" />
    </mask>
    <mask
       maskUnits="userSpaceOnUse"
       id="mask3567">
      <path
         sodipodi:nodetypes="zzzzz"
         id="path3569"
         d="M 40,10 C 19,10 20,17.832395 20,30 20,42.167605 19,70 40,70 61,70 60,42.167605 60,30 60,17.832395 61,10 40,10 Z"
         style="fill:#ffffff;fill-opacity:1;fill-rule:evenodd;stroke:none;stroke-width:1px;stroke-linecap:butt;stroke-linejoin:miter;stroke-opacity:1" />
    </mask>
    <linearGradient
       gradientTransform="matrix(1,0,0,0.93333333,0,0.66666667)"
       inkscape:collect="always"
       xlink:href="#linearGradient3678"
       id="linearGradient3680"
       x1="50"
       y1="40"
       x2="70"
       y2="40"
       gradientUnits="userSpaceOnUse" />
    <linearGradient
       gradientTransform="matrix(1,0,0,0.06666667,0,65.333333)"
       y2="40"
       x2="70"
       y1="40"
       x1="50"
       gradientUnits="userSpaceOnUse"
       id="linearGradient7648"
       xlink:href="#linearGradient7654"
       inkscape:collect="always" />
  </defs>
  <sodipodi:namedview
     inkscape:bbox-paths="true"
     inkscape:snap-nodes="true"
     inkscape:snap-others="false"
     inkscape:bbox-nodes="true"
     inkscape:snap-bbox="true"
     showguides="false"
     inkscape:current-layer="g10"
     inkscape:window-maximized="0"
     inkscape:window-y="0"
     inkscape:window-x="1206"
     inkscape:cy="40"
     inkscape:cx="40"
     inkscape:zoom="8.1375"
     showgrid="true"
     id="namedview4"
     inkscape:window-height="1372"
     inkscape:window-width="1354"
     inkscape:pageshadow="2"
     inkscape:pageopacity="0"
     guidetolerance="10"
     gridtolerance="10"
     objecttolerance="10"
     borderopacity="1"
     bordercolor="#666666"
     pagecolor="#404040"
     inkscape:document-rotation="0">
    <inkscape:grid
       id="grid837"
       type="xygrid" />
  </sodipodi:namedview>
  <g
     id="g10"
     inkscape:label="Image"
     inkscape:groupmode="layer">
    <rect
       style="fill:url(#linearGradient3680);fill-opacity:1;stroke:none;stroke-width:1.93218;stroke-linecap:round;stroke-linejoin:round;stroke-miterlimit:4;stroke-dasharray:none;stroke-opacity:1"
       id="rect3618"
       width="60"
       height="56"
       x="10"
       y="10" />
    <rect
       y="12"
       x="12"
       height="10"
       width="10"
       id="rect3620"
       style="fill:#404040;fill-opacity:1;stroke:none;stroke-width:1;stroke-linecap:round;stroke-linejoin:round;stroke-miterlimit:4;stroke-dasharray:none;stroke-opacity:1" />
    <rect
       style="fill:#404040;fill-opacity:1;stroke:none;stroke-width:1;stroke-linecap:round;stroke-linejoin:round;stroke-miterlimit:4;stroke-dasharray:none;stroke-opacity:1"
       id="rect3622"
       width="10"
       height="10"
       x="26"
       y="12" />
    <rect
       y="12"
       x="40"
       height="10"
       width="10"
       id="rect3624"
       style="fill:#404040;fill-opacity:1;stroke:none;stroke-width:1;stroke-linecap:round;stroke-linejoin:round;stroke-miterlimit:4;stroke-dasharray:none;stroke-opacity:1" />
    <rect
       style="fill:#404040;fill-opacity:1;stroke:none;stroke-width:1;stroke-linecap:round;stroke-linejoin:round;stroke-miterlimit:4;stroke-dasharray:none;stroke-opacity:1"
       id="rect3626"
       width="10"
       height="10"
       x="54"
       y="12" />
    <rect
       y="26"
       x="12"
       height="10"
       width="10"
       id="rect3628"
       style="fill:#404040;fill-opacity:1;stroke:none;stroke-width:1;stroke-linecap:round;stroke-linejoin:round;stroke-miterlimit:4;stroke-dasharray:none;stroke-opacity:1" />
    <rect
       style="fill:#404040;fill-opacity:1;stroke:none;stroke-width:1;stroke-linecap:round;stroke-linejoin:round;stroke-miterlimit:4;stroke-dasharray:none;stroke-opacity:1"
       id="rect3630"
       width="17"
       height="10"
       x="12"
       y="40" />
    <rect
       style="fill:#404040;fill-opacity:1;stroke:none;stroke-width:1;stroke-linecap:round;stroke-linejoin:round;stroke-miterlimit:4;stroke-dasharray:none;stroke-opacity:1"
       id="rect3658"
       width="10"
       height="10"
       x="26"
       y="26" />
    <rect
       y="26"
       x="40"
       height="10"
       width="10"
       id="rect3660"
       style="fill:#404040;fill-opacity:1;stroke:none;stroke-width:1;stroke-linecap:round;stroke-linejoin:round;stroke-miterlimit:4;stroke-dasharray:none;stroke-opacity:1" />
    <rect
       style="fill:#404040;fill-opacity:1;stroke:none;stroke-width:1;stroke-linecap:round;stroke-linejoin:round;stroke-miterlimit:4;stroke-dasharray:none;stroke-opacity:1"
       id="rect3662"
       width="10"
       height="10"
       x="54"
       y="26" />
    <rect
       y="40"
       x="33"
       height="10"
       width="10"
       id="rect3664"
       style="fill:#404040;fill-opacity:1;stroke:none;stroke-width:1;stroke-linecap:round;stroke-linejoin:round;stroke-miterlimit:4;stroke-dasharray:none;stroke-opacity:1" />
    <rect
       style="fill:#404040;fill-opacity:1;stroke:none;stroke-width:1;stroke-linecap:round;stroke-linejoin:round;stroke-miterlimit:4;stroke-dasharray:none;stroke-opacity:1"
       id="rect3666"
       width="10"
       height="10"
       x="47"
       y="40" />
    <rect
       y="54"
       x="12"
       height="10"
       width="24"
       id="rect3668"
       style="fill:#404040;fill-opacity:1;stroke:none;stroke-width:1;stroke-linecap:round;stroke-linejoin:round;stroke-miterlimit:4;stroke-dasharray:none;stroke-opacity:1" />
    <rect
       style="fill:#404040;fill-opacity:1;stroke:none;stroke-width:1;stroke-linecap:round;stroke-linejoin:round;stroke-miterlimit:4;stroke-dasharray:none;stroke-opacity:1"
       id="rect3670"
       width="10"
       height="10"
       x="40"
       y="54" />
    <rect
       y="54"
       x="54"
       height="10"
       width="10"
       id="rect3672"
       style="fill:#404040;fill-opacity:1;stroke:none;stroke-width:1;stroke-linecap:round;stroke-linejoin:round;stroke-miterlimit:4;stroke-dasharray:none;stroke-opacity:1" />
    <path
       sodipodi:nodetypes="ccccc"
       id="path4986"
       d="m 13,21 v -8 l 1,-1 2.381944,6.361111 z"
       style="fill:#c8c8c8;fill-opacity:1;stroke-width:0.152396;stroke-linecap:round;stroke-linejoin:round;stroke-miterlimit:4;stroke-dasharray:none" />
    <path
       sodipodi:nodetypes="ccccc"
       id="path4988"
       d="m 20,12 1,1 v 8 l -3.298611,-2.638889 z"
       style="fill:#808080;fill-opacity:1;stroke-width:0.152396;stroke-linecap:round;stroke-linejoin:round;stroke-miterlimit:4;stroke-dasharray:none" />
    <path
       sodipodi:nodetypes="ccccc"
       id="path4982"
       d="m 13,21 1,-2 h 6 l 1,2 z"
       style="fill:#606060;fill-opacity:1;stroke-width:0.152396;stroke-linecap:round;stroke-linejoin:round;stroke-miterlimit:4;stroke-dasharray:none" />
    <path
       sodipodi:nodetypes="ccccc"
       id="path4990"
       d="m 14,12 v 7 c 1.979166,0.395833 4.020833,0.395833 6,0 v -7 c -1.979167,0.263889 -4.020833,0.263889 -6,0 z"
       style="fill:#a0a0a0;fill-opacity:1;stroke-width:0.152396;stroke-linecap:round;stroke-linejoin:round;stroke-miterlimit:4;stroke-dasharray:none" />
    <path
       style="fill:#c8c8c8;fill-opacity:1;stroke-width:0.152396;stroke-linecap:round;stroke-linejoin:round;stroke-miterlimit:4;stroke-dasharray:none"
       d="m 27,21 v -8 l 1,-1 2.381944,6.361111 z"
       id="path4986-3"
       sodipodi:nodetypes="ccccc" />
    <path
       style="fill:#808080;fill-opacity:1;stroke-width:0.152396;stroke-linecap:round;stroke-linejoin:round;stroke-miterlimit:4;stroke-dasharray:none"
       d="m 34,12 1,1 v 8 l -3.298611,-2.638889 z"
       id="path4988-0"
       sodipodi:nodetypes="ccccc" />
    <path
       style="fill:#606060;fill-opacity:1;stroke-width:0.152396;stroke-linecap:round;stroke-linejoin:round;stroke-miterlimit:4;stroke-dasharray:none"
       d="m 27,21 1,-2 h 6 l 1,2 z"
       id="path4982-3"
       sodipodi:nodetypes="ccccc" />
    <path
       style="fill:#a0a0a0;fill-opacity:1;stroke-width:0.152396;stroke-linecap:round;stroke-linejoin:round;stroke-miterlimit:4;stroke-dasharray:none"
       d="m 28,12 v 7 c 1.979166,0.395833 4.020833,0.395833 6,0 v -7 c -1.979167,0.263889 -4.020833,0.263889 -6,0 z"
       id="path4990-3"
       sodipodi:nodetypes="ccccc" />
    <path
       style="fill:#c8c8c8;fill-opacity:1;stroke-width:0.152396;stroke-linecap:round;stroke-linejoin:round;stroke-miterlimit:4;stroke-dasharray:none"
       d="m 41,21 v -8 l 1,-1 2.381944,6.361111 z"
       id="path4986-7"
       sodipodi:nodetypes="ccccc" />
    <path
       style="fill:#808080;fill-opacity:1;stroke-width:0.152396;stroke-linecap:round;stroke-linejoin:round;stroke-miterlimit:4;stroke-dasharray:none"
       d="m 48,12 1,1 v 8 l -3.298611,-2.638889 z"
       id="path4988-9"
       sodipodi:nodetypes="ccccc" />
    <path
       style="fill:#606060;fill-opacity:1;stroke-width:0.152396;stroke-linecap:round;stroke-linejoin:round;stroke-miterlimit:4;stroke-dasharray:none"
       d="m 41,21 1,-2 h 6 l 1,2 z"
       id="path4982-4"
       sodipodi:nodetypes="ccccc" />
    <path
       style="fill:#a0a0a0;fill-opacity:1;stroke-width:0.152396;stroke-linecap:round;stroke-linejoin:round;stroke-miterlimit:4;stroke-dasharray:none"
       d="m 42,12 v 7 c 1.979166,0.395833 4.020833,0.395833 6,0 v -7 c -1.979167,0.263889 -4.020833,0.263889 -6,0 z"
       id="path4990-9"
       sodipodi:nodetypes="ccccc" />
    <path
       style="fill:#c8c8c8;fill-opacity:1;stroke-width:0.152396;stroke-linecap:round;stroke-linejoin:round;stroke-miterlimit:4;stroke-dasharray:none"
       d="m 55,21 v -8 l 1,-1 2.381944,6.361111 z"
       id="path4986-9"
       sodipodi:nodetypes="ccccc" />
    <path
       style="fill:#808080;fill-opacity:1;stroke-width:0.152396;stroke-linecap:round;stroke-linejoin:round;stroke-miterlimit:4;stroke-dasharray:none"
       d="m 62,12 1,1 v 8 l -3.298611,-2.638889 z"
       id="path4988-1"
       sodipodi:nodetypes="ccccc" />
    <path
       style="fill:#606060;fill-opacity:1;stroke-width:0.152396;stroke-linecap:round;stroke-linejoin:round;stroke-miterlimit:4;stroke-dasharray:none"
       d="m 55,21 1,-2 h 6 l 1,2 z"
       id="path4982-9"
       sodipodi:nodetypes="ccccc" />
    <path
       style="fill:#a0a0a0;fill-opacity:1;stroke-width:0.152396;stroke-linecap:round;stroke-linejoin:round;stroke-miterlimit:4;stroke-dasharray:none"
       d="m 56,12 v 7 c 1.979166,0.395833 4.020833,0.395833 6,0 v -7 c -1.979167,0.263889 -4.020833,0.263889 -6,0 z"
       id="path4990-4"
       sodipodi:nodetypes="ccccc" />
    <path
       style="fill:#c8c8c8;fill-opacity:1;stroke-width:0.152396;stroke-linecap:round;stroke-linejoin:round;stroke-miterlimit:4;stroke-dasharray:none"
       d="m 13,35 v -8 l 1,-1 2.381944,6.361111 z"
       id="path4986-2"
       sodipodi:nodetypes="ccccc" />
    <path
       style="fill:#808080;fill-opacity:1;stroke-width:0.152396;stroke-linecap:round;stroke-linejoin:round;stroke-miterlimit:4;stroke-dasharray:none"
       d="m 20,26 1,1 v 8 l -3.298611,-2.638889 z"
       id="path4988-06"
       sodipodi:nodetypes="ccccc" />
    <path
       style="fill:#606060;fill-opacity:1;stroke-width:0.152396;stroke-linecap:round;stroke-linejoin:round;stroke-miterlimit:4;stroke-dasharray:none"
       d="m 13,35 1,-2 h 6 l 1,2 z"
       id="path4982-5"
       sodipodi:nodetypes="ccccc" />
    <path
       style="fill:#a0a0a0;fill-opacity:1;stroke-width:0.152396;stroke-linecap:round;stroke-linejoin:round;stroke-miterlimit:4;stroke-dasharray:none"
       d="m 14,26 v 7 c 1.979166,0.395833 4.020833,0.395833 6,0 v -7 c -1.979167,0.263889 -4.020833,0.263889 -6,0 z"
       id="path4990-95"
       sodipodi:nodetypes="ccccc" />
    <path
       style="fill:#c8c8c8;fill-opacity:1;stroke-width:0.152396;stroke-linecap:round;stroke-linejoin:round;stroke-miterlimit:4;stroke-dasharray:none"
       d="m 27,35 v -8 l 1,-1 2.381944,6.361111 z"
       id="path4986-6"
       sodipodi:nodetypes="ccccc" />
    <path
       style="fill:#808080;fill-opacity:1;stroke-width:0.152396;stroke-linecap:round;stroke-linejoin:round;stroke-miterlimit:4;stroke-dasharray:none"
       d="m 34,26 1,1 v 8 l -3.298611,-2.638889 z"
       id="path4988-11"
       sodipodi:nodetypes="ccccc" />
    <path
       style="fill:#606060;fill-opacity:1;stroke-width:0.152396;stroke-linecap:round;stroke-linejoin:round;stroke-miterlimit:4;stroke-dasharray:none"
       d="m 27,35 1,-2 h 6 l 1,2 z"
       id="path4982-43"
       sodipodi:nodetypes="ccccc" />
    <path
       style="fill:#a0a0a0;fill-opacity:1;stroke-width:0.152396;stroke-linecap:round;stroke-linejoin:round;stroke-miterlimit:4;stroke-dasharray:none"
       d="m 28,26 v 7 c 1.979166,0.395833 4.020833,0.395833 6,0 v -7 c -1.979167,0.263889 -4.020833,0.263889 -6,0 z"
       id="path4990-7"
       sodipodi:nodetypes="ccccc" />
    <path
       style="fill:#c8c8c8;fill-opacity:1;stroke-width:0.152396;stroke-linecap:round;stroke-linejoin:round;stroke-miterlimit:4;stroke-dasharray:none"
       d="m 41,35 v -8 l 1,-1 2.381944,6.361111 z"
       id="path4986-27"
       sodipodi:nodetypes="ccccc" />
    <path
       style="fill:#808080;fill-opacity:1;stroke-width:0.152396;stroke-linecap:round;stroke-linejoin:round;stroke-miterlimit:4;stroke-dasharray:none"
       d="m 48,26 1,1 v 8 l -3.298611,-2.638889 z"
       id="path4988-3"
       sodipodi:nodetypes="ccccc" />
    <path
       style="fill:#606060;fill-opacity:1;stroke-width:0.152396;stroke-linecap:round;stroke-linejoin:round;stroke-miterlimit:4;stroke-dasharray:none"
       d="m 41,35 1,-2 h 6 l 1,2 z"
       id="path4982-39"
       sodipodi:nodetypes="ccccc" />
    <path
       style="fill:#a0a0a0;fill-opacity:1;stroke-width:0.152396;stroke-linecap:round;stroke-linejoin:round;stroke-miterlimit:4;stroke-dasharray:none"
       d="m 42,26 v 7 c 1.979166,0.395833 4.020833,0.395833 6,0 v -7 c -1.979167,0.263889 -4.020833,0.263889 -6,0 z"
       id="path4990-2"
       sodipodi:nodetypes="ccccc" />
    <path
       style="fill:#c8c8c8;fill-opacity:1;stroke-width:0.152396;stroke-linecap:round;stroke-linejoin:round;stroke-miterlimit:4;stroke-dasharray:none"
       d="m 55,35 v -8 l 1,-1 2.381944,6.361111 z"
       id="path4986-4"
       sodipodi:nodetypes="ccccc" />
    <path
       style="fill:#808080;fill-opacity:1;stroke-width:0.152396;stroke-linecap:round;stroke-linejoin:round;stroke-miterlimit:4;stroke-dasharray:none"
       d="m 62,26 1,1 v 8 l -3.298611,-2.638889 z"
       id="path4988-4"
       sodipodi:nodetypes="ccccc" />
    <path
       style="fill:#606060;fill-opacity:1;stroke-width:0.152396;stroke-linecap:round;stroke-linejoin:round;stroke-miterlimit:4;stroke-dasharray:none"
       d="m 55,35 1,-2 h 6 l 1,2 z"
       id="path4982-49"
       sodipodi:nodetypes="ccccc" />
    <path
       style="fill:#a0a0a0;fill-opacity:1;stroke-width:0.152396;stroke-linecap:round;stroke-linejoin:round;stroke-miterlimit:4;stroke-dasharray:none"
       d="m 56,26 v 7 c 1.979166,0.395833 4.020833,0.395833 6,0 v -7 c -1.979167,0.263889 -4.020833,0.263889 -6,0 z"
       id="path4990-93"
       sodipodi:nodetypes="ccccc" />
    <path
       style="fill:#c8c8c8;fill-opacity:1;stroke-width:0.152396;stroke-linecap:round;stroke-linejoin:round;stroke-miterlimit:4;stroke-dasharray:none"
       d="m 13,49 v -8 l 1,-1 2.381944,6.361111 z"
       id="path4986-8"
       sodipodi:nodetypes="ccccc" />
    <path
       style="fill:#808080;fill-opacity:1;stroke-width:0.152396;stroke-linecap:round;stroke-linejoin:round;stroke-miterlimit:4;stroke-dasharray:none"
       d="m 27,40 1,1 v 8 l -3,-3 z"
       id="path4988-32"
       sodipodi:nodetypes="ccccc" />
    <path
       style="fill:#606060;fill-opacity:1;stroke-width:0.152396;stroke-linecap:round;stroke-linejoin:round;stroke-miterlimit:4;stroke-dasharray:none"
       d="m 13,49 1,-2 h 13 l 1,2 z"
       id="path4982-95"
       sodipodi:nodetypes="ccccc" />
    <path
       style="fill:#a0a0a0;fill-opacity:1;stroke-width:0.152396;stroke-linecap:round;stroke-linejoin:round;stroke-miterlimit:4;stroke-dasharray:none"
       d="m 14,40 v 7 c 1.979166,0.395833 11.020833,0.395833 13,0 v -7 c -1.979167,0.263889 -11.020833,0.263889 -13,0 z"
       id="path4990-43"
       sodipodi:nodetypes="ccccc" />
    <path
       style="fill:#c8c8c8;fill-opacity:1;stroke-width:0.152396;stroke-linecap:round;stroke-linejoin:round;stroke-miterlimit:4;stroke-dasharray:none"
       d="m 34,49 v -8 l 1,-1 2.381944,6.361111 z"
       id="path4986-94"
       sodipodi:nodetypes="ccccc" />
    <path
       style="fill:#808080;fill-opacity:1;stroke-width:0.152396;stroke-linecap:round;stroke-linejoin:round;stroke-miterlimit:4;stroke-dasharray:none"
       d="m 41,40 1,1 v 8 l -3.298611,-2.638889 z"
       id="path4988-95"
       sodipodi:nodetypes="ccccc" />
    <path
       style="fill:#606060;fill-opacity:1;stroke-width:0.152396;stroke-linecap:round;stroke-linejoin:round;stroke-miterlimit:4;stroke-dasharray:none"
       d="m 34,49 1,-2 h 6 l 1,2 z"
       id="path4982-57"
       sodipodi:nodetypes="ccccc" />
    <path
       style="fill:#a0a0a0;fill-opacity:1;stroke-width:0.152396;stroke-linecap:round;stroke-linejoin:round;stroke-miterlimit:4;stroke-dasharray:none"
       d="m 35,40 v 7 c 1.979166,0.395833 4.020833,0.395833 6,0 v -7 c -1.979167,0.263889 -4.020833,0.263889 -6,0 z"
       id="path4990-39"
       sodipodi:nodetypes="ccccc" />
    <path
       style="fill:#c8c8c8;fill-opacity:1;stroke-width:0.152396;stroke-linecap:round;stroke-linejoin:round;stroke-miterlimit:4;stroke-dasharray:none"
       d="m 48,49 v -8 l 1,-1 2.381944,6.361111 z"
       id="path4986-0"
       sodipodi:nodetypes="ccccc" />
    <path
       style="fill:#808080;fill-opacity:1;stroke-width:0.152396;stroke-linecap:round;stroke-linejoin:round;stroke-miterlimit:4;stroke-dasharray:none"
       d="m 55,40 1,1 v 8 l -3.298611,-2.638889 z"
       id="path4988-7"
       sodipodi:nodetypes="ccccc" />
    <path
       style="fill:#606060;fill-opacity:1;stroke-width:0.152396;stroke-linecap:round;stroke-linejoin:round;stroke-miterlimit:4;stroke-dasharray:none"
       d="m 48,49 1,-2 h 6 l 1,2 z"
       id="path4982-2"
       sodipodi:nodetypes="ccccc" />
    <path
       style="fill:#a0a0a0;fill-opacity:1;stroke-width:0.152396;stroke-linecap:round;stroke-linejoin:round;stroke-miterlimit:4;stroke-dasharray:none"
       d="m 49,40 v 7 c 1.979166,0.395833 4.020833,0.395833 6,0 v -7 c -1.979167,0.263889 -4.020833,0.263889 -6,0 z"
       id="path4990-72"
       sodipodi:nodetypes="ccccc" />
    <path
       style="fill:#c8c8c8;fill-opacity:1;stroke-width:0.152396;stroke-linecap:round;stroke-linejoin:round;stroke-miterlimit:4;stroke-dasharray:none"
       d="m 41,63 v -8 l 1,-1 2.381944,6.361111 z"
       id="path4986-90"
       sodipodi:nodetypes="ccccc" />
    <path
       style="fill:#808080;fill-opacity:1;stroke-width:0.152396;stroke-linecap:round;stroke-linejoin:round;stroke-miterlimit:4;stroke-dasharray:none"
       d="m 48,54 1,1 v 8 l -3.298611,-2.638889 z"
       id="path4988-5"
       sodipodi:nodetypes="ccccc" />
    <path
       style="fill:#606060;fill-opacity:1;stroke-width:0.152396;stroke-linecap:round;stroke-linejoin:round;stroke-miterlimit:4;stroke-dasharray:none"
       d="m 41,63 1,-2 h 6 l 1,2 z"
       id="path4982-0"
       sodipodi:nodetypes="ccccc" />
    <path
       style="fill:#a0a0a0;fill-opacity:1;stroke-width:0.152396;stroke-linecap:round;stroke-linejoin:round;stroke-miterlimit:4;stroke-dasharray:none"
       d="m 42,54 v 7 c 1.979166,0.395833 4.020833,0.395833 6,0 v -7 c -1.979167,0.263889 -4.020833,0.263889 -6,0 z"
       id="path4990-41"
       sodipodi:nodetypes="ccccc" />
    <path
       style="fill:#c8c8c8;fill-opacity:1;stroke-width:0.152396;stroke-linecap:round;stroke-linejoin:round;stroke-miterlimit:4;stroke-dasharray:none"
       d="m 55,63 v -8 l 1,-1 2.381944,6.361111 z"
       id="path4986-79"
       sodipodi:nodetypes="ccccc" />
    <path
       style="fill:#808080;fill-opacity:1;stroke-width:0.152396;stroke-linecap:round;stroke-linejoin:round;stroke-miterlimit:4;stroke-dasharray:none"
       d="m 62,54 1,1 v 8 l -3.298611,-2.638889 z"
       id="path4988-36"
       sodipodi:nodetypes="ccccc" />
    <path
       style="fill:#606060;fill-opacity:1;stroke-width:0.152396;stroke-linecap:round;stroke-linejoin:round;stroke-miterlimit:4;stroke-dasharray:none"
       d="m 55,63 1,-2 h 6 l 1,2 z"
       id="path4982-21"
       sodipodi:nodetypes="ccccc" />
    <path
       style="fill:#a0a0a0;fill-opacity:1;stroke-width:0.152396;stroke-linecap:round;stroke-linejoin:round;stroke-miterlimit:4;stroke-dasharray:none"
       d="m 56,54 v 7 c 1.979166,0.395833 4.020833,0.395833 6,0 v -7 c -1.979167,0.263889 -4.020833,0.263889 -6,0 z"
       id="path4990-25"
       sodipodi:nodetypes="ccccc" />
    <path
       style="fill:#c8c8c8;fill-opacity:1;stroke-width:0.152396;stroke-linecap:round;stroke-linejoin:round;stroke-miterlimit:4;stroke-dasharray:none"
       d="m 13,63 v -8 l 1,-1 2.381944,6.361111 z"
       id="path4986-39"
       sodipodi:nodetypes="ccccc" />
    <path
       style="fill:#808080;fill-opacity:1;stroke-width:0.152396;stroke-linecap:round;stroke-linejoin:round;stroke-miterlimit:4;stroke-dasharray:none"
       d="m 34,54 1,1 v 8 l -3,-3 z"
       id="path4988-18"
       sodipodi:nodetypes="ccccc" />
    <path
       style="fill:#606060;fill-opacity:1;stroke-width:0.152396;stroke-linecap:round;stroke-linejoin:round;stroke-miterlimit:4;stroke-dasharray:none"
       d="m 13,63 1,-2 h 20 l 1,2 z"
       id="path4982-8"
       sodipodi:nodetypes="ccccc" />
    <path
       style="fill:#a0a0a0;fill-opacity:1;stroke-width:0.152396;stroke-linecap:round;stroke-linejoin:round;stroke-miterlimit:4;stroke-dasharray:none"
       d="m 14,54 v 7 c 1.979166,0.395833 18.020833,0.395833 20,0 v -7 c -1.979167,0.263889 -18.020833,0.263889 -20,0 z"
       id="path4990-70"
       sodipodi:nodetypes="ccccc" />
    <rect
       y="66"
       x="10"
       height="4"
       width="60"
       id="rect7646"
       style="fill:url(#linearGradient7648);fill-opacity:1;stroke:none;stroke-width:0.516398;stroke-linecap:round;stroke-linejoin:round;stroke-miterlimit:4;stroke-dasharray:none;stroke-opacity:1" />
  </g>
</svg>
