<?xml version="1.0" encoding="UTF-8" standalone="no"?>
<svg
   xmlns:dc="http://purl.org/dc/elements/1.1/"
   xmlns:cc="http://creativecommons.org/ns#"
   xmlns:rdf="http://www.w3.org/1999/02/22-rdf-syntax-ns#"
   xmlns:svg="http://www.w3.org/2000/svg"
   xmlns="http://www.w3.org/2000/svg"
   xmlns:sodipodi="http://sodipodi.sourceforge.net/DTD/sodipodi-0.dtd"
   xmlns:inkscape="http://www.inkscape.org/namespaces/inkscape"
   inkscape:export-ydpi="48"
   inkscape:export-xdpi="48"
   inkscape:export-filename="/home/raster/C/th-efl/th/img/ic/mail-sign-verified-040.png"
   inkscape:version="1.0.1 (3bc2e813f5, 2020-09-07)"
   sodipodi:docname="mail-sign-verified.svg"
   viewBox="0 0 80 80"
   height="80"
   width="80"
   id="svg2"
   version="1.1">
  <metadata
     id="metadata8">
    <rdf:RDF>
      <cc:Work
         rdf:about="">
        <dc:format>image/svg+xml</dc:format>
        <dc:type
           rdf:resource="http://purl.org/dc/dcmitype/StillImage" />
        <dc:title></dc:title>
      </cc:Work>
    </rdf:RDF>
  </metadata>
  <defs
     id="defs6">
    <filter
       inkscape:collect="always"
       style="color-interpolation-filters:sRGB"
       id="filter979"
       x="-0.225"
       width="1.45"
       y="-0.45"
       height="1.9">
      <feGaussianBlur
         inkscape:collect="always"
         stdDeviation="4.5"
         id="feGaussianBlur981" />
    </filter>
    <filter
       inkscape:collect="always"
       style="color-interpolation-filters:sRGB"
       id="filter985"
       x="-0.1875"
       width="1.375"
       y="-0.75"
       height="2.5">
      <feGaussianBlur
         inkscape:collect="always"
         stdDeviation="3.75"
         id="feGaussianBlur987" />
    </filter>
    <mask
       maskUnits="userSpaceOnUse"
       id="mask995">
      <rect
         style="fill:#ffffff;fill-opacity:1;stroke-width:4;stroke-linecap:round;stroke-linejoin:round"
         id="rect997"
         width="48"
         height="32"
         x="16"
         y="24" />
    </mask>
    <mask
       maskUnits="userSpaceOnUse"
       id="mask999">
      <rect
         style="fill:#ffffff;fill-opacity:1;stroke-width:4;stroke-linecap:round;stroke-linejoin:round"
         id="rect1001"
         width="48"
         height="32"
         x="16"
         y="24" />
    </mask>
    <mask
       maskUnits="userSpaceOnUse"
       id="mask1005">
      <rect
         style="fill:#ffffff;fill-opacity:1;stroke-width:4;stroke-linecap:round;stroke-linejoin:round"
         id="rect1007"
         width="48"
         height="32"
         x="16"
         y="24"
         mask="url(#mask999)" />
    </mask>
  </defs>
  <sodipodi:namedview
     inkscape:bbox-nodes="true"
     inkscape:bbox-paths="true"
     inkscape:object-paths="true"
     inkscape:snap-intersection-paths="true"
     inkscape:snap-nodes="true"
     inkscape:snap-bbox="true"
     inkscape:current-layer="g10"
     inkscape:window-maximized="1"
     inkscape:window-y="0"
     inkscape:window-x="0"
     inkscape:cy="40"
     inkscape:cx="40"
     inkscape:zoom="10.4875"
     showgrid="true"
     id="namedview4"
     inkscape:window-height="1017"
     inkscape:window-width="1920"
     inkscape:pageshadow="2"
     inkscape:pageopacity="0"
     guidetolerance="10"
     gridtolerance="10"
     objecttolerance="10"
     borderopacity="1"
     bordercolor="#666666"
     pagecolor="#404040"
     inkscape:document-rotation="0">
    <inkscape:grid
       id="grid837"
       type="xygrid"
       empspacing="4" />
  </sodipodi:namedview>
  <g
     id="g10"
     inkscape:label="Image"
     inkscape:groupmode="layer">
    <g
       id="g1032">
      <rect
         style="fill:#dcdcdc;fill-opacity:1;stroke-width:4;stroke-linecap:round;stroke-linejoin:round"
         id="rect851"
         width="48"
         height="32"
         x="16"
         y="24"
         mask="url(#mask999)" />
      <path
         style="fill:#000000;fill-opacity:1;stroke-width:4;stroke-linecap:round;stroke-linejoin:round;filter:url(#filter979);opacity:0.2"
         d="M 16,56 36,32 h 8 l 20,24 z"
         id="path857"
         mask="url(#mask1005)" />
      <path
         style="fill:#ffffff;fill-opacity:1;stroke-width:4;stroke-linecap:round;stroke-linejoin:round"
         d="M 16,56 36,32 h 8 l 20,24 z"
         id="path853" />
      <path
         style="fill:#000000;fill-opacity:0.94;stroke-width:4;stroke-linecap:round;stroke-linejoin:round;filter:url(#filter985);opacity:0.5"
         d="M 16,24 40,36 64,24 Z"
         id="path855"
         mask="url(#mask995)" />
      <path
         style="fill:#ffffff;fill-opacity:1;stroke-width:4;stroke-linecap:round;stroke-linejoin:round"
         d="M 16,24 40,36 64,24 Z"
         id="path983" />
    </g>
    <path
       style="fill:#325479;fill-opacity:1;fill-rule:evenodd;stroke:none;stroke-width:1px;stroke-linecap:butt;stroke-linejoin:miter;stroke-opacity:1"
       d="m 48.272593,46.929448 -5.176381,19.318516 4.89898,-2.828427 2.828427,4.898979 L 56,49 Z"
       id="path1741" />
    <path
       style="fill:#2b5b90;fill-opacity:1;fill-rule:evenodd;stroke:none;stroke-width:1px;stroke-linecap:butt;stroke-linejoin:miter;stroke-opacity:1"
       d="M 59.722599,46.509911 64.89898,65.828427 60,63 57.171573,67.898979 51.995192,48.580463 Z"
       id="path1743" />
    <path
       style="fill:#3271b7;fill-opacity:1;fill-rule:evenodd;stroke:none;stroke-width:1px;stroke-linecap:butt;stroke-linejoin:miter;stroke-opacity:1"
       d="m 54,34 c -1.343699,-0.372183 -1.786688,2.313034 -3,3 -1.213312,0.686966 -3.535512,-0.201448 -4,1 -0.464488,1.201448 0.441202,1.338627 0,3 -0.441202,1.661373 -3.632134,0.733109 -4,3 -0.367866,2.266891 2.254644,2.763932 3,5 0.745356,2.236068 -0.863054,5.657186 1,7 1.863054,1.342814 3.678619,-1.78425 6,-2 2.321381,-0.21575 3.49909,2.132139 5,1 1.50091,-1.132139 1.257656,-2.798862 2,-4 0.742344,-1.201138 3.637292,-0.463542 4,-2 0.362708,-1.536458 -2.1092,-1.463435 -2,-3 0.1092,-1.536565 2.322637,-2.428136 2,-4 -0.322637,-1.571864 -3.216506,-0.842753 -4,-2 -0.783494,-1.157247 -0.06426,-2.269392 -1,-3 -0.935745,-0.730608 -2.821489,1.707107 -4,1 -1.178511,-0.707107 0.343699,-3.627817 -1,-4 z"
       id="path1735"
       sodipodi:nodetypes="zzzzzzzzzzzzzzzzz" />
    <circle
       style="fill:#dcdcdc;fill-opacity:1;stroke:none;stroke-width:6.66666;stroke-linecap:round;stroke-linejoin:round;stroke-miterlimit:4;stroke-dasharray:none;stroke-opacity:1"
       id="path1733"
       cx="54"
       cy="46"
       r="5" />
    <circle
       style="fill:#ffffff;fill-opacity:1;stroke:none;stroke-width:5.33332;stroke-linecap:round;stroke-linejoin:round;stroke-miterlimit:4;stroke-dasharray:none;stroke-opacity:1"
       id="circle1737"
       cx="54"
       cy="46"
       r="4" />
    <path
       style="fill:none;fill-rule:evenodd;stroke:#3399ff;stroke-width:8;stroke-linecap:butt;stroke-linejoin:miter;stroke-miterlimit:4;stroke-dasharray:none;stroke-opacity:1"
       d="m 12,51 8,8 16,-16"
       id="path1763"
       sodipodi:nodetypes="ccc" />
  </g>
</svg>
