<?xml version="1.0" encoding="UTF-8" standalone="no"?>
<svg
   xmlns:dc="http://purl.org/dc/elements/1.1/"
   xmlns:cc="http://creativecommons.org/ns#"
   xmlns:rdf="http://www.w3.org/1999/02/22-rdf-syntax-ns#"
   xmlns:svg="http://www.w3.org/2000/svg"
   xmlns="http://www.w3.org/2000/svg"
   xmlns:xlink="http://www.w3.org/1999/xlink"
   xmlns:sodipodi="http://sodipodi.sourceforge.net/DTD/sodipodi-0.dtd"
   xmlns:inkscape="http://www.inkscape.org/namespaces/inkscape"
   version="1.1"
   id="svg2"
   width="80"
   height="80"
   viewBox="0 0 80 80"
   sodipodi:docname="microphone.svg"
   inkscape:version="1.0.1 (3bc2e813f5, 2020-09-07)"
   inkscape:export-filename="/home/raster/C/th-efl/th/img/ic/microphone-040.png"
   inkscape:export-xdpi="48"
   inkscape:export-ydpi="48">
  <metadata
     id="metadata8">
    <rdf:RDF>
      <cc:Work
         rdf:about="">
        <dc:format>image/svg+xml</dc:format>
        <dc:type
           rdf:resource="http://purl.org/dc/dcmitype/StillImage" />
        <dc:title></dc:title>
      </cc:Work>
    </rdf:RDF>
  </metadata>
  <defs
     id="defs6">
    <linearGradient
       inkscape:collect="always"
       id="linearGradient1116">
      <stop
         style="stop-color:#a0a0a0;stop-opacity:1;"
         offset="0"
         id="stop1112" />
      <stop
         style="stop-color:#808080;stop-opacity:1"
         offset="1"
         id="stop1114" />
    </linearGradient>
    <mask
       maskUnits="userSpaceOnUse"
       id="mask947">
      <rect
         style="opacity:1;fill:#a0a0a0;fill-opacity:1;stroke-width:3.96122;stroke-linecap:round;stroke-linejoin:round"
         id="rect949"
         width="60"
         height="40"
         x="10"
         y="5" />
    </mask>
    <mask
       id="mask3567"
       maskUnits="userSpaceOnUse">
      <path
         style="fill:#ffffff;fill-opacity:1;fill-rule:evenodd;stroke:none;stroke-width:1px;stroke-linecap:butt;stroke-linejoin:miter;stroke-opacity:1"
         d="M 40,10 C 19,10 20,17.832395 20,30 20,42.167605 19,70 40,70 61,70 60,42.167605 60,30 60,17.832395 61,10 40,10 Z"
         id="path3569"
         sodipodi:nodetypes="zzzzz" />
    </mask>
    <clipPath
       id="clipPath922"
       clipPathUnits="userSpaceOnUse">
      <path
         sodipodi:nodetypes="ccccccc"
         inkscape:connector-curvature="0"
         id="path924"
         d="m 1.3229166,295.4125 h 7.9375003 v -6.08542 c 0,-0.52917 0,-0.52917 -0.529167,-0.52917 H 1.8520833 c -0.5291666,0 -0.5291666,0 -0.5291667,0.52917 z"
         style="fill:#ffffff;fill-opacity:1;fill-rule:evenodd;stroke:none;stroke-width:0.264583px;stroke-linecap:butt;stroke-linejoin:miter;stroke-opacity:1" />
    </clipPath>
    <clipPath
       id="clipPath922-6"
       clipPathUnits="userSpaceOnUse">
      <path
         sodipodi:nodetypes="ccccccc"
         inkscape:connector-curvature="0"
         id="path924-7"
         d="m 1.3229166,295.4125 h 7.9375003 v -6.08542 c 0,-0.52917 0,-0.52917 -0.529167,-0.52917 H 1.8520833 c -0.5291666,0 -0.5291666,0 -0.5291667,0.52917 z"
         style="fill:#ffffff;fill-opacity:1;fill-rule:evenodd;stroke:none;stroke-width:0.264583px;stroke-linecap:butt;stroke-linejoin:miter;stroke-opacity:1" />
    </clipPath>
    <linearGradient
       inkscape:collect="always"
       xlink:href="#linearGradient1116"
       id="linearGradient1118"
       x1="40"
       y1="68"
       x2="40"
       y2="62"
       gradientUnits="userSpaceOnUse" />
  </defs>
  <sodipodi:namedview
     inkscape:document-rotation="0"
     pagecolor="#404040"
     bordercolor="#666666"
     borderopacity="1"
     objecttolerance="10"
     gridtolerance="10"
     guidetolerance="10"
     inkscape:pageopacity="0"
     inkscape:pageshadow="2"
     inkscape:window-width="1920"
     inkscape:window-height="1017"
     id="namedview4"
     showgrid="true"
     inkscape:zoom="10.45"
     inkscape:cx="40"
     inkscape:cy="40.047847"
     inkscape:window-x="0"
     inkscape:window-y="0"
     inkscape:window-maximized="1"
     inkscape:current-layer="g10"
     showguides="false"
     inkscape:snap-bbox="true"
     inkscape:bbox-nodes="true"
     inkscape:snap-others="false"
     inkscape:snap-nodes="true"
     inkscape:bbox-paths="true">
    <inkscape:grid
       type="xygrid"
       id="grid837" />
  </sodipodi:namedview>
  <g
     inkscape:groupmode="layer"
     inkscape:label="Image"
     id="g10">
    <path
       id="path995"
       style="fill:url(#linearGradient1118);fill-opacity:1;fill-rule:evenodd;stroke:none;stroke-width:1px;stroke-linecap:butt;stroke-linejoin:miter;stroke-opacity:1"
       d="m 38,61 c 0,2.333333 0,4.666667 0,7 -4.43621,0.03122 -9.094547,0.649376 -12.892151,3.108978 C 24.410767,71.538568 23.562474,72.202977 24.812108,72 35.208072,72 45.604036,72 56,72 53.414902,69.68475 49.910868,68.762288 46.54834,68.283447 45.041018,68.084849 43.519922,68.000212 42,68 c 0,-2.333333 0,-4.666667 0,-7 -1.333333,0 -2.666667,0 -4,0 z" />
    <path
       id="rect972"
       style="fill:#303030;fill-opacity:1;stroke:none;stroke-width:3.77953"
       d="M 40 8 A 12 12 0 0 0 28 20 L 28 44 A 12 12 0 0 0 40 56 A 12 12 0 0 0 52 44 L 52 20 A 12 12 0 0 0 40 8 z " />
    <path
       id="path987"
       style="fill:#c8c8c8;fill-opacity:1;stroke:none;stroke-width:3.77953"
       d="m 20,24 v 20 c 0,11.045695 8.954305,20 20,20 11.045695,0 20,-8.954305 20,-20 V 24 H 56 V 44 C 56,52.836556 48.836556,60 40,60 31.163444,60 24,52.836556 24,44 V 24 Z"
       sodipodi:nodetypes="csssccssscc" />
    <path
       id="path997"
       style="fill:#000000;fill-opacity:0.2;stroke:none;stroke-width:3.77953"
       d="M 28 40 L 28 44 A 12 12 0 0 0 40 56 A 12 12 0 0 0 52 44 L 52 40 A 12 12 0 0 1 40 52 A 12 12 0 0 1 28 40 z " />
    <circle
       style="fill:#ffffff;fill-opacity:0.04;stroke:none;stroke-width:6.04725"
       id="path1002"
       cx="40"
       cy="20"
       r="8" />
    <path
       id="rect1004"
       style="fill:#000000;fill-opacity:0.25;stroke:none;stroke-width:3.77953"
       d="M 40 8 A 12 12 0 0 0 37.123047 8.3496094 L 34.34375 11.130859 L 33.275391 10.0625 A 12 12 0 0 0 31.708984 11.324219 L 32.929688 12.544922 L 28.685547 16.787109 L 28.494141 16.595703 A 12 12 0 0 0 28 20 L 28 20.300781 L 28.685547 19.615234 L 32.929688 23.857422 L 28.685547 28.099609 L 28 27.414062 L 28 31.615234 L 28.685547 30.929688 L 32.929688 35.171875 L 28.685547 39.414062 L 28 38.728516 L 28 42.927734 L 28.685547 42.242188 L 32.929688 46.484375 L 29.537109 49.876953 A 12 12 0 0 0 30.681641 51.560547 L 34.34375 47.900391 L 38.585938 52.142578 L 35.574219 55.154297 A 12 12 0 0 0 37.765625 55.791016 L 37.767578 55.791016 L 40 53.556641 L 42.234375 55.791016 A 12 12 0 0 0 44.423828 55.152344 L 41.414062 52.142578 L 45.65625 47.900391 L 49.318359 51.560547 A 12 12 0 0 0 50.460938 49.875 L 47.070312 46.484375 L 51.314453 42.242188 L 52 42.927734 L 52 38.728516 L 51.314453 39.414062 L 47.070312 35.171875 L 51.314453 30.929688 L 52 31.615234 L 52 27.414062 L 51.314453 28.099609 L 47.070312 23.857422 L 51.314453 19.615234 L 52 20.300781 L 52 20 A 12 12 0 0 0 51.505859 16.595703 L 51.314453 16.787109 L 47.070312 12.544922 L 48.291016 11.324219 A 12 12 0 0 0 46.724609 10.0625 L 45.65625 11.130859 L 42.876953 8.3515625 A 12 12 0 0 0 40 8 z M 40 8.3007812 L 44.242188 12.544922 L 40 16.787109 L 35.757812 12.544922 L 40 8.3007812 z M 34.34375 13.958984 L 38.585938 18.201172 L 34.34375 22.443359 L 30.099609 18.201172 L 34.34375 13.958984 z M 45.65625 13.958984 L 49.900391 18.201172 L 45.65625 22.443359 L 41.414062 18.201172 L 45.65625 13.958984 z M 40 19.615234 L 44.242188 23.857422 L 40 28.099609 L 35.757812 23.857422 L 40 19.615234 z M 34.34375 25.271484 L 38.585938 29.515625 L 34.34375 33.757812 L 30.099609 29.515625 L 34.34375 25.271484 z M 45.65625 25.271484 L 49.900391 29.515625 L 45.65625 33.757812 L 41.414062 29.515625 L 45.65625 25.271484 z M 40 30.929688 L 44.242188 35.171875 L 40 39.414062 L 35.757812 35.171875 L 40 30.929688 z M 34.34375 36.585938 L 38.585938 40.828125 L 34.34375 45.070312 L 30.099609 40.828125 L 34.34375 36.585938 z M 45.65625 36.585938 L 49.900391 40.828125 L 45.65625 45.070312 L 41.414062 40.828125 L 45.65625 36.585938 z M 40 42.242188 L 44.242188 46.484375 L 40 50.728516 L 35.757812 46.484375 L 40 42.242188 z " />
    <rect
       style="fill:#ffffff;fill-opacity:1;stroke:none;stroke-width:3.77953"
       id="rect1089"
       width="4"
       height="4"
       x="20"
       y="26" />
    <rect
       style="fill:#ffffff;fill-opacity:1;stroke:none;stroke-width:3.77953"
       id="rect1091"
       width="4"
       height="4"
       x="56"
       y="26" />
  </g>
</svg>
