<?xml version="1.0" encoding="UTF-8" standalone="no"?>
<svg
   xmlns:dc="http://purl.org/dc/elements/1.1/"
   xmlns:cc="http://creativecommons.org/ns#"
   xmlns:rdf="http://www.w3.org/1999/02/22-rdf-syntax-ns#"
   xmlns:svg="http://www.w3.org/2000/svg"
   xmlns="http://www.w3.org/2000/svg"
   xmlns:sodipodi="http://sodipodi.sourceforge.net/DTD/sodipodi-0.dtd"
   xmlns:inkscape="http://www.inkscape.org/namespaces/inkscape"
   version="1.1"
   id="svg2"
   width="15"
   height="15"
   viewBox="0 0 15 15"
   sodipodi:docname="net-offline.svg"
   inkscape:version="1.0.1 (3bc2e813f5, 2020-09-07)"
   inkscape:export-filename="/home/raster/C/th-efl/th/img/ic/cell-umts-015.png"
   inkscape:export-xdpi="96"
   inkscape:export-ydpi="96">
  <metadata
     id="metadata8">
    <rdf:RDF>
      <cc:Work
         rdf:about="">
        <dc:format>image/svg+xml</dc:format>
        <dc:type
           rdf:resource="http://purl.org/dc/dcmitype/StillImage" />
        <dc:title></dc:title>
      </cc:Work>
    </rdf:RDF>
  </metadata>
  <defs
     id="defs6" />
  <sodipodi:namedview
     inkscape:document-rotation="0"
     pagecolor="#404040"
     bordercolor="#666666"
     borderopacity="1"
     objecttolerance="10"
     gridtolerance="10"
     guidetolerance="10"
     inkscape:pageopacity="0"
     inkscape:pageshadow="2"
     inkscape:window-width="1920"
     inkscape:window-height="1017"
     id="namedview4"
     showgrid="true"
     inkscape:zoom="55.933333"
     inkscape:cx="7.5"
     inkscape:cy="7.5"
     inkscape:window-x="0"
     inkscape:window-y="0"
     inkscape:window-maximized="1"
     inkscape:current-layer="g10"
     inkscape:snap-bbox="true"
     inkscape:bbox-paths="false"
     inkscape:bbox-nodes="true"
     inkscape:snap-bbox-edge-midpoints="false"
     inkscape:object-paths="true"
     inkscape:snap-intersection-paths="true"
     inkscape:snap-smooth-nodes="true">
    <inkscape:grid
       type="xygrid"
       id="grid837"
       spacingx="0.5"
       spacingy="0.5" />
  </sodipodi:namedview>
  <g
     inkscape:groupmode="layer"
     inkscape:label="Image"
     id="g10">
    <path
       id="path5405"
       style="opacity:1;fill:#ffffff;fill-opacity:1;stroke:none;stroke-width:0.0599084;stroke-linecap:round;stroke-linejoin:round;stroke-miterlimit:4;stroke-dasharray:none;stroke-opacity:1"
       d="M 5.2402344 1.5 A 2.75 2.75 0 0 0 4.203125 1.703125 L 12 9.5 L 12.490234 9.5 A 1.5000001 1.5000001 0 0 0 13.990234 8 A 1.5000001 1.5000001 0 0 0 12.490234 6.5 L 12.490234 6.25 A 1.2500001 1.2500001 0 0 0 12.488281 6.2070312 A 1.2500001 1.2500001 0 0 0 11.240234 5 A 1.2500001 1.2500001 0 0 0 10.488281 5.2519531 A 2.2857141 2.2857141 0 0 0 10.490234 5.2148438 A 2.2857141 2.2857141 0 0 0 8.2050781 2.9277344 A 2.2857141 2.2857141 0 0 0 7.6835938 2.9882812 A 2.75 2.75 0 0 0 5.2402344 1.5 z M 1.8828125 4.3828125 A 2.9908412 2.9999995 0 0 0 1.0078125 6.5 A 2.9908412 2.9999995 0 0 0 4 9.5 L 6.9902344 9.5 L 6.9902344 11.330078 A 1.1428571 1.1428571 0 0 0 6.40625 12 L 2.9902344 12 L 2.9902344 13 L 6.546875 13 A 1.1428571 1.1428571 0 0 0 7.4902344 13.5 A 1.1428571 1.1428571 0 0 0 8.4335938 13 L 10.5 13 L 9.5 12 L 8.5761719 12 A 1.1428571 1.1428571 0 0 0 7.9902344 11.330078 L 7.9902344 10.490234 L 1.8828125 4.3828125 z " />
    <path
       style="fill:#ffffff;fill-rule:evenodd;stroke:none;stroke-width:1px;stroke-linecap:butt;stroke-linejoin:miter;stroke-opacity:1;fill-opacity:1"
       d="m 1.5,2.5 1,-1 11,11 -1,1 z"
       id="path13679" />
  </g>
</svg>
