<?xml version="1.0" encoding="UTF-8" standalone="no"?>
<svg
   xmlns:dc="http://purl.org/dc/elements/1.1/"
   xmlns:cc="http://creativecommons.org/ns#"
   xmlns:rdf="http://www.w3.org/1999/02/22-rdf-syntax-ns#"
   xmlns:svg="http://www.w3.org/2000/svg"
   xmlns="http://www.w3.org/2000/svg"
   xmlns:sodipodi="http://sodipodi.sourceforge.net/DTD/sodipodi-0.dtd"
   xmlns:inkscape="http://www.inkscape.org/namespaces/inkscape"
   version="1.1"
   id="svg2"
   width="15"
   height="15"
   viewBox="0 0 15 15"
   sodipodi:docname="net-wifi-sig-4.svg"
   inkscape:version="1.0.1 (3bc2e813f5, 2020-09-07)"
   inkscape:export-filename="/home/raster/C/th-efl/th/img/ic/net-wifi-encrypted-015.png"
   inkscape:export-xdpi="96"
   inkscape:export-ydpi="96">
  <metadata
     id="metadata8">
    <rdf:RDF>
      <cc:Work
         rdf:about="">
        <dc:format>image/svg+xml</dc:format>
        <dc:type
           rdf:resource="http://purl.org/dc/dcmitype/StillImage" />
        <dc:title></dc:title>
      </cc:Work>
    </rdf:RDF>
  </metadata>
  <defs
     id="defs6" />
  <sodipodi:namedview
     inkscape:document-rotation="0"
     pagecolor="#404040"
     bordercolor="#666666"
     borderopacity="1"
     objecttolerance="10"
     gridtolerance="10"
     guidetolerance="10"
     inkscape:pageopacity="0"
     inkscape:pageshadow="2"
     inkscape:window-width="1920"
     inkscape:window-height="1017"
     id="namedview4"
     showgrid="true"
     inkscape:zoom="55.933333"
     inkscape:cx="6.7848629"
     inkscape:cy="7.5"
     inkscape:window-x="0"
     inkscape:window-y="0"
     inkscape:window-maximized="1"
     inkscape:current-layer="g10"
     inkscape:snap-bbox="true"
     inkscape:bbox-paths="false"
     inkscape:bbox-nodes="true"
     inkscape:snap-bbox-edge-midpoints="false"
     inkscape:object-paths="true"
     inkscape:snap-intersection-paths="true"
     inkscape:snap-smooth-nodes="true">
    <inkscape:grid
       type="xygrid"
       id="grid837"
       spacingx="0.5"
       spacingy="0.5" />
  </sodipodi:namedview>
  <g
     inkscape:groupmode="layer"
     inkscape:label="Image"
     id="g10">
    <path
       inkscape:connector-curvature="0"
       style="opacity:1;fill:#ffffff;fill-opacity:1;stroke:none;stroke-width:0.102652"
       d="M 7.4821216,2.2878478 A 9.2386713,9.2386713 0 0 0 0.95350061,4.9978981 L 1.6838929,5.7282904 A 8.2121523,8.2121523 0 0 1 7.4919451,3.3143668 8.2121523,8.2121523 0 0 1 13.290175,5.7184663 L 14.010743,4.9978981 A 9.2386713,9.2386713 0 0 0 7.4821216,2.2878478 Z"
       id="path4174" />
    <path
       inkscape:connector-curvature="0"
       style="opacity:1;fill:#ffffff;fill-opacity:1;stroke:none;stroke-width:0.102652"
       d="M 7.5,4.3408858 A 7.1856332,7.1856332 0 0 0 2.4221393,6.4486581 L 3.1521299,7.1786495 A 6.1636766,6.186488 0 0 1 7.5046114,5.3674049 6.1636766,6.186488 0 0 1 11.852079,7.1744393 L 12.577861,6.4486581 A 7.1856332,7.1856332 0 0 0 7.5,4.3408858 Z"
       id="path3354" />
    <path
       inkscape:connector-curvature="0"
       style="opacity:1;fill:#ffffff;fill-opacity:1;stroke:none;stroke-width:0.102652"
       d="M 7.4725323,6.3939239 A 5.1025492,5.1158666 0 0 0 3.8674859,7.8940048 L 4.5918632,8.6183824 A 4.0787024,4.0893475 0 0 1 7.4725323,7.4204429 4.0787024,4.0893475 0 0 1 10.381672,8.6448471 L 11.104245,7.9222742 A 5.1025492,5.1158666 0 0 0 7.4725323,6.3939239 Z"
       id="ellipse3349" />
    <path
       inkscape:connector-curvature="0"
       style="opacity:1;fill:#ffffff;fill-opacity:1;stroke:none;stroke-width:0.102652"
       d="M 7.5,8.4469619 A 3.0795571,3.0795571 0 0 0 5.3238595,9.3503788 L 6.0492397,10.075759 A 2.053038,2.053038 0 0 1 7.5,9.4734809 2.053038,2.053038 0 0 1 8.9507603,10.075759 L 9.6761405,9.3503788 A 3.0795571,3.0795571 0 0 0 7.5,8.4469619 Z"
       id="circle3344" />
    <circle
       style="opacity:1;fill:#ffffff;fill-opacity:1;stroke:none;stroke-width:0.051326;stroke-linecap:round;stroke-linejoin:round;stroke-miterlimit:4;stroke-dasharray:none;stroke-opacity:1"
       id="path5460"
       cx="7.5"
       cy="11.526519"
       r="1.0265191" />
  </g>
</svg>
