<?xml version="1.0" encoding="UTF-8" standalone="no"?>
<!-- Created with Inkscape (http://www.inkscape.org/) -->

<svg
   xmlns:dc="http://purl.org/dc/elements/1.1/"
   xmlns:cc="http://creativecommons.org/ns#"
   xmlns:rdf="http://www.w3.org/1999/02/22-rdf-syntax-ns#"
   xmlns:svg="http://www.w3.org/2000/svg"
   xmlns="http://www.w3.org/2000/svg"
   xmlns:sodipodi="http://sodipodi.sourceforge.net/DTD/sodipodi-0.dtd"
   xmlns:inkscape="http://www.inkscape.org/namespaces/inkscape"
   id="svg2"
   version="1.1"
   inkscape:version="0.92.4 5da689c313, 2019-01-14"
   width="40"
   height="40"
   viewBox="0 0 40 40"
   sodipodi:docname="O-evry.svg"
   inkscape:export-filename="/home/raster/C/th-efl/th/img/cloud-conn.png"
   inkscape:export-xdpi="90"
   inkscape:export-ydpi="90">
  <metadata
     id="metadata8">
    <rdf:RDF>
      <cc:Work
         rdf:about="">
        <dc:format>image/svg+xml</dc:format>
        <dc:type
           rdf:resource="http://purl.org/dc/dcmitype/StillImage" />
        <dc:title></dc:title>
      </cc:Work>
    </rdf:RDF>
  </metadata>
  <defs
     id="defs6" />
  <sodipodi:namedview
     pagecolor="#404040"
     bordercolor="#000000"
     borderopacity="0.25098039"
     objecttolerance="10"
     gridtolerance="10"
     guidetolerance="10"
     inkscape:pageopacity="0"
     inkscape:pageshadow="2"
     inkscape:window-width="2560"
     inkscape:window-height="1377"
     id="namedview4"
     showgrid="true"
     inkscape:snap-bbox="true"
     inkscape:bbox-paths="true"
     inkscape:bbox-nodes="true"
     inkscape:snap-bbox-edge-midpoints="true"
     inkscape:snap-bbox-midpoints="true"
     inkscape:object-paths="true"
     inkscape:snap-intersection-paths="true"
     inkscape:object-nodes="true"
     inkscape:snap-smooth-nodes="true"
     inkscape:snap-midpoints="true"
     inkscape:zoom="30.675"
     inkscape:cx="20"
     inkscape:cy="20"
     inkscape:window-x="0"
     inkscape:window-y="0"
     inkscape:window-maximized="1"
     inkscape:current-layer="svg2"
     inkscape:showpageshadow="false">
    <inkscape:grid
       type="xygrid"
       id="grid4138"
       enabled="true"
       visible="true" />
  </sodipodi:namedview>
  <rect
     style="opacity:1;fill:#ffffff;fill-opacity:1;stroke:none;stroke-width:1.65615737;stroke-linecap:round;stroke-linejoin:round;stroke-miterlimit:4;stroke-dasharray:none;stroke-opacity:0.50196078"
     id="rect840"
     width="36"
     height="4"
     x="2"
     y="34" />
  <rect
     style="opacity:1;fill:#ffffff;fill-opacity:1;stroke:none;stroke-width:2;stroke-linecap:round;stroke-linejoin:round;stroke-miterlimit:4;stroke-dasharray:none;stroke-opacity:0.50196078"
     id="rect842"
     width="17"
     height="8"
     x="2"
     y="2" />
  <rect
     style="opacity:1;fill:#ffffff;fill-opacity:1;stroke:none;stroke-width:2;stroke-linecap:round;stroke-linejoin:round;stroke-miterlimit:4;stroke-dasharray:none;stroke-opacity:0.50196078"
     id="rect842-8"
     width="17"
     height="8"
     x="21"
     y="2" />
  <path
     style="opacity:1;fill:#ffffff;fill-opacity:1;stroke:none;stroke-width:2;stroke-linecap:round;stroke-linejoin:round;stroke-miterlimit:4;stroke-dasharray:none;stroke-opacity:0.50196078"
     d="m 24.954296,13.313386 a 10,10 0 0 0 -13.632163,3.717067 10,10 0 0 0 3.693055,13.638597 10,10 0 0 0 7.571261,0.983847 L 21.81079,28.758098 a 7,7 0 0 1 -5.300676,-0.690053 7,7 0 0 1 -2.585023,-9.546049 7,7 0 0 1 9.542736,-2.602721 7,7 0 0 1 3.026657,8.675644 l -1.755731,-1.013672 a 5,5 0 0 0 -2.262469,-5.925039 5,5 0 0 0 -6.815235,1.859022 5,5 0 0 0 -0.627548,1.926789 l 7.932928,4.580078 0.363663,0.209961 1.476641,0.852539 1.98746,1.147461 0.681657,0.393555 a 10,10 0 0 0 1.184369,-1.625606 l 0.03516,-0.06089 A 10,10 0 0 0 24.954296,13.313386 Z"
     id="path861"
     inkscape:connector-curvature="0" />
</svg>
