<?xml version="1.0" encoding="UTF-8" standalone="no"?>
<svg
   xmlns:dc="http://purl.org/dc/elements/1.1/"
   xmlns:cc="http://creativecommons.org/ns#"
   xmlns:rdf="http://www.w3.org/1999/02/22-rdf-syntax-ns#"
   xmlns:svg="http://www.w3.org/2000/svg"
   xmlns="http://www.w3.org/2000/svg"
   xmlns:sodipodi="http://sodipodi.sourceforge.net/DTD/sodipodi-0.dtd"
   xmlns:inkscape="http://www.inkscape.org/namespaces/inkscape"
   inkscape:export-ydpi="96"
   inkscape:export-xdpi="96"
   inkscape:export-filename="/home/raster/C/th-efl/th/img/ic/refresh-015.png"
   inkscape:version="1.0 (4035a4fb49, 2020-05-01)"
   sodipodi:docname="refresh.svg"
   viewBox="0 0 15 15"
   height="15"
   width="15"
   id="svg2"
   version="1.1">
  <metadata
     id="metadata8">
    <rdf:RDF>
      <cc:Work
         rdf:about="">
        <dc:format>image/svg+xml</dc:format>
        <dc:type
           rdf:resource="http://purl.org/dc/dcmitype/StillImage" />
        <dc:title></dc:title>
      </cc:Work>
    </rdf:RDF>
  </metadata>
  <defs
     id="defs6" />
  <sodipodi:namedview
     inkscape:snap-bbox-edge-midpoints="false"
     inkscape:bbox-nodes="true"
     inkscape:bbox-paths="false"
     inkscape:snap-bbox="true"
     inkscape:current-layer="g10"
     inkscape:window-maximized="0"
     inkscape:window-y="0"
     inkscape:window-x="0"
     inkscape:cy="7.5362319"
     inkscape:cx="7.5"
     inkscape:zoom="55.2"
     showgrid="true"
     id="namedview4"
     inkscape:window-height="1012"
     inkscape:window-width="1920"
     inkscape:pageshadow="2"
     inkscape:pageopacity="0"
     guidetolerance="10"
     gridtolerance="10"
     objecttolerance="10"
     borderopacity="1"
     bordercolor="#666666"
     pagecolor="#404040"
     inkscape:document-rotation="0">
    <inkscape:grid
       spacingy="0.5"
       spacingx="0.5"
       id="grid837"
       type="xygrid" />
  </sodipodi:namedview>
  <g
     id="g10"
     inkscape:label="Image"
     inkscape:groupmode="layer">
    <path
       d="M 7.5 2 A 5.5 5.5 0 0 0 3.6113281 3.6113281 L 5.0253906 5.0253906 A 3.5 3.5 0 0 1 7.5 4 A 3.5 3.5 0 0 1 11 7.5 L 13 7.5 A 5.5 5.5 0 0 0 7.5 2 z M 2 7.5 A 5.5 5.5 0 0 0 7.5 13 A 5.5 5.5 0 0 0 11.388672 11.388672 L 9.9746094 9.9746094 A 3.5 3.5 0 0 1 7.5 11 A 3.5 3.5 0 0 1 4 7.5 L 2 7.5 z "
       style="fill:#ffffff;stroke-width:1.00157;stroke-linecap:round;stroke-linejoin:round;stroke-opacity:0.2"
       id="path3524" />
    <rect
       y="8.5"
       x="8"
       height="2"
       width="4.5"
       id="rect3540"
       style="fill:#ffffff;fill-opacity:1;stroke:none;stroke-width:1.06233;stroke-linecap:round;stroke-linejoin:round;stroke-opacity:0.2" />
    <rect
       transform="rotate(-90)"
       style="fill:#ffffff;fill-opacity:1;stroke:none;stroke-width:1.06233;stroke-linecap:round;stroke-linejoin:round;stroke-opacity:0.2"
       id="rect3542"
       width="4.5"
       height="2"
       x="-13"
       y="10.5" />
    <rect
       transform="scale(-1)"
       style="fill:#ffffff;fill-opacity:1;stroke:none;stroke-width:1.06233;stroke-linecap:round;stroke-linejoin:round;stroke-opacity:0.2"
       id="rect3544"
       width="4.5"
       height="2"
       x="-7"
       y="-6.5" />
    <rect
       y="-4.5"
       x="2"
       height="2"
       width="4.5"
       id="rect3546"
       style="fill:#ffffff;fill-opacity:1;stroke:none;stroke-width:1.06233;stroke-linecap:round;stroke-linejoin:round;stroke-opacity:0.2"
       transform="rotate(90)" />
  </g>
</svg>
