<?xml version="1.0" encoding="UTF-8" standalone="no"?>
<svg
   xmlns:dc="http://purl.org/dc/elements/1.1/"
   xmlns:cc="http://creativecommons.org/ns#"
   xmlns:rdf="http://www.w3.org/1999/02/22-rdf-syntax-ns#"
   xmlns:svg="http://www.w3.org/2000/svg"
   xmlns="http://www.w3.org/2000/svg"
   xmlns:sodipodi="http://sodipodi.sourceforge.net/DTD/sodipodi-0.dtd"
   xmlns:inkscape="http://www.inkscape.org/namespaces/inkscape"
   inkscape:export-ydpi="96"
   inkscape:export-xdpi="96"
   inkscape:export-filename="/home/raster/C/th-efl/th/img/ic/search-edit-015.png"
   inkscape:version="1.0.1 (3bc2e813f5, 2020-09-07)"
   sodipodi:docname="search-edit.svg"
   viewBox="0 0 15 15"
   height="15"
   width="15"
   id="svg2"
   version="1.1">
  <metadata
     id="metadata8">
    <rdf:RDF>
      <cc:Work
         rdf:about="">
        <dc:format>image/svg+xml</dc:format>
        <dc:type
           rdf:resource="http://purl.org/dc/dcmitype/StillImage" />
        <dc:title></dc:title>
      </cc:Work>
    </rdf:RDF>
  </metadata>
  <defs
     id="defs6" />
  <sodipodi:namedview
     inkscape:current-layer="g10"
     inkscape:window-maximized="0"
     inkscape:window-y="0"
     inkscape:window-x="804"
     inkscape:cy="7.5"
     inkscape:cx="7.5"
     inkscape:zoom="70.2"
     showgrid="true"
     id="namedview4"
     inkscape:window-height="1372"
     inkscape:window-width="1756"
     inkscape:pageshadow="2"
     inkscape:pageopacity="0"
     guidetolerance="10"
     gridtolerance="10"
     objecttolerance="10"
     borderopacity="1"
     bordercolor="#666666"
     pagecolor="#404040"
     inkscape:document-rotation="0"
     inkscape:snap-bbox="true"
     inkscape:bbox-nodes="true"
     inkscape:bbox-paths="true">
    <inkscape:grid
       spacingy="0.5"
       spacingx="0.5"
       id="grid837"
       type="xygrid"
       empspacing="4" />
  </sodipodi:namedview>
  <g
     id="g10"
     inkscape:label="Image"
     inkscape:groupmode="layer">
    <path
       id="path4239"
       style="opacity:1;fill:#ffffff;fill-opacity:1;stroke:none;stroke-width:1.26261;stroke-linecap:round;stroke-linejoin:round;stroke-miterlimit:4;stroke-dasharray:none;stroke-opacity:1"
       inkscape:transform-center-x="-1.5850232"
       inkscape:transform-center-y="0.4157121"
       d="M 5.8398438 3.1445312 A 3.9456592 3.9456592 0 0 0 2.5292969 5.1152344 A 3.9456592 3.9456592 0 0 0 3.9726562 10.505859 A 3.9456592 3.9456592 0 0 0 8.2304688 10.306641 L 10.533203 11.636719 A 1.6440247 1.6440247 0 0 0 12.779297 11.035156 A 1.6440247 1.6440247 0 0 0 12.177734 8.7890625 L 9.8730469 7.4589844 A 3.9456592 3.9456592 0 0 0 9.890625 7.109375 L 8.5957031 8.4042969 A 2.9592445 2.9592445 0 0 1 8.5078125 8.5683594 A 2.9592445 2.9592445 0 0 1 4.4667969 9.6523438 A 2.9592445 2.9592445 0 0 1 3.3828125 5.609375 A 2.9592445 2.9592445 0 0 1 6.7578125 4.2421875 L 7.5253906 3.4746094 A 3.9456592 3.9456592 0 0 0 5.8398438 3.1445312 z " />
    <path
       id="path1512"
       style="fill:#ffffff;fill-opacity:1;stroke-width:4;stroke-linecap:round;stroke-linejoin:round"
       d="M 10.5 1.5 L 5.5 6.5 L 5.5 8.5 L 7.5 8.5 L 12.5 3.5 L 10.5 1.5 z M 10.5 2.5 L 11.5 3.5 L 7.5 7.5 L 6.5 6.5 L 10.5 2.5 z " />
  </g>
</svg>
