<?xml version="1.0" encoding="UTF-8" standalone="no"?>
<svg
   xmlns:dc="http://purl.org/dc/elements/1.1/"
   xmlns:cc="http://creativecommons.org/ns#"
   xmlns:rdf="http://www.w3.org/1999/02/22-rdf-syntax-ns#"
   xmlns:svg="http://www.w3.org/2000/svg"
   xmlns="http://www.w3.org/2000/svg"
   xmlns:sodipodi="http://sodipodi.sourceforge.net/DTD/sodipodi-0.dtd"
   xmlns:inkscape="http://www.inkscape.org/namespaces/inkscape"
   inkscape:export-ydpi="96"
   inkscape:export-xdpi="96"
   inkscape:export-filename="/home/raster/C/th-efl/th/img/ic/search-015.png"
   inkscape:version="1.0.1 (3bc2e813f5, 2020-09-07)"
   sodipodi:docname="search.svg"
   viewBox="0 0 15 15"
   height="15"
   width="15"
   id="svg2"
   version="1.1">
  <metadata
     id="metadata8">
    <rdf:RDF>
      <cc:Work
         rdf:about="">
        <dc:format>image/svg+xml</dc:format>
        <dc:type
           rdf:resource="http://purl.org/dc/dcmitype/StillImage" />
        <dc:title></dc:title>
      </cc:Work>
    </rdf:RDF>
  </metadata>
  <defs
     id="defs6" />
  <sodipodi:namedview
     inkscape:current-layer="g10"
     inkscape:window-maximized="0"
     inkscape:window-y="0"
     inkscape:window-x="804"
     inkscape:cy="7.485755"
     inkscape:cx="7.5"
     inkscape:zoom="70.2"
     showgrid="true"
     id="namedview4"
     inkscape:window-height="1372"
     inkscape:window-width="1756"
     inkscape:pageshadow="2"
     inkscape:pageopacity="0"
     guidetolerance="10"
     gridtolerance="10"
     objecttolerance="10"
     borderopacity="1"
     bordercolor="#666666"
     pagecolor="#404040"
     inkscape:document-rotation="0"
     inkscape:snap-bbox="true"
     inkscape:bbox-nodes="true"
     inkscape:bbox-paths="true">
    <inkscape:grid
       spacingy="0.5"
       spacingx="0.5"
       id="grid837"
       type="xygrid"
       empspacing="4" />
  </sodipodi:namedview>
  <g
     id="g10"
     inkscape:label="Image"
     inkscape:groupmode="layer">
    <path
       id="path1488"
       style="fill:#de4422;stroke-width:3.76935;stroke-linecap:round;stroke-linejoin:round"
       d="M 5.8242188 1.5 A 5.4184313 5.4184313 0 0 0 0.5 6.9179688 A 5.4184313 5.4184313 0 0 0 5.9179688 12.335938 A 5.4184313 5.4184313 0 0 0 11.335938 6.9179688 A 5.4184313 5.4184313 0 0 0 5.9179688 1.5 A 5.4184313 5.4184313 0 0 0 5.8242188 1.5 z M 5.8417969 2.2363281 A 4.6823611 4.6823611 0 0 1 5.9179688 2.2363281 A 4.6823611 4.6823611 0 0 1 10.601562 6.9179688 A 4.6823611 4.6823611 0 0 1 5.9179688 11.601562 A 4.6823611 4.6823611 0 0 1 1.2363281 6.9179688 A 4.6823611 4.6823611 0 0 1 5.8417969 2.2363281 z " />
    <path
       inkscape:transform-center-y="0.4157121"
       inkscape:transform-center-x="-1.5850232"
       d="M 7.918489,3.5286181 A 3.9456592,3.9456592 0 0 0 2.5286183,4.9728296 3.9456592,3.9456592 0 0 0 3.9728299,10.362701 3.9456592,3.9456592 0 0 0 8.2297952,10.162762 l 2.3041668,1.330312 a 1.6440247,1.6440247 0 0 0 2.24578,-0.601755 1.6440247,1.6440247 0 0 0 -0.601755,-2.24578 L 9.8738204,7.3152277 A 3.9456592,3.9456592 0 0 0 7.918489,3.5286181 Z m -0.495998,0.852649 a 2.9592445,2.9592445 0 0 1 0.00279,0.00162 2.9592445,2.9592445 0 0 1 1.0831636,4.042394 A 2.9592445,2.9592445 0 0 1 4.4660412,9.5084401 2.9592445,2.9592445 0 0 1 3.3828825,5.4660367 2.9592445,2.9592445 0 0 1 7.4225051,4.3812743 Z"
       style="opacity:1;fill:#ffffff;fill-opacity:1;stroke:none;stroke-width:1.26261;stroke-linecap:round;stroke-linejoin:round;stroke-miterlimit:4;stroke-dasharray:none;stroke-opacity:1"
       id="path4239" />
    <rect
       style="fill:#deba22;fill-opacity:1;stroke-width:4;stroke-linecap:round;stroke-linejoin:round"
       id="rect1499"
       width="6"
       height="7"
       x="0"
       y="0" />
  </g>
</svg>
