<?xml version="1.0" encoding="UTF-8" standalone="no"?>
<svg
   xmlns:dc="http://purl.org/dc/elements/1.1/"
   xmlns:cc="http://creativecommons.org/ns#"
   xmlns:rdf="http://www.w3.org/1999/02/22-rdf-syntax-ns#"
   xmlns:svg="http://www.w3.org/2000/svg"
   xmlns="http://www.w3.org/2000/svg"
   xmlns:sodipodi="http://sodipodi.sourceforge.net/DTD/sodipodi-0.dtd"
   xmlns:inkscape="http://www.inkscape.org/namespaces/inkscape"
   inkscape:export-ydpi="96"
   inkscape:export-xdpi="96"
   inkscape:export-filename="/home/raster/C/th-efl/th/img/ic/search-015.png"
   inkscape:version="1.0.1 (3bc2e813f5, 2020-09-07)"
   sodipodi:docname="search.svg"
   viewBox="0 0 15 15"
   height="15"
   width="15"
   id="svg2"
   version="1.1">
  <metadata
     id="metadata8">
    <rdf:RDF>
      <cc:Work
         rdf:about="">
        <dc:format>image/svg+xml</dc:format>
        <dc:type
           rdf:resource="http://purl.org/dc/dcmitype/StillImage" />
        <dc:title></dc:title>
      </cc:Work>
    </rdf:RDF>
  </metadata>
  <defs
     id="defs6" />
  <sodipodi:namedview
     inkscape:current-layer="g10"
     inkscape:window-maximized="1"
     inkscape:window-y="0"
     inkscape:window-x="0"
     inkscape:cy="7.5089713"
     inkscape:cx="7.5"
     inkscape:zoom="55.733333"
     showgrid="true"
     id="namedview4"
     inkscape:window-height="1017"
     inkscape:window-width="1920"
     inkscape:pageshadow="2"
     inkscape:pageopacity="0"
     guidetolerance="10"
     gridtolerance="10"
     objecttolerance="10"
     borderopacity="1"
     bordercolor="#666666"
     pagecolor="#404040"
     inkscape:document-rotation="0"
     inkscape:snap-bbox="true"
     inkscape:bbox-nodes="true"
     inkscape:bbox-paths="true">
    <inkscape:grid
       spacingy="0.5"
       spacingx="0.5"
       id="grid837"
       type="xygrid" />
  </sodipodi:namedview>
  <g
     id="g10"
     inkscape:label="Image"
     inkscape:groupmode="layer">
    <path
       inkscape:transform-center-y="0.4157121"
       inkscape:transform-center-x="-1.5850232"
       d="M 7.9184893,3.6719522 A 3.9456592,3.9456592 0 0 0 2.5286186,5.1161637 3.9456592,3.9456592 0 0 0 3.9728302,10.506035 3.9456592,3.9456592 0 0 0 8.2297955,10.306096 l 2.3041665,1.330312 a 1.6440247,1.6440247 0 0 0 2.24578,-0.601755 1.6440247,1.6440247 0 0 0 -0.601755,-2.2457799 L 9.8738207,7.4585618 A 3.9456592,3.9456592 0 0 0 7.9184893,3.6719522 Z m -0.495998,0.852649 a 2.9592445,2.9592445 0 0 1 0.00279,0.00162 2.9592445,2.9592445 0 0 1 1.0831636,4.042394 A 2.9592445,2.9592445 0 0 1 4.4660415,9.6517742 2.9592445,2.9592445 0 0 1 3.3828828,5.6093708 2.9592445,2.9592445 0 0 1 7.4225054,4.5246084 Z"
       style="opacity:1;fill:#ffffff;fill-opacity:1;stroke:none;stroke-width:1.26261;stroke-linecap:round;stroke-linejoin:round;stroke-miterlimit:4;stroke-dasharray:none;stroke-opacity:1"
       id="path4239" />
  </g>
</svg>
