<?xml version="1.0" encoding="UTF-8" standalone="no"?>
<svg
   xmlns:dc="http://purl.org/dc/elements/1.1/"
   xmlns:cc="http://creativecommons.org/ns#"
   xmlns:rdf="http://www.w3.org/1999/02/22-rdf-syntax-ns#"
   xmlns:svg="http://www.w3.org/2000/svg"
   xmlns="http://www.w3.org/2000/svg"
   xmlns:sodipodi="http://sodipodi.sourceforge.net/DTD/sodipodi-0.dtd"
   xmlns:inkscape="http://www.inkscape.org/namespaces/inkscape"
   version="1.1"
   id="svg2"
   width="15"
   height="15"
   viewBox="0 0 15 15"
   sodipodi:docname="select-all.svg"
   inkscape:version="1.0 (4035a4fb49, 2020-05-01)"
   inkscape:export-filename="/home/raster/C/th-efl/th/img/ic/select-all-015.png"
   inkscape:export-xdpi="96"
   inkscape:export-ydpi="96">
  <metadata
     id="metadata8">
    <rdf:RDF>
      <cc:Work
         rdf:about="">
        <dc:format>image/svg+xml</dc:format>
        <dc:type
           rdf:resource="http://purl.org/dc/dcmitype/StillImage" />
        <dc:title></dc:title>
      </cc:Work>
    </rdf:RDF>
  </metadata>
  <defs
     id="defs6" />
  <sodipodi:namedview
     inkscape:document-rotation="0"
     pagecolor="#404040"
     bordercolor="#666666"
     borderopacity="1"
     objecttolerance="10"
     gridtolerance="10"
     guidetolerance="10"
     inkscape:pageopacity="0"
     inkscape:pageshadow="2"
     inkscape:window-width="1920"
     inkscape:window-height="1017"
     id="namedview4"
     showgrid="true"
     inkscape:zoom="55.733333"
     inkscape:cx="7.5"
     inkscape:cy="7.5089713"
     inkscape:window-x="0"
     inkscape:window-y="0"
     inkscape:window-maximized="1"
     inkscape:current-layer="g10"
     inkscape:snap-bbox="true"
     inkscape:bbox-paths="false"
     inkscape:bbox-nodes="true"
     inkscape:snap-bbox-edge-midpoints="false"
     inkscape:object-paths="true"
     inkscape:snap-intersection-paths="true"
     inkscape:snap-smooth-nodes="true">
    <inkscape:grid
       type="xygrid"
       id="grid837"
       spacingx="0.5"
       spacingy="0.5" />
  </sodipodi:namedview>
  <g
     inkscape:groupmode="layer"
     inkscape:label="Image"
     id="g10">
    <path
       d="M 2 2 L 2 4 L 4 4 L 4 2 L 2 2 z M 5 2 L 5 4 L 13 4 L 13 2 L 5 2 z "
       style="fill:#ffffff;fill-opacity:1;stroke:none;stroke-width:0.895831;stroke-linecap:round;stroke-linejoin:round;stroke-opacity:0.2"
       id="rect1034" />
    <path
       d="M 2 5 L 2 7 L 4 7 L 4 5 L 2 5 z M 5 5 L 5 7 L 13 7 L 13 5 L 5 5 z "
       style="fill:#ffffff;fill-opacity:1;stroke:none;stroke-width:0.895831;stroke-linecap:round;stroke-linejoin:round;stroke-opacity:0.2"
       id="rect1036" />
    <path
       d="M 2 8 L 2 10 L 4 10 L 4 8 L 2 8 z M 5 8 L 5 10 L 13 10 L 13 8 L 5 8 z "
       style="fill:#ffffff;fill-opacity:1;stroke:none;stroke-width:0.895831;stroke-linecap:round;stroke-linejoin:round;stroke-opacity:0.2"
       id="rect1038" />
    <path
       d="M 2 11 L 2 13 L 4 13 L 4 11 L 2 11 z M 5 11 L 5 13 L 13 13 L 13 11 L 5 11 z "
       style="fill:#ffffff;fill-opacity:1;stroke:none;stroke-width:0.895831;stroke-linecap:round;stroke-linejoin:round;stroke-opacity:0.2"
       id="rect1040" />
  </g>
</svg>
