<?xml version="1.0" encoding="UTF-8" standalone="no"?>
<svg
   xmlns:dc="http://purl.org/dc/elements/1.1/"
   xmlns:cc="http://creativecommons.org/ns#"
   xmlns:rdf="http://www.w3.org/1999/02/22-rdf-syntax-ns#"
   xmlns:svg="http://www.w3.org/2000/svg"
   xmlns="http://www.w3.org/2000/svg"
   xmlns:sodipodi="http://sodipodi.sourceforge.net/DTD/sodipodi-0.dtd"
   xmlns:inkscape="http://www.inkscape.org/namespaces/inkscape"
   version="1.1"
   id="svg2"
   width="80"
   height="80"
   viewBox="0 0 80 80"
   sodipodi:docname="sound.svg"
   inkscape:version="1.0.1 (3bc2e813f5, 2020-09-07)"
   inkscape:export-filename="/home/raster/C/th-efl/th/img/ic/sound-040.png"
   inkscape:export-xdpi="48"
   inkscape:export-ydpi="48">
  <metadata
     id="metadata8">
    <rdf:RDF>
      <cc:Work
         rdf:about="">
        <dc:format>image/svg+xml</dc:format>
        <dc:type
           rdf:resource="http://purl.org/dc/dcmitype/StillImage" />
        <dc:title></dc:title>
      </cc:Work>
    </rdf:RDF>
  </metadata>
  <defs
     id="defs6">
    <rect
       id="rect1822"
       height="22.426638"
       width="47.970909"
       y="8"
       x="16" />
    <rect
       x="20"
       y="20"
       width="40"
       height="30"
       id="rect878" />
    <rect
       x="20"
       y="50"
       width="40"
       height="30"
       id="rect872" />
    <rect
       x="20"
       y="20"
       width="40"
       height="30"
       id="rect864" />
    <rect
       x="20"
       y="20"
       width="40"
       height="30"
       id="rect858" />
    <rect
       x="20"
       y="20"
       width="40"
       height="30"
       id="rect852" />
  </defs>
  <sodipodi:namedview
     inkscape:showpageshadow="false"
     inkscape:document-rotation="0"
     pagecolor="#404040"
     bordercolor="#ff66ac"
     borderopacity="1"
     objecttolerance="10"
     gridtolerance="10"
     guidetolerance="10"
     inkscape:pageopacity="0"
     inkscape:pageshadow="2"
     inkscape:window-width="1756"
     inkscape:window-height="1372"
     id="namedview4"
     showgrid="true"
     inkscape:zoom="13.05"
     inkscape:cx="40"
     inkscape:cy="40"
     inkscape:window-x="804"
     inkscape:window-y="0"
     inkscape:window-maximized="0"
     inkscape:current-layer="g10"
     showguides="false"
     inkscape:snap-bbox="true"
     inkscape:bbox-nodes="true"
     inkscape:snap-others="false"
     inkscape:snap-nodes="true"
     borderlayer="true">
    <inkscape:grid
       type="xygrid"
       id="grid837"
       empspacing="4" />
  </sodipodi:namedview>
  <g
     inkscape:groupmode="layer"
     inkscape:label="Image"
     id="g10">
    <circle
       r="26"
       cy="40"
       cx="40"
       id="path4138"
       style="opacity:1;fill:#202020;fill-opacity:1;stroke:none;stroke-width:0.180555;stroke-linecap:round;stroke-linejoin:round;stroke-miterlimit:4;stroke-dasharray:none;stroke-opacity:1" />
    <circle
       r="10"
       cy="40"
       cx="40"
       id="path4207"
       style="opacity:1;fill:#303030;fill-opacity:1;stroke:none;stroke-width:0.208333;stroke-linecap:round;stroke-linejoin:round;stroke-miterlimit:4;stroke-dasharray:none;stroke-opacity:1" />
    <path
       id="path4228"
       d="M 40.000001,10 A 30.000001,30.000001 0 0 0 10,39.999999 30.000001,30.000001 0 0 0 40.000001,70 30.000001,30.000001 0 0 0 69.999999,39.999999 30.000001,30.000001 0 0 0 40.000001,10 Z m 0,6.666666 A 23.333334,23.333332 0 0 1 63.333334,39.999999 23.333334,23.333332 0 0 1 40.000001,63.333333 23.333334,23.333332 0 0 1 16.666667,39.999999 23.333334,23.333332 0 0 1 40.000001,16.666666 Z"
       style="opacity:1;fill:#303030;fill-opacity:1;stroke:none;stroke-width:0.208333;stroke-linecap:round;stroke-linejoin:round;stroke-miterlimit:4;stroke-dasharray:none;stroke-opacity:1" />
    <path
       id="path1740"
       style="fill:#3399ff;fill-opacity:0.2;stroke:none;stroke-width:8"
       d="M 15.958984 15.958984 A 34 34 0 0 0 6 40 A 34 34 0 0 0 15.958984 64.041016 L 17.373047 62.626953 A 32 32 0 0 1 8 40 A 32 32 0 0 1 17.373047 17.373047 L 15.958984 15.958984 z M 64.041016 15.958984 L 62.626953 17.373047 A 32 32 0 0 1 72 40 A 32 32 0 0 1 62.626953 62.626953 L 64.041016 64.041016 A 34 34 0 0 0 74 40 A 34 34 0 0 0 64.041016 15.958984 z " />
    <path
       id="path1745"
       style="fill:#3399ff;fill-opacity:0.1;stroke:none;stroke-width:8"
       d="M 13.130859 13.130859 A 38 38 0 0 0 2 40 A 38 38 0 0 0 13.130859 66.869141 L 14.544922 65.455078 A 36 36 0 0 1 4 40 A 36 36 0 0 1 14.544922 14.544922 L 13.130859 13.130859 z M 66.869141 13.130859 L 65.455078 14.544922 A 36 36 0 0 1 76 40 A 36 36 0 0 1 65.455078 65.455078 L 66.869141 66.869141 A 38 38 0 0 0 78 40 A 38 38 0 0 0 66.869141 13.130859 z " />
    <path
       id="path1758"
       style="fill:#3399ff;fill-opacity:0.40000001;stroke:none;stroke-width:8"
       d="M 18.787109 18.787109 A 30 30 0 0 0 10 40 A 30 30 0 0 0 18.787109 61.212891 L 20.201172 59.798828 A 28 28 0 0 1 12 40 A 28 28 0 0 1 20.201172 20.201172 L 18.787109 18.787109 z M 61.212891 18.787109 L 59.798828 20.201172 A 28 28 0 0 1 68 40 A 28 28 0 0 1 59.798828 59.798828 L 61.212891 61.212891 A 30 30 0 0 0 70 40 A 30 30 0 0 0 61.212891 18.787109 z " />
    <path
       id="path1765"
       style="fill:#3399ff;fill-opacity:0.60000002;stroke:none;stroke-width:8"
       d="M 21.615234 21.615234 A 26 26 0 0 0 14 40 A 26 26 0 0 0 21.615234 58.384766 L 23.001953 56.998047 A 24.041016 24.041016 0 0 1 15.958984 40 A 24.041016 24.041016 0 0 1 23.001953 23.001953 L 21.615234 21.615234 z M 58.384766 21.615234 L 56.998047 23.001953 A 24.041016 24.041016 0 0 1 64.041016 40 A 24.041016 24.041016 0 0 1 56.998047 56.998047 L 58.384766 58.384766 A 26 26 0 0 0 66 40 A 26 26 0 0 0 58.384766 21.615234 z " />
    <path
       id="path1772"
       style="fill:#3399ff;fill-opacity:0.80000001;stroke:none;stroke-width:8"
       d="M 24.445312 24.445312 A 22 22 0 0 0 18 40 A 22 22 0 0 0 24.445312 55.554688 L 25.859375 54.140625 A 20 20 0 0 1 20 40 A 20 20 0 0 1 25.859375 25.859375 L 24.445312 24.445312 z M 55.554688 24.445312 L 54.140625 25.859375 A 20 20 0 0 1 60 40 A 20 20 0 0 1 54.140625 54.140625 L 55.554688 55.554688 A 22 22 0 0 0 62 40 A 22 22 0 0 0 55.554688 24.445312 z " />
    <path
       id="path1779"
       style="fill:#3399ff;fill-opacity:1;stroke:none;stroke-width:8"
       d="M 27.273438 27.273438 A 18 18 0 0 0 22 40 A 18 18 0 0 0 27.273438 52.726562 L 28.6875 51.3125 A 16 16 0 0 1 24 40 A 16 16 0 0 1 28.6875 28.6875 L 27.273438 27.273438 z M 52.726562 27.273438 L 51.3125 28.6875 A 16 16 0 0 1 56 40 A 16 16 0 0 1 51.3125 51.3125 L 52.726562 52.726562 A 18 18 0 0 0 58 40 A 18 18 0 0 0 52.726562 27.273438 z " />
  </g>
</svg>
