<?xml version="1.0" encoding="UTF-8" standalone="no"?>
<svg
   xmlns:dc="http://purl.org/dc/elements/1.1/"
   xmlns:cc="http://creativecommons.org/ns#"
   xmlns:rdf="http://www.w3.org/1999/02/22-rdf-syntax-ns#"
   xmlns:svg="http://www.w3.org/2000/svg"
   xmlns="http://www.w3.org/2000/svg"
   xmlns:sodipodi="http://sodipodi.sourceforge.net/DTD/sodipodi-0.dtd"
   xmlns:inkscape="http://www.inkscape.org/namespaces/inkscape"
   version="1.1"
   id="svg2"
   width="80"
   height="80"
   viewBox="0 0 80 80"
   sodipodi:docname="speaker-volume.svg"
   inkscape:version="1.0.1 (3bc2e813f5, 2020-09-07)"
   inkscape:export-filename="/home/raster/C/th-efl/th/img/ic/speaker-volume-040.png"
   inkscape:export-xdpi="48"
   inkscape:export-ydpi="48">
  <metadata
     id="metadata8">
    <rdf:RDF>
      <cc:Work
         rdf:about="">
        <dc:format>image/svg+xml</dc:format>
        <dc:type
           rdf:resource="http://purl.org/dc/dcmitype/StillImage" />
        <dc:title></dc:title>
      </cc:Work>
    </rdf:RDF>
  </metadata>
  <defs
     id="defs6">
    <rect
       x="20"
       y="20"
       width="40"
       height="30"
       id="rect878" />
    <rect
       x="20"
       y="50"
       width="40"
       height="30"
       id="rect872" />
    <rect
       x="20"
       y="20"
       width="40"
       height="30"
       id="rect864" />
    <rect
       x="20"
       y="20"
       width="40"
       height="30"
       id="rect858" />
    <rect
       x="20"
       y="20"
       width="40"
       height="30"
       id="rect852" />
  </defs>
  <sodipodi:namedview
     inkscape:document-rotation="0"
     pagecolor="#404040"
     bordercolor="#666666"
     borderopacity="1"
     objecttolerance="10"
     gridtolerance="10"
     guidetolerance="10"
     inkscape:pageopacity="0"
     inkscape:pageshadow="2"
     inkscape:window-width="1756"
     inkscape:window-height="1372"
     id="namedview4"
     showgrid="true"
     inkscape:zoom="13.1625"
     inkscape:cx="39.90221"
     inkscape:cy="40.075973"
     inkscape:window-x="804"
     inkscape:window-y="0"
     inkscape:window-maximized="0"
     inkscape:current-layer="g10"
     showguides="false"
     inkscape:snap-bbox="true"
     inkscape:bbox-nodes="true"
     inkscape:snap-others="false"
     inkscape:snap-nodes="true"
     borderlayer="true">
    <inkscape:grid
       type="xygrid"
       id="grid837"
       empspacing="4" />
  </sodipodi:namedview>
  <g
     inkscape:groupmode="layer"
     inkscape:label="Image"
     id="g10">
    <circle
       r="26"
       cy="40"
       cx="40"
       id="path4138"
       style="opacity:1;fill:#202020;fill-opacity:1;stroke:none;stroke-width:0.180555;stroke-linecap:round;stroke-linejoin:round;stroke-miterlimit:4;stroke-dasharray:none;stroke-opacity:1" />
    <circle
       r="10"
       cy="40"
       cx="40"
       id="path4207"
       style="opacity:1;fill:#303030;fill-opacity:1;stroke:none;stroke-width:0.208333;stroke-linecap:round;stroke-linejoin:round;stroke-miterlimit:4;stroke-dasharray:none;stroke-opacity:1" />
    <path
       id="path4228"
       d="M 40.000001,10 A 30.000001,30.000001 0 0 0 10,39.999999 30.000001,30.000001 0 0 0 40.000001,70 30.000001,30.000001 0 0 0 69.999999,39.999999 30.000001,30.000001 0 0 0 40.000001,10 Z m 0,6.666666 A 23.333334,23.333332 0 0 1 63.333334,39.999999 23.333334,23.333332 0 0 1 40.000001,63.333333 23.333334,23.333332 0 0 1 16.666667,39.999999 23.333334,23.333332 0 0 1 40.000001,16.666666 Z"
       style="opacity:1;fill:#303030;fill-opacity:1;stroke:none;stroke-width:0.208333;stroke-linecap:round;stroke-linejoin:round;stroke-miterlimit:4;stroke-dasharray:none;stroke-opacity:1" />
    <path
       id="path16028"
       style="opacity:1;fill:#3399ff;fill-opacity:0.5;stroke:none;stroke-width:0.208333;stroke-linecap:round;stroke-linejoin:round;stroke-miterlimit:4;stroke-dasharray:none;stroke-opacity:1"
       d="M 18.787109 18.787109 A 30.000001 30.000001 0 0 0 10 40 A 30.000001 30.000001 0 0 0 40 70 A 30.000001 30.000001 0 0 0 70 40 A 30.000001 30.000001 0 0 0 61.212891 18.787109 L 56.498047 23.501953 A 23.333334 23.333332 0 0 1 63.333984 40 A 23.333334 23.333332 0 0 1 40 63.333984 A 23.333334 23.333332 0 0 1 16.666016 40 A 23.333334 23.333332 0 0 1 23.501953 23.501953 L 18.787109 18.787109 z " />
    <path
       id="path16030"
       style="fill:#3399ff;fill-opacity:1;stroke-width:4;stroke-linecap:round;stroke-linejoin:round;stroke-opacity:0.2"
       d="M 23.5 56.5 L 18.787109 61.212891 A 30.000001 30.000001 0 0 0 40 70 A 30.000001 30.000001 0 0 0 61.212891 61.212891 L 56.5 56.5 A 23.333334 23.333332 0 0 1 40 63.333984 A 23.333334 23.333332 0 0 1 23.5 56.5 z " />
  </g>
</svg>
