<?xml version="1.0" encoding="UTF-8" standalone="no"?>
<svg
   xmlns:dc="http://purl.org/dc/elements/1.1/"
   xmlns:cc="http://creativecommons.org/ns#"
   xmlns:rdf="http://www.w3.org/1999/02/22-rdf-syntax-ns#"
   xmlns:svg="http://www.w3.org/2000/svg"
   xmlns="http://www.w3.org/2000/svg"
   xmlns:sodipodi="http://sodipodi.sourceforge.net/DTD/sodipodi-0.dtd"
   xmlns:inkscape="http://www.inkscape.org/namespaces/inkscape"
   version="1.1"
   id="svg2"
   width="80"
   height="80"
   viewBox="0 0 80 80"
   sodipodi:docname="sun.svg"
   inkscape:version="1.0.1 (3bc2e813f5, 2020-09-07)"
   inkscape:export-filename="/home/raster/C/th-efl/th/img/ic/sun-040.png"
   inkscape:export-xdpi="48"
   inkscape:export-ydpi="48">
  <metadata
     id="metadata8">
    <rdf:RDF>
      <cc:Work
         rdf:about="">
        <dc:format>image/svg+xml</dc:format>
        <dc:type
           rdf:resource="http://purl.org/dc/dcmitype/StillImage" />
        <dc:title></dc:title>
      </cc:Work>
    </rdf:RDF>
  </metadata>
  <defs
     id="defs6">
    <mask
       maskUnits="userSpaceOnUse"
       id="mask947">
      <rect
         style="opacity:1;fill:#a0a0a0;fill-opacity:1;stroke-width:3.96122;stroke-linecap:round;stroke-linejoin:round"
         id="rect949"
         width="60"
         height="40"
         x="10"
         y="5" />
    </mask>
    <mask
       id="mask3567"
       maskUnits="userSpaceOnUse">
      <path
         style="fill:#ffffff;fill-opacity:1;fill-rule:evenodd;stroke:none;stroke-width:1px;stroke-linecap:butt;stroke-linejoin:miter;stroke-opacity:1"
         d="M 40,10 C 19,10 20,17.832395 20,30 20,42.167605 19,70 40,70 61,70 60,42.167605 60,30 60,17.832395 61,10 40,10 Z"
         id="path3569"
         sodipodi:nodetypes="zzzzz" />
    </mask>
    <clipPath
       id="clipPath922"
       clipPathUnits="userSpaceOnUse">
      <path
         sodipodi:nodetypes="ccccccc"
         inkscape:connector-curvature="0"
         id="path924"
         d="m 1.3229166,295.4125 h 7.9375003 v -6.08542 c 0,-0.52917 0,-0.52917 -0.529167,-0.52917 H 1.8520833 c -0.5291666,0 -0.5291666,0 -0.5291667,0.52917 z"
         style="fill:#ffffff;fill-opacity:1;fill-rule:evenodd;stroke:none;stroke-width:0.264583px;stroke-linecap:butt;stroke-linejoin:miter;stroke-opacity:1" />
    </clipPath>
    <clipPath
       id="clipPath922-6"
       clipPathUnits="userSpaceOnUse">
      <path
         sodipodi:nodetypes="ccccccc"
         inkscape:connector-curvature="0"
         id="path924-7"
         d="m 1.3229166,295.4125 h 7.9375003 v -6.08542 c 0,-0.52917 0,-0.52917 -0.529167,-0.52917 H 1.8520833 c -0.5291666,0 -0.5291666,0 -0.5291667,0.52917 z"
         style="fill:#ffffff;fill-opacity:1;fill-rule:evenodd;stroke:none;stroke-width:0.264583px;stroke-linecap:butt;stroke-linejoin:miter;stroke-opacity:1" />
    </clipPath>
    <clipPath
       clipPathUnits="userSpaceOnUse"
       id="clipPath876">
      <path
         inkscape:connector-curvature="0"
         style="opacity:1;fill:#ffffff;fill-opacity:1;stroke:none;stroke-width:1;stroke-linecap:round;stroke-linejoin:round;stroke-miterlimit:4;stroke-dasharray:none;stroke-opacity:1"
         d="m 5.2916667,287.73958 a 3.96875,3.96875 0 0 0 -3.9687501,3.96875 3.96875,3.96875 0 0 0 3.9687501,3.96875 3.96875,3.96875 0 0 0 3.96875,-3.96875 3.96875,3.96875 0 0 0 -3.96875,-3.96875 z m 0,2.38125 a 1.5875001,1.5875044 0 0 1 1.5875,1.5875 1.5875001,1.5875044 0 0 1 -1.5875,1.5875 1.5875001,1.5875044 0 0 1 -1.5875,-1.5875 1.5875001,1.5875044 0 0 1 1.5875,-1.5875 z"
         id="path878" />
    </clipPath>
  </defs>
  <sodipodi:namedview
     inkscape:document-rotation="0"
     pagecolor="#404040"
     bordercolor="#666666"
     borderopacity="1"
     objecttolerance="10"
     gridtolerance="10"
     guidetolerance="10"
     inkscape:pageopacity="0"
     inkscape:pageshadow="2"
     inkscape:window-width="1756"
     inkscape:window-height="1372"
     id="namedview4"
     showgrid="true"
     inkscape:zoom="13.1625"
     inkscape:cx="40"
     inkscape:cy="40"
     inkscape:window-x="804"
     inkscape:window-y="0"
     inkscape:window-maximized="0"
     inkscape:current-layer="g10"
     showguides="false"
     inkscape:snap-bbox="true"
     inkscape:bbox-nodes="true"
     inkscape:snap-others="true"
     inkscape:snap-nodes="true"
     inkscape:bbox-paths="true"
     inkscape:object-paths="true"
     inkscape:snap-intersection-paths="true"
     inkscape:snap-smooth-nodes="true"
     inkscape:snap-midpoints="true">
    <inkscape:grid
       type="xygrid"
       id="grid837"
       empspacing="4"
       enabled="true"
       snapvisiblegridlinesonly="false" />
  </sodipodi:namedview>
  <g
     inkscape:groupmode="layer"
     inkscape:label="Image"
     id="g10">
    <circle
       style="fill:#e2db95;fill-opacity:1;stroke-width:5;stroke-linecap:round;stroke-linejoin:round"
       id="path889"
       cx="40"
       cy="40"
       r="20" />
    <path
       id="path895"
       style="fill:#e2dd97;fill-opacity:1;stroke-width:2;stroke-linecap:round;stroke-linejoin:round"
       d="m 40,8 -3.074219,8.197266 A 24,24 0 0 1 40,16 a 24,24 0 0 1 3.074219,0.199219 z"
       inkscape:transform-center-x="0.025513043"
       inkscape:transform-center-y="-27.880818" />
    <path
       id="path901"
       style="fill:#e2dd97;fill-opacity:1;stroke-width:2;stroke-linecap:round;stroke-linejoin:round"
       d="m 55.993632,12.271808 -6.760985,5.561931 a 24,24 0 0 1 2.760985,1.366273 24,24 0 0 1 2.562742,1.709638 z"
       inkscape:transform-center-x="-12.587626"
       inkscape:transform-center-y="-23.389699" />
    <path
       id="path903"
       style="fill:#e2dd97;fill-opacity:1;stroke-width:2;stroke-linecap:round;stroke-linejoin:round"
       d="m 67.708619,23.968119 -8.63615,1.436281 a 24,24 0 0 1 1.707947,2.563719 24,24 0 0 1 1.364581,2.761961 z"
       inkscape:transform-center-x="-23.365031"
       inkscape:transform-center-y="-12.631328" />
    <path
       id="path928"
       style="fill:#e2dd97;fill-opacity:1;stroke-width:2;stroke-linecap:round;stroke-linejoin:round"
       d="m 72.005941,39.954914 -8.197266,-3.074219 a 24,24 0 0 1 0.197266,3.074219 24,24 0 0 1 -0.199219,3.074219 z"
       inkscape:transform-center-x="-27.880818"
       inkscape:transform-center-y="-0.0255135" />
    <path
       id="path930"
       style="fill:#e2dd97;fill-opacity:1;stroke-width:2;stroke-linecap:round;stroke-linejoin:round"
       d="m 67.734133,55.948546 -5.561931,-6.760985 a 24,24 0 0 1 -1.366273,2.760985 24,24 0 0 1 -1.709638,2.562742 z"
       inkscape:transform-center-x="-23.389699"
       inkscape:transform-center-y="12.587626" />
    <path
       id="path932"
       style="fill:#e2dd97;fill-opacity:1;stroke-width:2;stroke-linecap:round;stroke-linejoin:round"
       d="m 56.037822,67.663533 -1.436281,-8.63615 a 24,24 0 0 1 -2.563719,1.707947 24,24 0 0 1 -2.761961,1.364581 z"
       inkscape:transform-center-x="-12.631328"
       inkscape:transform-center-y="23.365031" />
    <path
       id="path934"
       style="fill:#e2dd97;fill-opacity:1;stroke-width:2;stroke-linecap:round;stroke-linejoin:round"
       d="m 40.051026,71.960855 3.074219,-8.197266 a 24,24 0 0 1 -3.074219,0.197266 24,24 0 0 1 -3.074219,-0.199219 z"
       inkscape:transform-center-x="-0.025512957"
       inkscape:transform-center-y="27.880818" />
    <path
       id="path936"
       style="fill:#e2dd97;fill-opacity:1;stroke-width:2;stroke-linecap:round;stroke-linejoin:round"
       d="m 24.057394,67.689047 6.760985,-5.561931 a 24,24 0 0 1 -2.760985,-1.366273 24,24 0 0 1 -2.562742,-1.709638 z"
       inkscape:transform-center-x="12.587626"
       inkscape:transform-center-y="23.389699" />
    <path
       id="path938"
       style="fill:#e2dd97;fill-opacity:1;stroke-width:2;stroke-linecap:round;stroke-linejoin:round"
       d="m 12.342407,55.992736 8.63615,-1.436281 A 24,24 0 0 1 19.27061,51.992736 24,24 0 0 1 17.906029,49.230775 Z"
       inkscape:transform-center-x="23.365031"
       inkscape:transform-center-y="12.631328" />
    <path
       id="path940"
       style="fill:#e2dd97;fill-opacity:1;stroke-width:2;stroke-linecap:round;stroke-linejoin:round"
       d="m 8.0450851,40.005941 8.1972659,3.074219 a 24,24 0 0 1 -0.197266,-3.074219 24,24 0 0 1 0.199219,-3.074219 z"
       inkscape:transform-center-x="27.880818"
       inkscape:transform-center-y="0.0255135" />
    <path
       id="path942"
       style="fill:#e2dd97;fill-opacity:1;stroke-width:2;stroke-linecap:round;stroke-linejoin:round"
       d="m 12.316893,24.012309 5.561931,6.760985 a 24,24 0 0 1 1.366273,-2.760985 24,24 0 0 1 1.709638,-2.562742 z"
       inkscape:transform-center-x="23.389699"
       inkscape:transform-center-y="-12.587626" />
    <path
       id="path944"
       style="fill:#e2dd97;fill-opacity:1;stroke-width:2;stroke-linecap:round;stroke-linejoin:round"
       d="m 24.013204,12.297322 1.436281,8.63615 a 24,24 0 0 1 2.563719,-1.707947 24,24 0 0 1 2.761961,-1.364581 z"
       inkscape:transform-center-x="12.631328"
       inkscape:transform-center-y="-23.365031" />
  </g>
</svg>
