<?xml version="1.0" encoding="UTF-8" standalone="no"?>
<svg
   xmlns:dc="http://purl.org/dc/elements/1.1/"
   xmlns:cc="http://creativecommons.org/ns#"
   xmlns:rdf="http://www.w3.org/1999/02/22-rdf-syntax-ns#"
   xmlns:svg="http://www.w3.org/2000/svg"
   xmlns="http://www.w3.org/2000/svg"
   xmlns:sodipodi="http://sodipodi.sourceforge.net/DTD/sodipodi-0.dtd"
   xmlns:inkscape="http://www.inkscape.org/namespaces/inkscape"
   inkscape:export-ydpi="48"
   inkscape:export-xdpi="48"
   inkscape:export-filename="/home/raster/C/th-efl/th/img/ic/system-run-040.png"
   inkscape:version="1.0 (4035a4fb49, 2020-05-01)"
   sodipodi:docname="system-run.svg"
   viewBox="0 0 80 80"
   height="80"
   width="80"
   id="svg2"
   version="1.1">
  <metadata
     id="metadata8">
    <rdf:RDF>
      <cc:Work
         rdf:about="">
        <dc:format>image/svg+xml</dc:format>
        <dc:type
           rdf:resource="http://purl.org/dc/dcmitype/StillImage" />
        <dc:title></dc:title>
      </cc:Work>
    </rdf:RDF>
  </metadata>
  <defs
     id="defs6">
    <filter
       height="1.2036128"
       y="-0.1018064"
       width="1.2036131"
       x="-0.10180655"
       id="filter7622"
       style="color-interpolation-filters:sRGB"
       inkscape:collect="always">
      <feGaussianBlur
         id="feGaussianBlur7624"
         stdDeviation="2.5451637"
         inkscape:collect="always" />
    </filter>
    <filter
       height="1.4256082"
       y="-0.2128041"
       width="1.5674776"
       x="-0.2837388"
       id="filter7936"
       style="color-interpolation-filters:sRGB"
       inkscape:collect="always">
      <feGaussianBlur
         id="feGaussianBlur7938"
         stdDeviation="1.7733675"
         inkscape:collect="always" />
    </filter>
  </defs>
  <sodipodi:namedview
     inkscape:bbox-nodes="true"
     inkscape:bbox-paths="true"
     inkscape:object-paths="true"
     inkscape:snap-intersection-paths="true"
     inkscape:snap-nodes="true"
     inkscape:snap-bbox="true"
     inkscape:current-layer="g10"
     inkscape:window-maximized="0"
     inkscape:window-y="0"
     inkscape:window-x="1206"
     inkscape:cy="40.122888"
     inkscape:cx="40"
     inkscape:zoom="8.1375"
     showgrid="true"
     id="namedview4"
     inkscape:window-height="1372"
     inkscape:window-width="1354"
     inkscape:pageshadow="2"
     inkscape:pageopacity="0"
     guidetolerance="10"
     gridtolerance="10"
     objecttolerance="10"
     borderopacity="1"
     bordercolor="#666666"
     pagecolor="#404040"
     inkscape:document-rotation="0">
    <inkscape:grid
       id="grid837"
       type="xygrid" />
  </sodipodi:namedview>
  <g
     id="g10"
     inkscape:label="Image"
     inkscape:groupmode="layer">
    <path
       id="path7464"
       style="opacity:0.5;fill:#000000;fill-opacity:1;stroke-width:4;stroke-linecap:round;stroke-linejoin:round;filter:url(#filter7622)"
       d="m 40,14 a 30,30 0 0 0 -5.650391,0.566406 L 32.71289,26.027344 23.447265,19.078125 a 30,30 0 0 0 -8.195312,8.181641 l 6.964844,9.287109 -11.503907,1.642578 A 30,30 0 0 0 10.144531,44 a 30,30 0 0 0 0.558594,5.761719 l 11.53125,1.646484 -6.990235,9.320313 a 30,30 0 0 0 8.177735,8.177734 l 9.333984,-7 1.648438,11.539062 A 30,30 0 0 0 40.144531,74 30,30 0 0 0 45.96875,73.427734 l 1.648437,-11.541015 9.306641,6.980469 a 30,30 0 0 0 8.166015,-8.203126 L 58.115234,51.365234 69.591797,49.726562 A 30,30 0 0 0 70.144531,44 30,30 0 0 0 69.566406,38.142578 l -11.470703,-1.638672 6.9375,-9.25 A 30,30 0 0 0 56.826172,19.068359 L 47.574219,26.007812 45.939453,14.566406 A 30,30 0 0 0 40.144531,14 30,30 0 0 0 40,14 Z" />
    <path
       d="m 39.855469,10.000044 a 30,30 0 0 0 -5.650391,0.566406 l -1.636719,11.460938 -9.265625,-6.949219 a 30,30 0 0 0 -8.195312,8.181641 l 6.964844,9.287109 -11.503907,1.642578 A 30,30 0 0 0 10,40.000044 a 30,30 0 0 0 0.558594,5.761719 l 11.53125,1.646484 -6.990235,9.320313 a 30,30 0 0 0 8.177735,8.177734 l 9.333984,-7 1.648438,11.539062 A 30,30 0 0 0 40,70.000044 30,30 0 0 0 45.824219,69.427778 l 1.648437,-11.541015 9.306641,6.980469 a 30,30 0 0 0 8.166015,-8.203126 L 57.970703,47.365278 69.447266,45.726606 A 30,30 0 0 0 70,40.000044 30,30 0 0 0 69.421875,34.142622 l -11.470703,-1.638672 6.9375,-9.25 A 30,30 0 0 0 56.681641,15.068403 L 47.429688,22.007856 45.794922,10.56645 A 30,30 0 0 0 40,10.000044 a 30,30 0 0 0 -0.144531,0 z"
       style="fill:#a0a0a0;fill-opacity:1;stroke-width:4;stroke-linecap:round;stroke-linejoin:round"
       id="path2833" />
    <path
       style="opacity:0.5;fill:#000000;fill-opacity:1;stroke:none;stroke-width:4;stroke-linecap:round;stroke-linejoin:round;stroke-miterlimit:4;stroke-dasharray:none;stroke-opacity:1;filter:url(#filter7936)"
       d="M 35,32 V 52 L 50,42 Z"
       id="path7626"
       sodipodi:nodetypes="cccc" />
    <path
       sodipodi:nodetypes="cccc"
       id="path7462"
       d="M 35,30 V 50 L 50,40 Z"
       style="opacity:1;fill:#ffffff;fill-opacity:1;stroke:none;stroke-width:4;stroke-linecap:round;stroke-linejoin:round;stroke-miterlimit:4;stroke-dasharray:none;stroke-opacity:1" />
  </g>
</svg>
