<?xml version="1.0" encoding="UTF-8" standalone="no"?>
<svg
   xmlns:dc="http://purl.org/dc/elements/1.1/"
   xmlns:cc="http://creativecommons.org/ns#"
   xmlns:rdf="http://www.w3.org/1999/02/22-rdf-syntax-ns#"
   xmlns:svg="http://www.w3.org/2000/svg"
   xmlns="http://www.w3.org/2000/svg"
   xmlns:sodipodi="http://sodipodi.sourceforge.net/DTD/sodipodi-0.dtd"
   xmlns:inkscape="http://www.inkscape.org/namespaces/inkscape"
   version="1.1"
   id="svg2"
   width="80"
   height="80"
   viewBox="0 0 80 80"
   sodipodi:docname="system-run.svg"
   inkscape:version="1.0 (4035a4fb49, 2020-05-01)"
   inkscape:export-filename="/home/raster/C/th-efl/th/img/ic/system-run-040.png"
   inkscape:export-xdpi="48"
   inkscape:export-ydpi="48">
  <metadata
     id="metadata8">
    <rdf:RDF>
      <cc:Work
         rdf:about="">
        <dc:format>image/svg+xml</dc:format>
        <dc:type
           rdf:resource="http://purl.org/dc/dcmitype/StillImage" />
        <dc:title></dc:title>
      </cc:Work>
    </rdf:RDF>
  </metadata>
  <defs
     id="defs6" />
  <sodipodi:namedview
     inkscape:document-rotation="0"
     pagecolor="#404040"
     bordercolor="#666666"
     borderopacity="1"
     objecttolerance="10"
     gridtolerance="10"
     guidetolerance="10"
     inkscape:pageopacity="0"
     inkscape:pageshadow="2"
     inkscape:window-width="1354"
     inkscape:window-height="1372"
     id="namedview4"
     showgrid="true"
     inkscape:zoom="8.1375"
     inkscape:cx="40"
     inkscape:cy="40.061444"
     inkscape:window-x="1206"
     inkscape:window-y="0"
     inkscape:window-maximized="0"
     inkscape:current-layer="g10"
     inkscape:snap-bbox="true"
     inkscape:snap-nodes="true"
     inkscape:snap-intersection-paths="true"
     inkscape:object-paths="true"
     inkscape:bbox-paths="true"
     inkscape:bbox-nodes="true">
    <inkscape:grid
       type="xygrid"
       id="grid837" />
  </sodipodi:namedview>
  <g
     inkscape:groupmode="layer"
     inkscape:label="Image"
     id="g10">
    <path
       id="path2833"
       style="fill:#a0a0a0;fill-opacity:1;stroke-width:4;stroke-linecap:round;stroke-linejoin:round"
       d="m 39.855469,10.000044 a 30,30 0 0 0 -5.650391,0.566406 l -1.636719,11.460938 -9.265625,-6.949219 a 30,30 0 0 0 -8.195312,8.181641 l 6.964844,9.287109 -11.503907,1.642578 A 30,30 0 0 0 10,40.000044 a 30,30 0 0 0 0.558594,5.761719 l 11.53125,1.646484 -6.990235,9.320313 a 30,30 0 0 0 8.177735,8.177734 l 9.333984,-7 1.648438,11.539062 A 30,30 0 0 0 40,70.000044 30,30 0 0 0 45.824219,69.427778 l 1.648437,-11.541015 9.306641,6.980469 a 30,30 0 0 0 8.166015,-8.203126 L 57.970703,47.365278 69.447266,45.726606 A 30,30 0 0 0 70,40.000044 30,30 0 0 0 69.421875,34.142622 l -11.470703,-1.638672 6.9375,-9.25 A 30,30 0 0 0 56.681641,15.068403 L 47.429688,22.007856 45.794922,10.56645 A 30,30 0 0 0 40,10.000044 a 30,30 0 0 0 -0.144531,0 z" />
    <path
       style="opacity:1;fill:#202020;fill-opacity:1;stroke:none;stroke-width:4;stroke-linecap:round;stroke-linejoin:round;stroke-miterlimit:4;stroke-dasharray:none;stroke-opacity:1"
       d="M 35,30 V 50 L 50,40 Z"
       id="path7462"
       sodipodi:nodetypes="cccc" />
  </g>
</svg>
