<?xml version="1.0" encoding="UTF-8" standalone="no"?>
<svg
   xmlns:dc="http://purl.org/dc/elements/1.1/"
   xmlns:cc="http://creativecommons.org/ns#"
   xmlns:rdf="http://www.w3.org/1999/02/22-rdf-syntax-ns#"
   xmlns:svg="http://www.w3.org/2000/svg"
   xmlns="http://www.w3.org/2000/svg"
   xmlns:xlink="http://www.w3.org/1999/xlink"
   xmlns:sodipodi="http://sodipodi.sourceforge.net/DTD/sodipodi-0.dtd"
   xmlns:inkscape="http://www.inkscape.org/namespaces/inkscape"
   inkscape:export-ydpi="48"
   inkscape:export-xdpi="48"
   inkscape:export-filename="/home/raster/C/th-efl/th/img/ic/video-camera-040.png"
   inkscape:version="1.0.1 (3bc2e813f5, 2020-09-07)"
   sodipodi:docname="video-camera.svg"
   viewBox="0 0 80 80"
   height="80"
   width="80"
   id="svg2"
   version="1.1">
  <metadata
     id="metadata8">
    <rdf:RDF>
      <cc:Work
         rdf:about="">
        <dc:format>image/svg+xml</dc:format>
        <dc:type
           rdf:resource="http://purl.org/dc/dcmitype/StillImage" />
        <dc:title></dc:title>
      </cc:Work>
    </rdf:RDF>
  </metadata>
  <defs
     id="defs6">
    <linearGradient
       inkscape:collect="always"
       id="linearGradient5619">
      <stop
         style="stop-color:#ffffff;stop-opacity:1;"
         offset="0"
         id="stop5615" />
      <stop
         style="stop-color:#c8c8c8;stop-opacity:1"
         offset="1"
         id="stop5617" />
    </linearGradient>
    <linearGradient
       inkscape:collect="always"
       xlink:href="#linearGradient5619"
       id="linearGradient5621"
       x1="22"
       y1="58"
       x2="22"
       y2="56"
       gradientUnits="userSpaceOnUse" />
  </defs>
  <sodipodi:namedview
     inkscape:bbox-nodes="true"
     inkscape:bbox-paths="true"
     inkscape:object-paths="true"
     inkscape:snap-intersection-paths="true"
     inkscape:snap-nodes="true"
     inkscape:snap-bbox="true"
     inkscape:current-layer="g10"
     inkscape:window-maximized="1"
     inkscape:window-y="0"
     inkscape:window-x="0"
     inkscape:cy="40"
     inkscape:cx="40"
     inkscape:zoom="15.1875"
     showgrid="true"
     id="namedview4"
     inkscape:window-height="1377"
     inkscape:window-width="2560"
     inkscape:pageshadow="2"
     inkscape:pageopacity="0"
     guidetolerance="10"
     gridtolerance="10"
     objecttolerance="10"
     borderopacity="1"
     bordercolor="#666666"
     pagecolor="#404040"
     inkscape:document-rotation="0">
    <inkscape:grid
       id="grid837"
       type="xygrid"
       empspacing="4" />
  </sodipodi:namedview>
  <g
     id="g10"
     inkscape:label="Image"
     inkscape:groupmode="layer">
    <path
       id="path5548"
       style="fill:#202020;fill-opacity:1;stroke-width:1.33333;stroke-linecap:round;stroke-linejoin:round;stroke-opacity:0.2"
       d="M 12 36 C 9.784 36 8 37.784 8 40 L 8 64 C 8 66.216 9.784 68 12 68 L 52 68 C 54.216 68 56 66.216 56 64 L 56 58 L 60 58 L 72 64 L 72 40 L 60 46 L 56 46 L 56 40 C 56 37.784 54.216 36 52 36 L 12 36 z " />
    <circle
       style="fill:#202020;fill-opacity:1;stroke-width:1.5;stroke-linecap:round;stroke-linejoin:round;stroke-opacity:0.2"
       id="path5554"
       cx="20"
       cy="24"
       r="12" />
    <ellipse
       style="fill:#202020;fill-opacity:1;stroke-width:1.5;stroke-linecap:round;stroke-linejoin:round;stroke-opacity:0.2"
       id="circle5556"
       cx="44"
       cy="24"
       rx="12.000001"
       ry="12" />
    <rect
       style="fill:none;fill-opacity:1;stroke:#a0a0a0;stroke-width:1.7647;stroke-linecap:round;stroke-linejoin:round;stroke-miterlimit:4;stroke-dasharray:none;stroke-opacity:1"
       id="rect5573"
       width="38"
       height="22"
       x="13"
       y="41"
       ry="1.7104073" />
    <rect
       style="fill:url(#linearGradient5621);fill-opacity:1;stroke:none;stroke-width:2.44949;stroke-linecap:round;stroke-linejoin:round;stroke-miterlimit:4;stroke-dasharray:none;stroke-opacity:1"
       id="rect5575"
       width="12"
       height="4"
       x="16"
       y="56"
       ry="0" />
    <circle
       style="fill:#ff3d20;fill-opacity:1;stroke:none;stroke-width:2;stroke-linecap:round;stroke-linejoin:round;stroke-miterlimit:4;stroke-dasharray:none;stroke-opacity:1"
       id="path5586"
       cx="46"
       cy="46"
       r="2" />
    <path
       id="rect5588"
       style="fill:#303030;fill-opacity:1;stroke:none;stroke-width:2.64575;stroke-linecap:round;stroke-linejoin:round;stroke-miterlimit:4;stroke-dasharray:none;stroke-opacity:1"
       d="M 72 42 L 60 47 L 56 47 L 56 55 L 60 55 L 72 58 L 72 42 z " />
    <path
       id="rect5592"
       style="fill:#606060;fill-opacity:1;stroke:none;stroke-width:0.707104;stroke-linecap:round;stroke-linejoin:round;stroke-miterlimit:4;stroke-dasharray:none;stroke-opacity:1"
       d="m 72,44 -12,4 h -4 v 1 h 4 l 12,-3 z"
       sodipodi:nodetypes="ccccccc" />
    <path
       id="path5606"
       style="fill:#a0a0a0;fill-opacity:1;stroke:none;stroke-width:2;stroke-linecap:round;stroke-linejoin:round;stroke-miterlimit:4;stroke-dasharray:none;stroke-opacity:1"
       d="M 20 16 A 8 8 0 0 0 12 24 A 8 8 0 0 0 20 32 A 8 8 0 0 0 28 24 A 8 8 0 0 0 20 16 z M 20 18 A 6 6 0 0 1 26 24 A 6 6 0 0 1 20 30 A 6 6 0 0 1 14 24 A 6 6 0 0 1 20 18 z " />
    <path
       id="path5613"
       style="fill:#a0a0a0;fill-opacity:1;stroke:none;stroke-width:2;stroke-linecap:round;stroke-linejoin:round;stroke-miterlimit:4;stroke-dasharray:none;stroke-opacity:1"
       d="m 44,16 a 8,8 0 0 0 -8,8 8,8 0 0 0 8,8 8,8 0 0 0 8,-8 8,8 0 0 0 -8,-8 z m 0,2 a 6,6 0 0 1 6,6 6,6 0 0 1 -6,6 6,6 0 0 1 -6,-6 6,6 0 0 1 6,-6 z" />
  </g>
</svg>
