<?xml version="1.0" encoding="UTF-8" standalone="no"?>
<svg
   xmlns:osb="http://www.openswatchbook.org/uri/2009/osb"
   xmlns:dc="http://purl.org/dc/elements/1.1/"
   xmlns:cc="http://creativecommons.org/ns#"
   xmlns:rdf="http://www.w3.org/1999/02/22-rdf-syntax-ns#"
   xmlns:svg="http://www.w3.org/2000/svg"
   xmlns="http://www.w3.org/2000/svg"
   xmlns:sodipodi="http://sodipodi.sourceforge.net/DTD/sodipodi-0.dtd"
   xmlns:inkscape="http://www.inkscape.org/namespaces/inkscape"
   inkscape:export-ydpi="384"
   inkscape:export-xdpi="384"
   inkscape:export-filename="/home/raster/C/th-efl/th/img/wifi-1.png"
   inkscape:version="1.0 (4035a4fb49, 2020-05-01)"
   sodipodi:docname="wifi.svg"
   viewBox="0 0 15 15"
   height="15"
   width="15"
   id="svg2"
   version="1.1">
  <metadata
     id="metadata8">
    <rdf:RDF>
      <cc:Work
         rdf:about="">
        <dc:format>image/svg+xml</dc:format>
        <dc:type
           rdf:resource="http://purl.org/dc/dcmitype/StillImage" />
        <dc:title />
      </cc:Work>
    </rdf:RDF>
  </metadata>
  <defs
     id="defs6">
    <linearGradient
       id="linearGradient4128"
       osb:paint="solid">
      <stop
         style="stop-color:#000000;stop-opacity:1;"
         offset="0"
         id="stop4126" />
    </linearGradient>
  </defs>
  <sodipodi:namedview
     inkscape:snap-smooth-nodes="true"
     inkscape:snap-intersection-paths="true"
     inkscape:object-paths="true"
     inkscape:snap-bbox-edge-midpoints="false"
     inkscape:bbox-nodes="true"
     inkscape:bbox-paths="false"
     inkscape:snap-bbox="true"
     inkscape:current-layer="g10"
     inkscape:window-maximized="1"
     inkscape:window-y="0"
     inkscape:window-x="0"
     inkscape:cy="7.5247729"
     inkscape:cx="7.5"
     inkscape:zoom="80.733333"
     showgrid="true"
     id="namedview4"
     inkscape:window-height="1377"
     inkscape:window-width="2560"
     inkscape:pageshadow="2"
     inkscape:pageopacity="0"
     guidetolerance="10"
     gridtolerance="10"
     objecttolerance="10"
     borderopacity="1"
     bordercolor="#666666"
     pagecolor="#404040"
     inkscape:document-rotation="0">
    <inkscape:grid
       spacingy="0.5"
       spacingx="0.5"
       id="grid837"
       type="xygrid" />
  </sodipodi:namedview>
  <g
     id="g10"
     inkscape:label="Image"
     inkscape:groupmode="layer">
    <path
       id="path4174"
       d="M 7.5000007,3.1760756 A 7.7830666,7.7830666 0 0 0 2.0000014,5.4591427 l 0.615315,0.615315 A 6.9182814,6.9182814 0 0 1 7.508278,4.0408605 6.9182814,6.9182814 0 0 1 12.392962,6.0661806 L 13.000001,5.4591427 A 7.7830666,7.7830666 0 0 0 7.5000007,3.1760756 Z"
       style="fill:#ffffff;fill-opacity:1;stroke:none;stroke-width:0.0864784"
       inkscape:connector-curvature="0" />
    <path
       id="path3354"
       d="M 7.5000007,4.9056454 A 6.0534963,6.0534963 0 0 0 3.2221854,6.6813267 L 3.8371626,7.2963039 A 5.1925546,5.2117719 0 0 1 7.5038861,5.7704315 5.1925546,5.2117719 0 0 1 11.166387,7.2927577 l 0.61143,-0.611431 A 6.0534963,6.0534963 0 0 0 7.5000007,4.9056454 Z"
       style="fill:#ffffff;fill-opacity:1;stroke:none;stroke-width:0.0864784"
       inkscape:connector-curvature="0" />
    <path
       id="ellipse3349"
       d="M 7.4768618,6.6352164 A 4.2986137,4.309833 0 0 0 4.43981,7.8989512 L 5.0500575,8.5091988 A 3.4360799,3.4450478 0 0 1 7.4768618,7.5000013 3.4360799,3.4450478 0 0 1 9.9276492,8.5314935 L 10.536377,7.9227669 A 4.2986137,4.309833 0 0 0 7.4768618,6.6352164 Z"
       style="fill:#ffffff;fill-opacity:1;stroke:none;stroke-width:0.0864784"
       inkscape:connector-curvature="0" />
    <path
       id="circle3344"
       d="M 7.5000007,8.3647862 A 2.5943556,2.5943556 0 0 0 5.6667235,9.1258644 l 0.6110932,0.611093 a 1.7295703,1.7295703 0 0 1 1.222184,-0.507385 1.7295703,1.7295703 0 0 1 1.2221854,0.507385 l 0.611092,-0.611093 A 2.5943556,2.5943556 0 0 0 7.5000007,8.3647862 Z"
       style="fill:#ffffff;fill-opacity:1;stroke:none;stroke-width:0.0864784"
       inkscape:connector-curvature="0" />
    <circle
       r="0.86478519"
       cy="10.959139"
       cx="7.5"
       id="path5460"
       style="fill:#ffffff;fill-opacity:1;stroke:none;stroke-width:0.0432392;stroke-linecap:round;stroke-linejoin:round;stroke-miterlimit:4;stroke-dasharray:none;stroke-opacity:1" />
  </g>
</svg>
