<?xml version="1.0" encoding="UTF-8" standalone="no"?>
<svg
   xmlns:dc="http://purl.org/dc/elements/1.1/"
   xmlns:cc="http://creativecommons.org/ns#"
   xmlns:rdf="http://www.w3.org/1999/02/22-rdf-syntax-ns#"
   xmlns:svg="http://www.w3.org/2000/svg"
   xmlns="http://www.w3.org/2000/svg"
   xmlns:xlink="http://www.w3.org/1999/xlink"
   xmlns:sodipodi="http://sodipodi.sourceforge.net/DTD/sodipodi-0.dtd"
   xmlns:inkscape="http://www.inkscape.org/namespaces/inkscape"
   version="1.1"
   id="svg2"
   width="80"
   height="80"
   viewBox="0 0 80 80"
   sodipodi:docname="zip.svg"
   inkscape:version="1.0 (4035a4fb49, 2020-05-01)"
   inkscape:export-filename="/home/raster/C/th-efl/th/img/ic/efm-zip-040.png"
   inkscape:export-xdpi="48"
   inkscape:export-ydpi="48">
  <metadata
     id="metadata8">
    <rdf:RDF>
      <cc:Work
         rdf:about="">
        <dc:format>image/svg+xml</dc:format>
        <dc:type
           rdf:resource="http://purl.org/dc/dcmitype/StillImage" />
        <dc:title></dc:title>
      </cc:Work>
    </rdf:RDF>
  </metadata>
  <defs
     id="defs6">
    <linearGradient
       id="linearGradient1882"
       inkscape:collect="always">
      <stop
         id="stop1878"
         offset="0"
         style="stop-color:#d38d5f;stop-opacity:1" />
      <stop
         id="stop1880"
         offset="1"
         style="stop-color:#a05a2c;stop-opacity:1" />
    </linearGradient>
    <rect
       x="20"
       y="20"
       width="40"
       height="30"
       id="rect878" />
    <rect
       x="20"
       y="50"
       width="40"
       height="30"
       id="rect872" />
    <rect
       x="20"
       y="20"
       width="40"
       height="30"
       id="rect864" />
    <rect
       x="20"
       y="20"
       width="40"
       height="30"
       id="rect858" />
    <rect
       x="20"
       y="20"
       width="40"
       height="30"
       id="rect852" />
    <mask
       maskUnits="userSpaceOnUse"
       id="mask1019">
      <path
         inkscape:connector-curvature="0"
         id="path1021"
         d="M 2,2 38,38 V 2 Z"
         style="fill:#c8c8c8;fill-opacity:1;fill-rule:evenodd;stroke:none;stroke-width:1px;stroke-linecap:butt;stroke-linejoin:miter;stroke-opacity:1" />
    </mask>
    <filter
       inkscape:collect="always"
       style="color-interpolation-filters:sRGB"
       id="filter1119"
       x="-0.27599999"
       width="1.552"
       y="-0.27599999"
       height="1.552">
      <feGaussianBlur
         inkscape:collect="always"
         stdDeviation="3.22"
         id="feGaussianBlur1121" />
    </filter>
    <radialGradient
       inkscape:collect="always"
       xlink:href="#linearGradient1128"
       id="radialGradient1166"
       gradientUnits="userSpaceOnUse"
       gradientTransform="matrix(-4.1975307e-8,4.0000001,3.9999998,0,67.998381,-3.9999967)"
       cx="2"
       cy="2"
       fx="2"
       fy="2"
       r="18" />
    <linearGradient
       inkscape:collect="always"
       id="linearGradient1128">
      <stop
         style="stop-color:#d38d5f;stop-opacity:1"
         offset="0"
         id="stop1124" />
      <stop
         style="stop-color:#a05a2c;stop-opacity:1"
         offset="1"
         id="stop1126" />
    </linearGradient>
    <mask
       maskUnits="userSpaceOnUse"
       id="mask1790">
      <path
         inkscape:connector-curvature="0"
         id="path1788"
         d="M 2,2 38,38 V 2 Z"
         style="fill:#c8c8c8;fill-opacity:1;fill-rule:evenodd;stroke:none;stroke-width:1px;stroke-linecap:butt;stroke-linejoin:miter;stroke-opacity:1" />
    </mask>
    <radialGradient
       inkscape:collect="always"
       xlink:href="#linearGradient1882"
       id="radialGradient1130"
       cx="2"
       cy="2"
       fx="2"
       fy="2"
       r="18"
       gradientUnits="userSpaceOnUse"
       gradientTransform="matrix(4.1975307e-8,4.0000001,-3.9999998,0,11.99839,-3.9999967)" />
  </defs>
  <sodipodi:namedview
     inkscape:showpageshadow="false"
     inkscape:document-rotation="0"
     pagecolor="#404040"
     bordercolor="#ff66ac"
     borderopacity="1"
     objecttolerance="10"
     gridtolerance="10"
     guidetolerance="10"
     inkscape:pageopacity="0"
     inkscape:pageshadow="2"
     inkscape:window-width="1920"
     inkscape:window-height="1017"
     id="namedview4"
     showgrid="true"
     inkscape:zoom="10.45"
     inkscape:cx="40"
     inkscape:cy="40"
     inkscape:window-x="0"
     inkscape:window-y="0"
     inkscape:window-maximized="1"
     inkscape:current-layer="g10"
     showguides="false"
     inkscape:snap-bbox="true"
     inkscape:bbox-nodes="true"
     inkscape:snap-others="false"
     inkscape:snap-nodes="true"
     borderlayer="true">
    <inkscape:grid
       snapvisiblegridlinesonly="true"
       enabled="true"
       type="xygrid"
       id="grid837" />
  </sodipodi:namedview>
  <g
     inkscape:groupmode="layer"
     inkscape:label="Image"
     id="g10">
    <path
       style="fill:#a05a2c;fill-opacity:1;fill-rule:evenodd;stroke:none;stroke-width:2.76923px;stroke-linecap:round;stroke-linejoin:round;stroke-opacity:1"
       d="M 3.9983912,76.000002 H 75.998391 v -72 H 3.9983912 Z"
       id="path824"
       inkscape:connector-curvature="0"
       sodipodi:nodetypes="ccccc" />
    <path
       sodipodi:nodetypes="ccccc"
       id="path1874"
       d="M 38,4 36,6 H 48 V 4 Z"
       style="fill:#dcdcdc;fill-opacity:1;fill-rule:evenodd;stroke:none;stroke-width:1px;stroke-linecap:butt;stroke-linejoin:miter;stroke-opacity:1" />
    <path
       style="fill:#c8c8c8;fill-opacity:1;fill-rule:evenodd;stroke:none;stroke-width:1px;stroke-linecap:butt;stroke-linejoin:miter;stroke-opacity:1"
       d="M 38,8 36,6 h 12 v 2 z"
       id="path1876"
       sodipodi:nodetypes="ccccc" />
    <path
       style="fill:#dcdcdc;fill-opacity:1;fill-rule:evenodd;stroke:none;stroke-width:1px;stroke-linecap:butt;stroke-linejoin:miter;stroke-opacity:1"
       d="m 42,8 2,2 H 32 V 8 Z"
       id="path1884"
       sodipodi:nodetypes="ccccc" />
    <path
       sodipodi:nodetypes="ccccc"
       id="path1886"
       d="m 42,12 2,-2 H 32 v 2 z"
       style="fill:#c8c8c8;fill-opacity:1;fill-rule:evenodd;stroke:none;stroke-width:1px;stroke-linecap:butt;stroke-linejoin:miter;stroke-opacity:1" />
    <path
       style="fill:#dcdcdc;fill-opacity:1;fill-rule:evenodd;stroke:none;stroke-width:1px;stroke-linecap:butt;stroke-linejoin:miter;stroke-opacity:1"
       d="m 38,12 -2,2 h 12 v -2 z"
       id="path1888"
       sodipodi:nodetypes="ccccc" />
    <path
       sodipodi:nodetypes="ccccc"
       id="path1890"
       d="m 38,16 -2,-2 h 12 v 2 z"
       style="fill:#c8c8c8;fill-opacity:1;fill-rule:evenodd;stroke:none;stroke-width:1px;stroke-linecap:butt;stroke-linejoin:miter;stroke-opacity:1" />
    <path
       sodipodi:nodetypes="ccccc"
       id="path1892"
       d="m 42,16 2,2 H 32 v -2 z"
       style="fill:#dcdcdc;fill-opacity:1;fill-rule:evenodd;stroke:none;stroke-width:1px;stroke-linecap:butt;stroke-linejoin:miter;stroke-opacity:1" />
    <path
       style="fill:#c8c8c8;fill-opacity:1;fill-rule:evenodd;stroke:none;stroke-width:1px;stroke-linecap:butt;stroke-linejoin:miter;stroke-opacity:1"
       d="m 42,20 2,-2 H 32 v 2 z"
       id="path1894"
       sodipodi:nodetypes="ccccc" />
    <path
       sodipodi:nodetypes="ccccc"
       id="path1896"
       d="m 38,20 -2,2 h 12 v -2 z"
       style="fill:#dcdcdc;fill-opacity:1;fill-rule:evenodd;stroke:none;stroke-width:1px;stroke-linecap:butt;stroke-linejoin:miter;stroke-opacity:1" />
    <path
       style="fill:#c8c8c8;fill-opacity:1;fill-rule:evenodd;stroke:none;stroke-width:1px;stroke-linecap:butt;stroke-linejoin:miter;stroke-opacity:1"
       d="m 38,24 -2,-2 h 12 v 2 z"
       id="path1898"
       sodipodi:nodetypes="ccccc" />
    <path
       style="fill:#dcdcdc;fill-opacity:1;fill-rule:evenodd;stroke:none;stroke-width:1px;stroke-linecap:butt;stroke-linejoin:miter;stroke-opacity:1"
       d="m 42,24 2,2 H 32 v -2 z"
       id="path1900"
       sodipodi:nodetypes="ccccc" />
    <path
       sodipodi:nodetypes="ccccc"
       id="path1902"
       d="m 42,28 2,-2 H 32 v 2 z"
       style="fill:#c8c8c8;fill-opacity:1;fill-rule:evenodd;stroke:none;stroke-width:1px;stroke-linecap:butt;stroke-linejoin:miter;stroke-opacity:1" />
    <path
       style="fill:#dcdcdc;fill-opacity:1;fill-rule:evenodd;stroke:none;stroke-width:1px;stroke-linecap:butt;stroke-linejoin:miter;stroke-opacity:1"
       d="m 38,28 -2,2 h 12 v -2 z"
       id="path1904"
       sodipodi:nodetypes="ccccc" />
    <path
       sodipodi:nodetypes="ccccc"
       id="path1906"
       d="m 38,32 -2,-2 h 12 v 2 z"
       style="fill:#c8c8c8;fill-opacity:1;fill-rule:evenodd;stroke:none;stroke-width:1px;stroke-linecap:butt;stroke-linejoin:miter;stroke-opacity:1" />
    <path
       sodipodi:nodetypes="ccccc"
       id="path1908"
       d="m 42,32 2,2 H 32 v -2 z"
       style="fill:#dcdcdc;fill-opacity:1;fill-rule:evenodd;stroke:none;stroke-width:1px;stroke-linecap:butt;stroke-linejoin:miter;stroke-opacity:1" />
    <path
       style="fill:#c8c8c8;fill-opacity:1;fill-rule:evenodd;stroke:none;stroke-width:1px;stroke-linecap:butt;stroke-linejoin:miter;stroke-opacity:1"
       d="m 42,36 2,-2 H 32 v 2 z"
       id="path1910"
       sodipodi:nodetypes="ccccc" />
    <path
       sodipodi:nodetypes="ccccc"
       id="path1912"
       d="m 38,36 -2,2 h 12 v -2 z"
       style="fill:#dcdcdc;fill-opacity:1;fill-rule:evenodd;stroke:none;stroke-width:1px;stroke-linecap:butt;stroke-linejoin:miter;stroke-opacity:1" />
    <path
       style="fill:#c8c8c8;fill-opacity:1;fill-rule:evenodd;stroke:none;stroke-width:1px;stroke-linecap:butt;stroke-linejoin:miter;stroke-opacity:1"
       d="m 38,40 -2,-2 h 12 v 2 z"
       id="path1914"
       sodipodi:nodetypes="ccccc" />
    <path
       style="fill:#ffffff;fill-opacity:1;fill-rule:evenodd;stroke:none;stroke-width:1px;stroke-linecap:butt;stroke-linejoin:miter;stroke-opacity:1"
       d="m 42,40 2,2 H 32 v -2 z"
       id="path1916"
       sodipodi:nodetypes="ccccc" />
    <path
       sodipodi:nodetypes="ccccc"
       id="path1918"
       d="m 42,44 2,-2 H 32 v 2 z"
       style="fill:#c8c8c8;fill-opacity:1;fill-rule:evenodd;stroke:none;stroke-width:1px;stroke-linecap:butt;stroke-linejoin:miter;stroke-opacity:1" />
    <path
       style="fill:url(#radialGradient1130);fill-opacity:1;fill-rule:evenodd;stroke:none;stroke-width:2px;stroke-linecap:butt;stroke-linejoin:miter;stroke-opacity:1"
       d="m 75.998391,76.000002 -71.9999998,-72 v 72 z"
       id="path831"
       inkscape:connector-curvature="0" />
    <path
       transform="matrix(2.25,0,0,2.25,-5.0016088,-4.999998)"
       style="opacity:0.1;fill:#000000;fill-opacity:1;fill-rule:evenodd;stroke:none;stroke-width:1px;stroke-linecap:butt;stroke-linejoin:miter;stroke-opacity:1;filter:url(#filter1119)"
       d="M 2.0000002,38 2,10 c 13,0 28,15 28,28 z"
       id="path833"
       inkscape:connector-curvature="0"
       sodipodi:nodetypes="cccc"
       mask="url(#mask1019)" />
    <path
       inkscape:connector-curvature="0"
       id="path1160"
       d="m 3.9983912,76.000002 71.9999998,-72 v 72 z"
       style="fill:url(#radialGradient1166);fill-opacity:1;fill-rule:evenodd;stroke:none;stroke-width:2px;stroke-linecap:butt;stroke-linejoin:miter;stroke-opacity:1" />
    <path
       mask="url(#mask1019)"
       sodipodi:nodetypes="cccc"
       inkscape:connector-curvature="0"
       id="path1162"
       d="M 2.0000002,38 2,10 c 13,0 28,15 28,28 z"
       style="opacity:0.1;fill:#000000;fill-opacity:1;fill-rule:evenodd;stroke:none;stroke-width:1px;stroke-linecap:butt;stroke-linejoin:miter;stroke-opacity:1;filter:url(#filter1119)"
       transform="matrix(-2.25,0,0,2.25,84.998391,-4.999998)" />
    <path
       d="m 40,31.927734 c -2,0 -4,2 -4,4 v 5.070312 a 8,8 0 0 0 -4,6.929688 8,8 0 0 0 8,8 8,8 0 0 0 8,-8 A 8,8 0 0 0 44,41 v -5.072266 c 0,-2 -2,-4 -4,-4 z m -0.06055,12 a 4,4 0 0 1 0.06055,0 4,4 0 0 1 4,4 4,4 0 0 1 -4,4 4,4 0 0 1 -4,-4 4,4 0 0 1 3.939453,-4 z"
       style="fill:#c8c8c8;fill-opacity:1;fill-rule:evenodd;stroke:none;stroke-width:1px;stroke-linecap:butt;stroke-linejoin:miter;stroke-opacity:1"
       id="path1964" />
    <path
       sodipodi:nodetypes="ccccccc"
       id="path1974"
       d="m 40,34 c -1,0 -2,1 -2,2 v 4 c 0,1 1,2 2,2 1,0 2,-1 2,-2 v -4 c 0,-1 -1,-2 -2,-2 z"
       style="fill:#dcdcdc;fill-opacity:1;fill-rule:evenodd;stroke:none;stroke-width:1px;stroke-linecap:butt;stroke-linejoin:miter;stroke-opacity:1" />
  </g>
</svg>
