<?xml version="1.0" encoding="UTF-8" standalone="no"?>
<svg
   xmlns:dc="http://purl.org/dc/elements/1.1/"
   xmlns:cc="http://creativecommons.org/ns#"
   xmlns:rdf="http://www.w3.org/1999/02/22-rdf-syntax-ns#"
   xmlns:svg="http://www.w3.org/2000/svg"
   xmlns="http://www.w3.org/2000/svg"
   xmlns:sodipodi="http://sodipodi.sourceforge.net/DTD/sodipodi-0.dtd"
   xmlns:inkscape="http://www.inkscape.org/namespaces/inkscape"
   version="1.1"
   id="svg2"
   width="80"
   height="80"
   viewBox="0 0 80 80"
   sodipodi:docname="zipdisk.svg"
   inkscape:version="1.0.1 (3bc2e813f5, 2020-09-07)"
   inkscape:export-filename="/home/raster/C/th-efl/th/img/ic/zipdisk-040.png"
   inkscape:export-xdpi="48"
   inkscape:export-ydpi="48">
  <metadata
     id="metadata8">
    <rdf:RDF>
      <cc:Work
         rdf:about="">
        <dc:format>image/svg+xml</dc:format>
        <dc:type
           rdf:resource="http://purl.org/dc/dcmitype/StillImage" />
        <dc:title></dc:title>
      </cc:Work>
    </rdf:RDF>
  </metadata>
  <defs
     id="defs6">
    <mask
       maskUnits="userSpaceOnUse"
       id="mask947">
      <rect
         style="opacity:1;fill:#a0a0a0;fill-opacity:1;stroke-width:3.96122;stroke-linecap:round;stroke-linejoin:round"
         id="rect949"
         width="60"
         height="40"
         x="10"
         y="5" />
    </mask>
    <mask
       id="mask3567"
       maskUnits="userSpaceOnUse">
      <path
         style="fill:#ffffff;fill-opacity:1;fill-rule:evenodd;stroke:none;stroke-width:1px;stroke-linecap:butt;stroke-linejoin:miter;stroke-opacity:1"
         d="M 40,10 C 19,10 20,17.832395 20,30 20,42.167605 19,70 40,70 61,70 60,42.167605 60,30 60,17.832395 61,10 40,10 Z"
         id="path3569"
         sodipodi:nodetypes="zzzzz" />
    </mask>
    <clipPath
       id="clipPath922"
       clipPathUnits="userSpaceOnUse">
      <path
         sodipodi:nodetypes="ccccccc"
         inkscape:connector-curvature="0"
         id="path924"
         d="m 1.3229166,295.4125 h 7.9375003 v -6.08542 c 0,-0.52917 0,-0.52917 -0.529167,-0.52917 H 1.8520833 c -0.5291666,0 -0.5291666,0 -0.5291667,0.52917 z"
         style="fill:#ffffff;fill-opacity:1;fill-rule:evenodd;stroke:none;stroke-width:0.264583px;stroke-linecap:butt;stroke-linejoin:miter;stroke-opacity:1" />
    </clipPath>
    <clipPath
       id="clipPath922-6"
       clipPathUnits="userSpaceOnUse">
      <path
         sodipodi:nodetypes="ccccccc"
         inkscape:connector-curvature="0"
         id="path924-7"
         d="m 1.3229166,295.4125 h 7.9375003 v -6.08542 c 0,-0.52917 0,-0.52917 -0.529167,-0.52917 H 1.8520833 c -0.5291666,0 -0.5291666,0 -0.5291667,0.52917 z"
         style="fill:#ffffff;fill-opacity:1;fill-rule:evenodd;stroke:none;stroke-width:0.264583px;stroke-linecap:butt;stroke-linejoin:miter;stroke-opacity:1" />
    </clipPath>
    <clipPath
       clipPathUnits="userSpaceOnUse"
       id="clipPath876">
      <path
         inkscape:connector-curvature="0"
         style="opacity:1;fill:#ffffff;fill-opacity:1;stroke:none;stroke-width:1;stroke-linecap:round;stroke-linejoin:round;stroke-miterlimit:4;stroke-dasharray:none;stroke-opacity:1"
         d="m 5.2916667,287.73958 a 3.96875,3.96875 0 0 0 -3.9687501,3.96875 3.96875,3.96875 0 0 0 3.9687501,3.96875 3.96875,3.96875 0 0 0 3.96875,-3.96875 3.96875,3.96875 0 0 0 -3.96875,-3.96875 z m 0,2.38125 a 1.5875001,1.5875044 0 0 1 1.5875,1.5875 1.5875001,1.5875044 0 0 1 -1.5875,1.5875 1.5875001,1.5875044 0 0 1 -1.5875,-1.5875 1.5875001,1.5875044 0 0 1 1.5875,-1.5875 z"
         id="path878" />
    </clipPath>
  </defs>
  <sodipodi:namedview
     inkscape:document-rotation="0"
     pagecolor="#404040"
     bordercolor="#666666"
     borderopacity="1"
     objecttolerance="10"
     gridtolerance="10"
     guidetolerance="10"
     inkscape:pageopacity="0"
     inkscape:pageshadow="2"
     inkscape:window-width="1920"
     inkscape:window-height="1017"
     id="namedview4"
     showgrid="true"
     inkscape:zoom="10.4625"
     inkscape:cx="40"
     inkscape:cy="40"
     inkscape:window-x="0"
     inkscape:window-y="0"
     inkscape:window-maximized="1"
     inkscape:current-layer="g10"
     showguides="false"
     inkscape:snap-bbox="true"
     inkscape:bbox-nodes="true"
     inkscape:snap-others="true"
     inkscape:snap-nodes="true"
     inkscape:bbox-paths="true"
     inkscape:object-paths="true"
     inkscape:snap-intersection-paths="true"
     inkscape:snap-smooth-nodes="true"
     inkscape:snap-midpoints="true">
    <inkscape:grid
       type="xygrid"
       id="grid837"
       empspacing="4"
       enabled="true"
       snapvisiblegridlinesonly="false" />
  </sodipodi:namedview>
  <g
     inkscape:groupmode="layer"
     inkscape:label="Image"
     id="g10">
    <path
       style="fill:#416489;fill-opacity:1;fill-rule:evenodd;stroke:none;stroke-width:1px;stroke-linecap:butt;stroke-linejoin:miter;stroke-opacity:1"
       d="M 16,72 V 70 H 8 V 16 L 20,8 h 40 l 12,8 v 54 h -8 v 2 z"
       id="path987"
       sodipodi:nodetypes="ccccccccccc" />
    <rect
       style="fill:#ffffff;fill-opacity:1;stroke:none;stroke-width:3.77953"
       id="rect991"
       width="44"
       height="12"
       x="18"
       y="58"
       ry="4" />
    <rect
       style="fill:#000000;fill-opacity:1;stroke:none;stroke-width:3.77953"
       id="rect997"
       width="48"
       height="20"
       x="16"
       y="36" />
    <rect
       style="fill:#ff0000;fill-opacity:1;stroke:none;stroke-width:3.08597"
       id="rect995"
       width="10"
       height="16"
       x="52"
       y="38"
       ry="0" />
    <rect
       style="fill:#ffffff;fill-opacity:1;stroke:none;stroke-width:3.02363"
       id="rect993"
       width="32"
       height="16"
       x="18"
       y="38"
       ry="0" />
    <path
       style="fill:#dcdcdc;fill-opacity:1;fill-rule:evenodd;stroke:none;stroke-width:1px;stroke-linecap:butt;stroke-linejoin:miter;stroke-opacity:1"
       d="m 60,8 v 4 c 0,2 -2,4 -4,4 H 36 c -2,0 -4,-2 -4,-4 V 8 Z"
       id="path989"
       sodipodi:nodetypes="ccccccc" />
    <rect
       style="fill:#000000;fill-opacity:1;stroke:none;stroke-width:2.67253"
       id="rect999"
       width="6"
       height="1"
       x="54"
       y="51" />
    <path
       id="path1001"
       style="fill:#000000;fill-opacity:1;stroke:none;stroke-width:3.77953"
       d="m 57,46 a 3,2 0 0 0 -3,2 3,2 0 0 0 3,2 3,2 0 0 0 3,-2 3,2 0 0 0 -3,-2 z m -0.06445,1 A 2,1 0 0 1 57,47 a 2,1 0 0 1 2,1 2,1 0 0 1 -2,1 2,1 0 0 1 -2,-1 2,1 0 0 1 1.935547,-1 z" />
    <path
       id="path1008"
       style="fill:#000000;fill-opacity:1;stroke:none;stroke-width:3.77953"
       d="m 57,41 a 3,2 0 0 0 -3,2 3,2 0 0 0 3,2 3,2 0 0 0 3,-2 3,2 0 0 0 -3,-2 z m -0.06445,1 A 2,1 0 0 1 57,42 a 2,1 0 0 1 2,1 2,1 0 0 1 -2,1 2,1 0 0 1 -2,-1 2,1 0 0 1 1.935547,-1 z" />
    <rect
       style="fill:#000000;fill-opacity:0.2;stroke:none;stroke-width:3.77953"
       id="rect1010"
       width="40"
       height="2"
       x="20"
       y="61"
       ry="1" />
    <rect
       style="fill:#000000;fill-opacity:0.2;stroke:none;stroke-width:3.77953"
       id="rect1012"
       width="40"
       height="2"
       x="20"
       y="65"
       ry="1" />
    <path
       style="fill:#000000;fill-opacity:1;fill-rule:evenodd;stroke:none;stroke-width:1px;stroke-linecap:butt;stroke-linejoin:miter;stroke-opacity:1"
       d="m 23,42 h 8 l -4,6 h 4 v 2 h -8 l 4,-6 h -4 z"
       id="path1014"
       sodipodi:nodetypes="ccccccccc" />
    <path
       style="fill:#000000;fill-opacity:1;fill-rule:evenodd;stroke:none;stroke-width:1px;stroke-linecap:butt;stroke-linejoin:miter;stroke-opacity:1"
       d="m 33,42 h 2 v 8 h -2 z"
       id="path1016" />
    <path
       id="path1018"
       style="fill:#000000;fill-opacity:1;fill-rule:evenodd;stroke:none;stroke-width:1px;stroke-linecap:butt;stroke-linejoin:miter;stroke-opacity:1"
       d="m 37,42 v 4 7 h 2 v -3.535156 c 0.608149,0.350814 1.297921,0.535382 2,0.535156 2.209139,0 4,-1.790861 4,-4 0,-2.209139 -1.790861,-4 -4,-4 -0.02018,-1.53e-4 -0.04037,-1.53e-4 -0.06055,0 C 40.257932,42.010231 39.59033,42.194443 39,42.535156 V 42 Z m 3.949219,2 h 0.002 c 0.01626,-1.98e-4 0.03252,-1.98e-4 0.04878,0 1.104569,0 2,0.895431 2,2 0,1.104569 -0.895431,2 -2,2 -1.085779,3.24e-4 -1.973492,-0.865717 -2,-1.951172 -1.99e-4,-0.01628 -1.99e-4,-0.03255 0,-0.04883 -3.5e-4,-1.085038 0.86453,-1.97245 1.949219,-2 z"
       sodipodi:nodetypes="ccccccsccccccccscccc" />
    <circle
       style="fill:#000000;fill-opacity:1;stroke:none;stroke-width:3.77953"
       id="path1028"
       cx="34"
       cy="40"
       r="1" />
  </g>
</svg>
