<?xml version="1.0" encoding="UTF-8" standalone="no"?>
<svg
   xmlns:dc="http://purl.org/dc/elements/1.1/"
   xmlns:cc="http://creativecommons.org/ns#"
   xmlns:rdf="http://www.w3.org/1999/02/22-rdf-syntax-ns#"
   xmlns:svg="http://www.w3.org/2000/svg"
   xmlns="http://www.w3.org/2000/svg"
   xmlns:sodipodi="http://sodipodi.sourceforge.net/DTD/sodipodi-0.dtd"
   xmlns:inkscape="http://www.inkscape.org/namespaces/inkscape"
   inkscape:export-ydpi="96"
   inkscape:export-xdpi="96"
   inkscape:export-filename="/home/raster/C/th-efl/th/img/ic/zoom-out-015.png"
   inkscape:version="1.0.1 (3bc2e813f5, 2020-09-07)"
   sodipodi:docname="zoom-out.svg"
   viewBox="0 0 15 15"
   height="15"
   width="15"
   id="svg2"
   version="1.1">
  <metadata
     id="metadata8">
    <rdf:RDF>
      <cc:Work
         rdf:about="">
        <dc:format>image/svg+xml</dc:format>
        <dc:type
           rdf:resource="http://purl.org/dc/dcmitype/StillImage" />
        <dc:title></dc:title>
      </cc:Work>
    </rdf:RDF>
  </metadata>
  <defs
     id="defs6" />
  <sodipodi:namedview
     inkscape:current-layer="g10"
     inkscape:window-maximized="1"
     inkscape:window-y="0"
     inkscape:window-x="0"
     inkscape:cy="7.5"
     inkscape:cx="7.5"
     inkscape:zoom="80.866667"
     showgrid="true"
     id="namedview4"
     inkscape:window-height="1377"
     inkscape:window-width="2560"
     inkscape:pageshadow="2"
     inkscape:pageopacity="0"
     guidetolerance="10"
     gridtolerance="10"
     objecttolerance="10"
     borderopacity="1"
     bordercolor="#666666"
     pagecolor="#404040"
     inkscape:document-rotation="0"
     inkscape:snap-bbox="true"
     inkscape:bbox-nodes="true"
     inkscape:bbox-paths="true">
    <inkscape:grid
       spacingy="0.5"
       spacingx="0.5"
       id="grid837"
       type="xygrid" />
  </sodipodi:namedview>
  <g
     id="g10"
     inkscape:label="Image"
     inkscape:groupmode="layer">
    <rect
       style="fill:#ffffff;stroke-width:0.866022;stroke-linecap:round;stroke-linejoin:round;stroke-opacity:0.2"
       id="rect2748"
       width="1"
       height="3"
       x="7"
       y="-7"
       transform="rotate(90)" />
    <path
       id="path2761"
       style="fill:#ffffff;stroke-linecap:round;stroke-linejoin:round;stroke-opacity:0.2"
       d="m 5.5,3 a 4.5,4.5 0 0 0 -0.9023438,0.091797 4.5,4.5 0 0 0 -0.00391,0 c -0.00204,4.181e-4 -0.00382,0.00153 -0.00586,0.00195 a 4.5,4.5 0 0 0 -0.8222656,0.2539062 4.5,4.5 0 0 0 -0.00391,0.00195 c -0.012458,0.00522 -0.024709,0.010293 -0.037109,0.015625 A 4.5,4.5 0 0 0 2.9863281,3.765625 c -7.3e-4,4.926e-4 -0.00122,0.00146 -0.00195,0.00195 a 4.5,4.5 0 0 0 -0.00586,0.00391 4.5,4.5 0 0 0 -0.6582031,0.5449218 c -0.0013,0.00129 -0.00261,0.00261 -0.00391,0.00391 A 4.5,4.5 0 0 0 1.7832031,4.9667969 c -0.00902,0.013205 -0.018459,0.025757 -0.027344,0.039063 A 4.5,4.5 0 0 0 1.3632812,5.7285156 c -0.0061,0.014238 -0.011616,0.028656 -0.017578,0.042969 a 4.5,4.5 0 0 0 -0.25,0.8085937 c -0.00203,0.00976 -0.00389,0.019518 -0.00586,0.029297 A 4.5,4.5 0 0 0 1,7.5 4.5,4.5 0 0 0 1.0917969,8.4023438 c 6.711e-4,0.00329 0.00127,0.00647 0.00195,0.00977 a 4.5,4.5 0 0 0 0.2539062,0.8222656 4.5,4.5 0 0 0 0.00195,0.00391 c 0.00522,0.012458 0.010293,0.024709 0.015625,0.037109 A 4.5,4.5 0 0 0 1.765625,10.013672 c 4.926e-4,7.3e-4 0.00146,0.0012 0.00195,0.002 a 4.5,4.5 0 0 0 0.00391,0.0059 4.5,4.5 0 0 0 0.5449218,0.658204 c 0.00129,0.0013 0.00261,0.0026 0.00391,0.0039 a 4.5,4.5 0 0 0 0.6464844,0.533203 c 0.013205,0.009 0.025757,0.01846 0.039063,0.02734 a 4.5,4.5 0 0 0 0.7226562,0.392578 c 0.014237,0.0061 0.028656,0.01162 0.042969,0.01758 a 4.5,4.5 0 0 0 0.8085937,0.25 c 0.00976,0.002 0.019518,0.0039 0.029297,0.0059 A 4.5,4.5 0 0 0 5.5,12 a 4.5,4.5 0 0 0 0.6777344,-0.05273 4.5,4.5 0 0 0 0.011719,0 c 0.00718,-0.0011 0.014307,-0.0028 0.021484,-0.0039 a 4.5,4.5 0 0 0 0.6386719,-0.15039 4.5,4.5 0 0 0 0.011719,-0.0039 c 0.00335,-0.0011 0.00642,-0.0028 0.00977,-0.0039 a 4.5,4.5 0 0 0 0.6171874,-0.25 4.5,4.5 0 0 0 0.00977,-0.0039 c 0.00259,-0.0013 0.00522,-0.0026 0.00781,-0.0039 a 4.5,4.5 0 0 0 0.5800781,-0.345703 4.5,4.5 0 0 0 0.00781,-0.0039 l 2.755859,0.738282 v -0.002 C 11.06169,11.97115 11.280369,12.000048 11.5,12 12.880712,12 14,10.880712 14,9.5 13.999355,8.3680472 13.238218,7.3777688 12.144531,7.0859375 l -0.03516,-0.00977 -2.2265625,-0.5957031 c -4.74e-4,-0.00204 -0.00148,-0.00382 -0.00195,-0.00586 A 4.5,4.5 0 0 0 9.6503906,5.7617188 4.5,4.5 0 0 0 9.6445312,5.7460938 c -0.00206,-0.00488 -0.00573,-0.0088 -0.00781,-0.013672 A 4.5,4.5 0 0 0 9.3046875,5.0976562 c -0.00832,-0.013173 -0.01694,-0.025987 -0.025391,-0.039062 A 4.5,4.5 0 0 0 8.84375,4.4882812 4.5,4.5 0 0 0 8.8398438,4.484375 c -0.00124,-0.00137 -0.00267,-0.00254 -0.00391,-0.00391 a 4.5,4.5 0 0 0 -0.5273437,-0.4941407 4.5,4.5 0 0 0 -0.00977,-0.00977 c -0.00297,-0.00236 -0.00679,-0.00351 -0.00977,-0.00586 A 4.5,4.5 0 0 0 7.6875,3.5683594 a 4.5,4.5 0 0 0 -0.00586,-0.00391 c -0.00127,-7.025e-4 -0.00264,-0.00125 -0.00391,-0.00195 A 4.5,4.5 0 0 0 7,3.2578125 4.5,4.5 0 0 0 6.2832031,3.0703125 c -0.00982,-0.00173 -0.019454,-0.00419 -0.029297,-0.00586 A 4.5,4.5 0 0 0 5.5,3 Z m 0,1 c 0.1274518,2.7e-5 0.2600991,0.010473 0.3925781,0.021484 A 3.5,3.5 0 0 1 9,7.5 3.5,3.5 0 0 1 5.5,11 c -0.232943,0 -0.4594765,-0.02495 -0.6796875,-0.06836 a 3.5,3.5 0 0 1 -0.048828,-0.0098 C 4.5605084,10.877123 4.3552105,10.813312 4.1601562,10.732422 a 3.5,3.5 0 0 1 -0.037109,-0.01563 3.5,3.5 0 0 1 -0.00391,-0.002 C 3.9166084,10.627784 3.7236279,10.524395 3.5429688,10.402344 3.3567675,10.276549 3.1837345,10.132953 3.0253906,9.9746094 2.8709991,9.8202179 2.7309248,9.6516343 2.6074219,9.4707031 2.6018051,9.4624746 2.5973451,9.4535912 2.5917969,9.4453125 2.4720198,9.2665869 2.3688598,9.0769175 2.2832031,8.8769531 c -0.00116,-0.0027 -0.00276,-0.00511 -0.00391,-0.00781 a 3.5,3.5 0 0 1 -0.00977,-0.021484 C 2.1866421,8.6490663 2.1215266,8.4397528 2.0761719,8.2246094 a 3.5,3.5 0 0 1 -0.00781,-0.041016 C 2.0244647,7.9622147 2,7.7342685 2,7.5 2,7.267057 2.0249481,7.0405235 2.0683594,6.8203125 a 3.5,3.5 0 0 1 0.00977,-0.048828 C 2.1228772,6.5605084 2.1866883,6.3552105 2.2675781,6.1601562 a 3.5,3.5 0 0 1 0.015625,-0.037109 3.5,3.5 0 0 1 0.00195,-0.00391 C 2.3722165,5.9166084 2.4756054,5.7236279 2.5976562,5.5429688 2.7234513,5.3567675 2.8670468,5.1837345 3.0253906,5.0253906 3.1797821,4.8709991 3.3483657,4.7309248 3.5292969,4.6074219 c 0.00823,-0.00562 0.017112,-0.010077 0.025391,-0.015625 0.1787256,-0.1197771 0.368395,-0.2229371 0.5683594,-0.3085938 0.0027,-0.00116 0.00511,-0.00276 0.00781,-0.00391 a 3.5,3.5 0 0 1 0.021484,-0.00977 C 4.3509337,4.1866421 4.5602472,4.1215266 4.7753906,4.0761719 a 3.5,3.5 0 0 1 0.041016,-0.00781 C 5.0377853,4.0244647 5.2657315,4 5.5,4 Z" />
  </g>
</svg>
