<?xml version="1.0" encoding="UTF-8" standalone="no"?>
<!-- Created with Inkscape (http://www.inkscape.org/) -->

<svg
   xmlns:dc="http://purl.org/dc/elements/1.1/"
   xmlns:cc="http://creativecommons.org/ns#"
   xmlns:rdf="http://www.w3.org/1999/02/22-rdf-syntax-ns#"
   xmlns:svg="http://www.w3.org/2000/svg"
   xmlns="http://www.w3.org/2000/svg"
   xmlns:sodipodi="http://sodipodi.sourceforge.net/DTD/sodipodi-0.dtd"
   xmlns:inkscape="http://www.inkscape.org/namespaces/inkscape"
   width="128"
   height="128"
   id="svg3027"
   version="1.1"
   inkscape:version="0.48.5 r10040"
   sodipodi:docname="BASE.svg"
   inkscape:export-xdpi="90"
   inkscape:export-ydpi="90">
  <metadata
     id="metadata5">
    <rdf:RDF>
      <cc:Work
         rdf:about="">
        <dc:format>image/svg+xml</dc:format>
        <dc:type
           rdf:resource="http://purl.org/dc/dcmitype/StillImage" />
        <dc:title></dc:title>
      </cc:Work>
    </rdf:RDF>
  </metadata>
  <defs
     id="defs3029" />
  <sodipodi:namedview
     id="base"
     pagecolor="#ffffff"
     bordercolor="#666666"
     borderopacity="1.0"
     inkscape:pageopacity="0.0"
     inkscape:pageshadow="2"
     inkscape:zoom="3.959798"
     inkscape:cx="66.06226"
     inkscape:cy="74.589172"
     inkscape:document-units="px"
     inkscape:current-layer="svg3027"
     showgrid="true"
     inkscape:window-width="1013"
     inkscape:window-height="847"
     inkscape:window-x="1932"
     inkscape:window-y="1"
     inkscape:window-maximized="0"
     inkscape:showpageshadow="false"
     borderlayer="false"
     showguides="true"
     inkscape:guide-bbox="true"
     inkscape:snap-to-guides="false"
     inkscape:snap-grids="false">
    <inkscape:grid
       type="xygrid"
       id="grid2981"
       empspacing="4"
       visible="true"
       enabled="true"
       snapvisiblegridlinesonly="true"
       spacingx="4px"
       spacingy="4px"
       dotted="false" />
    <sodipodi:guide
       orientation="0,1"
       position="0,120"
       id="guide2999" />
    <sodipodi:guide
       orientation="1,0"
       position="120,128"
       id="guide3001" />
    <sodipodi:guide
       orientation="0,1"
       position="0,8"
       id="guide3003" />
    <sodipodi:guide
       orientation="1,0"
       position="8,128"
       id="guide3005" />
  </sodipodi:namedview>
  <path
     style="color:#000000;fill:#3399ff;fill-opacity:1;fill-rule:nonzero;stroke:none;stroke-width:1;marker:none;visibility:visible;display:inline;overflow:visible;enable-background:accumulate"
     d="m 32.078482,8.3083521 c -5.45145,0 -9.862524,4.4744669 -9.862524,9.9967079 l 0,32.942173 12.881664,0 0,-23.616385 0,-2.146944 c 0,-2.378814 1.915074,-4.293888 4.293888,-4.293888 l 2.146944,0 55.820545,0 2.146944,0 c 2.378807,0 4.293887,1.915074 4.293887,4.293888 l 0,2.146944 0,72.996092 0,2.14695 c 0,2.37881 -1.91508,4.29389 -4.293887,4.29389 l -2.146944,0 -55.820545,0 -2.146944,0 c -2.378814,0 -4.293888,-1.91508 -4.293888,-4.29389 l 0,-2.14695 0,-21.469435 -12.881664,0 0,30.795225 c 0,5.52224 4.411074,9.99671 9.862524,9.99671 l 74.740488,0 c 5.45145,0 9.86252,-4.47447 9.86252,-9.99671 l 0,-91.64767 c 0,-5.522241 -4.41107,-9.9967079 -9.86252,-9.9967079 z m 11.606916,30.0572159 0,17.175552 -30.057216,0 0,19.322497 30.057216,0 0,17.175552 25.763328,-27.910273 z"
     id="rect2957"
     inkscape:connector-curvature="0"
     sodipodi:nodetypes="sscccssccssccssccsscccssssssscccccccc" />
</svg>
