<?xml version="1.0" encoding="UTF-8" standalone="no"?>
<!-- Created with Inkscape (http://www.inkscape.org/) -->

<svg
   xmlns:dc="http://purl.org/dc/elements/1.1/"
   xmlns:cc="http://creativecommons.org/ns#"
   xmlns:rdf="http://www.w3.org/1999/02/22-rdf-syntax-ns#"
   xmlns:svg="http://www.w3.org/2000/svg"
   xmlns="http://www.w3.org/2000/svg"
   xmlns:sodipodi="http://sodipodi.sourceforge.net/DTD/sodipodi-0.dtd"
   xmlns:inkscape="http://www.inkscape.org/namespaces/inkscape"
   width="128"
   height="128"
   id="svg3027"
   version="1.1"
   inkscape:version="0.48.5 r10040"
   sodipodi:docname="ZZ-BASE.svg"
   inkscape:export-xdpi="90"
   inkscape:export-ydpi="90">
  <metadata
     id="metadata5">
    <rdf:RDF>
      <cc:Work
         rdf:about="">
        <dc:format>image/svg+xml</dc:format>
        <dc:type
           rdf:resource="http://purl.org/dc/dcmitype/StillImage" />
        <dc:title></dc:title>
      </cc:Work>
    </rdf:RDF>
  </metadata>
  <defs
     id="defs3029" />
  <sodipodi:namedview
     id="base"
     pagecolor="#ffffff"
     bordercolor="#666666"
     borderopacity="1.0"
     inkscape:pageopacity="0.0"
     inkscape:pageshadow="2"
     inkscape:zoom="3.959798"
     inkscape:cx="66.06226"
     inkscape:cy="74.589172"
     inkscape:document-units="px"
     inkscape:current-layer="svg3027"
     showgrid="true"
     inkscape:window-width="1013"
     inkscape:window-height="847"
     inkscape:window-x="1821"
     inkscape:window-y="12"
     inkscape:window-maximized="0"
     inkscape:showpageshadow="false"
     borderlayer="false"
     showguides="true"
     inkscape:guide-bbox="true"
     inkscape:snap-to-guides="false"
     inkscape:snap-grids="false">
    <inkscape:grid
       type="xygrid"
       id="grid2981"
       empspacing="4"
       visible="true"
       enabled="true"
       snapvisiblegridlinesonly="true"
       spacingx="4px"
       spacingy="4px"
       dotted="false" />
    <sodipodi:guide
       orientation="0,1"
       position="0,120"
       id="guide2999" />
    <sodipodi:guide
       orientation="1,0"
       position="120,128"
       id="guide3001" />
    <sodipodi:guide
       orientation="0,1"
       position="0,8"
       id="guide3003" />
    <sodipodi:guide
       orientation="1,0"
       position="8,128"
       id="guide3005" />
  </sodipodi:namedview>
  <path
     style="fill:#3399ff;fill-opacity:1;stroke:none;display:inline"
     d="m 64.018417,13.627348 c -30.8477,0 -55.8547013,20.460275 -55.8547013,45.699301 0,16.07674 10.1549943,30.20125 25.4942863,38.347214 -0.583301,4.246237 -3.239596,14.640397 -15.81492,18.195097 16.287425,1.77012 27.104088,-6.17162 32.846373,-12.16533 4.271203,0.8556 8.73545,1.32232 13.328962,1.32232 30.8477,0 55.854703,-20.460274 55.854703,-45.699301 0,-25.239026 -25.007003,-45.699301 -55.854703,-45.699301 z m 0.846284,14.809959 c 5.097371,5.7e-5 9.443401,1.315197 13.011606,4.019846 3.873984,2.959915 5.818159,6.950786 5.818198,11.900859 -3.9e-5,3.827449 -1.146154,7.082341 -3.490919,9.838044 -0.713669,0.918609 -2.884766,2.799886 -6.45291,5.606628 -2.344828,1.888213 -3.490943,3.656264 -3.490919,5.28927 l 0,2.644636 -14.175246,0 0,-4.337202 c -10e-6,-2.90881 1.142269,-5.591982 3.385133,-8.092585 0.05096,-0.102028 2.110516,-2.038065 6.188447,-5.712412 2.242832,-1.990218 3.332217,-3.816742 3.332241,-5.500842 -2.4e-5,-1.122666 -0.40289,-2.035928 -1.269425,-2.750421 -0.866577,-0.765438 -1.895397,-1.163596 -3.067777,-1.16364 -1.529236,4.4e-5 -2.673433,0.569905 -3.438026,1.692567 -0.764624,1.122749 -1.108843,2.490783 -1.057855,4.072739 l -13.699211,0 0,-1.216533 c 0,-5.052139 1.885526,-9.101483 5.606627,-12.11243 3.415244,-2.806712 7.651652,-4.178467 12.800036,-4.178524 z m -1.480996,45.223266 c 2.293808,1.2e-5 4.126442,0.741573 5.553734,2.221494 1.47822,1.479942 2.221469,3.363079 2.221494,5.65952 -2.5e-5,2.296449 -0.743274,4.177727 -2.221494,5.606627 -1.427292,1.47993 -3.259926,2.221489 -5.553734,2.221494 -2.293844,-5e-6 -4.181288,-0.741564 -5.65952,-2.221494 -1.427282,-1.4289 -2.168611,-3.310178 -2.168601,-5.606627 -1e-5,-2.296441 0.741319,-4.179578 2.168601,-5.65952 1.478232,-1.479921 3.365676,-2.221482 5.65952,-2.221494 z"
     id="path3625"
     inkscape:connector-curvature="0" />
</svg>
