<?xml version="1.0" encoding="UTF-8" standalone="no"?>
<!-- Created with Inkscape (http://www.inkscape.org/) -->

<svg
   xmlns:dc="http://purl.org/dc/elements/1.1/"
   xmlns:cc="http://creativecommons.org/ns#"
   xmlns:rdf="http://www.w3.org/1999/02/22-rdf-syntax-ns#"
   xmlns:svg="http://www.w3.org/2000/svg"
   xmlns="http://www.w3.org/2000/svg"
   xmlns:xlink="http://www.w3.org/1999/xlink"
   xmlns:sodipodi="http://sodipodi.sourceforge.net/DTD/sodipodi-0.dtd"
   xmlns:inkscape="http://www.inkscape.org/namespaces/inkscape"
   width="128"
   height="128"
   id="svg2408"
   sodipodi:version="0.32"
   inkscape:version="0.48.5 r10040"
   version="1.0"
   sodipodi:docname="mail-send-receive.svg"
   inkscape:output_extension="org.inkscape.output.svg.inkscape">
  <defs
     id="defs2410">
    <linearGradient
       id="linearGradient3955">
      <stop
         style="stop-color:#3399ff;stop-opacity:1;"
         offset="0"
         id="stop3957" />
      <stop
         style="stop-color:#3399ff;stop-opacity:0;"
         offset="1"
         id="stop3959" />
    </linearGradient>
    <linearGradient
       id="linearGradient3727">
      <stop
         id="stop3729"
         offset="0"
         style="stop-color:#d5d5d5;stop-opacity:1;" />
      <stop
         id="stop3731"
         offset="1"
         style="stop-color:#f1f1f1;stop-opacity:1;" />
    </linearGradient>
    <linearGradient
       inkscape:collect="always"
       id="linearGradient3641">
      <stop
         style="stop-color:#000000;stop-opacity:1;"
         offset="0"
         id="stop3643" />
      <stop
         style="stop-color:#000000;stop-opacity:0;"
         offset="1"
         id="stop3645" />
    </linearGradient>
    <linearGradient
       id="ButtonShadow"
       gradientTransform="scale(1.0058652,0.994169)"
       x1="45.447727"
       y1="92.539597"
       x2="45.447727"
       y2="7.0165396"
       gradientUnits="userSpaceOnUse">
      <stop
         style="stop-color:#000000;stop-opacity:1;"
         offset="0"
         id="stop3750" />
      <stop
         style="stop-color:#000000;stop-opacity:0.58823532;"
         offset="1"
         id="stop3752" />
    </linearGradient>
    <linearGradient
       inkscape:collect="always"
       id="linearGradient3737">
      <stop
         style="stop-color:#ffffff;stop-opacity:1;"
         offset="0"
         id="stop3739" />
      <stop
         style="stop-color:#ffffff;stop-opacity:0;"
         offset="1"
         id="stop3741" />
    </linearGradient>
    <linearGradient
       id="linearGradient3700">
      <stop
         style="stop-color:#dcdcdc;stop-opacity:1;"
         offset="0"
         id="stop3702" />
      <stop
         style="stop-color:#f0f0f0;stop-opacity:1;"
         offset="1"
         id="stop3704" />
    </linearGradient>
    <filter
       inkscape:collect="always"
       id="filter3174"
       color-interpolation-filters="sRGB">
      <feGaussianBlur
         inkscape:collect="always"
         stdDeviation="1.71"
         id="feGaussianBlur3176" />
    </filter>
    <filter
       inkscape:collect="always"
       id="filter3794"
       x="-0.192"
       width="1.3839999"
       y="-0.192"
       height="1.3839999"
       color-interpolation-filters="sRGB">
      <feGaussianBlur
         inkscape:collect="always"
         stdDeviation="5.28"
         id="feGaussianBlur3796" />
    </filter>
    <linearGradient
       inkscape:collect="always"
       xlink:href="#linearGradient3737"
       id="linearGradient3613"
       x1="48"
       y1="20.220806"
       x2="48"
       y2="138.66119"
       gradientUnits="userSpaceOnUse" />
    <radialGradient
       inkscape:collect="always"
       xlink:href="#linearGradient3737"
       id="radialGradient3619"
       cx="48"
       cy="90.171875"
       fx="48"
       fy="90.171875"
       r="42"
       gradientTransform="matrix(1.5798388,0,0,1.3595059,-11.026615,-34.426067)"
       gradientUnits="userSpaceOnUse" />
    <clipPath
       clipPathUnits="userSpaceOnUse"
       id="clipPath3613">
      <rect
         ry="6"
         rx="6"
         y="6"
         x="6"
         height="84"
         width="84"
         id="rect3615"
         style="fill:#ffffff;fill-opacity:1;fill-rule:nonzero;stroke:none" />
    </clipPath>
    <linearGradient
       inkscape:collect="always"
       xlink:href="#linearGradient3700"
       id="linearGradient3627"
       x1="48"
       y1="88"
       x2="48"
       y2="32"
       gradientUnits="userSpaceOnUse"
       gradientTransform="matrix(1.3650922,0,0,1.3650922,-0.71877532,-34.695171)" />
    <linearGradient
       inkscape:collect="always"
       xlink:href="#linearGradient3727"
       id="linearGradient3635"
       x1="48"
       y1="88"
       x2="48"
       y2="36"
       gradientUnits="userSpaceOnUse"
       gradientTransform="matrix(1.3650922,0,0,1.3650922,-0.71877532,-34.695171)" />
    <filter
       inkscape:collect="always"
       id="filter3649"
       color-interpolation-filters="sRGB">
      <feGaussianBlur
         inkscape:collect="always"
         stdDeviation="1.38"
         id="feGaussianBlur3651" />
    </filter>
    <filter
       inkscape:collect="always"
       id="filter3665"
       color-interpolation-filters="sRGB">
      <feGaussianBlur
         inkscape:collect="always"
         stdDeviation="0.69"
         id="feGaussianBlur3667" />
    </filter>
    <linearGradient
       inkscape:collect="always"
       xlink:href="#linearGradient3737"
       id="linearGradient3687"
       gradientUnits="userSpaceOnUse"
       x1="36.357143"
       y1="6"
       x2="36.357143"
       y2="63.893143"
       gradientTransform="matrix(1.3650922,0,0,1.3650922,-0.71877532,-34.695171)" />
    <linearGradient
       inkscape:collect="always"
       xlink:href="#linearGradient3700"
       id="linearGradient3689"
       gradientUnits="userSpaceOnUse"
       x1="48"
       y1="90"
       x2="48"
       y2="5.9877172"
       gradientTransform="matrix(1.3650922,0,0,1.3650922,-0.71877532,-34.695171)" />
    <clipPath
       clipPathUnits="userSpaceOnUse"
       id="clipPath3696">
      <rect
         ry="6"
         rx="6"
         y="6"
         x="106"
         height="84"
         width="84"
         id="rect3698"
         style="fill:#ff00ff;fill-opacity:1;fill-rule:nonzero;stroke:none" />
    </clipPath>
    <linearGradient
       inkscape:collect="always"
       xlink:href="#linearGradient3641"
       id="linearGradient3701"
       gradientUnits="userSpaceOnUse"
       gradientTransform="translate(100,0)"
       x1="48"
       y1="32"
       x2="48"
       y2="80" />
    <clipPath
       clipPathUnits="userSpaceOnUse"
       id="clipPath3703">
      <rect
         style="fill:#ff00ff;fill-opacity:1;fill-rule:nonzero;stroke:none"
         id="rect3705"
         width="84"
         height="84"
         x="106"
         y="6"
         rx="6"
         ry="6" />
    </clipPath>
    <linearGradient
       inkscape:collect="always"
       xlink:href="#linearGradient3641"
       id="linearGradient3707"
       gradientUnits="userSpaceOnUse"
       gradientTransform="translate(100,-1)"
       x1="51"
       y1="62"
       x2="51"
       y2="21" />
    <linearGradient
       inkscape:collect="always"
       id="linearGradient3737-3">
      <stop
         style="stop-color:#ffffff;stop-opacity:1;"
         offset="0"
         id="stop3739-5" />
      <stop
         style="stop-color:#ffffff;stop-opacity:0;"
         offset="1"
         id="stop3741-7" />
    </linearGradient>
    <radialGradient
       r="42"
       fy="90.171875"
       fx="48"
       cy="90.171875"
       cx="48"
       gradientTransform="matrix(1.5798388,0,0,1.3595059,-11.026615,-34.426067)"
       gradientUnits="userSpaceOnUse"
       id="radialGradient2858"
       xlink:href="#linearGradient3737-3"
       inkscape:collect="always" />
    <linearGradient
       id="ButtonShadow-0"
       gradientTransform="matrix(1.0058652,0,0,0.994169,100,0)"
       x1="45.447727"
       y1="92.539597"
       x2="45.447727"
       y2="7.0165396"
       gradientUnits="userSpaceOnUse">
      <stop
         style="stop-color:#000000;stop-opacity:1;"
         offset="0"
         id="stop3750-8" />
      <stop
         style="stop-color:#000000;stop-opacity:0.58823532;"
         offset="1"
         id="stop3752-5" />
    </linearGradient>
    <linearGradient
       inkscape:collect="always"
       xlink:href="#ButtonShadow-0"
       id="linearGradient3780"
       gradientUnits="userSpaceOnUse"
       gradientTransform="matrix(1.0238095,0,0,1.0119048,-1.1428571,-98.071429)"
       x1="32.251034"
       y1="6.1317081"
       x2="32.251034"
       y2="90.238609" />
    <linearGradient
       inkscape:collect="always"
       xlink:href="#ButtonShadow-0"
       id="linearGradient3772"
       gradientUnits="userSpaceOnUse"
       gradientTransform="matrix(1.0238095,0,0,1.0119048,-1.1428571,-98.071429)"
       x1="32.251034"
       y1="6.1317081"
       x2="32.251034"
       y2="90.238609" />
    <linearGradient
       inkscape:collect="always"
       xlink:href="#ButtonShadow-0"
       id="linearGradient3725"
       gradientUnits="userSpaceOnUse"
       gradientTransform="matrix(1.3975944,0,0,1.3813434,-2.2788807,-99.181375)"
       x1="32.251034"
       y1="6.1317081"
       x2="32.251034"
       y2="90.238609" />
    <linearGradient
       inkscape:collect="always"
       xlink:href="#ButtonShadow-0"
       id="linearGradient3721"
       gradientUnits="userSpaceOnUse"
       gradientTransform="matrix(1.3650922,0,0,1.3650922,-0.71877532,-97.718775)"
       x1="32.251034"
       y1="6.1317081"
       x2="32.251034"
       y2="90.238609" />
    <linearGradient
       y2="90.238609"
       x2="32.251034"
       y1="6.1317081"
       x1="32.251034"
       gradientTransform="matrix(1.0238095,0,0,1.0119048,-1.1428571,-98.071429)"
       gradientUnits="userSpaceOnUse"
       id="linearGradient2918"
       xlink:href="#ButtonShadow-0"
       inkscape:collect="always" />
    <linearGradient
       inkscape:collect="always"
       id="linearGradient4213-3">
      <stop
         style="stop-color:#ffffff;stop-opacity:1;"
         offset="0"
         id="stop4215-9" />
      <stop
         style="stop-color:#ffffff;stop-opacity:0;"
         offset="1"
         id="stop4217-9" />
    </linearGradient>
    <linearGradient
       inkscape:collect="always"
       id="linearGradient4226-7">
      <stop
         style="stop-color:#000000;stop-opacity:1;"
         offset="0"
         id="stop4228-2" />
      <stop
         style="stop-color:#000000;stop-opacity:0;"
         offset="1"
         id="stop4230-1" />
    </linearGradient>
    <linearGradient
       inkscape:collect="always"
       id="linearGradient4213-7">
      <stop
         style="stop-color:#ffffff;stop-opacity:1;"
         offset="0"
         id="stop4215-5" />
      <stop
         style="stop-color:#ffffff;stop-opacity:0;"
         offset="1"
         id="stop4217-3" />
    </linearGradient>
    <linearGradient
       inkscape:collect="always"
       id="linearGradient4226-1">
      <stop
         style="stop-color:#000000;stop-opacity:1;"
         offset="0"
         id="stop4228-7" />
      <stop
         style="stop-color:#000000;stop-opacity:0;"
         offset="1"
         id="stop4230-4" />
    </linearGradient>
    <linearGradient
       inkscape:collect="always"
       xlink:href="#linearGradient4226-1"
       id="linearGradient4098"
       gradientUnits="userSpaceOnUse"
       x1="52"
       y1="65"
       x2="52"
       y2="26" />
    <linearGradient
       inkscape:collect="always"
       xlink:href="#linearGradient4226-1"
       id="linearGradient4100"
       gradientUnits="userSpaceOnUse"
       gradientTransform="matrix(1,0,0,-1,0,75.963499)"
       x1="52"
       y1="43.705379"
       x2="52"
       y2="23.914003" />
    <linearGradient
       inkscape:collect="always"
       xlink:href="#linearGradient4226-1"
       id="linearGradient4102"
       gradientUnits="userSpaceOnUse"
       x1="52"
       y1="40.430462"
       x2="52"
       y2="24.144228" />
    <linearGradient
       inkscape:collect="always"
       xlink:href="#linearGradient4226-1"
       id="linearGradient4104"
       gradientUnits="userSpaceOnUse"
       gradientTransform="matrix(1,0,0,-1,0,75.963499)"
       x1="52"
       y1="43.62896"
       x2="52"
       y2="22.522953" />
    <linearGradient
       inkscape:collect="always"
       xlink:href="#linearGradient3955"
       id="linearGradient4106"
       gradientUnits="userSpaceOnUse"
       gradientTransform="matrix(0,1.724646,-1.61437,0,173.03675,84.837146)"
       x1="12.788539"
       y1="14.001868"
       x2="37.835972"
       y2="14.001868" />
    <linearGradient
       inkscape:collect="always"
       xlink:href="#linearGradient4213-7"
       id="linearGradient4108"
       gradientUnits="userSpaceOnUse"
       gradientTransform="matrix(1,0,0,-1,86.64929,162.79211)"
       x1="49"
       y1="62"
       x2="49"
       y2="21.222195" />
    <linearGradient
       inkscape:collect="always"
       xlink:href="#linearGradient4226-7"
       id="linearGradient4110"
       gradientUnits="userSpaceOnUse"
       x1="52"
       y1="65"
       x2="52"
       y2="26" />
    <linearGradient
       inkscape:collect="always"
       xlink:href="#linearGradient4226-7"
       id="linearGradient4112"
       gradientUnits="userSpaceOnUse"
       gradientTransform="translate(98.714887,4.8003532)"
       x1="52"
       y1="65"
       x2="52"
       y2="26" />
    <linearGradient
       inkscape:collect="always"
       xlink:href="#linearGradient4226-7"
       id="linearGradient4114"
       gradientUnits="userSpaceOnUse"
       x1="52"
       y1="65"
       x2="52"
       y2="26" />
    <linearGradient
       inkscape:collect="always"
       xlink:href="#linearGradient4226-7"
       id="linearGradient4116"
       gradientUnits="userSpaceOnUse"
       gradientTransform="translate(98.714887,4.8003532)"
       x1="52"
       y1="65"
       x2="52"
       y2="26" />
    <linearGradient
       inkscape:collect="always"
       xlink:href="#linearGradient3955"
       id="linearGradient4118"
       gradientUnits="userSpaceOnUse"
       gradientTransform="matrix(0,-1.724646,-1.61437,0,185.10235,82.755318)"
       x1="12.788539"
       y1="14.001868"
       x2="37.835972"
       y2="14.001868" />
    <linearGradient
       inkscape:collect="always"
       xlink:href="#linearGradient4213-3"
       id="linearGradient4120"
       gradientUnits="userSpaceOnUse"
       gradientTransform="translate(98.714887,4.8003532)"
       x1="49"
       y1="62"
       x2="49"
       y2="34" />
  </defs>
  <sodipodi:namedview
     id="base"
     pagecolor="#ffffff"
     bordercolor="#666666"
     borderopacity="1.0"
     inkscape:pageopacity="0.0"
     inkscape:pageshadow="2"
     inkscape:zoom="4.6412958"
     inkscape:cx="24.795196"
     inkscape:cy="69.291327"
     inkscape:document-units="px"
     inkscape:current-layer="layer3"
     showgrid="true"
     showborder="true"
     inkscape:showpageshadow="false"
     inkscape:window-width="1680"
     inkscape:window-height="987"
     inkscape:window-x="0"
     inkscape:window-y="-23"
     inkscape:window-maximized="0"
     showguides="true"
     inkscape:guide-bbox="true"
     inkscape:snap-grids="false"
     inkscape:snap-to-guides="false">
    <inkscape:grid
       type="xygrid"
       id="grid3732"
       visible="true"
       enabled="true"
       empspacing="4"
       snapvisiblegridlinesonly="true"
       spacingx="4px"
       spacingy="4px" />
  </sodipodi:namedview>
  <metadata
     id="metadata2413">
    <rdf:RDF>
      <cc:Work
         rdf:about="">
        <dc:format>image/svg+xml</dc:format>
        <dc:type
           rdf:resource="http://purl.org/dc/dcmitype/StillImage" />
        <dc:title />
      </cc:Work>
    </rdf:RDF>
  </metadata>
  <g
     inkscape:groupmode="layer"
     id="layer3"
     inkscape:label="Shadow"
     style="display:inline"
     transform="translate(0,32)">
    <path
       sodipodi:type="inkscape:offset"
       inkscape:radius="0.99097413"
       inkscape:original="M 12 -94.03125 C 7.028367 -94.03125 2.96875 -89.971633 2.96875 -85 L 2.96875 -14 C 2.96875 -9.0283671 7.0283671 -4.96875 12 -4.96875 L 84 -4.96875 C 88.971633 -4.96875 93.03125 -9.028367 93.03125 -14 L 93.03125 -85 C 93.03125 -89.971633 88.971633 -94.03125 84 -94.03125 L 12 -94.03125 z "
       style="opacity:0.07999998;fill:url(#linearGradient2918);fill-opacity:1;fill-rule:nonzero;stroke:none;display:inline"
       id="path3786"
       d="m 12,-95.03125 c -5.5110903,0 -10.03125,4.52016 -10.03125,10.03125 l 0,71 c 0,5.5110902 4.5201598,10.03125 10.03125,10.03125 l 72,0 c 5.51109,0 10.03125,-4.5201597 10.03125,-10.03125 l 0,-71 c 0,-5.51109 -4.52016,-10.03125 -10.03125,-10.03125 l -72,0 z"
       transform="matrix(1.3650922,0,0,-1.3650922,-0.71877532,-34.695171)" />
    <path
       sodipodi:type="inkscape:offset"
       inkscape:radius="1.0360184"
       inkscape:original="M 12 -93 C 7.5908667 -93 4 -89.409133 4 -85 L 4 -14 C 4 -9.5908667 7.5908667 -6 12 -6 L 84 -6 C 88.409133 -6 92 -9.5908667 92 -14 L 92 -85 C 92 -89.409133 88.409133 -93 84 -93 L 12 -93 z "
       style="opacity:0.1;fill:url(#linearGradient3780);fill-opacity:1;fill-rule:nonzero;stroke:none;display:inline"
       id="path3778"
       d="m 12,-94.03125 c -4.971633,0 -9.03125,4.059617 -9.03125,9.03125 l 0,71 c 0,4.9716329 4.0596171,9.03125 9.03125,9.03125 l 72,0 c 4.971633,0 9.03125,-4.059617 9.03125,-9.03125 l 0,-71 c 0,-4.971633 -4.059617,-9.03125 -9.03125,-9.03125 l -72,0 z"
       transform="matrix(1.3650922,0,0,-1.3650922,-0.71877532,-34.695171)" />
    <path
       sodipodi:type="inkscape:offset"
       inkscape:radius="0.98962283"
       inkscape:original="M 12 -92 C 8.122 -92 5 -88.878 5 -85 L 5 -14 C 5 -10.122 8.122 -7 12 -7 L 84 -7 C 87.878 -7 91 -10.122 91 -14 L 91 -85 C 91 -88.878 87.878 -92 84 -92 L 12 -92 z "
       style="opacity:0.2;fill:url(#linearGradient3772);fill-opacity:1;fill-rule:nonzero;stroke:none;display:inline"
       id="path3770"
       d="m 12,-93 c -4.4091333,0 -8,3.590867 -8,8 l 0,71 c 0,4.4091333 3.5908667,8 8,8 l 72,0 c 4.409133,0 8,-3.5908667 8,-8 l 0,-71 c 0,-4.409133 -3.590867,-8 -8,-8 l -72,0 z"
       transform="matrix(1.3650922,0,0,-1.3650922,-0.71877532,-34.695171)" />
    <rect
       style="opacity:0.3;fill:url(#linearGradient3725);fill-opacity:1;fill-rule:nonzero;stroke:none;display:inline"
       id="rect3723"
       width="117.39793"
       height="116.03284"
       x="6.1066856"
       y="-90.893311"
       rx="9.5556459"
       ry="9.5556459"
       transform="scale(1,-1)" />
    <rect
       transform="scale(1,-1)"
       ry="8.1905537"
       rx="8.1905537"
       y="-89.528221"
       x="7.4717779"
       height="114.66775"
       width="114.66775"
       id="rect3716"
       style="opacity:0.45;fill:url(#linearGradient3721);fill-opacity:1;fill-rule:nonzero;stroke:none;display:inline" />
  </g>
  <g
     inkscape:label="Button"
     inkscape:groupmode="layer"
     id="layer1"
     transform="translate(0,32)">
    <rect
       style="fill:url(#linearGradient3689);fill-opacity:1;fill-rule:nonzero;stroke:none"
       id="rect2419"
       width="114.66775"
       height="114.66775"
       x="7.4717779"
       y="-26.504618"
       rx="8.1905537"
       ry="8.1905537" />
    <path
       sodipodi:nodetypes="cccccccc"
       style="opacity:0.3;fill:url(#linearGradient3701);fill-opacity:1;stroke:none;filter:url(#filter3665)"
       d="m 112,89 c -3.324,0 -6,-2.676 -6,-6 l 0,-6 42,-42 42,42 0,6 c 0,3.324 -2.676,6 -6,6 l -72,0 z"
       id="path3653"
       clip-path="url(#clipPath3696)"
       transform="matrix(1.3650922,0,0,1.3650922,-137.228,-36.060263)"
       inkscape:connector-curvature="0" />
    <path
       id="path3619"
       d="m 15.662331,88.16313 c -4.537566,0 -8.190553,-3.652987 -8.190553,-8.190554 l 0,-8.190553 57.333874,-57.333874 57.333878,57.333874 0,8.190553 c 0,4.537567 -3.65299,8.190554 -8.19056,8.190554 l -98.286639,0 z"
       style="fill:url(#linearGradient3635);fill-opacity:1;stroke:none"
       sodipodi:nodetypes="cccccccc"
       inkscape:connector-curvature="0" />
    <path
       style="opacity:0.4;fill:#ffffff;fill-opacity:1;stroke:none"
       d="m 64.805652,14.448149 -57.333874,57.333874 0,1.365092 57.333874,-57.333873 57.333878,57.333873 0,-1.365092 -57.333878,-57.333874 z"
       id="path3718"
       inkscape:connector-curvature="0" />
    <path
       sodipodi:nodetypes="cccccccc"
       id="path3637"
       d="m 112,7 c -3.324,0 -6,2.676 -6,6 l 0,6 42,42 42,-42 0,-6 c 0,-3.324 -2.676,-6 -6,-6 l -72,0 z"
       style="opacity:0.4;fill:url(#linearGradient3707);fill-opacity:1;stroke:none;filter:url(#filter3649)"
       clip-path="url(#clipPath3703)"
       transform="matrix(1.3650922,0,0,1.3650922,-137.228,-33.330078)"
       inkscape:connector-curvature="0" />
    <path
       style="fill:url(#linearGradient3627);fill-opacity:1;stroke:none"
       d="m 15.662331,-26.504617 c -4.537566,0 -8.190553,3.652986 -8.190553,8.190553 l 0,8.190553 57.333874,57.333874 57.333878,-57.333874 0,-8.190553 c 0,-4.537567 -3.65299,-8.190553 -8.19056,-8.190553 l -98.286639,0 z"
       id="path3613"
       sodipodi:nodetypes="cccccccc"
       inkscape:connector-curvature="0" />
    <path
       style="opacity:0.6;fill:#ffffff;fill-opacity:1;stroke:none"
       d="m 7.471778,-11.488603 0,1.365092 57.333874,57.333874 57.333878,-57.333874 0,-1.365092 L 64.805652,45.845271 7.471778,-11.488603 z"
       id="path3709"
       inkscape:connector-curvature="0" />
  </g>
  <g
     inkscape:groupmode="layer"
     id="layer5"
     inkscape:label="Highlight"
     style="display:inline"
     transform="translate(0,32)">
    <rect
       style="opacity:0.1;fill:url(#linearGradient3613);fill-opacity:1;fill-rule:nonzero;stroke:#ffffff;stroke-width:0.5;stroke-linecap:round;stroke-linejoin:miter;stroke-miterlimit:4;stroke-opacity:1;stroke-dasharray:none;stroke-dashoffset:0;filter:url(#filter3794)"
       id="rect3171"
       width="66"
       height="66"
       x="15"
       y="15"
       rx="12"
       ry="12"
       clip-path="url(#clipPath3613)"
       transform="matrix(1.3650922,0,0,1.3650922,-0.71877532,-34.695171)" />
    <path
       id="path3615"
       d="m 15.662331,88.16313 c -4.537566,0 -8.190553,-3.652987 -8.190553,-8.190554 l 0,-2.730184 0,-92.826271 0,-2.730185 c 0,-0.456925 0.056447,-0.888265 0.1279774,-1.322433 0.06648,-0.403516 0.1324686,-0.814844 0.2559548,-1.194456 0.013487,-0.04147 0.028519,-0.08682 0.042659,-0.127977 0.1349598,-0.392834 0.3206331,-0.747323 0.5119095,-1.109138 0.1973812,-0.373362 0.4308451,-0.731163 0.6825462,-1.066478 0.251701,-0.335314 0.5102394,-0.646333 0.8105235,-0.938501 0.6005684,-0.584336 1.2871594,-1.111903 2.0476384,-1.493069 0.38024,-0.190584 0.782844,-0.337106 1.194456,-0.469251 -0.349739,0.136812 -0.664406,0.322533 -0.98116,0.51191 -0.01012,0.006 -0.03258,-0.0061 -0.04266,0 -0.04359,0.02635 -0.08503,0.05803 -0.127977,0.08532 -0.16435,0.104703 -0.315367,0.22321 -0.46925,0.341273 -0.144936,0.1103 -0.291149,0.219933 -0.426592,0.341273 -0.24289,0.220371 -0.474314,0.471487 -0.682546,0.725205 -0.146855,0.17781 -0.298128,0.362139 -0.4265912,0.554569 -0.034249,0.05239 -0.052482,0.117221 -0.085318,0.170637 -0.088407,0.140648 -0.1777726,0.279184 -0.2559548,0.426591 -0.1378857,0.265792 -0.2807651,0.56747 -0.3839322,0.853183 -0.010866,0.02977 -0.032201,0.05535 -0.042659,0.08532 -0.043444,0.12552 -0.048877,0.255041 -0.085318,0.383932 -0.041406,0.145543 -0.096088,0.277156 -0.1279774,0.426591 -0.099486,0.466196 -0.1706365,0.953115 -0.1706365,1.450411 l 0,2.730184 0,92.826272 0,2.730184 c 0,3.797479 3.0279817,6.825461 6.8254607,6.825461 l 2.730185,0 92.826274,0 2.73018,0 c 3.79748,0 6.82546,-3.027982 6.82546,-6.825461 l 0,-2.730184 0,-92.826272 0,-2.730184 c 0,-0.497296 -0.0711,-0.984215 -0.17063,-1.450411 -0.0603,-0.282428 -0.12065,-0.54284 -0.2133,-0.810523 -0.0105,-0.02996 -0.0318,-0.05555 -0.0427,-0.08532 -0.0856,-0.23717 -0.1889,-0.501602 -0.29861,-0.725206 -0.0568,-0.113029 -0.1079,-0.232003 -0.17064,-0.341273 -0.0745,-0.1327 -0.17306,-0.257115 -0.25595,-0.383932 -0.12847,-0.19243 -0.27974,-0.376759 -0.4266,-0.554569 -0.19544,-0.23814 -0.41381,-0.473684 -0.63988,-0.682546 -0.0153,-0.01392 -0.0273,-0.02887 -0.0427,-0.04266 -0.18891,-0.171395 -0.38918,-0.320027 -0.59723,-0.46925 -0.14002,-0.09986 -0.27891,-0.209356 -0.42659,-0.298614 -0.0101,-0.0061 -0.0325,0.006 -0.0427,0 -0.31675,-0.189377 -0.63142,-0.375098 -0.98116,-0.51191 0.41161,0.132141 0.81422,0.278667 1.19446,0.469251 0.76048,0.381166 1.44707,0.908733 2.04763,1.493069 0.30029,0.292168 0.55883,0.603187 0.81053,0.938501 0.2517,0.335315 0.48516,0.693116 0.68254,1.066478 0.19128,0.361815 0.37695,0.716304 0.51191,1.109138 0.0142,0.04202 0.0291,0.08565 0.0427,0.127977 0.12349,0.379612 0.18948,0.79094 0.25596,1.194456 0.0715,0.434168 0.12798,0.865508 0.12798,1.322433 l 0,2.730185 0,92.826271 0,2.730184 c 0,4.537567 -3.65299,8.190554 -8.19056,8.190554 l -98.286639,0 z"
       style="opacity:0;fill:url(#radialGradient3619);fill-opacity:1;fill-rule:nonzero;stroke:none"
       inkscape:connector-curvature="0" />
    <path
       style="opacity:0.6;fill:url(#linearGradient3687);fill-opacity:1;fill-rule:nonzero;stroke:none"
       d="m 15.662331,-26.504617 c -4.537566,0 -8.190553,3.652986 -8.190553,8.190553 l 0,2.730185 0,92.826271 0,2.730184 c 0,0.456925 0.056447,0.888266 0.1279774,1.322433 0.06648,0.403516 0.1324686,0.814844 0.2559548,1.194456 0.013514,0.04147 0.028517,0.08682 0.042659,0.127978 0.134953,0.392834 0.3206328,0.747322 0.5119095,1.109137 0.1973815,0.373362 0.430845,0.731164 0.6825462,1.066478 0.2517011,0.335315 0.5102387,0.646333 0.8105235,0.938501 0.6005684,0.584336 1.2871594,1.111903 2.0476384,1.49307 0.38024,0.190583 0.782843,0.337105 1.194456,0.46925 -0.34974,-0.136812 -0.664406,-0.322533 -0.98116,-0.511909 -0.0101,-0.006 -0.03258,0.0061 -0.04266,0 -0.04359,-0.02635 -0.08503,-0.05803 -0.127977,-0.08532 -0.16435,-0.104702 -0.315368,-0.22321 -0.46925,-0.341273 C 11.37946,86.645079 11.233247,86.535446 11.097804,86.414105 10.854913,86.193734 10.623489,85.942619 10.415258,85.6889 10.268403,85.51109 10.11713,85.326762 9.9886668,85.134331 9.9544167,85.081939 9.936179,85.017111 9.9033486,84.963695 9.8149452,84.823047 9.7255753,84.68451 9.6473938,84.537104 9.5095085,84.271312 9.3666284,83.969633 9.2634616,83.683921 9.2525408,83.654148 9.2312591,83.628566 9.2208025,83.598603 9.1773516,83.473082 9.1719322,83.343561 9.1354842,83.21467 9.0940782,83.069127 9.0393967,82.937514 9.0075068,82.788079 8.9080202,82.321884 8.8368703,81.834965 8.8368703,81.337669 l 0,-2.730185 0,-92.826271 0,-2.730185 c 0,-3.797479 3.0279817,-6.825461 6.8254607,-6.825461 l 2.730185,0 92.826274,0 2.73018,0 c 3.79748,0 6.82546,3.027982 6.82546,6.825461 l 0,2.730185 0,92.826271 0,2.730185 c 0,0.497296 -0.0711,0.984215 -0.17063,1.45041 -0.0603,0.282428 -0.12065,0.54284 -0.2133,0.810524 -0.0105,0.02996 -0.0318,0.05555 -0.0427,0.08532 -0.0856,0.23717 -0.1889,0.501602 -0.29861,0.725205 -0.0568,0.11303 -0.1079,0.232003 -0.17064,0.341273 -0.0745,0.132701 -0.17306,0.257115 -0.25595,0.383932 -0.12847,0.192431 -0.27974,0.376759 -0.4266,0.554569 -0.19544,0.23814 -0.41381,0.473684 -0.63988,0.682546 -0.0153,0.01392 -0.0273,0.02887 -0.0427,0.04266 -0.18891,0.171396 -0.38918,0.320027 -0.59723,0.469251 -0.14002,0.09986 -0.27891,0.209356 -0.42659,0.298614 -0.0101,0.0061 -0.0325,-0.006 -0.0427,0 -0.31675,0.189376 -0.63142,0.375097 -0.98116,0.511909 0.41161,-0.132141 0.81422,-0.278667 1.19446,-0.46925 0.76048,-0.381167 1.44707,-0.908734 2.04763,-1.49307 0.30029,-0.292168 0.55883,-0.603186 0.81053,-0.938501 0.2517,-0.335314 0.48516,-0.693116 0.68254,-1.066478 0.19128,-0.361815 0.37695,-0.716303 0.51191,-1.109137 0.0142,-0.04202 0.0291,-0.08565 0.0427,-0.127978 0.12349,-0.379612 0.18948,-0.79094 0.25596,-1.194456 0.0715,-0.434167 0.12798,-0.865508 0.12798,-1.322433 l 0,-2.730184 0,-92.826271 0,-2.730185 c 0,-4.537567 -3.65299,-8.190553 -8.19056,-8.190553 l -98.286639,0 z"
       id="rect3728"
       inkscape:connector-curvature="0" />
    <path
       id="path3615-5"
       d="m 15.662331,88.16313 c -4.537566,0 -8.190553,-3.652987 -8.190553,-8.190554 l 0,-2.730184 0,-92.826271 0,-2.730185 c 0,-0.456925 0.056447,-0.888265 0.1279774,-1.322433 0.06648,-0.403516 0.1324686,-0.814844 0.2559548,-1.194456 0.013487,-0.04147 0.028519,-0.08682 0.042659,-0.127977 0.1349598,-0.392834 0.3206331,-0.747323 0.5119095,-1.109138 0.1973812,-0.373362 0.4308451,-0.731163 0.6825462,-1.066478 0.251701,-0.335314 0.5102394,-0.646333 0.8105235,-0.938501 0.6005684,-0.584336 1.2871594,-1.111903 2.0476384,-1.493069 0.38024,-0.190584 0.782844,-0.337106 1.194456,-0.469251 -0.349739,0.136812 -0.664406,0.322533 -0.98116,0.51191 -0.01012,0.006 -0.03258,-0.0061 -0.04266,0 -0.04359,0.02635 -0.08503,0.05803 -0.127977,0.08532 -0.16435,0.104703 -0.315367,0.22321 -0.46925,0.341273 -0.144936,0.1103 -0.291149,0.219933 -0.426592,0.341273 -0.24289,0.220371 -0.474314,0.471487 -0.682546,0.725205 -0.146855,0.17781 -0.298128,0.362139 -0.4265912,0.554569 -0.034249,0.05239 -0.052482,0.117221 -0.085318,0.170637 -0.088407,0.140648 -0.1777726,0.279184 -0.2559548,0.426591 -0.1378857,0.265792 -0.2807651,0.56747 -0.3839322,0.853183 -0.010866,0.02977 -0.032201,0.05535 -0.042659,0.08532 -0.043444,0.12552 -0.048877,0.255041 -0.085318,0.383932 -0.041406,0.145543 -0.096088,0.277156 -0.1279774,0.426591 -0.099486,0.466196 -0.1706365,0.953115 -0.1706365,1.450411 l 0,2.730184 0,92.826272 0,2.730184 c 0,3.797479 3.0279817,6.825461 6.8254607,6.825461 l 2.730185,0 92.826274,0 2.73018,0 c 3.79748,0 6.82546,-3.027982 6.82546,-6.825461 l 0,-2.730184 0,-92.826272 0,-2.730184 c 0,-0.497296 -0.0711,-0.984215 -0.17063,-1.450411 -0.0603,-0.282428 -0.12065,-0.54284 -0.2133,-0.810523 -0.0105,-0.02996 -0.0318,-0.05555 -0.0427,-0.08532 -0.0856,-0.23717 -0.1889,-0.501602 -0.29861,-0.725206 -0.0568,-0.113029 -0.1079,-0.232003 -0.17064,-0.341273 -0.0745,-0.1327 -0.17306,-0.257115 -0.25595,-0.383932 -0.12847,-0.19243 -0.27974,-0.376759 -0.4266,-0.554569 -0.19544,-0.23814 -0.41381,-0.473684 -0.63988,-0.682546 -0.0153,-0.01392 -0.0273,-0.02887 -0.0427,-0.04266 -0.18891,-0.171395 -0.38918,-0.320027 -0.59723,-0.46925 -0.14002,-0.09986 -0.27891,-0.209356 -0.42659,-0.298614 -0.0101,-0.0061 -0.0325,0.006 -0.0427,0 -0.31675,-0.189377 -0.63142,-0.375098 -0.98116,-0.51191 0.41161,0.132141 0.81422,0.278667 1.19446,0.469251 0.76048,0.381166 1.44707,0.908733 2.04763,1.493069 0.30029,0.292168 0.55883,0.603187 0.81053,0.938501 0.2517,0.335315 0.48516,0.693116 0.68254,1.066478 0.19128,0.361815 0.37695,0.716304 0.51191,1.109138 0.0142,0.04202 0.0291,0.08565 0.0427,0.127977 0.12349,0.379612 0.18948,0.79094 0.25596,1.194456 0.0715,0.434168 0.12798,0.865508 0.12798,1.322433 l 0,2.730185 0,92.826271 0,2.730184 c 0,4.537567 -3.65299,8.190554 -8.19056,8.190554 l -98.286639,0 z"
       style="opacity:0.3;fill:url(#radialGradient2858);fill-opacity:1;fill-rule:nonzero;stroke:none"
       inkscape:connector-curvature="0" />
  </g>
  <g
     inkscape:groupmode="layer"
     id="layer4"
     inkscape:label="Symbol"
     transform="translate(0,32)">
    <g
       id="g4034"
       transform="matrix(0.93971391,0,0,0.93971391,-56.633361,21.350938)">
      <path
         transform="translate(98.714887,4.8003532)"
         d="m 31.5625,8.09375 c -1.193798,0.1844018 -1.989634,1.0955966 -2.28125,2 -0.281131,0.871884 -0.256431,1.760919 -0.1875,2.5 0.0026,0.02757 -0.0027,0.06663 0,0.09375 l 0,17.40625 c -4.493937,0.02132 -9.031723,-0.07618 -13.5625,0.0625 a 0.91914188,0.91914188 0 0 0 -0.125,0 c -1.297488,0.219288 -2.121002,1.308878 -2.28125,2.40625 -0.150995,1.034007 0.255159,2.17484 1.1875,2.875 l -0.03125,0.03125 c 10.616579,10.616068 21.19748,21.282333 31.84375,31.875 a 0.91914188,0.91914188 0 0 0 0.125,0.09375 c 0.952706,0.649898 2.125145,0.565647 2.9375,0.15625 C 49.970772,67.19901 50.542793,66.614858 51,66.0625 51.016976,66.041991 51.045882,66.020329 51.0625,66 61.424034,55.658126 71.858609,45.33108 82.1875,34.96875 a 0.91914188,0.91914188 0 0 0 0.03125,-0.03125 c 1.77919,-1.918049 -0.0518,-5.113309 -2.5625,-4.8125 l 0,-0.03125 -0.1875,0 -12.5625,0 c -0.01321,-6.493395 0.03853,-12.993273 -0.03125,-19.5 a 0.91914188,0.91914188 0 0 0 0,-0.1875 c -0.257527,-1.2018645 -1.237014,-1.943984 -2.15625,-2.1875 -0.896869,-0.2375907 -1.795415,-0.1674648 -2.5,-0.125 l -0.0625,0 -30.46875,0 a 0.91914188,0.91914188 0 0 0 -0.125,0 z"
         id="path4260"
         style="opacity:0.05;fill:url(#linearGradient4110);fill-opacity:1;fill-rule:nonzero;stroke:none;stroke-width:0.99829447;marker:none;visibility:visible;display:inline;overflow:visible"
         inkscape:original="M 31.6875 9 C 29.961561 9.2665997 29.862752 11.212815 30 12.59375 L 30 31 C 25.189895 31.04243 20.361006 30.91563 15.5625 31.0625 C 13.78871 31.362288 13.496752 33.891583 14.9375 34.8125 C 25.555831 45.43032 36.137823 56.097662 46.78125 66.6875 C 48.161404 67.628986 49.497383 66.441583 50.34375 65.40625 C 60.727669 55.041679 71.18454 44.692706 81.53125 34.3125 C 82.773057 32.973775 81.427175 30.656964 79.65625 31 L 66 31 C 65.979187 24.198777 66.041639 17.390663 65.96875 10.59375 C 65.592145 8.8361521 63.626608 8.9157912 62.21875 9 L 31.6875 9 z "
         inkscape:radius="0.91904998"
         sodipodi:type="inkscape:offset" />
      <path
         inkscape:connector-curvature="0"
         id="path4246"
         d="m 130.40239,13.800353 c -1.72594,0.2666 -1.82475,2.228204 -1.6875,3.609139 0,6.130287 0,12.260574 0,18.390861 -4.81011,0.04243 -9.639,-0.08437 -14.4375,0.0625 -1.77379,0.299788 -2.06185,2.833732 -0.6211,3.754649 10.61833,10.61782 21.19642,21.280513 31.83985,31.870351 1.38015,0.941486 2.72951,-0.255349 3.57588,-1.290682 10.38391,-10.364571 20.82741,-20.704112 31.17412,-31.084318 1.2418,-1.338725 -0.11791,-3.655536 -1.88884,-3.3125 -4.54747,0 -9.09494,0 -13.64241,0 -0.0208,-6.801223 0.0416,-13.609337 -0.0312,-20.40625 -0.37661,-1.757598 -2.34883,-1.677959 -3.75669,-1.59375 -10.17485,0 -20.34971,0 -30.52456,0 z"
         style="opacity:0.07999998;fill:url(#linearGradient4112);fill-opacity:1;fill-rule:nonzero;stroke:none;stroke-width:0.99829447;marker:none;visibility:visible;display:inline;overflow:visible" />
      <path
         transform="translate(98.714887,4.8003532)"
         d="M 31.8125,10.09375 A 0.91914188,0.91914188 0 0 0 31.09375,11 l 0,21.09375 -15.09375,0 a 0.91914188,0.91914188 0 0 0 -0.65625,1.5625 l 31.90625,32 a 0.91914188,0.91914188 0 0 0 1.3125,0 l 32.09375,-32 A 0.91914188,0.91914188 0 0 0 80,32.09375 l -15.09375,0 0,-21.09375 A 0.91914188,0.91914188 0 0 0 64,10.09375 l -32,0 a 0.91914188,0.91914188 0 0 0 -0.1875,0 z"
         id="path4238"
         style="opacity:0.12000002;fill:url(#linearGradient4114);fill-opacity:1;fill-rule:nonzero;stroke:none;stroke-width:0.99829447;marker:none;visibility:visible;display:inline;overflow:visible"
         inkscape:original="M 32 11 L 32 33 L 16 33 L 47.90625 65 L 80 33 L 64 33 L 64 11 L 32 11 z "
         inkscape:radius="0.91904998"
         sodipodi:type="inkscape:offset" />
      <path
         sodipodi:nodetypes="cccccccc"
         style="opacity:0.3;fill:url(#linearGradient4116);fill-opacity:1;fill-rule:nonzero;stroke:none;stroke-width:0.99829447;marker:none;visibility:visible;display:inline;overflow:visible"
         id="path4221"
         d="m 178.71489,37.800353 -32.07993,32 -31.92007,-32 16,0 0,-22 32,0 0,22 z"
         inkscape:connector-curvature="0" />
      <path
         inkscape:connector-curvature="0"
         d="m 178.71489,36.800353 -32.07993,32 -31.92007,-32 16,0 0,-22 32,0 0,22 z"
         id="path3288-2-9"
         style="fill:url(#linearGradient4118);fill-opacity:1;fill-rule:nonzero;stroke:none;stroke-width:0.99829447;marker:none;visibility:visible;display:inline;overflow:visible"
         sodipodi:nodetypes="cccccccc" />
      <path
         inkscape:connector-curvature="0"
         id="path4185-0"
         d="m 114.71489,36.800353 31.90625,32 32.09375,-32 -1,0 -31.09375,31 -30.90625,-31 -1,0 z"
         style="fill:#3399ff;fill-opacity:1;fill-rule:nonzero;stroke:none;stroke-width:0.99829447;marker:none;visibility:visible;display:inline;overflow:visible" />
      <path
         sodipodi:nodetypes="cccccccccccccccccccc"
         inkscape:connector-curvature="0"
         id="path4200-3"
         d="m 131.71489,15.800353 0,23 1.09375,0 0,-21.90625 27.8125,0 0,21.90625 1.09375,0 0,-23 z m -14.5625,22 29.46875,29.5625 29.65625,-29.5625 -15.5625,0 0,1.09375 12.90625,0 -27,26.90625 -26.8125,-26.90625 12.90625,0 0,-1.09375 z"
         style="fill:url(#linearGradient4120);fill-opacity:1;fill-rule:nonzero;stroke:none;stroke-width:0.99829447;marker:none;visibility:visible;display:inline;overflow:visible" />
    </g>
    <g
       id="g4043"
       transform="matrix(0.9333964,0,0,0.9333964,-75.575569,-117.05024)">
      <g
         transform="translate(86.64929,88.828616)"
         id="g3213">
        <path
           transform="matrix(1,0,0,-1,0,75.963499)"
           d="m 31.5625,8.09375 c -1.193798,0.1844018 -1.989634,1.0955966 -2.28125,2 -0.281131,0.871884 -0.256431,1.760919 -0.1875,2.5 0.0026,0.02757 -0.0027,0.06663 0,0.09375 l 0,17.40625 c -4.493937,0.02132 -9.031723,-0.07618 -13.5625,0.0625 a 0.91914188,0.91914188 0 0 0 -0.125,0 c -1.297488,0.219288 -2.121002,1.308878 -2.28125,2.40625 -0.150995,1.034007 0.255159,2.17484 1.1875,2.875 l -0.03125,0.03125 c 10.616579,10.616068 21.19748,21.282333 31.84375,31.875 a 0.91914188,0.91914188 0 0 0 0.125,0.09375 c 0.952706,0.649898 2.125145,0.565647 2.9375,0.15625 C 49.970772,67.19901 50.542793,66.614858 51,66.0625 51.016976,66.041991 51.045882,66.020329 51.0625,66 61.424034,55.658126 71.858609,45.33108 82.1875,34.96875 a 0.91914188,0.91914188 0 0 0 0.03125,-0.03125 c 1.77919,-1.918049 -0.0518,-5.113309 -2.5625,-4.8125 l 0,-0.03125 -0.1875,0 -12.5625,0 c -0.01321,-6.493395 0.03853,-12.993273 -0.03125,-19.5 a 0.91914188,0.91914188 0 0 0 0,-0.1875 c -0.257527,-1.2018645 -1.237014,-1.943984 -2.15625,-2.1875 -0.896869,-0.2375907 -1.795415,-0.1674648 -2.5,-0.125 l -0.0625,0 -30.46875,0 a 0.91914188,0.91914188 0 0 0 -0.125,0 z"
           id="path4260-7"
           style="opacity:0.05;fill:url(#linearGradient4098);fill-opacity:1;fill-rule:nonzero;stroke:none;stroke-width:0.99829447;marker:none;visibility:visible;display:inline;overflow:visible"
           inkscape:original="M 31.6875 9 C 29.961561 9.2665997 29.862752 11.212815 30 12.59375 L 30 31 C 25.189895 31.04243 20.361006 30.91563 15.5625 31.0625 C 13.78871 31.362288 13.496752 33.891583 14.9375 34.8125 C 25.555831 45.43032 36.137823 56.097662 46.78125 66.6875 C 48.161404 67.628986 49.497383 66.441583 50.34375 65.40625 C 60.727669 55.041679 71.18454 44.692706 81.53125 34.3125 C 82.773057 32.973775 81.427175 30.656964 79.65625 31 L 66 31 C 65.979187 24.198777 66.041639 17.390663 65.96875 10.59375 C 65.592145 8.8361521 63.626608 8.9157912 62.21875 9 L 31.6875 9 z "
           inkscape:radius="0.91904998"
           sodipodi:type="inkscape:offset" />
        <path
           inkscape:connector-curvature="0"
           id="path4246-4"
           d="M 31.6875,66.963499 C 29.961561,66.6969 29.862752,64.735295 30,63.35436 c 0,-6.130287 0,-12.260574 0,-18.390861 -4.810105,-0.04243 -9.638994,0.08437 -14.4375,-0.0625 C 13.78871,44.601211 13.500658,42.067267 14.941406,41.14635 25.559737,30.52853 36.137823,19.865837 46.78125,9.2759993 c 1.380154,-0.941486 2.729512,0.255349 3.575879,1.2906817 10.383919,10.364571 20.827411,20.704112 31.174121,31.084318 1.241807,1.338725 -0.117911,3.655536 -1.888836,3.3125 -4.547472,0 -9.094943,0 -13.642414,0 -0.02081,6.801223 0.04164,13.609337 -0.03125,20.40625 -0.376605,1.757598 -2.348824,1.677959 -3.756682,1.59375 -10.174856,0 -20.349712,0 -30.524568,0 z"
           style="opacity:0.07999998;fill:url(#linearGradient4100);fill-opacity:1;fill-rule:nonzero;stroke:none;stroke-width:0.99829447;marker:none;visibility:visible;display:inline;overflow:visible" />
        <path
           transform="matrix(1,0,0,-1,0,75.963499)"
           d="M 31.8125,10.09375 A 0.91914188,0.91914188 0 0 0 31.09375,11 l 0,21.09375 -15.09375,0 a 0.91914188,0.91914188 0 0 0 -0.65625,1.5625 l 31.90625,32 a 0.91914188,0.91914188 0 0 0 1.3125,0 l 32.09375,-32 A 0.91914188,0.91914188 0 0 0 80,32.09375 l -15.09375,0 0,-21.09375 A 0.91914188,0.91914188 0 0 0 64,10.09375 l -32,0 a 0.91914188,0.91914188 0 0 0 -0.1875,0 z"
           id="path4238-7"
           style="opacity:0.12000002;fill:url(#linearGradient4102);fill-opacity:1;fill-rule:nonzero;stroke:none;stroke-width:0.99829447;marker:none;visibility:visible;display:inline;overflow:visible"
           inkscape:original="M 32 11 L 32 33 L 16 33 L 47.90625 65 L 80 33 L 64 33 L 64 11 L 32 11 z "
           inkscape:radius="0.91904998"
           sodipodi:type="inkscape:offset" />
        <path
           sodipodi:nodetypes="cccccccc"
           style="opacity:0.3;fill:url(#linearGradient4104);fill-opacity:1;fill-rule:nonzero;stroke:none;stroke-width:0.99829447;marker:none;visibility:visible;display:inline;overflow:visible"
           id="path4221-3"
           d="m 80,42.963499 -32.079925,-32 -31.920075,32 16,0 0,22 32,0 0,-22 z"
           inkscape:connector-curvature="0" />
      </g>
      <path
         sodipodi:nodetypes="cccccccc"
         style="fill:url(#linearGradient4106);fill-opacity:1;fill-rule:nonzero;stroke:none;stroke-width:0.99829447;marker:none;visibility:visible;display:inline;overflow:visible"
         id="path3288-2-2"
         d="m 166.64929,130.79211 -32.07993,-32.000004 -31.92007,32.000004 16,0 0,22 32,0 0,-22 z"
         inkscape:connector-curvature="0" />
      <path
         style="fill:#3399e1;fill-opacity:0.88163261;fill-rule:nonzero;stroke:none;stroke-width:0.99829447;marker:none;visibility:visible;display:inline;overflow:visible"
         d="m 102.64929,130.79211 31.90625,-32.000004 32.09375,32.000004 -1,0 -31.09375,-31.000004 -30.90625,31.000004 -1,0 z"
         id="path4185-6"
         inkscape:connector-curvature="0" />
      <path
         style="fill:url(#linearGradient4108);fill-opacity:1;fill-rule:nonzero;stroke:none;stroke-width:0.99829447;marker:none;visibility:visible;display:inline;overflow:visible"
         d="m 119.64929,151.79211 0,-23 1.09375,0 0,21.90625 27.8125,0 0,-21.90625 1.09375,0 0,23 z m -14.5625,-22 29.46875,-29.5625 29.65625,29.5625 -15.5625,0 0,-1.09375 12.90625,0 -27,-26.90625 -26.8125,26.90625 12.90625,0 0,1.09375 z"
         id="path4200-8"
         inkscape:connector-curvature="0"
         sodipodi:nodetypes="cccccccccccccccccccc" />
    </g>
  </g>
</svg>
