<?xml version="1.0" encoding="UTF-8" standalone="no"?>
<!-- Created with Inkscape (http://www.inkscape.org/) -->

<svg
   xmlns:dc="http://purl.org/dc/elements/1.1/"
   xmlns:cc="http://creativecommons.org/ns#"
   xmlns:rdf="http://www.w3.org/1999/02/22-rdf-syntax-ns#"
   xmlns:svg="http://www.w3.org/2000/svg"
   xmlns="http://www.w3.org/2000/svg"
   xmlns:sodipodi="http://sodipodi.sourceforge.net/DTD/sodipodi-0.dtd"
   xmlns:inkscape="http://www.inkscape.org/namespaces/inkscape"
   width="128"
   height="128"
   id="svg3027"
   version="1.1"
   inkscape:version="0.48.5 r10040"
   sodipodi:docname="ZZ-BASE.svg"
   inkscape:export-xdpi="90"
   inkscape:export-ydpi="90">
  <metadata
     id="metadata5">
    <rdf:RDF>
      <cc:Work
         rdf:about="">
        <dc:format>image/svg+xml</dc:format>
        <dc:type
           rdf:resource="http://purl.org/dc/dcmitype/StillImage" />
        <dc:title></dc:title>
      </cc:Work>
    </rdf:RDF>
  </metadata>
  <defs
     id="defs3029" />
  <sodipodi:namedview
     id="base"
     pagecolor="#ffffff"
     bordercolor="#666666"
     borderopacity="1.0"
     inkscape:pageopacity="0.0"
     inkscape:pageshadow="2"
     inkscape:zoom="2.8"
     inkscape:cx="66.157784"
     inkscape:cy="76.037235"
     inkscape:document-units="px"
     inkscape:current-layer="svg3027"
     showgrid="true"
     inkscape:window-width="1013"
     inkscape:window-height="847"
     inkscape:window-x="1932"
     inkscape:window-y="1"
     inkscape:window-maximized="0"
     inkscape:showpageshadow="false"
     borderlayer="false"
     showguides="true"
     inkscape:guide-bbox="true"
     inkscape:snap-to-guides="false"
     inkscape:snap-grids="false">
    <inkscape:grid
       type="xygrid"
       id="grid2981"
       empspacing="4"
       visible="true"
       enabled="true"
       snapvisiblegridlinesonly="true"
       spacingx="4px"
       spacingy="4px"
       dotted="false" />
    <sodipodi:guide
       orientation="0,1"
       position="0,120"
       id="guide2999" />
    <sodipodi:guide
       orientation="1,0"
       position="120,128"
       id="guide3001" />
    <sodipodi:guide
       orientation="0,1"
       position="0,8"
       id="guide3003" />
    <sodipodi:guide
       orientation="1,0"
       position="8,128"
       id="guide3005" />
  </sodipodi:namedview>
  <path
     inkscape:connector-curvature="0"
     style="fill:#3399ff;fill-opacity:1;stroke:none;display:inline"
     d="m 14.560191,9.5761189 c -3.583019,0 -6.4675429,2.8845241 -6.4675429,6.4675431 l 0,68.987124 12.9350859,0 0,-49.584496 86.233906,0 0,58.207886 -43.116954,0 0,12.935084 49.584494,0 c 3.58302,0 6.46754,-2.88452 6.46754,-6.46754 l 0,-84.078058 c 0,-3.583019 -2.88452,-6.4675431 -6.46754,-6.4675431 z m 60.363733,6.4675431 6.467543,0 0,6.467543 -6.467543,0 z m 12.935086,0 6.467543,0 0,6.467543 -6.467543,0 z m 12.93509,0 6.46754,0 0,6.467543 -6.46754,0 z M 25.339429,72.0957 l 0,17.246781 -17.2467809,0 0,17.246779 17.2467809,0 0,17.24678 17.246781,0 0,-17.24678 17.246781,0 0,-17.246779 -17.246781,0 0,-17.246781 z"
     id="Symbol"
     sodipodi:nodetypes="sscccccccssssscccccccccccccccccccccccccccc" />
</svg>
