ply
format ascii 1.0
comment Created by Blender 2.69 (sub 0) - www.blender.org, source file: ''
element vertex 1310
property float x
property float y
property float z
element face 356
property list uchar uint vertex_indices
end_header
-4.649800 14.945700 -8.785600
-2.020300 14.610600 -8.278800
-1.712600 0.024900 -9.195700
-3.252600 0.001600 -8.591000
-4.649800 14.945700 -8.785600
-3.252600 0.001600 -8.591000
-4.089400 2.633000 -5.031300
-5.308800 13.910900 -3.738700
-1.553600 3.059500 -4.173500
-1.766900 13.754900 -2.918700
-3.061600 3.537800 -3.461700
-1.553600 3.059500 -4.173500
-0.626000 0.031700 -8.336200
-0.971400 14.644800 -6.706400
-1.766900 13.754900 -2.918700
-5.495700 46.043098 -6.732400
-2.827600 38.171799 -8.088300
-5.919200 37.619099 -4.570300
-6.029500 46.188801 -3.956000
-4.685700 36.664101 -1.616400
-4.298500 47.001099 -0.058900
-6.029500 46.188801 -3.956000
-5.919200 37.619099 -4.570300
-6.775800 50.206501 -7.534500
-7.252500 54.524502 -7.615000
0.000000 53.738098 -8.986800
0.000000 50.037800 -9.413700
-7.252500 54.524502 -7.615000
-8.747800 53.770199 -7.353300
-8.184300 53.108700 -3.320400
-6.624100 53.529800 -2.653700
-9.827700 52.989700 -7.188500
-14.989100 50.565300 -7.297200
-15.636800 49.715099 -4.015700
-9.508400 52.403099 -3.672700
0.000000 37.009800 0.550700
0.000000 47.287498 1.094200
-4.298500 47.001099 -0.058900
-4.685700 36.664101 -1.616400
0.000000 53.738098 -8.986800
-7.252500 54.524502 -7.615000
-2.321200 55.471001 -5.570800
0.000000 55.950600 -7.250100
-6.624100 53.529800 -2.653700
-7.813100 49.342701 -3.886900
-6.029500 46.188801 -3.956000
-3.773800 51.093601 -1.034300
-6.029500 46.188801 -3.956000
-4.298500 47.001099 -0.058900
-3.773800 51.093601 -1.034300
0.000000 50.880199 0.110000
-3.773800 51.093601 -1.034300
-4.298500 47.001099 -0.058900
0.000000 47.287498 1.094200
-16.136200 50.023998 -7.546200
-14.989100 50.565300 -7.297200
-13.779500 47.417198 -7.715300
-14.885000 46.974701 -7.946000
-13.779500 47.417198 -7.715300
-8.756500 49.321098 -7.632900
-8.927200 49.128502 -4.128200
-14.977100 45.689201 -4.821000
-17.208200 49.477699 -7.512200
-22.585199 48.327702 -7.594400
-22.348700 46.932201 -2.822400
-16.810101 49.139900 -3.928800
-21.936399 43.055199 -3.733600
-16.192200 44.960400 -4.877100
-16.810101 49.139900 -3.928800
-22.348700 46.932201 -2.822400
-22.105101 44.119598 -7.074000
-23.337700 47.268200 -6.945000
-22.585199 48.327702 -7.594400
-21.061199 44.183601 -7.611200
-15.884600 46.520500 -7.855800
-16.192200 44.960400 -4.877100
-21.936399 43.055199 -3.733600
-21.061199 44.183601 -7.611200
-5.598500 31.822901 -1.405400
-7.174300 32.815300 -5.168000
-7.453900 29.910801 -4.782000
-4.970000 33.082802 -8.871300
-5.595300 29.761600 -8.491100
-7.453900 29.910801 -4.782000
-7.174300 32.815300 -5.168000
-6.827700 20.858999 -3.051400
-5.426000 21.341299 -8.131100
-6.194700 19.576300 -3.492500
-0.835600 22.853901 -8.203000
-0.899900 21.410400 -8.342700
-5.426000 21.341299 -8.131100
-5.317800 22.936800 -8.014600
-0.899900 21.410400 -8.342700
-1.957400 20.620800 -1.217700
-1.853000 19.164200 -1.385300
-6.194700 19.576300 -3.492500
-1.853000 19.164200 -1.385300
-1.957400 20.620800 -1.217700
-6.827700 20.858999 -3.051400
-5.259600 15.490400 -9.599400
-5.426000 21.341299 -8.131100
-0.899900 21.410400 -8.342700
-0.294400 16.169500 -7.962700
-0.294400 16.169500 -7.962700
-0.899900 21.410400 -8.342700
-1.853000 19.164200 -1.385300
-1.221800 14.450400 -2.004100
-1.853000 19.164200 -1.385300
-6.194700 19.576300 -3.492500
-6.498700 14.643000 -4.000600
-1.221800 14.450400 -2.004100
-6.498700 14.643000 -4.000600
-6.194700 19.576300 -3.492500
-5.426000 21.341299 -8.131100
-5.259600 15.490400 -9.599400
-7.813100 49.342701 -3.886900
-6.775800 50.206501 -7.534500
-5.495700 46.043098 -6.732400
-6.029500 46.188801 -3.956000
-8.756500 49.321098 -7.632900
-6.775800 50.206501 -7.534500
-7.813100 49.342701 -3.886900
-8.927200 49.128502 -4.128200
-5.495700 46.043098 -6.732400
-6.775800 50.206501 -7.534500
0.000000 50.037800 -9.413700
0.000000 45.235802 -8.516300
-3.773800 51.093601 -1.034300
0.000000 50.880199 0.110000
0.000000 54.522099 -2.187600
-1.435700 55.057400 -2.884500
-0.163800 60.672798 0.405300
-0.596000 60.268700 -0.255900
-0.605400 59.453602 0.006800
-0.226300 59.631802 0.717000
0.000000 59.375900 0.272700
-0.605400 59.453602 0.006800
-0.793500 58.611801 -0.022400
0.000000 58.735298 0.237300
-1.340700 61.343498 -1.024900
-2.209500 61.230499 -1.515000
-2.225300 60.301201 -1.334400
-0.474100 61.294899 -0.607800
-0.179900 61.274700 0.058500
-0.785400 61.539799 -0.048800
-0.163800 60.672798 0.405300
-0.179900 61.274700 0.058500
-0.474100 61.294899 -0.607800
-0.596000 60.268700 -0.255900
-0.785400 61.539799 -0.048800
0.000000 62.775902 -0.355700
-1.901400 62.898899 -1.262500
-1.792100 61.563202 -0.648200
-1.901400 62.898899 -1.262500
-2.505800 61.413601 -3.333900
-2.209500 61.230499 -1.515000
-1.792100 61.563202 -0.648200
-2.071800 58.080299 -1.837600
-2.043500 58.694401 -1.722000
-2.361600 58.652599 -3.405400
-2.361600 58.652599 -3.405400
-1.480400 57.287800 -3.167400
-2.071800 58.080299 -1.837600
-2.361600 58.652599 -3.405400
-2.043500 58.694401 -1.722000
-2.225300 60.301201 -1.334400
-2.484800 60.667999 -2.078300
-0.596000 60.268700 -0.255900
-2.225300 60.301201 -1.334400
-0.793500 58.611801 -0.022400
-0.605400 59.453602 0.006800
-0.793500 58.611801 -0.022400
-0.860300 57.339199 -0.345300
0.000000 57.320400 0.190300
0.000000 58.735298 0.237300
-2.361600 58.652599 -3.405400
-1.507500 57.978802 -4.806700
-1.480400 57.287800 -3.167400
-1.480400 57.287800 -3.167400
-1.435700 55.057400 -2.884500
0.000000 54.522099 -2.187600
-0.509500 56.862801 -2.081200
-1.435700 55.057400 -2.884500
-1.480400 57.287800 -3.167400
-1.507500 57.978802 -4.806700
-2.321200 55.471001 -5.570800
-5.259600 15.490400 -9.599400
-0.294400 16.169500 -7.962700
-2.020300 14.610600 -8.278800
-0.294400 16.169500 -7.962700
-1.221800 14.450400 -2.004100
-0.971400 14.644800 -6.706400
-5.308800 13.910900 -3.738700
-1.766900 13.754900 -2.918700
-1.221800 14.450400 -2.004100
-6.498700 14.643000 -4.000600
-4.649800 14.945700 -8.785600
-5.308800 13.910900 -3.738700
-6.498700 14.643000 -4.000600
-5.259600 15.490400 -9.599400
-1.957400 20.620800 -1.217700
-0.899900 21.410400 -8.342700
-0.835600 22.853901 -8.203000
-2.189200 21.987900 -1.481800
-7.174300 32.815300 -5.168000
-6.542300 35.480598 -4.902800
-5.283200 35.952900 -7.814600
-4.970000 33.082802 -8.871300
-5.598500 31.822901 -1.405400
-6.542300 35.480598 -4.902800
-7.174300 32.815300 -5.168000
-4.685700 36.664101 -1.616400
-5.598500 31.822901 -1.405400
-3.798500 31.552500 -0.386300
-2.225300 60.301201 -1.334400
-2.209500 61.230499 -1.515000
-2.484800 60.667999 -2.078300
-8.927200 49.128502 -4.128200
-7.813100 49.342701 -3.886900
-8.184300 53.108700 -3.320400
-9.508400 52.403099 -3.672700
-8.184300 53.108700 -3.320400
-8.747800 53.770199 -7.353300
-9.827700 52.989700 -7.188500
-9.508400 52.403099 -3.672700
-8.747800 53.770199 -7.353300
-7.252500 54.524502 -7.615000
-6.775800 50.206501 -7.534500
-8.927200 49.128502 -4.128200
-9.508400 52.403099 -3.672700
-15.636800 49.715099 -4.015700
-14.977100 45.689201 -4.821000
-6.624100 53.529800 -2.653700
-3.773800 51.093601 -1.034300
-1.435700 55.057400 -2.884500
-7.252500 54.524502 -7.615000
-2.321200 55.471001 -5.570800
-7.252500 54.524502 -7.615000
-1.435700 55.057400 -2.884500
-2.209500 61.230499 -1.515000
-2.505800 61.413601 -3.333900
-2.484800 60.667999 -2.078300
-2.484800 60.667999 -2.078300
-2.505800 61.413601 -3.333900
-2.361600 58.652599 -3.405400
-2.209500 61.230499 -1.515000
-1.340700 61.343498 -1.024900
-1.792100 61.563202 -0.648200
-3.061600 3.537800 -3.461700
-3.735600 1.816900 0.228400
-1.568700 1.981700 -0.627100
-1.553600 3.059500 -4.173500
-0.626000 0.031700 -8.336200
-1.553600 3.059500 -4.173500
-1.568700 1.981700 -0.627100
-1.825200 -0.024100 0.601200
-1.825200 -0.024100 0.601200
-3.769300 -0.009000 1.132900
-1.712600 0.024900 -9.195700
-0.626000 0.031700 -8.336200
-1.712600 0.024900 -9.195700
-2.020300 14.610600 -8.278800
-0.971400 14.644800 -6.706400
-0.626000 0.031700 -8.336200
-1.568700 1.981700 -0.627100
-3.735600 1.816900 0.228400
-3.769300 -0.009000 1.132900
-1.825200 -0.024100 0.601200
-4.089400 2.633000 -5.031300
-3.252600 0.001600 -8.591000
-5.176800 -0.025000 -0.598300
-5.390300 1.568200 -1.670300
-3.769300 -0.009000 1.132900
-3.735600 1.816900 0.228400
-5.390300 1.568200 -1.670300
-5.176800 -0.025000 -0.598300
-5.390300 1.568200 -1.670300
-3.735600 1.816900 0.228400
-3.061600 3.537800 -3.461700
-4.089400 2.633000 -5.031300
-3.061600 3.537800 -3.461700
-1.766900 13.754900 -2.918700
-5.308800 13.910900 -3.738700
-4.089400 2.633000 -5.031300
-2.020300 14.610600 -8.278800
-4.649800 14.945700 -8.785600
-5.259600 15.490400 -9.599400
-2.020300 14.610600 -8.278800
-0.294400 16.169500 -7.962700
-0.971400 14.644800 -6.706400
-5.426000 21.341299 -8.131100
-6.827700 20.858999 -3.051400
-6.824000 22.193899 -3.254300
-5.317800 22.936800 -8.014600
-0.845100 29.891001 -9.491500
-0.835600 22.853901 -8.203000
-5.317800 22.936800 -8.014600
-5.595300 29.761600 -8.491100
-1.957400 20.620800 -1.217700
-2.189200 21.987900 -1.481800
-6.824000 22.193899 -3.254300
-6.827700 20.858999 -3.051400
-0.605400 59.453602 0.006800
0.000000 59.375900 0.272700
-0.226300 59.631802 0.717000
-21.936399 43.055199 -3.733600
-22.348700 46.932201 -2.822400
-23.323000 46.228001 -3.425200
-23.265499 44.290199 -3.614200
-22.105101 44.119598 -7.074000
-23.273100 44.479099 -6.170500
-23.881300 46.267799 -5.995500
-23.337700 47.268200 -6.945000
-22.348700 46.932201 -2.822400
-23.337700 47.268200 -6.945000
-23.881300 46.267799 -5.995500
-23.323000 46.228001 -3.425200
-21.936399 43.055199 -3.733600
-23.265499 44.290199 -3.614200
-23.273100 44.479099 -6.170500
-22.105101 44.119598 -7.074000
-23.323000 46.228001 -3.425200
-24.935400 45.742901 -3.288800
-24.446100 44.099098 -3.039500
-23.265499 44.290199 -3.614200
-23.273100 44.479099 -6.170500
-25.718901 44.407902 -5.989100
-25.982700 45.641201 -5.974700
-23.881300 46.267799 -5.995500
-23.881300 46.267799 -5.995500
-25.982700 45.641201 -5.974700
-24.935400 45.742901 -3.288800
-23.323000 46.228001 -3.425200
-23.265499 44.290199 -3.614200
-24.446100 44.099098 -3.039500
-25.718901 44.407902 -5.989100
-23.273100 44.479099 -6.170500
-3.798500 31.552500 -0.386300
0.000000 31.552500 0.128500
0.000000 37.009800 0.550700
-4.685700 36.664101 -1.616400
-27.058001 43.733101 -1.471100
-28.100901 44.177299 -2.470000
-27.637899 42.321201 -1.984400
-26.775499 43.007000 -1.492900
-27.102699 45.320202 -5.735100
-25.982700 45.641201 -5.974700
-25.718901 44.407902 -5.989100
-26.246300 42.901402 -5.383600
-24.935400 45.742901 -3.288800
-25.982700 45.641201 -5.974700
-27.102699 45.320202 -5.735100
-26.753901 45.398300 -2.858600
-24.446100 44.099098 -3.039500
-26.246300 42.901402 -5.383600
-25.718901 44.407902 -5.989100
-28.380600 42.330502 -3.056600
-27.637899 42.321201 -1.984400
-28.100901 44.177299 -2.470000
-28.697901 44.238201 -3.477500
-28.380600 42.330502 -3.056600
-28.697901 44.238201 -3.477500
-28.543800 44.178001 -4.651400
-28.292801 42.543098 -4.446800
-26.753901 45.398300 -2.858600
-28.697901 44.238201 -3.477500
-28.100901 44.177299 -2.470000
-24.935400 45.742901 -3.288800
-26.117701 44.487900 -2.198700
-25.587200 43.557701 -2.038700
-24.446100 44.099098 -3.039500
-24.446100 44.099098 -3.039500
-25.587200 43.557701 -2.038700
-25.491899 42.827301 -2.370100
-26.246300 42.901402 -5.383600
-26.753901 45.398300 -2.858600
-26.117701 44.487900 -2.198700
-24.935400 45.742901 -3.288800
0.000000 31.552500 0.128500
-3.798500 31.552500 -0.386300
-3.463700 23.872801 -0.356700
0.000000 24.132099 -0.356700
-2.225300 60.301201 -1.334400
-2.043500 58.694401 -1.722000
-0.793500 58.611801 -0.022400
-0.793500 58.611801 -0.022400
-2.043500 58.694401 -1.722000
-2.071800 58.080299 -1.837600
-0.860300 57.339199 -0.345300
-2.071800 58.080299 -1.837600
-1.480400 57.287800 -3.167400
-0.509500 56.862801 -2.081200
-0.860300 57.339199 -0.345300
-0.179900 61.274700 0.058500
0.000000 61.912998 -0.048000
-0.785400 61.539799 -0.048800
-15.884600 46.520500 -7.855800
-17.208200 49.477699 -7.512200
-16.136200 50.023998 -7.546200
-14.885000 46.974701 -7.946000
-15.636800 49.715099 -4.015700
-16.136200 50.023998 -7.546200
-17.208200 49.477699 -7.512200
-16.810101 49.139900 -3.928800
-16.192200 44.960400 -4.877100
-15.884600 46.520500 -7.855800
-14.885000 46.974701 -7.946000
-14.977100 45.689201 -4.821000
-16.810101 49.139900 -3.928800
-16.192200 44.960400 -4.877100
-14.977100 45.689201 -4.821000
-15.636800 49.715099 -4.015700
-13.779500 47.417198 -7.715300
-14.989100 50.565300 -7.297200
-9.827700 52.989700 -7.188500
-8.756500 49.321098 -7.632900
-15.636800 49.715099 -4.015700
-14.989100 50.565300 -7.297200
-16.136200 50.023998 -7.546200
-13.779500 47.417198 -7.715300
-14.977100 45.689201 -4.821000
-14.885000 46.974701 -7.946000
-0.971400 14.644800 -6.706400
-1.221800 14.450400 -2.004100
-1.766900 13.754900 -2.918700
-26.117701 44.487900 -2.198700
-27.058001 43.733101 -1.471100
-26.775499 43.007000 -1.492900
-25.587200 43.557701 -2.038700
-25.587200 43.557701 -2.038700
-26.775499 43.007000 -1.492900
-27.637899 42.321201 -1.984400
-25.491899 42.827301 -2.370100
-26.117701 44.487900 -2.198700
-28.100901 44.177299 -2.470000
-27.058001 43.733101 -1.471100
-8.184300 53.108700 -3.320400
-7.813100 49.342701 -3.886900
-6.624100 53.529800 -2.653700
-8.747800 53.770199 -7.353300
-6.775800 50.206501 -7.534500
-8.756500 49.321098 -7.632900
-9.827700 52.989700 -7.188500
-28.543800 44.178001 -4.651400
-28.697901 44.238201 -3.477500
-26.753901 45.398300 -2.858600
-27.102699 45.320202 -5.735100
-26.246300 42.901402 -5.383600
-28.380600 42.330502 -3.056600
-28.292801 42.543098 -4.446800
-28.100901 44.177299 -2.470000
-26.117701 44.487900 -2.198700
-26.753901 45.398300 -2.858600
-1.712600 0.024900 -9.195700
-3.769300 -0.009000 1.132900
-5.176800 -0.025000 -0.598300
-3.252600 0.001600 -8.591000
0.000000 61.912998 -0.048000
0.000000 62.775902 -0.355700
-0.785400 61.539799 -0.048800
-0.340300 31.400700 -9.922000
-0.425600 30.069099 -1.503600
-0.845100 29.891001 -9.491500
0.000000 54.522099 -2.187600
0.000000 56.862801 -2.081200
-0.509500 56.862801 -2.081200
-0.509500 56.862801 -2.081200
0.000000 56.862801 -2.081200
0.000000 57.320400 0.190300
-0.860300 57.339199 -0.345300
-5.598500 31.822901 -1.405400
-7.453900 29.910801 -4.782000
-6.824000 22.193899 -3.254300
-6.824000 22.193899 -3.254300
-7.453900 29.910801 -4.782000
-5.595300 29.761600 -8.491100
-5.317800 22.936800 -8.014600
-3.798500 31.552500 -0.386300
-5.598500 31.822901 -1.405400
-6.824000 22.193899 -3.254300
-2.189200 21.987900 -1.481800
-0.340300 31.400700 -9.922000
-0.845100 29.891001 -9.491500
-5.595300 29.761600 -8.491100
-4.970000 33.082802 -8.871300
-0.835600 22.853901 -8.203000
-0.845100 29.891001 -9.491500
-0.425600 30.069099 -1.503600
-2.189200 21.987900 -1.481800
-2.162800 35.743500 -9.599900
-0.340300 31.400700 -9.922000
-4.970000 33.082802 -8.871300
-5.283200 35.952900 -7.814600
-5.283200 35.952900 -7.814600
-6.542300 35.480598 -4.902800
-5.919200 37.619099 -4.570300
-5.919200 37.619099 -4.570300
-6.542300 35.480598 -4.902800
-5.598500 31.822901 -1.405400
-4.685700 36.664101 -1.616400
-0.474100 61.294899 -0.607800
-1.340700 61.343498 -1.024900
-2.225300 60.301201 -1.334400
-0.596000 60.268700 -0.255900
-1.340700 61.343498 -1.024900
-0.474100 61.294899 -0.607800
-0.785400 61.539799 -0.048800
-1.792100 61.563202 -0.648200
0.000000 45.235802 -8.516300
0.000000 38.221600 -8.073300
-2.827600 38.171799 -8.088300
-5.495700 46.043098 -6.732400
-0.425600 30.069099 -1.503600
-3.798500 31.552500 -0.386300
-2.189200 21.987900 -1.481800
0.000000 31.547001 -9.939100
0.000000 30.215401 -1.522000
-0.425600 30.069099 -1.503600
-0.340300 31.400700 -9.922000
-21.061199 44.183601 -7.611200
-22.585199 48.327702 -7.594400
-17.208200 49.477699 -7.512200
-15.884600 46.520500 -7.855800
-22.348700 46.932201 -2.822400
-22.585199 48.327702 -7.594400
-23.337700 47.268200 -6.945000
-21.061199 44.183601 -7.611200
-21.936399 43.055199 -3.733600
-22.105101 44.119598 -7.074000
0.000000 59.375900 0.272700
0.226300 59.631802 0.717000
-0.226300 59.631802 0.717000
-0.163800 60.672798 0.405300
-0.226300 59.631802 0.717000
0.226300 59.631802 0.717000
0.163800 60.672798 0.405300
-0.340300 31.400700 -9.922000
-2.162800 35.743500 -9.599900
0.000000 35.795200 -9.599900
0.000000 31.547001 -9.939100
-5.919200 37.619099 -4.570300
-2.827600 38.171799 -8.088300
-2.162800 35.743500 -9.599900
-5.283200 35.952900 -7.814600
-28.543800 44.178001 -4.651400
-27.102699 45.320202 -5.735100
-26.246300 42.901402 -5.383600
-28.292801 42.543098 -4.446800
-25.491899 42.827301 -2.370100
-27.637899 42.321201 -1.984400
-28.380600 42.330502 -3.056600
-26.246300 42.901402 -5.383600
-25.491899 42.827301 -2.370100
-28.380600 42.330502 -3.056600
-0.179900 61.274700 0.058500
-0.163800 60.672798 0.405300
0.163800 60.672798 0.405300
0.179900 61.274700 0.058500
0.000000 61.912998 -0.048000
-0.179900 61.274700 0.058500
0.179900 61.274700 0.058500
-2.162800 35.743500 -9.599900
-2.827600 38.171799 -8.088300
0.000000 38.221600 -8.073300
0.000000 35.795200 -9.599900
4.620900 14.945700 -8.516100
3.252600 0.001600 -8.591000
1.712600 0.024900 -9.195700
1.456400 14.610600 -8.695100
4.089400 2.633000 -5.031300
3.252600 0.001600 -8.591000
4.620900 14.945700 -8.516100
5.308800 13.910900 -3.738700
1.553600 3.059500 -4.173500
3.061600 3.537800 -3.461700
1.766900 13.754900 -2.918700
1.553600 3.059500 -4.173500
1.766900 13.754900 -2.918700
1.239800 14.644800 -6.465300
0.626000 0.031700 -8.336200
5.495700 46.043098 -6.732400
6.029500 46.188801 -3.956000
5.919200 37.619099 -4.570300
2.827600 38.171799 -8.088300
4.685700 36.664101 -1.616400
5.919200 37.619099 -4.570300
6.029500 46.188801 -3.956000
4.298500 47.001099 -0.058900
6.775800 50.206501 -7.534500
0.000000 50.037800 -9.413700
0.000000 53.738098 -8.986800
7.252500 54.524502 -7.615000
7.252500 54.524502 -7.615000
6.624100 53.529800 -2.653700
8.184300 53.108700 -3.320400
8.747800 53.770199 -7.353300
9.827700 52.989700 -7.188500
9.508400 52.403099 -3.672700
15.636800 49.715099 -4.015700
14.989100 50.565300 -7.297200
0.000000 37.009800 0.550700
4.685700 36.664101 -1.616400
4.298500 47.001099 -0.058900
0.000000 47.287498 1.094200
0.000000 53.738098 -8.986800
0.000000 55.950600 -7.250100
2.321200 55.471001 -5.570800
7.252500 54.524502 -7.615000
3.773800 51.093601 -1.034300
4.298500 47.001099 -0.058900
6.029500 46.188801 -3.956000
6.624100 53.529800 -2.653700
6.624100 53.529800 -2.653700
6.029500 46.188801 -3.956000
7.813100 49.342701 -3.886900
0.000000 50.880199 0.110000
0.000000 47.287498 1.094200
4.298500 47.001099 -0.058900
3.773800 51.093601 -1.034300
16.136200 50.023998 -7.546200
14.885000 46.974701 -7.946000
13.779500 47.417198 -7.715300
14.989100 50.565300 -7.297200
13.779500 47.417198 -7.715300
14.977100 45.689201 -4.821000
8.927200 49.128502 -4.128200
8.756500 49.321098 -7.632900
17.208200 49.477699 -7.512200
16.810101 49.139900 -3.928800
22.348700 46.932201 -2.822400
22.585199 48.327702 -7.594400
21.936399 43.055199 -3.733600
22.348700 46.932201 -2.822400
16.810101 49.139900 -3.928800
16.192200 44.960400 -4.877100
22.105101 44.119598 -7.074000
21.061199 44.183601 -7.611200
22.585199 48.327702 -7.594400
23.337700 47.268200 -6.945000
15.884600 46.520500 -7.855800
21.061199 44.183601 -7.611200
21.936399 43.055199 -3.733600
16.192200 44.960400 -4.877100
5.598500 31.822901 -1.404300
7.453900 29.910801 -4.780100
7.174300 32.815300 -5.167300
4.970000 33.082802 -8.871900
7.174300 32.815300 -5.167300
7.453900 29.910801 -4.780100
5.595300 29.761600 -8.492500
6.827700 20.858999 -3.044800
6.194700 19.576300 -3.478600
5.426000 21.341299 -8.132600
0.835600 22.853901 -8.210700
5.317800 22.936800 -8.016200
5.426000 21.341299 -8.132600
0.899900 21.410400 -8.349400
0.899900 21.410400 -8.349400
1.853000 19.164200 -1.371600
1.957400 20.620800 -1.211500
6.194700 19.576300 -3.478600
6.827700 20.858999 -3.044800
1.957400 20.620800 -1.211500
1.853000 19.164200 -1.371600
5.117200 15.490400 -9.679700
0.134100 16.169500 -9.174700
0.899900 21.410400 -8.349400
5.426000 21.341299 -8.132600
0.134100 16.169500 -9.174700
1.716700 14.450400 -2.459200
1.853000 19.164200 -1.371600
0.899900 21.410400 -8.349400
1.853000 19.164200 -1.371600
1.716700 14.450400 -2.459200
6.069200 14.643000 -3.762300
6.194700 19.576300 -3.478600
6.069200 14.643000 -3.762300
5.117200 15.490400 -9.679700
5.426000 21.341299 -8.132600
6.194700 19.576300 -3.478600
7.813100 49.342701 -3.886900
6.029500 46.188801 -3.956000
5.495700 46.043098 -6.732400
6.775800 50.206501 -7.534500
8.756500 49.321098 -7.632900
8.927200 49.128502 -4.128200
7.813100 49.342701 -3.886900
6.775800 50.206501 -7.534500
5.495700 46.043098 -6.732400
0.000000 45.235802 -8.516300
0.000000 50.037800 -9.413700
6.775800 50.206501 -7.534500
3.773800 51.093601 -1.034300
1.435700 55.057400 -2.884500
0.000000 54.522099 -2.187600
0.000000 50.880199 0.110000
0.163800 60.672798 0.405300
0.226300 59.631802 0.717000
0.605400 59.453602 0.006800
0.596000 60.268700 -0.255900
0.000000 59.375900 0.272700
0.000000 58.735298 0.237300
0.793500 58.611801 -0.022400
0.605400 59.453602 0.006800
1.340700 61.343498 -1.024900
2.225300 60.301201 -1.334400
2.209500 61.230499 -1.515000
0.474100 61.294899 -0.607800
0.785400 61.539799 -0.048800
0.179900 61.274700 0.058500
0.163800 60.672798 0.405300
0.596000 60.268700 -0.255900
0.474100 61.294899 -0.607800
0.179900 61.274700 0.058500
0.785400 61.539799 -0.048800
1.792100 61.563202 -0.648200
1.901400 62.898899 -1.262500
0.000000 62.775902 -0.355700
1.901400 62.898899 -1.262500
1.792100 61.563202 -0.648200
2.209500 61.230499 -1.515000
2.505800 61.413601 -3.333900
2.071800 58.080299 -1.837600
2.361600 58.652599 -3.405400
2.043500 58.694401 -1.722000
2.361600 58.652599 -3.405400
2.071800 58.080299 -1.837600
1.480400 57.287800 -3.167400
2.361600 58.652599 -3.405400
2.484800 60.667999 -2.078300
2.225300 60.301201 -1.334400
2.043500 58.694401 -1.722000
0.596000 60.268700 -0.255900
0.605400 59.453602 0.006800
0.793500 58.611801 -0.022400
2.225300 60.301201 -1.334400
0.793500 58.611801 -0.022400
0.000000 58.735298 0.237300
0.000000 57.320400 0.190300
0.860300 57.339199 -0.345300
2.361600 58.652599 -3.405400
1.480400 57.287800 -3.167400
1.507500 57.978802 -4.806700
1.480400 57.287800 -3.167400
0.509500 56.862801 -2.081200
0.000000 54.522099 -2.187600
1.435700 55.057400 -2.884500
1.435700 55.057400 -2.884500
2.321200 55.471001 -5.570800
1.507500 57.978802 -4.806700
1.480400 57.287800 -3.167400
5.117200 15.490400 -9.679700
1.456400 14.610600 -8.695100
0.134100 16.169500 -9.174700
0.134100 16.169500 -9.174700
1.239800 14.644800 -6.465300
1.716700 14.450400 -2.459200
5.308800 13.910900 -3.738700
6.069200 14.643000 -3.762300
1.716700 14.450400 -2.459200
1.766900 13.754900 -2.918700
4.620900 14.945700 -8.516100
5.117200 15.490400 -9.679700
6.069200 14.643000 -3.762300
5.308800 13.910900 -3.738700
1.957400 20.620800 -1.211500
2.189200 21.987900 -1.483700
0.835600 22.853901 -8.210700
0.899900 21.410400 -8.349400
7.174300 32.815300 -5.167300
4.970000 33.082802 -8.871900
5.283200 35.952900 -7.814600
6.542300 35.480598 -4.902800
5.598500 31.822901 -1.404300
7.174300 32.815300 -5.167300
6.542300 35.480598 -4.902800
4.685700 36.664101 -1.616400
3.798500 31.552500 -0.388900
5.598500 31.822901 -1.404300
2.225300 60.301201 -1.334400
2.484800 60.667999 -2.078300
2.209500 61.230499 -1.515000
8.927200 49.128502 -4.128200
9.508400 52.403099 -3.672700
8.184300 53.108700 -3.320400
7.813100 49.342701 -3.886900
8.184300 53.108700 -3.320400
9.508400 52.403099 -3.672700
9.827700 52.989700 -7.188500
8.747800 53.770199 -7.353300
8.747800 53.770199 -7.353300
6.775800 50.206501 -7.534500
7.252500 54.524502 -7.615000
8.927200 49.128502 -4.128200
14.977100 45.689201 -4.821000
15.636800 49.715099 -4.015700
9.508400 52.403099 -3.672700
1.435700 55.057400 -2.884500
3.773800 51.093601 -1.034300
6.624100 53.529800 -2.653700
7.252500 54.524502 -7.615000
2.321200 55.471001 -5.570800
1.435700 55.057400 -2.884500
7.252500 54.524502 -7.615000
2.209500 61.230499 -1.515000
2.484800 60.667999 -2.078300
2.505800 61.413601 -3.333900
2.484800 60.667999 -2.078300
2.361600 58.652599 -3.405400
2.505800 61.413601 -3.333900
2.209500 61.230499 -1.515000
1.792100 61.563202 -0.648200
1.340700 61.343498 -1.024900
3.061600 3.537800 -3.461700
1.553600 3.059500 -4.173500
1.568700 1.981700 -0.627100
3.735600 1.816900 0.228400
0.626000 0.031700 -8.336200
1.825200 -0.024100 0.601200
1.568700 1.981700 -0.627100
1.553600 3.059500 -4.173500
1.825200 -0.024100 0.601200
0.626000 0.031700 -8.336200
1.712600 0.024900 -9.195700
3.769300 -0.009000 1.132900
1.712600 0.024900 -9.195700
0.626000 0.031700 -8.336200
1.239800 14.644800 -6.465300
1.456400 14.610600 -8.695100
1.568700 1.981700 -0.627100
1.825200 -0.024100 0.601200
3.769300 -0.009000 1.132900
3.735600 1.816900 0.228400
4.089400 2.633000 -5.031300
5.390300 1.568200 -1.670300
5.176800 -0.025000 -0.598300
3.252600 0.001600 -8.591000
3.769300 -0.009000 1.132900
5.176800 -0.025000 -0.598300
5.390300 1.568200 -1.670300
3.735600 1.816900 0.228400
5.390300 1.568200 -1.670300
4.089400 2.633000 -5.031300
3.061600 3.537800 -3.461700
3.735600 1.816900 0.228400
3.061600 3.537800 -3.461700
4.089400 2.633000 -5.031300
5.308800 13.910900 -3.738700
1.766900 13.754900 -2.918700
5.117200 15.490400 -9.679700
4.620900 14.945700 -8.516100
1.456400 14.610600 -8.695100
1.456400 14.610600 -8.695100
1.239800 14.644800 -6.465300
0.134100 16.169500 -9.174700
5.426000 21.341299 -8.132600
5.317800 22.936800 -8.016200
6.824000 22.193899 -3.251500
6.827700 20.858999 -3.044800
0.845100 29.891001 -9.498900
5.595300 29.761600 -8.492500
5.317800 22.936800 -8.016200
0.835600 22.853901 -8.210700
1.957400 20.620800 -1.211500
6.827700 20.858999 -3.044800
6.824000 22.193899 -3.251500
2.189200 21.987900 -1.483700
0.605400 59.453602 0.006800
0.226300 59.631802 0.717000
0.000000 59.375900 0.272700
21.936399 43.055199 -3.733600
23.265499 44.290199 -3.614200
23.323000 46.228001 -3.425200
22.348700 46.932201 -2.822400
22.105101 44.119598 -7.074000
23.337700 47.268200 -6.945000
23.881300 46.267799 -5.995500
23.273100 44.479099 -6.170500
22.348700 46.932201 -2.822400
23.323000 46.228001 -3.425200
23.881300 46.267799 -5.995500
23.337700 47.268200 -6.945000
21.936399 43.055199 -3.733600
22.105101 44.119598 -7.074000
23.273100 44.479099 -6.170500
23.265499 44.290199 -3.614200
23.323000 46.228001 -3.425200
23.265499 44.290199 -3.614200
24.446100 44.099098 -3.039500
24.935400 45.742901 -3.288800
23.273100 44.479099 -6.170500
23.881300 46.267799 -5.995500
25.982700 45.641201 -5.974700
25.718901 44.407902 -5.989100
23.881300 46.267799 -5.995500
23.323000 46.228001 -3.425200
24.935400 45.742901 -3.288800
25.982700 45.641201 -5.974700
23.265499 44.290199 -3.614200
23.273100 44.479099 -6.170500
25.718901 44.407902 -5.989100
24.446100 44.099098 -3.039500
3.798500 31.552500 -0.388900
4.685700 36.664101 -1.616400
0.000000 37.009800 0.550700
0.000000 31.552500 0.128500
27.058001 43.733101 -1.471100
26.775499 43.007000 -1.492900
27.637899 42.321201 -1.984400
28.100901 44.177299 -2.470000
27.102699 45.320202 -5.735100
26.246300 42.901402 -5.383600
25.718901 44.407902 -5.989100
25.982700 45.641201 -5.974700
24.935400 45.742901 -3.288800
26.753901 45.398300 -2.858600
27.102699 45.320202 -5.735100
25.982700 45.641201 -5.974700
24.446100 44.099098 -3.039500
25.718901 44.407902 -5.989100
26.246300 42.901402 -5.383600
28.380600 42.330502 -3.056600
28.697901 44.238201 -3.477500
28.100901 44.177299 -2.470000
27.637899 42.321201 -1.984400
28.380600 42.330502 -3.056600
28.292801 42.543098 -4.446800
28.543800 44.178001 -4.651400
28.697901 44.238201 -3.477500
26.753901 45.398300 -2.858600
28.100901 44.177299 -2.470000
28.697901 44.238201 -3.477500
24.935400 45.742901 -3.288800
24.446100 44.099098 -3.039500
25.587200 43.557701 -2.038700
26.117701 44.487900 -2.198700
24.446100 44.099098 -3.039500
26.246300 42.901402 -5.383600
25.491899 42.827301 -2.370100
25.587200 43.557701 -2.038700
26.753901 45.398300 -2.858600
24.935400 45.742901 -3.288800
26.117701 44.487900 -2.198700
0.000000 31.552500 0.128500
0.000000 24.132099 -0.356700
3.463700 23.872801 -0.356700
3.798500 31.552500 -0.388900
2.225300 60.301201 -1.334400
0.793500 58.611801 -0.022400
2.043500 58.694401 -1.722000
0.793500 58.611801 -0.022400
0.860300 57.339199 -0.345300
2.071800 58.080299 -1.837600
2.043500 58.694401 -1.722000
2.071800 58.080299 -1.837600
0.860300 57.339199 -0.345300
0.509500 56.862801 -2.081200
1.480400 57.287800 -3.167400
0.179900 61.274700 0.058500
0.785400 61.539799 -0.048800
0.000000 61.912998 -0.048000
15.884600 46.520500 -7.855800
14.885000 46.974701 -7.946000
16.136200 50.023998 -7.546200
17.208200 49.477699 -7.512200
15.636800 49.715099 -4.015700
16.810101 49.139900 -3.928800
17.208200 49.477699 -7.512200
16.136200 50.023998 -7.546200
16.192200 44.960400 -4.877100
14.977100 45.689201 -4.821000
14.885000 46.974701 -7.946000
15.884600 46.520500 -7.855800
16.810101 49.139900 -3.928800
15.636800 49.715099 -4.015700
14.977100 45.689201 -4.821000
16.192200 44.960400 -4.877100
13.779500 47.417198 -7.715300
8.756500 49.321098 -7.632900
9.827700 52.989700 -7.188500
14.989100 50.565300 -7.297200
15.636800 49.715099 -4.015700
16.136200 50.023998 -7.546200
14.989100 50.565300 -7.297200
13.779500 47.417198 -7.715300
14.885000 46.974701 -7.946000
14.977100 45.689201 -4.821000
1.239800 14.644800 -6.465300
1.766900 13.754900 -2.918700
1.716700 14.450400 -2.459200
26.117701 44.487900 -2.198700
25.587200 43.557701 -2.038700
26.775499 43.007000 -1.492900
27.058001 43.733101 -1.471100
25.587200 43.557701 -2.038700
25.491899 42.827301 -2.370100
27.637899 42.321201 -1.984400
26.775499 43.007000 -1.492900
26.117701 44.487900 -2.198700
27.058001 43.733101 -1.471100
28.100901 44.177299 -2.470000
8.184300 53.108700 -3.320400
6.624100 53.529800 -2.653700
7.813100 49.342701 -3.886900
8.747800 53.770199 -7.353300
9.827700 52.989700 -7.188500
8.756500 49.321098 -7.632900
6.775800 50.206501 -7.534500
28.543800 44.178001 -4.651400
27.102699 45.320202 -5.735100
26.753901 45.398300 -2.858600
28.697901 44.238201 -3.477500
26.246300 42.901402 -5.383600
28.292801 42.543098 -4.446800
28.380600 42.330502 -3.056600
28.100901 44.177299 -2.470000
26.753901 45.398300 -2.858600
26.117701 44.487900 -2.198700
1.712600 0.024900 -9.195700
3.252600 0.001600 -8.591000
5.176800 -0.025000 -0.598300
3.769300 -0.009000 1.132900
0.000000 61.912998 -0.048000
0.785400 61.539799 -0.048800
0.000000 62.775902 -0.355700
0.340300 31.400700 -9.928000
0.845100 29.891001 -9.498900
0.425600 30.069099 -1.507500
0.509500 56.862801 -2.081200
0.509500 56.862801 -2.081200
0.860300 57.339199 -0.345300
0.000000 57.320400 0.190300
0.000000 56.862801 -2.081200
5.598500 31.822901 -1.404300
6.824000 22.193899 -3.251500
7.453900 29.910801 -4.780100
6.824000 22.193899 -3.251500
5.317800 22.936800 -8.016200
5.595300 29.761600 -8.492500
7.453900 29.910801 -4.780100
3.798500 31.552500 -0.388900
2.189200 21.987900 -1.483700
6.824000 22.193899 -3.251500
5.598500 31.822901 -1.404300
0.340300 31.400700 -9.928000
4.970000 33.082802 -8.871900
5.595300 29.761600 -8.492500
0.845100 29.891001 -9.498900
0.835600 22.853901 -8.210700
2.189200 21.987900 -1.483700
0.425600 30.069099 -1.507500
0.845100 29.891001 -9.498900
2.162800 35.743500 -9.599900
5.283200 35.952900 -7.814600
4.970000 33.082802 -8.871900
0.340300 31.400700 -9.928000
5.283200 35.952900 -7.814600
5.919200 37.619099 -4.570300
6.542300 35.480598 -4.902800
5.919200 37.619099 -4.570300
4.685700 36.664101 -1.616400
5.598500 31.822901 -1.404300
6.542300 35.480598 -4.902800
0.474100 61.294899 -0.607800
0.596000 60.268700 -0.255900
2.225300 60.301201 -1.334400
1.340700 61.343498 -1.024900
1.340700 61.343498 -1.024900
1.792100 61.563202 -0.648200
0.785400 61.539799 -0.048800
0.474100 61.294899 -0.607800
0.000000 45.235802 -8.516300
5.495700 46.043098 -6.732400
2.827600 38.171799 -8.088300
0.000000 38.221600 -8.073300
0.425600 30.069099 -1.507500
2.189200 21.987900 -1.483700
3.798500 31.552500 -0.388900
0.000000 31.547001 -9.939100
0.340300 31.400700 -9.928000
0.425600 30.069099 -1.507500
0.000000 30.215401 -1.522000
21.061199 44.183601 -7.611200
15.884600 46.520500 -7.855800
17.208200 49.477699 -7.512200
22.585199 48.327702 -7.594400
22.348700 46.932201 -2.822400
23.337700 47.268200 -6.945000
22.585199 48.327702 -7.594400
21.061199 44.183601 -7.611200
22.105101 44.119598 -7.074000
21.936399 43.055199 -3.733600
0.340300 31.400700 -9.928000
0.000000 31.547001 -9.939100
0.000000 35.795200 -9.599900
2.162800 35.743500 -9.599900
5.919200 37.619099 -4.570300
5.283200 35.952900 -7.814600
2.162800 35.743500 -9.599900
2.827600 38.171799 -8.088300
28.543800 44.178001 -4.651400
28.292801 42.543098 -4.446800
26.246300 42.901402 -5.383600
27.102699 45.320202 -5.735100
25.491899 42.827301 -2.370100
28.380600 42.330502 -3.056600
27.637899 42.321201 -1.984400
26.246300 42.901402 -5.383600
28.380600 42.330502 -3.056600
25.491899 42.827301 -2.370100
2.162800 35.743500 -9.599900
0.000000 35.795200 -9.599900
0.000000 38.221600 -8.073300
2.827600 38.171799 -8.088300
0.706900 62.538601 -0.289700
1.838200 62.255798 -0.802600
1.901400 63.532299 -1.247600
0.672300 63.485901 -0.421800
1.901400 63.532299 -1.247600
1.838200 62.255798 -0.802600
3.194200 60.597198 -3.460400
2.758700 63.532299 -3.348800
2.758700 63.532299 -3.348800
3.194200 60.597198 -3.460400
3.446000 60.597198 -5.980300
3.010600 63.532299 -5.868700
3.194200 60.597198 -3.460400
1.838200 62.255798 -0.802600
2.336800 60.597198 -1.072500
2.130500 53.628601 -1.359200
4.088800 54.879799 -3.460400
3.194200 60.597198 -3.460400
2.336800 60.597198 -1.072500
4.088800 54.879799 -3.460400
4.340700 55.234299 -6.210400
3.446000 60.597198 -5.980300
3.194200 60.597198 -3.460400
3.010600 63.532299 -5.868700
3.446000 60.597198 -5.980300
2.517200 60.597198 -7.879200
1.932100 63.532299 -7.311200
3.446000 60.597198 -5.980300
4.340700 55.234299 -6.210400
2.990300 54.496300 -8.246000
2.517200 60.597198 -7.879200
1.932100 63.532299 -7.311200
2.517200 60.597198 -7.879200
0.000000 60.597198 -8.812800
0.000000 63.532299 -8.174500
2.990300 54.496300 -8.246000
0.000000 54.050800 -8.782700
0.000000 60.597198 -8.812800
2.517200 60.597198 -7.879200
0.672300 63.485901 -0.421800
1.901400 63.532299 -1.247600
1.171400 65.057899 -2.205500
1.901400 63.532299 -1.247600
2.758700 63.532299 -3.348800
1.795600 65.057899 -4.806100
1.171400 65.057899 -2.205500
2.758700 63.532299 -3.348800
3.010600 63.532299 -5.868700
1.795600 65.057899 -4.806100
3.010600 63.532299 -5.868700
1.932100 63.532299 -7.311200
0.000000 65.057899 -6.421400
1.795600 65.057899 -4.806100
1.932100 63.532299 -7.311200
0.000000 63.532299 -8.174500
0.000000 65.057899 -6.421400
1.171400 65.057899 -2.205500
1.795600 65.057899 -4.806100
0.000000 65.560898 -4.058400
1.795600 65.057899 -4.806100
0.000000 65.057899 -6.421400
0.000000 65.560898 -4.058400
0.672300 63.485901 -0.421800
1.171400 65.057899 -2.205500
-1.171400 65.057899 -2.205500
-0.672300 63.485901 -0.421800
0.706900 62.538601 -0.289700
0.672300 63.485901 -0.421800
0.000000 62.538601 -0.140300
0.672300 63.485901 -0.421800
-0.672300 63.485901 -0.421800
0.000000 62.538601 -0.140300
2.130500 53.628601 -1.359200
2.336800 60.597198 -1.072500
1.393700 60.597198 -3.164700
1.187300 53.628601 -3.164700
-0.706900 62.538601 -0.289700
-0.672300 63.485901 -0.421800
-1.901400 63.532299 -1.247600
-1.838200 62.255798 -0.802600
-1.901400 63.532299 -1.247600
-2.758700 63.532299 -3.348800
-3.194200 60.597198 -3.460400
-1.838200 62.255798 -0.802600
-2.758700 63.532299 -3.348800
-3.010600 63.532299 -5.868700
-3.446000 60.597198 -5.980300
-3.194200 60.597198 -3.460400
-3.194200 60.597198 -3.460400
-2.336800 60.597198 -1.072500
-1.838200 62.255798 -0.802600
-2.130500 53.628601 -1.359200
-2.336800 60.597198 -1.072500
-3.194200 60.597198 -3.460400
-4.088800 54.879799 -3.460400
-4.088800 54.879799 -3.460400
-3.194200 60.597198 -3.460400
-3.446000 60.597198 -5.980300
-4.340700 55.234299 -6.210400
-3.010600 63.532299 -5.868700
-1.932100 63.532299 -7.311200
-2.517200 60.597198 -7.879200
-3.446000 60.597198 -5.980300
-3.446000 60.597198 -5.980300
-2.517200 60.597198 -7.879200
-2.990300 54.496300 -8.246000
-4.340700 55.234299 -6.210400
-1.932100 63.532299 -7.311200
0.000000 63.532299 -8.174500
0.000000 60.597198 -8.812800
-2.517200 60.597198 -7.879200
-2.990300 54.496300 -8.246000
-2.517200 60.597198 -7.879200
0.000000 60.597198 -8.812800
0.000000 54.050800 -8.782700
-0.672300 63.485901 -0.421800
-1.171400 65.057899 -2.205500
-1.901400 63.532299 -1.247600
-1.901400 63.532299 -1.247600
-1.171400 65.057899 -2.205500
-1.795600 65.057899 -4.806100
-2.758700 63.532299 -3.348800
-2.758700 63.532299 -3.348800
-1.795600 65.057899 -4.806100
-3.010600 63.532299 -5.868700
-3.010600 63.532299 -5.868700
-1.795600 65.057899 -4.806100
0.000000 65.057899 -6.421400
-1.932100 63.532299 -7.311200
-1.932100 63.532299 -7.311200
0.000000 65.057899 -6.421400
0.000000 63.532299 -8.174500
-1.171400 65.057899 -2.205500
0.000000 65.560898 -4.058400
-1.795600 65.057899 -4.806100
-1.795600 65.057899 -4.806100
0.000000 65.560898 -4.058400
0.000000 65.057899 -6.421400
-1.171400 65.057899 -2.205500
1.171400 65.057899 -2.205500
0.000000 65.560898 -4.058400
-0.706900 62.538601 -0.289700
0.000000 62.538601 -0.140300
-0.672300 63.485901 -0.421800
-2.130500 53.628601 -1.359200
-1.187300 53.628601 -3.164700
-1.393700 60.597198 -3.164700
-2.336800 60.597198 -1.072500
8.704300 24.905701 -6.036500
7.984800 25.127701 -6.177400
7.649900 27.558001 -5.856100
8.503900 27.435900 -5.670300
6.463600 36.223400 -3.704900
5.778000 35.994701 -1.773100
7.451900 27.210300 -3.504400
8.503900 27.435900 -5.670300
5.115000 35.782600 -2.051700
6.597900 27.332300 -3.690200
7.451900 27.210300 -3.504400
5.778000 35.994701 -1.773100
5.743400 36.019600 -3.995900
6.463600 36.223400 -3.704900
8.503900 27.435900 -5.670300
7.649900 27.558001 -5.856100
7.451900 27.210300 -3.504400
6.597900 27.332300 -3.690200
7.984800 25.127701 -6.177400
8.704300 24.905701 -6.036500
7.451900 27.210300 -3.504400
8.704300 24.905701 -6.036500
8.503900 27.435900 -5.670300
6.463600 36.223400 -3.704900
5.743400 36.019600 -3.995900
5.115000 35.782600 -2.051700
5.778000 35.994701 -1.773100
4.513000 55.007702 -5.909800
4.291100 55.098900 -5.871800
4.207800 55.799599 -6.651700
4.871900 55.799599 -6.765400
2.904000 62.455601 -5.700500
2.764700 62.455601 -4.128400
4.736600 55.799599 -5.153900
4.871900 55.799599 -6.765400
2.764700 62.455601 -4.128400
4.072400 55.799599 -5.040200
4.736600 55.799599 -5.153900
2.904000 62.455601 -5.700500
4.871900 55.799599 -6.765400
4.207800 55.799599 -6.651700
4.736600 55.799599 -5.153900
4.072400 55.799599 -5.040200
4.291100 55.098900 -5.871800
4.513000 55.007702 -5.909800
4.736600 55.799599 -5.153900
4.513000 55.007702 -5.909800
4.871900 55.799599 -6.765400
4 0 1 2 3
4 4 5 6 7
3 8 9 10
4 11 12 13 14
4 15 16 17 18
4 19 20 21 22
4 23 24 25 26
4 27 28 29 30
4 31 32 33 34
4 35 36 37 38
4 39 40 41 42
4 43 44 45 46
3 47 48 49
4 50 51 52 53
4 54 55 56 57
4 58 59 60 61
4 62 63 64 65
4 66 67 68 69
4 70 71 72 73
4 74 75 76 77
3 78 79 80
4 81 82 83 84
3 85 86 87
4 88 89 90 91
3 92 93 94
4 95 96 97 98
4 99 100 101 102
4 103 104 105 106
4 107 108 109 110
4 111 112 113 114
4 115 116 117 118
4 119 120 121 122
4 123 124 125 126
4 127 128 129 130
4 131 132 133 134
4 135 136 137 138
3 139 140 141
3 142 143 144
4 145 146 147 148
4 149 150 151 152
4 153 154 155 156
3 157 158 159
3 160 161 162
4 163 164 165 166
4 167 168 169 170
4 171 172 173 174
3 175 176 177
4 178 179 180 181
4 182 183 184 185
3 186 187 188
3 189 190 191
4 192 193 194 195
4 196 197 198 199
4 200 201 202 203
4 204 205 206 207
3 208 209 210
3 211 212 213
3 214 215 216
4 217 218 219 220
4 221 222 223 224
3 225 226 227
4 228 229 230 231
4 232 233 234 235
3 236 237 238
3 239 240 241
3 242 243 244
3 245 246 247
4 248 249 250 251
4 252 253 254 255
4 256 257 258 259
4 260 261 262 263
4 264 265 266 267
4 268 269 270 271
4 272 273 274 275
4 276 277 278 279
4 280 281 282 283
3 284 285 286
3 287 288 289
4 290 291 292 293
4 294 295 296 297
4 298 299 300 301
3 302 303 304
4 305 306 307 308
4 309 310 311 312
4 313 314 315 316
4 317 318 319 320
4 321 322 323 324
4 325 326 327 328
4 329 330 331 332
4 333 334 335 336
4 337 338 339 340
4 341 342 343 344
4 345 346 347 348
4 349 350 351 352
3 353 354 355
4 356 357 358 359
4 360 361 362 363
3 364 365 366
4 367 368 369 370
4 371 372 373 374
3 375 376 377
4 378 379 380 381
3 382 383 384
4 385 386 387 388
4 389 390 391 392
3 393 394 395
4 396 397 398 399
4 400 401 402 403
4 404 405 406 407
4 408 409 410 411
4 412 413 414 415
3 416 417 418
3 419 420 421
3 422 423 424
4 425 426 427 428
4 429 430 431 432
3 433 434 435
3 436 437 438
4 439 440 441 442
4 443 444 445 446
3 447 448 449
3 450 451 452
4 453 454 455 456
3 457 458 459
3 460 461 462
3 463 464 465
4 466 467 468 469
3 470 471 472
4 473 474 475 476
4 477 478 479 480
4 481 482 483 484
4 485 486 487 488
4 489 490 491 492
3 493 494 495
4 496 497 498 499
4 500 501 502 503
4 504 505 506 507
4 508 509 510 511
3 512 513 514
4 515 516 517 518
4 519 520 521 522
3 523 524 525
3 526 527 528
3 529 530 531
4 532 533 534 535
4 536 537 538 539
4 540 541 542 543
4 544 545 546 547
3 548 549 550
3 551 552 553
4 554 555 556 557
3 558 559 560
4 561 562 563 564
4 565 566 567 568
4 569 570 571 572
3 573 574 575
4 576 577 578 579
4 580 581 582 583
4 584 585 586 587
4 588 589 590 591
4 592 593 594 595
4 596 597 598 599
4 600 601 602 603
4 604 605 606 607
4 608 609 610 611
3 612 613 614
4 615 616 617 618
4 619 620 621 622
4 623 624 625 626
4 627 628 629 630
4 631 632 633 634
4 635 636 637 638
4 639 640 641 642
3 643 644 645
4 646 647 648 649
3 650 651 652
4 653 654 655 656
3 657 658 659
4 660 661 662 663
4 664 665 666 667
4 668 669 670 671
4 672 673 674 675
4 676 677 678 679
4 680 681 682 683
4 684 685 686 687
4 688 689 690 691
4 692 693 694 695
4 696 697 698 699
4 700 701 702 703
3 704 705 706
3 707 708 709
4 710 711 712 713
4 714 715 716 717
4 718 719 720 721
3 722 723 724
3 725 726 727
4 728 729 730 731
4 732 733 734 735
4 736 737 738 739
3 740 741 742
4 743 744 745 746
4 747 748 749 750
3 751 752 753
3 754 755 756
4 757 758 759 760
4 761 762 763 764
4 765 766 767 768
4 769 770 771 772
3 773 774 775
3 776 777 778
3 779 780 781
4 782 783 784 785
4 786 787 788 789
3 790 791 792
4 793 794 795 796
4 797 798 799 800
3 801 802 803
3 804 805 806
3 807 808 809
3 810 811 812
4 813 814 815 816
4 817 818 819 820
4 821 822 823 824
4 825 826 827 828
4 829 830 831 832
4 833 834 835 836
4 837 838 839 840
4 841 842 843 844
4 845 846 847 848
3 849 850 851
3 852 853 854
4 855 856 857 858
4 859 860 861 862
4 863 864 865 866
3 867 868 869
4 870 871 872 873
4 874 875 876 877
4 878 879 880 881
4 882 883 884 885
4 886 887 888 889
4 890 891 892 893
4 894 895 896 897
4 898 899 900 901
4 902 903 904 905
4 906 907 908 909
4 910 911 912 913
4 914 915 916 917
3 918 919 920
4 921 922 923 924
4 925 926 927 928
3 929 930 931
4 932 933 934 935
4 936 937 938 939
3 940 941 942
4 943 944 945 946
3 947 948 949
4 950 951 952 953
4 954 955 956 957
3 958 959 960
4 961 962 963 964
4 965 966 967 968
4 969 970 971 972
4 973 974 975 976
4 977 978 979 980
3 981 982 983
3 984 985 986
3 987 988 989
4 990 991 992 993
4 994 995 996 997
3 998 999 1000
3 1001 1002 1003
4 1004 1005 1006 1007
4 1008 1009 1010 1011
3 1012 1013 1014
3 1015 1016 1017
4 1018 1019 1020 1021
3 1022 1023 1024
3 1025 1026 1027
3 463 1028 464
4 1029 1030 1031 1032
3 1033 1034 1035
4 1036 1037 1038 1039
4 1040 1041 1042 1043
4 1044 1045 1046 1047
4 1048 1049 1050 1051
4 1052 1053 1054 1055
3 1056 1057 1058
4 1059 1060 1061 1062
4 1063 1064 1065 1066
4 1067 1068 1069 1070
4 1071 1072 1073 1074
3 1075 1076 1077
4 1078 1079 1080 1081
4 1082 1083 1084 1085
3 1086 1087 1088
3 1089 1090 1091
4 1092 1093 1094 1095
4 1096 1097 1098 1099
4 1100 1101 1102 1103
3 1104 1105 1106
3 1107 1108 1109
4 1110 1111 1112 1113
4 1114 1115 1116 1117
4 1118 1119 1120 1121
4 1122 1123 1124 1125
3 1126 1127 1128
4 1129 1130 1131 1132
4 1133 1134 1135 1136
4 1137 1138 1139 1140
4 1141 1142 1143 1144
4 1145 1146 1147 1148
4 1149 1150 1151 1152
3 1153 1154 1155
4 1156 1157 1158 1159
3 1160 1161 1162
4 1163 1164 1165 1166
3 1167 1168 1169
3 1170 1171 1172
3 1173 1174 1175
4 1176 1177 1178 1179
3 1180 1181 1182
3 1183 1184 1185
4 1186 1187 1188 1189
4 1190 1191 1192 1193
4 1194 1195 1196 1197
4 1198 1199 1200 1201
3 1202 1203 1204
4 1205 1206 1207 1208
4 1209 1210 1211 1212
4 1213 1214 1215 1216
4 1217 1218 1219 1220
4 1221 1222 1223 1224
4 1225 1226 1227 1228
3 1229 1230 1231
4 1232 1233 1234 1235
3 1236 1237 1238
4 1239 1240 1241 1242
3 1243 1244 1245
3 1246 1247 1248
3 1249 1250 1251
3 1252 1253 1254
3 1255 1256 1257
4 1258 1259 1260 1261
4 1262 1263 1264 1265
4 1266 1267 1268 1269
4 1270 1271 1272 1273
4 1274 1275 1276 1277
4 1278 1279 1280 1281
3 1282 1283 1284
4 1285 1286 1287 1288
4 1289 1290 1291 1292
4 1293 1294 1295 1296
3 1297 1298 1299
3 1300 1301 1302
4 1303 1304 1305 1306
3 1307 1308 1309
