<?xml version="1.0" encoding="UTF-8" standalone="no"?>
<svg
   xmlns:dc="http://purl.org/dc/elements/1.1/"
   xmlns:cc="http://creativecommons.org/ns#"
   xmlns:rdf="http://www.w3.org/1999/02/22-rdf-syntax-ns#"
   xmlns:svg="http://www.w3.org/2000/svg"
   xmlns="http://www.w3.org/2000/svg"
   xmlns:sodipodi="http://sodipodi.sourceforge.net/DTD/sodipodi-0.dtd"
   xmlns:inkscape="http://www.inkscape.org/namespaces/inkscape"
   version="1.1"
   id="svg2"
   width="80"
   height="80"
   viewBox="0 0 80 80"
   sodipodi:docname="beaker.svg"
   inkscape:version="1.0.1 (3bc2e813f5, 2020-09-07)"
   inkscape:export-filename="/home/raster/C/th-efl/th/img/ic/beaker-040.png"
   inkscape:export-xdpi="48"
   inkscape:export-ydpi="48">
  <metadata
     id="metadata8">
    <rdf:RDF>
      <cc:Work
         rdf:about="">
        <dc:format>image/svg+xml</dc:format>
        <dc:type
           rdf:resource="http://purl.org/dc/dcmitype/StillImage" />
        <dc:title></dc:title>
      </cc:Work>
    </rdf:RDF>
  </metadata>
  <defs
     id="defs6" />
  <sodipodi:namedview
     inkscape:document-rotation="0"
     pagecolor="#404040"
     bordercolor="#666666"
     borderopacity="1"
     objecttolerance="10"
     gridtolerance="10"
     guidetolerance="10"
     inkscape:pageopacity="0"
     inkscape:pageshadow="2"
     inkscape:window-width="1920"
     inkscape:window-height="1017"
     id="namedview4"
     showgrid="true"
     inkscape:zoom="10.45"
     inkscape:cx="40"
     inkscape:cy="40.047847"
     inkscape:window-x="0"
     inkscape:window-y="0"
     inkscape:window-maximized="1"
     inkscape:current-layer="g10"
     inkscape:snap-bbox="true"
     inkscape:snap-nodes="true"
     inkscape:snap-intersection-paths="true"
     inkscape:object-paths="true"
     inkscape:bbox-paths="true"
     inkscape:bbox-nodes="true">
    <inkscape:grid
       type="xygrid"
       id="grid837"
       empspacing="4" />
  </sodipodi:namedview>
  <g
     inkscape:groupmode="layer"
     inkscape:label="Image"
     id="g10">
    <path
       style="fill:#ffffff;fill-opacity:0.40000001;fill-rule:evenodd;stroke:none;stroke-width:1px;stroke-linecap:butt;stroke-linejoin:miter;stroke-opacity:1"
       d="m 32,8 c -2,0 -4,2 -4,4 0,2 2,4 4,4 v 16 c 0,2 -2,6 -4,8 L 12,60 c -8,8 0,12 4,12 h 48 c 4,0 12,-4 4,-12 L 52,40 C 50,38 48,34 48,32 V 16 c 2,0 4,-2 4,-4 0,-2 -2,-4 -4,-4 z"
       id="path2703"
       sodipodi:nodetypes="czcccccccccczcc" />
    <path
       id="path2705"
       style="fill:#8abc34;fill-opacity:1;fill-rule:evenodd;stroke:none;stroke-width:1px;stroke-linecap:butt;stroke-linejoin:miter;stroke-opacity:1"
       d="M 23.599609 48 L 14 60 C 6 68 14 70 18 70 L 62 70 C 66 70 74 68 66 60 L 56.400391 48 L 23.599609 48 z " />
    <path
       id="path2717"
       style="fill:#ffffff;fill-opacity:0.4;fill-rule:evenodd;stroke:none;stroke-width:1px;stroke-linecap:butt;stroke-linejoin:miter;stroke-opacity:1"
       d="m 34,16 v 16 c 0,2 -1,6 -3,8 L 16,60 c -8,8 -2,10 2,10 h 2 C 16,70 10,68 18,60 L 33,40 c 2,-2 3,-6 3,-8 V 16 Z"
       sodipodi:nodetypes="csccscccscc" />
    <circle
       style="fill:#ffffff;fill-opacity:0.40000001;stroke:none;stroke-width:3.77953"
       id="path2711"
       cx="34"
       cy="66"
       r="2" />
    <circle
       style="fill:#ffffff;fill-opacity:0.40000001;stroke:none;stroke-width:7.55906"
       id="circle2713"
       cx="44"
       cy="58"
       r="4" />
    <circle
       style="fill:#ffffff;fill-opacity:0.40000001;stroke:none;stroke-width:11.3386"
       id="circle2715"
       cx="30"
       cy="56"
       r="6" />
    <circle
       style="fill:#ffffff;fill-opacity:0.4;stroke:none;stroke-width:7.55907"
       id="path2726"
       cx="32"
       cy="12"
       r="2" />
  </g>
</svg>
