<?xml version="1.0" encoding="UTF-8" standalone="no"?>
<svg
   xmlns:dc="http://purl.org/dc/elements/1.1/"
   xmlns:cc="http://creativecommons.org/ns#"
   xmlns:rdf="http://www.w3.org/1999/02/22-rdf-syntax-ns#"
   xmlns:svg="http://www.w3.org/2000/svg"
   xmlns="http://www.w3.org/2000/svg"
   xmlns:sodipodi="http://sodipodi.sourceforge.net/DTD/sodipodi-0.dtd"
   xmlns:inkscape="http://www.inkscape.org/namespaces/inkscape"
   version="1.1"
   id="svg2"
   width="80"
   height="80"
   viewBox="0 0 80 80"
   sodipodi:docname="memory.svg"
   inkscape:version="1.0.1 (3bc2e813f5, 2020-09-07)"
   inkscape:export-filename="/home/raster/C/th-efl/th/img/ic/cpu-040.png"
   inkscape:export-xdpi="48"
   inkscape:export-ydpi="48">
  <metadata
     id="metadata8">
    <rdf:RDF>
      <cc:Work
         rdf:about="">
        <dc:format>image/svg+xml</dc:format>
        <dc:type
           rdf:resource="http://purl.org/dc/dcmitype/StillImage" />
        <dc:title></dc:title>
      </cc:Work>
    </rdf:RDF>
  </metadata>
  <defs
     id="defs6">
    <mask
       maskUnits="userSpaceOnUse"
       id="mask947">
      <rect
         style="opacity:1;fill:#a0a0a0;fill-opacity:1;stroke-width:3.96122;stroke-linecap:round;stroke-linejoin:round"
         id="rect949"
         width="60"
         height="40"
         x="10"
         y="5" />
    </mask>
    <mask
       id="mask3567"
       maskUnits="userSpaceOnUse">
      <path
         style="fill:#ffffff;fill-opacity:1;fill-rule:evenodd;stroke:none;stroke-width:1px;stroke-linecap:butt;stroke-linejoin:miter;stroke-opacity:1"
         d="M 40,10 C 19,10 20,17.832395 20,30 20,42.167605 19,70 40,70 61,70 60,42.167605 60,30 60,17.832395 61,10 40,10 Z"
         id="path3569"
         sodipodi:nodetypes="zzzzz" />
    </mask>
    <clipPath
       id="clipPath922"
       clipPathUnits="userSpaceOnUse">
      <path
         sodipodi:nodetypes="ccccccc"
         inkscape:connector-curvature="0"
         id="path924"
         d="m 1.3229166,295.4125 h 7.9375003 v -6.08542 c 0,-0.52917 0,-0.52917 -0.529167,-0.52917 H 1.8520833 c -0.5291666,0 -0.5291666,0 -0.5291667,0.52917 z"
         style="fill:#ffffff;fill-opacity:1;fill-rule:evenodd;stroke:none;stroke-width:0.264583px;stroke-linecap:butt;stroke-linejoin:miter;stroke-opacity:1" />
    </clipPath>
    <clipPath
       id="clipPath922-6"
       clipPathUnits="userSpaceOnUse">
      <path
         sodipodi:nodetypes="ccccccc"
         inkscape:connector-curvature="0"
         id="path924-7"
         d="m 1.3229166,295.4125 h 7.9375003 v -6.08542 c 0,-0.52917 0,-0.52917 -0.529167,-0.52917 H 1.8520833 c -0.5291666,0 -0.5291666,0 -0.5291667,0.52917 z"
         style="fill:#ffffff;fill-opacity:1;fill-rule:evenodd;stroke:none;stroke-width:0.264583px;stroke-linecap:butt;stroke-linejoin:miter;stroke-opacity:1" />
    </clipPath>
    <clipPath
       clipPathUnits="userSpaceOnUse"
       id="clipPath876">
      <path
         inkscape:connector-curvature="0"
         style="opacity:1;fill:#ffffff;fill-opacity:1;stroke:none;stroke-width:1;stroke-linecap:round;stroke-linejoin:round;stroke-miterlimit:4;stroke-dasharray:none;stroke-opacity:1"
         d="m 5.2916667,287.73958 a 3.96875,3.96875 0 0 0 -3.9687501,3.96875 3.96875,3.96875 0 0 0 3.9687501,3.96875 3.96875,3.96875 0 0 0 3.96875,-3.96875 3.96875,3.96875 0 0 0 -3.96875,-3.96875 z m 0,2.38125 a 1.5875001,1.5875044 0 0 1 1.5875,1.5875 1.5875001,1.5875044 0 0 1 -1.5875,1.5875 1.5875001,1.5875044 0 0 1 -1.5875,-1.5875 1.5875001,1.5875044 0 0 1 1.5875,-1.5875 z"
         id="path878" />
    </clipPath>
  </defs>
  <sodipodi:namedview
     inkscape:document-rotation="0"
     pagecolor="#404040"
     bordercolor="#666666"
     borderopacity="1"
     objecttolerance="10"
     gridtolerance="10"
     guidetolerance="10"
     inkscape:pageopacity="0"
     inkscape:pageshadow="2"
     inkscape:window-width="1920"
     inkscape:window-height="1017"
     id="namedview4"
     showgrid="true"
     inkscape:zoom="10.45"
     inkscape:cx="40"
     inkscape:cy="40.047847"
     inkscape:window-x="0"
     inkscape:window-y="0"
     inkscape:window-maximized="1"
     inkscape:current-layer="g10"
     showguides="false"
     inkscape:snap-bbox="true"
     inkscape:bbox-nodes="true"
     inkscape:snap-others="true"
     inkscape:snap-nodes="true"
     inkscape:bbox-paths="true"
     inkscape:object-paths="true"
     inkscape:snap-intersection-paths="true"
     inkscape:snap-smooth-nodes="true"
     inkscape:snap-midpoints="true">
    <inkscape:grid
       type="xygrid"
       id="grid837"
       empspacing="4"
       enabled="true"
       snapvisiblegridlinesonly="false" />
  </sodipodi:namedview>
  <g
     inkscape:groupmode="layer"
     inkscape:label="Image"
     id="g10">
    <path
       id="path2083"
       style="fill:#375d2b;fill-opacity:1;fill-rule:evenodd;stroke:none;stroke-width:1.55556px;stroke-linecap:butt;stroke-linejoin:miter;stroke-opacity:1"
       d="M 12,12 V 68 H 68 V 12 Z" />
    <rect
       style="fill:#ffc86d;fill-opacity:1;stroke:none;stroke-width:0.824761"
       id="rect2091"
       width="4"
       height="4"
       x="18"
       y="68" />
    <rect
       style="fill:#ffc86d;fill-opacity:1;stroke:none;stroke-width:0.824761"
       id="rect2093"
       width="4"
       height="4"
       x="26"
       y="68" />
    <rect
       style="fill:#ffc86d;fill-opacity:1;stroke:none;stroke-width:0.824761"
       id="rect2095"
       width="4"
       height="4"
       x="34"
       y="68" />
    <rect
       style="fill:#ffc86d;fill-opacity:1;stroke:none;stroke-width:0.824761"
       id="rect2097"
       width="4"
       height="4"
       x="42"
       y="68" />
    <rect
       style="fill:#ffc86d;fill-opacity:1;stroke:none;stroke-width:0.824761"
       id="rect2099"
       width="4"
       height="4"
       x="50"
       y="68" />
    <rect
       style="fill:#ffc86d;fill-opacity:1;stroke:none;stroke-width:0.824761"
       id="rect2101"
       width="4"
       height="4"
       x="58"
       y="68" />
    <rect
       style="fill:#dcdcdc;fill-opacity:1;stroke:none;stroke-width:9.89713"
       id="rect2103"
       width="48"
       height="48"
       x="16"
       y="16"
       ry="8" />
    <rect
       style="fill:#ffc86d;fill-opacity:1;stroke:none;stroke-width:0.824761"
       id="rect2145"
       width="4"
       height="4"
       x="-62"
       y="68"
       transform="rotate(-90)" />
    <rect
       style="fill:#ffc86d;fill-opacity:1;stroke:none;stroke-width:0.824761"
       id="rect2147"
       width="4"
       height="4"
       x="-54"
       y="68"
       transform="rotate(-90)" />
    <rect
       style="fill:#ffc86d;fill-opacity:1;stroke:none;stroke-width:0.824761"
       id="rect2149"
       width="4"
       height="4"
       x="-46"
       y="68"
       transform="rotate(-90)" />
    <rect
       style="fill:#ffc86d;fill-opacity:1;stroke:none;stroke-width:0.824761"
       id="rect2151"
       width="4"
       height="4"
       x="-38"
       y="68"
       transform="rotate(-90)" />
    <rect
       style="fill:#ffc86d;fill-opacity:1;stroke:none;stroke-width:0.824761"
       id="rect2153"
       width="4"
       height="4"
       x="-30"
       y="68"
       transform="rotate(-90)" />
    <rect
       style="fill:#ffc86d;fill-opacity:1;stroke:none;stroke-width:0.824761"
       id="rect2155"
       width="4"
       height="4"
       x="-22"
       y="68"
       transform="rotate(-90)" />
    <rect
       style="fill:#ffc86d;fill-opacity:1;stroke:none;stroke-width:0.824761"
       id="rect2157"
       width="4"
       height="4"
       x="-62"
       y="8"
       transform="rotate(-90)" />
    <rect
       style="fill:#ffc86d;fill-opacity:1;stroke:none;stroke-width:0.824761"
       id="rect2159"
       width="4"
       height="4"
       x="-54"
       y="8"
       transform="rotate(-90)" />
    <rect
       style="fill:#ffc86d;fill-opacity:1;stroke:none;stroke-width:0.824761"
       id="rect2161"
       width="4"
       height="4"
       x="-46"
       y="8"
       transform="rotate(-90)" />
    <rect
       style="fill:#ffc86d;fill-opacity:1;stroke:none;stroke-width:0.824761"
       id="rect2163"
       width="4"
       height="4"
       x="-38"
       y="8"
       transform="rotate(-90)" />
    <rect
       style="fill:#ffc86d;fill-opacity:1;stroke:none;stroke-width:0.824761"
       id="rect2165"
       width="4"
       height="4"
       x="-30"
       y="8"
       transform="rotate(-90)" />
    <rect
       style="fill:#ffc86d;fill-opacity:1;stroke:none;stroke-width:0.824761"
       id="rect2167"
       width="4"
       height="4"
       x="-22"
       y="8"
       transform="rotate(-90)" />
    <rect
       style="fill:#ffc86d;fill-opacity:1;stroke:none;stroke-width:0.824761"
       id="rect2169"
       width="4"
       height="4"
       x="18"
       y="8" />
    <rect
       style="fill:#ffc86d;fill-opacity:1;stroke:none;stroke-width:0.824761"
       id="rect2171"
       width="4"
       height="4"
       x="26"
       y="8" />
    <rect
       style="fill:#ffc86d;fill-opacity:1;stroke:none;stroke-width:0.824761"
       id="rect2173"
       width="4"
       height="4"
       x="34"
       y="8" />
    <rect
       style="fill:#ffc86d;fill-opacity:1;stroke:none;stroke-width:0.824761"
       id="rect2175"
       width="4"
       height="4"
       x="42"
       y="8" />
    <rect
       style="fill:#ffc86d;fill-opacity:1;stroke:none;stroke-width:0.824761"
       id="rect2177"
       width="4"
       height="4"
       x="50"
       y="8" />
    <rect
       style="fill:#ffc86d;fill-opacity:1;stroke:none;stroke-width:0.824761"
       id="rect2179"
       width="4"
       height="4"
       x="58"
       y="8" />
  </g>
</svg>
