<?xml version="1.0" encoding="UTF-8" standalone="no"?>
<svg
   version="1.1"
   id="svg2"
   width="80"
   height="80"
   viewBox="0 0 80 80"
   sodipodi:docname="cpufreq.svg"
   inkscape:version="1.1 (c4e8f9ed74, 2021-05-24)"
   inkscape:export-filename="/home/raster/C/th-efl/img/clock_base-040.png"
   inkscape:export-xdpi="48"
   inkscape:export-ydpi="48"
   xmlns:inkscape="http://www.inkscape.org/namespaces/inkscape"
   xmlns:sodipodi="http://sodipodi.sourceforge.net/DTD/sodipodi-0.dtd"
   xmlns="http://www.w3.org/2000/svg"
   xmlns:svg="http://www.w3.org/2000/svg"
   xmlns:rdf="http://www.w3.org/1999/02/22-rdf-syntax-ns#"
   xmlns:cc="http://creativecommons.org/ns#"
   xmlns:dc="http://purl.org/dc/elements/1.1/">
  <metadata
     id="metadata8">
    <rdf:RDF>
      <cc:Work
         rdf:about="">
        <dc:format>image/svg+xml</dc:format>
        <dc:type
           rdf:resource="http://purl.org/dc/dcmitype/StillImage" />
      </cc:Work>
    </rdf:RDF>
  </metadata>
  <defs
     id="defs6" />
  <sodipodi:namedview
     pagecolor="#404040"
     bordercolor="#666666"
     borderopacity="1"
     objecttolerance="10"
     gridtolerance="10"
     guidetolerance="10"
     inkscape:pageopacity="0"
     inkscape:pageshadow="2"
     inkscape:window-width="2560"
     inkscape:window-height="1377"
     id="namedview4"
     showgrid="true"
     inkscape:zoom="15.1"
     inkscape:cx="20.728477"
     inkscape:cy="40.033113"
     inkscape:window-x="0"
     inkscape:window-y="0"
     inkscape:window-maximized="1"
     inkscape:current-layer="g10"
     inkscape:snap-bbox="true"
     inkscape:bbox-nodes="true"
     inkscape:pagecheckerboard="0">
    <inkscape:grid
       type="xygrid"
       id="grid837"
       empspacing="4" />
  </sodipodi:namedview>
  <g
     inkscape:groupmode="layer"
     inkscape:label="Image"
     id="g10">
    <circle
       style="fill:#ffffff;stroke:none;stroke-width:3.77953"
       id="path839"
       cx="39.959396"
       cy="40"
       r="36" />
    <rect
       style="fill:#d4aa00;fill-opacity:1;stroke:none;stroke-width:3.77953"
       id="rect1563"
       width="8"
       height="4.0406051"
       x="-32.089706"
       y="54.553341"
       ry="2"
       inkscape:transform-center-x="19.91403"
       inkscape:transform-center-y="19.819462"
       transform="rotate(-45)" />
    <rect
       style="fill:#d4aa00;fill-opacity:1;stroke:none;stroke-width:3.77953"
       id="rect1565"
       width="8"
       height="4.0406051"
       x="63.959396"
       y="38"
       ry="2" />
    <rect
       style="fill:#000000;fill-opacity:1;stroke:none;stroke-width:0.5;stroke-linecap:round;stroke-linejoin:round;stroke-miterlimit:4;stroke-dasharray:none;stroke-opacity:1"
       id="rect4287"
       width="28"
       height="27.99999"
       x="26"
       y="26" />
    <rect
       y="-58"
       x="38"
       height="36"
       width="4"
       id="rect4496"
       style="fill:#000000;fill-opacity:1;stroke:none;stroke-width:0.5;stroke-linecap:round;stroke-linejoin:round;stroke-miterlimit:4;stroke-dasharray:none;stroke-opacity:1"
       transform="rotate(90)" />
    <rect
       y="-58"
       x="30"
       height="36"
       width="4"
       id="rect569"
       style="fill:#000000;fill-opacity:1;stroke:none;stroke-width:0.5;stroke-linecap:round;stroke-linejoin:round;stroke-miterlimit:4;stroke-dasharray:none;stroke-opacity:1"
       transform="rotate(90)" />
    <rect
       y="-58"
       x="46"
       height="36"
       width="4"
       id="rect1131"
       style="fill:#000000;fill-opacity:1;stroke:none;stroke-width:0.5;stroke-linecap:round;stroke-linejoin:round;stroke-miterlimit:4;stroke-dasharray:none;stroke-opacity:1"
       transform="rotate(90)" />
    <rect
       y="-58"
       x="-34"
       height="36"
       width="4"
       id="rect1133"
       style="fill:#000000;fill-opacity:1;stroke:none;stroke-width:0.5;stroke-linecap:round;stroke-linejoin:round;stroke-miterlimit:4;stroke-dasharray:none;stroke-opacity:1"
       transform="scale(-1)" />
    <rect
       y="-58"
       x="-42"
       height="36"
       width="4"
       id="rect1295"
       style="fill:#000000;fill-opacity:1;stroke:none;stroke-width:0.5;stroke-linecap:round;stroke-linejoin:round;stroke-miterlimit:4;stroke-dasharray:none;stroke-opacity:1"
       transform="scale(-1)" />
    <rect
       y="-58"
       x="-50"
       height="36"
       width="4"
       id="rect1297"
       style="fill:#000000;fill-opacity:1;stroke:none;stroke-width:0.5;stroke-linecap:round;stroke-linejoin:round;stroke-miterlimit:4;stroke-dasharray:none;stroke-opacity:1"
       transform="scale(-1)" />
    <path
       id="path2586"
       style="fill:#999999;stroke-width:3.77953"
       d="M 40 6 A 34 34 0 0 0 6 40 A 34 34 0 0 0 40 74 A 34 34 0 0 0 74 40 A 34 34 0 0 0 40 6 z M 40 10 A 30 30 0 0 1 70 40 A 30 30 0 0 1 40 70 A 30 30 0 0 1 10 40 A 30 30 0 0 1 40 10 z " />
    <path
       id="path2693"
       style="fill:#999999;stroke-width:3.77953"
       d="M 40 12 A 28 28 0 0 0 12 40 A 28 28 0 0 0 40 68 A 28 28 0 0 0 68 40 A 28 28 0 0 0 40 12 z M 40 16 A 24 24 0 0 1 64 40 A 24 24 0 0 1 40 64 A 24 24 0 0 1 16 40 A 24 24 0 0 1 40 16 z " />
    <path
       id="path2800"
       style="fill:#999999;stroke-width:3.77953"
       d="M 40 18 A 22 22 0 0 0 18 40 A 22 22 0 0 0 40 62 A 22 22 0 0 0 62 40 A 22 22 0 0 0 40 18 z M 40 22 A 18 18 0 0 1 58 40 A 18 18 0 0 1 40 58 A 18 18 0 0 1 22 40 A 18 18 0 0 1 40 22 z " />
    <path
       inkscape:connector-curvature="0"
       style="fill:#ffaaaa;fill-opacity:1;stroke:none;stroke-width:0.5;stroke-linecap:round;stroke-linejoin:round;stroke-miterlimit:4;stroke-dasharray:none;stroke-opacity:1"
       d="M 40,4 A 36,36 0 0 0 36.029294,4.262695 L 40,40 43.973635,4.237305 A 36,36 0 0 0 40,4 Z"
       id="circle4437"
       inkscape:export-xdpi="90"
       inkscape:export-ydpi="90" />
  </g>
</svg>
