<?xml version="1.0" encoding="UTF-8" standalone="no"?>
<svg
   xmlns:dc="http://purl.org/dc/elements/1.1/"
   xmlns:cc="http://creativecommons.org/ns#"
   xmlns:rdf="http://www.w3.org/1999/02/22-rdf-syntax-ns#"
   xmlns:svg="http://www.w3.org/2000/svg"
   xmlns="http://www.w3.org/2000/svg"
   xmlns:sodipodi="http://sodipodi.sourceforge.net/DTD/sodipodi-0.dtd"
   xmlns:inkscape="http://www.inkscape.org/namespaces/inkscape"
   version="1.1"
   id="svg2"
   width="80"
   height="80"
   viewBox="0 0 80 80"
   sodipodi:docname="datatape.svg"
   inkscape:version="1.0.1 (3bc2e813f5, 2020-09-07)"
   inkscape:export-filename="/home/raster/C/th-efl/th/img/ic/datatape-040.png"
   inkscape:export-xdpi="48"
   inkscape:export-ydpi="48">
  <metadata
     id="metadata8">
    <rdf:RDF>
      <cc:Work
         rdf:about="">
        <dc:format>image/svg+xml</dc:format>
        <dc:type
           rdf:resource="http://purl.org/dc/dcmitype/StillImage" />
        <dc:title></dc:title>
      </cc:Work>
    </rdf:RDF>
  </metadata>
  <defs
     id="defs6">
    <mask
       maskUnits="userSpaceOnUse"
       id="mask947">
      <rect
         style="opacity:1;fill:#a0a0a0;fill-opacity:1;stroke-width:3.96122;stroke-linecap:round;stroke-linejoin:round"
         id="rect949"
         width="60"
         height="40"
         x="10"
         y="5" />
    </mask>
    <mask
       id="mask3567"
       maskUnits="userSpaceOnUse">
      <path
         style="fill:#ffffff;fill-opacity:1;fill-rule:evenodd;stroke:none;stroke-width:1px;stroke-linecap:butt;stroke-linejoin:miter;stroke-opacity:1"
         d="M 40,10 C 19,10 20,17.832395 20,30 20,42.167605 19,70 40,70 61,70 60,42.167605 60,30 60,17.832395 61,10 40,10 Z"
         id="path3569"
         sodipodi:nodetypes="zzzzz" />
    </mask>
    <clipPath
       id="clipPath922"
       clipPathUnits="userSpaceOnUse">
      <path
         sodipodi:nodetypes="ccccccc"
         inkscape:connector-curvature="0"
         id="path924"
         d="m 1.3229166,295.4125 h 7.9375003 v -6.08542 c 0,-0.52917 0,-0.52917 -0.529167,-0.52917 H 1.8520833 c -0.5291666,0 -0.5291666,0 -0.5291667,0.52917 z"
         style="fill:#ffffff;fill-opacity:1;fill-rule:evenodd;stroke:none;stroke-width:0.264583px;stroke-linecap:butt;stroke-linejoin:miter;stroke-opacity:1" />
    </clipPath>
    <clipPath
       id="clipPath922-6"
       clipPathUnits="userSpaceOnUse">
      <path
         sodipodi:nodetypes="ccccccc"
         inkscape:connector-curvature="0"
         id="path924-7"
         d="m 1.3229166,295.4125 h 7.9375003 v -6.08542 c 0,-0.52917 0,-0.52917 -0.529167,-0.52917 H 1.8520833 c -0.5291666,0 -0.5291666,0 -0.5291667,0.52917 z"
         style="fill:#ffffff;fill-opacity:1;fill-rule:evenodd;stroke:none;stroke-width:0.264583px;stroke-linecap:butt;stroke-linejoin:miter;stroke-opacity:1" />
    </clipPath>
    <clipPath
       clipPathUnits="userSpaceOnUse"
       id="clipPath876">
      <path
         inkscape:connector-curvature="0"
         style="opacity:1;fill:#ffffff;fill-opacity:1;stroke:none;stroke-width:1;stroke-linecap:round;stroke-linejoin:round;stroke-miterlimit:4;stroke-dasharray:none;stroke-opacity:1"
         d="m 5.2916667,287.73958 a 3.96875,3.96875 0 0 0 -3.9687501,3.96875 3.96875,3.96875 0 0 0 3.9687501,3.96875 3.96875,3.96875 0 0 0 3.96875,-3.96875 3.96875,3.96875 0 0 0 -3.96875,-3.96875 z m 0,2.38125 a 1.5875001,1.5875044 0 0 1 1.5875,1.5875 1.5875001,1.5875044 0 0 1 -1.5875,1.5875 1.5875001,1.5875044 0 0 1 -1.5875,-1.5875 1.5875001,1.5875044 0 0 1 1.5875,-1.5875 z"
         id="path878" />
    </clipPath>
  </defs>
  <sodipodi:namedview
     inkscape:document-rotation="0"
     pagecolor="#404040"
     bordercolor="#666666"
     borderopacity="1"
     objecttolerance="10"
     gridtolerance="10"
     guidetolerance="10"
     inkscape:pageopacity="0"
     inkscape:pageshadow="2"
     inkscape:window-width="1920"
     inkscape:window-height="1017"
     id="namedview4"
     showgrid="true"
     inkscape:zoom="10.4625"
     inkscape:cx="40"
     inkscape:cy="40"
     inkscape:window-x="0"
     inkscape:window-y="0"
     inkscape:window-maximized="1"
     inkscape:current-layer="g10"
     showguides="false"
     inkscape:snap-bbox="true"
     inkscape:bbox-nodes="true"
     inkscape:snap-others="true"
     inkscape:snap-nodes="true"
     inkscape:bbox-paths="true"
     inkscape:object-paths="true"
     inkscape:snap-intersection-paths="true"
     inkscape:snap-smooth-nodes="true"
     inkscape:snap-midpoints="true">
    <inkscape:grid
       type="xygrid"
       id="grid837"
       empspacing="4"
       enabled="true"
       snapvisiblegridlinesonly="false" />
  </sodipodi:namedview>
  <g
     inkscape:groupmode="layer"
     inkscape:label="Image"
     id="g10">
    <rect
       style="fill:#a0a0a0;stroke-width:3.77953;fill-opacity:1"
       id="rect2021"
       width="64"
       height="48"
       x="8"
       y="16" />
    <rect
       style="fill:#303030;fill-opacity:1;stroke:none;stroke-width:4.27234"
       id="rect2063"
       width="23"
       height="1"
       x="-16.921162"
       y="55.471142"
       transform="rotate(-30)" />
    <circle
       style="fill:#ffffff;stroke-width:3.77953"
       id="path2023"
       cx="28"
       cy="40"
       r="8" />
    <rect
       style="fill:#303030;fill-opacity:1;stroke:none;stroke-width:3.77953"
       id="rect2059"
       width="1"
       height="18"
       x="67"
       y="40" />
    <circle
       style="fill:#303030;stroke-width:7.55907;fill-opacity:1"
       id="circle2027"
       cx="52.095581"
       cy="40"
       r="16" />
    <circle
       style="fill:#ffffff;stroke-width:3.77953"
       id="circle2025"
       cx="52"
       cy="40"
       r="8" />
    <rect
       style="fill:#303030;fill-opacity:1;stroke:none;stroke-width:6.42397"
       id="rect2061"
       width="52"
       height="1"
       x="14"
       y="59" />
    <circle
       style="fill:#ffffff;stroke-width:0.944883"
       id="circle2029"
       cx="66"
       cy="58"
       r="2" />
    <circle
       style="fill:#ffffff;stroke-width:0.944883"
       id="circle2031"
       cx="14"
       cy="58"
       r="2" />
    <path
       id="path2037"
       style="fill:#303030;stroke-width:3.77953;fill-opacity:1"
       d="m 33.365234,37.316406 -3.578125,1.789063 A 2,2 0 0 1 30,40 2,2 0 0 1 29.787109,40.894531 l 3.578125,1.789063 A 6,6 0 0 0 34,40 6,6 0 0 0 33.365234,37.316406 Z"
       inkscape:transform-center-x="-3.8968402"
       inkscape:transform-center-y="-0.015179305" />
    <path
       id="path2049"
       style="fill:#303030;stroke-width:3.77953;fill-opacity:1"
       d="m 22.975248,36.715292 3.338437,2.204215 a 2,2 0 0 1 0.668241,-0.631634 2,2 0 0 1 0.881132,-0.262897 l -0.239689,-3.993278 a 6,6 0 0 0 -2.641443,0.792073 6,6 0 0 0 -2.006678,1.891521 z"
       inkscape:transform-center-x="2.5775613"
       inkscape:transform-center-y="-3.5395768" />
    <path
       id="path2051"
       style="fill:#303030;stroke-width:3.77953;fill-opacity:1"
       d="m 27.649661,46.01384 0.239688,-3.993278 a 2,2 0 0 1 -0.881132,-0.262897 2,2 0 0 1 -0.668241,-0.631634 l -3.338436,2.204215 a 6,6 0 0 0 2.006677,1.891521 6,6 0 0 0 2.641444,0.792073 z"
       inkscape:transform-center-x="2.5512698"
       inkscape:transform-center-y="3.5547562" />
    <path
       id="path2053"
       style="fill:#303030;stroke-width:3.77953;fill-opacity:1"
       d="m 51.036161,34.102756 0.802015,3.919247 a 2,2 0 0 1 0.919151,0.02588 2,2 0 0 1 0.80895,0.437159 l 2.654189,-2.99316 A 6,6 0 0 0 53.792603,34.18418 6,6 0 0 0 51.036161,34.10275 Z"
       inkscape:transform-center-x="-1.3748129"
       inkscape:transform-center-y="-3.75415" />
    <path
       id="path2055"
       style="fill:#303030;stroke-width:3.77953;fill-opacity:1"
       d="m 47.766403,43.983133 2.993159,-2.65419 a 2,2 0 0 1 -0.437158,-0.80895 2,2 0 0 1 -0.02588,-0.919151 l -3.919247,-0.802015 a 6,6 0 0 0 0.08143,2.756441 6,6 0 0 0 1.307702,2.427865 z"
       inkscape:transform-center-x="3.7462854"
       inkscape:transform-center-y="1.4041377" />
    <path
       id="path2057"
       style="fill:#303030;stroke-width:3.77953;fill-opacity:1"
       d="M 57.957938,41.874638 54.162763,40.60958 a 2,2 0 0 1 -0.481993,0.783066 2,2 0 0 1 -0.783065,0.481992 l 1.265058,3.795175 a 6,6 0 0 0 2.346435,-1.44874 6,6 0 0 0 1.44874,-2.346435 z"
       inkscape:transform-center-x="-3.1743212"
       inkscape:transform-center-y="3.1528542" />
  </g>
</svg>
