<?xml version="1.0" encoding="UTF-8" standalone="no"?>
<svg
   xmlns:dc="http://purl.org/dc/elements/1.1/"
   xmlns:cc="http://creativecommons.org/ns#"
   xmlns:rdf="http://www.w3.org/1999/02/22-rdf-syntax-ns#"
   xmlns:svg="http://www.w3.org/2000/svg"
   xmlns="http://www.w3.org/2000/svg"
   xmlns:xlink="http://www.w3.org/1999/xlink"
   xmlns:sodipodi="http://sodipodi.sourceforge.net/DTD/sodipodi-0.dtd"
   xmlns:inkscape="http://www.inkscape.org/namespaces/inkscape"
   inkscape:export-ydpi="48"
   inkscape:export-xdpi="48"
   inkscape:export-filename="/home/raster/C/th-efl/th/img/ic/efm-trash-040.png"
   inkscape:version="1.0 (4035a4fb49, 2020-05-01)"
   sodipodi:docname="efm-trash.svg"
   viewBox="0 0 80 80"
   height="80"
   width="80"
   id="svg2"
   version="1.1">
  <metadata
     id="metadata8">
    <rdf:RDF>
      <cc:Work
         rdf:about="">
        <dc:format>image/svg+xml</dc:format>
        <dc:type
           rdf:resource="http://purl.org/dc/dcmitype/StillImage" />
        <dc:title></dc:title>
      </cc:Work>
    </rdf:RDF>
  </metadata>
  <defs
     id="defs6">
    <linearGradient
       id="linearGradient892"
       inkscape:collect="always">
      <stop
         id="stop888"
         offset="0"
         style="stop-color:#000000;stop-opacity:1;" />
      <stop
         id="stop890"
         offset="1"
         style="stop-color:#000000;stop-opacity:0;" />
    </linearGradient>
    <linearGradient
       id="linearGradient884"
       inkscape:collect="always">
      <stop
         id="stop880"
         offset="0"
         style="stop-color:#000000;stop-opacity:1;" />
      <stop
         id="stop882"
         offset="1"
         style="stop-color:#000000;stop-opacity:0;" />
    </linearGradient>
    <linearGradient
       id="linearGradient876"
       inkscape:collect="always">
      <stop
         id="stop872"
         offset="0"
         style="stop-color:#000000;stop-opacity:1;" />
      <stop
         id="stop874"
         offset="1"
         style="stop-color:#000000;stop-opacity:0;" />
    </linearGradient>
    <rect
       x="16"
       y="8"
       width="107.861"
       height="39.245391"
       id="rect1822" />
    <rect
       x="16"
       y="8"
       width="53.882812"
       height="44.666695"
       id="rect12368" />
    <linearGradient
       gradientUnits="userSpaceOnUse"
       y2="24"
       x2="28"
       y1="73"
       x1="28"
       id="linearGradient878"
       xlink:href="#linearGradient876"
       inkscape:collect="always" />
    <linearGradient
       gradientUnits="userSpaceOnUse"
       y2="24"
       x2="40"
       y1="73"
       x1="40"
       id="linearGradient886"
       xlink:href="#linearGradient884"
       inkscape:collect="always" />
    <linearGradient
       gradientUnits="userSpaceOnUse"
       y2="24"
       x2="52"
       y1="73"
       x1="52"
       id="linearGradient894"
       xlink:href="#linearGradient892"
       inkscape:collect="always" />
  </defs>
  <sodipodi:namedview
     inkscape:current-layer="g10"
     inkscape:window-maximized="1"
     inkscape:window-y="0"
     inkscape:window-x="0"
     inkscape:cy="40"
     inkscape:cx="40.119601"
     inkscape:zoom="15.1875"
     showgrid="true"
     id="namedview4"
     inkscape:window-height="1377"
     inkscape:window-width="2560"
     inkscape:pageshadow="2"
     inkscape:pageopacity="0"
     guidetolerance="10"
     gridtolerance="10"
     objecttolerance="10"
     borderopacity="1"
     bordercolor="#666666"
     pagecolor="#404040"
     inkscape:document-rotation="0">
    <inkscape:grid
       id="grid837"
       type="xygrid" />
  </sodipodi:namedview>
  <g
     id="g10"
     inkscape:label="Image"
     inkscape:groupmode="layer">
    <path
       sodipodi:nodetypes="ccccccccccccc"
       id="path855"
       d="M 28,12 V 8 c 0,-2 2,-4 4,-4 h 16 c 2,0 4,2 4,4 v 4 H 48 V 10 C 48,8 48,8 46,8 H 34 c -2,0 -2,0 -2,2 v 2 z"
       style="fill:#c8c8c8;fill-opacity:1;stroke-width:2;stroke-linecap:round;stroke-linejoin:round" />
    <path
       sodipodi:nodetypes="cc"
       id="path906"
       d="M 50,12 V 9"
       style="fill:none;fill-opacity:0.5;stroke:#ffffff;stroke-width:1;stroke-linecap:round;stroke-linejoin:round;stroke-miterlimit:4;stroke-dasharray:none;stroke-opacity:0.5" />
    <path
       sodipodi:nodetypes="cccc"
       id="path900"
       d="M 30,12 V 9 c 0,-2 1,-4 3,-4 h 15"
       style="fill:none;fill-opacity:0.5;stroke:#ffffff;stroke-width:1;stroke-linecap:round;stroke-linejoin:round;stroke-miterlimit:4;stroke-dasharray:none;stroke-opacity:0.5" />
    <path
       sodipodi:nodetypes="ccccc"
       id="path851"
       d="M 20,76 H 60 L 64,20 H 16 Z"
       style="fill:#c8c8c8;fill-opacity:1;stroke-width:2;stroke-linecap:round;stroke-linejoin:round" />
    <path
       sodipodi:nodetypes="ccccc"
       id="path896"
       d="M 28,76 25,20 h 10 l 1,56 z"
       style="fill:#ffffff;fill-opacity:0.5;stroke:none;stroke-width:2;stroke-linecap:round;stroke-linejoin:round;stroke-opacity:0.2" />
    <rect
       y="12"
       x="12"
       height="7.999999"
       width="56"
       id="rect853"
       style="fill:#c8c8c8;fill-opacity:1;stroke-width:2.52982;stroke-linecap:round;stroke-linejoin:round" />
    <path
       id="path857"
       d="M 60,76 64,20"
       style="fill:#c8c8c8;fill-opacity:1;stroke-width:2;stroke-linecap:round;stroke-linejoin:round" />
    <path
       sodipodi:nodetypes="ccsscccc"
       d="m 16,20 0.511719,7.169922 C 21.063254,22.004171 33.512156,22 40,22 c 7.506184,0 12.887273,0.05774 12.887273,8.057742 0,8 -0.220606,30.608925 -0.887273,45.942258 h 8 l 4,-56 z"
       style="fill:#000000;fill-opacity:0.2;stroke-width:2;stroke-linecap:round;stroke-linejoin:round"
       id="path859" />
    <rect
       y="12"
       x="57"
       height="8"
       width="11"
       id="rect864"
       style="fill:#000000;fill-opacity:0.2;stroke-width:2;stroke-linecap:round;stroke-linejoin:round" />
    <path
       sodipodi:nodetypes="cczcc"
       id="path866"
       d="m 35,25 1,43 c 0,2 2,4 4,4 2,0 4,-2 4,-4 l 1,-43"
       style="fill:none;fill-opacity:0.2;stroke:url(#linearGradient886);stroke-width:2;stroke-linecap:round;stroke-linejoin:round;stroke-opacity:0.2" />
    <path
       style="fill:none;fill-opacity:0.2;stroke:url(#linearGradient894);stroke-width:2;stroke-linecap:round;stroke-linejoin:round;stroke-opacity:0.2"
       d="m 49,25 -1,43 c 0,2 2,4 4,4 2,0 4,-2 4,-4 l 2,-43"
       id="path868"
       sodipodi:nodetypes="cczcc" />
    <path
       sodipodi:nodetypes="cczcc"
       id="path870"
       d="m 22,25 2,43 c 0,2 2,4 4,4 2,0 4,-2 4,-4 L 31,25"
       style="fill:none;fill-opacity:0.2;stroke:url(#linearGradient878);stroke-width:2;stroke-linecap:round;stroke-linejoin:round;stroke-opacity:0.2" />
    <rect
       y="12"
       x="24"
       height="8"
       width="9.9460077"
       id="rect898"
       style="fill:#ffffff;fill-opacity:0.5;stroke:none;stroke-width:3.15373;stroke-linecap:round;stroke-linejoin:round;stroke-opacity:0.2" />
    <path
       d="M 33 7.5 C 32.75 7.5 32.556294 7.4985193 32.367188 7.5195312 C 32.17808 7.5405432 31.951836 7.5911332 31.771484 7.7714844 C 31.591133 7.9518355 31.540543 8.1780804 31.519531 8.3671875 C 31.498519 8.5562946 31.5 8.75 31.5 9 L 31.5 12 L 32 12 L 32 10 C 32 8 32 8 34 8 L 46 8 C 46.733381 8 47.194136 8.0009977 47.488281 8.0996094 A 0.5 0.5 0 0 0 47.5 8 A 0.5 0.5 0 0 0 47 7.5 L 33 7.5 z "
       style="fill:#000000;fill-opacity:0.2;stroke-width:2;stroke-linecap:round;stroke-linejoin:round"
       id="path908" />
    <path
       d="M 50.566406 5.0957031 C 51.149426 5.8401662 51.5 6.8093028 51.5 8 L 51.5 12 L 52 12 L 52 8 C 52 6.9243705 51.412265 5.8602125 50.566406 5.0957031 z "
       style="fill:#000000;fill-opacity:0.2;stroke-width:2;stroke-linecap:round;stroke-linejoin:round"
       id="path925" />
  </g>
</svg>
