<?xml version="1.0" encoding="UTF-8" standalone="no"?>
<svg
   xmlns:dc="http://purl.org/dc/elements/1.1/"
   xmlns:cc="http://creativecommons.org/ns#"
   xmlns:rdf="http://www.w3.org/1999/02/22-rdf-syntax-ns#"
   xmlns:svg="http://www.w3.org/2000/svg"
   xmlns="http://www.w3.org/2000/svg"
   xmlns:xlink="http://www.w3.org/1999/xlink"
   xmlns:sodipodi="http://sodipodi.sourceforge.net/DTD/sodipodi-0.dtd"
   xmlns:inkscape="http://www.inkscape.org/namespaces/inkscape"
   inkscape:export-ydpi="48"
   inkscape:export-xdpi="48"
   inkscape:export-filename="/home/raster/C/th-efl/th/img/ic/efm-trash-full-040.png"
   inkscape:version="1.0.1 (3bc2e813f5, 2020-09-07)"
   sodipodi:docname="efm-trash-full.svg"
   viewBox="0 0 80 80"
   height="80"
   width="80"
   id="svg2"
   version="1.1">
  <metadata
     id="metadata8">
    <rdf:RDF>
      <cc:Work
         rdf:about="">
        <dc:format>image/svg+xml</dc:format>
        <dc:type
           rdf:resource="http://purl.org/dc/dcmitype/StillImage" />
        <dc:title></dc:title>
      </cc:Work>
    </rdf:RDF>
  </metadata>
  <defs
     id="defs6">
    <linearGradient
       inkscape:collect="always"
       id="linearGradient12155">
      <stop
         style="stop-color:#000000;stop-opacity:0.5"
         offset="0"
         id="stop12151" />
      <stop
         style="stop-color:#000000;stop-opacity:0"
         offset="1"
         id="stop12153" />
    </linearGradient>
    <linearGradient
       id="linearGradient892"
       inkscape:collect="always">
      <stop
         id="stop888"
         offset="0"
         style="stop-color:#000000;stop-opacity:1;" />
      <stop
         id="stop890"
         offset="1"
         style="stop-color:#000000;stop-opacity:0;" />
    </linearGradient>
    <linearGradient
       id="linearGradient884"
       inkscape:collect="always">
      <stop
         id="stop880"
         offset="0"
         style="stop-color:#000000;stop-opacity:1;" />
      <stop
         id="stop882"
         offset="1"
         style="stop-color:#000000;stop-opacity:0;" />
    </linearGradient>
    <linearGradient
       id="linearGradient876"
       inkscape:collect="always">
      <stop
         id="stop872"
         offset="0"
         style="stop-color:#000000;stop-opacity:1;" />
      <stop
         id="stop874"
         offset="1"
         style="stop-color:#000000;stop-opacity:0;" />
    </linearGradient>
    <rect
       x="16"
       y="8"
       width="107.861"
       height="39.245391"
       id="rect1822" />
    <rect
       x="16"
       y="8"
       width="53.882812"
       height="44.666695"
       id="rect12368" />
    <linearGradient
       gradientUnits="userSpaceOnUse"
       y2="24"
       x2="28"
       y1="73"
       x1="28"
       id="linearGradient878"
       xlink:href="#linearGradient876"
       inkscape:collect="always" />
    <linearGradient
       gradientUnits="userSpaceOnUse"
       y2="24"
       x2="40"
       y1="73"
       x1="40"
       id="linearGradient886"
       xlink:href="#linearGradient884"
       inkscape:collect="always" />
    <linearGradient
       gradientUnits="userSpaceOnUse"
       y2="24"
       x2="52"
       y1="73"
       x1="52"
       id="linearGradient894"
       xlink:href="#linearGradient892"
       inkscape:collect="always" />
    <linearGradient
       inkscape:collect="always"
       xlink:href="#linearGradient12155"
       id="linearGradient12157"
       x1="41"
       y1="20"
       x2="41"
       y2="18"
       gradientUnits="userSpaceOnUse" />
  </defs>
  <sodipodi:namedview
     inkscape:current-layer="g10"
     inkscape:window-maximized="0"
     inkscape:window-y="0"
     inkscape:window-x="804"
     inkscape:cy="40"
     inkscape:cx="40"
     inkscape:zoom="13.05"
     showgrid="true"
     id="namedview4"
     inkscape:window-height="1372"
     inkscape:window-width="1756"
     inkscape:pageshadow="2"
     inkscape:pageopacity="0"
     guidetolerance="10"
     gridtolerance="10"
     objecttolerance="10"
     borderopacity="1"
     bordercolor="#666666"
     pagecolor="#404040"
     inkscape:document-rotation="0">
    <inkscape:grid
       id="grid837"
       type="xygrid"
       empspacing="4" />
  </sodipodi:namedview>
  <g
     id="g10"
     inkscape:label="Image"
     inkscape:groupmode="layer">
    <path
       style="fill:#f7f7f7;fill-opacity:1;stroke:none;stroke-width:8;stroke-linecap:round;stroke-linejoin:round;stroke-opacity:0.5"
       d="m 47.946152,7.1650635 -2,-3.4641016 L 38.75,3.2368603 37.053848,12.299038 44.25,12.76314 Z"
       id="path12147" />
    <path
       style="fill:#d4d4d4;fill-opacity:1;stroke:none;stroke-width:8;stroke-linecap:round;stroke-linejoin:round;stroke-opacity:0.5"
       d="m 22.267949,14.196152 -0.633975,3.098077 2.964102,2.866025 c 0,0 7.330127,-2.696152 7.330127,-2.696152 L 27,10 25,13.464102 Z"
       id="path12145" />
    <path
       style="fill:#d9d9d9;fill-opacity:1;stroke:none;stroke-width:8;stroke-linecap:round;stroke-linejoin:round;stroke-opacity:0.5"
       d="M 53.428203,19.25833 44.133975,17.356406 45.535899,8.9282032 49,10.928203 53,4 l 4.562178,6.098076 z"
       id="path12143" />
    <path
       style="fill:#d4d4d4;fill-opacity:1;stroke:none;stroke-width:8;stroke-linecap:round;stroke-linejoin:round;stroke-opacity:0.5"
       d="m 43,9 -3,1 -1,4 c 0,0 6,5 6,5 l 4,-8 h -4 z"
       id="path12139" />
    <path
       style="fill:#b8b8b8;fill-opacity:1;stroke:none;stroke-width:8;stroke-linecap:round;stroke-linejoin:round;stroke-opacity:0.5"
       d="m 36,7 -6,8 c 0,0 3,5 3,5 l 1,-4 5,4 2,-10 z"
       id="path12137" />
    <path
       style="fill:#e5e5e5;fill-opacity:1;stroke:none;stroke-width:8;stroke-linecap:round;stroke-linejoin:round;stroke-opacity:0.5"
       d="m 21,27 -3,-9 8,-3 v 4 h 8 l -3,7 z"
       id="path12121" />
    <path
       style="fill:#d8d8d8;fill-opacity:1;stroke:none;stroke-width:8;stroke-linecap:round;stroke-linejoin:round;stroke-opacity:0.5"
       d="M 31,13 27,17 25,28 40,27 35,16 Z"
       id="path12123" />
    <path
       style="fill:#e9e9e9;fill-opacity:1;stroke:none;stroke-width:8;stroke-linecap:round;stroke-linejoin:round;stroke-opacity:0.5"
       d="m 51,10 -7,4 -2,5 7,7 5,-7 z"
       id="path12127" />
    <path
       style="fill:#b8b8b8;fill-opacity:1;stroke:none;stroke-width:8;stroke-linecap:round;stroke-linejoin:round;stroke-opacity:0.5"
       d="m 46,15 -6,8 c 0,0 3,5 3,5 l 1,-4 5,4 2,-10 z"
       id="path12131" />
    <path
       style="fill:#fafafa;fill-opacity:1;stroke:none;stroke-width:8;stroke-linecap:round;stroke-linejoin:round;stroke-opacity:0.5"
       d="m 59,13 -3,3 2,3 5,-2 -1,-6 -2,5 z"
       id="path12133" />
    <path
       style="fill:#ababab;fill-opacity:1;stroke:none;stroke-width:8;stroke-linecap:round;stroke-linejoin:round;stroke-opacity:0.5"
       d="m 55,11 -5,4 4,7 7,-4 -7,-3 z"
       id="path12135" />
    <path
       style="fill:#d4d4d4;fill-opacity:1;stroke:none;stroke-width:8;stroke-linecap:round;stroke-linejoin:round;stroke-opacity:0.5"
       d="m 58,16 -3,1 -1,4 c 0,0 6,5 6,5 l 4,-8 h -4 z"
       id="path12129" />
    <path
       style="fill:#f7f7f7;fill-opacity:1;stroke:none;stroke-width:8;stroke-linecap:round;stroke-linejoin:round;stroke-opacity:0.5"
       d="m 41,13 h -4 l -4,6 7,6 4,-6 z"
       id="path12125" />
    <path
       style="fill:url(#linearGradient12157);fill-opacity:1;stroke:none;stroke-width:8;stroke-linecap:round;stroke-linejoin:round;stroke-opacity:0.5"
       d="m 19,21 -1,-3 h 46 l -1,2 -1,1 z"
       id="path12149" />
    <path
       sodipodi:nodetypes="ccccc"
       id="path851"
       d="M 20,76 H 60 L 64,20 H 16 Z"
       style="fill:#c8c8c8;fill-opacity:1;stroke-width:2;stroke-linecap:round;stroke-linejoin:round" />
    <path
       sodipodi:nodetypes="ccccc"
       id="path896"
       d="M 28,76 25,20 h 10 l 1,56 z"
       style="fill:#ffffff;fill-opacity:0.5;stroke:none;stroke-width:2;stroke-linecap:round;stroke-linejoin:round;stroke-opacity:0.2" />
    <path
       id="path857"
       d="M 60,76 64,20"
       style="fill:#c8c8c8;fill-opacity:1;stroke-width:2;stroke-linecap:round;stroke-linejoin:round" />
    <path
       sodipodi:nodetypes="ccsscccc"
       d="m 16,20 0.511719,7.169922 C 21.063254,22.004171 33.512156,22 40,22 c 7.506184,0 12.887273,0.05774 12.887273,8.057742 0,8 -0.220606,30.608925 -0.887273,45.942258 h 8 l 4,-56 z"
       style="fill:#000000;fill-opacity:0.2;stroke-width:2;stroke-linecap:round;stroke-linejoin:round"
       id="path859" />
    <path
       sodipodi:nodetypes="cczcc"
       id="path866"
       d="m 35,25 1,43 c 0,2 2,4 4,4 2,0 4,-2 4,-4 l 1,-43"
       style="fill:none;fill-opacity:0.2;stroke:url(#linearGradient886);stroke-width:2;stroke-linecap:round;stroke-linejoin:round;stroke-opacity:0.2" />
    <path
       style="fill:none;fill-opacity:0.2;stroke:url(#linearGradient894);stroke-width:2;stroke-linecap:round;stroke-linejoin:round;stroke-opacity:0.2"
       d="m 49,25 -1,43 c 0,2 2,4 4,4 2,0 4,-2 4,-4 l 2,-43"
       id="path868"
       sodipodi:nodetypes="cczcc" />
    <path
       sodipodi:nodetypes="cczcc"
       id="path870"
       d="m 22,25 2,43 c 0,2 2,4 4,4 2,0 4,-2 4,-4 L 31,25"
       style="fill:none;fill-opacity:0.2;stroke:url(#linearGradient878);stroke-width:2;stroke-linecap:round;stroke-linejoin:round;stroke-opacity:0.2" />
    <g
       id="g12119"
       transform="matrix(0,1,1,0,-4,8.0539932)">
      <path
         sodipodi:nodetypes="ccccccccccccc"
         id="path855"
         d="M 28,12 V 8 c 0,-2 2,-4 4,-4 h 16 c 2,0 4,2 4,4 v 4 H 48 V 10 C 48,8 48,8 46,8 H 34 c -2,0 -2,0 -2,2 v 2 z"
         style="fill:#c8c8c8;fill-opacity:1;stroke-width:2;stroke-linecap:round;stroke-linejoin:round" />
      <path
         sodipodi:nodetypes="cc"
         id="path906"
         d="M 50,12 V 9"
         style="fill:none;fill-opacity:0.5;stroke:#ffffff;stroke-width:1;stroke-linecap:round;stroke-linejoin:round;stroke-miterlimit:4;stroke-dasharray:none;stroke-opacity:0.5" />
      <path
         sodipodi:nodetypes="cccc"
         id="path900"
         d="M 30,12 V 9 c 0,-2 1,-4 3,-4 h 15"
         style="fill:none;fill-opacity:0.5;stroke:#ffffff;stroke-width:1;stroke-linecap:round;stroke-linejoin:round;stroke-miterlimit:4;stroke-dasharray:none;stroke-opacity:0.5" />
      <rect
         y="12"
         x="12"
         height="7.999999"
         width="56"
         id="rect853"
         style="fill:#c8c8c8;fill-opacity:1;stroke-width:2.52982;stroke-linecap:round;stroke-linejoin:round" />
      <rect
         y="12"
         x="57"
         height="8"
         width="11"
         id="rect864"
         style="fill:#000000;fill-opacity:0.2;stroke-width:2;stroke-linecap:round;stroke-linejoin:round" />
      <rect
         y="12"
         x="24"
         height="8"
         width="9.9460077"
         id="rect898"
         style="fill:#ffffff;fill-opacity:0.5;stroke:none;stroke-width:3.15373;stroke-linecap:round;stroke-linejoin:round;stroke-opacity:0.2" />
      <path
         d="M 33,7.5 C 32.75,7.5 32.556294,7.49852 32.367188,7.519531 32.17808,7.540543 31.951836,7.591133 31.771484,7.7714842 31.591133,7.9518353 31.540543,8.1780802 31.519531,8.3671873 31.498519,8.5562946 31.5,8.75 31.5,9 v 3 H 32 v -2 c 0,-2 0,-2 2,-2 h 12 c 0.733381,0 1.194136,9.977e-4 1.488281,0.099609 A 0.5,0.5 0 0 0 47.5,8 0.5,0.5 0 0 0 47,7.5 Z"
         style="fill:#000000;fill-opacity:0.2;stroke-width:2;stroke-linecap:round;stroke-linejoin:round"
         id="path908" />
      <path
         d="M 50.566406,5.0957031 C 51.149426,5.8401662 51.5,6.8093028 51.5,8 v 4 H 52 V 8 C 52,6.9243705 51.412265,5.8602125 50.566406,5.0957031 Z"
         style="fill:#000000;fill-opacity:0.2;stroke-width:2;stroke-linecap:round;stroke-linejoin:round"
         id="path925" />
    </g>
    <path
       style="fill:#ffffff;fill-opacity:1;stroke:none;stroke-width:8;stroke-linecap:round;stroke-linejoin:round;stroke-opacity:0.5"
       d="m 44.414213,7.1715728 h -4.242641 l -0.707106,3.5355342 4.949747,2.12132 L 47.949747,7.8786796 43,10 Z"
       id="path12141" />
  </g>
</svg>
