<?xml version="1.0" encoding="UTF-8" standalone="no"?>
<svg
   xmlns:dc="http://purl.org/dc/elements/1.1/"
   xmlns:cc="http://creativecommons.org/ns#"
   xmlns:rdf="http://www.w3.org/1999/02/22-rdf-syntax-ns#"
   xmlns:svg="http://www.w3.org/2000/svg"
   xmlns="http://www.w3.org/2000/svg"
   xmlns:sodipodi="http://sodipodi.sourceforge.net/DTD/sodipodi-0.dtd"
   xmlns:inkscape="http://www.inkscape.org/namespaces/inkscape"
   version="1.1"
   id="svg2"
   width="80"
   height="80"
   viewBox="0 0 80 80"
   sodipodi:docname="efm-pl.svg"
   inkscape:version="1.0.1 (3bc2e813f5, 2020-09-07)"
   inkscape:export-filename="/home/raster/C/th-efl/th/img/ic/efm-pl-040.png"
   inkscape:export-xdpi="48"
   inkscape:export-ydpi="48">
  <metadata
     id="metadata8">
    <rdf:RDF>
      <cc:Work
         rdf:about="">
        <dc:format>image/svg+xml</dc:format>
        <dc:type
           rdf:resource="http://purl.org/dc/dcmitype/StillImage" />
        <dc:title></dc:title>
      </cc:Work>
    </rdf:RDF>
  </metadata>
  <defs
     id="defs6">
    <rect
       id="rect1822"
       height="22.426638"
       width="47.970909"
       y="8"
       x="16" />
    <rect
       x="20"
       y="20"
       width="40"
       height="30"
       id="rect878" />
    <rect
       x="20"
       y="50"
       width="40"
       height="30"
       id="rect872" />
    <rect
       x="20"
       y="20"
       width="40"
       height="30"
       id="rect864" />
    <rect
       x="20"
       y="20"
       width="40"
       height="30"
       id="rect858" />
    <rect
       x="20"
       y="20"
       width="40"
       height="30"
       id="rect852" />
  </defs>
  <sodipodi:namedview
     inkscape:showpageshadow="false"
     inkscape:document-rotation="0"
     pagecolor="#404040"
     bordercolor="#ff66ac"
     borderopacity="1"
     objecttolerance="10"
     gridtolerance="10"
     guidetolerance="10"
     inkscape:pageopacity="0"
     inkscape:pageshadow="2"
     inkscape:window-width="1756"
     inkscape:window-height="1378"
     id="namedview4"
     showgrid="true"
     inkscape:zoom="13.05"
     inkscape:cx="40"
     inkscape:cy="40"
     inkscape:window-x="804"
     inkscape:window-y="0"
     inkscape:window-maximized="0"
     inkscape:current-layer="g10"
     showguides="false"
     inkscape:snap-bbox="true"
     inkscape:bbox-nodes="true"
     inkscape:snap-others="false"
     inkscape:snap-nodes="true"
     borderlayer="true">
    <inkscape:grid
       type="xygrid"
       id="grid837"
       empspacing="4" />
  </sodipodi:namedview>
  <g
     inkscape:groupmode="layer"
     inkscape:label="Image"
     id="g10">
    <path
       sodipodi:nodetypes="cccccc"
       style="opacity:1;fill:#ffffff;fill-opacity:1;stroke:none;stroke-width:1.1;stroke-linecap:round;stroke-linejoin:round;stroke-miterlimit:4;stroke-dasharray:none;stroke-opacity:1"
       d="M 68,4 V 76 H 12 V 25 L 34,4 Z"
       id="path27896" />
    <text
       transform="translate(0.02909091,19.573362)"
       style="font-size:7px;line-height:6.87873px;font-family:'Arial Black';-inkscape-font-specification:'Arial Black, ';letter-spacing:0px;word-spacing:0px;white-space:pre;shape-inside:url(#rect1822);fill:none;stroke:#000000;stroke-width:1px;stroke-linecap:butt;stroke-linejoin:miter;stroke-opacity:1;"
       id="text1820"
       xml:space="preserve"><tspan
         x="16"
         y="13.348456"><tspan
           style="font-style:normal;font-variant:normal;font-weight:800;font-stretch:extra-condensed;font-size:7px;font-family:'Input Mono Compressed';-inkscape-font-specification:'Input Mono Compressed Ultra-Bold Extra-Condensed';fill:#000000;fill-opacity:1;stroke:none">puts &quot;Hello&quot;</tspan></tspan></text>
    <path
       style="opacity:0.25;fill:#000000;fill-opacity:1;stroke:none;stroke-width:1.1;stroke-linecap:round;stroke-linejoin:round;stroke-miterlimit:4;stroke-dasharray:none;stroke-opacity:1"
       d="M 12,25 37,30 34,4 C 33,10 19,24 12,25 Z"
       id="path27900"
       sodipodi:nodetypes="cccc" />
    <path
       sodipodi:nodetypes="cccc"
       style="opacity:1;fill:#ffffff;fill-opacity:1;stroke:none;stroke-width:1.1;stroke-linecap:round;stroke-linejoin:round;stroke-miterlimit:4;stroke-dasharray:none;stroke-opacity:1"
       d="M 12,25 H 34 V 4 Z"
       id="path27898" />
    <path
       d="m 56.997755,53.780052 c 0,0 -0.564219,-0.684962 -0.654494,-1.550474 -0.09027,-0.865513 0.322733,-0.56422 0.322733,-0.56422 0,0 -0.161366,-1.14875 -0.9682,-2.136133 -0.806833,-0.987384 -1.672345,-2.155318 -2.053757,-3.708049 -0.381413,-1.552731 -1.087815,-2.457739 -1.571915,-3.082894 -0.4841,-0.625154 -0.684962,-1.854023 -0.9682,-2.2975 -0.283239,-0.443477 -0.323862,-2.892188 -2.357309,-4.004828 -2.033445,-1.112639 -5.74375,0.16588 -6.831564,0.932091 -1.087816,0.766209 -2.076328,2.982462 -3.385316,3.889726 -1.308989,0.907265 -2.37762,0.92532 -3.425939,2.719537 -1.048319,1.794217 -1.269493,2.821095 -1.218713,3.868287 0,0 -0.756054,0.09028 -0.846329,-0.331761 -0.09028,-0.422036 0.212146,-1.843869 0.423164,-2.268162 0,0 0.212147,0.18055 0.180551,0.363357 0,0 0.63531,-1.299961 0.241485,-2.085354 0,0 0.212147,0.04514 0.315964,0.151212 0,0 0.257283,-1.224356 0.257283,-2.024419 0,-0.800063 -0.302421,-1.421832 -0.83166,-1.782933 0,0 0.394954,-0.513439 -0.04514,-1.072017 0,0 -0.196348,-0.449117 -0.710917,-0.981741 -0.514567,-0.532622 -0.90275,-0.8452 -1.421831,-0.829402 0,0 0.09027,-0.196348 0.180549,-0.315962 0,0 -0.440091,0.05191 -0.590173,0.25277 0,0 -0.241485,-0.146697 -0.286623,-0.494257 0,0 -0.423165,0.120743 -0.469431,0.423165 0,0 -0.93209,-0.315962 -1.3293,0.695118 0,0 0.151211,0.05981 0.196348,0.16588 0,0 -0.135412,0.302422 -0.725585,0.34756 -0.590174,0.04514 -2.282831,0 -2.795142,0.180549 -0.512311,0.180551 -0.725587,0.363357 -0.725587,0.575504 0,0 -0.257283,0.120743 -0.378026,0.680448 0,0 -0.401724,0.196349 -0.401724,0.543908 0,0.347559 0.221174,0.248257 0.221174,0.248257 0,0 -0.241486,0.690604 0.604843,0.735741 0,0 0.135412,0.347559 0.862127,0.347559 0.726714,0 1.252566,0.120743 1.557245,0.575504 0,0 -0.241486,0.907264 -1.193888,1.737795 a 2.2794454,2.2794454 0 0 0 0.423165,0.0158 c 0,0 -0.83166,0.695118 -1.042678,1.707327 0,0 0.287752,-0.286623 0.453632,-0.270825 0,0 -1.042677,2.886545 0.408495,5.743751 0,0 0.135413,-0.286623 0.196348,-0.315962 0,0 -0.05981,0.9682 0.530366,1.723124 0,0 0.04514,-0.423164 0.270826,-0.575503 0,0 0.906136,1.64752 1.835969,2.387775 0.929833,0.740256 2.350537,1.087815 2.667629,1.843869 0,0 0.498768,-0.557448 0.498768,-0.920805 0,0 0.135413,0.346429 0.09028,0.708659 0,0 0.559705,-0.270826 0.740255,-0.422036 0.180551,-0.151212 0.9682,-0.695118 1.072017,0.180549 0.103815,0.875669 -0.775237,2.629262 0.03047,4.807148 0,0 -0.282109,0.394954 -0.282109,0.923063 0,0.528109 0.402852,0.789907 0.402852,1.031392 0,0.241486 -0.18055,0.686091 -0.18055,1.148751 0,0.462659 0.423164,1.204044 0.04062,2.858334 -0.38254,1.654291 -0.543907,2.098895 -0.767339,2.381005 -0.22343,0.282109 -1.087814,0.767338 -0.925318,1.571915 0,0 -2.034575,0.261797 -2.015392,0.967071 0.01917,0.705269 1.049441,0.925315 2.277182,0.925315 1.22774,0 1.550475,-0.259541 1.579814,-0.704146 0.02934,-0.444604 -0.28211,-0.524723 0,-0.785393 0.282109,-0.260669 0.586787,-0.564219 0.545036,-1.672345 -0.04175,-1.108127 0.503283,-2.136134 0.503283,-2.136134 0,0 -0.101557,-0.947889 0.222303,-1.53129 0.323862,-0.583403 1.188245,-1.733282 0.604842,-3.486875 0,0 0.160238,0.06093 0.3611,0.07899 0,0 -0.343045,-0.967072 0.282111,-2.136134 0.625154,-1.169063 0.947887,-3.546682 0.947887,-3.546682 0,0 1.43086,0.121871 2.053758,0 0,0 -1.369924,2.871875 -1.229997,5.032836 0,0 -0.343046,0.346429 -0.343046,0.72897 0,0.382541 0.203119,0.865512 0.543908,1.20743 0.340788,0.341917 1.471483,1.026878 2.09551,1.771648 0.624026,0.744769 1.049447,1.570786 1.229998,1.794217 0,0 -0.583403,0.383668 -0.423165,0.987383 0,0 -0.584531,0.18055 -0.523595,0.684962 0,0 -0.84633,0.02031 -1.289806,0.403981 -0.443476,0.383669 -0.665779,0.886952 -0.261798,1.04719 0.403981,0.160239 1.895777,0.161368 2.397932,0.161368 0.502155,0 1.087814,-0.38367 1.128438,-0.64321 0.04062,-0.259541 -0.180549,-0.907265 -0.180549,-0.907265 0,0 0.302421,0.04063 0.423164,-0.322733 0,0 0.56422,2.09551 1.430859,2.034575 0,0 0.120743,-0.01918 0.141056,-0.200863 0,0 0.402852,0.101557 0.604842,-0.101557 0.201991,-0.203118 0.684962,-3.042269 -1.026878,-3.084022 0,0 0.120742,-0.282109 -0.20312,-0.482971 -0.323862,-0.200863 2.821096,-4.170709 3.182197,-4.513754 0,0 -0.443476,-3.545553 0.443476,-5.258523 l 1.61141,-2.882031 c 0,0 0.18055,3.80848 1.913832,6.730006 a 1.4782543,1.4782543 0 0 0 0.241485,0.987384 c -0.07899,0.543907 -0.301293,0.826017 -0.301293,1.512107 0,0.686091 0.503284,2.498363 0.01918,4.47313 -0.09704,0.394953 -1.067503,1.571914 -0.724457,2.538986 0,0 -0.805706,0.46266 -0.805706,1.068632 0,0.60597 0.361101,0.725585 0.625155,0.725585 0.264055,0 0.402853,-0.261798 0.543908,-0.261798 0.141054,0 0.343045,0.38367 0.987384,0.38367 0.644338,0 1.207428,-0.523596 1.207428,-0.826017 0,-0.302422 -0.523595,-0.805706 -0.523595,-0.805706 0,0 0.343044,-0.322733 0.343044,-0.724457 0,-0.401723 -0.543906,-1.067503 -0.543906,-1.913831 0,-0.846329 0.176037,-2.489336 0.503284,-3.204765 0.654494,-1.43086 0.58453,-2.569454 0.203118,-2.870748 0,0 0.200863,-0.916292 0.200863,-1.884492 0,-0.9682 -0.74477,-3.556837 -0.120744,-6.165786 0,0 0.744769,-1.087816 0.907264,-2.800785 0,0 1.349613,2.742106 0.341918,4.654808 -1.007696,1.912704 -0.805705,1.895777 -0.826018,2.478051 -0.02031,0.582274 0.28211,1.391365 0.28211,1.391365 l 0.919677,-0.934347 c 0,0 -0.01123,-0.643211 0.432192,-1.108127 0.443477,-0.464916 0.767339,-1.721997 0.564219,-2.069556 l 0.322734,0.236973 c 0,0 0.161366,-0.604844 -0.141054,-1.489539 0,0 0.323861,-0.161367 0.677062,0.01918 z m -12.099116,9.067003 -1.551603,2.498362 c 0,0 -1.209686,-0.684963 -1.591098,-1.451172 -0.381412,-0.76621 -0.705274,-1.249181 -0.866641,-1.369925 0,0 0.493128,-0.665778 0.613871,-1.369923 0,0 0.21666,0.01693 0.338532,0.451375 0.733484,-0.920805 1.210814,-1.918345 1.345098,-2.967793 0,0 0.18055,0.180551 0.343046,0.241486 0,0 0.01918,-0.725586 0.282109,-1.249181 0.262926,-0.523596 0.826016,-1.189374 0.907264,-2.19707 h 0.361101 c 0,0 -0.302422,2.256877 0,4.19102 0.302422,1.934144 0.200862,2.617977 -0.180551,3.223948 z"
       id="path982"
       style="stroke-width:1.12844;fill:#808080" />
  </g>
</svg>
