<?xml version="1.0" encoding="UTF-8" standalone="no"?>
<!-- Created with Inkscape (http://www.inkscape.org/) -->

<svg
   xmlns:dc="http://purl.org/dc/elements/1.1/"
   xmlns:cc="http://creativecommons.org/ns#"
   xmlns:rdf="http://www.w3.org/1999/02/22-rdf-syntax-ns#"
   xmlns:svg="http://www.w3.org/2000/svg"
   xmlns="http://www.w3.org/2000/svg"
   xmlns:xlink="http://www.w3.org/1999/xlink"
   xmlns:sodipodi="http://sodipodi.sourceforge.net/DTD/sodipodi-0.dtd"
   xmlns:inkscape="http://www.inkscape.org/namespaces/inkscape"
   version="1.1"
   id="svg2"
   width="64"
   height="64"
   viewBox="0 0 64 64"
   sodipodi:docname="emo-omg.svg"
   inkscape:version="0.92.4 5da689c313, 2019-01-14"
   inkscape:export-filename="/home/raster/C/th-efl/th/img/emo-omg.png"
   inkscape:export-xdpi="96"
   inkscape:export-ydpi="96">
  <metadata
     id="metadata8">
    <rdf:RDF>
      <cc:Work
         rdf:about="">
        <dc:format>image/svg+xml</dc:format>
        <dc:type
           rdf:resource="http://purl.org/dc/dcmitype/StillImage" />
        <dc:title></dc:title>
      </cc:Work>
    </rdf:RDF>
  </metadata>
  <defs
     id="defs6">
    <linearGradient
       inkscape:collect="always"
       id="linearGradient4735">
      <stop
         style="stop-color:#3399ff;stop-opacity:1"
         offset="0"
         id="stop4731" />
      <stop
         style="stop-color:#0050a0;stop-opacity:1"
         offset="1"
         id="stop4733" />
    </linearGradient>
    <filter
       inkscape:collect="always"
       style="color-interpolation-filters:sRGB"
       id="filter4694"
       x="-0.12614952"
       width="1.252299"
       y="-1.1836719"
       height="3.3673438">
      <feGaussianBlur
         inkscape:collect="always"
         stdDeviation="2.0009134"
         id="feGaussianBlur4696" />
    </filter>
    <radialGradient
       inkscape:collect="always"
       xlink:href="#linearGradient4735"
       id="radialGradient4737"
       cx="24.09226"
       cy="20.077192"
       fx="24.09226"
       fy="20.077192"
       r="24"
       gradientUnits="userSpaceOnUse"
       gradientTransform="matrix(0.00863139,1.5472089,-1.3273048,0.00740461,50.532865,-17.347232)" />
  </defs>
  <sodipodi:namedview
     pagecolor="#404040"
     bordercolor="#666666"
     borderopacity="1"
     objecttolerance="10"
     gridtolerance="10"
     guidetolerance="10"
     inkscape:pageopacity="0"
     inkscape:pageshadow="2"
     inkscape:window-width="2032"
     inkscape:window-height="1372"
     id="namedview4"
     showgrid="true"
     inkscape:snap-grids="false"
     inkscape:zoom="19.1875"
     inkscape:cx="32"
     inkscape:cy="32"
     inkscape:window-x="528"
     inkscape:window-y="0"
     inkscape:window-maximized="0"
     inkscape:current-layer="svg2"
     inkscape:snap-bbox="true">
    <inkscape:grid
       type="xygrid"
       id="grid4520"
       empspacing="8" />
  </sodipodi:namedview>
  <path
     style="opacity:0.5;fill:#000000;fill-opacity:1;stroke:none;stroke-width:10.8475399;stroke-linecap:square;stroke-linejoin:miter;stroke-miterlimit:4;stroke-dasharray:none;stroke-opacity:1;filter:url(#filter4694)"
     id="path4524"
     sodipodi:type="arc"
     sodipodi:cx="31.966749"
     sodipodi:cy="57.014408"
     sodipodi:rx="19.033731"
     sodipodi:ry="2.0285149"
     sodipodi:start="0"
     sodipodi:end="6.2760818"
     sodipodi:open="true"
     d="M 51.000481,57.014408 A 19.033731,2.0285149 0 0 1 32.000551,59.04292 19.033731,2.0285149 0 0 1 12.933138,57.021613 19.033731,2.0285149 0 0 1 31.865345,54.985922 19.033731,2.0285149 0 0 1 51,56.999999" />
  <path
     style="opacity:1;fill:url(#radialGradient4737);fill-opacity:1;stroke:none;stroke-width:16;stroke-linecap:square;stroke-linejoin:miter;stroke-miterlimit:4;stroke-dasharray:none;stroke-opacity:1"
     id="path4522"
     sodipodi:type="arc"
     sodipodi:cx="32.000607"
     sodipodi:cy="33.170483"
     sodipodi:rx="24"
     sodipodi:ry="24"
     sodipodi:start="0"
     sodipodi:end="6.2760818"
     sodipodi:open="true"
     d="M 56.000607,33.170483 A 24,24 0 0 1 32.043228,57.170445 24,24 0 0 1 8.0007579,33.255725 24,24 0 0 1 31.872744,9.1708232 24,24 0 0 1 56.000001,33" />
  <path
     transform="rotate(7.5113248)"
     d="M 33.838248,23.173483 A 8.6514654,11.04886 0 0 1 25.202147,34.222325 8.6514654,11.04886 0 0 1 16.535372,23.212726 8.6514654,11.04886 0 0 1 25.140691,12.12478 8.6514654,11.04886 0 0 1 33.83803,23.094998"
     sodipodi:open="true"
     sodipodi:end="6.2760818"
     sodipodi:start="0"
     sodipodi:ry="11.04886"
     sodipodi:rx="8.6514654"
     sodipodi:cy="23.173483"
     sodipodi:cx="25.186783"
     sodipodi:type="arc"
     id="path3107"
     style="opacity:1;fill:#000000;fill-opacity:1;stroke:none;stroke-width:4;stroke-linecap:square;stroke-linejoin:miter;stroke-miterlimit:4;stroke-dasharray:none;stroke-opacity:1" />
  <path
     style="opacity:1;fill:#ffffff;fill-opacity:1;stroke:none;stroke-width:4;stroke-linecap:square;stroke-linejoin:miter;stroke-miterlimit:4;stroke-dasharray:none;stroke-opacity:1"
     id="path3103"
     sodipodi:type="arc"
     sodipodi:cx="25.032919"
     sodipodi:cy="22.405245"
     sodipodi:rx="8.6514654"
     sodipodi:ry="11.04886"
     sodipodi:start="0"
     sodipodi:end="6.2760818"
     sodipodi:open="true"
     d="M 33.684384,22.405245 A 8.6514654,11.04886 0 0 1 25.048283,33.454087 8.6514654,11.04886 0 0 1 16.381508,22.444488 8.6514654,11.04886 0 0 1 24.986827,11.356542 8.6514654,11.04886 0 0 1 33.684166,22.32676"
     transform="rotate(7.5113248)" />
  <path
     style="opacity:1;fill:#000000;fill-opacity:1;stroke:none;stroke-width:4;stroke-linecap:square;stroke-linejoin:miter;stroke-miterlimit:4;stroke-dasharray:none;stroke-opacity:1"
     id="path3109"
     sodipodi:type="arc"
     sodipodi:cx="-37.960831"
     sodipodi:cy="31.447155"
     sodipodi:rx="8.6514654"
     sodipodi:ry="11.04886"
     sodipodi:start="0"
     sodipodi:end="6.2760818"
     sodipodi:open="true"
     d="m -29.309365,31.447155 a 8.6514654,11.04886 0 0 1 -8.636102,11.048842 8.6514654,11.04886 0 0 1 -8.666775,-11.009599 8.6514654,11.04886 0 0 1 8.60532,-11.087946 8.6514654,11.04886 0 0 1 8.697338,10.970218"
     transform="matrix(-0.99141904,0.13072215,0.13072215,0.99141904,0,0)" />
  <path
     transform="matrix(-0.99141904,0.13072215,0.13072215,0.99141904,0,0)"
     d="m -29.359887,30.665291 a 8.6514654,11.04886 0 0 1 -8.636102,11.048842 8.6514654,11.04886 0 0 1 -8.666774,-11.009599 8.6514654,11.04886 0 0 1 8.605319,-11.087946 8.6514654,11.04886 0 0 1 8.697339,10.970218"
     sodipodi:open="true"
     sodipodi:end="6.2760818"
     sodipodi:start="0"
     sodipodi:ry="11.04886"
     sodipodi:rx="8.6514654"
     sodipodi:cy="30.665291"
     sodipodi:cx="-38.011353"
     sodipodi:type="arc"
     id="path3105"
     style="opacity:1;fill:#ffffff;fill-opacity:1;stroke:none;stroke-width:4;stroke-linecap:square;stroke-linejoin:miter;stroke-miterlimit:4;stroke-dasharray:none;stroke-opacity:1" />
  <path
     style="fill:#000000;fill-opacity:1;fill-rule:evenodd;stroke:none;stroke-width:1px;stroke-linecap:butt;stroke-linejoin:miter;stroke-opacity:1"
     d="m 31.583062,37.315961 c 4.9754,-0.110618 8.27796,13.350705 8.286645,13.915309 0.0087,0.564604 -0.337127,2.192055 -0.833873,3.335506 -0.496746,1.143451 -0.859911,3.040176 -1.928339,3.022801 -1.068428,-0.01738 -7.939061,-0.199785 -9.328991,-0.20847 -1.38993,-0.0087 -1.358791,-1.061749 -1.980456,-2.553745 -0.621665,-1.491996 -0.642779,-4.525516 -0.677524,-5.472313 -0.03475,-0.946797 1.487138,-11.92847 6.462538,-12.039088 z"
     id="path3115"
     inkscape:connector-curvature="0"
     sodipodi:nodetypes="zzzzzzzz" />
  <path
     style="opacity:1;fill:#000000;fill-opacity:1;stroke:none;stroke-width:4;stroke-linecap:square;stroke-linejoin:miter;stroke-miterlimit:4;stroke-dasharray:none;stroke-opacity:1"
     id="path3111"
     sodipodi:type="arc"
     sodipodi:cx="23.530945"
     sodipodi:cy="25.902281"
     sodipodi:rx="2.9967427"
     sodipodi:ry="2.7622149"
     sodipodi:start="0"
     sodipodi:end="6.2760818"
     sodipodi:open="true"
     d="m 26.527688,25.902281 a 2.9967427,2.7622149 0 0 1 -2.991421,2.76221 2.9967427,2.7622149 0 0 1 -3.002046,-2.7524 2.9967427,2.7622149 0 0 1 2.980758,-2.771986 2.9967427,2.7622149 0 0 1 3.012633,2.742555" />
  <path
     d="m 43.517914,26.006516 a 2.9967427,2.7622149 0 0 1 -2.991421,2.76221 2.9967427,2.7622149 0 0 1 -3.002045,-2.7524 2.9967427,2.7622149 0 0 1 2.980758,-2.771986 2.9967427,2.7622149 0 0 1 3.012633,2.742554"
     sodipodi:open="true"
     sodipodi:end="6.2760818"
     sodipodi:start="0"
     sodipodi:ry="2.7622149"
     sodipodi:rx="2.9967427"
     sodipodi:cy="26.006516"
     sodipodi:cx="40.521172"
     sodipodi:type="arc"
     id="path3113"
     style="opacity:1;fill:#000000;fill-opacity:1;stroke:none;stroke-width:4;stroke-linecap:square;stroke-linejoin:miter;stroke-miterlimit:4;stroke-dasharray:none;stroke-opacity:1" />
  <path
     style="fill:#ffffff;fill-opacity:1;fill-rule:evenodd;stroke:none;stroke-width:1px;stroke-linecap:butt;stroke-linejoin:miter;stroke-opacity:1"
     d="m 25.954397,51.596091 c 4.742671,0.833876 8.442997,0.885993 13.133551,0 -0.608035,2.258415 -1.580891,5.194354 -2.710098,5.159609 -2.65798,-0.03475 -5.837134,-0.01737 -8.495114,-0.05212 -1.320304,0.06949 -1.598263,-3.248643 -1.928339,-5.107492 z"
     id="path3117"
     inkscape:connector-curvature="0"
     sodipodi:nodetypes="ccccc" />
</svg>
