<?xml version="1.0" encoding="UTF-8" standalone="no"?>
<!-- Created with Inkscape (http://www.inkscape.org/) -->

<svg
   xmlns:dc="http://purl.org/dc/elements/1.1/"
   xmlns:cc="http://creativecommons.org/ns#"
   xmlns:rdf="http://www.w3.org/1999/02/22-rdf-syntax-ns#"
   xmlns:svg="http://www.w3.org/2000/svg"
   xmlns="http://www.w3.org/2000/svg"
   xmlns:xlink="http://www.w3.org/1999/xlink"
   xmlns:sodipodi="http://sodipodi.sourceforge.net/DTD/sodipodi-0.dtd"
   xmlns:inkscape="http://www.inkscape.org/namespaces/inkscape"
   version="1.1"
   id="svg2"
   width="64"
   height="64"
   viewBox="0 0 64 64"
   sodipodi:docname="emo-grumpy-smile.svg"
   inkscape:export-filename="/home/raster/C/th-efl/th/img/emo-grumpy-smile.png"
   inkscape:export-xdpi="96"
   inkscape:export-ydpi="96"
   inkscape:version="0.92.4 5da689c313, 2019-01-14">
  <metadata
     id="metadata8">
    <rdf:RDF>
      <cc:Work
         rdf:about="">
        <dc:format>image/svg+xml</dc:format>
        <dc:type
           rdf:resource="http://purl.org/dc/dcmitype/StillImage" />
        <dc:title></dc:title>
      </cc:Work>
    </rdf:RDF>
  </metadata>
  <defs
     id="defs6">
    <linearGradient
       inkscape:collect="always"
       id="linearGradient4735">
      <stop
         style="stop-color:#3399ff;stop-opacity:1"
         offset="0"
         id="stop4731" />
      <stop
         style="stop-color:#0050a0;stop-opacity:1"
         offset="1"
         id="stop4733" />
    </linearGradient>
    <filter
       inkscape:collect="always"
       style="color-interpolation-filters:sRGB"
       id="filter4694"
       x="-0.12614952"
       width="1.252299"
       y="-1.1836719"
       height="3.3673438">
      <feGaussianBlur
         inkscape:collect="always"
         stdDeviation="2.0009134"
         id="feGaussianBlur4696" />
    </filter>
    <radialGradient
       inkscape:collect="always"
       xlink:href="#linearGradient4735"
       id="radialGradient4737"
       cx="24.09226"
       cy="20.077192"
       fx="24.09226"
       fy="20.077192"
       r="24"
       gradientUnits="userSpaceOnUse"
       gradientTransform="matrix(0.00863139,1.5472089,-1.3273048,0.00740461,50.532865,-17.347232)" />
  </defs>
  <sodipodi:namedview
     pagecolor="#404040"
     bordercolor="#666666"
     borderopacity="1"
     objecttolerance="10"
     gridtolerance="10000"
     guidetolerance="10"
     inkscape:pageopacity="0"
     inkscape:pageshadow="2"
     inkscape:window-width="2050"
     inkscape:window-height="1372"
     id="namedview4"
     showgrid="true"
     inkscape:snap-grids="false"
     inkscape:zoom="19.1875"
     inkscape:cx="32"
     inkscape:cy="32"
     inkscape:window-x="510"
     inkscape:window-y="0"
     inkscape:window-maximized="0"
     inkscape:current-layer="svg2"
     inkscape:snap-bbox="true"
     inkscape:bbox-paths="true"
     inkscape:bbox-nodes="true"
     inkscape:snap-global="false"
     inkscape:snap-nodes="false">
    <inkscape:grid
       type="xygrid"
       id="grid4520"
       empspacing="8" />
  </sodipodi:namedview>
  <path
     style="opacity:0.5;fill:#000000;fill-opacity:1;stroke:none;stroke-width:10.8475399;stroke-linecap:square;stroke-linejoin:miter;stroke-miterlimit:4;stroke-dasharray:none;stroke-opacity:1;filter:url(#filter4694)"
     id="path4524"
     sodipodi:type="arc"
     sodipodi:cx="31.966749"
     sodipodi:cy="57.014408"
     sodipodi:rx="19.033731"
     sodipodi:ry="2.0285149"
     sodipodi:start="0"
     sodipodi:end="6.2760818"
     sodipodi:open="true"
     d="M 51.000481,57.014408 A 19.033731,2.0285149 0 0 1 32.000551,59.04292 19.033731,2.0285149 0 0 1 12.933138,57.021613 19.033731,2.0285149 0 0 1 31.865345,54.985922 19.033731,2.0285149 0 0 1 51,56.999999" />
  <path
     style="opacity:1;fill:url(#radialGradient4737);fill-opacity:1;stroke:none;stroke-width:16;stroke-linecap:square;stroke-linejoin:miter;stroke-miterlimit:4;stroke-dasharray:none;stroke-opacity:1"
     id="path4522"
     sodipodi:type="arc"
     sodipodi:cx="32.000607"
     sodipodi:cy="33.170483"
     sodipodi:rx="24"
     sodipodi:ry="24"
     sodipodi:start="0"
     sodipodi:end="6.2760818"
     sodipodi:open="true"
     d="M 56.000607,33.170483 A 24,24 0 0 1 32.043228,57.170445 24,24 0 0 1 8.0007579,33.255725 24,24 0 0 1 31.872744,9.1708232 24,24 0 0 1 56.000001,33" />
  <path
     style="fill:#000000;fill-opacity:1;fill-rule:evenodd;stroke:none;stroke-width:1px;stroke-linecap:butt;stroke-linejoin:miter;stroke-opacity:1"
     d="m 16.052117,25.954397 c 10.128122,-1.0076 19.735071,-0.920738 30.071662,0.104235 -0.05212,3.87405 -3.200897,5.973304 -7.661238,5.993485 -4.460341,0.02018 -6.323561,-0.885993 -6.514658,-5.159609 -0.538545,2.536374 -1.790828,5.986906 -6.931596,6.045603 -5.140768,0.0587 -8.842563,-3.092291 -8.96417,-6.983714 z"
     id="path4639"
     inkscape:connector-curvature="0"
     sodipodi:nodetypes="cczczc" />
  <path
     style="fill:#ffffff;fill-opacity:1;fill-rule:evenodd;stroke:none;stroke-width:1px;stroke-linecap:butt;stroke-linejoin:miter;stroke-opacity:1"
     d="m 16.208469,26.319218 c 0.330076,2.43214 1.88488,6.635966 8.130293,6.618893 6.245414,-0.01707 7.018458,-3.352878 7.609121,-6.827362 -5.454941,-0.347448 -10.076005,-0.642779 -15.739414,0.208469 z"
     id="path4641"
     inkscape:connector-curvature="0"
     sodipodi:nodetypes="czcc" />
  <path
     style="fill:#ffffff;fill-opacity:1;fill-rule:evenodd;stroke:none;stroke-width:1px;stroke-linecap:butt;stroke-linejoin:miter;stroke-opacity:1"
     d="m 38.931596,32.052117 c -5.769023,0.01481 -7.053203,-1.059718 -6.983713,-5.889251 4.673181,-0.486427 8.82519,-0.295331 13.811075,0.416939 0.05212,1.563518 -1.058339,5.457499 -6.827362,5.472312 z"
     id="path4643"
     inkscape:connector-curvature="0"
     sodipodi:nodetypes="zccz" />
  <path
     style="fill:#000000;fill-opacity:1;fill-rule:evenodd;stroke:none;stroke-width:1px;stroke-linecap:butt;stroke-linejoin:miter;stroke-opacity:1"
     d="m 23.713355,25.850163 c 1.685125,-0.416935 2.901194,-0.36482 4.429967,0.156352 0,0 -0.63581,2.13368 -2.345276,2.08469 -1.709466,-0.04899 -2.084691,-2.241042 -2.084691,-2.241042 z"
     id="path4645"
     inkscape:connector-curvature="0"
     sodipodi:nodetypes="cczc" />
  <path
     style="fill:#000000;fill-opacity:1;fill-rule:evenodd;stroke:none;stroke-width:1px;stroke-linecap:butt;stroke-linejoin:miter;stroke-opacity:1"
     d="m 34.918567,25.954397 c 0,0 0.208888,1.998596 2.241042,1.980456 2.032154,-0.01814 2.136808,-2.032573 2.136808,-2.032573 -1.5114,-0.295334 -3.179153,-0.434315 -4.37785,0.05212 z"
     id="path4647"
     inkscape:connector-curvature="0"
     sodipodi:nodetypes="czccc" />
  <path
     style="fill:#000000;fill-opacity:1;fill-rule:evenodd;stroke:none;stroke-width:1px;stroke-linecap:butt;stroke-linejoin:miter;stroke-opacity:1"
     d="m 12.716612,34.814332 c -1.757869,-1.420138 -0.990228,4.429968 -0.990228,4.429968 0,0 0.09979,-2.490777 1.14658,-3.074919 1.046789,-0.584142 12.666158,3.629535 19.179153,3.648209 6.512996,0.01867 18.135018,-4.124803 19.23127,-3.543974 1.096252,0.580829 0.364821,3.491856 0.364821,3.491856 0,0 1.68443,-6.564324 0.312704,-4.95114 -1.371725,1.613184 -13.274253,3.817663 -19.908795,3.80456 -6.634542,-0.0131 -17.577636,-2.384422 -19.335505,-3.80456 z"
     id="path4649"
     inkscape:connector-curvature="0"
     sodipodi:nodetypes="zczzzczzz" />
</svg>
