<?xml version="1.0" encoding="UTF-8" standalone="no"?>
<svg
   xmlns:dc="http://purl.org/dc/elements/1.1/"
   xmlns:cc="http://creativecommons.org/ns#"
   xmlns:rdf="http://www.w3.org/1999/02/22-rdf-syntax-ns#"
   xmlns:svg="http://www.w3.org/2000/svg"
   xmlns="http://www.w3.org/2000/svg"
   xmlns:sodipodi="http://sodipodi.sourceforge.net/DTD/sodipodi-0.dtd"
   xmlns:inkscape="http://www.inkscape.org/namespaces/inkscape"
   version="1.1"
   id="svg2"
   width="80"
   height="80"
   viewBox="0 0 80 80"
   sodipodi:docname="folder-move.svg"
   inkscape:version="1.0.1 (3bc2e813f5, 2020-09-07)"
   inkscape:export-filename="/home/raster/C/th-efl/th/img/ic/folder-move-040.png"
   inkscape:export-xdpi="48"
   inkscape:export-ydpi="48">
  <metadata
     id="metadata8">
    <rdf:RDF>
      <cc:Work
         rdf:about="">
        <dc:format>image/svg+xml</dc:format>
        <dc:type
           rdf:resource="http://purl.org/dc/dcmitype/StillImage" />
        <dc:title></dc:title>
      </cc:Work>
    </rdf:RDF>
  </metadata>
  <defs
     id="defs6">
    <mask
       maskUnits="userSpaceOnUse"
       id="mask947">
      <rect
         style="opacity:1;fill:#a0a0a0;fill-opacity:1;stroke-width:3.96122;stroke-linecap:round;stroke-linejoin:round"
         id="rect949"
         width="60"
         height="40"
         x="10"
         y="5" />
    </mask>
    <mask
       id="mask3567"
       maskUnits="userSpaceOnUse">
      <path
         style="fill:#ffffff;fill-opacity:1;fill-rule:evenodd;stroke:none;stroke-width:1px;stroke-linecap:butt;stroke-linejoin:miter;stroke-opacity:1"
         d="M 40,10 C 19,10 20,17.832395 20,30 20,42.167605 19,70 40,70 61,70 60,42.167605 60,30 60,17.832395 61,10 40,10 Z"
         id="path3569"
         sodipodi:nodetypes="zzzzz" />
    </mask>
    <clipPath
       id="clipPath922"
       clipPathUnits="userSpaceOnUse">
      <path
         sodipodi:nodetypes="ccccccc"
         inkscape:connector-curvature="0"
         id="path924"
         d="m 1.3229166,295.4125 h 7.9375003 v -6.08542 c 0,-0.52917 0,-0.52917 -0.529167,-0.52917 H 1.8520833 c -0.5291666,0 -0.5291666,0 -0.5291667,0.52917 z"
         style="fill:#ffffff;fill-opacity:1;fill-rule:evenodd;stroke:none;stroke-width:0.264583px;stroke-linecap:butt;stroke-linejoin:miter;stroke-opacity:1" />
    </clipPath>
    <clipPath
       id="clipPath922-6"
       clipPathUnits="userSpaceOnUse">
      <path
         sodipodi:nodetypes="ccccccc"
         inkscape:connector-curvature="0"
         id="path924-7"
         d="m 1.3229166,295.4125 h 7.9375003 v -6.08542 c 0,-0.52917 0,-0.52917 -0.529167,-0.52917 H 1.8520833 c -0.5291666,0 -0.5291666,0 -0.5291667,0.52917 z"
         style="fill:#ffffff;fill-opacity:1;fill-rule:evenodd;stroke:none;stroke-width:0.264583px;stroke-linecap:butt;stroke-linejoin:miter;stroke-opacity:1" />
    </clipPath>
  </defs>
  <sodipodi:namedview
     inkscape:document-rotation="0"
     pagecolor="#404040"
     bordercolor="#666666"
     borderopacity="1"
     objecttolerance="10"
     gridtolerance="10"
     guidetolerance="10"
     inkscape:pageopacity="0"
     inkscape:pageshadow="2"
     inkscape:window-width="1756"
     inkscape:window-height="1372"
     id="namedview4"
     showgrid="true"
     inkscape:zoom="13.1625"
     inkscape:cx="40"
     inkscape:cy="40"
     inkscape:window-x="804"
     inkscape:window-y="0"
     inkscape:window-maximized="0"
     inkscape:current-layer="g10"
     showguides="false"
     inkscape:snap-bbox="true"
     inkscape:bbox-nodes="true"
     inkscape:snap-others="false"
     inkscape:snap-nodes="true"
     inkscape:bbox-paths="true">
    <inkscape:grid
       type="xygrid"
       id="grid837"
       empspacing="4" />
  </sodipodi:namedview>
  <g
     inkscape:groupmode="layer"
     inkscape:label="Image"
     id="g10">
    <g
       id="g21124"
       transform="matrix(0.49999979,0,0,0.49999979,1.512e-5,20.000013)"
       style="opacity:0.5">
      <path
         sodipodi:nodetypes="ccccccc"
         inkscape:connector-curvature="0"
         id="path871"
         d="M 10,64.00005 H 70 V 18.000024 c 2e-6,-4.000026 2e-6,-4.000026 -4,-4.000026 H 14 c -4,0 -4,0 -4,4.000026 z"
         style="fill:#ffffff;fill-opacity:1;fill-rule:evenodd;stroke:none;stroke-width:2px;stroke-linecap:butt;stroke-linejoin:miter;stroke-opacity:1" />
      <path
         transform="matrix(7.5590552,0,0,7.5590552,-2e-7,-2169.0394)"
         clip-path="url(#clipPath922-6)"
         style="fill:#000000;fill-opacity:0.22;fill-rule:evenodd;stroke:none;stroke-width:0.264583px;stroke-linecap:butt;stroke-linejoin:miter;stroke-opacity:1"
         d="m 0.79374997,294.88333 v -4.7625 c 0,-0.79375 0,-0.79375 0.79375003,-0.79375 h 4.2333333 c 0.7937501,0 10e-8,-1.05833 0.79375,-1.05833 h 1.8520833 c 0.7937501,0 0.7937501,0.26458 0.79375,1.05833 l 1e-7,5.55625 c 0,0.79375 0,0.79375 -0.79375,0.79375 H 1.5875 c -0.79375003,0 -0.79375003,0 -0.79375003,-0.79375 z"
         id="path905"
         inkscape:connector-curvature="0"
         sodipodi:nodetypes="ccccccccccc" />
      <path
         style="fill:#fff078;fill-opacity:1;fill-rule:evenodd;stroke:none;stroke-width:2px;stroke-linecap:butt;stroke-linejoin:miter;stroke-opacity:1"
         d="M 8,62 V 25.999998 c 0,-6 0,-6 6,-6 h 32 c 8,0 0,-7.999974 8,-7.999974 h 12 c 6,0 6,0 6,6 V 62 c 0,6 0,6 -6,6 H 14 C 8,68 8,68 8,62 Z"
         id="path907"
         inkscape:connector-curvature="0"
         sodipodi:nodetypes="ccccccccccc" />
      <rect
         y="60"
         x="8"
         height="1.9999999"
         width="63.999996"
         id="rect919"
         style="opacity:1;fill:#000000;fill-opacity:0.12549;stroke:none;stroke-width:7.55906;stroke-linecap:round;stroke-linejoin:round;stroke-miterlimit:4;stroke-dasharray:none;stroke-opacity:1" />
    </g>
    <g
       id="g21134"
       transform="matrix(0.49999979,0,0,0.49999979,40.000015,20.000013)">
      <path
         sodipodi:nodetypes="ccccccc"
         inkscape:connector-curvature="0"
         id="path21126"
         d="M 10,64.00005 H 70 V 18.000024 c 2e-6,-4.000026 2e-6,-4.000026 -4,-4.000026 H 14 c -4,0 -4,0 -4,4.000026 z"
         style="fill:#ffffff;fill-opacity:1;fill-rule:evenodd;stroke:none;stroke-width:2px;stroke-linecap:butt;stroke-linejoin:miter;stroke-opacity:1" />
      <path
         transform="matrix(7.5590552,0,0,7.5590552,-2e-7,-2169.0394)"
         clip-path="url(#clipPath922-6)"
         style="fill:#000000;fill-opacity:0.22;fill-rule:evenodd;stroke:none;stroke-width:0.264583px;stroke-linecap:butt;stroke-linejoin:miter;stroke-opacity:1"
         d="m 0.79374997,294.88333 v -4.7625 c 0,-0.79375 0,-0.79375 0.79375003,-0.79375 h 4.2333333 c 0.7937501,0 10e-8,-1.05833 0.79375,-1.05833 h 1.8520833 c 0.7937501,0 0.7937501,0.26458 0.79375,1.05833 l 1e-7,5.55625 c 0,0.79375 0,0.79375 -0.79375,0.79375 H 1.5875 c -0.79375003,0 -0.79375003,0 -0.79375003,-0.79375 z"
         id="path21128"
         inkscape:connector-curvature="0"
         sodipodi:nodetypes="ccccccccccc" />
      <path
         style="fill:#fff078;fill-opacity:1;fill-rule:evenodd;stroke:none;stroke-width:2px;stroke-linecap:butt;stroke-linejoin:miter;stroke-opacity:1"
         d="M 8,62 V 25.999998 c 0,-6 0,-6 6,-6 h 32 c 8,0 0,-7.999974 8,-7.999974 h 12 c 6,0 6,0 6,6 V 62 c 0,6 0,6 -6,6 H 14 C 8,68 8,68 8,62 Z"
         id="path21130"
         inkscape:connector-curvature="0"
         sodipodi:nodetypes="ccccccccccc" />
      <rect
         y="60"
         x="8"
         height="1.9999999"
         width="63.999996"
         id="rect21132"
         style="opacity:1;fill:#000000;fill-opacity:0.12549;stroke:none;stroke-width:7.55906;stroke-linecap:round;stroke-linejoin:round;stroke-miterlimit:4;stroke-dasharray:none;stroke-opacity:1" />
    </g>
    <path
       inkscape:connector-curvature="0"
       id="path3598"
       d="m 45,40 -7,-7 -3,3 4,4 -4,4 3,3 z"
       style="fill:#ffffff;fill-opacity:1;stroke:none;stroke-width:1px;stroke-linecap:butt;stroke-linejoin:miter;stroke-opacity:1" />
  </g>
</svg>
