<?xml version="1.0" encoding="UTF-8" standalone="no"?>
<svg
   xmlns:dc="http://purl.org/dc/elements/1.1/"
   xmlns:cc="http://creativecommons.org/ns#"
   xmlns:rdf="http://www.w3.org/1999/02/22-rdf-syntax-ns#"
   xmlns:svg="http://www.w3.org/2000/svg"
   xmlns="http://www.w3.org/2000/svg"
   xmlns:sodipodi="http://sodipodi.sourceforge.net/DTD/sodipodi-0.dtd"
   xmlns:inkscape="http://www.inkscape.org/namespaces/inkscape"
   version="1.1"
   id="svg2"
   width="80"
   height="80"
   viewBox="0 0 80 80"
   sodipodi:docname="folder-world.svg"
   inkscape:version="1.0.1 (3bc2e813f5, 2020-09-07)"
   inkscape:export-filename="/home/raster/C/th-efl/th/img/ic/folder-world-040.png"
   inkscape:export-xdpi="48"
   inkscape:export-ydpi="48">
  <metadata
     id="metadata8">
    <rdf:RDF>
      <cc:Work
         rdf:about="">
        <dc:format>image/svg+xml</dc:format>
        <dc:type
           rdf:resource="http://purl.org/dc/dcmitype/StillImage" />
        <dc:title></dc:title>
      </cc:Work>
    </rdf:RDF>
  </metadata>
  <defs
     id="defs6">
    <mask
       maskUnits="userSpaceOnUse"
       id="mask947">
      <rect
         style="opacity:1;fill:#a0a0a0;fill-opacity:1;stroke-width:3.96122;stroke-linecap:round;stroke-linejoin:round"
         id="rect949"
         width="60"
         height="40"
         x="10"
         y="5" />
    </mask>
    <mask
       id="mask3567"
       maskUnits="userSpaceOnUse">
      <path
         style="fill:#ffffff;fill-opacity:1;fill-rule:evenodd;stroke:none;stroke-width:1px;stroke-linecap:butt;stroke-linejoin:miter;stroke-opacity:1"
         d="M 40,10 C 19,10 20,17.832395 20,30 20,42.167605 19,70 40,70 61,70 60,42.167605 60,30 60,17.832395 61,10 40,10 Z"
         id="path3569"
         sodipodi:nodetypes="zzzzz" />
    </mask>
    <clipPath
       id="clipPath922"
       clipPathUnits="userSpaceOnUse">
      <path
         sodipodi:nodetypes="ccccccc"
         inkscape:connector-curvature="0"
         id="path924"
         d="m 1.3229166,295.4125 h 7.9375003 v -6.08542 c 0,-0.52917 0,-0.52917 -0.529167,-0.52917 H 1.8520833 c -0.5291666,0 -0.5291666,0 -0.5291667,0.52917 z"
         style="fill:#ffffff;fill-opacity:1;fill-rule:evenodd;stroke:none;stroke-width:0.264583px;stroke-linecap:butt;stroke-linejoin:miter;stroke-opacity:1" />
    </clipPath>
    <clipPath
       id="clipPath922-6"
       clipPathUnits="userSpaceOnUse">
      <path
         sodipodi:nodetypes="ccccccc"
         inkscape:connector-curvature="0"
         id="path924-7"
         d="m 1.3229166,295.4125 h 7.9375003 v -6.08542 c 0,-0.52917 0,-0.52917 -0.529167,-0.52917 H 1.8520833 c -0.5291666,0 -0.5291666,0 -0.5291667,0.52917 z"
         style="fill:#ffffff;fill-opacity:1;fill-rule:evenodd;stroke:none;stroke-width:0.264583px;stroke-linecap:butt;stroke-linejoin:miter;stroke-opacity:1" />
    </clipPath>
    <clipPath
       clipPathUnits="userSpaceOnUse"
       id="clipPath1718">
      <path
         style="fill:#fff078;fill-opacity:1;fill-rule:evenodd;stroke:none;stroke-width:2px;stroke-linecap:butt;stroke-linejoin:miter;stroke-opacity:1"
         d="M 8,62 V 25.999998 c 0,-6 0,-6 6,-6 h 32 c 8,0 0,-7.999974 8,-7.999974 h 12 c 6,0 6,0 6,6 V 62 c 0,6 0,6 -6,6 H 14 C 8,68 8,68 8,62 Z"
         id="path1720"
         inkscape:connector-curvature="0"
         sodipodi:nodetypes="ccccccccccc" />
    </clipPath>
    <clipPath
       clipPathUnits="userSpaceOnUse"
       id="clipPath1722">
      <path
         style="fill:#fff078;fill-opacity:1;fill-rule:evenodd;stroke:none;stroke-width:2px;stroke-linecap:butt;stroke-linejoin:miter;stroke-opacity:1"
         d="M 8,62 V 25.999998 c 0,-6 0,-6 6,-6 h 32 c 8,0 0,-7.999974 8,-7.999974 h 12 c 6,0 6,0 6,6 V 62 c 0,6 0,6 -6,6 H 14 C 8,68 8,68 8,62 Z"
         id="path1724"
         inkscape:connector-curvature="0"
         sodipodi:nodetypes="ccccccccccc" />
    </clipPath>
    <clipPath
       clipPathUnits="userSpaceOnUse"
       id="clipPath1726">
      <path
         style="fill:#fff078;fill-opacity:1;fill-rule:evenodd;stroke:none;stroke-width:2px;stroke-linecap:butt;stroke-linejoin:miter;stroke-opacity:1"
         d="M 8,62 V 25.999998 c 0,-6 0,-6 6,-6 h 32 c 8,0 0,-7.999974 8,-7.999974 h 12 c 6,0 6,0 6,6 V 62 c 0,6 0,6 -6,6 H 14 C 8,68 8,68 8,62 Z"
         id="path1728"
         inkscape:connector-curvature="0"
         sodipodi:nodetypes="ccccccccccc" />
    </clipPath>
  </defs>
  <sodipodi:namedview
     inkscape:document-rotation="0"
     pagecolor="#404040"
     bordercolor="#666666"
     borderopacity="1"
     objecttolerance="10"
     gridtolerance="10"
     guidetolerance="10"
     inkscape:pageopacity="0"
     inkscape:pageshadow="2"
     inkscape:window-width="1920"
     inkscape:window-height="1017"
     id="namedview4"
     showgrid="true"
     inkscape:zoom="10.4125"
     inkscape:cx="40"
     inkscape:cy="37.548585"
     inkscape:window-x="0"
     inkscape:window-y="0"
     inkscape:window-maximized="1"
     inkscape:current-layer="g10"
     showguides="false"
     inkscape:snap-bbox="true"
     inkscape:bbox-nodes="true"
     inkscape:snap-others="false"
     inkscape:snap-nodes="true"
     inkscape:bbox-paths="true">
    <inkscape:grid
       type="xygrid"
       id="grid837" />
  </sodipodi:namedview>
  <g
     inkscape:groupmode="layer"
     inkscape:label="Image"
     id="g10">
    <path
       sodipodi:nodetypes="ccccccc"
       inkscape:connector-curvature="0"
       id="path871"
       d="M 10,64.00005 H 70 V 18.000024 c 2e-6,-4.000026 2e-6,-4.000026 -4,-4.000026 H 14 c -4,0 -4,0 -4,4.000026 z"
       style="fill:#ffffff;fill-opacity:1;fill-rule:evenodd;stroke:none;stroke-width:2px;stroke-linecap:butt;stroke-linejoin:miter;stroke-opacity:1" />
    <path
       transform="matrix(7.5590552,0,0,7.5590552,-2e-7,-2169.0394)"
       clip-path="url(#clipPath922-6)"
       style="fill:#000000;fill-opacity:0.22;fill-rule:evenodd;stroke:none;stroke-width:0.264583px;stroke-linecap:butt;stroke-linejoin:miter;stroke-opacity:1"
       d="m 0.79374997,294.88333 v -4.7625 c 0,-0.79375 0,-0.79375 0.79375003,-0.79375 h 4.2333333 c 0.7937501,0 10e-8,-1.05833 0.79375,-1.05833 h 1.8520833 c 0.7937501,0 0.7937501,0.26458 0.79375,1.05833 l 1e-7,5.55625 c 0,0.79375 0,0.79375 -0.79375,0.79375 H 1.5875 c -0.79375003,0 -0.79375003,0 -0.79375003,-0.79375 z"
       id="path905"
       inkscape:connector-curvature="0"
       sodipodi:nodetypes="ccccccccccc" />
    <circle
       r="45.027843"
       cy="39.972153"
       cx="41.027843"
       id="path3766"
       style="fill:#3399ff;fill-opacity:1;stroke-width:1.50328;stroke-linecap:round;stroke-linejoin:round;stroke-opacity:0.2"
       clip-path="url(#clipPath1726)" />
    <path
       d="m 39.8699,-3.6515002 c -2.891871,0.5265511 -8.565012,1.4277383 -6.391839,5.3809068 -1.688655,1.7972083 0.6842,2.2393787 -0.156892,2.4633742 -3.624525,2.5891145 3.009936,9.5602982 4.418632,4.8574446 0.293212,-4.0183733 7.200623,-5.1824571 4.777613,-9.31511551 C 41.446918,-1.1661329 40.982536,-3.2328824 39.8699,-3.6515002 Z m -7.358066,0.7299433 c -2.081241,0.8601909 -5.723274,3.47872962 -6.231363,3.84686075 2.463642,0.17236355 6.278946,-2.89843625 7.05565,-3.77107735 z m -3.110322,0.6214788 c -1.875339,-0.2200435 -4.852886,3.3449414 -1.468303,0.9962831 0.04827,-0.3309862 2.375584,-0.7966926 1.468303,-0.9962831 z m -5.077358,1.5624887 c -1.736107,1.00177345 1.280253,0.94049055 0,0 z M 21.638899,0.47312074 C 19.348151,-0.0156655 17.841491,3.7013919 20.687484,1.3886133 20.495582,1.3631276 22.99532,0.32413862 21.638899,0.47312074 Z M 24.02221,1.0066527 c -2.495673,2.6209686 4.920228,0.4026074 0.705121,0.655083 C 24.489304,1.4479165 24.417462,1.012946 24.02221,1.0066527 Z m -1.571285,0.281424 c -1.952437,0.3988491 0.792157,0.8882912 0,0 z M 16.681733,2.0942402 C 11.198172,5.6131016 6.4963659,10.342124 3.0092162,15.845907 6.0224449,16.905588 0.9253516,22.000433 1.0070396,24.512484 0.07079518,28.112622 0.67288949,32.999478 1.8809355,35.84419 1.5767139,34.039512 1.5899926,30.697886 2.5400275,34.543878 c 0.3740553,3.990962 2.2964335,7.837959 6.4336968,8.356993 1.0168593,1.504312 6.3383867,4.802939 5.7228427,3.253766 -2.125586,-0.737368 -3.340676,-4.620571 -4.276499,-5.37011 1.586991,-4.887779 -3.534648,1.135057 -4.2653838,-2.831954 -1.0881969,-4.581363 6.4176538,-7.923206 7.8423788,-2.704346 -0.204971,-4.018194 3.506485,-6.841452 5.653404,-9.905233 0.553063,-2.659268 7.108825,-2.38468 6.388526,-3.422592 -1.628016,0.637878 -1.865038,-2.616609 -3.064731,-1.853354 1.801576,-1.611925 9.03553,-0.709457 5.268212,-4.59122 -0.06161,-2.960917 -3.029146,-2.448188 -3.465685,-2.63909 -1.229631,-4.0281335 -5.270029,-0.364907 -4.666502,2.028057 -1.190526,1.709061 -2.635998,4.61455 -3.577917,1.29131 -4.536453,-2.993286 0.503999,-7.3756294 4.0331,-8.0590305 C 22.678065,7.457364 22.654066,5.861313 20.69416,6.7195512 20.123295,1.344354 17.95028,9.3368426 14.733144,6.9344256 10.950846,6.9494649 12.848038,3.1146867 14.918549,4.8434286 12.95046,9.3834855 22.076475,3.1586203 16.681733,2.0942402 Z m 41.938041,0.398684 c -2.485319,1.3150787 -5.910129,7.8388728 -1.109778,7.4590318 4.052722,3.297041 -4.716949,5.54989 -4.438492,6.994419 3.828617,3.302261 -4.283895,1.758363 -2.464359,5.273734 3.31498,6.528285 6.013027,-5.301249 10.843616,-2.19174 1.695503,0.764331 2.779826,2.994876 1.396685,3.72962 5.630618,-0.139106 -4.604462,-6.181606 0.800516,-3.850273 1.609191,0.8509 4.219244,6.737696 4.014622,2.239958 1.574255,1.598815 4.722547,2.152787 5.549404,3.047396 0.998011,5.149387 -5.977338,0.416615 -8.021393,2.086459 -3.807885,-0.405076 -4.236982,-4.446166 -8.375089,-2.957616 -5.094865,-0.186081 -7.700452,4.872118 -9.550272,8.825339 -2.296669,4.605497 0.705733,10.260991 5.532104,11.218862 2.924123,-0.242135 7.826183,-2.25609 9.058921,1.6923 0.07087,4.030568 2.440086,7.260312 0.171628,11.19341 0.222622,2.83042 -1.186674,9.349829 2.732633,9.441061 5.019769,-1.839257 6.575083,-7.763479 9.934645,-11.076897 0.0312,-4.81399 3.089885,-8.444294 5.469839,-12.223707 1.182387,-1.975232 0.977211,-4.111259 -1.287358,-3.270922 -2.378845,-2.325909 -5.068512,-8.390761 -4.794161,-9.852104 2.690311,2.10386 3.39001,11.875996 7.814688,6.531298 2.910401,-2.872808 -0.67729,-5.910058 -2.138748,-7.461101 2.032758,0.823579 7.36087,5.761369 5.137008,0.458394 C 82.468605,19.26369 76.114091,9.687596 67.305809,3.4075508 66.296417,5.1491362 62.021594,7.9258817 64.281533,4.7579523 62.752113,3.3952927 60.558144,2.972993 58.619774,2.4929242 Z m -37.787037,0.501286 c -3.142536,0.5673268 -0.341994,1.7327794 0.69244,0.297598 z M 24.631962,3.137849 C 22.145845,2.7933064 19.991275,5.9698466 23.684207,5.4751558 25.560392,6.1189744 22.76342,7.7745191 25.095423,7.0370425 24.403508,9.3140345 20.707321,8.7729484 24.299842,9.9610291 25.6931,11.606827 26.27656,9.3700221 27.305107,10.137216 26.437384,7.5828746 27.602765,7.9042668 29.299648,8.3720791 28.266075,6.111057 27.776745,3.4560052 24.631962,3.137849 Z M 44.800683,4.9114072 C 40.274321,5.0451549 44.589576,8.7611151 46.407575,5.9945774 46.837534,5.0686054 45.362934,4.965352 44.800683,4.9114072 Z m 15.715772,0.2872866 c -0.03907,2.6104862 1.594487,4.1345016 3.735873,4.0089835 -2.206696,0.684881 0.641568,3.0413127 -2.437489,3.7250877 -2.011838,1.161562 -3.962121,-0.725429 -1.334083,-1.584613 0.654068,-2.0101942 -3.258554,-5.0106635 0.03569,-6.1494582 z M 20.17315,8.8454808 c -4.362353,1.3946552 2.453519,1.7676282 0,0 z m 31.252723,1.7676942 c 0.02702,1.94618 1.552624,6.938118 3.187336,3.757069 -0.666082,-1.540496 -2.149228,-2.494931 -3.187336,-3.757069 z m -1.245888,1.597667 c -3.752751,3.304415 3.397446,1.898172 0,0 z m 26.195886,5.106674 c 0.07604,2.460997 4.707173,4.56054 2.438855,6.913836 -0.83348,-2.092234 -4.764112,-4.620993 -2.438855,-6.913836 z m -4.936646,0.213999 c 1.493263,0.89777 4.31006,5.0246 0.500961,3.605272 -4.289198,1.579041 -3.758066,-4.849193 -0.694801,-2.376361 l 0.0901,-0.489696 z m -42.184288,1.594736 c -4.544573,2.519316 5.865347,3.518845 0,0 z m 30.566752,1.412983 c -0.384281,3.085895 1.673519,2.416783 0,0 z m 12.136412,4.341552 c -0.836094,0.908998 1.331974,0.0895 0,0 z M 13.679877,37.363115 c -3.9281661,0.552419 6.804192,3.181365 1.866228,0.490099 -0.567052,-0.316109 -1.212505,-0.511372 -1.866228,-0.490099 z m 4.570209,1.852708 c -3.158195,2.943 6.048351,0.965897 0,0 z m 3.564704,1.1726 c -1.51632,0.726743 1.441834,0.526725 0,0 z m -5.695905,6.317382 c -3.129168,1.855887 -2.071315,6.67131 -2.715452,9.417629 1.422111,5.18382 7.764601,6.69097 8.806793,11.974191 1.398506,4.763001 3.357797,10.385194 8.271547,12.486121 2.195177,-0.29002 -3.486094,-2.419369 -2.19454,-4.851305 0.247239,-3.442266 3.832643,-5.10461 4.199792,-8.314714 3.721799,-1.537666 3.344611,-5.64864 5.234744,-8.342551 -0.205141,-4.533773 -7.750167,-3.446928 -9.260033,-5.401257 -0.276275,-3.307962 -5.703724,-4.152292 -7.818722,-5.840526 -1.42905,-0.811768 -4.359927,0.192608 -4.392206,-0.210028 -0.04398,-0.305853 -0.08796,-0.611707 -0.131917,-0.91756 z m 61.881037,8.665516 c -3.123113,0.468844 -4.53181,9.378496 -1.427402,4.079873 0.707653,-1.251505 1.435291,-2.603335 1.427402,-4.079873 z M 33.526133,79.186832 c -1.074371,0.887794 1.423956,0.294288 0,0 z"
       style="fill:#00cd61;fill-opacity:1;stroke-width:1.50328;stroke-linecap:round;stroke-linejoin:round;stroke-opacity:0.2"
       id="path3762"
       clip-path="url(#clipPath1722)" />
    <path
       d="M 64.465185,1.5255295 A 45.027843,45.027843 0 0 1 71.046404,24.962873 45.027843,45.027843 0 0 1 26.018561,69.990716 45.027843,45.027843 0 0 1 2.5812175,63.409497 45.027843,45.027843 0 0 0 41.027842,84.999997 45.027843,45.027843 0 0 0 86.055685,39.972154 45.027843,45.027843 0 0 0 64.465185,1.5255295 Z"
       style="fill:#000000;fill-opacity:0.2;stroke-width:1.50328;stroke-linecap:round;stroke-linejoin:round;stroke-opacity:0.2"
       id="circle3784"
       clip-path="url(#clipPath1718)" />
    <rect
       y="60"
       x="8"
       height="1.9999999"
       width="63.999996"
       id="rect919"
       style="opacity:1;fill:#000000;fill-opacity:0.12549;stroke:none;stroke-width:7.55906;stroke-linecap:round;stroke-linejoin:round;stroke-miterlimit:4;stroke-dasharray:none;stroke-opacity:1" />
  </g>
</svg>
