<?xml version="1.0" encoding="UTF-8" standalone="no"?>
<svg
   xmlns:dc="http://purl.org/dc/elements/1.1/"
   xmlns:cc="http://creativecommons.org/ns#"
   xmlns:rdf="http://www.w3.org/1999/02/22-rdf-syntax-ns#"
   xmlns:svg="http://www.w3.org/2000/svg"
   xmlns="http://www.w3.org/2000/svg"
   xmlns:xlink="http://www.w3.org/1999/xlink"
   xmlns:sodipodi="http://sodipodi.sourceforge.net/DTD/sodipodi-0.dtd"
   xmlns:inkscape="http://www.inkscape.org/namespaces/inkscape"
   version="1.1"
   id="svg2"
   width="80"
   height="80"
   viewBox="0 0 80 80"
   sodipodi:docname="folder-opinfo.svg"
   inkscape:version="1.0.2 (e86c870879, 2021-01-15)"
   inkscape:export-filename="/home/raster/icon.png"
   inkscape:export-xdpi="96"
   inkscape:export-ydpi="96">
  <metadata
     id="metadata8">
    <rdf:RDF>
      <cc:Work
         rdf:about="">
        <dc:format>image/svg+xml</dc:format>
        <dc:type
           rdf:resource="http://purl.org/dc/dcmitype/StillImage" />
        <dc:title></dc:title>
      </cc:Work>
    </rdf:RDF>
  </metadata>
  <defs
     id="defs6">
    <linearGradient
       inkscape:collect="always"
       id="linearGradient71753">
      <stop
         style="stop-color:#ffffff;stop-opacity:1"
         offset="0"
         id="stop71749" />
      <stop
         style="stop-color:#ffffff;stop-opacity:0"
         offset="1"
         id="stop71751" />
    </linearGradient>
    <mask
       maskUnits="userSpaceOnUse"
       id="mask947">
      <rect
         style="opacity:1;fill:#a0a0a0;fill-opacity:1;stroke-width:3.96122;stroke-linecap:round;stroke-linejoin:round"
         id="rect949"
         width="60"
         height="40"
         x="10"
         y="5" />
    </mask>
    <mask
       id="mask3567"
       maskUnits="userSpaceOnUse">
      <path
         style="fill:#ffffff;fill-opacity:1;fill-rule:evenodd;stroke:none;stroke-width:1px;stroke-linecap:butt;stroke-linejoin:miter;stroke-opacity:1"
         d="M 40,10 C 19,10 20,17.832395 20,30 20,42.167605 19,70 40,70 61,70 60,42.167605 60,30 60,17.832395 61,10 40,10 Z"
         id="path3569"
         sodipodi:nodetypes="zzzzz" />
    </mask>
    <clipPath
       id="clipPath922"
       clipPathUnits="userSpaceOnUse">
      <path
         sodipodi:nodetypes="ccccccc"
         inkscape:connector-curvature="0"
         id="path924"
         d="m 1.3229166,295.4125 h 7.9375003 v -6.08542 c 0,-0.52917 0,-0.52917 -0.529167,-0.52917 H 1.8520833 c -0.5291666,0 -0.5291666,0 -0.5291667,0.52917 z"
         style="fill:#ffffff;fill-opacity:1;fill-rule:evenodd;stroke:none;stroke-width:0.264583px;stroke-linecap:butt;stroke-linejoin:miter;stroke-opacity:1" />
    </clipPath>
    <clipPath
       id="clipPath922-6"
       clipPathUnits="userSpaceOnUse">
      <path
         sodipodi:nodetypes="ccccccc"
         inkscape:connector-curvature="0"
         id="path924-7"
         d="m 1.3229166,295.4125 h 7.9375003 v -6.08542 c 0,-0.52917 0,-0.52917 -0.529167,-0.52917 H 1.8520833 c -0.5291666,0 -0.5291666,0 -0.5291667,0.52917 z"
         style="fill:#ffffff;fill-opacity:1;fill-rule:evenodd;stroke:none;stroke-width:0.264583px;stroke-linecap:butt;stroke-linejoin:miter;stroke-opacity:1" />
    </clipPath>
    <linearGradient
       inkscape:collect="always"
       xlink:href="#linearGradient71753"
       id="linearGradient71755"
       x1="40"
       y1="65"
       x2="56"
       y2="65"
       gradientUnits="userSpaceOnUse"
       gradientTransform="matrix(1,0,0,0.8,0,14)" />
  </defs>
  <sodipodi:namedview
     inkscape:document-rotation="0"
     pagecolor="#404040"
     bordercolor="#666666"
     borderopacity="1"
     objecttolerance="10"
     gridtolerance="10"
     guidetolerance="10"
     inkscape:pageopacity="0"
     inkscape:pageshadow="2"
     inkscape:window-width="2560"
     inkscape:window-height="1377"
     id="namedview4"
     showgrid="true"
     inkscape:zoom="15.175"
     inkscape:cx="40"
     inkscape:cy="40.032949"
     inkscape:window-x="0"
     inkscape:window-y="0"
     inkscape:window-maximized="1"
     inkscape:current-layer="g10"
     showguides="false"
     inkscape:snap-bbox="true"
     inkscape:bbox-nodes="true"
     inkscape:snap-others="false"
     inkscape:snap-nodes="true"
     inkscape:bbox-paths="true">
    <inkscape:grid
       type="xygrid"
       id="grid837"
       empspacing="4" />
  </sodipodi:namedview>
  <g
     inkscape:groupmode="layer"
     inkscape:label="Image"
     id="g10">
    <path
       sodipodi:nodetypes="ccccccc"
       inkscape:connector-curvature="0"
       id="path871"
       d="M 10,64.00005 H 70 V 18.000024 c 2e-6,-4.000026 2e-6,-4.000026 -4,-4.000026 H 14 c -4,0 -4,0 -4,4.000026 z"
       style="fill:#ffffff;fill-opacity:1;fill-rule:evenodd;stroke:none;stroke-width:2px;stroke-linecap:butt;stroke-linejoin:miter;stroke-opacity:1" />
    <path
       transform="matrix(7.5590552,0,0,7.5590552,-2e-7,-2169.0394)"
       clip-path="url(#clipPath922-6)"
       style="fill:#000000;fill-opacity:0.22;fill-rule:evenodd;stroke:none;stroke-width:0.264583px;stroke-linecap:butt;stroke-linejoin:miter;stroke-opacity:1"
       d="m 0.79374997,294.88333 v -4.7625 c 0,-0.79375 0,-0.79375 0.79375003,-0.79375 h 4.2333333 c 0.7937501,0 10e-8,-1.05833 0.79375,-1.05833 h 1.8520833 c 0.7937501,0 0.7937501,0.26458 0.79375,1.05833 l 1e-7,5.55625 c 0,0.79375 0,0.79375 -0.79375,0.79375 H 1.5875 c -0.79375003,0 -0.79375003,0 -0.79375003,-0.79375 z"
       id="path905"
       inkscape:connector-curvature="0"
       sodipodi:nodetypes="ccccccccccc" />
    <path
       style="fill:#fff078;fill-opacity:1;fill-rule:evenodd;stroke:none;stroke-width:2px;stroke-linecap:butt;stroke-linejoin:miter;stroke-opacity:1"
       d="M 8,62 V 25.999998 c 0,-6 0,-6 6,-6 h 32 c 8,0 0,-7.999974 8,-7.999974 h 12 c 6,0 6,0 6,6 V 62 c 0,6 0,6 -6,6 H 14 C 8,68 8,68 8,62 Z"
       id="path907"
       inkscape:connector-curvature="0"
       sodipodi:nodetypes="ccccccccccc" />
    <rect
       y="60"
       x="8"
       height="1.9999999"
       width="63.999996"
       id="rect919"
       style="opacity:1;fill:#000000;fill-opacity:0.12549;stroke:none;stroke-width:7.55906;stroke-linecap:round;stroke-linejoin:round;stroke-miterlimit:4;stroke-dasharray:none;stroke-opacity:1" />
    <rect
       style="fill:#000000;fill-opacity:0.75;stroke-width:4"
       id="rect71739"
       width="40"
       height="20"
       x="36"
       y="56"
       ry="0" />
    <rect
       style="fill:#3399ff;fill-opacity:1;stroke-width:1.44222"
       id="rect71741"
       width="26"
       height="4"
       x="36"
       y="72"
       ry="0" />
    <path
       style="fill:#3399ff;fill-opacity:1;stroke-width:4;stroke:#ffffff;stroke-opacity:1"
       d="M 70,70 62,62"
       id="path71743" />
    <path
       style="fill:#3399ff;fill-opacity:1;stroke:#ffffff;stroke-width:4;stroke-opacity:1"
       d="m 70,62 -8,8"
       id="path71745"
       sodipodi:nodetypes="cc" />
    <rect
       style="fill:url(#linearGradient71755);fill-opacity:1;stroke:none;stroke-width:3.57771;stroke-opacity:1"
       id="rect71747"
       width="16"
       height="8"
       x="40"
       y="62"
       ry="0" />
  </g>
</svg>
