<?xml version="1.0" encoding="UTF-8" standalone="no"?>
<svg
   xmlns:dc="http://purl.org/dc/elements/1.1/"
   xmlns:cc="http://creativecommons.org/ns#"
   xmlns:rdf="http://www.w3.org/1999/02/22-rdf-syntax-ns#"
   xmlns:svg="http://www.w3.org/2000/svg"
   xmlns="http://www.w3.org/2000/svg"
   xmlns:sodipodi="http://sodipodi.sourceforge.net/DTD/sodipodi-0.dtd"
   xmlns:inkscape="http://www.inkscape.org/namespaces/inkscape"
   version="1.1"
   id="svg2"
   width="80"
   height="80"
   viewBox="0 0 80 80"
   sodipodi:docname="gear-spanner.svg"
   inkscape:version="1.0.1 (3bc2e813f5, 2020-09-07)"
   inkscape:export-filename="/home/raster/C/th-efl/th/img/ic/gear-spanner-040.png"
   inkscape:export-xdpi="48"
   inkscape:export-ydpi="48">
  <metadata
     id="metadata8">
    <rdf:RDF>
      <cc:Work
         rdf:about="">
        <dc:format>image/svg+xml</dc:format>
        <dc:type
           rdf:resource="http://purl.org/dc/dcmitype/StillImage" />
        <dc:title></dc:title>
      </cc:Work>
    </rdf:RDF>
  </metadata>
  <defs
     id="defs6" />
  <sodipodi:namedview
     inkscape:document-rotation="0"
     pagecolor="#404040"
     bordercolor="#666666"
     borderopacity="1"
     objecttolerance="10"
     gridtolerance="10"
     guidetolerance="10"
     inkscape:pageopacity="0"
     inkscape:pageshadow="2"
     inkscape:window-width="1918"
     inkscape:window-height="1012"
     id="namedview4"
     showgrid="true"
     inkscape:zoom="10.3875"
     inkscape:cx="40"
     inkscape:cy="40.048135"
     inkscape:window-x="0"
     inkscape:window-y="0"
     inkscape:window-maximized="0"
     inkscape:current-layer="g10"
     showguides="false"
     inkscape:snap-bbox="true"
     inkscape:bbox-nodes="true"
     inkscape:snap-others="false"
     inkscape:snap-nodes="false">
    <inkscape:grid
       type="xygrid"
       id="grid837"
       empspacing="4" />
  </sodipodi:namedview>
  <g
     inkscape:groupmode="layer"
     inkscape:label="Image"
     id="g10">
    <rect
       style="fill:#375362;fill-opacity:1;stroke-width:3.77953"
       id="rect8905"
       width="23.680737"
       height="23.986691"
       x="28.384541"
       y="28.080614" />
    <path
       d="M 39.855469 10 A 30 30 0 0 0 34.205078 10.566406 L 32.568359 22.027344 L 23.302734 15.078125 A 30 30 0 0 0 15.107422 23.259766 L 22.072266 32.546875 L 10.568359 34.189453 A 30 30 0 0 0 10 40 A 30 30 0 0 0 10.558594 45.761719 L 22.089844 47.408203 L 15.099609 56.728516 A 30 30 0 0 0 23.277344 64.90625 L 32.611328 57.90625 L 34.259766 69.445312 A 30 30 0 0 0 40 70 A 30 30 0 0 0 45.824219 69.427734 L 47.472656 57.886719 L 56.779297 64.867188 A 30 30 0 0 0 64.945312 56.664062 L 57.970703 47.365234 L 69.447266 45.726562 A 30 30 0 0 0 70 40 A 30 30 0 0 0 69.421875 34.142578 L 57.951172 32.503906 L 64.888672 23.253906 A 30 30 0 0 0 56.681641 15.068359 L 47.429688 22.007812 L 45.794922 10.566406 A 30 30 0 0 0 40 10 A 30 30 0 0 0 39.855469 10 z M 39.994141 30 A 10 10 0 0 1 40.005859 30 A 10 10 0 0 1 50 40 L 40 40 L 50 40.025391 A 10 10 0 0 1 39.982422 50 A 10 10 0 0 1 30 39.988281 A 10 10 0 0 1 39.994141 30 z "
       style="fill:#a0a0a0;stroke-width:4;stroke-linecap:round;stroke-linejoin:round;fill-opacity:1"
       id="path2833" />
    <path
       sodipodi:nodetypes="cccccscccccccccscsscss"
       d="m 49.84389,24.495694 c -2.760576,-0.739694 -5.706076,0.04946 -7.727076,2.070221 -2.020762,2.021 -2.809915,4.966501 -2.070221,7.727075 l -7.495056,7.495056 c -1.70491,-0.09501 -3.36954,0.540904 -4.576859,1.748432 -2.343145,2.343145 -2.343146,6.142135 0,8.485281 2.343146,2.343146 6.142136,2.343146 8.485282,0 1.207091,-1.207275 1.842734,-2.871598 1.747741,-4.576168 l 7.495747,-7.495747 c 2.760574,0.739695 5.706075,-0.04946 7.727075,-2.07022 2.020762,-2.021 2.809915,-4.9665 2.070221,-7.727076 L 51.309202,34.34409 H 45.652348 V 28.687236 Z M 33.610126,46.343499 c 0.0072,0.0071 0.01432,0.01422 0.02141,0.0214 0.781048,0.781049 0.781048,2.047379 0,2.828427 -0.781049,0.781048 -2.047379,0.781049 -2.828428,0 -0.781048,-0.781048 -0.781048,-2.047379 0,-2.828427 0.772677,-0.772853 2.022648,-0.782385 2.807021,-0.02141 z"
       style="fill:#ffffff;fill-opacity:1;stroke:none;stroke-width:0.66667;stroke-linecap:round;stroke-linejoin:round;stroke-opacity:0.2"
       id="path1652"
       inkscape:transform-center-x="-0.99881209"
       inkscape:transform-center-y="-0.99401396" />
  </g>
</svg>
