<?xml version="1.0" encoding="UTF-8" standalone="no"?>
<svg
   xmlns:dc="http://purl.org/dc/elements/1.1/"
   xmlns:cc="http://creativecommons.org/ns#"
   xmlns:rdf="http://www.w3.org/1999/02/22-rdf-syntax-ns#"
   xmlns:svg="http://www.w3.org/2000/svg"
   xmlns="http://www.w3.org/2000/svg"
   xmlns:sodipodi="http://sodipodi.sourceforge.net/DTD/sodipodi-0.dtd"
   xmlns:inkscape="http://www.inkscape.org/namespaces/inkscape"
   version="1.1"
   id="svg2"
   width="80"
   height="80"
   viewBox="0 0 80 80"
   sodipodi:docname="gear-curly-braces.svg"
   inkscape:version="1.0.1 (3bc2e813f5, 2020-09-07)"
   inkscape:export-filename="/home/raster/C/th-efl/th/img/ic/gear-cruly-braces-040.png"
   inkscape:export-xdpi="48"
   inkscape:export-ydpi="48">
  <metadata
     id="metadata8">
    <rdf:RDF>
      <cc:Work
         rdf:about="">
        <dc:format>image/svg+xml</dc:format>
        <dc:type
           rdf:resource="http://purl.org/dc/dcmitype/StillImage" />
        <dc:title></dc:title>
      </cc:Work>
    </rdf:RDF>
  </metadata>
  <defs
     id="defs6">
    <rect
       x="24.002032"
       y="23.992186"
       width="32.046238"
       height="32.08055"
       id="rect1643" />
    <rect
       x="23.992523"
       y="23.838809"
       width="32.132957"
       height="32.250058"
       id="rect1637" />
    <rect
       x="24.103541"
       y="23.918814"
       width="32.006397"
       height="32.109549"
       id="rect1631" />
    <rect
       x="23.914446"
       y="23.818051"
       width="31.978062"
       height="32.221868"
       id="rect1625" />
    <rect
       x="27.956778"
       y="24.035794"
       width="23.635741"
       height="31.694169"
       id="rect1619" />
  </defs>
  <sodipodi:namedview
     inkscape:document-rotation="0"
     pagecolor="#404040"
     bordercolor="#666666"
     borderopacity="1"
     objecttolerance="10"
     gridtolerance="10"
     guidetolerance="10"
     inkscape:pageopacity="0"
     inkscape:pageshadow="2"
     inkscape:window-width="1920"
     inkscape:window-height="1012"
     id="namedview4"
     showgrid="true"
     inkscape:zoom="10.3375"
     inkscape:cx="36.130593"
     inkscape:cy="40.241838"
     inkscape:window-x="0"
     inkscape:window-y="0"
     inkscape:window-maximized="0"
     inkscape:current-layer="g10"
     showguides="false"
     inkscape:snap-bbox="true"
     inkscape:bbox-nodes="true"
     inkscape:snap-others="true"
     inkscape:snap-nodes="true"
     inkscape:bbox-paths="true">
    <inkscape:grid
       type="xygrid"
       id="grid837"
       empspacing="4" />
  </sodipodi:namedview>
  <g
     inkscape:groupmode="layer"
     inkscape:label="Image"
     id="g10">
    <rect
       y="25"
       x="25"
       height="30"
       width="30"
       id="rect7990"
       style="fill:#404040;fill-opacity:1;stroke-width:4;stroke-linecap:round;stroke-linejoin:round" />
    <path
       id="path2833"
       style="fill:#a0a0a0;fill-opacity:1;stroke-width:4.26666;stroke-linecap:round;stroke-linejoin:round"
       d="m 39.845877,8.0000928 a 31.999954,31.999954 0 0 0 -6.027074,0.6041656 l -1.745831,12.2249826 -9.88332,-7.41249 a 31.999954,31.999954 0 0 0 -8.741653,8.727071 l 7.429156,9.906236 -12.2708163,1.752081 a 31.999954,31.999954 0 0 0 -0.6062488,6.197907 31.999954,31.999954 0 0 0 0.5958328,6.145825 l 12.2999823,1.756247 -7.45624,9.941653 a 31.999954,31.999954 0 0 0 8.722904,8.722904 l 9.956236,-7.466656 1.758331,12.308314 A 31.999954,31.999954 0 0 0 40.000044,72 31.999954,31.999954 0 0 0 46.212535,71.389583 l 1.75833,-12.310397 9.92707,7.445823 a 31.999954,31.999954 0 0 0 8.710403,-8.749989 l -7.439573,-9.918735 12.24165,-1.747914 a 31.999954,31.999954 0 0 0 0.589582,-6.108325 31.999954,31.999954 0 0 0 -0.616666,-6.247908 l -12.235399,-1.747914 7.39999,-9.866652 A 31.999954,31.999954 0 0 0 57.793768,13.406335 L 47.925032,20.808407 46.181284,8.6042584 a 31.999954,31.999954 0 0 0 -6.18124,-0.6041656 31.999954,31.999954 0 0 0 -0.154167,0 z" />
    <text
       xml:space="preserve"
       id="text1617"
       style="fill:black;stroke:none;stroke-opacity:1;stroke-width:1px;stroke-linejoin:miter;stroke-linecap:butt;fill-opacity:1;font-family:Sans;font-style:normal;font-weight:normal;font-size:5px;line-height:25px;letter-spacing:0px;word-spacing:0px;white-space:pre;shape-inside:url(#rect1619);" />
    <text
       xml:space="preserve"
       id="text1623"
       style="font-style:normal;font-weight:normal;font-size:16px;line-height:80px;font-family:Sans;text-align:center;letter-spacing:0px;word-spacing:0px;white-space:pre;shape-inside:url(#rect1625);fill:#000000;fill-opacity:1;stroke:none;stroke-width:1px;stroke-linecap:butt;stroke-linejoin:miter;stroke-opacity:1"
       x="2.5561523"
       y="0"><tspan
         style="visibility:hidden"
         x="23.914062"
         y="100.19531"><tspan
           dx="0 7.2246094"
           style="font-style:normal;font-variant:normal;font-weight:normal;font-stretch:normal;font-size:12px;font-family:Hack;-inkscape-font-specification:Hack;text-align:center;text-anchor:middle">{}</tspan></tspan></text>
    <text
       xml:space="preserve"
       id="text1629"
       style="font-style:normal;font-weight:normal;font-size:14px;line-height:70px;font-family:Sans;letter-spacing:0px;word-spacing:0px;white-space:pre;shape-inside:url(#rect1631);fill:#000000;fill-opacity:1;stroke:none;stroke-width:1px;stroke-linecap:butt;stroke-linejoin:miter;stroke-opacity:1;"><tspan
         style="visibility:hidden"
         x="24.103516"
         y="94.666016"><tspan
           dx="0 8.9072266"
           style="font-size:14px">{}</tspan></tspan></text>
    <text
       xml:space="preserve"
       id="text1635"
       style="font-style:normal;font-weight:normal;font-size:24px;line-height:120px;font-family:Sans;letter-spacing:0px;word-spacing:0px;white-space:pre;shape-inside:url(#rect1637);fill:#000000;fill-opacity:1;stroke:none;stroke-width:1px;stroke-linecap:butt;stroke-linejoin:miter;stroke-opacity:1;"><tspan
         style="visibility:hidden"
         x="23.992188"
         y="122.32227"><tspan
           dx="0 15.269531"
           style="font-size:24px">{}</tspan></tspan></text>
    <g
       aria-label="{"
       id="text1641"
       style="font-style:normal;font-weight:normal;font-size:5px;line-height:25px;font-family:Sans;letter-spacing:0px;word-spacing:0px;white-space:pre;shape-inside:url(#rect1643);fill:#000000;fill-opacity:1;stroke:none;stroke-width:1px;stroke-linecap:butt;stroke-linejoin:miter;stroke-opacity:1"
       transform="matrix(6.0698411,0,0,6.0698411,-123.48169,-180.2493)">
      <path
         d="m 26.558105,38.254883 v 0.351562 h -0.151367 q -0.60791,0 -0.815429,-0.180664 Q 25.38623,38.245117 25.38623,37.705566 V 37.12207 q 0,-0.368652 -0.131835,-0.510254 -0.131836,-0.141601 -0.478516,-0.141601 h -0.148926 v -0.349121 h 0.148926 q 0.349121,0 0.478516,-0.13916 0.131835,-0.141602 0.131835,-0.505372 v -0.585937 q 0,-0.539551 0.205079,-0.717773 0.207519,-0.180665 0.815429,-0.180665 h 0.151367 v 0.349122 H 26.39209 q -0.344238,0 -0.449219,0.107421 -0.10498,0.107422 -0.10498,0.451661 v 0.605468 q 0,0.383301 -0.112305,0.556641 -0.109863,0.17334 -0.378418,0.234375 0.270996,0.06592 0.380859,0.239258 0.109864,0.17334 0.109864,0.554199 v 0.605469 q 0,0.344238 0.10498,0.45166 0.104981,0.107422 0.449219,0.107422 z"
         id="path1647"
         style="fill:#000000" />
    </g>
    <g
       aria-label="{"
       id="g1652"
       style="font-style:normal;font-weight:normal;font-size:5px;line-height:25px;font-family:Sans;letter-spacing:0px;word-spacing:0px;white-space:pre;shape-inside:url(#rect1643);fill:#000000;fill-opacity:1;stroke:none;stroke-width:1px;stroke-linecap:butt;stroke-linejoin:miter;stroke-opacity:1"
       transform="matrix(-6.0698411,0,0,6.0698411,203.48169,-180.2493)">
      <path
         d="m 26.558105,38.254883 v 0.351562 h -0.151367 q -0.60791,0 -0.815429,-0.180664 Q 25.38623,38.245117 25.38623,37.705566 V 37.12207 q 0,-0.368652 -0.131835,-0.510254 -0.131836,-0.141601 -0.478516,-0.141601 h -0.148926 v -0.349121 h 0.148926 q 0.349121,0 0.478516,-0.13916 0.131835,-0.141602 0.131835,-0.505372 v -0.585937 q 0,-0.539551 0.205079,-0.717773 0.207519,-0.180665 0.815429,-0.180665 h 0.151367 v 0.349122 H 26.39209 q -0.344238,0 -0.449219,0.107421 -0.10498,0.107422 -0.10498,0.451661 v 0.605468 q 0,0.383301 -0.112305,0.556641 -0.109863,0.17334 -0.378418,0.234375 0.270996,0.06592 0.380859,0.239258 0.109864,0.17334 0.109864,0.554199 v 0.605469 q 0,0.344238 0.10498,0.45166 0.104981,0.107422 0.449219,0.107422 z"
         id="path1650"
         style="fill:#000000" />
    </g>
  </g>
</svg>
