<?xml version="1.0" encoding="UTF-8" standalone="no"?>
<svg
   xmlns:dc="http://purl.org/dc/elements/1.1/"
   xmlns:cc="http://creativecommons.org/ns#"
   xmlns:rdf="http://www.w3.org/1999/02/22-rdf-syntax-ns#"
   xmlns:svg="http://www.w3.org/2000/svg"
   xmlns="http://www.w3.org/2000/svg"
   xmlns:sodipodi="http://sodipodi.sourceforge.net/DTD/sodipodi-0.dtd"
   xmlns:inkscape="http://www.inkscape.org/namespaces/inkscape"
   inkscape:export-ydpi="48"
   inkscape:export-xdpi="48"
   inkscape:export-filename="/home/raster/C/th-efl/th/img/ic/globe-040.png"
   inkscape:version="1.0 (4035a4fb49, 2020-05-01)"
   sodipodi:docname="globe.svg"
   viewBox="0 0 80 80"
   height="80"
   width="80"
   id="svg2"
   version="1.1">
  <metadata
     id="metadata8">
    <rdf:RDF>
      <cc:Work
         rdf:about="">
        <dc:format>image/svg+xml</dc:format>
        <dc:type
           rdf:resource="http://purl.org/dc/dcmitype/StillImage" />
        <dc:title></dc:title>
      </cc:Work>
    </rdf:RDF>
  </metadata>
  <defs
     id="defs6">
    <rect
       id="rect878"
       height="30"
       width="40"
       y="20"
       x="20" />
    <rect
       id="rect872"
       height="30"
       width="40"
       y="50"
       x="20" />
    <rect
       id="rect864"
       height="30"
       width="40"
       y="20"
       x="20" />
    <rect
       id="rect858"
       height="30"
       width="40"
       y="20"
       x="20" />
    <rect
       id="rect852"
       height="30"
       width="40"
       y="20"
       x="20" />
  </defs>
  <sodipodi:namedview
     inkscape:snap-nodes="true"
     inkscape:snap-others="false"
     inkscape:bbox-nodes="true"
     inkscape:snap-bbox="true"
     showguides="false"
     inkscape:current-layer="g10"
     inkscape:window-maximized="1"
     inkscape:window-y="0"
     inkscape:window-x="0"
     inkscape:cy="41.132583"
     inkscape:cx="42.141891"
     inkscape:zoom="10.4375"
     showgrid="true"
     id="namedview4"
     inkscape:window-height="1017"
     inkscape:window-width="1920"
     inkscape:pageshadow="2"
     inkscape:pageopacity="0"
     guidetolerance="10"
     gridtolerance="10"
     objecttolerance="10"
     borderopacity="1"
     bordercolor="#666666"
     pagecolor="#404040"
     inkscape:document-rotation="0">
    <inkscape:grid
       id="grid837"
       type="xygrid" />
  </sodipodi:namedview>
  <g
     id="g10"
     inkscape:label="Image"
     inkscape:groupmode="layer">
    <circle
       r="30"
       cy="40"
       cx="40"
       id="path3766"
       style="fill:#3399ff;stroke-width:1.00157;stroke-linecap:round;stroke-linejoin:round;stroke-opacity:0.2;fill-opacity:1" />
    <path
       d="m 39.228516,10.935547 c -1.926722,0.350817 -5.706477,0.951237 -4.258591,3.585053 -1.125074,1.197398 0.455851,1.491996 -0.10453,1.641234 -2.414856,1.725009 2.005383,6.369591 2.943933,3.236294 0.195354,-2.677259 4.797447,-3.452835 3.183106,-6.206237 -0.713223,-0.600457 -1.022619,-1.977438 -1.763918,-2.256344 z m -4.902344,0.486328 c -1.386636,0.573106 -3.813157,2.317719 -4.151673,2.562988 1.641412,0.114838 4.183375,-1.931096 4.700858,-2.512497 z m -2.072266,0.414063 c -1.249453,-0.146605 -3.233257,2.228582 -0.978263,0.663778 0.03216,-0.220521 1.582743,-0.5308 0.978263,-0.663778 z m -3.382812,1.041015 c -1.156689,0.667436 0.852974,0.626606 0,0 z m -1.789063,0.806641 c -1.526221,-0.325656 -2.53004,2.15085 -0.633885,0.609951 -0.127855,-0.01698 1.537606,-0.709211 0.633885,-0.609951 z m 1.587891,0.355468 c -1.662753,1.746232 3.278124,0.268239 0.46979,0.436452 -0.158586,-0.142458 -0.206451,-0.432259 -0.46979,-0.436452 z m -1.046875,0.1875 c -1.30082,0.265735 0.527778,0.591828 0,0 z m -3.84375,0.53711 c -3.653447,2.344457 -6.786046,5.495189 -9.109375,9.162109 2.007577,0.706017 -1.388384,4.10048 -1.333959,5.774145 -0.623777,2.398608 -0.222629,5.654498 0.582237,7.5498 -0.202689,-1.202375 -0.193842,-3.428748 0.439123,-0.866339 0.249216,2.658996 1.530009,5.222075 4.286479,5.567884 0.677487,1.002254 4.222978,3.199979 3.812869,2.167836 -1.416181,-0.491275 -2.22574,-3.078476 -2.849236,-3.57786 1.05734,-3.256504 -2.354975,0.756237 -2.841831,-1.886802 -0.725016,-3.052353 4.27579,-5.278871 5.22502,-1.801782 -0.136563,-2.67714 2.336211,-4.558148 3.766605,-6.599406 0.368481,-1.771749 4.736286,-1.588803 4.256384,-2.280317 -1.084673,0.424989 -1.24259,-1.743327 -2.041891,-1.234805 1.200308,-1.073952 6.019962,-0.472679 3.50997,-3.058921 -0.04105,-1.972724 -2.018182,-1.631116 -2.309028,-1.758305 -0.819247,-2.683762 -3.51118,-0.243121 -3.109078,1.351202 -0.793193,1.138669 -1.756245,3.074464 -2.383803,0.860341 -3.022432,-1.99429 0.335792,-4.914046 2.687071,-5.369365 1.407526,-0.42621 1.391536,-1.489586 0.08574,-0.917781 -0.380341,-3.581249 -1.828122,1.743782 -3.971553,0.143161 -2.519973,0.01002 -1.25596,-2.544918 0.123527,-1.393136 -1.311248,3.024833 4.769,-1.122511 1.174728,-1.831659 z m 27.941406,0.265625 c -1.655855,0.876177 -3.93765,5.222684 -0.739395,4.969613 2.700144,2.196668 -3.142688,3.697639 -2.957165,4.660063 2.550833,2.200146 -2.854164,1.171517 -1.64189,3.513648 2.20862,4.349499 4.006206,-3.53198 7.224607,-1.460256 1.129637,0.509239 1.852072,1.995349 0.930548,2.484876 3.751424,-0.09268 -3.067743,-4.118523 0.533347,-2.565262 1.072131,0.566916 2.81109,4.48902 2.67476,1.492382 1.048854,1.065218 3.146418,1.434304 3.697315,2.030341 0.664929,3.430802 -3.982428,0.277572 -5.344289,1.390113 -2.53702,-0.269884 -2.822908,-2.962278 -5.57994,-1.970525 -3.394476,-0.123977 -5.13046,3.24607 -6.362911,5.879921 -1.530166,3.068433 0.470198,6.836431 3.685789,7.474617 1.94821,-0.161324 5.214229,-1.50313 6.035546,1.127502 0.04722,2.685384 1.625718,4.837215 0.114348,7.457659 0.148323,1.88578 -0.790627,6.229365 1.820629,6.290149 3.344443,-1.225413 4.380678,-5.172452 6.619001,-7.380032 0.02079,-3.207342 2.05865,-5.626048 3.644305,-8.144099 0.78777,-1.316007 0.651071,-2.739144 -0.857708,-2.179266 -1.584916,-1.549647 -3.376919,-5.590382 -3.194131,-6.564008 1.792431,1.401706 2.258609,7.912435 5.20657,4.351506 1.939068,-1.914021 -0.451247,-3.937602 -1.42495,-4.970991 1.354334,0.548713 4.904212,3.838537 3.422554,0.305407 C 67.610092,26.202894 63.376369,19.822779 57.507812,15.638671 56.8353,16.79901 53.98718,18.649029 55.492875,16.538382 54.473892,15.630504 53.01215,15.349145 51.720703,15.029297 Z m -25.175781,0.333984 c -2.093729,0.377984 -0.227855,1.154472 0.461341,0.198276 z m 2.53125,0.0957 c -1.656386,-0.229553 -3.091878,1.886831 -0.631446,1.557241 1.250017,0.428947 -0.613478,1.531961 0.940229,1.040614 -0.460991,1.517056 -2.923592,1.156555 -0.530059,1.948119 0.928264,1.09652 1.316997,-0.393761 2.002271,0.117385 -0.578124,-1.701841 0.198316,-1.487712 1.328872,-1.17603 -0.688623,-1.506416 -1.014641,-3.275356 -3.109867,-3.487329 z m 13.4375,1.181641 c -3.015709,0.08911 -0.140651,2.564885 1.070599,0.721667 0.286462,-0.616933 -0.695997,-0.685726 -1.070599,-0.721667 z m 10.470703,0.191406 c -0.02603,1.739248 1.062334,2.75463 2.489042,2.671003 -1.470221,0.456305 0.427447,2.026288 -1.623988,2.481856 -1.340396,0.773896 -2.639781,-0.48332 -0.888839,-1.055755 0.435776,-1.339301 -2.171026,-3.338377 0.02378,-4.097104 z m -26.878906,2.429688 c -2.906437,0.929195 1.634668,1.17769 0,0 z m 20.822265,1.177734 c 0.018,1.296651 1.034443,4.622552 2.123577,2.503164 -0.44378,-1.026362 -1.431933,-1.662259 -2.123577,-2.503164 z m -0.830078,1.064453 c -2.500287,2.201581 2.263563,1.264665 0,0 z m 17.453125,3.402344 c 0.05066,1.63965 3.136175,3.03848 1.624898,4.606374 -0.55531,-1.39396 -3.174111,-3.078757 -1.624898,-4.606374 z m -3.289062,0.142578 c 0.994893,0.598143 2.871596,3.347662 0.333767,2.402028 -2.857697,1.052043 -2.503828,-3.230796 -0.462914,-1.583261 l 0.06003,-0.326262 z m -28.105469,1.0625 c -3.027842,1.678505 3.907813,2.344446 0,0 z m 20.365234,0.941406 c -0.256029,2.055991 1.114989,1.610192 0,0 z m 8.085938,2.892578 c -0.557051,0.605624 0.887434,0.05963 0,0 z m -38.828125,8.316407 c -2.617158,0.368052 4.533323,2.119599 1.243383,0.326531 -0.377801,-0.210609 -0.807837,-0.340704 -1.243383,-0.326531 z m 3.044922,1.234375 c -2.104161,1.960787 4.029741,0.643533 0,0 z m 2.375,0.78125 c -1.010255,0.484196 0.960628,0.350933 0,0 z m -3.794922,4.208984 c -2.084822,1.236493 -1.380023,4.44479 -1.809182,6.274537 0.947488,3.453743 5.1732,4.457888 5.867565,7.977858 0.931761,3.17337 2.237147,6.919181 5.510955,8.318933 1.462546,-0.193227 -2.322626,-1.611915 -1.462122,-3.232203 0.164724,-2.293425 2.553515,-3.400969 2.79813,-5.539715 2.479665,-1.024477 2.228362,-3.763432 3.487671,-5.558262 -0.136676,-3.020646 -5.163583,-2.296531 -6.169538,-3.598611 -0.184069,-2.203945 -3.800131,-2.766483 -5.209258,-3.891277 -0.952111,-0.540844 -2.904821,0.128326 -2.926327,-0.139932 -0.0293,-0.203776 -0.0586,-0.407552 -0.08789,-0.611328 z m 41.228515,5.773438 c -2.080788,0.31237 -3.019338,6.248465 -0.951013,2.718234 0.471477,-0.833821 0.956269,-1.734484 0.951013,-2.718234 z m -29.630859,15.86719 c -0.715804,0.591497 0.948717,0.196071 0,0 z"
       style="fill:#006731;fill-opacity:1;stroke-width:1.00157;stroke-linecap:round;stroke-linejoin:round;stroke-opacity:0.2"
       id="path3762" />
    <path
       d="M 55.615234 14.384766 A 30 30 0 0 1 60 30 A 30 30 0 0 1 30 60 A 30 30 0 0 1 14.384766 55.615234 A 30 30 0 0 0 40 70 A 30 30 0 0 0 70 40 A 30 30 0 0 0 55.615234 14.384766 z "
       style="fill:#000000;fill-opacity:0.2;stroke-width:1.00157;stroke-linecap:round;stroke-linejoin:round;stroke-opacity:0.2"
       id="circle3784" />
  </g>
</svg>
