<?xml version="1.0" encoding="UTF-8" standalone="no"?>
<svg
   xmlns:dc="http://purl.org/dc/elements/1.1/"
   xmlns:cc="http://creativecommons.org/ns#"
   xmlns:rdf="http://www.w3.org/1999/02/22-rdf-syntax-ns#"
   xmlns:svg="http://www.w3.org/2000/svg"
   xmlns="http://www.w3.org/2000/svg"
   xmlns:sodipodi="http://sodipodi.sourceforge.net/DTD/sodipodi-0.dtd"
   xmlns:inkscape="http://www.inkscape.org/namespaces/inkscape"
   inkscape:export-ydpi="96"
   inkscape:export-xdpi="96"
   inkscape:export-filename="/home/raster/C/th-efl/th/img/ic/kill-015.png"
   inkscape:version="1.0 (4035a4fb49, 2020-05-01)"
   sodipodi:docname="kill.svg"
   viewBox="0 0 15 15"
   height="15"
   width="15"
   id="svg2"
   version="1.1">
  <metadata
     id="metadata8">
    <rdf:RDF>
      <cc:Work
         rdf:about="">
        <dc:format>image/svg+xml</dc:format>
        <dc:type
           rdf:resource="http://purl.org/dc/dcmitype/StillImage" />
        <dc:title></dc:title>
      </cc:Work>
    </rdf:RDF>
  </metadata>
  <defs
     id="defs6" />
  <sodipodi:namedview
     inkscape:snap-bbox-edge-midpoints="true"
     inkscape:bbox-nodes="true"
     inkscape:bbox-paths="true"
     inkscape:snap-bbox="true"
     inkscape:current-layer="g10"
     inkscape:window-maximized="0"
     inkscape:window-y="0"
     inkscape:window-x="342"
     inkscape:cy="7.5"
     inkscape:cx="7.5"
     inkscape:zoom="80.533333"
     showgrid="true"
     id="namedview4"
     inkscape:window-height="1372"
     inkscape:window-width="1920"
     inkscape:pageshadow="2"
     inkscape:pageopacity="0"
     guidetolerance="10"
     gridtolerance="10"
     objecttolerance="10"
     borderopacity="1"
     bordercolor="#666666"
     pagecolor="#404040"
     inkscape:document-rotation="0">
    <inkscape:grid
       spacingy="0.5"
       spacingx="0.5"
       id="grid837"
       type="xygrid" />
  </sodipodi:namedview>
  <g
     id="g10"
     inkscape:label="Image"
     inkscape:groupmode="layer">
    <path
       d="M 7.4394531 2 A 4 4 0 0 0 3.5 6 A 4 4 0 0 0 7.5 10 A 4 4 0 0 0 11.5 6 A 4 4 0 0 0 7.5 2 A 4 4 0 0 0 7.4394531 2 z M 5.5 4.5 A 1 1 0 0 1 6.5 5.5 A 1 1 0 0 1 5.5 6.5 A 1 1 0 0 1 4.5 5.5 A 1 1 0 0 1 5.5 4.5 z M 9.5 4.5 A 1 1 0 0 1 10.5 5.5 A 1 1 0 0 1 9.5 6.5 A 1 1 0 0 1 8.5 5.5 A 1 1 0 0 1 9.5 4.5 z "
       style="fill:#ffffff;fill-opacity:1;stroke-width:2.66666;stroke-linecap:round;stroke-linejoin:round"
       id="path1722" />
    <rect
       y="9"
       x="5.5"
       height="1.5"
       width="4"
       id="rect1724"
       style="fill:#ffffff;fill-opacity:1;stroke-width:1.54919;stroke-linecap:round;stroke-linejoin:round" />
    <path
       sodipodi:nodetypes="cczcczczcczccc"
       id="path1726"
       d="m 5.5,10 v 0.5 c 0,0 0,0.5 0.5,0.5 0.5,0 0.5,-0.5 0.5,-0.5 V 11 c 0,0 0,0.5 0.5,0.5 0.5,0 0.5,-0.5 0.5,-0.5 0,0 0,0.5 0.5,0.5 0.5,0 0.5,-0.5 0.5,-0.5 v -0.5 c 0,0 0,0.5 0.5,0.5 0.5,0 0.5,-0.5 0.5,-0.5 V 10 Z"
       style="fill:#ffffff;fill-opacity:1;fill-rule:evenodd;stroke:none;stroke-width:1px;stroke-linecap:butt;stroke-linejoin:miter;stroke-opacity:1" />
    <path
       d="m 3.8491255,12.442973 a 0.5,0.5 0 0 0 -0.3422339,0.60934 0.5,0.5 0 0 0 0.601053,0.356586 0.5,0.5 0 0 0 -0.3422339,0.60934 0.5,0.5 0 0 0 0.6123724,0.353553 0.5,0.5 0 0 0 0.3535534,-0.612373 l 5.7955545,-1.552914 a 0.5,0.5 0 0 0 0.612373,0.353554 0.5,0.5 0 0 0 0.353553,-0.612373 0.5,0.5 0 0 0 -0.601052,-0.356586 0.5,0.5 0 0 0 0.342233,-0.60934 0.5,0.5 0 0 0 -0.612372,-0.353553 0.5,0.5 0 0 0 -0.353554,0.612372 L 4.4728174,12.793494 A 0.5,0.5 0 0 0 3.860445,12.43994 a 0.5,0.5 0 0 0 -0.011319,0.003 z"
       style="fill:#ffffff;fill-opacity:1;stroke:none;stroke-width:2;stroke-linecap:round;stroke-linejoin:round"
       id="rect1741" />
    <path
       id="path1757"
       style="fill:#ffffff;fill-opacity:1;stroke:none;stroke-width:2;stroke-linecap:round;stroke-linejoin:round"
       d="m 11.150848,12.442973 a -0.5,0.5 0 0 1 0.342233,0.60934 -0.5,0.5 0 0 1 -0.601053,0.356586 -0.5,0.5 0 0 1 0.342234,0.60934 -0.5,0.5 0 0 1 -0.612372,0.353553 -0.5,0.5 0 0 1 -0.353553,-0.612373 L 4.472782,12.206505 A -0.5,0.5 0 0 1 3.860409,12.560059 -0.5,0.5 0 0 1 3.506856,11.947686 -0.5,0.5 0 0 1 4.107908,11.5911 -0.5,0.5 0 0 1 3.765675,10.98176 -0.5,0.5 0 0 1 4.378047,10.628207 -0.5,0.5 0 0 1 4.731601,11.240579 l 5.795555,1.552915 a -0.5,0.5 0 0 1 0.612372,-0.353554 -0.5,0.5 0 0 1 0.01132,0.003 z" />
  </g>
</svg>
