<?xml version="1.0" encoding="UTF-8" standalone="no"?>
<svg
   xmlns:dc="http://purl.org/dc/elements/1.1/"
   xmlns:cc="http://creativecommons.org/ns#"
   xmlns:rdf="http://www.w3.org/1999/02/22-rdf-syntax-ns#"
   xmlns:svg="http://www.w3.org/2000/svg"
   xmlns="http://www.w3.org/2000/svg"
   xmlns:sodipodi="http://sodipodi.sourceforge.net/DTD/sodipodi-0.dtd"
   xmlns:inkscape="http://www.inkscape.org/namespaces/inkscape"
   inkscape:export-ydpi="48"
   inkscape:export-xdpi="48"
   inkscape:export-filename="/home/raster/C/th-efl/th/img/ic/lang-lock-040.png"
   inkscape:version="1.0 (4035a4fb49, 2020-05-01)"
   sodipodi:docname="lang-lock.svg"
   viewBox="0 0 80 80"
   height="80"
   width="80"
   id="svg2"
   version="1.1">
  <metadata
     id="metadata8">
    <rdf:RDF>
      <cc:Work
         rdf:about="">
        <dc:format>image/svg+xml</dc:format>
        <dc:type
           rdf:resource="http://purl.org/dc/dcmitype/StillImage" />
        <dc:title></dc:title>
      </cc:Work>
    </rdf:RDF>
  </metadata>
  <defs
     id="defs6">
    <rect
       id="rect878"
       height="30"
       width="40"
       y="20"
       x="20" />
    <rect
       id="rect872"
       height="30"
       width="40"
       y="50"
       x="20" />
    <rect
       id="rect864"
       height="30"
       width="40"
       y="20"
       x="20" />
    <rect
       id="rect858"
       height="30"
       width="40"
       y="20"
       x="20" />
    <rect
       id="rect852"
       height="30"
       width="40"
       y="20"
       x="20" />
  </defs>
  <sodipodi:namedview
     inkscape:snap-nodes="true"
     inkscape:snap-others="false"
     inkscape:bbox-nodes="true"
     inkscape:snap-bbox="true"
     showguides="false"
     inkscape:current-layer="text876"
     inkscape:window-maximized="1"
     inkscape:window-y="0"
     inkscape:window-x="0"
     inkscape:cy="40.240385"
     inkscape:cx="40"
     inkscape:zoom="10.4"
     showgrid="true"
     id="namedview4"
     inkscape:window-height="1017"
     inkscape:window-width="1920"
     inkscape:pageshadow="2"
     inkscape:pageopacity="0"
     guidetolerance="10"
     gridtolerance="10"
     objecttolerance="10"
     borderopacity="1"
     bordercolor="#666666"
     pagecolor="#404040"
     inkscape:document-rotation="0">
    <inkscape:grid
       id="grid837"
       type="xygrid" />
  </sodipodi:namedview>
  <g
     id="g10"
     inkscape:label="Image"
     inkscape:groupmode="layer">
    <text
       style="font-style:normal;font-variant:normal;font-weight:normal;font-stretch:normal;font-size:24px;line-height:120px;font-family:Quicksand;-inkscape-font-specification:Quicksand;letter-spacing:0px;word-spacing:0px;white-space:pre;shape-inside:url(#rect852);fill:#000000;fill-opacity:1;stroke:none;stroke-width:1px;stroke-linecap:butt;stroke-linejoin:miter;stroke-opacity:1;"
       id="text850"
       xml:space="preserve" />
    <text
       style="font-style:normal;font-weight:normal;font-size:28px;line-height:140px;font-family:Sans;letter-spacing:0px;word-spacing:0px;white-space:pre;shape-inside:url(#rect858);fill:#000000;fill-opacity:1;stroke:none;stroke-width:1px;stroke-linecap:butt;stroke-linejoin:miter;stroke-opacity:1;"
       id="text856"
       xml:space="preserve"><tspan
         style="visibility:hidden"
         x="20"
         y="127.27344"><tspan
           dx="0 28 28 26.605469 17.814453 26.605469 23.460938 23.460938 23.460938 17.814453 17.814453 17.814453"
           style="font-size:28px">@@%$%^^^4445</tspan></tspan></text>
    <text
       style="font-style:normal;font-weight:normal;font-size:24px;line-height:120px;font-family:Sans;letter-spacing:0px;word-spacing:0px;white-space:pre;shape-inside:url(#rect864);fill:#000000;fill-opacity:1;stroke:none;stroke-width:1px;stroke-linecap:butt;stroke-linejoin:miter;stroke-opacity:1;"
       id="text862"
       xml:space="preserve"><tspan
         style="visibility:hidden"
         x="20"
         y="117.27344"><tspan
           dx="0 17.814453 17.814453 28"
           style="font-size:28px">22@!</tspan></tspan></text>
    <text
       style="fill:black;stroke:none;stroke-opacity:1;stroke-width:1px;stroke-linejoin:miter;stroke-linecap:butt;fill-opacity:1;font-family:Sans;font-style:normal;font-weight:normal;font-size:5px;line-height:25px;letter-spacing:0px;word-spacing:0px;white-space:pre;shape-inside:url(#rect872);"
       id="text870"
       xml:space="preserve" />
    <g
       transform="translate(-0.280035,2.562039)"
       style="font-style:normal;font-variant:normal;font-weight:normal;font-stretch:normal;font-size:20px;line-height:20.8333px;font-family:Syncopate;-inkscape-font-specification:Syncopate;letter-spacing:0px;word-spacing:0px;white-space:pre;shape-inside:url(#rect878);fill:#000000;fill-opacity:1;stroke:none;stroke-width:1px;stroke-linecap:butt;stroke-linejoin:miter;stroke-opacity:1"
       id="text876"
       aria-label="!@#?">
      <path
         sodipodi:nodetypes="cccccccscccccsccc"
         d="m 40.229254,7.449715 c -8.142716,0.05089 -14.748918,6.618899 -14.863281,14.777343 h -0.05859 v 10.199219 h 4.972652 v -10 c 0.108296,-5.43579 4.543612,-9.988336 9.980469,-10 h 0.01953 c 5.522847,0 10,4.477153 10,10 v 10 h 5 v -9.921875 c 4.9e-5,-0.02213 4.9e-5,-0.04427 0,-0.06641 v -0.01172 C 55.273635,14.152716 48.578011,7.4492 40.321051,7.449715 c -0.0306,-9.4e-5 -0.0612,-9.4e-5 -0.0918,0 z"
         style="fill:#ffffff;fill-opacity:1;stroke-width:4.79009;stroke-linecap:round;stroke-linejoin:round"
         id="circle1049" />
      <path
         d="m 40.254644,12.426277 a 12,10 0 0 0 -11.974609,10 12,10 0 0 0 0,0.02148 v 9.97852 h 2 v -4.472656 -5.527344 c 0.108257,-5.433821 4.540448,-9.985052 9.974609,-10 z"
         style="fill:#c8c8c8;fill-opacity:1;stroke-width:4.00091;stroke-linecap:round;stroke-linejoin:round"
         id="path1077" />
      <path
         d="m 42.053473,7.564949 a 13,15 0 0 1 11.226562,14.861328 v 10 h 2 v -9.921875 c 4.9e-5,-0.02213 4.9e-5,-0.04427 0,-0.06641 v -0.01172 C 55.27409,14.741205 49.492729,8.426084 42.053473,7.564949 Z"
         style="fill:#c8c8c8;fill-opacity:1;stroke-width:4.79009;stroke-linecap:round;stroke-linejoin:round"
         id="path1091" />
      <rect
         y="32.426277"
         x="20.280035"
         height="35"
         width="40"
         id="rect1043"
         style="fill:#dec86e;fill-opacity:1;stroke-width:4.28319;stroke-linecap:round;stroke-linejoin:round" />
      <rect
         style="fill:#eec944;fill-opacity:1;stroke-width:2.14159;stroke-linecap:round;stroke-linejoin:round"
         id="rect1111"
         width="10"
         height="35"
         x="50.280033"
         y="32.426277" />
      <g
         transform="matrix(0.48081496,0,0,0.48081496,20.85374,19.282869)"
         id="g1688">
        <g
           transform="translate(0.00257131,27.33866)"
           id="g1725">
          <path
             transform="translate(0.280035,-2.562039)"
             d="M 39.824219,9.9472656 A 30.00131,25.067757 0 0 0 9.9257812,35.015625 30.00131,25.067757 0 0 0 29.083984,58.388672 C 36.259269,63.521665 49.940898,69.985388 70.320312,69.927734 66.020996,68.36942 55.408025,62.847471 51.490234,58.146484 a 30.00131,25.067757 0 0 0 18.4375,-23.130859 30.00131,25.067757 0 0 0 -30,-25.0683594 30.00131,25.067757 0 0 0 -0.103515,0 z"
             style="fill:#ffffff;fill-opacity:1;stroke:#202020;stroke-width:2;stroke-linecap:round;stroke-linejoin:round;stroke-miterlimit:4;stroke-dasharray:none;stroke-opacity:1"
             id="path844" />
          <path
             d="m 22.640625,27.820312 0.199219,10.320313 h 1.519531 L 24.599609,27.820312 Z M 54.359375,28 54,29.539062 c 1.173333,0.106667 2.060156,0.353568 2.660156,0.740235 0.6,0.373333 0.900391,0.867135 0.900391,1.480469 0,0.6 -0.386823,1.25427 -1.160156,1.960937 -0.28,0.266667 -0.559844,0.546511 -0.839844,0.839844 -0.773333,0.786667 -1.160156,1.733177 -1.160156,2.839844 0,0.173333 0.01239,0.539609 0.03906,1.099609 h 1.541016 l 0.03906,-1.179688 C 56.099531,36.413646 56.492552,35.64 57.199219,35 l 0.919922,-0.800781 c 0.8,-0.72 1.201171,-1.598672 1.201171,-2.638672 0,-0.973333 -0.44651,-1.794271 -1.339843,-2.460938 C 57.087135,28.432943 55.879375,28.066667 54.359375,28 Z m -20.21875,0.220703 c -2.093333,0 -3.834036,0.726354 -5.220703,2.179688 -1.373333,1.44 -2.060547,3.279531 -2.060547,5.519531 0,2.226667 0.621328,3.932474 1.861328,5.11914 1.253333,1.186667 2.798672,1.78125 4.638672,1.78125 1.44,0 3.106667,-0.434114 5,-1.300781 l -0.558594,-1.259765 c -1.506666,0.72 -2.953177,1.080078 -4.339843,1.080078 -1.373334,0 -2.533803,-0.467058 -3.480469,-1.400391 -0.933334,-0.946667 -1.400391,-2.333489 -1.400391,-4.160156 0,-1.826667 0.520547,-3.30612 1.560547,-4.439453 1.053333,-1.146667 2.386667,-1.720703 4,-1.720703 1.626667,0 2.805729,0.421718 3.539063,1.261718 0.746666,0.826667 1.121093,1.972787 1.121093,3.439453 0,2.466667 -0.526745,3.699219 -1.580078,3.699219 -0.56,0 -0.839844,-0.345729 -0.839844,-1.039062 0,-0.266667 0.0062,-0.486823 0.01953,-0.660157 l 0.359375,-4.060546 c -0.96,-0.413334 -1.820079,-0.619141 -2.580078,-0.619141 -1.173334,0 -2.152787,0.425964 -2.939454,1.279297 -0.773333,0.853333 -1.160156,1.960312 -1.160156,3.320312 0,0.973334 0.267448,1.732631 0.800781,2.279297 0.533334,0.546667 1.218594,0.820313 2.058594,0.820313 0.453333,0 0.873099,-0.106979 1.259766,-0.320313 0.386666,-0.226666 0.693255,-0.527057 0.919922,-0.90039 0.306666,0.8 0.954739,1.201171 1.941406,1.201171 2.253333,0 3.378906,-1.660468 3.378906,-4.980468 0,-1.893334 -0.526745,-3.387136 -1.580078,-4.480469 -1.04,-1.093333 -2.612083,-1.638672 -4.71875,-1.638672 z M 45.419922,28.460938 44.699219,32.5 h -2.558594 v 1.539062 h 2.279297 l -0.439453,2.441407 h -1.919922 v 1.539062 h 1.660156 L 43,42.099609 h 1.580078 l 0.740234,-4.080078 h 2.279297 l -0.71875,4.080078 h 1.558594 l 0.759766,-4.080078 h 2.919922 v -1.539062 h -2.658203 l 0.439453,-2.441407 h 2.298828 V 32.5 h -2.039063 l 0.720703,-4.039062 H 49.320312 L 48.580078,32.5 h -2.300781 l 0.740234,-4.039062 z M 34.220703,32.880859 C 34.500703,32.880859 34.76,32.92 35,33 l -0.259766,3.099609 c -0.05333,0.573334 -0.226198,1.046589 -0.519531,1.419922 -0.28,0.36 -0.640078,0.541016 -1.080078,0.541016 -0.92,0 -1.380859,-0.660469 -1.380859,-1.980469 0,-0.92 0.234505,-1.679297 0.701172,-2.279297 0.466666,-0.613333 1.053098,-0.919922 1.759765,-0.919922 z m 11.818359,1.158203 h 2.261719 l -0.419922,2.441407 h -2.28125 z m -22.419921,5.441407 c -0.333334,0 -0.619375,0.119375 -0.859375,0.359375 -0.24,0.226666 -0.359375,0.512708 -0.359375,0.859375 0,0.333333 0.119375,0.627526 0.359375,0.880859 0.24,0.24 0.526041,0.359375 0.859375,0.359375 0.333333,0 0.621328,-0.119375 0.861328,-0.359375 0.24,-0.253333 0.359375,-0.547526 0.359375,-0.880859 0,-0.346667 -0.119375,-0.632709 -0.359375,-0.859375 -0.24,-0.24 -0.527995,-0.359375 -0.861328,-0.359375 z m 31.701171,0.138672 c -0.333333,0 -0.619374,0.121328 -0.859374,0.361328 -0.240001,0.226666 -0.361329,0.512708 -0.361329,0.859375 0,0.333333 0.121328,0.627526 0.361329,0.880859 0.24,0.24 0.526041,0.359375 0.859374,0.359375 0.333334,0 0.619375,-0.119375 0.859376,-0.359375 0.239999,-0.253333 0.359374,-0.547526 0.359374,-0.880859 0,-0.346667 -0.119374,-0.632709 -0.359374,-0.859375 -0.240001,-0.24 -0.526042,-0.361328 -0.859376,-0.361328 z"
             style="font-style:normal;font-variant:normal;font-weight:normal;font-stretch:normal;font-size:20px;font-family:Rambla;-inkscape-font-specification:Rambla;text-align:center;text-anchor:middle;fill:#202020;fill-opacity:1"
             id="path882"
             transform="translate(0.280035,-2.562039)" />
        </g>
      </g>
      <rect
         y="32.437962"
         x="50.280033"
         height="35"
         width="10"
         id="rect1111-2"
         style="font-style:normal;font-variant:normal;font-weight:normal;font-stretch:normal;font-size:20px;line-height:20.8333px;font-family:Syncopate;-inkscape-font-specification:Syncopate;letter-spacing:0px;word-spacing:0px;white-space:pre;shape-inside:url(#rect878);fill:#000000;fill-opacity:0.12041;stroke:none;stroke-width:2.14159;stroke-linecap:round;stroke-linejoin:round;stroke-opacity:1" />
      <path
         sodipodi:nodetypes="czcc"
         id="path1107"
         d="m 20.280035,67.426277 c 0,0 0,-2 20,-2 20,0 20,2 20,2 z"
         style="fill:#a28a25;fill-opacity:1;stroke-width:4;stroke-linecap:round;stroke-linejoin:round" />
      <path
         style="fill:#efe3b5;fill-opacity:1;stroke-width:4;stroke-linecap:round;stroke-linejoin:round"
         d="m 20.280035,32.426277 c 0,0 0,2 20,2 20,0 20,-2 20,-2 z"
         id="path1109"
         sodipodi:nodetypes="czcc" />
    </g>
  </g>
</svg>
