<?xml version="1.0" encoding="UTF-8" standalone="no"?>
<svg
   xmlns:dc="http://purl.org/dc/elements/1.1/"
   xmlns:cc="http://creativecommons.org/ns#"
   xmlns:rdf="http://www.w3.org/1999/02/22-rdf-syntax-ns#"
   xmlns:svg="http://www.w3.org/2000/svg"
   xmlns="http://www.w3.org/2000/svg"
   xmlns:xlink="http://www.w3.org/1999/xlink"
   xmlns:sodipodi="http://sodipodi.sourceforge.net/DTD/sodipodi-0.dtd"
   xmlns:inkscape="http://www.inkscape.org/namespaces/inkscape"
   inkscape:export-ydpi="48"
   inkscape:export-xdpi="48"
   inkscape:export-filename="/home/raster/C/th-efl/th/img/ic/link-plus-040.png"
   inkscape:version="1.0.1 (3bc2e813f5, 2020-09-07)"
   sodipodi:docname="link-plus.svg"
   viewBox="0 0 80 80"
   height="80"
   width="80"
   id="svg2"
   version="1.1">
  <metadata
     id="metadata8">
    <rdf:RDF>
      <cc:Work
         rdf:about="">
        <dc:format>image/svg+xml</dc:format>
        <dc:type
           rdf:resource="http://purl.org/dc/dcmitype/StillImage" />
        <dc:title></dc:title>
      </cc:Work>
    </rdf:RDF>
  </metadata>
  <defs
     id="defs6">
    <linearGradient
       inkscape:collect="always"
       id="linearGradient8104">
      <stop
         style="stop-color:#000000;stop-opacity:0.33000001"
         offset="0"
         id="stop8100" />
      <stop
         style="stop-color:#000000;stop-opacity:0;"
         offset="1"
         id="stop8102" />
    </linearGradient>
    <linearGradient
       inkscape:collect="always"
       id="linearGradient8096">
      <stop
         style="stop-color:#a2c5e4;stop-opacity:1;"
         offset="0"
         id="stop8092" />
      <stop
         style="stop-color:#a2c5e4;stop-opacity:0;"
         offset="1"
         id="stop8094" />
    </linearGradient>
    <linearGradient
       inkscape:collect="always"
       id="linearGradient8088">
      <stop
         style="stop-color:#ffffff;stop-opacity:1;"
         offset="0"
         id="stop8084" />
      <stop
         style="stop-color:#ffffff;stop-opacity:0;"
         offset="1"
         id="stop8086" />
    </linearGradient>
    <linearGradient
       inkscape:collect="always"
       id="linearGradient8080">
      <stop
         style="stop-color:#a2c5e4;stop-opacity:1;"
         offset="0"
         id="stop8076" />
      <stop
         style="stop-color:#a2c5e4;stop-opacity:0;"
         offset="1"
         id="stop8078" />
    </linearGradient>
    <linearGradient
       inkscape:collect="always"
       id="linearGradient8072">
      <stop
         style="stop-color:#ffffff;stop-opacity:1;"
         offset="0"
         id="stop8068" />
      <stop
         style="stop-color:#ffffff;stop-opacity:0;"
         offset="1"
         id="stop8070" />
    </linearGradient>
    <linearGradient
       inkscape:collect="always"
       id="linearGradient8064">
      <stop
         style="stop-color:#000000;stop-opacity:0.33000001"
         offset="0"
         id="stop8060" />
      <stop
         style="stop-color:#000000;stop-opacity:0;"
         offset="1"
         id="stop8062" />
    </linearGradient>
    <linearGradient
       inkscape:collect="always"
       xlink:href="#linearGradient8064"
       id="linearGradient8066"
       x1="8"
       y1="37"
       x2="0"
       y2="37"
       gradientUnits="userSpaceOnUse" />
    <linearGradient
       inkscape:collect="always"
       xlink:href="#linearGradient8072"
       id="linearGradient8074"
       x1="8"
       y1="35"
       x2="0"
       y2="35"
       gradientUnits="userSpaceOnUse" />
    <linearGradient
       inkscape:collect="always"
       xlink:href="#linearGradient8080"
       id="linearGradient8082"
       x1="8"
       y1="36"
       x2="0"
       y2="36"
       gradientUnits="userSpaceOnUse" />
    <linearGradient
       inkscape:collect="always"
       xlink:href="#linearGradient8088"
       id="linearGradient8090"
       x1="72"
       y1="35"
       x2="80"
       y2="35"
       gradientUnits="userSpaceOnUse" />
    <linearGradient
       inkscape:collect="always"
       xlink:href="#linearGradient8096"
       id="linearGradient8098"
       x1="72"
       y1="36"
       x2="80"
       y2="36"
       gradientUnits="userSpaceOnUse" />
    <linearGradient
       inkscape:collect="always"
       xlink:href="#linearGradient8104"
       id="linearGradient8106"
       x1="72"
       y1="38"
       x2="80"
       y2="38"
       gradientUnits="userSpaceOnUse" />
  </defs>
  <sodipodi:namedview
     inkscape:snap-nodes="true"
     inkscape:snap-others="false"
     inkscape:bbox-nodes="true"
     inkscape:snap-bbox="true"
     showguides="false"
     inkscape:current-layer="g10"
     inkscape:window-maximized="1"
     inkscape:window-y="0"
     inkscape:window-x="0"
     inkscape:cy="39.952038"
     inkscape:cx="40"
     inkscape:zoom="10.425"
     showgrid="true"
     id="namedview4"
     inkscape:window-height="1017"
     inkscape:window-width="1920"
     inkscape:pageshadow="2"
     inkscape:pageopacity="0"
     guidetolerance="10"
     gridtolerance="10"
     objecttolerance="10"
     borderopacity="1"
     bordercolor="#666666"
     pagecolor="#404040"
     inkscape:document-rotation="0">
    <inkscape:grid
       id="grid837"
       type="xygrid"
       empspacing="4" />
  </sodipodi:namedview>
  <g
     id="g10"
     inkscape:label="Image"
     inkscape:groupmode="layer">
    <g
       id="g8001">
      <path
         id="path7874"
         style="fill:#a2c5e4;stroke-width:3.77953;fill-opacity:1"
         d="m 32,20.000115 a 16,16 0 0 0 -16,16 16,16 0 0 0 16,16 h 16 a 16,16 0 0 0 16,-16 16,16 0 0 0 -16,-16 z m 0,8 h 16 a 8,8 0 0 1 8,8 8,8 0 0 1 -8,8 H 32 a 8,8 0 0 1 -8,-8 8,8 0 0 1 8,-8 z" />
      <path
         style="fill:none;fill-rule:evenodd;stroke:#ffffff;stroke-width:2;stroke-linecap:round;stroke-linejoin:round;stroke-miterlimit:4;stroke-dasharray:none;stroke-opacity:1"
         d="m 30,47 h 16 c 7,0 13,-5 13,-12"
         id="path7972"
         sodipodi:nodetypes="ccc" />
      <path
         style="fill:none;fill-rule:evenodd;stroke:#ffffff;stroke-width:2;stroke-linecap:round;stroke-linejoin:round;stroke-opacity:1;stroke-miterlimit:4;stroke-dasharray:none"
         d="M 48,23 H 32 c -7,0 -13,5 -13,12"
         id="path7970"
         sodipodi:nodetypes="ccc" />
      <path
         id="path7919"
         style="fill:#000000;fill-opacity:0.40000001;stroke-width:3.77953"
         d="M 30.990234 26 C 26.023486 26.0054 21.999997 30.033249 22 35 C 22 39.970563 26.029437 44 31 44 C 31.156929 43.999984 31.31139 43.990493 31.466797 43.982422 A 8 8 0 0 1 24 36 A 8 8 0 0 1 32 28 L 48 28 A 8 8 0 0 1 55.978516 35.427734 C 55.985245 35.284958 56 35.144442 56 35 C 56 30.029437 51.970563 26 47 26 C 46.665874 26.000303 46.332024 26.019211 46 26.056641 L 46 26 L 31 26 L 30.990234 26 z " />
      <path
         id="path7941"
         style="fill:#000000;fill-opacity:0.33000001;stroke-width:3.77953"
         d="M 58.273438,23.736328 C 60.680726,26.614725 61.999774,30.24764 62,34 62,42.836556 54.836556,50 46,50 H 30 C 26.243065,49.999328 22.606176,48.676634 19.726562,46.263672 22.766375,49.89896 27.261246,51.999762 32,52 h 16 c 8.836556,0 16,-7.163444 16,-16 -7.09e-4,-4.733742 -2.097536,-9.224184 -5.726562,-12.263672 z"
         sodipodi:nodetypes="ccscccscc" />
    </g>
    <path
       id="path7899"
       style="fill:url(#linearGradient8098);fill-opacity:1;stroke-width:3.77953"
       d="M 51.939453,32 C 49.753995,32.033085 47.99975,33.814292 48,36 c 0,2.209139 1.790861,4 4,4 0.02018,1.53e-4 0.04037,1.53e-4 0.06055,0 H 80 V 32 H 52 c -0.02018,-1.53e-4 -0.04037,-1.53e-4 -0.06055,0 z"
       sodipodi:nodetypes="cccccccc" />
    <path
       id="path7951"
       style="fill:url(#linearGradient8106);fill-opacity:1;stroke-width:3.77953"
       d="M 48.347656,37.634766 C 48.992285,39.074325 50.4227,40.000652 52,40 c 0.02018,1.53e-4 0.04037,1.53e-4 0.06055,0 H 80 V 38 H 50.060547 c -0.02018,1.53e-4 -0.04037,1.53e-4 -0.06055,0 -0.590963,0 -1.147521,-0.135199 -1.652344,-0.365234 z"
       sodipodi:nodetypes="cccccccc" />
    <path
       id="path7956"
       style="fill:url(#linearGradient8090);fill-opacity:1;stroke-width:3.77953"
       d="m 51,34 c -0.552285,0 -1,0.447715 -1,1 0,0.552285 0.447715,1 1,1 h 29 v -2 z"
       sodipodi:nodetypes="sssccs" />
    <path
       id="path7909"
       style="fill:url(#linearGradient8082);fill-opacity:1;stroke-width:3.77953"
       d="m 0,32 v 8 h 28 c 2.209139,0 4,-1.790861 4,-4 0,-2.209139 -1.790861,-4 -4,-4 h -0.06055 z"
       sodipodi:nodetypes="ccssscc" />
    <path
       id="path7946"
       style="fill:url(#linearGradient8066);fill-opacity:1;stroke-width:3.77953"
       d="M 29.646484,32.355469 C 29.879555,32.872392 30.000057,33.432962 30,34 c 0,2.209139 -1.790861,4 -4,4 H 0 v 2 h 28 c 2.209139,0 4,-1.790861 4,-4 -3.5e-4,-1.571723 -0.921119,-2.997577 -2.353516,-3.644531 z"
       sodipodi:nodetypes="ccsccscc" />
    <path
       id="rect7960"
       style="fill:url(#linearGradient8074);fill-opacity:1;stroke-width:3.8831"
       d="m 0,34 v 2 h 27 c 0.552285,0 1,-0.447715 1,-1 0,-0.552285 -0.447715,-1 -1,-1 z"
       sodipodi:nodetypes="ccsssc" />
    <path
       id="path7974"
       style="fill:#000000;fill-opacity:0.33;fill-rule:evenodd;stroke:none;stroke-width:1px;stroke-linecap:butt;stroke-linejoin:miter;stroke-opacity:1"
       d="M 16.507812 40 A 16 16 0 0 0 18.236328 44.15625 C 19.084316 41.052623 22.142175 40.273022 25.115234 40.076172 A 8 8 0 0 1 25.070312 40 L 16.507812 40 z " />
    <path
       id="path7980"
       style="fill:#000000;fill-opacity:0.33;fill-rule:evenodd;stroke:none;stroke-width:1px;stroke-linecap:butt;stroke-linejoin:miter;stroke-opacity:1"
       d="M 54.927734 40 A 8 8 0 0 1 54.773438 40.257812 C 57.307573 40.691447 60.228874 41.713529 62.095703 43.566406 A 16 16 0 0 0 63.492188 40 L 54.927734 40 z " />
    <g
       id="g7854">
      <rect
         style="fill:#ffffff;stroke-width:5.71411"
         id="rect7848"
         width="8"
         height="32"
         x="52"
         y="40" />
      <rect
         style="fill:#ffffff;stroke-width:5.71411"
         id="rect7850"
         width="32"
         height="8"
         x="40"
         y="52" />
    </g>
  </g>
</svg>
