<?xml version="1.0" encoding="UTF-8" standalone="no"?>
<svg
   xmlns:dc="http://purl.org/dc/elements/1.1/"
   xmlns:cc="http://creativecommons.org/ns#"
   xmlns:rdf="http://www.w3.org/1999/02/22-rdf-syntax-ns#"
   xmlns:svg="http://www.w3.org/2000/svg"
   xmlns="http://www.w3.org/2000/svg"
   xmlns:sodipodi="http://sodipodi.sourceforge.net/DTD/sodipodi-0.dtd"
   xmlns:inkscape="http://www.inkscape.org/namespaces/inkscape"
   inkscape:export-ydpi="48"
   inkscape:export-xdpi="48"
   inkscape:export-filename="/home/raster/C/efl/th/img/ic/magnifying-glass-040.png"
   inkscape:version="1.0.2 (e86c870879, 2021-01-15, custom)"
   sodipodi:docname="magnifying-glass.svg"
   viewBox="0 0 80 80"
   height="80"
   width="80"
   id="svg2"
   version="1.1">
  <metadata
     id="metadata8">
    <rdf:RDF>
      <cc:Work
         rdf:about="">
        <dc:format>image/svg+xml</dc:format>
        <dc:type
           rdf:resource="http://purl.org/dc/dcmitype/StillImage" />
        <dc:title></dc:title>
      </cc:Work>
    </rdf:RDF>
  </metadata>
  <defs
     id="defs6">
    <mask
       maskUnits="userSpaceOnUse"
       id="mask995">
      <rect
         style="fill:#ffffff;fill-opacity:1;stroke-width:4;stroke-linecap:round;stroke-linejoin:round"
         id="rect997"
         width="48"
         height="32"
         x="16"
         y="24" />
    </mask>
    <mask
       maskUnits="userSpaceOnUse"
       id="mask999">
      <rect
         style="fill:#ffffff;fill-opacity:1;stroke-width:4;stroke-linecap:round;stroke-linejoin:round"
         id="rect1001"
         width="48"
         height="32"
         x="16"
         y="24" />
    </mask>
    <mask
       maskUnits="userSpaceOnUse"
       id="mask1005">
      <rect
         style="fill:#ffffff;fill-opacity:1;stroke-width:4;stroke-linecap:round;stroke-linejoin:round"
         id="rect1007"
         width="48"
         height="32"
         x="16"
         y="24"
         mask="url(#mask999)" />
    </mask>
  </defs>
  <sodipodi:namedview
     inkscape:bbox-nodes="true"
     inkscape:bbox-paths="true"
     inkscape:object-paths="true"
     inkscape:snap-intersection-paths="true"
     inkscape:snap-nodes="true"
     inkscape:snap-bbox="true"
     inkscape:current-layer="g10"
     inkscape:window-maximized="0"
     inkscape:window-y="0"
     inkscape:window-x="804"
     inkscape:cy="40"
     inkscape:cx="40"
     inkscape:zoom="13.05"
     showgrid="true"
     id="namedview4"
     inkscape:window-height="1372"
     inkscape:window-width="1756"
     inkscape:pageshadow="2"
     inkscape:pageopacity="0"
     guidetolerance="10"
     gridtolerance="10"
     objecttolerance="10"
     borderopacity="1"
     bordercolor="#666666"
     pagecolor="#404040"
     inkscape:document-rotation="0">
    <inkscape:grid
       id="grid837"
       type="xygrid"
       empspacing="4" />
  </sodipodi:namedview>
  <g
     id="g10"
     inkscape:label="Image"
     inkscape:groupmode="layer">
    <path
       id="path1517"
       style="fill:#000000;fill-opacity:0.2;stroke-width:8"
       d="M 30 16 A 22 22 0 0 0 28.96875 16.023438 A 20 20 0 0 1 48 36 A 20 20 0 0 1 28 56 A 20 20 0 0 1 8.0234375 36.970703 A 22 22 0 0 0 8 38 A 22 22 0 0 0 30 60 A 22 22 0 0 0 52 38 A 22 22 0 0 0 30 16 z " />
    <path
       id="path1502"
       style="fill:#202020;stroke-width:8;fill-opacity:1"
       d="M 29.892578 12 A 26 26 0 0 0 4 38 A 26 26 0 0 0 30 64 A 26 26 0 0 0 46.365234 58.201172 L 52.314453 61.636719 L 62.308594 44.328125 L 70.736328 49.193359 A 10 10 0 0 1 70.998047 49.339844 L 71.001953 49.332031 L 55.869141 40.595703 A 26 26 0 0 0 56 38 A 26 26 0 0 0 30 12 A 26 26 0 0 0 29.892578 12 z M 30 18 A 20 20 0 0 1 49.982422 37.197266 A 20 20 0 0 1 49.994141 37.572266 A 20 20 0 0 1 49.998047 37.796875 A 20 20 0 0 1 50 37.949219 A 20 20 0 0 1 50 38 A 20 20 0 0 1 49.714844 41.369141 A 20 20 0 0 1 49.574219 42.107422 A 20 20 0 0 1 47.099609 48.373047 A 20 20 0 0 1 46.697266 49.007812 A 20 20 0 0 1 46.697266 49.009766 A 20 20 0 0 1 46.271484 49.628906 A 20 20 0 0 1 45.822266 50.232422 A 20 20 0 0 1 44.859375 51.386719 A 20 20 0 0 1 44.345703 51.935547 A 20 20 0 0 1 41.177734 54.583984 A 20 20 0 0 1 40.671875 54.914062 A 20 20 0 0 1 30 58 A 20 20 0 0 1 10 38 A 20 20 0 0 1 30 18 z M 60.972656 66.642578 L 60.972656 66.644531 A 10 10 0 0 0 61.439453 66.898438 A 10 10 0 0 1 60.972656 66.642578 z M 61.439453 66.898438 A 10 10 0 0 0 61.917969 67.126953 A 10 10 0 0 1 61.439453 66.898438 z M 61.917969 67.126953 A 10 10 0 0 0 62.162109 67.232422 A 10 10 0 0 1 61.917969 67.126953 z M 62.162109 67.232422 A 10 10 0 0 0 62.410156 67.332031 A 10 10 0 0 1 62.162109 67.232422 z M 62.410156 67.332031 A 10 10 0 0 0 62.658203 67.423828 A 10 10 0 0 1 62.410156 67.332031 z M 62.658203 67.423828 A 10 10 0 0 0 62.904297 67.507812 A 10 10 0 0 1 62.658203 67.423828 z M 63.167969 67.587891 A 10 10 0 0 0 63.419922 67.660156 A 10 10 0 0 1 63.167969 67.587891 z M 63.419922 67.660156 A 10 10 0 0 0 63.660156 67.722656 A 10 10 0 0 1 63.419922 67.660156 z M 65.355469 67.978516 A 10 10 0 0 0 65.511719 67.988281 A 10 10 0 0 1 65.355469 67.978516 z M 65.535156 67.988281 A 10 10 0 0 0 65.753906 67.996094 A 10 10 0 0 1 65.535156 67.988281 z " />
    <circle
       style="fill:#ffffff;fill-opacity:0.2;stroke-width:8"
       id="path1513"
       cx="24"
       cy="32"
       r="8" />
    <circle
       style="fill:#ffffff;fill-opacity:0.2;stroke-width:2"
       id="circle1520"
       cx="38"
       cy="46"
       r="2" />
    <circle
       style="fill:#ffffff;fill-opacity:1;stroke-width:2"
       id="circle1522"
       cx="22"
       cy="30"
       r="2" />
    <path
       id="path1524"
       style="fill:#000000;fill-opacity:0.2;stroke-width:8"
       d="M 29.892578 12 A 26 26 0 0 0 4 38 A 26 26 0 0 0 29.214844 63.986328 A 26 26 0 0 1 4.0722656 38 A 26 26 0 0 1 29.892578 12 z M 29.214844 63.986328 A 26 26 0 0 0 29.642578 63.996094 A 26 26 0 0 1 29.214844 63.986328 z M 29.642578 63.996094 A 26 26 0 0 0 30 64 A 26 26 0 0 1 29.642578 63.996094 z M 55.9375 40.634766 A 26 26 0 0 1 46.408203 58.226562 L 50.083984 60.349609 A 30 30 0 0 0 59.685547 42.798828 L 55.9375 40.634766 z " />
    <path
       id="rect1535"
       style="fill:#432f23;fill-opacity:1;stroke-width:5.96285"
       inkscape:transform-center-x="4.3676261"
       inkscape:transform-center-y="-2.4490288"
       d="m 62.308594,44.328125 -10,17.320313 8.660156,5 0.0039,-0.0059 A 10,10 0 0 0 66,68 10,10 0 0 0 76,58 10,10 0 0 0 70.736328,49.193359 Z" />
    <rect
       style="fill:#ffd57a;fill-opacity:0.19317731;stroke-width:11.3138"
       id="rect1546"
       width="12"
       height="3.9999995"
       x="77.487801"
       y="8.9974232"
       ry="1.9999998"
       transform="rotate(30)" />
    <path
       id="path1548"
       style="fill:#000000;fill-opacity:0.2;stroke-width:5.96285"
       inkscape:transform-center-x="4.3676261"
       inkscape:transform-center-y="-2.4490288"
       d="M 75.796875 56 A 10 10 0 0 1 66 64 A 10 10 0 0 1 60.972656 62.642578 L 60.96875 62.648438 L 54.041016 58.648438 L 52.308594 61.648438 L 60.96875 66.648438 L 60.972656 66.642578 A 10 10 0 0 0 66 68 A 10 10 0 0 0 76 58 A 10 10 0 0 0 75.796875 56 z " />
    <path
       id="path1553"
       style="fill:#ffffff;fill-opacity:0.05;stroke-width:8"
       d="M 29.789062 14 A 24 24 0 0 0 6 38 A 24 24 0 0 0 30 62 A 24 24 0 0 0 30.517578 61.994141 A 23 23 0 0 1 8 39 A 23 23 0 0 1 31 16 A 23 23 0 0 1 53.994141 38.525391 A 24 24 0 0 0 54 38 A 24 24 0 0 0 30 14 A 24 24 0 0 0 29.789062 14 z " />
  </g>
</svg>
