<?xml version="1.0" encoding="UTF-8" standalone="no"?>
<!-- Created with Inkscape (http://www.inkscape.org/) -->

<svg
   xmlns:dc="http://purl.org/dc/elements/1.1/"
   xmlns:cc="http://creativecommons.org/ns#"
   xmlns:rdf="http://www.w3.org/1999/02/22-rdf-syntax-ns#"
   xmlns:svg="http://www.w3.org/2000/svg"
   xmlns="http://www.w3.org/2000/svg"
   xmlns:xlink="http://www.w3.org/1999/xlink"
   xmlns:sodipodi="http://sodipodi.sourceforge.net/DTD/sodipodi-0.dtd"
   xmlns:inkscape="http://www.inkscape.org/namespaces/inkscape"
   version="1.1"
   id="svg2"
   width="65"
   height="35"
   viewBox="0 0 65 35"
   sodipodi:docname="map_marker.svg"
   inkscape:version="0.92.4 5da689c313, 2019-01-14"
   inkscape:export-filename="/home/raster/C/th-efl/th/img/map_marker.png"
   inkscape:export-xdpi="96"
   inkscape:export-ydpi="96">
  <metadata
     id="metadata8">
    <rdf:RDF>
      <cc:Work
         rdf:about="">
        <dc:format>image/svg+xml</dc:format>
        <dc:type
           rdf:resource="http://purl.org/dc/dcmitype/StillImage" />
        <dc:title></dc:title>
      </cc:Work>
    </rdf:RDF>
  </metadata>
  <defs
     id="defs6">
    <linearGradient
       inkscape:collect="always"
       id="linearGradient830">
      <stop
         style="stop-color:#000000;stop-opacity:1;"
         offset="0"
         id="stop826" />
      <stop
         style="stop-color:#000000;stop-opacity:0;"
         offset="1"
         id="stop828" />
    </linearGradient>
    <linearGradient
       inkscape:collect="always"
       xlink:href="#linearGradient830"
       id="linearGradient832"
       x1="32.490234"
       y1="30.146484"
       x2="32.433594"
       y2="22.5"
       gradientUnits="userSpaceOnUse" />
    <linearGradient
       inkscape:collect="always"
       xlink:href="#linearGradient830"
       id="linearGradient990"
       gradientUnits="userSpaceOnUse"
       x1="32.490234"
       y1="30.146484"
       x2="32.5"
       y2="25" />
    <linearGradient
       inkscape:collect="always"
       xlink:href="#linearGradient830"
       id="linearGradient994"
       gradientUnits="userSpaceOnUse"
       x1="32.490234"
       y1="30.146484"
       x2="32.5"
       y2="27.5" />
    <filter
       inkscape:collect="always"
       style="color-interpolation-filters:sRGB"
       id="filter1000"
       x="-0.15670322"
       width="1.3134064"
       y="-0.51233614"
       height="2.0246723">
      <feGaussianBlur
         inkscape:collect="always"
         stdDeviation="1.6323305"
         id="feGaussianBlur1002" />
    </filter>
    <filter
       inkscape:collect="always"
       style="color-interpolation-filters:sRGB"
       id="filter1004"
       x="-0.07835161"
       width="1.1567032"
       y="-0.25616807"
       height="1.5123361">
      <feGaussianBlur
         inkscape:collect="always"
         stdDeviation="0.81616526"
         id="feGaussianBlur1006" />
    </filter>
    <filter
       inkscape:collect="always"
       style="color-interpolation-filters:sRGB"
       id="filter1008"
       x="-0.039175805"
       width="1.0783516"
       y="-0.12808404"
       height="1.2561681">
      <feGaussianBlur
         inkscape:collect="always"
         stdDeviation="0.40808263"
         id="feGaussianBlur1010" />
    </filter>
  </defs>
  <sodipodi:namedview
     pagecolor="#404040"
     bordercolor="#666666"
     borderopacity="1"
     objecttolerance="10"
     gridtolerance="10"
     guidetolerance="10"
     inkscape:pageopacity="0"
     inkscape:pageshadow="2"
     inkscape:window-width="1756"
     inkscape:window-height="1372"
     id="namedview4"
     showgrid="true"
     inkscape:zoom="16.569231"
     inkscape:cx="32.5"
     inkscape:cy="17.5"
     inkscape:window-x="804"
     inkscape:window-y="0"
     inkscape:window-maximized="0"
     inkscape:current-layer="svg2">
    <inkscape:grid
       type="xygrid"
       id="grid817"
       spacingx="1"
       spacingy="1" />
  </sodipodi:namedview>
  <path
     inkscape:connector-curvature="0"
     style="opacity:0.25;fill:url(#linearGradient990);fill-opacity:1;stroke:none;stroke-width:0.10072622;stroke-linecap:square;stroke-linejoin:miter;stroke-miterlimit:4;stroke-dasharray:none;stroke-opacity:1;filter:url(#filter1004)"
     d="M 32.433594,22.5 A 12.5,3.1705538 0 0 0 20,25.681948 a 12.5,3.1705538 0 0 0 3.84375,2.270909 l 8.646484,2.193627 8.400391,-2.130711 A 12.5,3.1705538 0 0 0 45,25.670554 v -0.02229 A 12.5,3.1705538 0 0 0 32.433594,22.5 Z"
     id="path988" />
  <path
     id="path824"
     d="M 32.433594,22.5 A 12.5,3.1705538 0 0 0 20,25.681948 a 12.5,3.1705538 0 0 0 3.84375,2.270909 l 8.646484,2.193627 8.400391,-2.130711 A 12.5,3.1705538 0 0 0 45,25.670554 v -0.02229 A 12.5,3.1705538 0 0 0 32.433594,22.5 Z"
     style="opacity:0.12;fill:url(#linearGradient832);fill-opacity:1;stroke:none;stroke-width:0.10072622;stroke-linecap:square;stroke-linejoin:miter;stroke-miterlimit:4;stroke-dasharray:none;stroke-opacity:1;filter:url(#filter1000)"
     inkscape:connector-curvature="0" />
  <path
     id="path992"
     d="M 32.433594,22.5 A 12.5,3.1705538 0 0 0 20,25.681948 a 12.5,3.1705538 0 0 0 3.84375,2.270909 l 8.646484,2.193627 8.400391,-2.130711 A 12.5,3.1705538 0 0 0 45,25.670554 v -0.02229 A 12.5,3.1705538 0 0 0 32.433594,22.5 Z"
     style="opacity:0.5;fill:url(#linearGradient994);fill-opacity:1;stroke:none;stroke-width:0.10072622;stroke-linecap:square;stroke-linejoin:miter;stroke-miterlimit:4;stroke-dasharray:none;stroke-opacity:1;filter:url(#filter1008)"
     inkscape:connector-curvature="0" />
  <path
     style="opacity:1;fill:#ffffff;fill-opacity:1;stroke:none;stroke-width:0.2;stroke-linecap:square;stroke-linejoin:miter;stroke-miterlimit:4;stroke-dasharray:none;stroke-opacity:1"
     d="M 32.433594 0 A 12.5 12.5 0 0 0 20 12.544922 A 12.5 12.5 0 0 0 23.84375 21.498047 L 32.490234 30.146484 L 40.890625 21.746094 A 12.5 12.5 0 0 0 45 12.5 L 45 12.412109 A 12.5 12.5 0 0 0 32.433594 0 z "
     id="path819" />
</svg>
