<?xml version="1.0" encoding="UTF-8" standalone="no"?>
<svg
   xmlns:dc="http://purl.org/dc/elements/1.1/"
   xmlns:cc="http://creativecommons.org/ns#"
   xmlns:rdf="http://www.w3.org/1999/02/22-rdf-syntax-ns#"
   xmlns:svg="http://www.w3.org/2000/svg"
   xmlns="http://www.w3.org/2000/svg"
   xmlns:sodipodi="http://sodipodi.sourceforge.net/DTD/sodipodi-0.dtd"
   xmlns:inkscape="http://www.inkscape.org/namespaces/inkscape"
   version="1.1"
   id="svg2"
   width="80"
   height="80"
   viewBox="0 0 80 80"
   sodipodi:docname="mixer.svg"
   inkscape:version="1.0.2 (e86c870879, 2021-01-15)"
   inkscape:export-filename="/home/raster/C/th-efl/th/img/ic/speaker-040.png"
   inkscape:export-xdpi="48"
   inkscape:export-ydpi="48">
  <metadata
     id="metadata8">
    <rdf:RDF>
      <cc:Work
         rdf:about="">
        <dc:format>image/svg+xml</dc:format>
        <dc:type
           rdf:resource="http://purl.org/dc/dcmitype/StillImage" />
        <dc:title></dc:title>
      </cc:Work>
    </rdf:RDF>
  </metadata>
  <defs
     id="defs6">
    <rect
       x="20"
       y="20"
       width="40"
       height="30"
       id="rect878" />
    <rect
       x="20"
       y="50"
       width="40"
       height="30"
       id="rect872" />
    <rect
       x="20"
       y="20"
       width="40"
       height="30"
       id="rect864" />
    <rect
       x="20"
       y="20"
       width="40"
       height="30"
       id="rect858" />
    <rect
       x="20"
       y="20"
       width="40"
       height="30"
       id="rect852" />
  </defs>
  <sodipodi:namedview
     inkscape:document-rotation="0"
     pagecolor="#404040"
     bordercolor="#666666"
     borderopacity="1"
     objecttolerance="10"
     gridtolerance="10"
     guidetolerance="10"
     inkscape:pageopacity="0"
     inkscape:pageshadow="2"
     inkscape:window-width="1920"
     inkscape:window-height="1017"
     id="namedview4"
     showgrid="true"
     inkscape:zoom="10.4625"
     inkscape:cx="40"
     inkscape:cy="40"
     inkscape:window-x="0"
     inkscape:window-y="0"
     inkscape:window-maximized="1"
     inkscape:current-layer="g10"
     showguides="false"
     inkscape:snap-bbox="true"
     inkscape:bbox-nodes="true"
     inkscape:snap-others="false"
     inkscape:snap-nodes="true"
     borderlayer="true">
    <inkscape:grid
       type="xygrid"
       id="grid837"
       empspacing="4" />
  </sodipodi:namedview>
  <g
     inkscape:groupmode="layer"
     inkscape:label="Image"
     id="g10">
    <rect
       style="fill:#282828;fill-opacity:1;stroke-width:12.3936;stroke-linejoin:round"
       id="rect839"
       width="40"
       height="72"
       x="20"
       y="4" />
    <circle
       style="fill:#dcdcdc;fill-opacity:1;stroke-width:2;stroke-linejoin:round"
       id="path847"
       cx="40"
       cy="56"
       r="10" />
    <circle
       r="13"
       cy="23"
       cx="40"
       id="circle841"
       style="opacity:1;fill:#202020;fill-opacity:1;stroke:none;stroke-width:0.0902775;stroke-linecap:round;stroke-linejoin:round;stroke-miterlimit:4;stroke-dasharray:none;stroke-opacity:1" />
    <circle
       r="5"
       cy="23"
       cx="40"
       id="circle843"
       style="opacity:1;fill:#303030;fill-opacity:1;stroke:none;stroke-width:0.104167;stroke-linecap:round;stroke-linejoin:round;stroke-miterlimit:4;stroke-dasharray:none;stroke-opacity:1" />
    <path
       id="path845"
       d="m 40,7.9999991 a 15.000001,15.000001 0 0 0 -15.000001,14.9999999 15.000001,15.000001 0 0 0 15.000001,15 15.000001,15.000001 0 0 0 14.999999,-15 A 15.000001,15.000001 0 0 0 40,7.9999991 Z m 0,3.3333329 A 11.666667,11.666666 0 0 1 51.666666,22.999999 11.666667,11.666666 0 0 1 40,34.666666 11.666667,11.666666 0 0 1 28.333333,22.999999 11.666667,11.666666 0 0 1 40,11.333332 Z"
       style="opacity:1;fill:#303030;fill-opacity:1;stroke:none;stroke-width:0.104167;stroke-linecap:round;stroke-linejoin:round;stroke-miterlimit:4;stroke-dasharray:none;stroke-opacity:1" />
    <circle
       style="fill:#808080;fill-opacity:1;stroke-width:0.4;stroke-linejoin:round"
       id="circle849"
       cx="40"
       cy="50"
       r="2"
       inkscape:transform-center-x="-0.0021526407"
       inkscape:transform-center-y="-5.9629291" />
    <path
       id="circle853"
       style="fill:#c84936;fill-opacity:1;stroke-width:2.8;stroke-linejoin:round"
       d="M 41 40 A 14 14 0 0 0 27 54 A 14 14 0 0 0 30.117188 62.806641 A 12 12 0 0 1 28 56 A 12 12 0 0 1 40 44 A 12 12 0 0 1 48.484375 47.515625 L 51.386719 44.613281 A 14 14 0 0 0 41 40 z " />
    <path
       style="fill:none;fill-rule:evenodd;stroke:#ffffff;stroke-width:2;stroke-linecap:butt;stroke-linejoin:miter;stroke-opacity:1;stroke-miterlimit:4;stroke-dasharray:none"
       d="m 48,48 4,-4"
       id="path859" />
  </g>
</svg>
