<?xml version="1.0" encoding="UTF-8" standalone="no"?>
<svg
   xmlns:dc="http://purl.org/dc/elements/1.1/"
   xmlns:cc="http://creativecommons.org/ns#"
   xmlns:rdf="http://www.w3.org/1999/02/22-rdf-syntax-ns#"
   xmlns:svg="http://www.w3.org/2000/svg"
   xmlns="http://www.w3.org/2000/svg"
   xmlns:sodipodi="http://sodipodi.sourceforge.net/DTD/sodipodi-0.dtd"
   xmlns:inkscape="http://www.inkscape.org/namespaces/inkscape"
   version="1.1"
   id="svg2"
   width="80"
   height="80"
   viewBox="0 0 80 80"
   sodipodi:docname="modem.svg"
   inkscape:version="1.0.1 (3bc2e813f5, 2020-09-07)"
   inkscape:export-filename="/home/raster/C/th-efl/th/img/ic/modem-040.png"
   inkscape:export-xdpi="48"
   inkscape:export-ydpi="48">
  <metadata
     id="metadata8">
    <rdf:RDF>
      <cc:Work
         rdf:about="">
        <dc:format>image/svg+xml</dc:format>
        <dc:type
           rdf:resource="http://purl.org/dc/dcmitype/StillImage" />
        <dc:title></dc:title>
      </cc:Work>
    </rdf:RDF>
  </metadata>
  <defs
     id="defs6">
    <mask
       maskUnits="userSpaceOnUse"
       id="mask947">
      <rect
         style="opacity:1;fill:#a0a0a0;fill-opacity:1;stroke-width:3.96122;stroke-linecap:round;stroke-linejoin:round"
         id="rect949"
         width="60"
         height="40"
         x="10"
         y="5" />
    </mask>
    <mask
       id="mask3567"
       maskUnits="userSpaceOnUse">
      <path
         style="fill:#ffffff;fill-opacity:1;fill-rule:evenodd;stroke:none;stroke-width:1px;stroke-linecap:butt;stroke-linejoin:miter;stroke-opacity:1"
         d="M 40,10 C 19,10 20,17.832395 20,30 20,42.167605 19,70 40,70 61,70 60,42.167605 60,30 60,17.832395 61,10 40,10 Z"
         id="path3569"
         sodipodi:nodetypes="zzzzz" />
    </mask>
    <clipPath
       id="clipPath922"
       clipPathUnits="userSpaceOnUse">
      <path
         sodipodi:nodetypes="ccccccc"
         inkscape:connector-curvature="0"
         id="path924"
         d="m 1.3229166,295.4125 h 7.9375003 v -6.08542 c 0,-0.52917 0,-0.52917 -0.529167,-0.52917 H 1.8520833 c -0.5291666,0 -0.5291666,0 -0.5291667,0.52917 z"
         style="fill:#ffffff;fill-opacity:1;fill-rule:evenodd;stroke:none;stroke-width:0.264583px;stroke-linecap:butt;stroke-linejoin:miter;stroke-opacity:1" />
    </clipPath>
    <clipPath
       id="clipPath922-6"
       clipPathUnits="userSpaceOnUse">
      <path
         sodipodi:nodetypes="ccccccc"
         inkscape:connector-curvature="0"
         id="path924-7"
         d="m 1.3229166,295.4125 h 7.9375003 v -6.08542 c 0,-0.52917 0,-0.52917 -0.529167,-0.52917 H 1.8520833 c -0.5291666,0 -0.5291666,0 -0.5291667,0.52917 z"
         style="fill:#ffffff;fill-opacity:1;fill-rule:evenodd;stroke:none;stroke-width:0.264583px;stroke-linecap:butt;stroke-linejoin:miter;stroke-opacity:1" />
    </clipPath>
    <clipPath
       clipPathUnits="userSpaceOnUse"
       id="clipPath876">
      <path
         inkscape:connector-curvature="0"
         style="opacity:1;fill:#ffffff;fill-opacity:1;stroke:none;stroke-width:1;stroke-linecap:round;stroke-linejoin:round;stroke-miterlimit:4;stroke-dasharray:none;stroke-opacity:1"
         d="m 5.2916667,287.73958 a 3.96875,3.96875 0 0 0 -3.9687501,3.96875 3.96875,3.96875 0 0 0 3.9687501,3.96875 3.96875,3.96875 0 0 0 3.96875,-3.96875 3.96875,3.96875 0 0 0 -3.96875,-3.96875 z m 0,2.38125 a 1.5875001,1.5875044 0 0 1 1.5875,1.5875 1.5875001,1.5875044 0 0 1 -1.5875,1.5875 1.5875001,1.5875044 0 0 1 -1.5875,-1.5875 1.5875001,1.5875044 0 0 1 1.5875,-1.5875 z"
         id="path878" />
    </clipPath>
  </defs>
  <sodipodi:namedview
     inkscape:document-rotation="0"
     pagecolor="#404040"
     bordercolor="#666666"
     borderopacity="1"
     objecttolerance="10"
     gridtolerance="10"
     guidetolerance="10"
     inkscape:pageopacity="0"
     inkscape:pageshadow="2"
     inkscape:window-width="1756"
     inkscape:window-height="1372"
     id="namedview4"
     showgrid="true"
     inkscape:zoom="13.1625"
     inkscape:cx="40"
     inkscape:cy="37.11301"
     inkscape:window-x="804"
     inkscape:window-y="0"
     inkscape:window-maximized="0"
     inkscape:current-layer="g10"
     showguides="false"
     inkscape:snap-bbox="true"
     inkscape:bbox-nodes="true"
     inkscape:snap-others="true"
     inkscape:snap-nodes="true"
     inkscape:bbox-paths="true"
     inkscape:object-paths="true"
     inkscape:snap-intersection-paths="true"
     inkscape:snap-smooth-nodes="true"
     inkscape:snap-midpoints="true">
    <inkscape:grid
       type="xygrid"
       id="grid837"
       empspacing="4"
       enabled="true"
       snapvisiblegridlinesonly="false" />
  </sodipodi:namedview>
  <g
     inkscape:groupmode="layer"
     inkscape:label="Image"
     id="g10">
    <rect
       style="fill:#808080;fill-opacity:1;stroke-width:2;stroke-linecap:round;stroke-linejoin:round"
       id="rect1027"
       width="64"
       height="20"
       x="8"
       y="32" />
    <rect
       style="fill:#606060;fill-opacity:1;stroke-width:2;stroke-linecap:round;stroke-linejoin:round"
       id="rect1029"
       width="8"
       height="2"
       x="12"
       y="52" />
    <rect
       style="fill:#606060;fill-opacity:1;stroke-width:2;stroke-linecap:round;stroke-linejoin:round"
       id="rect1031"
       width="8"
       height="2"
       x="60"
       y="52" />
    <path
       style="fill:#ffffff;fill-opacity:1;stroke-width:2;stroke-linecap:round;stroke-linejoin:round"
       d="M 38,32 V 16 c 0,-1 1,-2 2,-2 1,0 2,1 2,2 v 16 z"
       id="path1033"
       sodipodi:nodetypes="cczccc" />
    <path
       id="path1035"
       style="fill:#ffffff;fill-opacity:0.5;stroke-width:2;stroke-linecap:round;stroke-linejoin:round"
       d="M 23.900391 7.9511719 A 18 18 0 0 0 22 16 A 18 18 0 0 0 23.900391 24.048828 L 25.689453 23.154297 A 16 16 0 0 1 24 16 A 16 16 0 0 1 25.689453 8.8457031 L 23.900391 7.9511719 z M 56.099609 7.9511719 L 54.310547 8.8457031 A 16 16 0 0 1 56 16 A 16 16 0 0 1 54.310547 23.154297 L 56.099609 24.048828 A 18 18 0 0 0 58 16 A 18 18 0 0 0 56.099609 7.9511719 z M 27.478516 9.7402344 A 14 14 0 0 0 26 16 A 14 14 0 0 0 27.478516 22.259766 L 29.267578 21.365234 A 12 12 0 0 1 28 16 A 12 12 0 0 1 29.267578 10.632812 L 27.478516 9.7402344 z M 52.521484 9.7402344 L 50.732422 10.634766 A 12 12 0 0 1 52 16 A 12 12 0 0 1 50.732422 21.367188 L 52.521484 22.259766 A 14 14 0 0 0 54 16 A 14 14 0 0 0 52.521484 9.7402344 z M 31.056641 11.527344 A 10 10 0 0 0 30 16 A 10 10 0 0 0 31.056641 20.472656 L 32.845703 19.578125 A 8 8 0 0 1 32 16 A 8 8 0 0 1 32.845703 12.421875 L 31.056641 11.527344 z M 48.943359 11.527344 L 47.154297 12.421875 A 8 8 0 0 1 48 16 A 8 8 0 0 1 47.154297 19.578125 L 48.943359 20.470703 A 10 10 0 0 0 50 16 A 10 10 0 0 0 48.943359 11.527344 z M 34.634766 13.316406 A 6 6 0 0 0 34 16 A 6 6 0 0 0 34.634766 18.683594 L 36.423828 17.789062 A 4 4 0 0 1 36 16 A 4 4 0 0 1 36.421875 14.210938 L 34.634766 13.316406 z M 45.365234 13.316406 L 43.576172 14.210938 A 4 4 0 0 1 44 16 A 4 4 0 0 1 43.578125 17.789062 L 45.365234 18.683594 A 6 6 0 0 0 46 16 A 6 6 0 0 0 45.365234 13.316406 z " />
    <rect
       style="fill:#606060;fill-opacity:1;stroke-width:2;stroke-linecap:round;stroke-linejoin:round"
       id="rect1086"
       width="46"
       height="10"
       x="24"
       y="34"
       ry="2" />
    <circle
       style="fill:#ff4a3b;fill-opacity:1;stroke-width:2;stroke-linecap:round;stroke-linejoin:round"
       id="path1070"
       cx="65"
       cy="39"
       r="3" />
    <circle
       style="fill:#6dff2e;fill-opacity:1;stroke-width:2;stroke-linecap:round;stroke-linejoin:round"
       id="circle1072"
       cx="57"
       cy="39"
       r="3" />
    <circle
       style="fill:#6dff2e;fill-opacity:1;stroke-width:2;stroke-linecap:round;stroke-linejoin:round"
       id="circle1078"
       cx="49"
       cy="39"
       r="3" />
    <circle
       style="fill:#6dff2e;fill-opacity:1;stroke-width:2;stroke-linecap:round;stroke-linejoin:round"
       id="circle1080"
       cx="41"
       cy="39"
       r="3" />
  </g>
</svg>
