<?xml version="1.0" encoding="UTF-8" standalone="no"?>
<svg
   xmlns:dc="http://purl.org/dc/elements/1.1/"
   xmlns:cc="http://creativecommons.org/ns#"
   xmlns:rdf="http://www.w3.org/1999/02/22-rdf-syntax-ns#"
   xmlns:svg="http://www.w3.org/2000/svg"
   xmlns="http://www.w3.org/2000/svg"
   xmlns:sodipodi="http://sodipodi.sourceforge.net/DTD/sodipodi-0.dtd"
   xmlns:inkscape="http://www.inkscape.org/namespaces/inkscape"
   version="1.1"
   id="svg2"
   width="15"
   height="15"
   viewBox="0 0 15 15"
   sodipodi:docname="net-error.svg"
   inkscape:version="1.0.1 (3bc2e813f5, 2020-09-07)"
   inkscape:export-filename="/home/raster/C/th-efl/th/img/ic/net-error-015.png"
   inkscape:export-xdpi="96"
   inkscape:export-ydpi="96">
  <metadata
     id="metadata8">
    <rdf:RDF>
      <cc:Work
         rdf:about="">
        <dc:format>image/svg+xml</dc:format>
        <dc:type
           rdf:resource="http://purl.org/dc/dcmitype/StillImage" />
        <dc:title></dc:title>
      </cc:Work>
    </rdf:RDF>
  </metadata>
  <defs
     id="defs6" />
  <sodipodi:namedview
     inkscape:document-rotation="0"
     pagecolor="#404040"
     bordercolor="#666666"
     borderopacity="1"
     objecttolerance="10"
     gridtolerance="10"
     guidetolerance="10"
     inkscape:pageopacity="0"
     inkscape:pageshadow="2"
     inkscape:window-width="1920"
     inkscape:window-height="1017"
     id="namedview4"
     showgrid="true"
     inkscape:zoom="55.933333"
     inkscape:cx="7.5"
     inkscape:cy="7.5"
     inkscape:window-x="0"
     inkscape:window-y="0"
     inkscape:window-maximized="1"
     inkscape:current-layer="g10"
     inkscape:snap-bbox="true"
     inkscape:bbox-paths="false"
     inkscape:bbox-nodes="true"
     inkscape:snap-bbox-edge-midpoints="false"
     inkscape:object-paths="true"
     inkscape:snap-intersection-paths="true"
     inkscape:snap-smooth-nodes="true">
    <inkscape:grid
       type="xygrid"
       id="grid837"
       spacingx="0.5"
       spacingy="0.5" />
  </sodipodi:namedview>
  <g
     inkscape:groupmode="layer"
     inkscape:label="Image"
     id="g10">
    <path
       id="path5405"
       style="opacity:1;fill:#ffffff;fill-opacity:1;stroke:none;stroke-width:0.0599084;stroke-linecap:round;stroke-linejoin:round;stroke-miterlimit:4;stroke-dasharray:none;stroke-opacity:1"
       d="M 5.2050781 1.5039062 C 3.8389838 1.5218557 2.6897688 2.537991 2.5136719 3.8964844 C 1.5826031 4.4306822 1.008019 5.4240941 1.0078125 6.5 C 1.0078121 8.1573817 2.3476781 9.5007461 4 9.5 L 5.8925781 9.5 C 5.6518415 8.9014338 5.3709941 8.2215629 5.0820312 7.4785156 C 4.6291353 6.3139257 4.1796875 5.1901215 4.1796875 4 C 4.1796875 2.9986436 4.5685119 2.0817727 5.2050781 1.5039062 z M 11.240234 5 C 11.041724 5.0001023 10.854654 5.062963 10.679688 5.1523438 C 10.51377 5.9303787 10.222226 6.6961394 9.9179688 7.4785156 C 9.6290059 8.2215629 9.3481585 8.9014338 9.1074219 9.5 L 12.490234 9.5 C 13.318661 9.4999999 13.990234 8.8284271 13.990234 8 C 13.990234 7.1715729 13.318661 6.5000001 12.490234 6.5 L 12.490234 6.25 C 12.489814 6.235667 12.489181 6.2213423 12.488281 6.2070312 C 12.465142 5.5342866 11.913376 5.0006793 11.240234 5 z " />
    <circle
       style="fill:#ffffff;fill-opacity:1;stroke:none;stroke-width:3;stroke-linejoin:round;stroke-opacity:1"
       id="path13715"
       cx="7.5"
       cy="12.5"
       r="1.5" />
    <path
       style="fill:#ffffff;fill-opacity:1;fill-rule:evenodd;stroke:none;stroke-width:1px;stroke-linecap:butt;stroke-linejoin:miter;stroke-opacity:1"
       d="M 7.5,10 C 7,8.5 5.5,5.5 5.5,4 c 0,-1.5 1,-2 2,-2 1,0 2,0.5 2,2 0,1.5 -1.5,4.5 -2,6 z"
       id="path13717"
       sodipodi:nodetypes="czzzc" />
  </g>
</svg>
