<?xml version="1.0" encoding="UTF-8" standalone="no"?>
<svg
   xmlns:dc="http://purl.org/dc/elements/1.1/"
   xmlns:cc="http://creativecommons.org/ns#"
   xmlns:rdf="http://www.w3.org/1999/02/22-rdf-syntax-ns#"
   xmlns:svg="http://www.w3.org/2000/svg"
   xmlns="http://www.w3.org/2000/svg"
   xmlns:sodipodi="http://sodipodi.sourceforge.net/DTD/sodipodi-0.dtd"
   xmlns:inkscape="http://www.inkscape.org/namespaces/inkscape"
   inkscape:export-ydpi="48"
   inkscape:export-xdpi="48"
   inkscape:export-filename="/home/raster/C/th-efl/th/img/ic/network-040.png"
   inkscape:version="1.0 (4035a4fb49, 2020-05-01)"
   sodipodi:docname="network.svg"
   viewBox="0 0 80 80"
   height="80"
   width="80"
   id="svg2"
   version="1.1">
  <metadata
     id="metadata8">
    <rdf:RDF>
      <cc:Work
         rdf:about="">
        <dc:format>image/svg+xml</dc:format>
        <dc:type
           rdf:resource="http://purl.org/dc/dcmitype/StillImage" />
        <dc:title></dc:title>
      </cc:Work>
    </rdf:RDF>
  </metadata>
  <defs
     id="defs6">
    <rect
       id="rect878"
       height="30"
       width="40"
       y="20"
       x="20" />
    <rect
       id="rect872"
       height="30"
       width="40"
       y="50"
       x="20" />
    <rect
       id="rect864"
       height="30"
       width="40"
       y="20"
       x="20" />
    <rect
       id="rect858"
       height="30"
       width="40"
       y="20"
       x="20" />
    <rect
       id="rect852"
       height="30"
       width="40"
       y="20"
       x="20" />
  </defs>
  <sodipodi:namedview
     borderlayer="true"
     inkscape:snap-nodes="true"
     inkscape:snap-others="false"
     inkscape:bbox-nodes="true"
     inkscape:snap-bbox="true"
     showguides="false"
     inkscape:current-layer="g10"
     inkscape:window-maximized="1"
     inkscape:window-y="0"
     inkscape:window-x="0"
     inkscape:cy="40.132122"
     inkscape:cx="40"
     inkscape:zoom="15.1375"
     showgrid="true"
     id="namedview4"
     inkscape:window-height="1377"
     inkscape:window-width="2560"
     inkscape:pageshadow="2"
     inkscape:pageopacity="0"
     guidetolerance="10"
     gridtolerance="10"
     objecttolerance="10"
     borderopacity="1"
     bordercolor="#666666"
     pagecolor="#404040"
     inkscape:document-rotation="0">
    <inkscape:grid
       id="grid837"
       type="xygrid" />
  </sodipodi:namedview>
  <g
     id="g10"
     inkscape:label="Image"
     inkscape:groupmode="layer">
    <path
       inkscape:connector-curvature="0"
       style="fill:#ffffff;fill-opacity:1;stroke:none;stroke-width:0.470127"
       d="m 40.100098,16.493643 a 42.311442,42.311442 0 0 0 -29.899902,12.41154 l 3.345064,3.345065 A 37.610171,37.610171 0 0 1 40.145091,21.194914 37.610171,37.610171 0 0 1 66.699928,32.205255 L 70,28.905183 A 42.311442,42.311442 0 0 0 40.100098,16.493643 Z"
       id="path4174" />
    <path
       inkscape:connector-curvature="0"
       style="fill:#ffffff;fill-opacity:0.80000001;stroke:none;stroke-width:0.470127"
       d="m 40.100098,25.896185 a 32.908899,32.908899 0 0 0 -23.255685,9.653217 l 3.343228,3.343228 a 28.228523,28.332995 0 0 1 19.933575,-8.295173 28.228523,28.332995 0 0 1 19.910617,8.27589 l 3.32395,-3.323945 A 32.908899,32.908899 0 0 0 40.100098,25.896185 Z"
       id="path3354" />
    <path
       inkscape:connector-curvature="0"
       style="fill:#ffffff;fill-opacity:0.60000002;stroke:none;stroke-width:0.470127"
       d="M 39.974302,35.298729 A 23.368751,23.429743 0 0 0 23.46384,42.168827 l 3.317518,3.317519 a 18.679719,18.728471 0 0 1 13.192944,-5.486347 18.679719,18.728471 0 0 1 13.323332,5.60755 l 3.309252,-3.309253 A 23.368751,23.429743 0 0 0 39.974302,35.298729 Z"
       id="ellipse3349" />
    <path
       inkscape:connector-curvature="0"
       style="fill:#ffffff;fill-opacity:0.40000001;stroke:none;stroke-width:0.470127"
       d="m 40.100098,44.701271 a 14.103814,14.103814 0 0 0 -9.966329,4.137486 l 3.32211,3.32211 a 9.4025424,9.4025424 0 0 1 6.644219,-2.758325 9.4025424,9.4025424 0 0 1 6.644218,2.758325 l 3.32211,-3.32211 a 14.103814,14.103814 0 0 0 -9.966328,-4.137486 z"
       id="circle3344" />
    <circle
       style="fill:#3399ff;fill-opacity:1;stroke:none;stroke-width:0.235064;stroke-linecap:round;stroke-linejoin:round;stroke-miterlimit:4;stroke-dasharray:none;stroke-opacity:1"
       id="path5460"
       cx="40.100098"
       cy="58.805084"
       r="4.7012715" />
  </g>
</svg>
