<?xml version="1.0" encoding="UTF-8" standalone="no"?>
<svg
   xmlns:dc="http://purl.org/dc/elements/1.1/"
   xmlns:cc="http://creativecommons.org/ns#"
   xmlns:rdf="http://www.w3.org/1999/02/22-rdf-syntax-ns#"
   xmlns:svg="http://www.w3.org/2000/svg"
   xmlns="http://www.w3.org/2000/svg"
   xmlns:sodipodi="http://sodipodi.sourceforge.net/DTD/sodipodi-0.dtd"
   xmlns:inkscape="http://www.inkscape.org/namespaces/inkscape"
   version="1.1"
   id="svg2"
   width="80"
   height="80"
   viewBox="0 0 80 80"
   sodipodi:docname="paintbrush.svg"
   inkscape:version="1.0.1 (3bc2e813f5, 2020-09-07)"
   inkscape:export-filename="/home/raster/C/th-efl/th/img/ic/paintbrush-040.png"
   inkscape:export-xdpi="48"
   inkscape:export-ydpi="48">
  <metadata
     id="metadata8">
    <rdf:RDF>
      <cc:Work
         rdf:about="">
        <dc:format>image/svg+xml</dc:format>
        <dc:type
           rdf:resource="http://purl.org/dc/dcmitype/StillImage" />
        <dc:title></dc:title>
      </cc:Work>
    </rdf:RDF>
  </metadata>
  <defs
     id="defs6">
    <rect
       x="24.002032"
       y="23.992186"
       width="32.046238"
       height="32.08055"
       id="rect1643" />
    <rect
       x="23.992523"
       y="23.838809"
       width="32.132957"
       height="32.250058"
       id="rect1637" />
    <rect
       x="24.103541"
       y="23.918814"
       width="32.006397"
       height="32.109549"
       id="rect1631" />
    <rect
       x="23.914446"
       y="23.818051"
       width="31.978062"
       height="32.221868"
       id="rect1625" />
    <rect
       x="27.956778"
       y="24.035794"
       width="23.635741"
       height="31.694169"
       id="rect1619" />
  </defs>
  <sodipodi:namedview
     inkscape:document-rotation="0"
     pagecolor="#404040"
     bordercolor="#666666"
     borderopacity="1"
     objecttolerance="10"
     gridtolerance="10"
     guidetolerance="10"
     inkscape:pageopacity="0"
     inkscape:pageshadow="2"
     inkscape:window-width="1920"
     inkscape:window-height="1012"
     id="namedview4"
     showgrid="true"
     inkscape:zoom="10.3875"
     inkscape:cx="40"
     inkscape:cy="40.048135"
     inkscape:window-x="0"
     inkscape:window-y="0"
     inkscape:window-maximized="0"
     inkscape:current-layer="g10"
     showguides="false"
     inkscape:snap-bbox="true"
     inkscape:bbox-nodes="true"
     inkscape:snap-others="true"
     inkscape:snap-nodes="true"
     inkscape:bbox-paths="true">
    <inkscape:grid
       type="xygrid"
       id="grid837"
       empspacing="4" />
  </sodipodi:namedview>
  <g
     inkscape:groupmode="layer"
     inkscape:label="Image"
     id="g10">
    <rect
       style="fill:#73fcff;fill-opacity:0.36183435;stroke-width:3.77953"
       id="rect1716"
       width="8"
       height="8"
       x="32"
       y="48" />
    <rect
       style="fill:#b8327e;fill-opacity:0.64139783;stroke-width:3.77953"
       id="rect1680"
       width="8"
       height="8"
       x="8"
       y="64" />
    <rect
       style="fill:#1babc5;fill-opacity:0.31397009;stroke-width:3.77953"
       id="rect1682"
       width="8"
       height="8"
       x="8"
       y="56" />
    <rect
       style="fill:#40a560;fill-opacity:0.77095038;stroke-width:3.77953"
       id="rect1684"
       width="8"
       height="8"
       x="16"
       y="56" />
    <rect
       style="fill:#e1906d;fill-opacity:1;stroke-width:3.77953"
       id="rect1686"
       width="8"
       height="8"
       x="16"
       y="64" />
    <rect
       style="fill:#b86bdc;fill-opacity:1;stroke-width:3.77953"
       id="rect1688"
       width="8"
       height="8"
       x="24"
       y="56" />
    <rect
       style="fill:#dcdcdc;fill-opacity:1;stroke-width:3.77953"
       id="rect1690"
       width="8"
       height="8"
       x="24"
       y="64" />
    <rect
       style="fill:#8ec536;fill-opacity:1;stroke-width:3.77953"
       id="rect1692"
       width="8"
       height="8"
       x="24"
       y="64" />
    <rect
       style="fill:#d40000;fill-opacity:0.36183435;stroke-width:3.77953"
       id="rect1694"
       width="8"
       height="8"
       x="16"
       y="48" />
    <rect
       style="fill:#ffdd55;fill-opacity:0.24201164;stroke-width:3.77953"
       id="rect1696"
       width="8"
       height="8"
       x="24"
       y="48" />
    <rect
       style="fill:#dcdcdc;fill-opacity:1;stroke-width:3.77953"
       id="rect1698"
       width="8"
       height="8"
       x="32"
       y="56" />
    <rect
       style="fill:#dcdcdc;fill-opacity:1;stroke-width:3.77953"
       id="rect1700"
       width="8"
       height="8"
       x="32"
       y="64" />
    <path
       style="fill:#ffffff;fill-opacity:1;fill-rule:evenodd;stroke:none;stroke-width:1px;stroke-linecap:butt;stroke-linejoin:miter;stroke-opacity:1"
       d="m 48,56 c 2,1 4,4 4,8 0,4 -6,8 -9,8 -3,0 -11,0 -16,0 -5,0 -7.333333,-3.333333 -11,-5 3.666667,-1 8.500169,-0.884758 11,-3 2.499831,-2.115242 0.369153,-5.825537 2,-8 1.630847,-2.174463 3.548105,-4 7,-4 3.451895,0 9,2 12,4"
       id="path1678"
       sodipodi:nodetypes="czzzczzzc" />
    <path
       style="fill:#926e45;fill-opacity:1;fill-rule:evenodd;stroke:none;stroke-width:1px;stroke-linecap:butt;stroke-linejoin:miter;stroke-opacity:1"
       d="M 52,8 36,52 48,56 58,10 C 58,8 54,7 52,8 Z"
       id="path1676"
       sodipodi:nodetypes="ccccc" />
    <path
       id="path1704"
       style="fill:#000000;fill-rule:evenodd;stroke:none;stroke-width:1px;stroke-linecap:butt;stroke-linejoin:miter;stroke-opacity:1;fill-opacity:0.2"
       d="M 56.371094 8.1230469 L 42.707031 54.236328 L 48 56 L 58 10 C 58 9.1767633 57.308089 8.5376839 56.371094 8.1230469 z " />
    <path
       id="path1718"
       style="fill:#000000;fill-opacity:0.2;fill-rule:evenodd;stroke:none;stroke-width:1px;stroke-linecap:butt;stroke-linejoin:miter;stroke-opacity:1"
       d="M 46.435547 55.085938 L 44 56 C 47 58 45.979062 61.650252 45 64 C 44.020938 66.349748 42 68 39 69 C 36 70 32.599526 70.340706 28 70 C 24.651617 69.751971 20.525327 68.451414 16.470703 67.248047 C 19.867827 68.972912 22.222985 72 27 72 L 43 72 C 46 72 52 68 52 64 C 52 60 50 57 48 56 C 47.538144 55.692096 47.001243 55.386544 46.435547 55.085938 z " />
    <path
       style="fill:#c9c9c9;fill-opacity:1;fill-rule:evenodd;stroke:none;stroke-width:1px;stroke-linecap:butt;stroke-linejoin:miter;stroke-opacity:1"
       d="m 35,52 c 3,3 9,5 14,5 L 50,47 39,43 Z"
       id="path1702"
       sodipodi:nodetypes="ccccc" />
    <path
       id="path1709"
       style="fill:#000000;fill-rule:evenodd;stroke:none;stroke-width:1px;stroke-linecap:butt;stroke-linejoin:miter;stroke-opacity:1;fill-opacity:0.2"
       d="M 45.273438 45.28125 L 41.917969 55.828125 C 44.236252 56.56623 46.718051 57 49 57 L 50 47 L 45.273438 45.28125 z " />
    <path
       style="fill:#ffffff;fill-rule:evenodd;stroke:none;stroke-width:1px;stroke-linecap:butt;stroke-linejoin:miter;stroke-opacity:1;fill-opacity:1"
       d="m 41,44 -4,9 2,1 3,-9 z"
       id="path1714" />
  </g>
</svg>
