<?xml version="1.0" encoding="UTF-8" standalone="no"?>
<svg
   xmlns:dc="http://purl.org/dc/elements/1.1/"
   xmlns:cc="http://creativecommons.org/ns#"
   xmlns:rdf="http://www.w3.org/1999/02/22-rdf-syntax-ns#"
   xmlns:svg="http://www.w3.org/2000/svg"
   xmlns="http://www.w3.org/2000/svg"
   xmlns:sodipodi="http://sodipodi.sourceforge.net/DTD/sodipodi-0.dtd"
   xmlns:inkscape="http://www.inkscape.org/namespaces/inkscape"
   inkscape:export-ydpi="48"
   inkscape:export-xdpi="48"
   inkscape:export-filename="/home/raster/C/th-efl/th/img/ic/paint-040.png"
   inkscape:version="1.0 (4035a4fb49, 2020-05-01)"
   sodipodi:docname="paint.svg"
   viewBox="0 0 80 80"
   height="80"
   width="80"
   id="svg2"
   version="1.1">
  <metadata
     id="metadata8">
    <rdf:RDF>
      <cc:Work
         rdf:about="">
        <dc:format>image/svg+xml</dc:format>
        <dc:type
           rdf:resource="http://purl.org/dc/dcmitype/StillImage" />
        <dc:title></dc:title>
      </cc:Work>
    </rdf:RDF>
  </metadata>
  <defs
     id="defs6" />
  <sodipodi:namedview
     inkscape:bbox-nodes="true"
     inkscape:bbox-paths="true"
     inkscape:object-paths="true"
     inkscape:snap-intersection-paths="true"
     inkscape:snap-nodes="true"
     inkscape:snap-bbox="true"
     inkscape:current-layer="g10"
     inkscape:window-maximized="1"
     inkscape:window-y="0"
     inkscape:window-x="0"
     inkscape:cy="32.365145"
     inkscape:cx="40"
     inkscape:zoom="15.0625"
     showgrid="true"
     id="namedview4"
     inkscape:window-height="1377"
     inkscape:window-width="2560"
     inkscape:pageshadow="2"
     inkscape:pageopacity="0"
     guidetolerance="10"
     gridtolerance="10"
     objecttolerance="10"
     borderopacity="1"
     bordercolor="#666666"
     pagecolor="#404040"
     inkscape:document-rotation="0">
    <inkscape:grid
       id="grid837"
       type="xygrid" />
  </sodipodi:namedview>
  <g
     id="g10"
     inkscape:label="Image"
     inkscape:groupmode="layer">
    <rect
       y="10"
       x="15"
       height="60"
       width="50"
       id="rect3077"
       style="opacity:1;fill:#a0a0a0;fill-opacity:1;stroke:none;stroke-width:8;stroke-linecap:round;stroke-linejoin:round;stroke-miterlimit:4;stroke-dasharray:none;stroke-opacity:1" />
    <path
       sodipodi:nodetypes="czcczcc"
       id="path3079"
       d="m 15,10 c 0,0 -4,0 -4,4 0,4 4,4 4,4 h 50 c 0,0 4,0 4,-4 0,-4 -4,-4 -4,-4 z"
       style="opacity:1;fill:#a0a0a0;fill-opacity:1;stroke:none;stroke-width:8;stroke-linecap:round;stroke-linejoin:round;stroke-miterlimit:4;stroke-dasharray:none;stroke-opacity:1" />
    <path
       style="opacity:1;fill:#a0a0a0;fill-opacity:1;stroke:none;stroke-width:8;stroke-linecap:round;stroke-linejoin:round;stroke-miterlimit:4;stroke-dasharray:none;stroke-opacity:1"
       d="m 15,62 c 0,0 -4,0 -4,4 0,4 4,4 4,4 h 50 c 0,0 4,0 4,-4 0,-4 -4,-4 -4,-4 z"
       id="path5230"
       sodipodi:nodetypes="czcczcc" />
    <path
       d="M 17.056641 10 L 17.056641 10.09375 C 17.169416 10.271702 19.971924 14.720132 22 19.771484 L 22 10 L 17.056641 10 z "
       style="opacity:1;fill:#ff0000;fill-opacity:1;stroke:none;stroke-width:2.87063;stroke-linecap:round;stroke-linejoin:round;stroke-miterlimit:4;stroke-dasharray:none;stroke-opacity:0.25"
       id="rect3112" />
    <path
       d="M 22 10 L 22 19.771484 C 23.125409 22.574554 24 25.533965 24 28 L 24 40 C 24 41.304853 24.852783 45.15488 26 47.679688 L 26 10 L 22 10 z "
       style="opacity:1;fill:#ff8000;fill-opacity:1;stroke:none;stroke-width:2.58199;stroke-linecap:round;stroke-linejoin:round;stroke-miterlimit:4;stroke-dasharray:none;stroke-opacity:0.25"
       id="rect3114" />
    <path
       d="M 26 10 L 26 47.679688 C 26.611168 49.024753 27.304853 50 28 50 C 28.696467 50 29.387991 49.374833 30 48.5 L 30 10 L 26 10 z "
       style="opacity:1;fill:#ffff00;fill-opacity:1;stroke:none;stroke-width:2.58199;stroke-linecap:round;stroke-linejoin:round;stroke-miterlimit:4;stroke-dasharray:none;stroke-opacity:0.25"
       id="rect3116" />
    <path
       d="M 30 10 L 30 48.5 C 31.145458 46.862631 32 44.303533 32 43 C 32 41 32 25.769274 33 24 C 33.5 23.115363 33.75 22.614778 34 22.335938 L 34 10 L 30 10 z "
       style="opacity:1;fill:#80ff00;fill-opacity:1;stroke:none;stroke-width:2.58199;stroke-linecap:round;stroke-linejoin:round;stroke-miterlimit:4;stroke-dasharray:none;stroke-opacity:0.25"
       id="rect3118" />
    <path
       d="M 34 10 L 34 22.335938 C 34.25 22.057097 34.5 22 35 22 C 35.817448 22 36.636315 29.343672 38 32.027344 L 38 10 L 34 10 z "
       style="opacity:1;fill:#00ff00;fill-opacity:1;stroke:none;stroke-width:2.58199;stroke-linecap:round;stroke-linejoin:round;stroke-miterlimit:4;stroke-dasharray:none;stroke-opacity:0.25"
       id="rect3120" />
    <path
       d="M 38 10 L 38 32.027344 C 38.304537 32.626659 38.634896 33 39 33 C 40.18101 33 41.087424 28.180164 42 23.578125 L 42 10 L 38 10 z "
       style="opacity:1;fill:#00ff80;fill-opacity:1;stroke:none;stroke-width:2.58199;stroke-linecap:round;stroke-linejoin:round;stroke-miterlimit:4;stroke-dasharray:none;stroke-opacity:0.25"
       id="rect3122" />
    <path
       d="M 42 10 L 42 23.578125 C 42.63284 20.386769 43.26913 17.299325 44 16 C 44.828393 14.527301 45.438983 13.563767 46 13.445312 L 46 10 L 42 10 z "
       style="opacity:1;fill:#00ffff;fill-opacity:1;stroke:none;stroke-width:2.58199;stroke-linecap:round;stroke-linejoin:round;stroke-miterlimit:4;stroke-dasharray:none;stroke-opacity:0.25"
       id="rect3124" />
    <path
       d="M 46 10 L 46 13.445312 C 46.647718 13.308551 47.229147 14.302015 48 17 C 48.567955 18.987842 49.308707 23.309712 50 27.927734 L 50 10 L 46 10 z "
       style="opacity:1;fill:#0080ff;fill-opacity:1;stroke:none;stroke-width:2.58199;stroke-linecap:round;stroke-linejoin:round;stroke-miterlimit:4;stroke-dasharray:none;stroke-opacity:0.25"
       id="rect3126" />
    <path
       d="M 50 10 L 50 27.927734 C 51.059621 35.006285 52 42.789637 52 44 C 52 45.632735 52.667088 47.931348 54 48.720703 L 54 10 L 50 10 z "
       style="opacity:1;fill:#0000ff;fill-opacity:1;stroke:none;stroke-width:2.58199;stroke-linecap:round;stroke-linejoin:round;stroke-miterlimit:4;stroke-dasharray:none;stroke-opacity:0.25"
       id="rect3128" />
    <path
       d="M 54 10 L 54 48.720703 C 54.299823 48.89826 54.632735 49 55 49 C 57 49 58 30 58 26 L 58 10 L 54 10 z "
       style="opacity:1;fill:#8000ff;fill-opacity:1;stroke:none;stroke-width:2.58199;stroke-linecap:round;stroke-linejoin:round;stroke-miterlimit:4;stroke-dasharray:none;stroke-opacity:0.25"
       id="rect3130" />
    <path
       d="M 58 10 L 58 26 C 58 22 60 15 61 13 C 62 11 62.845703 10 62.845703 10 L 58 10 z "
       style="opacity:1;fill:#ff00ff;fill-opacity:1;stroke:none;stroke-width:2.8418;stroke-linecap:round;stroke-linejoin:round;stroke-miterlimit:4;stroke-dasharray:none;stroke-opacity:0.25"
       id="rect3132" />
    <path
       style="opacity:0.25;fill:#000000;fill-opacity:1;stroke:none;stroke-width:20;stroke-linecap:round;stroke-linejoin:round;stroke-miterlimit:4;stroke-dasharray:none;stroke-opacity:1"
       id="path5213"
       sodipodi:type="arc"
       sodipodi:cx="40"
       sodipodi:cy="31"
       sodipodi:rx="5"
       sodipodi:ry="5"
       sodipodi:start="0"
       sodipodi:end="6.2760818"
       sodipodi:arc-type="slice"
       d="m 45,31 a 5,5 0 0 1 -4.991121,4.999992 5,5 0 0 1 -5.008847,-4.982233 5,5 0 0 1 4.97333,-5.017688 5,5 0 0 1 5.026512,4.964412 L 40,31 Z" />
    <path
       d="m 45,29 a 5,5 0 0 1 -4.991121,4.999992 5,5 0 0 1 -5.008847,-4.982233 5,5 0 0 1 4.97333,-5.017688 5,5 0 0 1 5.026512,4.964412 L 40,29 Z"
       sodipodi:arc-type="slice"
       sodipodi:end="6.2760818"
       sodipodi:start="0"
       sodipodi:ry="5"
       sodipodi:rx="5"
       sodipodi:cy="29"
       sodipodi:cx="40"
       sodipodi:type="arc"
       id="path3102"
       style="opacity:1;fill:#c0c0c0;fill-opacity:1;stroke:none;stroke-width:20;stroke-linecap:round;stroke-linejoin:round;stroke-miterlimit:4;stroke-dasharray:none;stroke-opacity:1" />
    <path
       d="m 44,29 a 4,4 0 0 1 -3.992896,3.999994 4,4 0 0 1 -4.007079,-3.985787 4,4 0 0 1 3.978665,-4.01415 4,4 0 0 1 4.021209,3.971529 L 40,29 Z"
       sodipodi:arc-type="slice"
       sodipodi:end="6.2760818"
       sodipodi:start="0"
       sodipodi:ry="4"
       sodipodi:rx="4"
       sodipodi:cy="29"
       sodipodi:cx="40"
       sodipodi:type="arc"
       id="path5234"
       style="opacity:0.5;fill:#ffffff;fill-opacity:1;stroke:none;stroke-width:4;stroke-linecap:round;stroke-linejoin:round;stroke-miterlimit:4;stroke-dasharray:none;stroke-opacity:1" />
    <path
       style="opacity:1;fill:#c0c0c0;fill-opacity:1;stroke:none;stroke-width:4;stroke-linecap:round;stroke-linejoin:round;stroke-miterlimit:4;stroke-dasharray:none;stroke-opacity:1"
       id="path5236"
       sodipodi:type="arc"
       sodipodi:cx="40"
       sodipodi:cy="30"
       sodipodi:rx="4"
       sodipodi:ry="4"
       sodipodi:start="0"
       sodipodi:end="6.2760818"
       sodipodi:arc-type="slice"
       d="m 44,30 a 4,4 0 0 1 -3.992896,3.999994 4,4 0 0 1 -4.007079,-3.985787 4,4 0 0 1 3.978665,-4.01415 4,4 0 0 1 4.021209,3.971529 L 40,30 Z" />
    <path
       d="M 40.042969 27 A 2 2 0 0 0 38.685547 27.492188 A 2 2 0 0 0 38.492188 30.314453 L 65 60.75 L 65 54.658203 L 41.507812 27.685547 A 2 2 0 0 0 40.042969 27 z "
       style="opacity:0.25;fill:#000000;fill-opacity:1;stroke:none;stroke-width:8;stroke-linecap:round;stroke-linejoin:round;stroke-miterlimit:4;stroke-dasharray:none;stroke-opacity:1"
       id="rect5223" />
    <path
       id="path3106"
       d="M 40,29 67,57"
       style="opacity:1;fill:#c0c0c0;fill-opacity:1;stroke:#dcdcdc;stroke-width:4;stroke-linecap:round;stroke-linejoin:round;stroke-miterlimit:4;stroke-dasharray:none;stroke-opacity:1" />
    <path
       style="color:#000000;font-style:normal;font-variant:normal;font-weight:normal;font-stretch:normal;font-size:medium;line-height:normal;font-family:sans-serif;font-variant-ligatures:normal;font-variant-position:normal;font-variant-caps:normal;font-variant-numeric:normal;font-variant-alternates:normal;font-variant-east-asian:normal;font-feature-settings:normal;font-variation-settings:normal;text-indent:0;text-align:start;text-decoration:none;text-decoration-line:none;text-decoration-style:solid;text-decoration-color:#000000;letter-spacing:normal;word-spacing:normal;text-transform:none;writing-mode:lr-tb;direction:ltr;text-orientation:mixed;dominant-baseline:auto;baseline-shift:baseline;text-anchor:start;white-space:normal;shape-padding:0;shape-margin:0;inline-size:0;clip-rule:nonzero;display:inline;overflow:visible;visibility:visible;isolation:auto;mix-blend-mode:normal;color-interpolation:sRGB;color-interpolation-filters:linearRGB;solid-color:#000000;solid-opacity:1;vector-effect:none;fill:#000000;fill-opacity:1;fill-rule:nonzero;stroke:none;stroke-width:4;stroke-linecap:round;stroke-linejoin:round;stroke-miterlimit:4;stroke-dasharray:none;stroke-dashoffset:0;stroke-opacity:1;color-rendering:auto;image-rendering:auto;shape-rendering:auto;text-rendering:auto;enable-background:accumulate;stop-color:#000000"
       d="M 40,29 67,60"
       id="path5219" />
    <path
       sodipodi:nodetypes="czcccc"
       id="path3100"
       d="m 15,26 c 0,0 0,-5 25,-5 25,0 25,5 25,5 V 18 H 15 Z"
       style="opacity:0.25;fill:#000000;fill-opacity:1;stroke:none;stroke-width:8;stroke-linecap:round;stroke-linejoin:round;stroke-miterlimit:4;stroke-dasharray:none;stroke-opacity:1" />
    <path
       d="m 40,28.5 a 0.5,0.5 0 0 1 -0.499112,0.499999 0.5,0.5 0 0 1 -0.500885,-0.498223 0.5,0.5 0 0 1 0.497333,-0.501769 0.5,0.5 0 0 1 0.502651,0.496441 L 39.5,28.5 Z"
       sodipodi:arc-type="slice"
       sodipodi:end="6.2760818"
       sodipodi:start="0"
       sodipodi:ry="0.5"
       sodipodi:rx="0.5"
       sodipodi:cy="28.5"
       sodipodi:cx="39.5"
       sodipodi:type="arc"
       id="path5232"
       style="opacity:1;fill:#ffffff;fill-opacity:1;stroke:none;stroke-width:2;stroke-linecap:round;stroke-linejoin:round;stroke-miterlimit:4;stroke-dasharray:none;stroke-opacity:1" />
    <path
       sodipodi:nodetypes="czcczcc"
       id="path5238"
       d="m 15,62 c 0,0 -3,0 -3,3 0,3 3,3 3,3 h 49 c 0,0 3,0 3,-3 0,-3 -3,-3 -3,-3 z"
       style="opacity:0.5;fill:#ffffff;fill-opacity:1;stroke:none;stroke-width:6.89655;stroke-linecap:round;stroke-linejoin:round;stroke-miterlimit:4;stroke-dasharray:none;stroke-opacity:1" />
    <path
       style="opacity:0.5;fill:#ffffff;fill-opacity:1;stroke:none;stroke-width:6.89655;stroke-linecap:round;stroke-linejoin:round;stroke-miterlimit:4;stroke-dasharray:none;stroke-opacity:1"
       d="m 15,10 c 0,0 -3,0 -3,3 0,3 3,3 3,3 h 49 c 0,0 3,0 3,-3 0,-3 -3,-3 -3,-3 z"
       id="path5240"
       sodipodi:nodetypes="czcczcc" />
  </g>
</svg>
