<?xml version="1.0" encoding="UTF-8" standalone="no"?>
<svg
   xmlns:dc="http://purl.org/dc/elements/1.1/"
   xmlns:cc="http://creativecommons.org/ns#"
   xmlns:rdf="http://www.w3.org/1999/02/22-rdf-syntax-ns#"
   xmlns:svg="http://www.w3.org/2000/svg"
   xmlns="http://www.w3.org/2000/svg"
   xmlns:sodipodi="http://sodipodi.sourceforge.net/DTD/sodipodi-0.dtd"
   xmlns:inkscape="http://www.inkscape.org/namespaces/inkscape"
   inkscape:export-ydpi="48"
   inkscape:export-xdpi="48"
   inkscape:export-filename="/home/raster/C/th-efl/th/img/ic/palette-040.png"
   inkscape:version="1.0 (4035a4fb49, 2020-05-01)"
   sodipodi:docname="palette.svg"
   viewBox="0 0 80 80"
   height="80"
   width="80"
   id="svg2"
   version="1.1">
  <metadata
     id="metadata8">
    <rdf:RDF>
      <cc:Work
         rdf:about="">
        <dc:format>image/svg+xml</dc:format>
        <dc:type
           rdf:resource="http://purl.org/dc/dcmitype/StillImage" />
        <dc:title></dc:title>
      </cc:Work>
    </rdf:RDF>
  </metadata>
  <defs
     id="defs6">
    <rect
       id="rect1368"
       height="60"
       width="30"
       y="10"
       x="35" />
    <rect
       id="rect1362"
       height="60"
       width="31"
       y="70"
       x="30" />
    <rect
       id="rect1356"
       height="50"
       width="35"
       y="20"
       x="10" />
    <rect
       x="35"
       y="10"
       width="30"
       height="60"
       id="rect1368-6" />
    <rect
       x="35"
       y="10"
       width="30"
       height="60"
       id="rect1381" />
    <mask
       id="mask1516"
       maskUnits="userSpaceOnUse">
      <path
         id="path1518"
         d="m 15,74 8,-26 22,-10 3,-19 22,7 2,52 z"
         style="opacity:1;fill:#ffffff;fill-opacity:1;stroke:none;stroke-width:4;stroke-linecap:round;stroke-linejoin:round;stroke-miterlimit:4;stroke-dasharray:none;stroke-opacity:1" />
    </mask>
    <mask
       id="mask1897"
       maskUnits="userSpaceOnUse">
      <path
         style="opacity:0.999;fill:#ffffff;fill-opacity:1;stroke:none;stroke-width:1;stroke-linecap:butt;stroke-linejoin:miter;stroke-miterlimit:4;stroke-dasharray:none;stroke-opacity:1"
         d="M 10,40 C 20,35 24,28 40,28 56,28 60,35 70,40 60,45 56,52 40,52 24,52 20,45 10,40 Z"
         id="path1899"
         sodipodi:nodetypes="czczc" />
    </mask>
  </defs>
  <sodipodi:namedview
     inkscape:snap-nodes="true"
     inkscape:snap-others="false"
     inkscape:bbox-nodes="true"
     inkscape:snap-bbox="true"
     showguides="false"
     inkscape:current-layer="g10"
     inkscape:window-maximized="0"
     inkscape:window-y="0"
     inkscape:window-x="1206"
     inkscape:cy="40"
     inkscape:cx="40"
     inkscape:zoom="8.1375"
     showgrid="true"
     id="namedview4"
     inkscape:window-height="1372"
     inkscape:window-width="1354"
     inkscape:pageshadow="2"
     inkscape:pageopacity="0"
     guidetolerance="10"
     gridtolerance="10"
     objecttolerance="10"
     borderopacity="1"
     bordercolor="#666666"
     pagecolor="#404040"
     inkscape:document-rotation="0">
    <inkscape:grid
       id="grid837"
       type="xygrid" />
  </sodipodi:namedview>
  <g
     id="g10"
     inkscape:label="Image"
     inkscape:groupmode="layer">
    <path
       d="M 40 10 C 30 10 10 12 10 35 C 10 58 23 70 30 70 C 37 70 40 64 40 60 C 40 56 37 55 37 50 C 37 45 42 44 47 44 C 52 44 49 55 55 55 C 61 55 70 48 70 35 C 70 22 50 10 40 10 z M 29.5 55 A 4.5 4.5 0 0 1 34 59.5 A 4.5 4.5 0 0 1 29.5 64 A 4.5 4.5 0 0 1 25 59.5 A 4.5 4.5 0 0 1 29.5 55 z "
       style="opacity:1;fill:#a0a0a0;fill-opacity:1;stroke:none;stroke-width:1;stroke-linecap:butt;stroke-linejoin:miter;stroke-miterlimit:4;stroke-dasharray:none;stroke-opacity:1"
       id="path1909" />
    <circle
       r="4.5"
       cy="44.5"
       cx="19.5"
       id="path1915"
       style="opacity:1;fill:#f0dd1e;fill-opacity:1;stroke:none;stroke-width:1;stroke-linecap:butt;stroke-linejoin:miter;stroke-miterlimit:4;stroke-dasharray:none;stroke-opacity:1" />
    <circle
       style="opacity:1;fill:#1f2dbc;fill-opacity:1;stroke:none;stroke-width:1;stroke-linecap:butt;stroke-linejoin:miter;stroke-miterlimit:4;stroke-dasharray:none;stroke-opacity:1"
       id="circle1917"
       cx="20.5"
       cy="28.5"
       r="4.5" />
    <circle
       r="4.5"
       cy="18.5"
       cx="32.5"
       id="circle1919"
       style="opacity:1;fill:#b12d1e;fill-opacity:1;stroke:none;stroke-width:1;stroke-linecap:butt;stroke-linejoin:miter;stroke-miterlimit:4;stroke-dasharray:none;stroke-opacity:1" />
    <circle
       style="opacity:1;fill:#406f1e;fill-opacity:1;stroke:none;stroke-width:1;stroke-linecap:butt;stroke-linejoin:miter;stroke-miterlimit:4;stroke-dasharray:none;stroke-opacity:1"
       id="circle1921"
       cx="46.5"
       cy="18.5"
       r="4.5" />
    <circle
       r="4.5"
       cy="27.5"
       cx="58.5"
       id="circle1923"
       style="opacity:1;fill:#d45f1e;fill-opacity:1;stroke:none;stroke-width:1;stroke-linecap:butt;stroke-linejoin:miter;stroke-miterlimit:4;stroke-dasharray:none;stroke-opacity:1" />
    <circle
       style="opacity:1;fill:#020000;fill-opacity:1;stroke:none;stroke-width:1;stroke-linecap:butt;stroke-linejoin:miter;stroke-miterlimit:4;stroke-dasharray:none;stroke-opacity:1"
       id="circle1925"
       cx="59.5"
       cy="41.5"
       r="4.5" />
  </g>
</svg>
