<?xml version="1.0" encoding="UTF-8" standalone="no"?>
<svg
   xmlns:dc="http://purl.org/dc/elements/1.1/"
   xmlns:cc="http://creativecommons.org/ns#"
   xmlns:rdf="http://www.w3.org/1999/02/22-rdf-syntax-ns#"
   xmlns:svg="http://www.w3.org/2000/svg"
   xmlns="http://www.w3.org/2000/svg"
   xmlns:sodipodi="http://sodipodi.sourceforge.net/DTD/sodipodi-0.dtd"
   xmlns:inkscape="http://www.inkscape.org/namespaces/inkscape"
   version="1.1"
   id="svg2"
   width="80"
   height="80"
   viewBox="0 0 80 80"
   sodipodi:docname="procstats.svg"
   inkscape:version="1.0.2 (e86c870879, 2021-01-15)"
   inkscape:export-filename="/home/raster/icon.png"
   inkscape:export-xdpi="96"
   inkscape:export-ydpi="96">
  <metadata
     id="metadata8">
    <rdf:RDF>
      <cc:Work
         rdf:about="">
        <dc:format>image/svg+xml</dc:format>
        <dc:type
           rdf:resource="http://purl.org/dc/dcmitype/StillImage" />
        <dc:title></dc:title>
      </cc:Work>
    </rdf:RDF>
  </metadata>
  <defs
     id="defs6">
    <rect
       x="20"
       y="20"
       width="40"
       height="30"
       id="rect878" />
    <rect
       x="20"
       y="50"
       width="40"
       height="30"
       id="rect872" />
    <rect
       x="20"
       y="20"
       width="40"
       height="30"
       id="rect864" />
    <rect
       x="20"
       y="20"
       width="40"
       height="30"
       id="rect858" />
    <rect
       x="20"
       y="20"
       width="40"
       height="30"
       id="rect852" />
  </defs>
  <sodipodi:namedview
     inkscape:document-rotation="0"
     pagecolor="#404040"
     bordercolor="#666666"
     borderopacity="1"
     objecttolerance="10"
     gridtolerance="10"
     guidetolerance="10"
     inkscape:pageopacity="0"
     inkscape:pageshadow="2"
     inkscape:window-width="2560"
     inkscape:window-height="1377"
     id="namedview4"
     showgrid="true"
     inkscape:zoom="15.2125"
     inkscape:cx="40"
     inkscape:cy="40"
     inkscape:window-x="0"
     inkscape:window-y="0"
     inkscape:window-maximized="1"
     inkscape:current-layer="g10"
     showguides="false"
     inkscape:snap-bbox="true"
     inkscape:bbox-nodes="true"
     inkscape:snap-others="false"
     inkscape:snap-nodes="true"
     borderlayer="true"
     inkscape:bbox-paths="true">
    <inkscape:grid
       type="xygrid"
       id="grid837"
       empspacing="4" />
  </sodipodi:namedview>
  <g
     inkscape:groupmode="layer"
     inkscape:label="Image"
     id="g10">
    <rect
       y="4"
       x="4"
       height="72"
       width="72"
       id="rect2878"
       style="fill:#202020;fill-opacity:1;stroke:none;stroke-width:3.6;stroke-linecap:square;stroke-linejoin:miter;stroke-miterlimit:4;stroke-dasharray:none;stroke-opacity:1" />
    <path
       id="path2880"
       d="m 74,8 -2,-2 -2,2 -2,-2 -2,2 2,2 -2,2 2,2 2,-2 2,2 2,-2 -2,-2 z"
       style="fill:#ffffff;fill-opacity:1;stroke:none;stroke-width:3;stroke-linecap:square;stroke-linejoin:miter;stroke-miterlimit:4;stroke-dasharray:none;stroke-opacity:1" />
    <path
       id="path2882"
       d="m 52,9 -4,4 -4,-4 2,-2 2,2 2,-2 z"
       style="fill:#ffffff;fill-opacity:1;stroke:none;stroke-width:3;stroke-linecap:square;stroke-linejoin:miter;stroke-miterlimit:4;stroke-dasharray:none;stroke-opacity:1" />
    <path
       style="fill:#ffffff;fill-opacity:1;stroke:none;stroke-width:3;stroke-linecap:square;stroke-linejoin:miter;stroke-miterlimit:4;stroke-dasharray:none;stroke-opacity:1"
       d="m 62,11 -4,-4 -4,4 2,2 2,-2 2,2 z"
       id="path2884" />
    <path
       sodipodi:arc-type="slice"
       sodipodi:end="6.2760818"
       sodipodi:start="0"
       sodipodi:ry="4"
       sodipodi:rx="4"
       sodipodi:cy="10"
       sodipodi:cx="10"
       sodipodi:type="arc"
       id="path2886"
       style="fill:#ffffff;fill-opacity:1;stroke:none;stroke-width:3;stroke-linecap:square;stroke-linejoin:miter;stroke-miterlimit:4;stroke-dasharray:none;stroke-opacity:1"
       d="M 14,10 A 4,4 0 0 1 10.007104,13.999994 4,4 0 0 1 6.0000252,10.014207 4,4 0 0 1 9.9786896,6.0000568 4,4 0 0 1 13.999899,9.9715862 L 10,10 Z" />
    <rect
       style="fill:#4db420;fill-opacity:1;stroke-width:4.6188"
       id="rect70815"
       width="16"
       height="4"
       x="8"
       y="20"
       ry="0" />
    <rect
       style="fill:#b43b20;fill-opacity:1;stroke-width:4"
       id="rect70817"
       width="12"
       height="4"
       x="24"
       y="20"
       ry="0" />
    <rect
       style="fill:#4db420;fill-opacity:1;stroke-width:4"
       id="rect70819"
       width="12"
       height="4"
       x="44"
       y="20"
       ry="0" />
    <rect
       style="fill:#4db420;fill-opacity:1;stroke-width:4.6188"
       id="rect70823"
       width="16"
       height="4"
       x="8"
       y="28"
       ry="0" />
    <rect
       style="fill:#b43b20;fill-opacity:1;stroke-width:2.3094"
       id="rect70825"
       width="4"
       height="4"
       x="24"
       y="28"
       ry="0" />
    <rect
       style="fill:#4db420;fill-opacity:1;stroke-width:4.6188"
       id="rect70827"
       width="16"
       height="4"
       x="44"
       y="28"
       ry="0" />
    <rect
       style="fill:#b43b20;fill-opacity:1;stroke-width:3.26599"
       id="rect70829"
       width="8"
       height="4"
       x="60"
       y="28"
       ry="0" />
    <rect
       style="fill:#2071b4;fill-opacity:1;stroke-width:3.26599"
       id="rect70831"
       width="8"
       height="4"
       x="8"
       y="44"
       ry="0" />
    <rect
       style="fill:#2092b4;fill-opacity:1;stroke-width:5.65686"
       id="rect70833"
       width="24"
       height="4"
       x="20"
       y="44"
       ry="0" />
    <rect
       style="fill:#9b20b4;fill-opacity:1;stroke-width:3.26599"
       id="rect70835"
       width="8"
       height="4"
       x="52"
       y="44"
       ry="0" />
    <rect
       style="fill:#53b420;fill-opacity:1;stroke-width:3.26599"
       id="rect70837"
       width="8"
       height="4"
       x="64"
       y="44"
       ry="0" />
    <rect
       style="fill:#2071b4;fill-opacity:1;stroke-width:3.26599"
       id="rect70839"
       width="8"
       height="4"
       x="8"
       y="52"
       ry="0" />
    <rect
       style="fill:#2092b4;fill-opacity:1;stroke-width:4.61881"
       id="rect70841"
       width="16"
       height="4"
       x="20"
       y="52"
       ry="0" />
    <rect
       style="fill:#9b20b4;fill-opacity:1;stroke-width:3.26599"
       id="rect70843"
       width="8"
       height="4"
       x="52"
       y="52"
       ry="0" />
    <rect
       style="fill:#53b420;fill-opacity:1;stroke-width:3.26599"
       id="rect70845"
       width="8"
       height="4"
       x="64"
       y="52"
       ry="0" />
    <rect
       style="fill:#2071b4;fill-opacity:1;stroke-width:3.26599"
       id="rect70847"
       width="8"
       height="4"
       x="8"
       y="60"
       ry="0" />
    <rect
       style="fill:#2092b4;fill-opacity:1;stroke-width:5.16399"
       id="rect70849"
       width="20"
       height="4"
       x="20"
       y="60"
       ry="0" />
    <rect
       style="fill:#9b20b4;fill-opacity:1;stroke-width:3.26599"
       id="rect70851"
       width="8"
       height="4"
       x="52"
       y="60"
       ry="0" />
    <rect
       style="fill:#53b420;fill-opacity:1;stroke-width:3.26599"
       id="rect70853"
       width="8"
       height="4"
       x="64"
       y="60"
       ry="0" />
    <rect
       style="fill:#2071b4;fill-opacity:1;stroke-width:3.26599"
       id="rect70855"
       width="8"
       height="4"
       x="8"
       y="68"
       ry="0" />
    <rect
       style="fill:#2092b4;fill-opacity:1;stroke-width:4.00001"
       id="rect70857"
       width="12"
       height="4"
       x="20"
       y="68"
       ry="0" />
    <rect
       style="fill:#9b20b4;fill-opacity:1;stroke-width:3.26599"
       id="rect70859"
       width="8"
       height="4"
       x="52"
       y="68"
       ry="0" />
    <rect
       style="fill:#53b420;fill-opacity:1;stroke-width:3.26599"
       id="rect70861"
       width="8"
       height="4"
       x="64"
       y="68"
       ry="0" />
    <rect
       style="fill:#a0a0a0;fill-opacity:1;stroke-width:3.26599"
       id="rect70863"
       width="8"
       height="4"
       x="8"
       y="36"
       ry="0" />
    <rect
       style="fill:#a0a0a0;fill-opacity:1;stroke-width:6.11011"
       id="rect70865"
       width="28"
       height="4"
       x="20"
       y="36"
       ry="0" />
    <rect
       style="fill:#a0a0a0;fill-opacity:1;stroke-width:3.26599"
       id="rect70867"
       width="8"
       height="4"
       x="52"
       y="36"
       ry="0" />
    <rect
       style="fill:#a0a0a0;fill-opacity:1;stroke-width:3.26599"
       id="rect70869"
       width="8"
       height="4"
       x="64"
       y="36"
       ry="0" />
  </g>
</svg>
