<?xml version="1.0" encoding="UTF-8" standalone="no"?>
<svg
   xmlns:dc="http://purl.org/dc/elements/1.1/"
   xmlns:cc="http://creativecommons.org/ns#"
   xmlns:rdf="http://www.w3.org/1999/02/22-rdf-syntax-ns#"
   xmlns:svg="http://www.w3.org/2000/svg"
   xmlns="http://www.w3.org/2000/svg"
   xmlns:sodipodi="http://sodipodi.sourceforge.net/DTD/sodipodi-0.dtd"
   xmlns:inkscape="http://www.inkscape.org/namespaces/inkscape"
   version="1.1"
   id="svg2"
   width="80"
   height="80"
   viewBox="0 0 80 80"
   sodipodi:docname="scissor-rule.svg"
   inkscape:version="1.0.1 (3bc2e813f5, 2020-09-07)"
   inkscape:export-filename="/home/raster/C/th-efl/th/img/ic/scissor-rule-040.png"
   inkscape:export-xdpi="48"
   inkscape:export-ydpi="48">
  <metadata
     id="metadata8">
    <rdf:RDF>
      <cc:Work
         rdf:about="">
        <dc:format>image/svg+xml</dc:format>
        <dc:type
           rdf:resource="http://purl.org/dc/dcmitype/StillImage" />
        <dc:title></dc:title>
      </cc:Work>
    </rdf:RDF>
  </metadata>
  <defs
     id="defs6">
    <mask
       maskUnits="userSpaceOnUse"
       id="mask947">
      <rect
         style="opacity:1;fill:#a0a0a0;fill-opacity:1;stroke-width:3.96122;stroke-linecap:round;stroke-linejoin:round"
         id="rect949"
         width="60"
         height="40"
         x="10"
         y="5" />
    </mask>
    <mask
       id="mask3567"
       maskUnits="userSpaceOnUse">
      <path
         style="fill:#ffffff;fill-opacity:1;fill-rule:evenodd;stroke:none;stroke-width:1px;stroke-linecap:butt;stroke-linejoin:miter;stroke-opacity:1"
         d="M 40,10 C 19,10 20,17.832395 20,30 20,42.167605 19,70 40,70 61,70 60,42.167605 60,30 60,17.832395 61,10 40,10 Z"
         id="path3569"
         sodipodi:nodetypes="zzzzz" />
    </mask>
    <clipPath
       id="clipPath922"
       clipPathUnits="userSpaceOnUse">
      <path
         sodipodi:nodetypes="ccccccc"
         inkscape:connector-curvature="0"
         id="path924"
         d="m 1.3229166,295.4125 h 7.9375003 v -6.08542 c 0,-0.52917 0,-0.52917 -0.529167,-0.52917 H 1.8520833 c -0.5291666,0 -0.5291666,0 -0.5291667,0.52917 z"
         style="fill:#ffffff;fill-opacity:1;fill-rule:evenodd;stroke:none;stroke-width:0.264583px;stroke-linecap:butt;stroke-linejoin:miter;stroke-opacity:1" />
    </clipPath>
    <clipPath
       id="clipPath922-6"
       clipPathUnits="userSpaceOnUse">
      <path
         sodipodi:nodetypes="ccccccc"
         inkscape:connector-curvature="0"
         id="path924-7"
         d="m 1.3229166,295.4125 h 7.9375003 v -6.08542 c 0,-0.52917 0,-0.52917 -0.529167,-0.52917 H 1.8520833 c -0.5291666,0 -0.5291666,0 -0.5291667,0.52917 z"
         style="fill:#ffffff;fill-opacity:1;fill-rule:evenodd;stroke:none;stroke-width:0.264583px;stroke-linecap:butt;stroke-linejoin:miter;stroke-opacity:1" />
    </clipPath>
    <clipPath
       clipPathUnits="userSpaceOnUse"
       id="clipPath876">
      <path
         inkscape:connector-curvature="0"
         style="opacity:1;fill:#ffffff;fill-opacity:1;stroke:none;stroke-width:1;stroke-linecap:round;stroke-linejoin:round;stroke-miterlimit:4;stroke-dasharray:none;stroke-opacity:1"
         d="m 5.2916667,287.73958 a 3.96875,3.96875 0 0 0 -3.9687501,3.96875 3.96875,3.96875 0 0 0 3.9687501,3.96875 3.96875,3.96875 0 0 0 3.96875,-3.96875 3.96875,3.96875 0 0 0 -3.96875,-3.96875 z m 0,2.38125 a 1.5875001,1.5875044 0 0 1 1.5875,1.5875 1.5875001,1.5875044 0 0 1 -1.5875,1.5875 1.5875001,1.5875044 0 0 1 -1.5875,-1.5875 1.5875001,1.5875044 0 0 1 1.5875,-1.5875 z"
         id="path878" />
    </clipPath>
  </defs>
  <sodipodi:namedview
     inkscape:document-rotation="0"
     pagecolor="#404040"
     bordercolor="#666666"
     borderopacity="1"
     objecttolerance="10"
     gridtolerance="10"
     guidetolerance="10"
     inkscape:pageopacity="0"
     inkscape:pageshadow="2"
     inkscape:window-width="1756"
     inkscape:window-height="1372"
     id="namedview4"
     showgrid="true"
     inkscape:zoom="13.1625"
     inkscape:cx="40"
     inkscape:cy="40"
     inkscape:window-x="804"
     inkscape:window-y="0"
     inkscape:window-maximized="0"
     inkscape:current-layer="g10"
     showguides="false"
     inkscape:snap-bbox="true"
     inkscape:bbox-nodes="true"
     inkscape:snap-others="true"
     inkscape:snap-nodes="true"
     inkscape:bbox-paths="true"
     inkscape:object-paths="true"
     inkscape:snap-intersection-paths="true"
     inkscape:snap-smooth-nodes="true"
     inkscape:snap-midpoints="true">
    <inkscape:grid
       type="xygrid"
       id="grid837"
       empspacing="4"
       enabled="true"
       snapvisiblegridlinesonly="false" />
  </sodipodi:namedview>
  <g
     inkscape:groupmode="layer"
     inkscape:label="Image"
     id="g10">
    <path
       id="path1446"
       style="fill:#ad8d6d;stroke-width:2;stroke-linecap:round;stroke-linejoin:round;fill-opacity:1"
       d="M 8 40 L 8 72 L 72 72 L 8 40 z M 16 54 L 36 64 L 16 64 L 16 54 z " />
    <g
       id="g1497"
       transform="translate(7,1)">
      <path
         id="rect1480"
         style="fill:#dcdcdc;fill-opacity:1;stroke-width:2;stroke-linecap:round;stroke-linejoin:round"
         d="m 49.642578,30.722656 -1.707031,1.205078 C 47.96109,31.953793 47.973421,31.973421 48,32 l 8,28 c 1,-7 1.047645,-13.110988 0,-18 -1.047645,-4.889012 -4,-7.333333 -6,-10 -0.122912,-0.409707 -0.23797,-0.851365 -0.357422,-1.277344 z" />
      <path
         id="path1460"
         style="fill:#5282a7;fill-opacity:1;stroke-width:2;stroke-linecap:round;stroke-linejoin:round"
         d="M 38.677734,7.1777344 C 37.823189,7.1129426 36.93577,7.3761535 36,8 c -2.994463,1.9963089 -5.675672,7.810819 -4,12 1.675672,4.189181 9.322792,5.992094 12,8 2.62384,1.96788 2.679733,2.646551 3.935547,3.927734 l 1.707031,-1.205078 C 47.818339,24.217188 46.350723,16.029811 44,12 42.278054,9.048092 40.557735,7.3202763 38.677734,7.1777344 Z m 0.002,4.7343746 C 40.195809,12.032326 41.231917,14.310218 42,16 c 0.877809,1.931179 4.478181,7.17394 2,8 -2.478181,0.82606 -7.970535,-2.735178 -9,-5 -1.029465,-2.264822 1.105573,-6.368524 3,-7 0.236803,-0.07893 0.463099,-0.105064 0.679688,-0.08789 z" />
    </g>
    <g
       id="g1503"
       transform="matrix(-1,0,0,1,103,1)">
      <path
         id="path1499"
         style="fill:#dcdcdc;fill-opacity:1;stroke-width:2;stroke-linecap:round;stroke-linejoin:round"
         d="m 49.642578,30.722656 -1.707031,1.205078 C 47.96109,31.953793 47.973421,31.973421 48,32 l 8,28 c 1,-7 1.047645,-13.110988 0,-18 -1.047645,-4.889012 -4,-7.333333 -6,-10 -0.122912,-0.409707 -0.23797,-0.851365 -0.357422,-1.277344 z" />
      <path
         id="path1501"
         style="fill:#5282a7;fill-opacity:1;stroke-width:2;stroke-linecap:round;stroke-linejoin:round"
         d="M 38.677734,7.1777344 C 37.823189,7.1129426 36.93577,7.3761535 36,8 c -2.994463,1.9963089 -5.675672,7.810819 -4,12 1.675672,4.189181 9.322792,5.992094 12,8 2.62384,1.96788 2.679733,2.646551 3.935547,3.927734 l 1.707031,-1.205078 C 47.818339,24.217188 46.350723,16.029811 44,12 42.278054,9.048092 40.557735,7.3202763 38.677734,7.1777344 Z m 0.002,4.7343746 C 40.195809,12.032326 41.231917,14.310218 42,16 c 0.877809,1.931179 4.478181,7.17394 2,8 -2.478181,0.82606 -7.970535,-2.735178 -9,-5 -1.029465,-2.264822 1.105573,-6.368524 3,-7 0.236803,-0.07893 0.463099,-0.105064 0.679688,-0.08789 z" />
    </g>
    <circle
       style="fill:#dcdcdc;fill-opacity:1;stroke-width:4;stroke-linecap:round;stroke-linejoin:round"
       id="path1537"
       cx="55"
       cy="29"
       r="2" />
  </g>
</svg>
