<?xml version="1.0" encoding="UTF-8" standalone="no"?>
<svg
   xmlns:dc="http://purl.org/dc/elements/1.1/"
   xmlns:cc="http://creativecommons.org/ns#"
   xmlns:rdf="http://www.w3.org/1999/02/22-rdf-syntax-ns#"
   xmlns:svg="http://www.w3.org/2000/svg"
   xmlns="http://www.w3.org/2000/svg"
   xmlns:sodipodi="http://sodipodi.sourceforge.net/DTD/sodipodi-0.dtd"
   xmlns:inkscape="http://www.inkscape.org/namespaces/inkscape"
   inkscape:export-ydpi="48"
   inkscape:export-xdpi="48"
   inkscape:export-filename="/home/raster/C/th-efl/th/img/ic/shield-empty-040.png"
   inkscape:version="1.0.1 (3bc2e813f5, 2020-09-07)"
   sodipodi:docname="shield-empty.svg"
   viewBox="0 0 80 80"
   height="80"
   width="80"
   id="svg2"
   version="1.1">
  <metadata
     id="metadata8">
    <rdf:RDF>
      <cc:Work
         rdf:about="">
        <dc:format>image/svg+xml</dc:format>
        <dc:type
           rdf:resource="http://purl.org/dc/dcmitype/StillImage" />
        <dc:title></dc:title>
      </cc:Work>
    </rdf:RDF>
  </metadata>
  <defs
     id="defs6" />
  <sodipodi:namedview
     inkscape:snap-nodes="true"
     inkscape:snap-others="false"
     inkscape:bbox-nodes="true"
     inkscape:snap-bbox="true"
     showguides="true"
     inkscape:current-layer="g10"
     inkscape:window-maximized="1"
     inkscape:window-y="0"
     inkscape:window-x="0"
     inkscape:cy="40"
     inkscape:cx="40"
     inkscape:zoom="10.4625"
     showgrid="true"
     id="namedview4"
     inkscape:window-height="1017"
     inkscape:window-width="1920"
     inkscape:pageshadow="2"
     inkscape:pageopacity="0"
     guidetolerance="10"
     gridtolerance="10"
     objecttolerance="10"
     borderopacity="1"
     bordercolor="#666666"
     pagecolor="#404040"
     inkscape:document-rotation="0">
    <inkscape:grid
       id="grid837"
       type="xygrid"
       empspacing="4" />
  </sodipodi:namedview>
  <g
     id="g10"
     inkscape:label="Image"
     inkscape:groupmode="layer">
    <path
       style="fill:#000000;fill-opacity:0.25;fill-rule:evenodd;stroke:none;stroke-width:1px;stroke-linecap:butt;stroke-linejoin:miter;stroke-opacity:1"
       d="M 40,8 C 38,14 34,20 26,20 18,20 16,16 12,12 12,60 32,64 40,72 48,64 68,60 68,12 64,16 62,20 54,20 46,20 42,14 40,8 Z"
       id="path849-3"
       sodipodi:nodetypes="czccczc" />
    <path
       id="path849"
       style="fill:#a0a0a0;fill-opacity:1;fill-rule:evenodd;stroke:none;stroke-width:1px;stroke-linecap:butt;stroke-linejoin:miter;stroke-opacity:1"
       d="M 40 8 C 38 14 34 20 26 20 C 18 20 16 16 12 12 C 12 60 32 64 40 72 C 48 64 68 60 68 12 C 64 16 62 20 54 20 C 46 20 42 14 40 8 z M 40 19.898438 C 40.185196 20.098304 40.275393 20.333986 40.470703 20.529297 C 43.671661 23.730255 48.487035 26.052734 54 26.052734 C 56.682408 26.052734 59.113092 25.588544 61.261719 24.845703 C 59.849611 39.492415 56.170706 48.019137 52.158203 53.369141 C 48.389272 58.394382 44.152184 60.87896 40 64.041016 C 35.847816 60.87896 31.610728 58.394382 27.841797 53.369141 C 23.829294 48.019137 20.150389 39.492415 18.738281 24.845703 C 20.886908 25.588544 23.317592 26.052734 26 26.052734 C 31.512965 26.052734 36.328339 23.730255 39.529297 20.529297 C 39.724607 20.333986 39.814804 20.098304 40 19.898438 z " />
  </g>
</svg>
