<?xml version="1.0" encoding="UTF-8" standalone="no"?>
<svg
   xmlns:dc="http://purl.org/dc/elements/1.1/"
   xmlns:cc="http://creativecommons.org/ns#"
   xmlns:rdf="http://www.w3.org/1999/02/22-rdf-syntax-ns#"
   xmlns:svg="http://www.w3.org/2000/svg"
   xmlns="http://www.w3.org/2000/svg"
   xmlns:sodipodi="http://sodipodi.sourceforge.net/DTD/sodipodi-0.dtd"
   xmlns:inkscape="http://www.inkscape.org/namespaces/inkscape"
   version="1.1"
   id="svg2"
   width="80"
   height="80"
   viewBox="0 0 80 80"
   sodipodi:docname="shield-up.svg"
   inkscape:version="1.0 (4035a4fb49, 2020-05-01)"
   inkscape:export-filename="/home/raster/C/th-efl/th/img/ic/shield-up-040.png"
   inkscape:export-xdpi="48"
   inkscape:export-ydpi="48">
  <metadata
     id="metadata8">
    <rdf:RDF>
      <cc:Work
         rdf:about="">
        <dc:format>image/svg+xml</dc:format>
        <dc:type
           rdf:resource="http://purl.org/dc/dcmitype/StillImage" />
        <dc:title></dc:title>
      </cc:Work>
    </rdf:RDF>
  </metadata>
  <defs
     id="defs6">
    <rect
       x="20"
       y="20"
       width="40"
       height="30"
       id="rect878" />
    <rect
       x="20"
       y="50"
       width="40"
       height="30"
       id="rect872" />
    <rect
       x="20"
       y="20"
       width="40"
       height="30"
       id="rect864" />
    <rect
       x="20"
       y="20"
       width="40"
       height="30"
       id="rect858" />
    <rect
       x="20"
       y="20"
       width="40"
       height="30"
       id="rect852" />
  </defs>
  <sodipodi:namedview
     inkscape:document-rotation="0"
     pagecolor="#404040"
     bordercolor="#666666"
     borderopacity="1"
     objecttolerance="10"
     gridtolerance="10"
     guidetolerance="10"
     inkscape:pageopacity="0"
     inkscape:pageshadow="2"
     inkscape:window-width="2560"
     inkscape:window-height="1377"
     id="namedview4"
     showgrid="true"
     inkscape:zoom="15.1625"
     inkscape:cx="40"
     inkscape:cy="40.065952"
     inkscape:window-x="0"
     inkscape:window-y="0"
     inkscape:window-maximized="1"
     inkscape:current-layer="g10"
     showguides="false"
     inkscape:snap-bbox="true"
     inkscape:bbox-nodes="true"
     inkscape:snap-others="false"
     inkscape:snap-nodes="true"
     borderlayer="true">
    <inkscape:grid
       type="xygrid"
       id="grid837" />
  </sodipodi:namedview>
  <g
     inkscape:groupmode="layer"
     inkscape:label="Image"
     id="g10">
    <path
       sodipodi:nodetypes="ccccccccc"
       id="path3230"
       d="M 40,70 C 29,65 10,60 10,40 c 0,-8.333333 0,-16.666667 0,-25 5,10 10,10 15,10 5,0 10,-5 15,-15 5,10 10,15 15,15 5,0 10,0 15,-10 0,8.333333 0,16.666667 0,25 0,20 -20,25 -30,30 z"
       style="fill:#c8c8c8;fill-opacity:1;stroke-width:1.1;stroke-linecap:round;stroke-linejoin:round" />
    <path
       style="fill:#a0a0a0;fill-opacity:1;stroke-width:1.1;stroke-linecap:round;stroke-linejoin:round"
       d="m 40,70 c 0,-10 0,-45 0,-60 5,10 10,15 15,15 5,0 10,0 15,-10 V 40 C 70,60 50,65 40,70 Z"
       id="path3232"
       sodipodi:nodetypes="cccccc" />
    <path
       sodipodi:nodetypes="ccccc"
       id="path3234"
       d="M 40,68 C 30,63 12,50 12,40 c 0,-6.333333 0,-9 0,-19 0,5 2,17 2,19 0,10 16,21 26,28 z"
       style="fill:#fafafa;fill-opacity:1;stroke-width:1.1;stroke-linecap:round;stroke-linejoin:round" />
    <path
       id="path3236"
       d="m 40,25 -15,15 5,5 10,-10 10,10 5,-5 z"
       style="fill:#fafafa;fill-opacity:1;stroke-width:1.1;stroke-linecap:round;stroke-linejoin:round" />
  </g>
</svg>
