<?xml version="1.0" encoding="UTF-8" standalone="no"?>
<svg
   xmlns:dc="http://purl.org/dc/elements/1.1/"
   xmlns:cc="http://creativecommons.org/ns#"
   xmlns:rdf="http://www.w3.org/1999/02/22-rdf-syntax-ns#"
   xmlns:svg="http://www.w3.org/2000/svg"
   xmlns="http://www.w3.org/2000/svg"
   xmlns:sodipodi="http://sodipodi.sourceforge.net/DTD/sodipodi-0.dtd"
   xmlns:inkscape="http://www.inkscape.org/namespaces/inkscape"
   version="1.1"
   id="svg2"
   width="80"
   height="80"
   viewBox="0 0 80 80"
   sodipodi:docname="speakerbox.svg"
   inkscape:version="1.0.2 (e86c870879, 2021-01-15)"
   inkscape:export-filename="/home/raster/C/efl/th/img/ic/speakerbox-040.png"
   inkscape:export-xdpi="48"
   inkscape:export-ydpi="48">
  <metadata
     id="metadata8">
    <rdf:RDF>
      <cc:Work
         rdf:about="">
        <dc:format>image/svg+xml</dc:format>
        <dc:type
           rdf:resource="http://purl.org/dc/dcmitype/StillImage" />
        <dc:title></dc:title>
      </cc:Work>
    </rdf:RDF>
  </metadata>
  <defs
     id="defs6">
    <rect
       x="20"
       y="20"
       width="40"
       height="30"
       id="rect878" />
    <rect
       x="20"
       y="50"
       width="40"
       height="30"
       id="rect872" />
    <rect
       x="20"
       y="20"
       width="40"
       height="30"
       id="rect864" />
    <rect
       x="20"
       y="20"
       width="40"
       height="30"
       id="rect858" />
    <rect
       x="20"
       y="20"
       width="40"
       height="30"
       id="rect852" />
  </defs>
  <sodipodi:namedview
     inkscape:document-rotation="0"
     pagecolor="#404040"
     bordercolor="#666666"
     borderopacity="1"
     objecttolerance="10"
     gridtolerance="10"
     guidetolerance="10"
     inkscape:pageopacity="0"
     inkscape:pageshadow="2"
     inkscape:window-width="2560"
     inkscape:window-height="1345"
     id="namedview4"
     showgrid="true"
     inkscape:zoom="10.4625"
     inkscape:cx="40"
     inkscape:cy="40"
     inkscape:window-x="2560"
     inkscape:window-y="32"
     inkscape:window-maximized="1"
     inkscape:current-layer="g10"
     showguides="false"
     inkscape:snap-bbox="true"
     inkscape:bbox-nodes="true"
     inkscape:snap-others="false"
     inkscape:snap-nodes="true"
     borderlayer="true">
    <inkscape:grid
       type="xygrid"
       id="grid837"
       empspacing="4" />
  </sodipodi:namedview>
  <g
     inkscape:groupmode="layer"
     inkscape:label="Image"
     id="g10">
    <rect
       style="fill:#282828;fill-opacity:1;stroke-width:12.3936;stroke-linejoin:round"
       id="rect839"
       width="40"
       height="72"
       x="20"
       y="4" />
    <circle
       r="13"
       cy="57"
       cx="40"
       id="circle841"
       style="opacity:1;fill:#202020;fill-opacity:1;stroke:none;stroke-width:0.0902775;stroke-linecap:round;stroke-linejoin:round;stroke-miterlimit:4;stroke-dasharray:none;stroke-opacity:1" />
    <circle
       r="5"
       cy="57"
       cx="40"
       id="circle843"
       style="opacity:1;fill:#a0a0a0;fill-opacity:1;stroke:none;stroke-width:0.104167;stroke-linecap:round;stroke-linejoin:round;stroke-miterlimit:4;stroke-dasharray:none;stroke-opacity:1" />
    <path
       id="path845"
       d="M 40,42 A 15.000001,15.000001 0 0 0 24.999999,57 15.000001,15.000001 0 0 0 40,72 15.000001,15.000001 0 0 0 54.999999,57 15.000001,15.000001 0 0 0 40,42 Z m 0,3.333333 A 11.666667,11.666666 0 0 1 51.666666,57 11.666667,11.666666 0 0 1 40,68.666667 11.666667,11.666666 0 0 1 28.333333,57 11.666667,11.666666 0 0 1 40,45.333333 Z"
       style="opacity:1;fill:#404040;fill-opacity:1;stroke:none;stroke-width:0.104167;stroke-linecap:round;stroke-linejoin:round;stroke-miterlimit:4;stroke-dasharray:none;stroke-opacity:1" />
    <circle
       r="8.666667"
       cy="27.999998"
       cx="46"
       id="circle844"
       style="opacity:1;fill:#202020;fill-opacity:1;stroke:none;stroke-width:0.060185;stroke-linecap:round;stroke-linejoin:round;stroke-miterlimit:4;stroke-dasharray:none;stroke-opacity:1" />
    <circle
       r="3.3333333"
       cy="27.999998"
       cx="46"
       id="circle846"
       style="opacity:1;fill:#a0a0a0;fill-opacity:1;stroke:none;stroke-width:0.0694447;stroke-linecap:round;stroke-linejoin:round;stroke-miterlimit:4;stroke-dasharray:none;stroke-opacity:1" />
    <path
       id="path848"
       d="M 46,18 A 10.000001,10.000001 0 0 0 35.999999,28 10.000001,10.000001 0 0 0 46,38 10.000001,10.000001 0 0 0 55.999999,28 10.000001,10.000001 0 0 0 46,18 Z m 0,2.222222 A 7.777778,7.7777773 0 0 1 53.777777,28 7.777778,7.7777773 0 0 1 46,35.777778 7.777778,7.7777773 0 0 1 38.222222,28 7.777778,7.7777773 0 0 1 46,20.222222 Z"
       style="opacity:1;fill:#404040;fill-opacity:1;stroke:none;stroke-width:0.0694447;stroke-linecap:round;stroke-linejoin:round;stroke-miterlimit:4;stroke-dasharray:none;stroke-opacity:1" />
    <circle
       r="5.2000003"
       cy="14"
       cx="30.000002"
       id="circle850"
       style="opacity:1;fill:#202020;fill-opacity:1;stroke:none;stroke-width:0.036111;stroke-linecap:round;stroke-linejoin:round;stroke-miterlimit:4;stroke-dasharray:none;stroke-opacity:1" />
    <circle
       r="2"
       cy="14"
       cx="30.000002"
       id="circle852"
       style="opacity:1;fill:#a0a0a0;fill-opacity:1;stroke:none;stroke-width:0.0416668;stroke-linecap:round;stroke-linejoin:round;stroke-miterlimit:4;stroke-dasharray:none;stroke-opacity:1" />
    <path
       id="path854"
       d="M 30,8 A 6.0000006,6.0000006 0 0 0 23.999999,14 6.0000006,6.0000006 0 0 0 30,20 6.0000006,6.0000006 0 0 0 35.999999,14 6.0000006,6.0000006 0 0 0 30,8 Z m 0,1.3333332 A 4.6666668,4.6666664 0 0 1 34.666666,14 4.6666668,4.6666664 0 0 1 30,18.666667 4.6666668,4.6666664 0 0 1 25.333333,14 4.6666668,4.6666664 0 0 1 30,9.3333332 Z"
       style="opacity:1;fill:#404040;fill-opacity:1;stroke:none;stroke-width:0.0416668;stroke-linecap:round;stroke-linejoin:round;stroke-miterlimit:4;stroke-dasharray:none;stroke-opacity:1" />
  </g>
</svg>
