<?xml version="1.0" encoding="UTF-8" standalone="no"?>
<svg
   xmlns:dc="http://purl.org/dc/elements/1.1/"
   xmlns:cc="http://creativecommons.org/ns#"
   xmlns:rdf="http://www.w3.org/1999/02/22-rdf-syntax-ns#"
   xmlns:svg="http://www.w3.org/2000/svg"
   xmlns="http://www.w3.org/2000/svg"
   xmlns:sodipodi="http://sodipodi.sourceforge.net/DTD/sodipodi-0.dtd"
   xmlns:inkscape="http://www.inkscape.org/namespaces/inkscape"
   inkscape:export-ydpi="96"
   inkscape:export-xdpi="96"
   inkscape:export-filename="/home/raster/C/th-efl/th/img/ic/view-reset-015.png"
   inkscape:version="1.0.1 (3bc2e813f5, 2020-09-07)"
   sodipodi:docname="view-reset.svg"
   viewBox="0 0 15 15"
   height="15"
   width="15"
   id="svg2"
   version="1.1">
  <metadata
     id="metadata8">
    <rdf:RDF>
      <cc:Work
         rdf:about="">
        <dc:format>image/svg+xml</dc:format>
        <dc:type
           rdf:resource="http://purl.org/dc/dcmitype/StillImage" />
        <dc:title></dc:title>
      </cc:Work>
    </rdf:RDF>
  </metadata>
  <defs
     id="defs6" />
  <sodipodi:namedview
     inkscape:current-layer="g10"
     inkscape:window-maximized="1"
     inkscape:window-y="0"
     inkscape:window-x="0"
     inkscape:cy="7.5"
     inkscape:cx="7.5"
     inkscape:zoom="80.866667"
     showgrid="true"
     id="namedview4"
     inkscape:window-height="1377"
     inkscape:window-width="2560"
     inkscape:pageshadow="2"
     inkscape:pageopacity="0"
     guidetolerance="10"
     gridtolerance="10"
     objecttolerance="10"
     borderopacity="1"
     bordercolor="#666666"
     pagecolor="#404040"
     inkscape:document-rotation="0"
     inkscape:snap-bbox="true"
     inkscape:bbox-nodes="true"
     inkscape:bbox-paths="true">
    <inkscape:grid
       spacingy="0.5"
       spacingx="0.5"
       id="grid837"
       type="xygrid" />
  </sodipodi:namedview>
  <g
     id="g10"
     inkscape:label="Image"
     inkscape:groupmode="layer">
    <path
       id="rect4062"
       style="fill:#ffffff;stroke-linecap:round;stroke-linejoin:round;stroke-opacity:0.2"
       d="M 1 1 L 1 14 L 14 14 L 14 1 L 1 1 z M 2 2 L 13 2 L 13 13 L 2 13 L 2 2 z " />
    <path
       id="path4069"
       style="fill:#ffffff;stroke-linecap:round;stroke-linejoin:round;stroke-opacity:0.2"
       d="M 7.5 4 A 3.5 3.5 0 0 0 4 7.5 A 3.5 3.5 0 0 0 7.5 11 A 3.5 3.5 0 0 0 11 7.5 A 3.5 3.5 0 0 0 7.5 4 z M 7.5 5 A 2.5 2.5 0 0 1 10 7.5 A 2.5 2.5 0 0 1 7.5 10 A 2.5 2.5 0 0 1 5 7.5 A 2.5 2.5 0 0 1 7.5 5 z " />
  </g>
</svg>
