<?xml version="1.0" encoding="UTF-8" standalone="no"?>
<svg
   xmlns:dc="http://purl.org/dc/elements/1.1/"
   xmlns:cc="http://creativecommons.org/ns#"
   xmlns:rdf="http://www.w3.org/1999/02/22-rdf-syntax-ns#"
   xmlns:svg="http://www.w3.org/2000/svg"
   xmlns="http://www.w3.org/2000/svg"
   xmlns:sodipodi="http://sodipodi.sourceforge.net/DTD/sodipodi-0.dtd"
   xmlns:inkscape="http://www.inkscape.org/namespaces/inkscape"
   version="1.1"
   id="svg2"
   width="80"
   height="80"
   viewBox="0 0 80 80"
   sodipodi:docname="window-remember.svg"
   inkscape:version="1.0 (4035a4fb49, 2020-05-01)"
   inkscape:export-filename="/home/raster/C/th-efl/th/img/ic/window-remember-040.png"
   inkscape:export-xdpi="48"
   inkscape:export-ydpi="48">
  <metadata
     id="metadata8">
    <rdf:RDF>
      <cc:Work
         rdf:about="">
        <dc:format>image/svg+xml</dc:format>
        <dc:type
           rdf:resource="http://purl.org/dc/dcmitype/StillImage" />
        <dc:title></dc:title>
      </cc:Work>
    </rdf:RDF>
  </metadata>
  <defs
     id="defs6">
    <filter
       inkscape:collect="always"
       style="color-interpolation-filters:sRGB"
       id="filter5854"
       x="-0.13591628"
       width="1.2718326"
       y="-0.13591628"
       height="1.2718326">
      <feGaussianBlur
         inkscape:collect="always"
         stdDeviation="3.397907"
         id="feGaussianBlur5856" />
    </filter>
  </defs>
  <sodipodi:namedview
     inkscape:document-rotation="0"
     pagecolor="#404040"
     bordercolor="#666666"
     borderopacity="1"
     objecttolerance="10"
     gridtolerance="10"
     guidetolerance="10"
     inkscape:pageopacity="0"
     inkscape:pageshadow="2"
     inkscape:window-width="1920"
     inkscape:window-height="1017"
     id="namedview4"
     showgrid="true"
     inkscape:zoom="10.4625"
     inkscape:cx="40"
     inkscape:cy="40"
     inkscape:window-x="0"
     inkscape:window-y="0"
     inkscape:window-maximized="1"
     inkscape:current-layer="g10"
     inkscape:snap-bbox="true"
     inkscape:snap-nodes="true"
     inkscape:snap-intersection-paths="true"
     inkscape:object-paths="true"
     inkscape:bbox-paths="true"
     inkscape:bbox-nodes="true">
    <inkscape:grid
       type="xygrid"
       id="grid837" />
  </sodipodi:namedview>
  <g
     inkscape:groupmode="layer"
     inkscape:label="Image"
     id="g10">
    <rect
       y="12"
       x="10"
       height="60"
       width="60"
       id="rect5728"
       style="opacity:0.5;fill:#000000;fill-opacity:1;stroke:none;stroke-width:4;stroke-linecap:round;stroke-linejoin:round;stroke-miterlimit:4;stroke-dasharray:none;stroke-opacity:1;filter:url(#filter5854)" />
    <rect
       style="opacity:1;fill:#404040;fill-opacity:1;stroke:none;stroke-width:4;stroke-linecap:round;stroke-linejoin:round;stroke-miterlimit:4;stroke-dasharray:none;stroke-opacity:1"
       id="rect5726"
       width="60"
       height="60"
       x="10"
       y="10" />
    <rect
       style="opacity:1;fill:#202020;fill-opacity:1;stroke:none;stroke-width:4;stroke-linecap:round;stroke-linejoin:round;stroke-miterlimit:4;stroke-dasharray:none;stroke-opacity:1"
       id="rect6682"
       width="60"
       height="12"
       x="10"
       y="10" />
    <path
       style="fill:#ffffff;fill-opacity:1;stroke:none;stroke-width:3;stroke-linecap:square;stroke-linejoin:miter;stroke-miterlimit:4;stroke-dasharray:none;stroke-opacity:1"
       d="m 68,14 -2,-2 -2,2 -2,-2 -2,2 2,2 -2,2 2,2 2,-2 2,2 2,-2 -2,-2 z"
       id="path2880" />
    <path
       style="fill:#ffffff;fill-opacity:1;stroke:none;stroke-width:3;stroke-linecap:square;stroke-linejoin:miter;stroke-miterlimit:4;stroke-dasharray:none;stroke-opacity:1"
       d="m 46,15 -4,4 -4,-4 2,-2 2,2 2,-2 z"
       id="path2882" />
    <path
       id="path2884"
       d="m 56,17 -4,-4 -4,4 2,2 2,-2 2,2 z"
       style="fill:#ffffff;fill-opacity:1;stroke:none;stroke-width:3;stroke-linecap:square;stroke-linejoin:miter;stroke-miterlimit:4;stroke-dasharray:none;stroke-opacity:1" />
    <path
       style="fill:#ffffff;fill-opacity:1;stroke:none;stroke-width:3;stroke-linecap:square;stroke-linejoin:miter;stroke-miterlimit:4;stroke-dasharray:none;stroke-opacity:1"
       id="path2886"
       sodipodi:type="arc"
       sodipodi:cx="16"
       sodipodi:cy="16"
       sodipodi:rx="4"
       sodipodi:ry="4"
       sodipodi:start="0"
       sodipodi:end="6.2760818"
       sodipodi:arc-type="slice"
       d="m 20,16 a 4,4 0 0 1 -3.992896,3.999994 4,4 0 0 1 -4.007079,-3.985787 4,4 0 0 1 3.978665,-4.01415 4,4 0 0 1 4.021209,3.971529 L 16,16 Z" />
    <path
       style="fill:#ffffff;fill-opacity:1;stroke:none;stroke-width:1.92857px;stroke-linecap:butt;stroke-linejoin:miter;stroke-opacity:1"
       d="M 40,36.857143 C 38.071429,34.928571 36.142857,33 32.285714,33 28.428571,33 22.642857,33 22.642857,40.714286 22.642857,42.642857 34.214286,54.214286 40,60 45.785714,54.214286 57.357143,42.642857 57.357143,40.714286 57.357143,33 51.571429,33 47.714286,33 43.857143,33 41.928571,34.928571 40,36.857143 Z"
       id="path5237"
       inkscape:connector-curvature="0"
       sodipodi:nodetypes="ccccccc" />
  </g>
</svg>
