<?xml version="1.0" encoding="UTF-8" standalone="no"?>
<svg
   xmlns:dc="http://purl.org/dc/elements/1.1/"
   xmlns:cc="http://creativecommons.org/ns#"
   xmlns:rdf="http://www.w3.org/1999/02/22-rdf-syntax-ns#"
   xmlns:svg="http://www.w3.org/2000/svg"
   xmlns="http://www.w3.org/2000/svg"
   xmlns:sodipodi="http://sodipodi.sourceforge.net/DTD/sodipodi-0.dtd"
   xmlns:inkscape="http://www.inkscape.org/namespaces/inkscape"
   inkscape:export-ydpi="96"
   inkscape:export-xdpi="96"
   inkscape:export-filename="/home/raster/C/efl/th/img/ic/zoom-reset-015.png"
   inkscape:version="1.0.2 (e86c870879, 2021-01-15, custom)"
   sodipodi:docname="zoom-reset.svg"
   viewBox="0 0 15 15"
   height="15"
   width="15"
   id="svg2"
   version="1.1">
  <metadata
     id="metadata8">
    <rdf:RDF>
      <cc:Work
         rdf:about="">
        <dc:format>image/svg+xml</dc:format>
        <dc:type
           rdf:resource="http://purl.org/dc/dcmitype/StillImage" />
        <dc:title></dc:title>
      </cc:Work>
    </rdf:RDF>
  </metadata>
  <defs
     id="defs6" />
  <sodipodi:namedview
     inkscape:current-layer="g10"
     inkscape:window-maximized="1"
     inkscape:window-y="0"
     inkscape:window-x="0"
     inkscape:cy="7.512366"
     inkscape:cx="7.5"
     inkscape:zoom="80.866667"
     showgrid="true"
     id="namedview4"
     inkscape:window-height="1377"
     inkscape:window-width="2560"
     inkscape:pageshadow="2"
     inkscape:pageopacity="0"
     guidetolerance="10"
     gridtolerance="10"
     objecttolerance="10"
     borderopacity="1"
     bordercolor="#666666"
     pagecolor="#404040"
     inkscape:document-rotation="0"
     inkscape:snap-bbox="true"
     inkscape:bbox-nodes="true"
     inkscape:bbox-paths="true"
     inkscape:snap-intersection-paths="true"
     inkscape:snap-smooth-nodes="true">
    <inkscape:grid
       spacingy="0.5"
       spacingx="0.5"
       id="grid837"
       type="xygrid" />
  </sodipodi:namedview>
  <g
     id="g10"
     inkscape:label="Image"
     inkscape:groupmode="layer">
    <path
       id="path3708"
       style="fill:#ffffff;stroke-width:8;fill-opacity:1"
       d="M 7.5 1 A 6.5 6.5 0 0 0 1 7.5 A 6.5 6.5 0 0 0 7.5 14 A 6.5 6.5 0 0 0 14 7.5 A 6.5 6.5 0 0 0 7.5 1 z M 7.5 3 A 4.5 4.5 0 0 1 12 7.5 A 4.5 4.5 0 0 1 7.5 12 A 4.5 4.5 0 0 1 3 7.5 A 4.5 4.5 0 0 1 7.5 3 z " />
    <rect
       style="fill:#ffffff;stroke-width:6.76123;fill-opacity:1"
       id="rect3713"
       width="2"
       height="5"
       x="6.5"
       y="5" />
  </g>
</svg>
