<?xml version="1.0" encoding="UTF-8" standalone="no"?>
<!-- Created with Inkscape (http://www.inkscape.org/) -->

<svg
   xmlns:dc="http://purl.org/dc/elements/1.1/"
   xmlns:cc="http://creativecommons.org/ns#"
   xmlns:rdf="http://www.w3.org/1999/02/22-rdf-syntax-ns#"
   xmlns:svg="http://www.w3.org/2000/svg"
   xmlns="http://www.w3.org/2000/svg"
   xmlns:sodipodi="http://sodipodi.sourceforge.net/DTD/sodipodi-0.dtd"
   xmlns:inkscape="http://www.inkscape.org/namespaces/inkscape"
   width="128"
   height="128"
   id="svg3027"
   version="1.1"
   inkscape:version="0.48.5 r10040"
   sodipodi:docname="battery-empty.svg">
  <defs
     id="defs3029" />
  <sodipodi:namedview
     id="base"
     pagecolor="#ffffff"
     bordercolor="#666666"
     borderopacity="1.0"
     inkscape:pageopacity="0.0"
     inkscape:pageshadow="2"
     inkscape:zoom="3.9140625"
     inkscape:cx="63.872255"
     inkscape:cy="68.087824"
     inkscape:document-units="px"
     inkscape:current-layer="svg3027"
     showgrid="false"
     inkscape:window-width="1013"
     inkscape:window-height="847"
     inkscape:window-x="560"
     inkscape:window-y="16"
     inkscape:window-maximized="0" />
  <metadata
     id="metadata3032">
    <rdf:RDF>
      <cc:Work
         rdf:about="">
        <dc:format>image/svg+xml</dc:format>
        <dc:type
           rdf:resource="http://purl.org/dc/dcmitype/StillImage" />
        <dc:title></dc:title>
      </cc:Work>
    </rdf:RDF>
  </metadata>
  <g
     transform="matrix(7.1931818,0,0,7.1931818,7.2313309,5.714286)"
     style="fill:#3399ff;fill-opacity:1"
     id="g4">
    <rect
       style="opacity:0.45000000000000001;fill:#3399ff;fill-opacity:1"
       height="4"
       width="7"
       y="10"
       x="4.5"
       id="rect6" />
    <path
       inkscape:connector-curvature="0"
       d="M 2.5,14.75 C 2.5,15.442 3.0575,16 3.75,16 h 8.5 c 0.692,0 1.25,-0.558 1.25,-1.25 V 3.25 C 13.5,2.5575 12.942,2 12.25,2 H 10.5 V 0.5 C 10.5,0.223 10.277,0 10,0 H 6 C 5.723,0 5.5,0.223 5.5,0.5 V 2 H 3.75 C 3.0575,2 2.5,2.5575 2.5,3.25 z m 2,-1.5 V 4.75 C 4.5,4.334 4.8345,4 5.25,4 h 5.5 c 0.4155,0 0.75,0.3345 0.75,0.75 v 8.5 C 11.5,13.666 11.166,14 10.75,14 H 5.25 C 4.8345,14 4.5,13.666 4.5,13.25 z"
       id="path8"
       style="fill:#3399ff;fill-opacity:1" />
  </g>
  <g
     inkscape:label="Livello 1"
     inkscape:groupmode="layer"
     id="layer1"
     transform="translate(0,-924.36218)" />
</svg>
