<?xml version="1.0" encoding="UTF-8" standalone="no"?>
<!-- Created with Inkscape (http://www.inkscape.org/) -->

<svg
   xmlns:dc="http://purl.org/dc/elements/1.1/"
   xmlns:cc="http://creativecommons.org/ns#"
   xmlns:rdf="http://www.w3.org/1999/02/22-rdf-syntax-ns#"
   xmlns:svg="http://www.w3.org/2000/svg"
   xmlns="http://www.w3.org/2000/svg"
   xmlns:sodipodi="http://sodipodi.sourceforge.net/DTD/sodipodi-0.dtd"
   xmlns:inkscape="http://www.inkscape.org/namespaces/inkscape"
   width="128"
   height="128"
   id="svg3027"
   version="1.1"
   inkscape:version="0.48.5 r10040"
   sodipodi:docname="network-cellular-edge.svg">
  <defs
     id="defs3029" />
  <sodipodi:namedview
     id="base"
     pagecolor="#ffffff"
     bordercolor="#666666"
     borderopacity="1.0"
     inkscape:pageopacity="0.0"
     inkscape:pageshadow="2"
     inkscape:zoom="2.7676601"
     inkscape:cx="77.24482"
     inkscape:cy="82.666717"
     inkscape:document-units="px"
     inkscape:current-layer="svg3027"
     showgrid="false"
     inkscape:window-width="1013"
     inkscape:window-height="847"
     inkscape:window-x="573"
     inkscape:window-y="46"
     inkscape:window-maximized="0" />
  <metadata
     id="metadata3032">
    <rdf:RDF>
      <cc:Work
         rdf:about="">
        <dc:format>image/svg+xml</dc:format>
        <dc:type
           rdf:resource="http://purl.org/dc/dcmitype/StillImage" />
        <dc:title></dc:title>
      </cc:Work>
    </rdf:RDF>
  </metadata>
  <g
     inkscape:label="Livello 1"
     inkscape:groupmode="layer"
     id="layer1"
     transform="translate(0,-924.36218)" />
  <path
     style="fill:#3399ff"
     inkscape:connector-curvature="0"
     d="m 20.427687,22.276773 c -3.98547,0 -7.193989,3.208519 -7.193989,7.193989 v 71.939898 c 0,3.98547 3.208519,7.19399 7.193989,7.19399 h 86.327873 c 3.98547,0 7.19399,-3.20852 7.19399,-7.19399 V 29.470762 c 0,-3.98547 -3.20852,-7.193989 -7.19399,-7.193989 H 20.427687 z M 45.60665,36.664751 h 35.969945 c 1.992735,0 3.596995,1.60426 3.596995,3.596995 V 51.052729 H 56.397633 V 79.828686 H 70.785612 V 72.634697 H 63.591623 V 58.246719 H 85.17359 V 90.61967 c 0,1.992735 -1.60426,3.596994 -3.596995,3.596994 H 45.60665 c -1.992735,0 -3.596995,-1.604259 -3.596995,-3.596994 V 40.261746 c 0,-1.992735 1.60426,-3.596995 3.596995,-3.596995 z"
     id="path4" />
</svg>
