<?xml version="1.0" encoding="UTF-8" standalone="no"?>
<!-- Created with Inkscape (http://www.inkscape.org/) -->

<svg
   xmlns:dc="http://purl.org/dc/elements/1.1/"
   xmlns:cc="http://creativecommons.org/ns#"
   xmlns:rdf="http://www.w3.org/1999/02/22-rdf-syntax-ns#"
   xmlns:svg="http://www.w3.org/2000/svg"
   xmlns="http://www.w3.org/2000/svg"
   xmlns:sodipodi="http://sodipodi.sourceforge.net/DTD/sodipodi-0.dtd"
   xmlns:inkscape="http://www.inkscape.org/namespaces/inkscape"
   width="128"
   height="128"
   id="svg3027"
   version="1.1"
   inkscape:version="0.48.5 r10040"
   sodipodi:docname="dialog-information.svg">
  <defs
     id="defs3029" />
  <sodipodi:namedview
     id="base"
     pagecolor="#ffffff"
     bordercolor="#666666"
     borderopacity="1.0"
     inkscape:pageopacity="0.0"
     inkscape:pageshadow="2"
     inkscape:zoom="3.9140625"
     inkscape:cx="62.339321"
     inkscape:cy="61.005059"
     inkscape:document-units="px"
     inkscape:current-layer="svg3027"
     showgrid="false"
     inkscape:window-width="1013"
     inkscape:window-height="847"
     inkscape:window-x="572"
     inkscape:window-y="47"
     inkscape:window-maximized="0" />
  <metadata
     id="metadata3032">
    <rdf:RDF>
      <cc:Work
         rdf:about="">
        <dc:format>image/svg+xml</dc:format>
        <dc:type
           rdf:resource="http://purl.org/dc/dcmitype/StillImage" />
        <dc:title></dc:title>
      </cc:Work>
    </rdf:RDF>
  </metadata>
  <g
     inkscape:label="Livello 1"
     inkscape:groupmode="layer"
     id="layer1"
     transform="translate(0,-924.36218)" />
  <path
     style="fill:#3399ff"
     inkscape:connector-curvature="0"
     d="m 64.638724,15.647992 c -29.252499,0 -52.966069,19.308118 -52.966069,43.241499 0,15.245621 9.66101,28.689733 24.206817,36.414172 -0.553164,4.026613 -3.178627,14.008867 -15.103274,17.379487 15.444904,1.67857 25.796461,-5.9026 31.242036,-11.58632 4.050314,0.81137 8.264692,1.24139 12.62049,1.24139 29.252497,0 52.966066,-19.514686 52.966066,-43.448729 0,-23.934042 -23.713569,-43.241499 -52.966066,-43.241499 z m -1.44796,13.241517 c 2.862021,5.9e-5 5.630954,0.345538 8.069381,1.034494 2.438027,0.662605 4.431405,1.598119 6.20696,2.896581 1.77549,1.272113 3.13089,2.903667 4.137974,4.758671 1.007018,1.855071 1.655124,3.848449 1.65519,6.206961 -3.9e-5,2.173066 -0.345538,4.27754 -1.034493,6.000063 -0.662077,1.722721 -1.747881,3.328255 -3.098516,4.759001 -1.354607,1.431408 -3.134929,2.711862 -5.175446,3.931406 -2.014102,1.192532 -4.331499,2.197364 -7.034557,3.310379 l -1.655189,7.448354 H 60.296499 L 58.64131,59.304281 c 2.332029,-0.927502 4.30912,-2.064815 5.793163,-3.310379 1.484374,-1.27251 2.66949,-2.707228 3.517609,-4.137974 0.874602,-1.457891 1.543961,-2.962127 1.861758,-4.552434 0.318458,-1.589644 0.413797,-3.14155 0.413797,-4.758339 0,-1.29833 -0.174788,-2.456963 -0.413797,-3.517609 -0.238348,-1.089115 -0.504502,-1.92333 -1.034163,-2.692 -0.50384,-0.795153 -1.248013,-1.438029 -2.068988,-1.86242 -0.795152,-0.423728 -1.783632,-0.620365 -2.896581,-0.620365 -1.219081,5.2e-5 -2.281977,0.27112 -3.103481,0.827594 -0.821569,0.556542 -1.35858,1.141486 -1.862088,2.068988 -0.503509,0.927568 -1.002913,2.064882 -1.241392,3.310379 -0.211864,1.246027 -0.206568,2.553627 -0.206568,3.931406 -1.669755,0 -3.147509,-0.175449 -4.551772,-0.413797 -1.404262,-0.238347 -2.690675,-0.583951 -3.724176,-1.034163 -1.007018,-0.476959 -1.899761,-0.939617 -2.482785,-1.655189 -0.556521,-0.715439 -0.827594,-1.528733 -0.827594,-2.482784 -4e-6,-1.325013 0.345471,-2.584612 1.034493,-3.724177 0.689022,-1.165981 1.905852,-2.255427 3.310379,-3.103481 1.430084,-0.847457 3.205109,-1.385062 5.378704,-1.861758 2.172934,-0.503839 4.660353,-0.827594 7.654922,-0.827594 z m -0.413798,46.551878 c 0.901019,1.3e-5 1.687764,0.201801 2.482785,0.413798 0.821504,0.211997 1.666312,0.530985 2.275885,1.034493 0.609507,0.503508 0.896848,1.221001 1.241392,2.068987 0.370961,0.821504 0.620631,1.857983 0.620696,3.103481 -2.5e-5,1.219014 -0.249668,2.075078 -0.620696,2.896582 -0.344544,0.821504 -0.631885,1.565478 -1.241392,2.068987 -0.609507,0.503508 -1.454381,0.822496 -2.275885,1.034493 -0.795021,0.23848 -1.581766,0.413798 -2.482785,0.413798 -0.927569,0 -1.86818,-0.175252 -2.689684,-0.413798 -0.821635,-0.211864 -1.459876,-0.52966 -2.069648,-1.032838 -0.582627,-0.503177 -1.103681,-1.244703 -1.44796,-2.065676 -0.344942,-0.820975 -0.413797,-1.681673 -0.413797,-2.899892 0,-1.244703 0.06885,-2.277542 0.413797,-3.105137 0.344279,-0.847457 0.865333,-1.562499 1.44796,-2.065676 0.609772,-0.503178 1.248013,-0.820974 2.068987,-1.032839 0.821636,-0.211864 1.762445,-0.417107 2.690014,-0.417107 z"
     id="path4" />
</svg>
