<?xml version="1.0" encoding="UTF-8" standalone="no"?>
<!-- Created with Inkscape (http://www.inkscape.org/) -->

<svg
   xmlns:dc="http://purl.org/dc/elements/1.1/"
   xmlns:cc="http://creativecommons.org/ns#"
   xmlns:rdf="http://www.w3.org/1999/02/22-rdf-syntax-ns#"
   xmlns:svg="http://www.w3.org/2000/svg"
   xmlns="http://www.w3.org/2000/svg"
   xmlns:sodipodi="http://sodipodi.sourceforge.net/DTD/sodipodi-0.dtd"
   xmlns:inkscape="http://www.inkscape.org/namespaces/inkscape"
   width="128"
   height="128"
   id="svg3027"
   version="1.1"
   inkscape:version="0.48.5 r10040"
   sodipodi:docname="user-busy.svg">
  <defs
     id="defs3029" />
  <sodipodi:namedview
     id="base"
     pagecolor="#ffffff"
     bordercolor="#666666"
     borderopacity="1.0"
     inkscape:pageopacity="0.0"
     inkscape:pageshadow="2"
     inkscape:zoom="3.9140624"
     inkscape:cx="90.895777"
     inkscape:cy="51.036686"
     inkscape:document-units="px"
     inkscape:current-layer="svg3027"
     showgrid="false"
     inkscape:window-width="1013"
     inkscape:window-height="847"
     inkscape:window-x="573"
     inkscape:window-y="23"
     inkscape:window-maximized="0" />
  <metadata
     id="metadata3032">
    <rdf:RDF>
      <cc:Work
         rdf:about="">
        <dc:format>image/svg+xml</dc:format>
        <dc:type
           rdf:resource="http://purl.org/dc/dcmitype/StillImage" />
        <dc:title></dc:title>
      </cc:Work>
    </rdf:RDF>
  </metadata>
  <g
     inkscape:label="Livello 1"
     inkscape:groupmode="layer"
     id="layer1"
     transform="translate(0,-924.36218)" />
  <g
     transform="matrix(7.8392447,0,0,7.8392447,1.5121529,-0.71741248)"
     style="fill:#3399ff"
     id="g4">
    <path
       style="opacity:0.45000000000000001;fill:#3399ff"
       inkscape:connector-curvature="0"
       d="M 13,8 A 5,4 0 1 1 8,4 v 4 z"
       id="path6" />
    <path
       inkscape:connector-curvature="0"
       d="M 8,2 C 4.134,2 1,4.4101 1,8 c 0,3.5899 3.134,6 7,6 1.065,0 2.0651,-0.22996 2.9688,-0.625 l 4.031,1.625 -1.438,-3.562 c 0.904,-1.095 1.438,-1.9524 1.438,-3.438 0,-3.5899 -3.134,-6 -7,-6 z m 0,2 c 2.7614,0 5,1.7909 5,4 0,2.2091 -2.2386,4 -5,4 C 5.2386,12 3,10.209 3,8 3,5.7909 5.2386,4 8,4 z"
       id="path8"
       style="fill:#3399ff" />
  </g>
</svg>
