<?xml version="1.0" encoding="UTF-8" standalone="no"?>
<!-- Created with Inkscape (http://www.inkscape.org/) -->

<svg
   xmlns:dc="http://purl.org/dc/elements/1.1/"
   xmlns:cc="http://creativecommons.org/ns#"
   xmlns:rdf="http://www.w3.org/1999/02/22-rdf-syntax-ns#"
   xmlns:svg="http://www.w3.org/2000/svg"
   xmlns="http://www.w3.org/2000/svg"
   xmlns:sodipodi="http://sodipodi.sourceforge.net/DTD/sodipodi-0.dtd"
   xmlns:inkscape="http://www.inkscape.org/namespaces/inkscape"
   width="128"
   height="128"
   id="svg3027"
   version="1.1"
   inkscape:version="0.48.5 r10040"
   sodipodi:docname="user-invisible.svg">
  <defs
     id="defs3029" />
  <sodipodi:namedview
     id="base"
     pagecolor="#ffffff"
     bordercolor="#666666"
     borderopacity="1.0"
     inkscape:pageopacity="0.0"
     inkscape:pageshadow="2"
     inkscape:zoom="3.9140624"
     inkscape:cx="90.895777"
     inkscape:cy="51.036686"
     inkscape:document-units="px"
     inkscape:current-layer="svg3027"
     showgrid="false"
     inkscape:window-width="1013"
     inkscape:window-height="847"
     inkscape:window-x="573"
     inkscape:window-y="23"
     inkscape:window-maximized="0" />
  <metadata
     id="metadata3032">
    <rdf:RDF>
      <cc:Work
         rdf:about="">
        <dc:format>image/svg+xml</dc:format>
        <dc:type
           rdf:resource="http://purl.org/dc/dcmitype/StillImage" />
        <dc:title></dc:title>
      </cc:Work>
    </rdf:RDF>
  </metadata>
  <g
     inkscape:label="Livello 1"
     inkscape:groupmode="layer"
     id="layer1"
     transform="translate(0,-924.36218)" />
  <path
     style="opacity:0.45000000000000001;fill:#3399ff"
     inkscape:connector-curvature="0"
     d="m 64.108215,15.472054 c -30.241408,0 -54.7568174,18.852772 -54.7568174,46.934414 0,28.081643 24.5154094,46.934402 54.7568174,46.934402 8.330858,0 16.154043,-1.79884 23.223148,-4.889 l 31.532107,12.71141 -11.24861,-27.863392 c 7.07145,-8.565531 11.24861,-15.272459 11.24861,-26.89342 0,-28.081642 -24.515412,-46.934414 -54.75682,-46.934414 z M 48.46341,31.116858 64.108215,46.761664 79.753019,31.116858 95.397824,46.761664 79.753019,62.406468 95.397824,78.051273 79.753019,93.696081 64.108215,78.051273 48.46341,93.696081 32.818605,78.051273 48.46341,62.406468 32.818605,46.761664 48.46341,31.116858 z"
     id="path4-1" />
</svg>
