# Blender v2.69 (sub 0) OBJ File: 'sweet_home.blend'
# www.blender.org
mtllib sweet_home.mtl
o Cube
v 1.000003 -0.999997 0.000002
v -0.999997 -1.000003 0.000002
v -1.000002 0.999998 0.000002
v 0.999998 1.000002 0.000002
v 1.000002 -0.999998 2.000002
v -0.999998 -1.000002 2.000002
v -1.000002 0.999998 2.000002
v 0.999997 1.000003 2.000002
v 0.000002 -1.000000 3.075149
v -0.000002 1.000000 3.075149
v 0.666668 -0.644449 2.358384
v 0.333335 -0.644450 2.716766
v 0.666667 -0.293067 2.358384
v 0.333334 -0.293068 2.716766
v 0.662209 -0.629904 2.991038
v 0.337794 -0.629904 2.980731
v 0.662208 -0.307612 2.991038
v 0.337793 -0.307613 2.980731
vt 0.013689 0.608350
vt 0.285640 0.608350
vt 0.285640 0.978776
vt 0.013689 0.978776
vt 0.564957 0.983606
vt 0.293719 0.983606
vt 0.293719 0.613180
vt 0.564957 0.613180
vt 0.646856 0.021326
vt 0.083404 0.021326
vt 0.083369 0.584801
vt 0.646820 0.584801
vt 0.949735 0.303064
vt 0.654355 0.022016
vt 0.957234 0.303753
vt 0.654320 0.585490
vt 0.090869 0.585491
vt 0.090904 0.022016
vt 0.820337 0.692442
vt 0.820337 0.803140
vt 0.740863 0.803140
vt 0.740863 0.692442
vt 0.695284 0.903159
vt 0.695284 0.830265
vt 0.768687 0.830265
vt 0.768687 0.903159
vt 0.874667 0.789013
vt 0.874667 0.893367
vt 0.979009 0.893367
vt 0.979009 0.789013
vt 0.567834 0.981515
vt 0.567834 0.611089
vt 0.768686 0.903159
vt 0.768687 0.823686
vt 0.811715 0.826975
vt 0.811715 0.899870
vt 0.591196 0.903159
vt 0.591196 0.823686
vt 0.695284 0.826975
vt 0.695284 0.899870
vt 0.666035 0.721564
vt 0.667476 0.661838
vt 0.740863 0.660019
vt 0.591196 0.741571
vt 0.666035 0.660015
vt 0.666035 0.803140
vt 0.592658 0.801339
vt 0.013481 0.981515
vt 0.104078 0.915663
vt 0.194676 0.915663
vt 0.285274 0.981515
vt 0.194676 0.850582
vt 0.285274 0.611089
vt 0.104078 0.850582
vt 0.013481 0.611089
vn -0.732233 -0.000002 0.681054
vn 1.000000 0.000002 0.000000
vn 0.000002 -1.000000 0.000000
vn -0.000002 1.000000 -0.000000
vn -0.732233 -0.000001 -0.681054
vn -0.031755 -0.000000 0.999496
vn -0.000000 0.000000 -1.000000
vn -1.000000 -0.000002 -0.000000
vn -0.999857 -0.000002 0.016891
vn 0.999975 0.000002 0.007049
vn 0.017155 0.999327 0.032422
vn 0.017160 -0.999327 0.032422
vn 0.732233 0.000001 0.681054
vn 0.732233 0.000002 0.681054
vn 0.732234 0.000002 0.681053
usemtl Material
s off
f 6/1/1 9/2/1 10/3/1 7/4/1
usemtl Material_Untitled
f 4/5/2 8/6/2 5/7/2 1/8/2
f 6/9/3 2/10/3 1/11/3 5/12/3 9/13/3
f 7/14/4 10/15/4 8/16/4 4/17/4 3/18/4
f 11/19/5 12/20/5 14/21/5 13/22/5
f 15/23/6 17/24/6 18/25/6 16/26/6
f 2/27/7 3/28/7 4/29/7 1/30/7
f 6/2/8 7/3/8 3/31/8 2/32/8
f 14/33/9 12/34/9 16/35/9 18/36/9
f 11/37/10 13/38/10 17/39/10 15/40/10
f 13/21/11 14/41/11 18/42/11 17/43/11
f 12/44/12 11/45/12 15/46/12 16/47/12
f 5/48/13 11/49/13 12/50/13 9/51/13
f 9/51/14 12/50/14 14/52/14 10/53/14
f 13/54/14 8/55/14 10/53/14 14/52/14
f 11/49/15 5/48/15 8/55/15 13/54/15
