<?xml version="1.0" encoding="utf-8"?>
<!-- Generator: Adobe Illustrator 16.0.3, SVG Export Plug-In . SVG Version: 6.00 Build 0)  -->
<!DOCTYPE svg PUBLIC "-//W3C//DTD SVG 1.1//EN" "http://www.w3.org/Graphics/SVG/1.1/DTD/svg11.dtd">
<svg version="1.1" id="Layer_1" xmlns="http://www.w3.org/2000/svg" xmlns:xlink="http://www.w3.org/1999/xlink" x="0px" y="0px"
	 width="80px" height="80px" viewBox="-14 -14 80 80" enable-background="new -14 -14 80 80" xml:space="preserve">
<path fill="none" stroke="#FFB400" stroke-width="3" stroke-miterlimit="10" d="M26.003,38.931c0.29,0,0.58,0.084,0.832,0.252
	l12.212,8.142c0.367,0.245,0.859,0.229,1.199-0.021c0.359-0.262,0.516-0.721,0.394-1.146l-4.104-14.367
	c-0.158-0.557,0.017-1.156,0.452-1.538l10.174-8.949c0.313-0.284,0.424-0.74,0.267-1.148c-0.159-0.415-0.546-0.681-0.987-0.681
	H33.433c-0.623,0-1.181-0.385-1.402-0.967L26.966,5.17c-0.153-0.398-0.549-0.67-0.98-0.67C25.55,4.501,25.154,4.773,25,5.177
	l-5.034,13.328c-0.221,0.583-0.779,0.97-1.404,0.97H5.557c-0.44,0-0.827,0.266-0.985,0.677c-0.158,0.413-0.049,0.869,0.279,1.164
	l10.158,8.937c0.434,0.383,0.609,0.981,0.451,1.538l-4.104,14.367c-0.123,0.425,0.033,0.883,0.387,1.14
	c0.357,0.258,0.85,0.271,1.211,0.028l12.217-8.144C25.423,39.015,25.713,38.931,26.003,38.931z"/>
</svg>
