<?xml version="1.0" encoding="UTF-8" standalone="no"?>
<!-- Created with Inkscape (http://www.inkscape.org/) -->

<svg
   xmlns:dc="http://purl.org/dc/elements/1.1/"
   xmlns:cc="http://creativecommons.org/ns#"
   xmlns:rdf="http://www.w3.org/1999/02/22-rdf-syntax-ns#"
   xmlns:svg="http://www.w3.org/2000/svg"
   xmlns="http://www.w3.org/2000/svg"
   xmlns:sodipodi="http://sodipodi.sourceforge.net/DTD/sodipodi-0.dtd"
   xmlns:inkscape="http://www.inkscape.org/namespaces/inkscape"
   width="40"
   height="40"
   viewBox="0 0 10.583333 10.583333"
   version="1.1"
   id="svg8"
   inkscape:version="0.92.2 5c3e80d, 2017-08-06"
   sodipodi:docname="icon-dummy.svg"
   inkscape:export-filename="/home/raster/C/th-efl/th/img/ic_unknown_040.png"
   inkscape:export-xdpi="96"
   inkscape:export-ydpi="96">
  <defs
     id="defs2">
    <clipPath
       clipPathUnits="userSpaceOnUse"
       id="clipPath876">
      <path
         inkscape:connector-curvature="0"
         style="opacity:1;fill:#ffffff;fill-opacity:1;stroke:none;stroke-width:1;stroke-linecap:round;stroke-linejoin:round;stroke-miterlimit:4;stroke-dasharray:none;stroke-opacity:1"
         d="m 5.2916667,287.73958 a 3.96875,3.96875 0 0 0 -3.9687501,3.96875 3.96875,3.96875 0 0 0 3.9687501,3.96875 3.96875,3.96875 0 0 0 3.96875,-3.96875 3.96875,3.96875 0 0 0 -3.96875,-3.96875 z m 0,2.38125 a 1.5875001,1.5875044 0 0 1 1.5875,1.5875 1.5875001,1.5875044 0 0 1 -1.5875,1.5875 1.5875001,1.5875044 0 0 1 -1.5875,-1.5875 1.5875001,1.5875044 0 0 1 1.5875,-1.5875 z"
         id="path878" />
    </clipPath>
    <clipPath
       clipPathUnits="userSpaceOnUse"
       id="clipPath922">
      <path
         style="fill:#ffffff;fill-opacity:1;fill-rule:evenodd;stroke:none;stroke-width:0.26458332px;stroke-linecap:butt;stroke-linejoin:miter;stroke-opacity:1"
         d="m 1.3229166,295.4125 h 7.9375003 v -6.08542 c 0,-0.52917 0,-0.52917 -0.529167,-0.52917 H 1.8520833 c -0.5291666,0 -0.5291666,0 -0.5291667,0.52917 z"
         id="path924"
         inkscape:connector-curvature="0"
         sodipodi:nodetypes="ccccccc" />
    </clipPath>
    <clipPath
       clipPathUnits="userSpaceOnUse"
       id="clipPath1816">
      <path
         sodipodi:nodetypes="ccccccc"
         inkscape:connector-curvature="0"
         id="path1818"
         d="M 5.2916667,295.94166 2.6458333,293.29583 C 0.79375,291.44374 0.26458333,287.47499 3.175,287.47499 c 1.0583333,0 1.8520833,1.05834 2.1166667,1.32292 0.2645833,-0.26458 1.3229166,-1.32292 2.1166666,-1.32292 2.9104167,0 2.38125,3.96875 0.5291667,5.82084 z"
         style="fill:#d40000;fill-opacity:1;fill-rule:evenodd;stroke:none;stroke-width:0.26458332px;stroke-linecap:butt;stroke-linejoin:miter;stroke-opacity:1" />
    </clipPath>
  </defs>
  <sodipodi:namedview
     id="base"
     pagecolor="#404040"
     bordercolor="#000000"
     borderopacity="1"
     inkscape:pageopacity="0"
     inkscape:pageshadow="2"
     inkscape:zoom="30.2"
     inkscape:cx="20"
     inkscape:cy="20"
     inkscape:document-units="mm"
     inkscape:current-layer="layer1"
     showgrid="true"
     inkscape:showpageshadow="false"
     units="px"
     width="40px"
     inkscape:snap-bbox="true"
     inkscape:bbox-paths="true"
     inkscape:bbox-nodes="true"
     inkscape:window-width="2560"
     inkscape:window-height="1377"
     inkscape:window-x="0"
     inkscape:window-y="0"
     inkscape:window-maximized="1"
     showguides="false"
     inkscape:snap-bbox-midpoints="true"
     inkscape:snap-object-midpoints="false"
     inkscape:snap-center="true">
    <inkscape:grid
       type="xygrid"
       id="grid815" />
  </sodipodi:namedview>
  <metadata
     id="metadata5">
    <rdf:RDF>
      <cc:Work
         rdf:about="">
        <dc:format>image/svg+xml</dc:format>
        <dc:type
           rdf:resource="http://purl.org/dc/dcmitype/StillImage" />
        <dc:title></dc:title>
      </cc:Work>
    </rdf:RDF>
  </metadata>
  <g
     inkscape:label="Layer 1"
     inkscape:groupmode="layer"
     id="layer1"
     transform="translate(0,-286.41666)">
    <rect
       style="opacity:1;fill:#000000;fill-opacity:0.25098041;stroke:none;stroke-width:1;stroke-linecap:round;stroke-linejoin:round;stroke-miterlimit:4;stroke-dasharray:none;stroke-opacity:1"
       id="rect1847"
       width="8.4666662"
       height="8.4666662"
       x="1.0583333"
       y="287.47501"
       ry="1.0583205" />
    <path
       style="fill:#ffffff;fill-opacity:0.99157302;fill-rule:evenodd;stroke:none;stroke-width:0.26458332px;stroke-linecap:butt;stroke-linejoin:miter;stroke-opacity:1"
       d="m 3.7041666,290.3854 10e-8,-1.32291 h 3.175 l -1e-7,2.91041 -1.3229167,0 1e-7,1.05834 H 5.0270834 l -1e-7,-1.5875 1.3229166,0 10e-8,-1.85209 H 4.2333334 l -1e-7,0.79375 z"
       id="path1867"
       inkscape:connector-curvature="0"
       sodipodi:nodetypes="ccccccccccccc" />
    <path
       style="fill:#ffffff;fill-opacity:0.99157302;fill-rule:evenodd;stroke:none;stroke-width:0.26458332px;stroke-linecap:butt;stroke-linejoin:miter;stroke-opacity:1"
       d="m 5.0270834,293.82499 v 0.52916 H 5.55625 v -0.52916 z"
       id="path1869"
       inkscape:connector-curvature="0"
       sodipodi:nodetypes="ccccc" />
  </g>
</svg>
