<?xml version="1.0" encoding="UTF-8" standalone="no"?>
<!-- Created with Inkscape (http://www.inkscape.org/) -->

<svg
   xmlns:dc="http://purl.org/dc/elements/1.1/"
   xmlns:cc="http://creativecommons.org/ns#"
   xmlns:rdf="http://www.w3.org/1999/02/22-rdf-syntax-ns#"
   xmlns:svg="http://www.w3.org/2000/svg"
   xmlns="http://www.w3.org/2000/svg"
   xmlns:sodipodi="http://sodipodi.sourceforge.net/DTD/sodipodi-0.dtd"
   xmlns:inkscape="http://www.inkscape.org/namespaces/inkscape"
   width="40"
   height="40"
   viewBox="0 0 10.583333 10.583333"
   version="1.1"
   id="svg8"
   inkscape:version="0.92.2 5c3e80d, 2017-08-06"
   sodipodi:docname="icon-efm-cd.svg"
   inkscape:export-filename="/home/raster/C/th-efl/th/img/efm_drive_cd_160.png"
   inkscape:export-xdpi="384"
   inkscape:export-ydpi="384">
  <defs
     id="defs2">
    <clipPath
       clipPathUnits="userSpaceOnUse"
       id="clipPath876">
      <path
         inkscape:connector-curvature="0"
         style="opacity:1;fill:#ffffff;fill-opacity:1;stroke:none;stroke-width:1;stroke-linecap:round;stroke-linejoin:round;stroke-miterlimit:4;stroke-dasharray:none;stroke-opacity:1"
         d="m 5.2916667,287.73958 a 3.96875,3.96875 0 0 0 -3.9687501,3.96875 3.96875,3.96875 0 0 0 3.9687501,3.96875 3.96875,3.96875 0 0 0 3.96875,-3.96875 3.96875,3.96875 0 0 0 -3.96875,-3.96875 z m 0,2.38125 a 1.5875001,1.5875044 0 0 1 1.5875,1.5875 1.5875001,1.5875044 0 0 1 -1.5875,1.5875 1.5875001,1.5875044 0 0 1 -1.5875,-1.5875 1.5875001,1.5875044 0 0 1 1.5875,-1.5875 z"
         id="path878" />
    </clipPath>
  </defs>
  <sodipodi:namedview
     id="base"
     pagecolor="#404040"
     bordercolor="#000000"
     borderopacity="1"
     inkscape:pageopacity="0"
     inkscape:pageshadow="2"
     inkscape:zoom="30.125"
     inkscape:cx="20"
     inkscape:cy="19.966805"
     inkscape:document-units="mm"
     inkscape:current-layer="layer1"
     showgrid="true"
     inkscape:showpageshadow="false"
     units="px"
     width="40px"
     inkscape:snap-bbox="true"
     inkscape:bbox-paths="true"
     inkscape:bbox-nodes="true"
     inkscape:window-width="2560"
     inkscape:window-height="1377"
     inkscape:window-x="0"
     inkscape:window-y="0"
     inkscape:window-maximized="1">
    <inkscape:grid
       type="xygrid"
       id="grid815" />
  </sodipodi:namedview>
  <metadata
     id="metadata5">
    <rdf:RDF>
      <cc:Work
         rdf:about="">
        <dc:format>image/svg+xml</dc:format>
        <dc:type
           rdf:resource="http://purl.org/dc/dcmitype/StillImage" />
        <dc:title></dc:title>
      </cc:Work>
    </rdf:RDF>
  </metadata>
  <g
     inkscape:label="Layer 1"
     inkscape:groupmode="layer"
     id="layer1"
     transform="translate(0,-286.41666)">
    <path
       style="opacity:1;fill:#ffffff;fill-opacity:0.50196081;stroke:none;stroke-width:3.77952766;stroke-linecap:round;stroke-linejoin:round;stroke-miterlimit:4;stroke-dasharray:none;stroke-opacity:1"
       d="M 20 4 A 15.999999 15.999999 0 0 0 4 20 A 15.999999 15.999999 0 0 0 20 36 A 15.999999 15.999999 0 0 0 36 20 A 15.999999 15.999999 0 0 0 20 4 z M 20 17 A 3 3 0 0 1 23 20 A 3 3 0 0 1 20 23 A 3 3 0 0 1 17 20 A 3 3 0 0 1 20 17 z "
       id="path817"
       transform="matrix(0.26458333,0,0,0.26458333,0,286.41666)" />
    <path
       style="opacity:1;fill:#ffffff;fill-opacity:1;stroke:none;stroke-width:3.77952766;stroke-linecap:round;stroke-linejoin:round;stroke-miterlimit:4;stroke-dasharray:none;stroke-opacity:1"
       d="M 20 5 A 15 15 0 0 0 5 20 A 15 15 0 0 0 20 35 A 15 15 0 0 0 35 20 A 15 15 0 0 0 20 5 z M 20 14 A 6.0000004 6.0000166 0 0 1 26 20 A 6.0000004 6.0000166 0 0 1 20 26 A 6.0000004 6.0000166 0 0 1 14 20 A 6.0000004 6.0000166 0 0 1 20 14 z "
       transform="matrix(0.26458333,0,0,0.26458333,0,286.41666)"
       id="path822" />
    <g
       id="g874"
       clip-path="url(#clipPath876)"
       style="opacity:0.1">
      <path
         id="path831"
         transform="matrix(0.26458333,0,0,0.26458333,0,286.41666)"
         d="M 13 0 L 8 5 L 20 20 L 13 0 z M 20 20 L 27 40 L 32 35 L 20 20 z "
         style="fill:#0000ff;fill-opacity:1;fill-rule:evenodd;stroke:none;stroke-width:0.99999994px;stroke-linecap:butt;stroke-linejoin:miter;stroke-opacity:1" />
      <path
         id="path833"
         transform="matrix(0.26458333,0,0,0.26458333,0,286.41666)"
         d="M 8 5 L 3 10 L 20 20 L 8 5 z M 20 20 L 32 35 L 37 30 L 20 20 z "
         style="fill:#00ff00;fill-opacity:1;fill-rule:evenodd;stroke:none;stroke-width:0.99999994px;stroke-linecap:butt;stroke-linejoin:miter;stroke-opacity:1" />
      <path
         id="path835"
         transform="matrix(0.26458333,0,0,0.26458333,0,286.41666)"
         d="M 3 10 L -1 14 L 20 20 L 3 10 z M 20 20 L 37 30 L 41 26 L 20 20 z "
         style="fill:#ff0000;fill-opacity:1;fill-rule:evenodd;stroke:none;stroke-width:0.99999994px;stroke-linecap:butt;stroke-linejoin:miter;stroke-opacity:1" />
    </g>
  </g>
</svg>
