<?xml version="1.0" encoding="UTF-8" standalone="no"?>
<!-- Created with Inkscape (http://www.inkscape.org/) -->

<svg
   xmlns:dc="http://purl.org/dc/elements/1.1/"
   xmlns:cc="http://creativecommons.org/ns#"
   xmlns:rdf="http://www.w3.org/1999/02/22-rdf-syntax-ns#"
   xmlns:svg="http://www.w3.org/2000/svg"
   xmlns="http://www.w3.org/2000/svg"
   xmlns:sodipodi="http://sodipodi.sourceforge.net/DTD/sodipodi-0.dtd"
   xmlns:inkscape="http://www.inkscape.org/namespaces/inkscape"
   width="40"
   height="40"
   viewBox="0 0 10.583333 10.583333"
   version="1.1"
   id="svg8"
   inkscape:version="0.92.2 5c3e80d, 2017-08-06"
   sodipodi:docname="icon-efm-desktop.svg"
   inkscape:export-filename="/home/raster/C/th-efl/th/img/efm_desktop_040.png"
   inkscape:export-xdpi="96"
   inkscape:export-ydpi="96">
  <defs
     id="defs2">
    <clipPath
       clipPathUnits="userSpaceOnUse"
       id="clipPath876">
      <path
         inkscape:connector-curvature="0"
         style="opacity:1;fill:#ffffff;fill-opacity:1;stroke:none;stroke-width:1;stroke-linecap:round;stroke-linejoin:round;stroke-miterlimit:4;stroke-dasharray:none;stroke-opacity:1"
         d="m 5.2916667,287.73958 a 3.96875,3.96875 0 0 0 -3.9687501,3.96875 3.96875,3.96875 0 0 0 3.9687501,3.96875 3.96875,3.96875 0 0 0 3.96875,-3.96875 3.96875,3.96875 0 0 0 -3.96875,-3.96875 z m 0,2.38125 a 1.5875001,1.5875044 0 0 1 1.5875,1.5875 1.5875001,1.5875044 0 0 1 -1.5875,1.5875 1.5875001,1.5875044 0 0 1 -1.5875,-1.5875 1.5875001,1.5875044 0 0 1 1.5875,-1.5875 z"
         id="path878" />
    </clipPath>
  </defs>
  <sodipodi:namedview
     id="base"
     pagecolor="#404040"
     bordercolor="#000000"
     borderopacity="1"
     inkscape:pageopacity="0"
     inkscape:pageshadow="2"
     inkscape:zoom="30.125"
     inkscape:cx="20"
     inkscape:cy="18.984829"
     inkscape:document-units="mm"
     inkscape:current-layer="layer1"
     showgrid="true"
     inkscape:showpageshadow="false"
     units="px"
     width="40px"
     inkscape:snap-bbox="true"
     inkscape:bbox-paths="true"
     inkscape:bbox-nodes="true"
     inkscape:window-width="2560"
     inkscape:window-height="1377"
     inkscape:window-x="0"
     inkscape:window-y="0"
     inkscape:window-maximized="1">
    <inkscape:grid
       type="xygrid"
       id="grid815" />
  </sodipodi:namedview>
  <metadata
     id="metadata5">
    <rdf:RDF>
      <cc:Work
         rdf:about="">
        <dc:format>image/svg+xml</dc:format>
        <dc:type
           rdf:resource="http://purl.org/dc/dcmitype/StillImage" />
        <dc:title></dc:title>
      </cc:Work>
    </rdf:RDF>
  </metadata>
  <g
     inkscape:label="Layer 1"
     inkscape:groupmode="layer"
     id="layer1"
     transform="translate(0,-286.41666)">
    <path
       style="fill:#dcdcdc;fill-opacity:1;fill-rule:evenodd;stroke:none;stroke-width:0.99999994px;stroke-linecap:butt;stroke-linejoin:miter;stroke-opacity:1"
       d="M 12 14 C 9 13.999962 9 13.999962 9 17 L 9 33 C 9 36 9 36 12 36 L 28 36 C 31 36 31 36 31 33 L 31 30 L 33 30 C 35 30 36 28.999975 36 27 L 36 23 C 36 20.999987 35 19.999962 33 20 L 31 20 L 31 17 C 31 14 31 14 28 14 L 12 14 z M 31 22 C 34 22 34 22 34 25 C 34 28 34 28 31 28 L 31 22 z "
       transform="matrix(0.26458333,0,0,0.26458333,0,286.41666)"
       id="path829" />
    <path
       style="fill:#ffffff;fill-opacity:0.50196081;fill-rule:evenodd;stroke:none;stroke-width:0.26458332px;stroke-linecap:butt;stroke-linejoin:miter;stroke-opacity:1"
       d="m 5.5562499,289.85624 c 0,0 1.5875001,-0.26458 1.5875,-0.79375 -1e-7,-0.52916 -1.3229166,-0.26458 -1.3229166,-0.79375 0,-0.79375 1.0583334,-0.79375 1.0583334,-0.79375 0,0 -1.5901565,0 -1.5885979,0.77618 0.0011,0.54674 1.059431,0.28216 1.0594311,0.81132 10e-8,0.52917 -0.79375,0.79375 -0.79375,0.79375 z"
       id="path835"
       inkscape:connector-curvature="0"
       sodipodi:nodetypes="csscssc" />
    <path
       style="fill:#ffffff;fill-opacity:0.50196081;fill-rule:evenodd;stroke:none;stroke-width:0.26458332px;stroke-linecap:butt;stroke-linejoin:miter;stroke-opacity:1"
       d="m 4.7624999,289.85624 c 0,0 0.79375,-0.26458 0.79375,-0.52916 1e-7,-0.52917 -1.3229166,-0.52917 -1.3229166,-1.05834 0,-0.52916 1.0583333,-0.79375 1.0583333,-0.79375 0,0 -1.5875001,0.26459 -1.5875,0.79375 10e-8,0.52917 1.3229167,0.79375 1.3218188,1.07591 -9.612e-4,0.24701 -0.2634855,0.51159 -0.2634855,0.51159 z"
       id="path837"
       inkscape:connector-curvature="0"
       sodipodi:nodetypes="csscssc" />
    <path
       style="fill:#ffffff;fill-opacity:1;fill-rule:evenodd;stroke:none;stroke-width:0.26458332px;stroke-linecap:butt;stroke-linejoin:miter;stroke-opacity:1"
       d="m 3.4395833,290.12083 v 5.29166 c 0,0 0,0.26459 0.2645833,0.26459 0.2645834,0 0.2645834,-0.26459 0.2645834,-0.26459 v -5.29166 z"
       id="path840"
       inkscape:connector-curvature="0"
       sodipodi:nodetypes="ccsccc" />
    <path
       style="fill:#ffffff;fill-opacity:1;fill-rule:evenodd;stroke:none;stroke-width:0.26458332px;stroke-linecap:butt;stroke-linejoin:miter;stroke-opacity:1"
       d="m 2.9104166,290.38541 c -0.2645833,0 -0.2645833,0.26458 0,0.26458 h 2.1166667 c 0.2645834,0 0.2645834,-0.26458 0,-0.26458 z"
       id="path842"
       inkscape:connector-curvature="0"
       sodipodi:nodetypes="ccccc" />
    <path
       style="fill:#c8c8c8;fill-opacity:1;fill-rule:evenodd;stroke:none;stroke-width:0.26458332px;stroke-linecap:butt;stroke-linejoin:miter;stroke-opacity:1"
       d="m 6.6145832,290.12083 10e-8,5.02708 c 0,0.79375 -1.7593203,0.78363 -2.6458333,0.79375 h 3.4395832 c 0.7937501,0 0.7937501,0 0.79375,-0.79375 v -4.23333 c 10e-8,-0.79375 10e-8,-0.79375 -0.79375,-0.79375 z"
       id="path844"
       inkscape:connector-curvature="0"
       sodipodi:nodetypes="cccccccc" />
    <path
       style="fill:#c8c8c8;fill-opacity:1;fill-rule:evenodd;stroke:none;stroke-width:0.26458332px;stroke-linecap:butt;stroke-linejoin:miter;stroke-opacity:1"
       d="m 8.2020832,294.08958 h 0.5291667 c 0.2645834,0 0.5291668,-0.26459 0.5291667,-0.52917 v -1.32292 c 1e-7,-0.26458 -0.2645833,-0.52916 -0.5291667,-0.52916 0.5291668,0 0.7937501,0.26458 0.79375,0.79375 v 1.05833 c 1e-7,0.52917 -0.2645832,0.79375 -0.79375,0.79375 H 8.2020832 Z"
       id="path846"
       inkscape:connector-curvature="0"
       sodipodi:nodetypes="cccccccccc" />
    <path
       style="fill:#c8c8c8;fill-opacity:1;fill-rule:evenodd;stroke:none;stroke-width:0.26458332px;stroke-linecap:butt;stroke-linejoin:miter;stroke-opacity:1"
       d="m 8.2020832,291.97291 0.2645835,0 c 0.2645833,0 0.5291666,0.26458 0.5291665,0.52917 v 0.26458 c 10e-8,-0.52917 -0.2645832,-0.52917 -0.7937499,-0.52917 h -10e-8 z"
       id="path848"
       inkscape:connector-curvature="0"
       sodipodi:nodetypes="ccccccc" />
  </g>
</svg>
