<?xml version="1.0" encoding="UTF-8" standalone="no"?>
<!-- Created with Inkscape (http://www.inkscape.org/) -->

<svg
   xmlns:dc="http://purl.org/dc/elements/1.1/"
   xmlns:cc="http://creativecommons.org/ns#"
   xmlns:rdf="http://www.w3.org/1999/02/22-rdf-syntax-ns#"
   xmlns:svg="http://www.w3.org/2000/svg"
   xmlns="http://www.w3.org/2000/svg"
   xmlns:sodipodi="http://sodipodi.sourceforge.net/DTD/sodipodi-0.dtd"
   xmlns:inkscape="http://www.inkscape.org/namespaces/inkscape"
   width="16"
   height="16"
   viewBox="0 0 4.2333333 4.2333333"
   version="1.1"
   id="svg8"
   sodipodi:docname="icon-efm-sym-op-ask.svg"
   inkscape:export-filename="/home/raster/C/th-efl/th/img/sym_icon_op_ask.png"
   inkscape:export-xdpi="192.00002"
   inkscape:export-ydpi="192.00002"
   inkscape:version="0.92.3 (2405546, 2018-03-11)">
  <defs
     id="defs2" />
  <sodipodi:namedview
     id="base"
     pagecolor="#404040"
     bordercolor="#000000"
     borderopacity="1"
     inkscape:pageopacity="0"
     inkscape:pageshadow="2"
     inkscape:zoom="75.1875"
     inkscape:cx="8"
     inkscape:cy="8"
     inkscape:document-units="mm"
     inkscape:current-layer="layer1"
     showgrid="true"
     units="px"
     inkscape:showpageshadow="false"
     inkscape:snap-bbox="true"
     inkscape:bbox-nodes="true"
     inkscape:window-width="2560"
     inkscape:window-height="1377"
     inkscape:window-x="0"
     inkscape:window-y="0"
     inkscape:window-maximized="1">
    <inkscape:grid
       type="xygrid"
       id="grid815"
       color="#1a1f73"
       opacity="0.20392157"
       empcolor="#00002b"
       empopacity="0.21176471"
       empspacing="4" />
  </sodipodi:namedview>
  <metadata
     id="metadata5">
    <rdf:RDF>
      <cc:Work
         rdf:about="">
        <dc:format>image/svg+xml</dc:format>
        <dc:type
           rdf:resource="http://purl.org/dc/dcmitype/StillImage" />
        <dc:title></dc:title>
      </cc:Work>
    </rdf:RDF>
  </metadata>
  <g
     inkscape:label="Layer 1"
     inkscape:groupmode="layer"
     id="layer1"
     transform="translate(0,-292.76667)">
    <path
       style="fill:#f9f9f9;fill-opacity:1;stroke:none;stroke-width:0.99999994px;stroke-linecap:butt;stroke-linejoin:miter;stroke-opacity:1"
       d="M 4 2 L 4 14 L 12 14 L 12 5 L 9 2 L 4 2 z M 8 4 A 3 3 0 0 1 11 7 A 3 3 0 0 1 9 9.8242188 L 9 11 L 8 11 L 8 10 L 8 9 A 1.9999999 1.9999999 0 0 0 10 7 A 1.9999999 1.9999999 0 0 0 8 5 A 1.9999999 1.9999999 0 0 0 6.5859375 5.5859375 L 5.8808594 4.8808594 A 3 3 0 0 1 8 4 z M 8.5 12 A 0.49999996 0.49999996 0 0 1 9 12.5 A 0.49999996 0.49999996 0 0 1 8.5 13 A 0.49999996 0.49999996 0 0 1 8 12.5 A 0.49999996 0.49999996 0 0 1 8.5 12 z "
       transform="matrix(0.26458333,0,0,0.26458333,0,292.76667)"
       id="path817" />
  </g>
</svg>
